<svg width="23" height="19" viewBox="0 0 23 19" fill="none" xmlns="http://www.w3.org/2000/svg">
<path d="M2.29996 0C1.68997 0 1.10497 0.22242 0.673643 0.61833C0.242317 1.01424 0 1.55121 0 2.11111V7.26645C0 7.82635 0.242317 8.36332 0.673643 8.75923C1.10497 9.15514 1.68997 9.37755 2.29996 9.37755H5.4923C5.4923 10.1186 5.44401 10.8617 5.34971 11.6027C5.20711 12.388 4.96791 13.0868 4.63672 13.6969C4.30322 14.3091 3.87543 14.7883 3.35104 15.1388C2.82895 15.5314 2.16426 15.7278 1.35468 15.7278V19C2.68635 19 3.85013 18.7382 4.85062 18.2147C5.84239 17.6964 6.69509 16.9808 7.34607 16.1204C7.99943 15.1719 8.481 14.1324 8.77205 13.0424C9.06533 11.8396 9.20884 10.6101 9.19984 9.37755V2.11111C9.19984 1.55121 8.95752 1.01424 8.5262 0.61833C8.09487 0.22242 7.50987 0 6.89988 0H2.29996ZM16.0997 0C15.4897 0 14.9047 0.22242 14.4734 0.61833C14.0421 1.01424 13.7998 1.55121 13.7998 2.11111V7.26645C13.7998 7.82635 14.0421 8.36332 14.4734 8.75923C14.9047 9.15514 15.4897 9.37755 16.0997 9.37755H19.2921C19.2921 10.1186 19.2438 10.8617 19.1495 11.6027C19.0069 12.388 18.7677 13.0868 18.4365 13.6969C18.103 14.3091 17.6752 14.7883 17.1508 15.1388C16.6287 15.5314 15.964 15.7278 15.1544 15.7278V19C16.4861 19 17.6499 18.7382 18.6504 18.2147C19.6422 17.6964 20.4948 16.9808 21.1458 16.1204C21.7992 15.1719 22.2808 14.1324 22.5718 13.0424C22.8651 11.8396 23.0086 10.6101 22.9996 9.37755V2.11111C22.9996 1.55121 22.7573 1.01424 22.326 0.61833C21.8946 0.22242 21.3096 0 20.6996 0H16.0997Z" fill="#578FFE"/>
</svg>
