<svg width="23" height="19" viewBox="0 0 23 19" fill="none" xmlns="http://www.w3.org/2000/svg">
<path d="M20.7 19C21.31 19 21.895 18.7776 22.3264 18.3817C22.7577 17.9858 23 17.4488 23 16.8889V11.7336C23 11.1737 22.7577 10.6367 22.3264 10.2408C21.895 9.84486 21.31 9.62245 20.7 9.62245H17.5077C17.5077 8.88145 17.556 8.13833 17.6503 7.39733C17.7929 6.612 18.0321 5.91322 18.3633 5.30311C18.6968 4.69089 19.1246 4.21167 19.649 3.86122C20.171 3.46856 20.8357 3.27222 21.6453 3.27222V0C20.3136 0 19.1499 0.261778 18.1494 0.785333C17.1576 1.30358 16.3049 2.01918 15.6539 2.87956C15.0006 3.82811 14.519 4.86758 14.228 5.95756C13.9347 7.16038 13.7912 8.38989 13.8002 9.62245V16.8889C13.8002 17.4488 14.0425 17.9858 14.4738 18.3817C14.9051 18.7776 15.4901 19 16.1001 19H20.7ZM6.90028 19C7.51027 19 8.09527 18.7776 8.5266 18.3817C8.95792 17.9858 9.20024 17.4488 9.20024 16.8889V11.7336C9.20024 11.1737 8.95792 10.6367 8.5266 10.2408C8.09527 9.84486 7.51027 9.62245 6.90028 9.62245H3.70793C3.70793 8.88145 3.75623 8.13833 3.85053 7.39733C3.99313 6.612 4.23233 5.91322 4.56352 5.30311C4.89701 4.69089 5.32481 4.21167 5.8492 3.86122C6.37129 3.46856 7.03598 3.27222 7.84556 3.27222V0C6.51389 0 5.35011 0.261778 4.34962 0.785333C3.35785 1.30358 2.50515 2.01918 1.85417 2.87956C1.20081 3.82811 0.719238 4.86758 0.428191 5.95756C0.134914 7.16038 -0.00860317 8.38989 0.000398533 9.62245V16.8889C0.000398533 17.4488 0.242715 17.9858 0.674041 18.3817C1.10537 18.7776 1.69037 19 2.30036 19H6.90028Z" fill="#578FFE"/>
</svg>
