<svg width="78" height="78" viewBox="0 0 78 78" fill="none" xmlns="http://www.w3.org/2000/svg">
<path d="M12.3702 75.1876H65.6336V10.8004H12.3702V75.1876Z" fill="#DFE9FD"/>
<mask id="mask0_1_74" style="mask-type:luminance" maskUnits="userSpaceOnUse" x="12" y="10" width="54" height="66">
<path d="M12 10.4488H66V75.4578H12V10.4488Z" fill="white"/>
</mask>
<g mask="url(#mask0_1_74)">
<path d="M65.6324 75.1806V74.8973H12.6518V11.0763H65.3495V75.1806H65.6324H65.9152V10.7934C65.9152 10.7187 65.8852 10.6461 65.832 10.5929C65.7793 10.5406 65.707 10.5105 65.6324 10.5105H12.369C12.2947 10.5105 12.2225 10.5406 12.1693 10.5929C12.1173 10.6461 12.0861 10.7187 12.0861 10.7934V75.1806C12.0861 75.2548 12.1173 75.3279 12.1693 75.3803C12.2225 75.4326 12.2947 75.4626 12.369 75.4626H65.6324C65.707 75.4626 65.7793 75.4326 65.832 75.3803C65.8852 75.3279 65.9152 75.2548 65.9152 75.1806H65.6324Z" fill="#578FFE"/>
</g>
<path d="M63.6289 73.619H14.3591V12.3673H63.6289V73.619ZM38.9946 71.0439C38.9946 71.0439 38.9954 71.0439 38.9958 71.0439C41.8185 71.0439 44.5084 70.2505 46.9463 68.8227C50.605 66.6807 53.7016 63.1149 55.8846 58.6425C58.0681 54.1689 59.3392 48.7858 59.34 42.9932C59.3392 35.2695 57.0802 28.2732 53.4098 23.1924C51.5742 20.6526 49.3858 18.5914 46.9463 17.1636C44.5076 15.735 41.8177 14.9416 38.9946 14.9424C38.9938 14.9424 38.9938 14.9424 38.993 14.9424C36.1699 14.9424 33.4804 15.7354 31.0417 17.1636C27.3834 19.3057 24.2876 22.8706 22.1034 27.3438C19.9203 31.8174 18.6484 37.2005 18.6484 42.9932C18.6488 50.716 20.9082 57.7123 24.5782 62.7931C26.4138 65.3328 28.603 67.3949 31.0417 68.8227C33.4804 70.2505 36.1699 71.0439 38.993 71.0439C38.993 71.0439 38.9938 71.0439 38.9946 71.0439Z" fill="#DFE9FD"/>
<path d="M63.9175 74.1865H14.0823C14.0076 74.1865 13.935 74.1561 13.8826 74.1033C13.8295 74.051 13.7994 73.9779 13.7994 73.9036V12.0863C13.7994 12.012 13.8295 11.939 13.8826 11.8862C13.935 11.8338 14.0076 11.8034 14.0823 11.8034H63.9175C63.9918 11.8034 64.0648 11.8338 64.118 11.8862C64.1704 11.939 64.2004 12.012 64.2004 12.0863V73.9036C64.2004 73.9779 64.1704 74.051 64.118 74.1033C64.0648 74.1561 63.9918 74.1865 63.9175 74.1865ZM14.3648 12.3692V73.6208H63.6347V12.3692H14.3648Z" fill="#FF0082"/>
<path d="M65.6336 10.7942H12.3702L16.0833 3.27551H61.9205L65.6336 10.7942Z" fill="#DFE9FD"/>
<mask id="mask1_1_74" style="mask-type:luminance" maskUnits="userSpaceOnUse" x="12" y="3" width="54" height="9">
<path d="M12 3H66V11.1859H12V3Z" fill="white"/>
</mask>
<g mask="url(#mask1_1_74)">
<path d="M65.6129 10.8015V10.5187H12.8048L16.2387 3.56534H61.7249L65.3588 10.9265L65.6129 10.8015L65.8665 10.6761L62.1535 3.15747C62.1064 3.06088 62.0074 3 61.8998 3H16.0626C15.955 3 15.8564 3.06088 15.8093 3.15747L12.0962 10.6761C12.0536 10.763 12.0585 10.8685 12.1096 10.9509C12.1612 11.0333 12.2525 11.0844 12.3495 11.0844H65.6129C65.7103 11.0844 65.8016 11.0333 65.8531 10.9509C65.9039 10.8685 65.9092 10.763 65.8665 10.6761L65.6129 10.8015Z" fill="#578FFE"/>
</g>
<path d="M65.171 10.5143H12.8179L14.2307 7.65353H30.0939L30.5273 8.04964C30.5257 8.06141 30.5249 8.07318 30.5249 8.08495V8.79842C30.5249 8.87269 30.5553 8.94574 30.6073 8.9981C30.6605 9.05126 30.7335 9.08129 30.8078 9.08129H47.1816C47.2562 9.08129 47.3289 9.05126 47.3812 8.9981C47.4344 8.94574 47.4644 8.87269 47.4644 8.79842V8.08495C47.4644 8.07318 47.464 8.06141 47.4624 8.04964L47.8946 7.65353H63.7583L65.171 10.5143Z" fill="#DFE9FD"/>
<path d="M12.1119 10.674L13.8039 7.24741C13.8047 7.247 13.8051 7.24538 13.8059 7.24457L12.1119 10.674Z" fill="#FF0082"/>
<mask id="mask2_1_74" style="mask-type:luminance" maskUnits="userSpaceOnUse" x="12" y="7" width="54" height="5">
<path d="M12 7.02823H66V11.1841H12V7.02823Z" fill="white"/>
</mask>
<g mask="url(#mask2_1_74)">
<path d="M65.6129 11.0786H12.3495C12.2525 11.0786 12.1612 11.0274 12.1097 10.945C12.0816 10.8996 12.0674 10.848 12.0674 10.7957C12.0674 10.7531 12.0772 10.7101 12.0963 10.6703L13.7903 7.2409C13.8381 7.14593 13.9355 7.08627 14.0423 7.08627H14.4968L14.2176 7.65202L12.8049 10.5128H65.158L63.466 7.08627H63.9213C64.0281 7.08627 64.1267 7.14796 64.1746 7.24374L65.8666 10.6703C65.8856 10.7101 65.8958 10.7531 65.8954 10.7957C65.8954 10.848 65.8812 10.8996 65.8532 10.945C65.8016 11.0274 65.7103 11.0786 65.6129 11.0786Z" fill="#F47D61"/>
</g>
<path d="M65.1789 10.5118L63.7661 7.65104H47.9025L48.5198 7.0853H63.4869L65.1789 10.5118ZM30.1017 7.65104H14.2385L14.5177 7.0853H29.4853L30.1017 7.65104Z" fill="#FF0082"/>
<path d="M47.1933 9.08125H30.8195C30.7453 9.08125 30.6722 9.05121 30.6191 8.99805C30.5671 8.9457 30.5367 8.87264 30.5367 8.79837V8.0849C30.5367 8.07313 30.5375 8.06136 30.5391 8.04959L31.3232 8.76915C31.3756 8.81704 31.4433 8.84342 31.5143 8.84342H46.4981C46.5695 8.84342 46.6365 8.81704 46.6897 8.76915L47.4742 8.04959C47.4758 8.06136 47.4762 8.07313 47.4762 8.0849V8.79837C47.4762 8.87264 47.4462 8.9457 47.393 8.99805C47.3406 9.05121 47.268 9.08125 47.1933 9.08125Z" fill="#FF0082"/>
<path d="M28.918 6.17697H49.0942L46.4976 8.55644H31.5138L28.918 6.17697Z" fill="#DFE9FD"/>
<path d="M28.9086 6.17962V6.4625H48.3574L46.3777 8.27621H31.6148L29.0993 5.97143L28.9086 6.17962L28.717 6.38823L31.3132 8.76769C31.3656 8.81558 31.4333 8.84196 31.5044 8.84196H46.4881C46.5596 8.84196 46.6265 8.81558 46.6797 8.76769L49.2755 6.38823C49.3615 6.30868 49.3903 6.18652 49.3481 6.07654C49.3055 5.96777 49.2016 5.89716 49.0847 5.89716H28.9086C28.7913 5.89716 28.687 5.96777 28.6448 6.07654C28.6022 6.18652 28.631 6.30868 28.717 6.38823L28.9086 6.17962Z" fill="#578FFE"/>
<path d="M47.0083 7.71042H30.9989L30.5367 7.28631C30.544 7.22381 30.5728 7.16537 30.6166 7.12073C30.6698 7.06837 30.742 7.03793 30.8171 7.03793H47.1909C47.2656 7.03793 47.3382 7.06837 47.3906 7.12073C47.4356 7.16537 47.4636 7.22381 47.4717 7.28631L47.0083 7.71042Z" fill="#FF0082"/>
<path d="M47.1933 7.70743H47.0107L47.4742 7.28333C47.4758 7.29428 47.4762 7.30605 47.4762 7.31782V7.42456C47.4762 7.49923 47.4462 7.57188 47.393 7.62423C47.3406 7.6774 47.268 7.70743 47.1933 7.70743ZM31.0014 7.70743H30.8195C30.7453 7.70743 30.6722 7.6774 30.6191 7.62423C30.5671 7.57188 30.5367 7.49923 30.5367 7.42456V7.31782C30.5367 7.30605 30.5375 7.29428 30.5391 7.28333L31.0014 7.70743Z" fill="#F47D61"/>
<path d="M38.9954 70.4756C36.2782 70.4747 33.6906 69.7142 31.3281 68.3319C27.7863 66.2588 24.7559 62.7824 22.6126 58.392C20.4698 54.0015 19.2149 48.7 19.2149 42.9906C19.2141 35.3773 21.4467 28.4906 25.0372 23.5214C26.833 21.036 28.9669 19.0307 31.3281 17.6484C33.6906 16.2661 36.2782 15.5056 38.9954 15.5056C41.7117 15.5056 44.2993 16.2661 46.6613 17.6484C50.2036 19.7215 53.234 23.198 55.3773 27.5892C57.5205 31.9796 58.775 37.2812 58.775 42.9906C58.7758 50.603 56.5432 57.4906 52.9519 62.4597C51.1569 64.9443 49.023 66.9496 46.6613 68.3319C44.2993 69.7142 41.7117 70.4747 38.9954 70.4756ZM33.2182 62.6931C33.2352 62.8972 33.2904 63.1249 33.4223 63.3477C33.5445 63.5563 33.7303 63.7564 33.9909 63.9342C34.3821 64.2012 34.9406 64.4232 35.745 64.5823C36.5497 64.7406 37.6045 64.8355 38.9954 64.8355C39.8164 64.8355 40.5238 64.7994 41.1321 64.7337C41.8419 64.6574 42.4187 64.5409 42.8874 64.3956C43.1297 64.3205 43.3432 64.2389 43.5319 64.1497C43.5611 64.1359 43.5899 64.1217 43.6179 64.1079C44.0473 63.8915 44.3399 63.6367 44.5246 63.3627C44.7015 63.1006 44.7721 62.8242 44.7766 62.5807C45.7916 61.9987 46.6179 61.2592 47.2839 60.4216C48.344 59.0892 48.9994 57.5141 49.3927 55.9191C49.7851 54.3238 49.915 52.7081 49.9158 51.2848C49.9162 50.782 49.8882 50.435 49.8001 49.9812C49.792 49.9232 49.7803 49.8664 49.7644 49.8096C49.764 49.8059 49.7624 49.8023 49.7616 49.7986C49.7174 49.6403 49.6467 49.4885 49.5546 49.3449C49.2661 48.8989 48.7782 48.5194 48.137 48.1813C47.1739 47.6764 45.8541 47.2678 44.2904 46.9796C42.7267 46.6931 40.9207 46.5299 38.9954 46.5299C36.0607 46.5303 33.404 46.9074 31.4588 47.5283C30.4856 47.84 29.6894 48.2093 29.1163 48.6411C28.8306 48.8566 28.5993 49.0896 28.4349 49.3449C28.3505 49.4768 28.2839 49.616 28.2401 49.7605C28.2243 49.786 28.2133 49.8148 28.2068 49.8449C28.1492 50.1152 28.1155 50.3372 28.0968 50.56C28.0777 50.784 28.0749 51.0064 28.0749 51.2848C28.0749 52.5454 28.148 53.9609 28.4085 55.3798C28.8006 57.5068 29.6171 59.6513 31.2665 61.269C31.8204 61.8116 32.4669 62.2941 33.2182 62.6931Z" fill="#DFE9FD"/>
<path d="M39.0027 71.0431C39.0023 71.0431 39.0015 71.0431 39.0015 71.0431C39.0007 71.0431 38.9999 71.0431 38.9999 71.0431C36.1768 71.0431 33.4873 70.2497 31.0486 68.8219C28.6098 67.3942 26.4207 65.3321 24.5851 62.7923C20.915 57.7115 18.6557 50.7152 18.6553 42.9924C18.6553 37.1998 19.9272 31.8167 22.1102 27.343C24.2945 22.8698 27.3903 19.3049 31.0486 17.1628C33.4873 15.7347 36.1768 14.9417 38.9999 14.9417C39.0007 14.9417 39.0007 14.9417 39.0015 14.9417C41.8245 14.9408 44.5145 15.7343 46.9532 17.1628C49.3927 18.5906 51.581 20.6519 53.4167 23.1917C57.0871 28.2724 59.346 35.2688 59.3469 42.9924C59.346 48.785 58.0749 54.1681 55.8915 58.6417C53.7085 63.1141 50.6119 66.6799 46.9532 68.8219C44.5153 70.2497 41.8253 71.0431 39.0027 71.0431ZM39.0015 15.5074C36.2844 15.5074 33.6967 16.2679 31.3343 17.6503C28.9731 19.0326 26.8391 21.0378 25.0433 23.5232C21.4528 28.4924 19.2202 35.3792 19.221 42.9924C19.221 48.7018 20.4759 54.0033 22.6188 58.3938C24.762 62.7842 27.7925 66.2606 31.3343 68.3337C33.6967 69.716 36.2844 70.4766 39.0015 70.4774C41.7178 70.4766 44.3055 69.716 46.6675 68.3337C49.0291 66.9514 51.163 64.9461 52.9581 62.4615C56.5494 57.4924 58.7819 50.6048 58.7811 42.9924C58.7811 37.283 57.5266 31.9814 55.3834 27.591C53.2401 23.1998 50.2097 19.7233 46.6675 17.6503C44.3055 16.2679 41.7178 15.5074 39.0015 15.5074Z" fill="#FF0082"/>
<path d="M27.0794 31.8202C26.4341 32.6538 26.001 33.5787 25.7774 34.5978C25.6593 35.0896 25.6033 35.558 25.6033 36.006C25.6033 36.601 25.7064 37.1517 25.9304 37.6436C26.3046 38.4772 26.8793 38.8985 27.6776 38.8985C28.4495 38.8985 29.2243 38.4772 29.9726 37.6436L29.6102 36.2739C29.1772 36.8717 28.7559 37.1635 28.3553 37.1635C28.2165 37.1635 28.0871 37.1282 27.9694 37.0693C27.5952 36.8835 27.4065 36.5332 27.4065 36.0146C27.4065 35.8291 27.43 35.6172 27.4889 35.3843C27.5952 34.8806 27.8277 34.3534 28.1812 33.7788C28.6265 33.0868 29.0359 32.7362 29.4454 32.7362C29.6812 32.7362 29.8785 32.8275 30.055 33.0044L31.3456 31.5872C30.9686 30.7301 30.3971 30.297 29.5984 30.297C28.6853 30.297 27.8513 30.8011 27.0794 31.8202Z" fill="white"/>
<path d="M34.9977 32.3135L35.136 30.1808L31.3268 30.7433L29.9684 38.9471C31.6567 38.514 33.0504 38.2429 34.1405 38.1605L34.2935 36.0278L32.1722 36.3342L32.255 35.8894C32.2785 35.7364 32.302 35.583 32.3373 35.4328C32.8292 35.3269 33.507 35.1857 34.3763 35.0323L34.4822 33.4507L32.6527 33.8395L32.7704 33.2177C32.8175 32.9941 32.8763 32.7847 32.9323 32.5611C33.5541 32.4665 34.2464 32.3724 34.9977 32.3135Z" fill="white"/>
<path d="M34.4434 37.424C34.2899 38.2665 34.2076 38.7819 34.1958 38.9467L36.0018 38.4431C36.0931 37.6005 36.2348 36.6728 36.4113 35.6772H36.4348L37.6516 38.829C38.4503 38.1277 39.0481 37.5888 39.4462 37.2235C38.6743 35.689 38.2262 34.7758 38.1231 34.4812C39.4105 33.4504 40.0558 32.4191 40.0675 31.3883C40.0793 30.6752 39.5639 30.3099 38.5326 30.3099C37.7697 30.3099 36.7855 30.4869 35.5895 30.8493L34.4434 37.424ZM37.805 32.4897C38.029 32.4897 38.1349 32.5725 38.1349 32.7373C38.1349 32.8079 38.1114 32.8639 38.0761 32.9345C37.9819 33.1703 37.7814 33.4146 37.4779 33.674C37.2185 33.8952 36.9624 34.0717 36.6913 34.2129L36.8561 33.4386C36.9032 33.1821 36.9624 32.9228 37.0331 32.6667C37.3719 32.549 37.6313 32.4897 37.805 32.4897Z" fill="white"/>
<path d="M43.8829 32.3135L44.0213 30.1808L40.212 30.7433L38.8536 38.9471C40.5419 38.514 41.9356 38.2429 43.0257 38.1605L43.1787 36.0278L41.0574 36.3342L41.1402 35.8894C41.1637 35.7364 41.1872 35.583 41.2226 35.4328C41.7144 35.3269 42.3922 35.1857 43.2611 35.0323L43.3674 33.4507L41.5379 33.8395L41.6556 33.2177C41.7027 32.9941 41.7615 32.7847 41.8175 32.5611C42.4393 32.4665 43.1316 32.3724 43.8829 32.3135Z" fill="white"/>
<path d="M44.6468 38.7237L44.8944 37.7042L45.6545 37.5658L45.4776 38.9944L47.9054 38.4319C47.87 35.2801 48.047 32.5378 48.4447 30.2281L44.9622 30.8146C44.2726 33.4627 43.3684 36.2286 42.2459 39.0889L44.6468 38.7237ZM45.2804 36.1344L46.3587 31.707H46.3705L45.8433 36.0163L45.2804 36.1344Z" fill="white"/>
<path d="M47.8163 38.9463C49.4105 38.5132 50.7214 38.2421 51.7644 38.1597L51.9413 36.027L49.9259 36.3334C50.2177 34.5514 50.6418 32.5956 51.1901 30.4865L49.2218 30.8489L47.8163 38.9463Z" fill="white"/>
<path d="M27.0794 31.8209C26.4341 32.6545 26.001 33.5794 25.7774 34.5985C25.6593 35.0904 25.6033 35.5587 25.6033 36.0064C25.6033 36.6013 25.7064 37.1525 25.9304 37.6443C26.3046 38.4779 26.8793 38.8992 27.6776 38.8992C28.4495 38.8992 29.2243 38.4779 29.9726 37.6443L29.6102 36.2746C29.1772 36.8724 28.7559 37.1642 28.3553 37.1642C28.2165 37.1642 28.0871 37.1289 27.9694 37.0697C27.5952 36.8842 27.4065 36.5335 27.4065 36.0153C27.4065 35.8298 27.43 35.6176 27.4889 35.385C27.5952 34.8814 27.8277 34.3542 28.1812 33.7795C28.6265 33.0875 29.0359 32.7369 29.4454 32.7369C29.6812 32.7369 29.8785 32.8282 30.055 33.0047L31.3456 31.5879C30.9686 30.7308 30.3971 30.2978 29.5984 30.2978C28.6853 30.2978 27.8513 30.8014 27.0794 31.8209ZM35.0027 32.3128L35.1411 30.1801L31.3318 30.7426L29.9734 38.9463C31.6618 38.5133 33.0554 38.2422 34.1455 38.1598L34.2985 36.0271L32.1772 36.3335L32.26 35.8887C32.2835 35.7357 32.3071 35.5823 32.3424 35.4321C32.8342 35.3262 33.512 35.1845 34.3809 35.0315L34.4872 33.4495L32.6577 33.8383L32.7754 33.217C32.8225 32.993 32.8813 32.784 32.9373 32.5599C33.5591 32.4658 34.2515 32.3716 35.0027 32.3128ZM34.4402 37.4232C34.2868 38.2657 34.2044 38.7811 34.1926 38.9463L35.9986 38.4426C36.0899 37.6001 36.2312 36.6723 36.4081 35.6764H36.4316L37.6484 38.8286C38.4471 38.1273 39.0449 37.5883 39.4426 37.2231C38.6707 35.6882 38.223 34.775 38.12 34.4808C39.4073 33.4495 40.0526 32.4187 40.0644 31.3878C40.0761 30.6748 39.5607 30.3095 38.5295 30.3095C37.7665 30.3095 36.7823 30.4865 35.5863 30.8485L34.4402 37.4232ZM37.8018 32.4893C38.0258 32.4893 38.1317 32.5717 38.1317 32.7369C38.1317 32.8075 38.1082 32.8635 38.0729 32.9341C37.9783 33.1699 37.7782 33.4142 37.4747 33.6736C37.2153 33.8943 36.9592 34.0713 36.6881 34.2125L36.8529 33.4378C36.9 33.1817 36.9592 32.9223 37.0299 32.6663C37.3687 32.5482 37.6281 32.4893 37.8018 32.4893ZM43.8866 32.3128L44.025 30.1801L40.2153 30.7426L38.8574 38.9463C40.5453 38.5133 41.939 38.2422 43.0291 38.1598L43.1825 36.0271L41.0611 36.3335L41.1435 35.8887C41.167 35.7357 41.1906 35.5823 41.2259 35.4321C41.7182 35.3262 42.3955 35.1845 43.2648 35.0315L43.3708 33.4495L41.5412 33.8383L41.6589 33.217C41.7064 32.993 41.7653 32.784 41.8213 32.5599C42.443 32.4658 43.1354 32.3716 43.8866 32.3128ZM44.6585 38.7223L44.9061 37.7032L45.6662 37.5648L45.4893 38.9934L47.917 38.4309C47.8817 35.2791 48.0583 32.5364 48.456 30.2271L44.9739 30.8132C44.2843 33.4613 43.3797 36.2275 42.2571 39.0875L44.6585 38.7223ZM45.292 36.133L46.3704 31.706H46.3821L45.8545 36.0153L45.292 36.133ZM47.8229 38.9463C49.4166 38.5133 50.7279 38.2422 51.7705 38.1598L51.9475 36.0271L49.9321 36.3335C50.2239 34.5514 50.6484 32.5952 51.1963 30.4865L49.2279 30.8485L47.8229 38.9463Z" stroke="#FF0082" stroke-miterlimit="10"/>
<path d="M33.5629 62.3292C33.5057 62.4136 33.4984 62.4639 33.4984 62.552C33.4984 63.3612 34.0986 64.5544 38.9976 64.5544C43.6543 64.5544 44.496 63.3612 44.496 62.552C44.496 62.4639 44.4806 62.4099 44.4229 62.3251L33.5629 62.3292Z" fill="#DFE9FD"/>
<path d="M33.5703 62.3275L33.3361 62.1688C33.2964 62.2265 33.2619 62.2926 33.2436 62.3648C33.2241 62.4371 33.2229 62.4996 33.2229 62.5503C33.2221 62.7869 33.2684 63.0702 33.4319 63.3478C33.5541 63.5564 33.7399 63.7565 34.0005 63.9342C34.3917 64.2013 34.9502 64.4233 35.7546 64.5824C36.5593 64.7407 37.6141 64.8356 39.005 64.8356C41.3568 64.834 42.7671 64.539 43.6275 64.1079C44.0569 63.8916 44.3495 63.6368 44.5342 63.3628C44.7184 63.0897 44.787 62.8015 44.7862 62.5503C44.787 62.4903 44.7801 62.42 44.7582 62.3502C44.7355 62.28 44.7014 62.22 44.6645 62.166C44.6125 62.0873 44.5249 62.041 44.4303 62.041L33.5703 62.0446C33.477 62.0446 33.3885 62.0917 33.3361 62.1688L33.5703 62.3275V62.61L44.4303 62.6063V62.3235L44.1953 62.4813C44.216 62.5122 44.2188 62.5211 44.2188 62.5211C44.2188 62.5219 44.2205 62.5223 44.2205 62.5503C44.2197 62.7045 44.1831 62.8685 44.0642 63.0467C43.9745 63.1802 43.8353 63.323 43.6174 63.4635C43.2915 63.6749 42.787 63.8791 42.0395 64.0276C41.2911 64.1765 40.3004 64.2699 39.005 64.2699C36.5784 64.2723 35.2379 63.9687 34.5492 63.6051C34.2038 63.4233 34.022 63.2346 33.9197 63.0617C33.8179 62.8876 33.7891 62.7183 33.7887 62.5503C33.7887 62.5321 33.7887 62.5211 33.7891 62.515L33.7899 62.5101L33.7744 62.5061L33.7891 62.5114L33.7899 62.5101L33.7744 62.5061L33.7891 62.5114L33.8049 62.4862L33.5703 62.3275Z" fill="#578FFE"/>
<path d="M39.0001 64.8335C39.8211 64.8335 40.5277 64.7965 41.1369 64.7316C40.5285 64.7973 39.8211 64.8335 39.0001 64.8335ZM42.8921 64.3935C43.1344 64.3184 43.3479 64.2361 43.5366 64.1476C43.3479 64.2369 43.1344 64.3184 42.8921 64.3935Z" fill="#FF0082"/>
<path d="M39.0001 64.8335C37.6093 64.8335 36.5545 64.7385 35.7497 64.5802C34.9453 64.4211 34.3869 64.1991 33.9956 63.9321C33.7351 63.7543 33.5492 63.5542 33.427 63.3456C33.2951 63.1228 33.2399 62.8951 33.2229 62.691C33.4368 62.8046 33.6576 62.9114 33.8881 63.0108C33.8962 63.027 33.9051 63.0433 33.9149 63.0595C34.0171 63.2324 34.1989 63.4211 34.5443 63.6029C35.231 63.965 36.565 64.2677 38.9765 64.2677C38.9847 64.2677 38.992 64.2677 39.0001 64.2677C39.0009 64.2677 39.0009 64.2677 39.0013 64.2677C39.1531 64.2677 39.2996 64.2669 39.4433 64.2641C40.5248 64.245 41.3739 64.1573 42.0346 64.0254C42.7821 63.8769 43.2866 63.6727 43.6125 63.4613C43.7598 63.3663 43.871 63.2706 43.9554 63.1772C43.966 63.1711 43.9761 63.1646 43.9867 63.1589C44.0321 63.1314 44.0825 63.1184 44.1316 63.1184C44.2156 63.1184 44.298 63.1557 44.3532 63.2251C44.4416 63.3355 44.4343 63.4946 44.3365 63.5969C44.1421 63.7986 43.8812 63.9844 43.5366 64.1476C43.3479 64.2361 43.1344 64.3184 42.8921 64.3935C42.8 64.4223 42.7026 64.4495 42.6011 64.4763C42.19 64.5831 41.7063 64.6699 41.1369 64.7316C40.5277 64.7965 39.8211 64.8335 39.0001 64.8335Z" fill="#F47D61"/>
<path d="M38.9829 64.2665C36.5714 64.2665 35.2374 63.9637 34.5507 63.6017C34.2053 63.4199 34.0235 63.2312 33.9212 63.0583C33.9115 63.0421 33.9026 63.0258 33.8945 63.0096C34.0608 63.0818 34.2325 63.15 34.4078 63.2141C35.6838 63.6825 37.2017 63.9463 39.0065 63.9463C39.0073 63.9463 39.0077 63.9463 39.0077 63.9463C39.1574 63.9463 39.3048 63.9438 39.4496 63.9398V64.2628C39.306 64.2657 39.1595 64.2665 39.0077 64.2665C39.0073 64.2665 39.0073 64.2665 39.0065 64.2665C38.9983 64.2665 38.991 64.2665 38.9829 64.2665ZM39.4496 64.2628V63.9398C39.6258 63.9353 39.7995 63.9272 39.9703 63.9166C40.9744 63.8964 41.7751 63.8144 42.4078 63.6942C43.1238 63.5583 43.6238 63.372 43.9618 63.176C43.8774 63.2693 43.7662 63.3651 43.6189 63.4601C43.293 63.6715 42.7885 63.8757 42.041 64.0242C41.3802 64.1561 40.5312 64.2438 39.4496 64.2628Z" fill="#FF0082"/>
<path d="M28.4834 49.905C28.373 50.4285 28.3584 50.7341 28.3584 51.2856C28.3584 56.2864 29.5191 63.6675 38.996 63.6675C48.0041 63.6675 49.6336 56.2864 49.6336 51.2856C49.6336 50.7341 49.6019 50.4041 49.4911 49.8798L28.4834 49.905Z" fill="#DFE9FD"/>
<path d="M28.4822 49.908L28.2062 49.8488C28.1486 50.1191 28.1149 50.341 28.0962 50.5639C28.0771 50.7879 28.0743 51.0103 28.0743 51.2887C28.0743 52.5492 28.1474 53.9648 28.4079 55.3837C28.7999 57.5107 29.6165 59.6552 31.2659 61.2729C32.0901 62.0813 33.1214 62.7538 34.3961 63.2213C35.6721 63.6897 37.19 63.9535 38.9948 63.9535C41.2845 63.9535 43.1262 63.4827 44.5918 62.6876C45.6908 62.091 46.5775 61.3135 47.2833 60.4255C48.3434 59.0931 48.9988 57.518 49.3921 55.923C49.7845 54.3277 49.9144 52.712 49.9152 51.2887C49.9156 50.7282 49.8811 50.3609 49.7663 49.8248C49.7383 49.6937 49.6234 49.6 49.4895 49.6L28.4822 49.6251C28.3491 49.6251 28.2334 49.7185 28.2062 49.8488L28.4822 49.908L28.483 50.1905L49.4899 50.1657V49.8828L49.2131 49.9417C49.3206 50.4535 49.3487 50.7465 49.3495 51.2887C49.3507 53.7595 48.942 56.8082 47.4513 59.2059C46.7058 60.4056 45.6952 61.4453 44.3223 62.1905C42.9485 62.9348 41.2086 63.3873 38.9948 63.3877C36.6612 63.3873 34.8616 62.9336 33.4676 62.1897C32.4221 61.6308 31.6031 60.9076 30.9558 60.0756C29.9858 58.8289 29.4047 57.3325 29.0678 55.7956C28.7314 54.2578 28.6392 52.6828 28.64 51.2887C28.6392 51.0156 28.6437 50.8094 28.6599 50.6109C28.677 50.4129 28.7054 50.2201 28.7594 49.966L28.4822 49.908Z" fill="#578FFE"/>
<path d="M49.5336 50.1737C49.5336 52.0316 44.8164 53.5369 38.9979 53.5369C33.178 53.5369 28.4617 52.0316 28.4617 50.1737C28.4617 48.3165 33.178 46.8104 38.9979 46.8104C44.8164 46.8104 49.5336 48.3165 49.5336 50.1737Z" fill="#DFE9FD"/>
<path d="M49.5323 50.1763H49.2486C49.2486 50.348 49.1967 50.5188 49.0802 50.7015C48.8777 51.0209 48.4658 51.3614 47.8753 51.6698C46.9897 52.1361 45.7141 52.5367 44.1894 52.8163C42.6646 53.0964 40.8895 53.2567 38.9966 53.2567C36.1123 53.2575 33.4994 52.8821 31.6322 52.2855C30.6991 51.988 29.9524 51.6337 29.4589 51.2595C29.2121 51.0732 29.0287 50.8841 28.9122 50.7015C28.7957 50.5188 28.7434 50.348 28.7434 50.1763C28.7434 50.0046 28.7957 49.8338 28.9122 49.6511C29.1147 49.3317 29.5266 48.9916 30.1171 48.6828C31.0019 48.2169 32.2783 47.8163 33.803 47.5371C35.3278 47.2571 37.1029 47.0959 38.9966 47.0959C41.8809 47.0951 44.493 47.4709 46.3598 48.0671C47.2933 48.3646 48.04 48.7197 48.5335 49.0931C48.7803 49.2794 48.9637 49.4685 49.0802 49.6511C49.1967 49.8338 49.2486 50.0046 49.2486 50.1763H49.8152C49.8152 49.8833 49.7202 49.6004 49.5559 49.3455C49.2673 48.8995 48.7795 48.5201 48.1382 48.182C47.1752 47.6771 45.8554 47.2684 44.2917 46.9803C42.7279 46.6938 40.9219 46.5306 38.9966 46.5306C36.0619 46.531 33.4053 46.908 31.4601 47.529C30.4869 47.8407 29.6906 48.21 29.1175 48.6418C28.8318 48.8573 28.6005 49.0903 28.4361 49.3455C28.2722 49.6004 28.1772 49.8833 28.1776 50.1763C28.1772 50.4693 28.2722 50.7522 28.4361 51.0071C28.7251 51.4539 29.2125 51.8326 29.8542 52.1706C30.8168 52.6759 32.137 53.0846 33.7007 53.3723C35.2645 53.6597 37.0713 53.8224 38.9966 53.8224C41.9305 53.8224 44.5863 53.4446 46.5323 52.8236C47.5055 52.5132 48.3014 52.1426 48.8744 51.7112C49.1606 51.4953 49.3915 51.2628 49.5559 51.0071C49.7202 50.7522 49.8152 50.4693 49.8152 50.1763H49.5323Z" fill="#578FFE"/>
<path d="M48.5059 51.2851C48.6082 51.1791 48.6971 51.0679 48.7726 50.9523C48.9247 50.7145 49.0148 50.4486 49.0148 50.1739C49.0148 49.8987 48.9247 49.6333 48.7726 49.3955C48.6971 49.2794 48.6082 49.1686 48.5051 49.0619C48.5181 49.0716 48.5307 49.0809 48.5432 49.0907C48.79 49.277 48.9734 49.4661 49.0899 49.6487C49.2064 49.8313 49.2583 50.0022 49.2583 50.1739C49.2583 50.3455 49.2064 50.5164 49.0899 50.699C48.9682 50.8914 48.7709 51.0899 48.5059 51.2851Z" fill="#FF0082"/>
<path d="M38.9937 53.8224C38.945 53.8224 38.9 53.8216 38.859 53.8216H38.8582C38.8582 53.8216 38.8573 53.8216 38.8565 53.8216C38.8557 53.8216 38.8553 53.8216 38.8553 53.8216H38.8545C38.8545 53.8216 38.8537 53.8216 38.8529 53.8216C38.8521 53.8216 38.8521 53.8216 38.8513 53.8216H38.8509C38.85 53.8216 38.85 53.8216 38.85 53.8216C38.7786 53.8188 38.7116 53.7899 38.6605 53.7392C38.6122 53.6913 38.5834 53.6288 38.5781 53.561C38.7161 53.5631 38.8545 53.5639 38.9937 53.5639C41.7043 53.5631 44.1577 53.2149 45.9564 52.641C46.8565 52.3533 47.5931 52.0107 48.1248 51.6102C48.262 51.5071 48.3849 51.4003 48.4933 51.2875C48.7583 51.0923 48.9556 50.8938 49.0773 50.7015C49.1938 50.5188 49.2457 50.348 49.2457 50.1763C49.2457 50.0046 49.1938 49.8338 49.0773 49.6511C48.9608 49.4685 48.7774 49.2794 48.5306 49.0931C48.5181 49.0834 48.5055 49.074 48.4925 49.0643C48.2267 48.7883 47.8716 48.5424 47.4422 48.3163C46.5509 47.8484 45.3302 47.4709 43.8853 47.2051C42.4409 46.9397 40.7717 46.7887 38.9937 46.7887C38.8545 46.7887 38.7161 46.7895 38.5781 46.7912V46.7903C38.5781 46.7895 38.5781 46.7895 38.5781 46.7895C38.5781 46.7887 38.5781 46.7887 38.5781 46.7887C38.5781 46.7883 38.5781 46.7883 38.5781 46.7875C38.5781 46.7875 38.5781 46.7875 38.5781 46.7867C38.5789 46.7867 38.5789 46.7859 38.5789 46.7859V46.7851C38.5789 46.7847 38.5789 46.7847 38.5789 46.7839C38.5789 46.7839 38.5789 46.7839 38.5789 46.783V46.7822V46.7814V46.7806C38.5789 46.7802 38.5789 46.7802 38.5789 46.7802C38.5797 46.7794 38.5797 46.7794 38.5797 46.7786C38.5797 46.7786 38.5797 46.7786 38.5797 46.7778C38.5797 46.7778 38.5797 46.7778 38.5797 46.777V46.7766C38.5797 46.7757 38.5797 46.7757 38.5797 46.7757C38.5797 46.7749 38.5797 46.7749 38.5797 46.7741C38.5797 46.7741 38.5806 46.7741 38.5806 46.7733C38.5806 46.7733 38.5806 46.7733 38.5806 46.7725V46.7721V46.7713C38.5806 46.7705 38.5806 46.7705 38.5806 46.7705C38.5806 46.7697 38.5806 46.7697 38.5806 46.7697C38.5806 46.7688 38.581 46.7684 38.581 46.7684V46.7676V46.7668C38.581 46.766 38.581 46.766 38.581 46.766C38.581 46.7652 38.581 46.7652 38.581 46.7648C38.581 46.7648 38.581 46.7648 38.5818 46.7648C38.5818 46.764 38.5818 46.764 38.5818 46.7632C38.5818 46.7632 38.5818 46.7632 38.5818 46.7623V46.7615C38.5826 46.7607 38.5826 46.7607 38.5826 46.7607C38.5826 46.7603 38.5826 46.7603 38.5826 46.7595C38.5826 46.7587 38.5826 46.7587 38.5826 46.7579C38.5826 46.7579 38.5826 46.7571 38.5834 46.7571V46.7567V46.7559C38.5834 46.755 38.5834 46.755 38.5834 46.755C38.5834 46.7542 38.5834 46.7542 38.5834 46.7542C38.5842 46.7534 38.5842 46.7526 38.5842 46.7526V46.7522V46.7514V46.7506C38.5846 46.7498 38.5846 46.7498 38.5846 46.7498C38.5846 46.749 38.5846 46.749 38.5846 46.749C38.5846 46.7485 38.5846 46.7485 38.5846 46.7477C38.5854 46.7469 38.5854 46.7469 38.5854 46.7461C38.5854 46.7449 38.5862 46.7441 38.5862 46.7425C38.6069 46.6637 38.6601 46.5988 38.7299 46.5627C38.7307 46.5627 38.7307 46.5627 38.7307 46.5627C38.7307 46.5623 38.7315 46.5623 38.7315 46.5623C38.7713 46.5424 38.8147 46.531 38.8602 46.531H38.861C38.9016 46.531 38.945 46.5306 38.9937 46.5306C40.919 46.5306 42.725 46.6938 44.2888 46.9803C45.8525 47.2684 47.1723 47.6771 48.1353 48.182C48.7766 48.5201 49.2644 48.8995 49.553 49.3455C49.7165 49.5996 49.8115 49.8813 49.8123 50.1727C49.8123 50.1743 49.8123 50.1751 49.8123 50.1763C49.8123 50.1771 49.8123 50.1787 49.8123 50.18C49.8115 50.4718 49.7165 50.753 49.553 51.0071C49.4933 51.1 49.4247 51.1897 49.3484 51.2766C49.2137 51.4296 49.0538 51.5732 48.8716 51.7112C48.2985 52.1426 47.5026 52.5132 46.5294 52.8236C46.3922 52.8679 46.2526 52.9101 46.109 52.9511C44.2092 53.4961 41.721 53.8224 38.9937 53.8224Z" fill="#F47D61"/>
<path d="M48.7223 50.1734C48.7223 51.8877 44.3676 53.2781 38.9967 53.2781C33.6249 53.2781 29.271 51.8877 29.271 50.1734C29.271 48.4583 33.6249 47.0687 38.9967 47.0687C44.3676 47.0687 48.7223 48.4583 48.7223 50.1734Z" fill="#DFE9FD"/>
<path d="M48.7211 50.1722H48.4382C48.4374 50.326 48.3912 50.4794 48.2848 50.645C48.1014 50.9352 47.7243 51.2473 47.1809 51.5318C46.3668 51.9603 45.1907 52.3301 43.7852 52.5878C42.3786 52.8455 40.7418 52.994 38.9955 52.994C36.3343 52.9948 33.9256 52.6482 32.2041 52.0979C31.3441 51.824 30.6566 51.4977 30.2045 51.1547C29.9776 50.9847 29.8112 50.8106 29.7057 50.645C29.5998 50.4794 29.5535 50.326 29.5527 50.1722C29.5535 50.0184 29.5998 49.8654 29.7057 49.6986C29.8891 49.4092 30.2657 49.0963 30.8092 48.813C31.6229 48.3844 32.7994 48.0147 34.2053 47.757C35.6115 47.4985 37.2491 47.3504 38.9955 47.3504C41.6558 47.3495 44.0653 47.6957 45.7856 48.2456C46.646 48.5196 47.3331 48.8467 47.7864 49.1892C48.0125 49.3601 48.1797 49.5338 48.2848 49.6986C48.3912 49.8654 48.4374 50.0184 48.4382 50.1722H49.004C49.004 49.897 48.9139 49.6316 48.7617 49.3938C48.491 48.9762 48.0381 48.6251 47.4439 48.3122C46.5527 47.8443 45.3319 47.4668 43.8871 47.201C42.4427 46.9356 40.7735 46.7846 38.9955 46.7846C36.2848 46.7846 33.8311 47.1336 32.032 47.7075C31.1326 47.9952 30.3952 48.3378 29.8636 48.7379C29.5981 48.9388 29.3822 49.1551 29.2292 49.3938C29.0758 49.6316 28.9861 49.897 28.9869 50.1722C28.9861 50.4469 29.0758 50.7128 29.2292 50.9506C29.4987 51.3682 29.9524 51.7189 30.5462 52.0326C31.4374 52.5001 32.6578 52.878 34.103 53.1438C35.5482 53.4088 37.2166 53.5598 38.9955 53.5598C41.7061 53.559 44.1594 53.2107 45.9581 52.6369C46.8583 52.3491 47.5949 52.0066 48.1265 51.606C48.3924 51.4055 48.6075 51.1892 48.7617 50.9506C48.9139 50.7128 49.004 50.4469 49.004 50.1722H48.7211Z" fill="#578FFE"/>
<path d="M48.4318 50.2882C48.4139 50.1437 48.3539 49.9951 48.2382 49.836C48.1189 49.6717 47.9399 49.5008 47.7049 49.3344C47.235 49 46.5426 48.6843 45.6867 48.4188C43.9748 47.8872 41.6104 47.5544 39.0036 47.5544C39.0016 47.5544 38.9992 47.5544 38.9979 47.5544C38.9971 47.5544 38.9963 47.5544 38.9955 47.5544C37.2837 47.5544 35.6765 47.6972 34.2897 47.9464C32.9026 48.1952 31.7346 48.5515 30.9095 48.9675C30.3587 49.2439 29.9647 49.5479 29.7569 49.836C29.6412 49.9943 29.5807 50.1437 29.5633 50.2882C29.558 50.2512 29.5552 50.2151 29.5552 50.179C29.556 50.0252 29.6022 49.8722 29.7082 49.7054C29.8916 49.416 30.2682 49.1031 30.8117 48.8198C31.6254 48.3912 32.8019 48.0215 34.2078 47.7638C35.6132 47.5057 37.2508 47.3571 38.9963 47.3571C38.9963 47.3571 38.9971 47.3571 38.9979 47.3571C39 47.3571 39.0016 47.3571 39.0036 47.3571C41.6619 47.3571 44.0686 47.7033 45.7881 48.2524C46.6485 48.5264 47.3356 48.8535 47.7889 49.196C48.015 49.3669 48.1822 49.5406 48.2873 49.7054C48.3936 49.8722 48.4399 50.0252 48.4407 50.179C48.4399 50.2151 48.4379 50.252 48.4318 50.2882Z" fill="#FF0082"/>
<path d="M29.2771 50.5537C29.1314 50.5537 29.0097 50.4433 28.9959 50.298C28.9934 50.2724 28.9869 50.2306 28.9869 50.1722C28.9869 50.1714 28.9869 50.1702 28.9869 50.1693C28.9869 49.8954 29.0766 49.6312 29.2292 49.3938C29.3822 49.1551 29.5981 48.9388 29.8635 48.7379C30.3952 48.3378 31.1326 47.9952 32.032 47.7075C33.8311 47.1336 36.2848 46.7846 38.9954 46.7846C40.7735 46.7846 42.4427 46.9356 43.8871 47.201C45.3319 47.4668 46.5527 47.8443 47.4439 48.3122C48.0381 48.6251 48.491 48.9762 48.7617 49.3938C48.9139 49.6316 49.004 49.897 49.004 50.1722C49.0032 50.2327 48.9967 50.2741 48.995 50.296C48.9817 50.4409 48.8603 50.5529 48.7142 50.5537C48.7138 50.5537 48.7138 50.5537 48.713 50.5537C48.5669 50.5537 48.4455 50.4433 48.4313 50.298C48.4309 50.2931 48.4301 50.287 48.4293 50.2814C48.4354 50.2452 48.4374 50.2083 48.4382 50.1722C48.4374 50.0184 48.3911 49.8654 48.2848 49.6986C48.1797 49.5338 48.0125 49.3601 47.7864 49.1892C47.3331 48.8467 46.646 48.5196 45.7856 48.2456C44.0661 47.6965 41.6594 47.3504 39.0011 47.3504C38.9991 47.3504 38.9975 47.3504 38.9954 47.3504C38.9946 47.3504 38.9938 47.3504 38.9938 47.3504C37.2483 47.3504 35.6107 47.4989 34.2053 47.757C32.7994 48.0147 31.6229 48.3844 30.8092 48.813C30.2657 49.0963 29.8891 49.4092 29.7057 49.6986C29.5997 49.8654 29.5535 50.0184 29.5527 50.1722C29.5527 50.2083 29.5555 50.2444 29.5608 50.2814C29.56 50.287 29.5592 50.2923 29.5592 50.298C29.5446 50.4433 29.4236 50.5537 29.2771 50.5537Z" fill="#F47D61"/>
<path d="M47.4214 51.7292C45.7404 50.8014 42.5996 50.1768 39.001 50.1768C35.4011 50.1768 32.2611 50.8014 30.5797 51.7292C32.2611 52.6569 35.4011 53.2815 39.001 53.2815C42.5996 53.2815 45.7404 52.6569 47.4214 51.7292Z" fill="#DFE9FD"/>
<path d="M47.4202 51.7279L47.557 51.4808C46.6747 50.9946 45.447 50.6029 43.9811 50.3257C42.5168 50.0506 40.8151 49.8927 38.9997 49.8927C37.1832 49.8927 35.4827 50.0506 34.0176 50.3257C32.5517 50.6029 31.324 50.9946 30.4413 51.4808C30.3516 51.5299 30.2956 51.6248 30.2956 51.7279C30.2956 51.831 30.3516 51.926 30.4413 51.9755C31.324 52.4613 32.5517 52.8533 34.0176 53.1301C35.4827 53.4057 37.1832 53.5632 38.9997 53.5632C40.8151 53.5632 42.5168 53.4057 43.9811 53.1301C45.447 52.8533 46.6747 52.4613 47.557 51.9755C47.6471 51.926 47.7031 51.831 47.7031 51.7279C47.7031 51.6248 47.6471 51.5299 47.557 51.4808L47.4202 51.7279L47.2838 51.4808C46.4839 51.9223 45.3017 52.3067 43.8764 52.5741C42.451 52.8428 40.783 52.9974 38.9997 52.9974C37.2165 52.9974 35.5472 52.8428 34.1219 52.5741C32.6974 52.3067 31.5148 51.9223 30.7148 51.4808L30.5785 51.7279L30.7148 51.9755C31.5148 51.5335 32.6974 51.1492 34.1219 50.8817C35.5472 50.6131 37.2165 50.4584 38.9997 50.4584C40.783 50.4584 42.451 50.6131 43.8764 50.8817C45.3017 51.1492 46.4839 51.5335 47.2838 51.9755L47.4202 51.7279Z" fill="#578FFE"/>
<path d="M33.2414 51.5515C33.2203 51.892 32.9269 52.1505 32.5876 52.129C32.2471 52.1067 31.9894 51.8145 32.0101 51.4744C32.0312 51.1339 32.3246 50.8762 32.6647 50.8969C33.0044 50.9192 33.2629 51.2122 33.2414 51.5515Z" fill="#DFE9FD"/>
<path d="M33.2406 51.5538L32.9586 51.5364C32.9476 51.7129 32.7995 51.8493 32.625 51.8493L32.6022 51.8485H32.6043C32.4277 51.8383 32.2906 51.6902 32.2906 51.5157L32.2914 51.495V51.4942C32.3023 51.3176 32.4505 51.1804 32.625 51.1812H32.6432L32.6465 51.1821C32.8222 51.1922 32.9594 51.3411 32.9594 51.514L32.9586 51.5364L33.5227 51.5717C33.5243 51.5526 33.5251 51.5335 33.5251 51.514C33.5243 51.042 33.1582 50.648 32.6818 50.6171L32.6639 50.8992L32.6846 50.6171C32.6627 50.6159 32.6428 50.6159 32.625 50.6159C32.153 50.6159 31.7573 50.9816 31.7272 51.4588V51.4576C31.7256 51.4775 31.7248 51.4966 31.7248 51.5157C31.7256 51.9868 32.0909 52.3825 32.5682 52.4134H32.5706C32.588 52.4142 32.6067 52.4146 32.625 52.4146C33.097 52.4146 33.4927 52.0489 33.5227 51.5717L33.2406 51.5538Z" fill="#578FFE"/>
<path d="M40.5258 50.8796C40.5034 51.2197 40.2112 51.4782 39.8707 51.4567C39.5306 51.4356 39.2721 51.1422 39.294 50.8021C39.3155 50.4628 39.6086 50.2043 39.9482 50.2254C40.2883 50.2469 40.5469 50.5399 40.5258 50.8796Z" fill="#DFE9FD"/>
<path d="M40.533 50.8827L40.2502 50.8648C40.2396 51.0422 40.0919 51.1785 39.917 51.1785L39.8942 51.1777H39.8959C39.7189 51.1668 39.583 51.0186 39.583 50.8449L39.5834 50.8242V50.8238C39.5939 50.6461 39.7425 50.5101 39.9166 50.5101L39.9348 50.5105H39.9377C40.1146 50.5219 40.251 50.6696 40.251 50.8437L40.2502 50.8664V50.8648L40.533 50.8827L40.8151 50.8993C40.8159 50.8819 40.8163 50.8628 40.8163 50.8437C40.8163 50.3721 40.4503 49.9768 39.9738 49.9464L39.9555 50.2285L39.9762 49.9464C39.9539 49.9452 39.934 49.9444 39.9166 49.9444C39.4442 49.9452 39.0497 50.3112 39.0184 50.7877L39.0192 50.7869C39.018 50.8068 39.0172 50.8259 39.0172 50.8449C39.0172 51.3169 39.3841 51.7118 39.8598 51.7419H39.8614C39.8796 51.7435 39.8979 51.7443 39.917 51.7443C40.3902 51.7443 40.7843 51.3774 40.8151 50.9009V50.8993L40.533 50.8827Z" fill="#578FFE"/>
<path d="M39.5348 52.0544C39.5133 52.3945 39.2211 52.6531 38.8806 52.632C38.5405 52.6105 38.282 52.3174 38.3039 51.9769C38.3246 51.6376 38.618 51.3791 38.9581 51.4006C39.2978 51.4217 39.5563 51.7152 39.5348 52.0544Z" fill="#DFE9FD"/>
<path d="M39.5421 52.0536L39.2601 52.0357C39.2491 52.2135 39.101 52.3494 38.9273 52.3494L38.9049 52.349H38.9058C38.7288 52.3377 38.5929 52.1899 38.5929 52.0158L38.5933 51.9947V51.9939C38.6038 51.8174 38.7519 51.681 38.9256 51.681L38.9435 51.6818H38.9476C39.1245 51.692 39.2609 51.8409 39.2609 52.0138L39.2601 52.0365L39.5421 52.0536L39.8242 52.0714C39.8258 52.052 39.8266 52.0337 39.8266 52.0138C39.8258 51.5426 39.4597 51.1477 38.9833 51.1177L38.9654 51.3998L38.9869 51.1177C38.9638 51.1161 38.9435 51.1153 38.9256 51.1153C38.4536 51.1153 38.0588 51.4821 38.0283 51.9586V51.9578C38.0279 51.9777 38.0271 51.9968 38.0271 52.0158C38.0271 52.4882 38.3932 52.8827 38.8696 52.9132H38.8713C38.8895 52.9144 38.9086 52.9152 38.9273 52.9152C39.4001 52.9144 39.7942 52.5479 39.8242 52.0714L39.5421 52.0536Z" fill="#578FFE"/>
<path d="M42.1968 51.2718C42.1744 51.6119 41.8814 51.8696 41.5417 51.8481C41.2016 51.827 40.9431 51.5344 40.9642 51.1943C40.9865 50.8542 41.2787 50.5956 41.6193 50.6172C41.9593 50.6391 42.2171 50.9313 42.1968 51.2718Z" fill="#DFE9FD"/>
<path d="M42.1951 51.2787L41.9123 51.26C41.9017 51.4378 41.7536 51.5738 41.5799 51.5733H41.5547H41.5571C41.381 51.5628 41.2446 51.4147 41.2446 51.241L41.2454 51.2199V51.219C41.256 51.0421 41.4045 50.9053 41.5778 50.9061H41.5961L41.5998 50.9065C41.7771 50.9179 41.9127 51.0648 41.9127 51.2401L41.9123 51.2625V51.26L42.1951 51.2787L42.4772 51.2949C42.4776 51.2771 42.4784 51.2588 42.4784 51.2401C42.4784 50.7673 42.1123 50.3729 41.6351 50.342L41.6176 50.6241L41.6387 50.342C41.616 50.3404 41.5953 50.3404 41.5778 50.3404C41.1054 50.3404 40.7114 50.7073 40.6805 51.1829C40.6789 51.2028 40.6789 51.2219 40.6789 51.241C40.6789 51.7121 41.045 52.1078 41.5226 52.1371H41.5255C41.5417 52.1387 41.56 52.1387 41.5799 52.1387C42.0515 52.1387 42.4459 51.7726 42.4772 51.297V51.2949L42.1951 51.2787Z" fill="#578FFE"/>
<path d="M45.9749 51.5132C45.9534 51.8525 45.6612 52.111 45.3199 52.0891C44.9806 52.0676 44.722 51.7754 44.744 51.4349C44.7647 51.0956 45.0577 50.8371 45.3982 50.8582C45.7375 50.8797 45.9964 51.1727 45.9749 51.5132Z" fill="#DFE9FD"/>
<path d="M45.9736 51.5206L45.6915 51.5027C45.6805 51.6789 45.5332 51.8148 45.3583 51.8148L45.3335 51.8144L45.3185 52.0965L45.3372 51.8144C45.1594 51.8039 45.0239 51.6558 45.0239 51.4821L45.0247 51.4614V51.4601C45.0353 51.2832 45.183 51.1472 45.3571 51.1472L45.3762 51.1476H45.379C45.5559 51.159 45.6923 51.3067 45.6923 51.4808L45.6915 51.5027L45.9736 51.5206L46.2564 51.5372C46.2572 51.519 46.2577 51.4999 46.2577 51.4808C46.2577 51.0088 45.8912 50.6139 45.4143 50.5839H45.4176C45.3952 50.5815 45.3753 50.5815 45.3571 50.5815C44.8855 50.5815 44.4902 50.9484 44.4598 51.4256L44.4606 51.424C44.459 51.4439 44.4585 51.463 44.4585 51.4821C44.4585 51.9536 44.8246 52.3481 45.3011 52.379H45.3047C45.321 52.3798 45.3384 52.3806 45.3583 52.3806C45.8307 52.3806 46.2256 52.0145 46.2564 51.5381V51.5372L45.9736 51.5206Z" fill="#578FFE"/>
<path d="M44.4775 52.1578C44.456 52.4979 44.163 52.7564 43.8225 52.7353C43.4832 52.7138 43.2247 52.4208 43.2458 52.0811C43.2673 51.741 43.5603 51.4825 43.9008 51.504C44.2401 51.5251 44.4986 51.8181 44.4775 52.1578Z" fill="#DFE9FD"/>
<path d="M44.4763 52.1526L44.1942 52.1347C44.1829 52.3117 44.0351 52.4485 43.861 52.4481L43.8375 52.4472L43.8399 52.4481C43.6622 52.4367 43.5262 52.289 43.5262 52.1149L43.5266 52.0946C43.538 51.9164 43.6857 51.78 43.8602 51.78L43.8789 51.7809H43.8817C44.0587 51.791 44.1946 51.9399 44.1946 52.1136L44.1942 52.1356V52.1347L44.4763 52.1526L44.7583 52.1697C44.7596 52.151 44.7604 52.1327 44.7604 52.1136C44.7596 51.6425 44.3943 51.2468 43.917 51.2167L43.8996 51.4988L43.9199 51.2167C43.898 51.2151 43.8781 51.2143 43.8602 51.2143C43.3882 51.2143 42.9929 51.5804 42.9617 52.0576C42.9609 52.0767 42.9605 52.0958 42.9605 52.1149C42.9605 52.5865 43.3273 52.9817 43.8038 53.0122H43.8058C43.8229 53.0134 43.8411 53.0134 43.861 53.0134C44.3334 53.0134 44.7279 52.6473 44.7583 52.1709V52.1697L44.4763 52.1526Z" fill="#578FFE"/>
<path d="M34.722 50.8111C34.7005 51.1512 34.4083 51.4089 34.0678 51.3878C33.7281 51.3663 33.4695 51.0733 33.491 50.734C33.5117 50.3935 33.8048 50.1358 34.1453 50.1565C34.4854 50.178 34.7431 50.471 34.722 50.8111Z" fill="#DFE9FD"/>
<path d="M34.7211 50.8052L34.439 50.7873C34.4285 50.9643 34.2803 51.1006 34.1058 51.1006L34.0815 51.0998L34.0669 51.3819L34.0847 51.0998C33.9078 51.0893 33.7714 50.9407 33.7714 50.767L33.7722 50.7463V50.7455C33.7824 50.569 33.9305 50.4318 34.105 50.4326H34.1237L34.1265 50.4334C34.3039 50.4436 34.4394 50.5909 34.4394 50.7662L34.439 50.7881V50.7873L34.7211 50.8052L35.004 50.8222C35.0044 50.8036 35.0052 50.7853 35.0052 50.7662C35.0052 50.2942 34.6391 49.8985 34.1618 49.8685L34.1444 50.1506L34.1647 49.8685C34.1428 49.8669 34.1229 49.8669 34.105 49.8669C33.633 49.8669 33.2373 50.233 33.2073 50.7102L33.2081 50.7086C33.2065 50.7285 33.2057 50.7484 33.2057 50.767C33.2057 51.239 33.5726 51.6335 34.049 51.6648H34.0523C34.0689 51.6652 34.0868 51.666 34.1058 51.666C34.5782 51.666 34.9727 51.2999 35.004 50.8235V50.8222L34.7211 50.8052Z" fill="#578FFE"/>
<path d="M35.4336 51.6886C35.4153 51.9707 35.1722 52.185 34.8906 52.1671C34.6085 52.1497 34.3942 51.9074 34.4121 51.6245C34.4295 51.3432 34.6726 51.129 34.9547 51.1464C35.2367 51.1643 35.4514 51.407 35.4336 51.6886Z" fill="#DFE9FD"/>
<path d="M35.4407 51.6919L35.1587 51.674C35.1513 51.795 35.0491 51.8891 34.9298 51.8891L34.9127 51.8883L34.8977 52.1704L34.9164 51.8883C34.7942 51.881 34.7005 51.7796 34.7013 51.6602V51.6452C34.7086 51.5247 34.8104 51.4309 34.9298 51.4309L34.9415 51.4318H34.9444C35.0649 51.4391 35.1587 51.5409 35.1587 51.6594V51.6757V51.674L35.4407 51.6919L35.7228 51.7085L35.7244 51.6594C35.7244 51.2426 35.4009 50.8944 34.9797 50.8668L34.9817 50.8676C34.9626 50.8664 34.9452 50.8656 34.9298 50.8656C34.5126 50.8664 34.1635 51.1895 34.1371 51.6099V51.6091C34.1355 51.627 34.1355 51.644 34.1355 51.6602C34.1355 52.0775 34.459 52.4261 34.8794 52.4533H34.8831C34.8973 52.4541 34.9127 52.4545 34.9298 52.4545C35.3466 52.4541 35.6956 52.1314 35.7228 51.7102V51.7085L35.4407 51.6919Z" fill="#578FFE"/>
<path d="M36.6389 50.6344C36.6214 50.9164 36.3783 51.1307 36.0963 51.1133C35.8142 51.0946 35.5999 50.8523 35.6174 50.5703C35.6356 50.2882 35.8783 50.0739 36.1604 50.0918C36.4425 50.1096 36.6568 50.3523 36.6389 50.6344Z" fill="#DFE9FD"/>
<path d="M36.6375 50.6372L36.3554 50.6189C36.3481 50.7403 36.2458 50.834 36.1273 50.834L36.1095 50.8332L36.0948 51.1161L36.1131 50.834C35.9918 50.8259 35.898 50.7241 35.898 50.6056V50.5918C35.9053 50.4696 36.008 50.3758 36.1265 50.3767H36.1411C36.2621 50.384 36.3554 50.4854 36.3554 50.6047V50.6206V50.6189L36.6375 50.6372L36.9195 50.6543L36.9211 50.6047C36.9211 50.1879 36.5977 49.8389 36.1764 49.8125L36.159 50.0946L36.1801 49.8125C36.1594 49.8109 36.1419 49.8109 36.1265 49.8109C35.7097 49.8109 35.3611 50.1344 35.3339 50.5548C35.3323 50.5727 35.3323 50.5893 35.3323 50.6056C35.3323 51.0224 35.6565 51.371 36.077 51.3982H36.0806C36.0948 51.3986 36.1103 51.3994 36.1273 51.3994C36.5441 51.3994 36.8923 51.0755 36.9195 50.6551V50.6543L36.6375 50.6372Z" fill="#578FFE"/>
<path d="M34.1812 52.021C34.1812 52.3611 33.9048 52.637 33.5647 52.637C33.2234 52.637 32.9474 52.3611 32.9474 52.021C32.9474 51.6801 33.2234 51.4037 33.5647 51.4037C33.9048 51.4037 34.1812 51.6801 34.1812 52.021Z" fill="#DFE9FD"/>
<path d="M34.1799 52.0197H33.897C33.8962 52.2036 33.7469 52.3533 33.5634 52.3533C33.3784 52.3533 33.229 52.2036 33.229 52.0197C33.229 51.8347 33.3784 51.6861 33.5634 51.6853C33.7469 51.6861 33.8962 51.8355 33.897 52.0197H34.4628C34.4628 51.5226 34.0598 51.1196 33.5634 51.1196C33.0663 51.1196 32.6633 51.5226 32.6633 52.0197C32.6633 52.5161 33.0663 52.9187 33.5634 52.9187C34.0598 52.9187 34.462 52.5161 34.4628 52.0197H34.1799Z" fill="#578FFE"/>
<path d="M41.4133 50.8923C41.4133 51.2332 41.1369 51.5096 40.796 51.5096C40.4547 51.5096 40.1795 51.2332 40.1795 50.8923C40.1795 50.5522 40.4547 50.2758 40.796 50.2758C41.1369 50.2758 41.4133 50.5522 41.4133 50.8923Z" fill="#DFE9FD"/>
<path d="M41.4034 50.8906H41.1206C41.1198 51.0757 40.97 51.2251 40.7861 51.2251C40.6019 51.2251 40.4525 51.0757 40.4525 50.8906C40.4525 50.7064 40.6019 50.557 40.7861 50.557C40.9708 50.557 41.1198 50.7064 41.1206 50.8906H41.6859C41.6855 50.3943 41.2833 49.9917 40.7861 49.9917C40.289 49.9917 39.8868 50.3943 39.8868 50.8906C39.8868 51.3878 40.289 51.7904 40.7861 51.7904C41.2833 51.7904 41.6855 51.3878 41.6859 50.8906H41.4034Z" fill="#578FFE"/>
<path d="M40.4929 52.1274C40.4929 52.4687 40.2165 52.7447 39.8764 52.7447C39.5351 52.7447 39.2583 52.4687 39.2583 52.1274C39.2583 51.7873 39.5351 51.5113 39.8764 51.5113C40.2165 51.5113 40.4929 51.7873 40.4929 52.1274Z" fill="#DFE9FD"/>
<path d="M40.4916 52.1218H40.2087C40.2087 52.3069 40.059 52.4563 39.8751 52.4563C39.6901 52.4563 39.5407 52.3061 39.5399 52.1218C39.5407 51.9388 39.6901 51.7891 39.8751 51.7882C40.059 51.7891 40.2087 51.938 40.2087 52.1218H40.7745C40.7745 51.6251 40.3715 51.2229 39.8751 51.2229C39.378 51.2237 38.975 51.6251 38.9742 52.1218C38.975 52.6198 39.378 53.022 39.8751 53.022C40.3715 53.022 40.7745 52.619 40.7745 52.1218H40.4916Z" fill="#578FFE"/>
<path d="M43.0922 51.185C43.0922 51.5259 42.8158 51.8019 42.4749 51.8019C42.1348 51.8019 41.8584 51.5259 41.8584 51.185C41.8584 50.8445 42.1348 50.5685 42.4749 50.5685C42.8158 50.5685 43.0922 50.8445 43.0922 51.185Z" fill="#DFE9FD"/>
<path d="M43.0909 51.1795H42.8081C42.8073 51.3633 42.6587 51.5131 42.4736 51.5135C42.2894 51.5131 42.14 51.3633 42.14 51.1795C42.14 50.9952 42.2894 50.8459 42.4736 50.8451C42.6579 50.8459 42.8073 50.9952 42.8081 51.1795H43.3738C43.3738 50.6823 42.9708 50.2801 42.4736 50.2801C41.9765 50.2801 41.5743 50.6823 41.5743 51.1795C41.5743 51.6762 41.9773 52.0784 42.4736 52.0784C42.9708 52.0784 43.3738 51.6762 43.3738 51.1795H43.0909Z" fill="#578FFE"/>
<path d="M46.8891 51.185C46.8891 51.5259 46.6131 51.8019 46.2718 51.8019C45.9317 51.8019 45.6553 51.5259 45.6553 51.185C45.6553 50.8445 45.9317 50.5685 46.2718 50.5685C46.6131 50.5685 46.8891 50.8445 46.8891 51.185Z" fill="#DFE9FD"/>
<path d="M46.8706 51.1795H46.5877C46.5873 51.3641 46.4384 51.5131 46.2533 51.5135C46.0695 51.5131 45.9197 51.3641 45.9197 51.1795C45.9197 50.9952 46.0695 50.8459 46.2533 50.8451C46.4384 50.8459 46.5873 50.9952 46.5877 51.1795H47.1535C47.1527 50.6831 46.7505 50.2801 46.2533 50.2801C45.7561 50.2801 45.354 50.6831 45.354 51.1795C45.354 51.6762 45.7561 52.0784 46.2533 52.0784C46.7505 52.0784 47.1527 51.6762 47.1535 51.1795H46.8706Z" fill="#578FFE"/>
<path d="M45.4254 51.9173C45.4254 52.2578 45.1494 52.5337 44.8085 52.5337C44.468 52.5337 44.1916 52.2578 44.1916 51.9173C44.1916 51.5764 44.468 51.3004 44.8085 51.3004C45.1494 51.3004 45.4254 51.5764 45.4254 51.9173Z" fill="#DFE9FD"/>
<path d="M45.4324 51.916H45.1495C45.1495 52.1003 45.0001 52.2496 44.8155 52.2496C44.6312 52.2496 44.4815 52.1003 44.4815 51.916C44.4815 51.7314 44.6312 51.5816 44.8155 51.5816C45.0001 51.5816 45.1495 51.7314 45.1495 51.916H45.7152C45.7152 51.4185 45.3126 51.0163 44.8155 51.0163C44.3179 51.0163 43.9161 51.4189 43.9161 51.916C43.9161 52.4124 44.3179 52.8154 44.8155 52.8154C45.3126 52.8154 45.7152 52.4132 45.7152 51.916H45.4324Z" fill="#578FFE"/>
<path d="M35.619 51.185C35.619 51.5259 35.3426 51.8019 35.0017 51.8019C34.6604 51.8019 34.3852 51.5259 34.3852 51.185C34.3852 50.8445 34.6604 50.5685 35.0017 50.5685C35.3426 50.5685 35.619 50.8445 35.619 51.185Z" fill="#DFE9FD"/>
<path d="M35.6091 51.1795H35.3262C35.3254 51.3633 35.1757 51.5131 34.9918 51.5135C34.8076 51.5131 34.6582 51.3633 34.6582 51.1795C34.6582 50.9952 34.8076 50.8459 34.9918 50.8459C35.1757 50.8459 35.3254 50.9952 35.3262 51.1795H35.892C35.8912 50.6823 35.489 50.2801 34.9918 50.2801C34.4947 50.2801 34.0925 50.6831 34.0925 51.1795C34.0925 51.6762 34.4947 52.0784 34.9918 52.0792C35.489 52.0784 35.8912 51.6762 35.892 51.1795H35.6091Z" fill="#578FFE"/>
<path d="M36.3726 52.0231C36.3726 52.3052 36.1433 52.534 35.8604 52.534C35.5784 52.534 35.3495 52.3052 35.3495 52.0231C35.3495 51.7402 35.5784 51.5113 35.8604 51.5113C36.1433 51.5113 36.3726 51.7402 36.3726 52.0231Z" fill="#DFE9FD"/>
<path d="M36.38 52.0175H36.0971C36.0971 52.1434 35.9948 52.2456 35.8678 52.2456C35.742 52.2456 35.6397 52.1434 35.6397 52.0175C35.6397 51.8909 35.742 51.7891 35.8678 51.7882C35.9952 51.7891 36.0971 51.8909 36.0971 52.0175H36.6629C36.6629 51.5784 36.3069 51.2229 35.8678 51.2229C35.4295 51.2229 35.074 51.5784 35.074 52.0175C35.074 52.4554 35.4291 52.8114 35.8678 52.8114C36.3077 52.8114 36.6629 52.4554 36.6629 52.0175H36.38Z" fill="#578FFE"/>
<path d="M37.5177 50.8909C37.5177 51.1738 37.2888 51.4027 37.0059 51.4027C36.7239 51.4027 36.4946 51.1738 36.4946 50.8909C36.4946 50.6089 36.7239 50.3792 37.0059 50.3792C37.2888 50.3792 37.5177 50.6089 37.5177 50.8909Z" fill="#DFE9FD"/>
<path d="M37.5079 50.894H37.225C37.225 51.0206 37.1227 51.1229 36.9961 51.1229C36.8707 51.1229 36.7676 51.0206 36.7676 50.894C36.7676 50.7682 36.8707 50.6651 36.9961 50.6651C37.1227 50.6651 37.225 50.7682 37.225 50.894H37.7907C37.7907 50.4557 37.4356 50.1001 36.9961 50.0993C36.557 50.1001 36.2019 50.4557 36.2019 50.894C36.2019 51.3323 36.557 51.6886 36.9961 51.6886C37.4356 51.6886 37.7907 51.3331 37.7907 50.894H37.5079Z" fill="#578FFE"/>
<path d="M37.6082 51.6637C37.6082 52.0038 37.3314 52.2797 36.9913 52.2797C36.65 52.2797 36.374 52.0038 36.374 51.6637C36.374 51.3228 36.65 51.0464 36.9913 51.0464C37.3314 51.0464 37.6082 51.3228 37.6082 51.6637Z" fill="#DFE9FD"/>
<path d="M37.607 51.6624H37.3245C37.3237 51.8459 37.1739 51.996 36.9901 51.996C36.8058 51.996 36.6561 51.8459 36.6557 51.6624C36.6561 51.4774 36.805 51.328 36.9901 51.328C37.1739 51.328 37.3237 51.4774 37.3245 51.6624H37.8898C37.8894 51.1653 37.4872 50.7623 36.9901 50.7623C36.4933 50.7623 36.0899 51.1645 36.0899 51.6624C36.0907 52.1588 36.4929 52.5614 36.9901 52.5614C37.4872 52.5614 37.8894 52.1588 37.8898 51.6624H37.607Z" fill="#578FFE"/>
<path d="M40.1227 51.4429C40.1227 51.7838 39.8467 52.0602 39.5054 52.0602C39.1645 52.0602 38.8881 51.7838 38.8881 51.4429C38.8881 51.1028 39.1645 50.8268 39.5054 50.8268C39.8467 50.8268 40.1227 51.1028 40.1227 51.4429Z" fill="#DFE9FD"/>
<path d="M40.1214 51.4417H39.8385C39.8385 51.6267 39.6884 51.7761 39.5041 51.7761C39.3203 51.7761 39.1705 51.6267 39.1697 51.4417C39.1705 51.2578 39.3203 51.1081 39.5041 51.1081C39.6892 51.1081 39.8385 51.2578 39.8385 51.4417H40.4043C40.4043 50.9449 40.0013 50.5427 39.5041 50.5427C39.007 50.5427 38.6048 50.9453 38.604 51.4417C38.6048 51.9388 39.007 52.3418 39.5041 52.3418C40.0013 52.3418 40.4043 51.9388 40.4043 51.4417H40.1214Z" fill="#578FFE"/>
<path d="M38.1298 51.1492C38.1298 51.4313 37.9009 51.661 37.6184 51.661C37.336 51.661 37.1059 51.4313 37.1059 51.1492C37.1059 50.8663 37.336 50.6375 37.6184 50.6375C37.9009 50.6375 38.1298 50.8663 38.1298 51.1492Z" fill="#DFE9FD"/>
<path d="M38.12 51.148H37.8371C37.8371 51.2738 37.734 51.3761 37.6086 51.3769C37.482 51.3761 37.3797 51.2738 37.3789 51.148C37.3797 51.0218 37.482 50.9195 37.6086 50.9187C37.7348 50.9195 37.8371 51.0214 37.8371 51.148H38.4028C38.4028 50.7089 38.0469 50.3541 37.6086 50.3533C37.1699 50.3541 36.8139 50.708 36.8131 51.148C36.8139 51.5867 37.1699 51.9418 37.6086 51.9422C38.0469 51.9418 38.4028 51.5867 38.4028 51.148H38.12Z" fill="#578FFE"/>
<path d="M38.8858 51.1492C38.8858 51.4313 38.6578 51.661 38.3749 51.661C38.0928 51.661 37.8635 51.4313 37.8635 51.1492C37.8635 50.8663 38.0928 50.6375 38.3749 50.6375C38.6578 50.6375 38.8858 50.8663 38.8858 51.1492Z" fill="#DFE9FD"/>
<path d="M38.8932 51.148H38.6103C38.6103 51.2738 38.5081 51.3761 38.3822 51.3769C38.256 51.3761 38.1538 51.2738 38.1538 51.148C38.1538 51.0214 38.256 50.9195 38.3822 50.9187C38.5089 50.9195 38.6103 51.0214 38.6103 51.148H39.1761C39.1761 50.7089 38.821 50.3541 38.3822 50.3533C37.9431 50.3541 37.588 50.7089 37.588 51.148C37.588 51.5867 37.9431 51.9418 38.3822 51.9422C38.821 51.9418 39.1761 51.5859 39.1761 51.148H38.8932Z" fill="#578FFE"/>
<path d="M41.5511 52.4855C41.5511 52.826 41.2747 53.102 40.9338 53.102C40.5937 53.102 40.3173 52.826 40.3173 52.4855C40.3173 52.1446 40.5937 51.8686 40.9338 51.8686C41.2747 51.8686 41.5511 52.1446 41.5511 52.4855Z" fill="#DFE9FD"/>
<path d="M41.5584 52.48H41.2755C41.2747 52.6642 41.1262 52.8136 40.9411 52.8136C40.7569 52.8136 40.6075 52.6642 40.6075 52.48C40.6075 52.2953 40.7569 52.1464 40.9411 52.1455C41.1262 52.1464 41.2747 52.2953 41.2755 52.48H41.8413C41.8413 51.9828 41.4383 51.5802 40.9411 51.5802C40.4448 51.5802 40.0418 51.9828 40.0418 52.48C40.0418 52.9771 40.4448 53.3793 40.9411 53.3793C41.4383 53.3793 41.8413 52.9771 41.8413 52.48H41.5584Z" fill="#578FFE"/>
<path d="M44.0741 52.2621C44.0741 52.6022 43.7981 52.8781 43.4572 52.8781C43.1159 52.8781 42.8399 52.6022 42.8399 52.2621C42.8399 51.9212 43.1159 51.6448 43.4572 51.6448C43.7981 51.6448 44.0741 51.9212 44.0741 52.2621Z" fill="#DFE9FD"/>
<path d="M44.0642 52.2651H43.7818C43.781 52.449 43.632 52.5987 43.4474 52.5987C43.2631 52.5987 43.1133 52.449 43.1129 52.2651C43.1133 52.0801 43.2623 51.9315 43.4474 51.9307C43.632 51.9315 43.781 52.0801 43.7818 52.2651H44.3471C44.3471 51.768 43.9445 51.365 43.4474 51.365C42.9502 51.3658 42.5472 51.768 42.5472 52.2651C42.5472 52.7623 42.9502 53.1641 43.4474 53.1641C43.9445 53.1641 44.3467 52.7615 44.3471 52.2651H44.0642Z" fill="#578FFE"/>
<path d="M42.0636 51.9706C42.0636 52.2535 41.8343 52.4824 41.5523 52.4824C41.2694 52.4824 41.0405 52.2535 41.0405 51.9706C41.0405 51.6886 41.2694 51.4597 41.5523 51.4597C41.8343 51.4597 42.0636 51.6886 42.0636 51.9706Z" fill="#DFE9FD"/>
<path d="M42.0624 51.9694H41.7795C41.7795 52.096 41.6768 52.1983 41.551 52.1983C41.4244 52.1983 41.3225 52.096 41.3221 51.9694C41.3225 51.8436 41.4252 51.7413 41.551 51.7413C41.6768 51.7413 41.7795 51.8444 41.7795 51.9694H42.3449C42.3449 51.5315 41.9901 51.1755 41.551 51.1755C41.1119 51.1755 40.7572 51.5315 40.7564 51.9694C40.7564 52.4085 41.1119 52.764 41.551 52.764C41.9893 52.764 42.3449 52.4089 42.3449 51.9694H42.0624Z" fill="#578FFE"/>
<path d="M42.8385 51.9706C42.8385 52.2535 42.6092 52.4824 42.3263 52.4824C42.0443 52.4824 41.8154 52.2535 41.8154 51.9706C41.8154 51.6886 42.0443 51.4597 42.3263 51.4597C42.6092 51.4597 42.8385 51.6886 42.8385 51.9706Z" fill="#DFE9FD"/>
<path d="M42.8373 51.9694H42.5544C42.5544 52.096 42.4521 52.1983 42.3251 52.1983C42.1993 52.1983 42.097 52.096 42.097 51.9694C42.097 51.8436 42.2001 51.7413 42.3251 51.7413C42.4521 51.7413 42.5544 51.8436 42.5544 51.9694H43.1201C43.1201 51.5315 42.7642 51.1755 42.3251 51.1755C41.8864 51.1755 41.5321 51.5315 41.5312 51.9694C41.5312 52.4085 41.8868 52.764 42.3251 52.764C42.7642 52.764 43.1201 52.4085 43.1201 51.9694H42.8373Z" fill="#578FFE"/>
<path d="M43.2127 51.7196C43.2127 52.0597 42.9367 52.3361 42.5954 52.3361C42.2553 52.3361 41.979 52.0597 41.979 51.7196C41.979 51.3787 42.2553 51.1024 42.5954 51.1024C42.9367 51.1024 43.2127 51.3787 43.2127 51.7196Z" fill="#DFE9FD"/>
<path d="M43.2287 51.7184H42.9458C42.945 51.9022 42.7957 52.052 42.6114 52.052C42.4276 52.052 42.2778 51.9022 42.2778 51.7184C42.2778 51.5333 42.4276 51.384 42.6114 51.384C42.7957 51.384 42.945 51.5333 42.9458 51.7184H43.5116C43.5108 51.2212 43.1086 50.8182 42.6114 50.8182C42.1142 50.8182 41.7121 51.2212 41.7121 51.7184C41.7121 52.2147 42.1142 52.6173 42.6114 52.6173C43.1086 52.6173 43.5108 52.2147 43.5116 51.7184H43.2287Z" fill="#578FFE"/>
<path d="M45.7354 51.4946C45.7354 51.8359 45.459 52.1119 45.1189 52.1119C44.7776 52.1119 44.5016 51.8359 44.5016 51.4946C44.5016 51.1545 44.7776 50.8785 45.1189 50.8785C45.459 50.8785 45.7354 51.1545 45.7354 51.4946Z" fill="#DFE9FD"/>
<path d="M45.7255 51.4976H45.4426C45.4426 51.6827 45.2929 51.8321 45.109 51.8321C44.924 51.8321 44.7746 51.6827 44.7746 51.4976C44.7746 51.3138 44.924 51.164 45.109 51.164C45.2929 51.164 45.4426 51.3138 45.4426 51.4976H46.0084C46.0084 51.0013 45.6062 50.5987 45.109 50.5987C44.6119 50.5987 44.2089 51.0009 44.2089 51.4976C44.2089 51.9956 44.6119 52.3978 45.109 52.3978C45.6062 52.3978 46.0084 51.9948 46.0084 51.4976H45.7255Z" fill="#578FFE"/>
<path d="M43.7339 51.2095C43.7339 51.4915 43.5054 51.7212 43.2225 51.7212C42.9397 51.7212 42.7108 51.4915 42.7108 51.2095C42.7108 50.9266 42.9397 50.6977 43.2225 50.6977C43.5054 50.6977 43.7339 50.9266 43.7339 51.2095Z" fill="#DFE9FD"/>
<path d="M43.7241 51.2082H43.4412C43.4412 51.334 43.3393 51.4363 43.2127 51.4371C43.0861 51.4363 42.9846 51.334 42.9838 51.2082C42.9846 51.0816 43.0861 50.9797 43.2127 50.9789C43.3393 50.9797 43.4412 51.0816 43.4412 51.2082H44.0069C44.0069 50.7691 43.6518 50.4136 43.2127 50.4136C42.7736 50.4144 42.418 50.7691 42.418 51.2082C42.418 51.6461 42.7736 52.002 43.2127 52.0029C43.6518 52.002 44.0069 51.6461 44.0069 51.2082H43.7241Z" fill="#578FFE"/>
<path d="M44.5002 51.2095C44.5002 51.4915 44.2709 51.7212 43.988 51.7212C43.7059 51.7212 43.477 51.4915 43.477 51.2095C43.477 50.9266 43.7059 50.6977 43.988 50.6977C44.2709 50.6977 44.5002 50.9266 44.5002 51.2095Z" fill="#DFE9FD"/>
<path d="M44.4989 51.2082H44.2161C44.2152 51.334 44.113 51.4363 43.9868 51.4371C43.8609 51.4363 43.7587 51.334 43.7587 51.2082C43.7587 51.0816 43.8609 50.9797 43.9868 50.9789C44.1138 50.9797 44.2152 51.0816 44.2161 51.2082H44.7818C44.781 50.7691 44.4259 50.4144 43.9868 50.4136C43.548 50.4144 43.1929 50.7691 43.1929 51.2082C43.1929 51.6461 43.548 52.002 43.9868 52.0029C44.4259 52.002 44.781 51.6461 44.7818 51.2082H44.4989Z" fill="#578FFE"/>
</svg>
