<svg width="207" height="35" viewBox="0 0 207 35" fill="none" xmlns="http://www.w3.org/2000/svg">
<path d="M20.0975 35C19.2405 35.0024 18.3915 34.8334 17.5998 34.5028C16.808 34.1721 16.0893 33.6864 15.4852 33.0737L0 17.4688L15.4852 1.86379C17.9491 -0.621262 22.246 -0.621262 24.7098 1.86379C25.9407 3.09974 26.6213 4.74986 26.6213 6.50737C26.6213 8.14215 26.0342 9.68709 24.9599 10.8946H35.4762C39.073 10.8946 42 13.8442 42 17.4688C42 21.0933 39.073 24.043 35.4762 24.043H24.9599C26.032 25.246 26.6213 26.7866 26.6213 28.4214C26.6247 29.2862 26.4575 30.143 26.1294 30.9421C25.8012 31.7411 25.3187 32.4665 24.7098 33.0759C24.1052 33.6877 23.3864 34.1727 22.5947 34.5029C21.8031 34.8332 20.9543 35.0021 20.0975 35ZM6.14974 17.4688L18.5601 29.9751C18.9741 30.374 19.5248 30.5966 20.0975 30.5966C20.6703 30.5966 21.221 30.374 21.635 29.9751C22.046 29.5609 22.2721 29.0087 22.2721 28.4236C22.2721 27.8385 22.046 27.2906 21.6393 26.8786L14.4741 19.6602H35.4762C36.0361 19.6349 36.5648 19.393 36.9522 18.9848C37.3395 18.5766 37.5557 18.0336 37.5557 17.4688C37.5557 16.904 37.3395 16.3609 36.9522 15.9527C36.5648 15.5445 36.0361 15.3026 35.4762 15.2774H14.4741L21.635 8.06107C21.8377 7.85836 21.9986 7.61725 22.1085 7.35163C22.2184 7.086 22.2751 6.80109 22.2753 6.5133C22.2755 6.22551 22.2192 5.94053 22.1097 5.67474C22.0002 5.40895 21.8396 5.16762 21.6372 4.96462C21.2234 4.56478 20.6724 4.34135 20.0991 4.34095C19.5258 4.34054 18.9745 4.56318 18.5601 4.96243L6.14974 17.4688Z" fill="#F47D61"/>
<path d="M186.902 35C187.759 35.0024 188.608 34.8334 189.4 34.5028C190.192 34.1721 190.911 33.6864 191.515 33.0737L207 17.4688L191.515 1.86379C189.051 -0.621262 184.754 -0.621262 182.29 1.86379C181.059 3.09974 180.379 4.74986 180.379 6.50737C180.379 8.14215 180.966 9.68709 182.04 10.8946H171.524C167.927 10.8946 165 13.8442 165 17.4688C165 21.0933 167.927 24.043 171.524 24.043H182.04C180.968 25.246 180.379 26.7866 180.379 28.4214C180.375 29.2862 180.542 30.143 180.871 30.9421C181.199 31.7411 181.681 32.4665 182.29 33.0759C182.895 33.6877 183.614 34.1727 184.405 34.5029C185.197 34.8332 186.046 35.0021 186.902 35ZM200.85 17.4688L188.44 29.9751C188.026 30.374 187.475 30.5966 186.902 30.5966C186.33 30.5966 185.779 30.374 185.365 29.9751C184.954 29.5609 184.728 29.0087 184.728 28.4236C184.728 27.8385 184.954 27.2906 185.361 26.8786L192.526 19.6602H171.524C170.964 19.6349 170.435 19.393 170.048 18.9848C169.66 18.5766 169.444 18.0336 169.444 17.4688C169.444 16.904 169.66 16.3609 170.048 15.9527C170.435 15.5445 170.964 15.3026 171.524 15.2774H192.526L185.365 8.06107C185.162 7.85836 185.001 7.61725 184.891 7.35163C184.782 7.086 184.725 6.80109 184.725 6.5133C184.725 6.22551 184.781 5.94053 184.89 5.67474C185 5.40895 185.16 5.16762 185.363 4.96462C185.777 4.56478 186.328 4.34135 186.901 4.34095C187.474 4.34054 188.026 4.56318 188.44 4.96243L200.85 17.4688Z" fill="#F47D61"/>
<g filter="url(#filter0_d_1365_24)">
<rect x="57" y="4" width="93" height="27" rx="10" fill="white"/>
<path d="M74.0948 24.084C73.5348 24.084 73.0168 23.9813 72.5408 23.776C72.0741 23.5707 71.7008 23.2393 71.4208 22.782C71.1408 22.3247 71.0008 21.718 71.0008 20.962V16.888C71.0008 16.132 71.1408 15.5253 71.4208 15.068C71.7008 14.6107 72.0788 14.2793 72.5548 14.074C73.0308 13.8687 73.5488 13.766 74.1088 13.766C74.7528 13.766 75.3081 13.878 75.7748 14.102C76.2508 14.3167 76.6195 14.6153 76.8808 14.998C77.1515 15.3713 77.2868 15.8053 77.2868 16.3C77.2868 16.6173 77.2261 16.8273 77.1048 16.93C76.9835 17.0233 76.7968 17.07 76.5448 17.07C76.3208 17.07 76.1435 17.0327 76.0128 16.958C75.8821 16.874 75.8121 16.748 75.8028 16.58C75.7935 16.4587 75.7701 16.314 75.7328 16.146C75.6955 15.978 75.6208 15.8147 75.5088 15.656C75.4061 15.488 75.2475 15.3527 75.0328 15.25C74.8181 15.138 74.5241 15.082 74.1508 15.082C73.6095 15.082 73.1941 15.2313 72.9048 15.53C72.6155 15.8193 72.4708 16.272 72.4708 16.888V20.962C72.4708 21.578 72.6155 22.0353 72.9048 22.334C73.2035 22.6233 73.6328 22.768 74.1928 22.768C74.5475 22.768 74.8275 22.7167 75.0328 22.614C75.2475 22.502 75.4061 22.3667 75.5088 22.208C75.6115 22.04 75.6815 21.8673 75.7188 21.69C75.7561 21.5033 75.7841 21.3353 75.8028 21.186C75.8121 21.0087 75.8821 20.8827 76.0128 20.808C76.1528 20.7333 76.3255 20.696 76.5308 20.696C76.7921 20.696 76.9835 20.7473 77.1048 20.85C77.2261 20.9527 77.2868 21.158 77.2868 21.466C77.2868 21.97 77.1515 22.4227 76.8808 22.824C76.6195 23.216 76.2508 23.524 75.7748 23.748C75.2988 23.972 74.7388 24.084 74.0948 24.084ZM79.373 24C79.1584 24 78.981 23.9487 78.841 23.846C78.7104 23.7433 78.645 23.6313 78.645 23.51V13.892C78.645 13.752 78.7104 13.64 78.841 13.556C78.981 13.4627 79.1584 13.416 79.373 13.416C79.5784 13.416 79.751 13.4627 79.891 13.556C80.0404 13.64 80.115 13.752 80.115 13.892V23.51C80.115 23.6313 80.0404 23.7433 79.891 23.846C79.751 23.9487 79.5784 24 79.373 24ZM82.5009 15.698C82.2676 15.698 82.0669 15.6187 81.8989 15.46C81.7309 15.3013 81.6469 15.124 81.6469 14.928C81.6469 14.7133 81.7309 14.5313 81.8989 14.382C82.0669 14.2327 82.2676 14.158 82.5009 14.158C82.7343 14.158 82.9303 14.2327 83.0889 14.382C83.2569 14.5313 83.3409 14.7133 83.3409 14.928C83.3409 15.124 83.2569 15.3013 83.0889 15.46C82.9303 15.6187 82.7343 15.698 82.5009 15.698ZM82.5009 24C82.2863 24 82.1089 23.9487 81.9689 23.846C81.8383 23.7433 81.7729 23.6313 81.7729 23.51V17.84C81.7729 17.7 81.8383 17.588 81.9689 17.504C82.1089 17.4107 82.2863 17.364 82.5009 17.364C82.7063 17.364 82.8789 17.4107 83.0189 17.504C83.1683 17.588 83.2429 17.7 83.2429 17.84V23.51C83.2429 23.6313 83.1683 23.7433 83.0189 23.846C82.8789 23.9487 82.7063 24 82.5009 24ZM87.4551 24.112C86.7831 24.112 86.2277 23.9907 85.7891 23.748C85.3597 23.5053 85.0424 23.174 84.8371 22.754C84.6317 22.334 84.5291 21.858 84.5291 21.326V20.066C84.5291 19.5433 84.6317 19.072 84.8371 18.652C85.0424 18.2227 85.3597 17.8867 85.7891 17.644C86.2184 17.4013 86.7644 17.28 87.4271 17.28C87.8564 17.28 88.2297 17.3313 88.5471 17.434C88.8737 17.5367 89.1257 17.6673 89.3031 17.826C89.4897 17.9753 89.5831 18.134 89.5831 18.302C89.5831 18.386 89.5551 18.4887 89.4991 18.61C89.4524 18.722 89.3824 18.82 89.2891 18.904C89.2051 18.9787 89.1024 19.016 88.9811 19.016C88.8877 19.016 88.7851 18.9787 88.6731 18.904C88.5704 18.8293 88.4304 18.7593 88.2531 18.694C88.0757 18.6193 87.8377 18.582 87.5391 18.582C87.0164 18.582 86.6291 18.7127 86.3771 18.974C86.1251 19.2353 85.9991 19.5993 85.9991 20.066V21.326C85.9991 21.7927 86.1251 22.1567 86.3771 22.418C86.6291 22.6793 87.0211 22.81 87.5531 22.81C87.8611 22.81 88.1037 22.7727 88.2811 22.698C88.4584 22.614 88.5984 22.5347 88.7011 22.46C88.8131 22.3853 88.9204 22.348 89.0231 22.348C89.1537 22.348 89.2657 22.3853 89.3591 22.46C89.4617 22.5347 89.5364 22.628 89.5831 22.74C89.6391 22.852 89.6671 22.9547 89.6671 23.048C89.6671 23.2067 89.5691 23.37 89.3731 23.538C89.1864 23.706 88.9251 23.846 88.5891 23.958C88.2624 24.0607 87.8844 24.112 87.4551 24.112ZM91.4423 24C91.237 24 91.0643 23.9487 90.9243 23.846C90.7937 23.7433 90.7283 23.6313 90.7283 23.51V13.892C90.7283 13.752 90.7937 13.64 90.9243 13.556C91.0643 13.4627 91.237 13.416 91.4423 13.416C91.657 13.416 91.8343 13.4627 91.9743 13.556C92.1237 13.64 92.1983 13.752 92.1983 13.892V20.122L95.1243 17.434C95.2083 17.35 95.311 17.308 95.4323 17.308C95.5443 17.308 95.6517 17.3453 95.7543 17.42C95.8663 17.4853 95.9597 17.574 96.0343 17.686C96.109 17.7887 96.1463 17.896 96.1463 18.008C96.1463 18.064 96.137 18.12 96.1183 18.176C96.0997 18.2227 96.067 18.2693 96.0203 18.316L94.2143 19.926L96.4123 23.09C96.4683 23.1833 96.4963 23.2673 96.4963 23.342C96.4963 23.4633 96.4497 23.58 96.3563 23.692C96.2723 23.804 96.165 23.8973 96.0343 23.972C95.913 24.0467 95.7917 24.084 95.6703 24.084C95.5023 24.084 95.3717 24.014 95.2783 23.874L93.2203 20.836L92.1983 21.76V23.51C92.1983 23.6313 92.1237 23.7433 91.9743 23.846C91.8343 23.9487 91.657 24 91.4423 24ZM103.226 24.14C102.526 24.14 101.92 24 101.406 23.72C100.902 23.44 100.515 23.0713 100.244 22.614C99.9736 22.1473 99.8383 21.6433 99.8383 21.102C99.8383 20.654 99.9223 20.248 100.09 19.884C100.258 19.52 100.482 19.2027 100.762 18.932C101.042 18.652 101.332 18.4327 101.63 18.274C101.36 17.9567 101.122 17.6207 100.916 17.266C100.711 16.9113 100.608 16.4913 100.608 16.006C100.608 15.474 100.73 15.026 100.972 14.662C101.224 14.2887 101.56 14.0087 101.98 13.822C102.41 13.626 102.876 13.528 103.38 13.528C103.922 13.528 104.384 13.6167 104.766 13.794C105.158 13.9713 105.452 14.1813 105.648 14.424C105.854 14.6573 105.956 14.8673 105.956 15.054C105.956 15.2313 105.882 15.39 105.732 15.53C105.592 15.67 105.434 15.74 105.256 15.74C105.126 15.74 105.009 15.6887 104.906 15.586C104.813 15.4833 104.706 15.3667 104.584 15.236C104.463 15.096 104.309 14.9793 104.122 14.886C103.945 14.7833 103.707 14.732 103.408 14.732C102.998 14.732 102.662 14.8533 102.4 15.096C102.148 15.3293 102.022 15.656 102.022 16.076C102.022 16.3747 102.097 16.6593 102.246 16.93C102.396 17.2007 102.578 17.4573 102.792 17.7C103.007 17.9333 103.217 18.162 103.422 18.386L105.886 21.046C106.054 20.6447 106.152 20.2527 106.18 19.87C106.218 19.4873 106.246 19.1653 106.264 18.904C106.274 18.7453 106.32 18.6287 106.404 18.554C106.498 18.47 106.67 18.428 106.922 18.428C107.174 18.428 107.342 18.4887 107.426 18.61C107.51 18.7313 107.552 18.9087 107.552 19.142C107.552 19.3567 107.529 19.6227 107.482 19.94C107.436 20.2573 107.356 20.5933 107.244 20.948C107.142 21.3027 106.992 21.648 106.796 21.984L107.986 23.244C108.024 23.2907 108.047 23.3373 108.056 23.384C108.075 23.4307 108.084 23.4727 108.084 23.51C108.084 23.6593 108.014 23.7993 107.874 23.93C107.734 24.0513 107.58 24.112 107.412 24.112C107.347 24.112 107.282 24.098 107.216 24.07C107.16 24.042 107.1 23.9953 107.034 23.93L106.068 22.922C105.732 23.2767 105.331 23.5707 104.864 23.804C104.407 24.028 103.861 24.14 103.226 24.14ZM103.408 22.838C103.828 22.838 104.183 22.7633 104.472 22.614C104.762 22.4553 105 22.2547 105.186 22.012L102.47 19.156C102.293 19.268 102.116 19.408 101.938 19.576C101.77 19.744 101.626 19.94 101.504 20.164C101.392 20.388 101.336 20.6587 101.336 20.976C101.336 21.312 101.416 21.6247 101.574 21.914C101.733 22.194 101.966 22.418 102.274 22.586C102.582 22.754 102.96 22.838 103.408 22.838ZM112.649 24C112.453 24 112.295 23.9533 112.173 23.86C112.052 23.7667 111.991 23.6547 111.991 23.524V14.242C111.991 14.1113 112.052 13.9993 112.173 13.906C112.295 13.8127 112.453 13.766 112.649 13.766H115.127C115.715 13.766 116.247 13.8687 116.723 14.074C117.209 14.2793 117.587 14.6107 117.857 15.068C118.137 15.5253 118.277 16.132 118.277 16.888V20.878C118.277 21.634 118.137 22.2407 117.857 22.698C117.587 23.1553 117.209 23.4867 116.723 23.692C116.247 23.8973 115.715 24 115.127 24H112.649ZM113.475 22.684H115.127C115.65 22.684 116.056 22.5393 116.345 22.25C116.644 21.9513 116.793 21.494 116.793 20.878V16.888C116.793 16.272 116.644 15.8193 116.345 15.53C116.056 15.2313 115.65 15.082 115.127 15.082H113.475V22.684ZM120.536 24C120.33 24 120.158 23.9487 120.018 23.846C119.887 23.7433 119.822 23.6313 119.822 23.51V17.84C119.822 17.7 119.887 17.588 120.018 17.504C120.158 17.4107 120.33 17.364 120.536 17.364C120.722 17.364 120.881 17.4107 121.012 17.504C121.142 17.588 121.208 17.7 121.208 17.84V18.456C121.31 18.26 121.446 18.0733 121.614 17.896C121.791 17.7187 121.996 17.574 122.23 17.462C122.463 17.3407 122.715 17.28 122.986 17.28H123.434C123.583 17.28 123.714 17.3453 123.826 17.476C123.938 17.5973 123.994 17.7467 123.994 17.924C123.994 18.1013 123.938 18.2553 123.826 18.386C123.714 18.5167 123.583 18.582 123.434 18.582H122.986C122.706 18.582 122.435 18.666 122.174 18.834C121.912 19.002 121.698 19.24 121.53 19.548C121.371 19.8467 121.292 20.2107 121.292 20.64V23.51C121.292 23.6313 121.217 23.7433 121.068 23.846C120.928 23.9487 120.75 24 120.536 24ZM126.104 24.112C125.59 24.112 125.152 23.9627 124.788 23.664C124.424 23.356 124.242 22.8893 124.242 22.264C124.242 21.732 124.382 21.3213 124.662 21.032C124.942 20.7427 125.324 20.542 125.81 20.43C126.304 20.318 126.874 20.262 127.518 20.262H128.134V20.01C128.134 19.7673 128.087 19.534 127.994 19.31C127.91 19.0767 127.765 18.8853 127.56 18.736C127.364 18.5773 127.093 18.498 126.748 18.498C126.402 18.498 126.136 18.5307 125.95 18.596C125.763 18.6613 125.614 18.7313 125.502 18.806C125.39 18.8807 125.287 18.918 125.194 18.918C125.026 18.918 124.895 18.8387 124.802 18.68C124.708 18.512 124.662 18.344 124.662 18.176C124.662 18.008 124.769 17.8587 124.984 17.728C125.208 17.588 125.483 17.4807 125.81 17.406C126.136 17.322 126.458 17.28 126.776 17.28C127.466 17.28 128.017 17.4107 128.428 17.672C128.838 17.924 129.137 18.2553 129.324 18.666C129.51 19.0767 129.604 19.52 129.604 19.996V23.51C129.604 23.6407 129.534 23.7573 129.394 23.86C129.263 23.9533 129.095 24 128.89 24C128.703 24 128.544 23.9533 128.414 23.86C128.283 23.7573 128.218 23.6407 128.218 23.51V23.02C127.975 23.3 127.681 23.552 127.336 23.776C126.99 24 126.58 24.112 126.104 24.112ZM126.636 22.992C126.869 22.992 127.098 22.922 127.322 22.782C127.555 22.642 127.746 22.4647 127.896 22.25C128.054 22.0353 128.134 21.816 128.134 21.592V21.074H127.784C127.429 21.074 127.093 21.0973 126.776 21.144C126.458 21.1813 126.202 21.2747 126.006 21.424C125.819 21.564 125.726 21.7833 125.726 22.082C125.726 22.3993 125.81 22.6327 125.978 22.782C126.155 22.922 126.374 22.992 126.636 22.992ZM133.593 27.15C133.052 27.15 132.553 27.0707 132.095 26.912C131.638 26.7627 131.274 26.5433 131.003 26.254C130.733 25.9647 130.597 25.6193 130.597 25.218C130.597 24.8447 130.705 24.532 130.919 24.28C131.134 24.0373 131.386 23.8507 131.675 23.72C131.489 23.636 131.335 23.524 131.213 23.384C131.092 23.244 131.031 23.048 131.031 22.796C131.031 22.5347 131.097 22.3247 131.227 22.166C131.358 22.0073 131.526 21.8627 131.731 21.732C131.47 21.5267 131.265 21.2747 131.115 20.976C130.975 20.668 130.905 20.332 130.905 19.968V19.576C130.905 19.128 131.013 18.7313 131.227 18.386C131.442 18.0407 131.745 17.77 132.137 17.574C132.539 17.378 132.996 17.28 133.509 17.28C133.827 17.28 134.121 17.322 134.391 17.406C134.671 17.49 134.919 17.6067 135.133 17.756C135.283 17.4107 135.432 17.168 135.581 17.028C135.74 16.888 135.889 16.818 136.029 16.818C136.225 16.818 136.375 16.874 136.477 16.986C136.58 17.098 136.631 17.21 136.631 17.322C136.631 17.3967 136.608 17.4667 136.561 17.532C136.524 17.588 136.468 17.6347 136.393 17.672C136.3 17.7187 136.188 17.784 136.057 17.868C135.936 17.9427 135.815 18.064 135.693 18.232C135.852 18.4093 135.969 18.6147 136.043 18.848C136.118 19.0813 136.155 19.324 136.155 19.576V19.968C136.155 20.4067 136.043 20.8033 135.819 21.158C135.595 21.5127 135.283 21.7927 134.881 21.998C134.48 22.194 134.023 22.292 133.509 22.292C133.145 22.292 132.823 22.236 132.543 22.124C132.469 22.1707 132.403 22.2267 132.347 22.292C132.301 22.348 132.277 22.4227 132.277 22.516C132.277 22.684 132.38 22.8053 132.585 22.88C132.791 22.9547 133.052 23.0107 133.369 23.048C133.696 23.0853 134.041 23.132 134.405 23.188C134.769 23.244 135.11 23.3373 135.427 23.468C135.754 23.5893 136.02 23.7713 136.225 24.014C136.431 24.266 136.533 24.6067 136.533 25.036C136.533 25.5213 136.398 25.918 136.127 26.226C135.857 26.5433 135.497 26.7767 135.049 26.926C134.611 27.0753 134.125 27.15 133.593 27.15ZM133.565 26.17C134.023 26.17 134.391 26.0673 134.671 25.862C134.961 25.666 135.105 25.4047 135.105 25.078C135.105 24.8447 135.035 24.6627 134.895 24.532C134.755 24.4013 134.573 24.3033 134.349 24.238C134.125 24.1727 133.887 24.126 133.635 24.098C133.393 24.07 133.159 24.042 132.935 24.014C132.674 24.1073 132.45 24.238 132.263 24.406C132.086 24.5833 131.997 24.8027 131.997 25.064C131.997 25.4093 132.142 25.68 132.431 25.876C132.73 26.072 133.108 26.17 133.565 26.17ZM133.537 21.354C133.911 21.354 134.2 21.2233 134.405 20.962C134.62 20.7007 134.727 20.3693 134.727 19.968V19.576C134.727 19.1933 134.62 18.8713 134.405 18.61C134.2 18.3487 133.906 18.218 133.523 18.218C133.141 18.218 132.847 18.3487 132.641 18.61C132.436 18.8713 132.333 19.1933 132.333 19.576V19.954C132.333 20.346 132.436 20.6773 132.641 20.948C132.847 21.2187 133.145 21.354 133.537 21.354Z" fill="#578FFE"/>
<rect x="57.5" y="4.5" width="92" height="26" rx="9.5" stroke="#F7CFE5"/>
</g>
<defs>
<filter id="filter0_d_1365_24" x="57" y="4" width="95.5" height="29.5" filterUnits="userSpaceOnUse" color-interpolation-filters="sRGB">
<feFlood flood-opacity="0" result="BackgroundImageFix"/>
<feColorMatrix in="SourceAlpha" type="matrix" values="0 0 0 0 0 0 0 0 0 0 0 0 0 0 0 0 0 0 127 0" result="hardAlpha"/>
<feOffset dx="2.5" dy="2.5"/>
<feComposite in2="hardAlpha" operator="out"/>
<feColorMatrix type="matrix" values="0 0 0 0 0.956863 0 0 0 0 0.490196 0 0 0 0 0.380392 0 0 0 1 0"/>
<feBlend mode="normal" in2="BackgroundImageFix" result="effect1_dropShadow_1365_24"/>
<feBlend mode="normal" in="SourceGraphic" in2="effect1_dropShadow_1365_24" result="shape"/>
</filter>
</defs>
</svg>
