<svg width="60" height="65" viewBox="0 0 60 65" fill="none" xmlns="http://www.w3.org/2000/svg">
<mask id="mask0_863_10007" style="mask-type:luminance" maskUnits="userSpaceOnUse" x="0" y="0" width="60" height="65">
<path d="M23.8552 39.5111C23.8669 39.5205 23.873 39.533 23.8858 39.5417L23.8908 39.5454C24.0604 39.6878 24.2505 39.8106 24.4578 39.9193L49.2299 56.2508C49.3988 56.8578 50.0034 58.5685 51.5196 58.8521C52.1902 58.979 52.9395 58.8791 53.6653 58.7825C54.6663 58.6499 55.704 58.5126 56.4735 58.9743C57.4426 59.5571 58.5378 62.3118 58.9998 63.9117C59.0644 64.1352 59.2683 64.2805 59.4901 64.2805C59.5372 64.2805 59.5846 64.2741 59.6317 64.2607C59.9019 64.1826 60.0587 63.8996 59.9806 63.6291C59.8471 63.1664 58.6287 59.0789 56.9988 58.1001C55.9234 57.4537 54.6522 57.6216 53.5311 57.7714C52.8554 57.8609 52.2168 57.9453 51.708 57.8494C50.7706 57.6735 50.2878 56.3477 50.1774 55.838L48.3587 44.0889V44.0886C48.3587 44.0879 48.3587 44.0879 48.3581 44.0875L45.606 26.3111C45.6037 26.298 45.5956 26.2879 45.5926 26.2751C45.53 25.942 45.4159 25.6298 45.2399 25.3465C43.5824 22.6701 37.4717 23.5537 31.33 27.3572C31.2233 27.4235 31.1231 27.4918 31.0177 27.5585C30.8589 26.6745 30.6405 25.7967 30.332 25.0645C29.9599 24.1819 29.3892 23.3363 28.7866 22.4417C27.5937 20.6735 26.2425 18.6694 25.6321 15.4268C25.0227 12.1818 25.9511 9.3019 26.6294 7.19959C26.9908 6.07913 27.2761 5.19352 27.2643 4.49398C27.231 2.50137 26.2189 1.04241 26.1755 0.981166C26.054 0.809227 25.8397 0.730155 25.6351 0.779617L22.9029 1.45964C22.7394 1.50035 22.6065 1.61946 22.5476 1.77693C22.4891 1.93474 22.5119 2.11106 22.6088 2.24901C22.6176 2.26112 23.483 3.50844 23.5113 5.19116C23.5204 5.72145 23.2448 6.5761 22.9251 7.56568C22.2135 9.7723 21.2387 12.7945 21.8969 16.2946C22.5456 19.7448 24.0214 21.9336 25.2071 23.692C25.8067 24.5806 26.3242 25.3485 26.658 26.1402C27.1345 27.2708 27.3848 28.8344 27.5174 30.1651C23.7317 33.4841 22.0873 36.8991 23.3326 38.9092C23.4739 39.1376 23.6526 39.3348 23.8552 39.5111ZM33.7062 38.7665C34.0645 39.4122 34.2509 40.0922 34.2509 40.8382C34.2509 42.1269 33.7069 43.3177 32.754 44.1653L27.1186 40.4506C28.9605 40.4348 31.2587 39.8526 33.7062 38.7665ZM44.6851 52.0318L38.8163 48.1619C39.4673 47.2043 40.5444 46.6239 41.7248 46.6239C43.6666 46.6239 45.246 48.2033 45.246 50.1441C45.246 50.8171 45.0434 51.4695 44.6851 52.0318ZM45.5421 52.597C46.0101 51.8689 46.2662 51.0173 46.2662 50.1445C46.2662 47.6411 44.2285 45.604 41.7241 45.604C40.1961 45.604 38.8041 46.3588 37.965 47.6014L33.6332 44.7454C34.6806 43.7191 35.2715 42.3308 35.2715 40.8385C35.2715 39.9516 35.0575 39.1134 34.6416 38.3358C35.4999 37.9155 36.3707 37.4404 37.2429 36.9001C41.0495 34.5434 43.8446 31.6981 45.0266 29.2385L46.0209 35.6601C45.1895 35.9142 44.4882 36.4835 44.0175 37.3112C43.4876 38.244 43.2901 39.4246 43.462 40.636C43.6333 41.8426 44.1723 42.9227 44.9802 43.677C45.6885 44.3382 46.5408 44.6908 47.4206 44.6986L48.996 54.8736L45.5421 52.597ZM47.2605 43.668C46.6955 43.6205 46.1457 43.3695 45.6763 42.9307C45.0384 42.3355 44.6107 41.4691 44.4724 40.4923C44.3321 39.5037 44.4852 38.5525 44.9048 37.8153C45.136 37.4088 45.5374 36.9246 46.1794 36.683L47.2605 43.668ZM26.0537 23.1227C24.8616 21.3545 23.5103 19.3501 22.8999 16.1075C22.2899 12.8625 23.2189 9.98259 23.8965 7.87961C24.2583 6.75982 24.5436 5.87421 24.5318 5.17468C24.5113 3.93812 24.1139 2.90716 23.8047 2.28771L25.5177 1.86173C25.7744 2.3264 26.2236 3.3079 26.2435 4.51148C26.2529 5.0421 25.977 5.89709 25.6577 6.88633C24.9457 9.09261 23.9716 12.1155 24.6294 15.6152C25.2781 19.0654 26.7539 21.2539 27.94 23.012C28.5396 23.9013 29.0571 24.6691 29.3909 25.4609C30.2085 27.4 30.3636 30.618 30.3932 31.7368L28.6752 32.1645C28.6318 30.8273 28.4407 27.7428 27.5991 25.7445C27.227 24.8619 26.6573 24.017 26.0537 23.1227ZM27.619 31.4505C27.6647 32.2506 27.6674 32.7991 27.6674 32.8142C27.6674 32.9714 27.7398 33.1197 27.8639 33.2163C27.9541 33.2873 28.0655 33.3243 28.1779 33.3243C28.2189 33.3243 28.2603 33.3193 28.3007 33.3095L31.0335 32.6295C31.2613 32.573 31.4208 32.3684 31.4208 32.1342C31.4208 32.0255 31.4148 30.4559 31.1866 28.6651C31.4117 28.5171 31.6358 28.3687 31.868 28.225C37.9004 24.4895 43.2046 23.9992 44.3725 25.8838C45.5404 27.7688 42.7382 32.2964 36.7055 36.0323C31.5527 39.2231 26.9417 40.0394 24.9753 39.0374L24.5113 38.7318C24.3898 38.6232 24.2828 38.5057 24.2007 38.3735C23.3178 36.9475 24.7152 34.1753 27.619 31.4505ZM21.0355 32.501C21.0954 32.6867 21.2559 32.8223 21.449 32.8506C21.4732 32.8539 21.4978 32.8556 21.522 32.8556C21.6893 32.8556 21.8484 32.7735 21.944 32.6325L23.5146 30.3223C23.6139 30.1756 23.6311 29.9885 23.5587 29.8266C23.5015 29.6981 22.1189 26.6698 19.237 25.6806C18.0466 25.2714 16.5967 25.2001 15.0613 25.1247C13.0105 25.0234 10.8904 24.9191 9.38329 23.9807C7.4371 22.7687 7.50877 20.1765 7.56194 18.2845C7.57674 17.7603 7.58953 17.3074 7.55689 16.9379C7.39605 15.0933 6.14873 14.0816 6.09624 14.0398C6.00539 13.9675 5.89436 13.9285 5.77827 13.9285H1.96868C1.74425 13.9285 1.54607 14.0765 1.48079 14.2919C1.41585 14.5072 1.50031 14.7404 1.68739 14.8649C1.69984 14.8733 2.96937 15.732 3.44548 17.3461C3.57065 17.771 3.60329 18.4349 3.64064 19.2027C3.74932 21.4268 3.91251 24.7879 6.75675 26.9851C9.15213 28.8371 12.2703 28.862 14.7753 28.8825C16.2114 28.8936 17.452 28.904 18.2118 29.2395C20.2542 30.1409 21.0277 32.4777 21.0355 32.501ZM14.7834 27.8616C12.3086 27.8418 9.50374 27.8189 7.38024 26.1776C4.90882 24.2681 4.76548 21.3121 4.66016 19.1533C4.61945 18.3195 4.58479 17.5998 4.42429 17.0574C4.15814 16.1539 3.69683 15.4514 3.26647 14.949H5.57773C5.83951 15.2131 6.44382 15.9335 6.53972 17.0264C6.56731 17.337 6.5552 17.7626 6.5414 18.2549C6.48521 20.2741 6.40008 23.3249 8.84391 24.8461C10.5754 25.9245 12.8308 26.0359 15.0109 26.1429C16.4715 26.2149 17.8511 26.2825 18.9049 26.6443C20.9221 27.3371 22.1277 29.3007 22.5012 29.9956L21.6209 31.291C21.1519 30.3798 20.2209 29.01 18.6243 28.3044C17.6707 27.8845 16.3329 27.8744 14.7834 27.8616ZM7.1696 30.8899C7.00507 30.966 6.89302 31.1241 6.8762 31.3048L6.62148 33.9677C6.60298 34.1584 6.69383 34.3438 6.85634 34.4468C6.93945 34.5 7.03434 34.5259 7.12923 34.5259C7.2194 34.5259 7.30992 34.502 7.39 34.4539C8.59122 33.7402 9.87017 33.6383 11.2988 34.1406C11.4402 34.1908 11.5976 34.1749 11.7295 34.0979C11.8594 34.0208 11.9482 33.8896 11.9725 33.7402L12.418 30.9589C12.4604 30.6944 12.2915 30.4424 12.0307 30.3815C10.3776 29.9942 8.74129 30.1641 7.1696 30.8899ZM11.0569 33.0016C9.888 32.7005 8.77191 32.754 7.72378 33.1598L7.86308 31.7002C8.99196 31.2318 10.1555 31.0931 11.3318 31.2833L11.0569 33.0016ZM14.9664 10.3981C15.0243 10.3981 15.0829 10.388 15.1384 10.3682L17.0758 9.67539C17.279 9.60237 17.414 9.40991 17.414 9.1949C17.4116 6.67099 16.7996 4.81566 15.5422 3.52392C15.4382 3.41625 15.2915 3.36477 15.1428 3.37015L12.496 3.54714C12.3056 3.55992 12.1384 3.67836 12.0616 3.85333C11.9853 4.0283 12.0132 4.23086 12.134 4.37891C13.565 6.13263 14.3251 7.94657 14.4574 9.92236C14.4678 10.0819 14.5533 10.2272 14.6868 10.315C14.7716 10.3695 14.8685 10.3981 14.9664 10.3981ZM13.5085 4.50172L14.9675 4.40448C15.8702 5.43141 16.3373 6.88633 16.3884 8.83723L15.4079 9.18817C15.1855 7.55323 14.5492 5.98289 13.5085 4.50172ZM32.6779 24.0009C32.763 24.186 32.9468 24.298 33.1419 24.298C33.1907 24.298 33.2402 24.2909 33.29 24.2761L36.2395 23.3824C36.3913 23.3363 36.5127 23.2226 36.5693 23.0742C36.6248 22.9262 36.609 22.7606 36.5259 22.6254C36.5053 22.5927 34.4925 19.2936 34.3048 15.488C34.1931 13.2205 34.831 10.8369 35.3946 8.73426C35.8001 7.21776 36.1503 5.90887 36.1473 4.89708C36.1379 2.51584 35.0699 0.370461 35.0238 0.280285C34.9367 0.108682 34.761 0 34.5682 0H31.7496C31.5726 0 31.408 0.0925312 31.3152 0.242936C31.222 0.393341 31.2142 0.581768 31.2933 0.739912C31.3041 0.760101 32.2997 2.76719 32.3074 4.90179C32.3108 5.77663 31.9767 7.02564 31.5894 8.47148C31.007 10.6468 30.3471 13.1118 30.4673 15.5385C30.6658 19.5813 32.5958 23.8222 32.6779 24.0009ZM32.5753 8.7346C32.9811 7.21844 33.3317 5.90887 33.328 4.89776C33.3219 3.33045 32.8569 1.86475 32.5275 1.02053H34.2405C34.512 1.64739 35.1204 3.23522 35.1261 4.90112C35.1291 5.7763 34.7954 7.02463 34.4081 8.47047C33.8256 10.6458 33.1658 13.1112 33.2853 15.5382C33.441 18.6883 34.7203 21.4376 35.3344 22.5907L33.4296 23.1678C32.9494 22.0194 31.6419 18.6368 31.4868 15.488C31.3744 13.2208 32.0124 10.8376 32.5753 8.7346ZM41.3328 7.96945L43.2588 8.54685C43.3069 8.56132 43.3557 8.56838 43.4051 8.56838C43.5108 8.56838 43.6154 8.53574 43.7032 8.47249C43.8318 8.37995 43.9098 8.23325 43.9152 8.07511C43.9606 6.672 44.5959 5.45563 45.8591 4.35737C45.9872 4.24634 46.0515 4.07776 46.0303 3.90952C46.0095 3.74129 45.9058 3.59357 45.7537 3.51719L43.464 2.36173C43.2588 2.25709 43.0057 2.30453 42.8516 2.47916C41.6756 3.8106 41.0431 5.48693 40.9694 7.46171C40.9603 7.69388 41.1097 7.90249 41.3328 7.96945ZM43.3671 3.45562L44.6474 4.10132C43.6999 5.08585 43.1322 6.18747 42.9536 7.3897L42.0124 7.10774C42.1279 5.68949 42.5828 4.46471 43.3671 3.45562ZM45.2174 17.9726C45.1676 17.8427 45.067 17.7384 44.9388 17.6849L42.8234 16.7966C42.572 16.6923 42.281 16.802 42.1642 17.0493C41.468 18.5247 41.2311 20.2465 41.461 22.1668C41.4859 22.3723 41.6329 22.5433 41.8328 22.5985L43.8065 23.1385C43.851 23.1503 43.8964 23.1563 43.9411 23.1563C44.0616 23.1563 44.1804 23.1136 44.2742 23.0328C44.4031 22.9218 44.4677 22.7542 44.4479 22.5857C44.2396 20.8484 44.5821 19.6852 45.2022 18.373C45.2618 18.2471 45.2675 18.1018 45.2174 17.9726ZM43.3742 21.9615L42.4391 21.7054C42.3146 20.3081 42.4677 19.0429 42.896 17.9329L44.0609 18.4221C43.5986 19.5015 43.317 20.5816 43.3742 21.9615ZM15.9372 19.051C16.199 19.1731 16.4658 19.2344 16.7222 19.2344C16.9843 19.2344 17.2346 19.1704 17.4554 19.0429C17.8918 18.7909 18.171 18.3134 18.2215 17.733C18.2663 17.2121 18.128 16.6428 17.8332 16.1314C17.5381 15.6203 17.1142 15.2162 16.6401 14.9944C16.1111 14.7464 15.559 14.7498 15.1216 15.0018C14.6855 15.2538 14.4062 15.7316 14.3557 16.3121C14.3107 16.8336 14.4489 17.4029 14.744 17.914C15.0391 18.4251 15.4631 18.8292 15.9372 19.051ZM15.632 15.8861C15.7023 15.8457 15.779 15.8306 15.8544 15.8306C15.9907 15.8306 16.1229 15.88 16.2067 15.9194C16.4893 16.0513 16.7599 16.3147 16.9486 16.6421C17.1374 16.9695 17.2309 17.3349 17.204 17.6462C17.1922 17.7889 17.1418 18.0463 16.9443 18.1603C16.7491 18.2737 16.5001 18.1889 16.3696 18.1277C16.0866 17.9955 15.8167 17.7323 15.628 17.4049C15.4392 17.0772 15.3457 16.7121 15.3729 16.4009C15.385 16.2565 15.4352 15.9995 15.632 15.8861ZM46.0222 12.1589C46.3527 12.1589 46.6945 12.0496 47.0098 11.8376C47.4442 11.5452 47.8002 11.0809 48.0125 10.53C48.4842 9.30897 48.1229 8.07073 47.1898 7.71137C46.2554 7.35067 45.1572 8.02497 44.6858 9.24638C44.2147 10.4668 44.5764 11.7043 45.5088 12.064C45.6723 12.1273 45.8456 12.1589 46.0222 12.1589ZM45.637 9.61348C45.8782 8.98931 46.3365 8.63702 46.6737 8.63702C46.7265 8.63702 46.7759 8.64577 46.8214 8.66327C47.1579 8.79315 47.3389 9.44053 47.0603 10.1626C47.0603 10.1626 47.0603 10.1626 47.0603 10.1629C46.924 10.5152 46.6979 10.8171 46.4391 10.9917C46.3197 11.0711 46.0882 11.1936 45.8759 11.1125C45.5401 10.9823 45.3587 10.3349 45.637 9.61348ZM37.4071 18.4921C37.5461 19.0577 37.8957 19.4867 38.366 19.6684C38.5299 19.7317 38.7035 19.7633 38.8802 19.7633C39.2103 19.7633 39.5521 19.6543 39.8677 19.442C40.3018 19.1496 40.6581 18.6852 40.8704 18.1344C41.3418 16.9137 40.9808 15.6758 40.0478 15.3161C39.5787 15.1357 39.0306 15.2172 38.5467 15.5432C38.1127 15.8356 37.7564 16.2999 37.544 16.8508C37.3307 17.4009 37.2823 17.984 37.4071 18.4921ZM38.4953 17.2172C38.6315 16.8652 38.8576 16.5631 39.1164 16.3884C39.2083 16.3269 39.3661 16.2401 39.5303 16.2401C39.5804 16.2401 39.6302 16.2481 39.6797 16.2673C40.0161 16.3972 40.1972 17.0446 39.9186 17.7666C39.9186 17.7666 39.9186 17.7666 39.9186 17.767C39.7823 18.1189 39.5562 18.4211 39.2974 18.5954C39.178 18.6751 38.9465 18.7976 38.7342 18.7165C38.5218 18.6348 38.4327 18.3878 38.3984 18.2481C38.3237 17.946 38.359 17.5695 38.4953 17.2172ZM36.3977 33.3092C36.5615 33.3092 36.7244 33.2802 36.8812 33.22C37.3607 33.0356 37.7059 32.58 37.8274 31.9703C37.9333 31.4357 37.8671 30.8159 37.6399 30.2254C37.1315 28.9054 36.0036 28.152 35.0692 28.5107C34.1359 28.8697 33.8031 30.1853 34.3112 31.5057C34.7334 32.6036 35.5857 33.3092 36.3977 33.3092ZM35.4357 29.4629C35.474 29.4481 35.5154 29.441 35.5592 29.441C35.9054 29.441 36.4135 29.8798 36.687 30.5921C36.8438 30.9986 36.8943 31.4286 36.826 31.7711C36.7738 32.0306 36.6611 32.2119 36.5151 32.2678C36.1729 32.4 35.5719 31.9414 35.2637 31.1396C34.9545 30.3364 35.0999 29.5921 35.4357 29.4629ZM28.1732 37.5404C28.6089 37.8257 29.0914 37.964 29.5419 37.964C30.1395 37.964 30.6816 37.7201 30.9888 37.2517C31.2607 36.8365 31.3091 36.2981 31.1214 35.7759C30.9494 35.2974 30.5961 34.864 30.1267 34.5565C29.6577 34.2493 29.1251 34.0999 28.6106 34.1332C28.0567 34.1702 27.5833 34.43 27.3111 34.8452C26.7727 35.6682 27.1597 36.8768 28.1732 37.5404ZM28.1654 35.4044C28.2956 35.2049 28.5433 35.1601 28.6789 35.1514C28.7034 35.1497 28.728 35.1487 28.7522 35.1487C29.0184 35.1487 29.3111 35.2422 29.5679 35.4105C29.8491 35.5942 30.0655 35.8529 30.1614 36.1211C30.2075 36.2493 30.265 36.4936 30.1348 36.6925C29.9117 37.032 29.2566 37.0299 28.7331 36.6864C28.2085 36.3432 27.943 35.7443 28.1654 35.4044ZM30.831 8.66764C30.692 8.10202 30.3428 7.67302 29.872 7.49132C29.4016 7.30962 28.8545 7.39273 28.371 7.71777C27.937 8.01017 27.5806 8.4745 27.3683 9.02532C27.1557 9.57647 27.1069 10.1596 27.232 10.6677C27.371 11.2333 27.7206 11.6623 28.191 11.844C28.3549 11.9072 28.5285 11.9389 28.7048 11.9389C29.0352 11.9389 29.3771 11.8299 29.6924 11.6175C30.1267 11.3251 30.4831 10.8611 30.6954 10.31C30.908 9.75917 30.9565 9.17606 30.831 8.66764ZM29.7435 9.94222C29.6072 10.2948 29.3811 10.5967 29.1224 10.7713C29.0029 10.8507 28.7714 10.9739 28.5591 10.8921C28.3468 10.8103 28.2573 10.5637 28.2233 10.4237C28.1486 10.1212 28.1843 9.74538 28.3202 9.39275C28.4565 9.04079 28.6826 8.73864 28.9413 8.56434C29.0332 8.5031 29.1903 8.41629 29.3552 8.41629C29.405 8.41629 29.4551 8.42437 29.5046 8.44321C29.7169 8.52498 29.8061 8.77195 29.8404 8.91159C29.9148 9.21408 29.8791 9.59026 29.7435 9.94222ZM38.366 5.21438C38.5299 5.27764 38.7029 5.30927 38.8802 5.30927C39.2099 5.30927 39.5521 5.20025 39.8677 4.9876C40.3018 4.6952 40.6581 4.23086 40.8704 3.68005C41.0831 3.12957 41.1316 2.54646 41.0067 2.03838C40.8678 1.47242 40.5182 1.04341 40.0478 0.861717C39.5774 0.68002 39.0296 0.763466 38.5467 1.08817C38.1127 1.38056 37.7564 1.84524 37.544 2.39571C37.331 2.94686 37.2826 3.52998 37.4078 4.03806C37.5467 4.60368 37.8957 5.03302 38.366 5.21438ZM38.4953 2.76315C38.6315 2.41119 38.8576 2.1087 39.1164 1.93407C39.2083 1.87283 39.3654 1.78636 39.5303 1.78636C39.5804 1.78636 39.6302 1.79443 39.6797 1.81327C39.892 1.8947 39.9815 2.14167 40.0155 2.28165C40.0902 2.58414 40.0545 2.95999 39.9186 3.31261C39.9186 3.31261 39.9186 3.31261 39.9186 3.31295C39.7823 3.66524 39.5562 3.96706 39.2974 4.14169C39.178 4.22211 38.9458 4.34459 38.7342 4.26316C38.5218 4.1814 38.4327 3.93442 38.3984 3.79479C38.3237 3.49229 38.359 3.11577 38.4953 2.76315ZM3.48889 9.69625C3.3267 10.1737 3.43168 10.7164 3.77691 11.1865C4.08647 11.6078 4.56595 11.9446 5.12517 12.1347C5.45391 12.2464 5.78096 12.2992 6.0912 12.2992C6.94955 12.2992 7.6723 11.8921 7.90851 11.1973C8.07069 10.7198 7.96571 10.1767 7.62082 9.70702C7.31092 9.28575 6.83178 8.94894 6.27222 8.75849C5.03432 8.33756 3.81056 8.74941 3.48889 9.69625ZM6.79813 10.3117C6.88326 10.4278 7.0155 10.6539 6.94181 10.8692C6.82673 11.2104 6.18709 11.4187 5.45324 11.1687C5.09556 11.0472 4.78432 10.8335 4.5996 10.5825C4.51413 10.4661 4.38223 10.24 4.45558 10.0247C4.53566 9.78811 4.86878 9.61583 5.31023 9.61583C5.50472 9.61583 5.72006 9.64881 5.94416 9.72519C6.30183 9.84666 6.61274 10.0607 6.79813 10.3117ZM2.85765 27.2576C1.61976 26.8367 0.396327 27.2486 0.074319 28.1957C-0.0875264 28.6732 0.0177909 29.2163 0.36268 29.6853C0.672238 30.1069 1.15172 30.4434 1.71094 30.6339C2.03968 30.7456 2.36674 30.7981 2.67697 30.7981C3.53532 30.7981 4.25807 30.3916 4.49495 29.6961C4.6568 29.2186 4.55148 28.6759 4.20659 28.2058C3.89569 27.7846 3.41688 27.4478 2.85765 27.2576ZM3.52792 29.3677C3.4115 29.7096 2.77185 29.9165 2.03867 29.6672C1.681 29.5457 1.36942 29.332 1.18469 29.081C1.09956 28.9653 0.967328 28.7385 1.04102 28.5235C1.1211 28.2866 1.45421 28.1143 1.89567 28.1143C2.09015 28.1143 2.3055 28.1473 2.52959 28.224C2.88726 28.3451 3.19851 28.5591 3.38323 28.8102C3.4687 28.9262 3.6006 29.1534 3.52792 29.3677ZM16.8615 33.1924C16.3033 33.0027 15.7188 32.9781 15.2144 33.1241C14.6542 33.2856 14.2403 33.6531 14.0781 34.1305C13.9156 34.608 14.0209 35.1507 14.3658 35.6201C14.6757 36.0417 15.1549 36.3782 15.7141 36.5686C16.0327 36.6766 16.3591 36.7308 16.6747 36.7308C16.913 36.7308 17.1448 36.6992 17.3615 36.6366C17.9221 36.4748 18.3359 36.108 18.4981 35.6305C18.6603 35.1527 18.5546 34.61 18.2104 34.1403C17.8998 33.7193 17.4214 33.3825 16.8615 33.1924ZM17.5314 35.3028C17.4584 35.5178 17.2161 35.6167 17.0778 35.6564C16.7787 35.7443 16.4022 35.7237 16.0428 35.6019C15.6852 35.4805 15.3739 35.2668 15.1892 35.0158C15.1044 34.8997 14.9722 34.6733 15.0455 34.4579C15.1185 34.2429 15.3611 34.1436 15.4994 34.1039C15.6222 34.0683 15.7585 34.0508 15.9008 34.0508C16.1051 34.0508 16.3224 34.0871 16.5338 34.1591C16.8914 34.2806 17.2033 34.4943 17.3877 34.7453C17.4729 34.861 17.6044 35.0875 17.5314 35.3028Z" fill="white"/>
</mask>
<g mask="url(#mask0_863_10007)">
<path d="M-0.0859375 0V64.2805H60.0603V0H-0.0859375Z" fill="url(#paint0_linear_863_10007)"/>
</g>
<defs>
<linearGradient id="paint0_linear_863_10007" x1="30.0017" y1="0.000116203" x2="30.0017" y2="64.2806" gradientUnits="userSpaceOnUse">
<stop stop-color="#F9C621"/>
<stop offset="0.00390625" stop-color="#F9C522"/>
<stop offset="0.0078125" stop-color="#F9C423"/>
<stop offset="0.0117188" stop-color="#F9C423"/>
<stop offset="0.015625" stop-color="#F9C324"/>
<stop offset="0.0195312" stop-color="#F9C225"/>
<stop offset="0.0234375" stop-color="#F9C126"/>
<stop offset="0.0273438" stop-color="#F9C127"/>
<stop offset="0.03125" stop-color="#F9C027"/>
<stop offset="0.0351562" stop-color="#F9BF28"/>
<stop offset="0.0390625" stop-color="#F9BE29"/>
<stop offset="0.0429688" stop-color="#F9BD2A"/>
<stop offset="0.046875" stop-color="#F9BD2B"/>
<stop offset="0.0507813" stop-color="#F9BC2C"/>
<stop offset="0.0546875" stop-color="#F9BB2C"/>
<stop offset="0.0585938" stop-color="#F9BA2D"/>
<stop offset="0.0625" stop-color="#F9BA2E"/>
<stop offset="0.0664062" stop-color="#F9B92F"/>
<stop offset="0.0703125" stop-color="#F9B830"/>
<stop offset="0.0742188" stop-color="#F9B731"/>
<stop offset="0.078125" stop-color="#F9B731"/>
<stop offset="0.0820312" stop-color="#F9B632"/>
<stop offset="0.0859375" stop-color="#F9B533"/>
<stop offset="0.0898438" stop-color="#F9B434"/>
<stop offset="0.09375" stop-color="#F9B435"/>
<stop offset="0.0976563" stop-color="#F9B336"/>
<stop offset="0.101563" stop-color="#F9B236"/>
<stop offset="0.105469" stop-color="#FAB137"/>
<stop offset="0.109375" stop-color="#FAB038"/>
<stop offset="0.113281" stop-color="#FAB039"/>
<stop offset="0.117188" stop-color="#FAAF3A"/>
<stop offset="0.121094" stop-color="#FAAE3A"/>
<stop offset="0.125" stop-color="#FAAD3B"/>
<stop offset="0.128906" stop-color="#FAAD3C"/>
<stop offset="0.132812" stop-color="#FAAC3D"/>
<stop offset="0.136719" stop-color="#FAAB3E"/>
<stop offset="0.140625" stop-color="#FAAA3F"/>
<stop offset="0.144531" stop-color="#FAAA3F"/>
<stop offset="0.148438" stop-color="#FAA940"/>
<stop offset="0.152344" stop-color="#FAA841"/>
<stop offset="0.15625" stop-color="#FAA742"/>
<stop offset="0.160156" stop-color="#FAA743"/>
<stop offset="0.164062" stop-color="#FAA644"/>
<stop offset="0.167969" stop-color="#FAA544"/>
<stop offset="0.171875" stop-color="#FAA445"/>
<stop offset="0.175781" stop-color="#FAA346"/>
<stop offset="0.179688" stop-color="#FAA347"/>
<stop offset="0.183594" stop-color="#FAA248"/>
<stop offset="0.1875" stop-color="#FAA148"/>
<stop offset="0.191406" stop-color="#FAA049"/>
<stop offset="0.195313" stop-color="#FAA04A"/>
<stop offset="0.199219" stop-color="#FA9F4B"/>
<stop offset="0.203125" stop-color="#FA9E4C"/>
<stop offset="0.207031" stop-color="#FA9D4D"/>
<stop offset="0.210938" stop-color="#FA9D4D"/>
<stop offset="0.214844" stop-color="#FA9C4E"/>
<stop offset="0.21875" stop-color="#FA9B4F"/>
<stop offset="0.222656" stop-color="#FA9A50"/>
<stop offset="0.226563" stop-color="#FA9A51"/>
<stop offset="0.230469" stop-color="#FA9952"/>
<stop offset="0.234375" stop-color="#FA9852"/>
<stop offset="0.238281" stop-color="#FA9753"/>
<stop offset="0.242188" stop-color="#FA9654"/>
<stop offset="0.246094" stop-color="#FA9655"/>
<stop offset="0.25" stop-color="#FA9556"/>
<stop offset="0.253906" stop-color="#FA9457"/>
<stop offset="0.257812" stop-color="#FA9357"/>
<stop offset="0.261719" stop-color="#FA9358"/>
<stop offset="0.265625" stop-color="#FB9259"/>
<stop offset="0.269531" stop-color="#FB915A"/>
<stop offset="0.273438" stop-color="#FB905B"/>
<stop offset="0.277344" stop-color="#FB905B"/>
<stop offset="0.28125" stop-color="#FB8F5C"/>
<stop offset="0.285156" stop-color="#FB8E5D"/>
<stop offset="0.289062" stop-color="#FB8D5E"/>
<stop offset="0.292969" stop-color="#FB8C5F"/>
<stop offset="0.296875" stop-color="#FB8C60"/>
<stop offset="0.300781" stop-color="#FB8B60"/>
<stop offset="0.304688" stop-color="#FB8A61"/>
<stop offset="0.308594" stop-color="#FB8962"/>
<stop offset="0.3125" stop-color="#FB8963"/>
<stop offset="0.316406" stop-color="#FB8864"/>
<stop offset="0.320313" stop-color="#FB8765"/>
<stop offset="0.324219" stop-color="#FB8665"/>
<stop offset="0.328125" stop-color="#FB8666"/>
<stop offset="0.332031" stop-color="#FB8567"/>
<stop offset="0.335938" stop-color="#FB8468"/>
<stop offset="0.339844" stop-color="#FB8369"/>
<stop offset="0.34375" stop-color="#FB8369"/>
<stop offset="0.347656" stop-color="#FB826A"/>
<stop offset="0.351563" stop-color="#FB816B"/>
<stop offset="0.355469" stop-color="#FB806C"/>
<stop offset="0.359375" stop-color="#FB806D"/>
<stop offset="0.363281" stop-color="#FB7F6E"/>
<stop offset="0.367188" stop-color="#FB7E6E"/>
<stop offset="0.371094" stop-color="#FB7D6F"/>
<stop offset="0.375" stop-color="#FB7C70"/>
<stop offset="0.378906" stop-color="#FB7C71"/>
<stop offset="0.382813" stop-color="#FB7B72"/>
<stop offset="0.386719" stop-color="#FB7A73"/>
<stop offset="0.390625" stop-color="#FB7973"/>
<stop offset="0.394531" stop-color="#FB7974"/>
<stop offset="0.398438" stop-color="#FB7875"/>
<stop offset="0.402344" stop-color="#FB7776"/>
<stop offset="0.40625" stop-color="#FB7677"/>
<stop offset="0.410156" stop-color="#FB7677"/>
<stop offset="0.414062" stop-color="#FB7578"/>
<stop offset="0.417969" stop-color="#FB7479"/>
<stop offset="0.421875" stop-color="#FB737A"/>
<stop offset="0.425781" stop-color="#FB727B"/>
<stop offset="0.429688" stop-color="#FC727C"/>
<stop offset="0.433594" stop-color="#FC717C"/>
<stop offset="0.4375" stop-color="#FC707D"/>
<stop offset="0.441406" stop-color="#FC6F7E"/>
<stop offset="0.445312" stop-color="#FC6F7F"/>
<stop offset="0.449219" stop-color="#FC6E80"/>
<stop offset="0.453125" stop-color="#FC6D81"/>
<stop offset="0.457031" stop-color="#FC6C81"/>
<stop offset="0.460938" stop-color="#FC6C82"/>
<stop offset="0.464844" stop-color="#FC6B83"/>
<stop offset="0.46875" stop-color="#FC6A84"/>
<stop offset="0.472656" stop-color="#FC6985"/>
<stop offset="0.476563" stop-color="#FC6986"/>
<stop offset="0.480469" stop-color="#FC6886"/>
<stop offset="0.484375" stop-color="#FC6787"/>
<stop offset="0.488281" stop-color="#FC6688"/>
<stop offset="0.492188" stop-color="#FC6589"/>
<stop offset="0.496094" stop-color="#FC658A"/>
<stop offset="0.5" stop-color="#FC648A"/>
<stop offset="0.503906" stop-color="#FC638B"/>
<stop offset="0.507812" stop-color="#FC628C"/>
<stop offset="0.511719" stop-color="#FC628D"/>
<stop offset="0.515625" stop-color="#FC618E"/>
<stop offset="0.519531" stop-color="#FC608F"/>
<stop offset="0.523438" stop-color="#FC5F8F"/>
<stop offset="0.527344" stop-color="#FC5F90"/>
<stop offset="0.53125" stop-color="#FC5E91"/>
<stop offset="0.535156" stop-color="#FC5D92"/>
<stop offset="0.539062" stop-color="#FC5C93"/>
<stop offset="0.542969" stop-color="#FC5C94"/>
<stop offset="0.546875" stop-color="#FC5B94"/>
<stop offset="0.550781" stop-color="#FC5A95"/>
<stop offset="0.554687" stop-color="#FC5996"/>
<stop offset="0.558594" stop-color="#FC5897"/>
<stop offset="0.5625" stop-color="#FC5898"/>
<stop offset="0.566406" stop-color="#FC5798"/>
<stop offset="0.570312" stop-color="#FC5699"/>
<stop offset="0.574219" stop-color="#FC559A"/>
<stop offset="0.578125" stop-color="#FC559B"/>
<stop offset="0.582031" stop-color="#FC549C"/>
<stop offset="0.585937" stop-color="#FC539D"/>
<stop offset="0.589844" stop-color="#FC529D"/>
<stop offset="0.59375" stop-color="#FD529E"/>
<stop offset="0.597656" stop-color="#FD519F"/>
<stop offset="0.601562" stop-color="#FD50A0"/>
<stop offset="0.605469" stop-color="#FD4FA1"/>
<stop offset="0.609375" stop-color="#FD4FA2"/>
<stop offset="0.613281" stop-color="#FD4EA2"/>
<stop offset="0.617187" stop-color="#FD4DA3"/>
<stop offset="0.621094" stop-color="#FD4CA4"/>
<stop offset="0.625" stop-color="#FD4BA5"/>
<stop offset="0.628906" stop-color="#FD4BA6"/>
<stop offset="0.632812" stop-color="#FD4AA7"/>
<stop offset="0.636719" stop-color="#FD49A7"/>
<stop offset="0.640625" stop-color="#FD48A8"/>
<stop offset="0.644531" stop-color="#FD48A9"/>
<stop offset="0.648437" stop-color="#FD47AA"/>
<stop offset="0.652344" stop-color="#FD46AB"/>
<stop offset="0.65625" stop-color="#FD45AB"/>
<stop offset="0.660156" stop-color="#FD45AC"/>
<stop offset="0.664062" stop-color="#FD44AD"/>
<stop offset="0.667969" stop-color="#FD43AE"/>
<stop offset="0.671875" stop-color="#FD42AF"/>
<stop offset="0.675781" stop-color="#FD42B0"/>
<stop offset="0.679688" stop-color="#FD41B0"/>
<stop offset="0.683594" stop-color="#FD40B1"/>
<stop offset="0.6875" stop-color="#FD3FB2"/>
<stop offset="0.691406" stop-color="#FD3EB3"/>
<stop offset="0.695313" stop-color="#FD3EB4"/>
<stop offset="0.699219" stop-color="#FD3DB5"/>
<stop offset="0.703125" stop-color="#FD3CB5"/>
<stop offset="0.707031" stop-color="#FD3BB6"/>
<stop offset="0.710938" stop-color="#FD3BB7"/>
<stop offset="0.714844" stop-color="#FD3AB8"/>
<stop offset="0.71875" stop-color="#FD39B9"/>
<stop offset="0.722656" stop-color="#FD38B9"/>
<stop offset="0.726563" stop-color="#FD38BA"/>
<stop offset="0.730469" stop-color="#FD37BB"/>
<stop offset="0.734375" stop-color="#FD36BC"/>
<stop offset="0.738281" stop-color="#FD35BD"/>
<stop offset="0.742188" stop-color="#FD35BE"/>
<stop offset="0.746094" stop-color="#FD34BE"/>
<stop offset="0.75" stop-color="#FD33BF"/>
<stop offset="0.753906" stop-color="#FD32C0"/>
<stop offset="0.757813" stop-color="#FE31C1"/>
<stop offset="0.761719" stop-color="#FE31C2"/>
<stop offset="0.765625" stop-color="#FE30C3"/>
<stop offset="0.769531" stop-color="#FE2FC3"/>
<stop offset="0.773438" stop-color="#FE2EC4"/>
<stop offset="0.777344" stop-color="#FE2EC5"/>
<stop offset="0.78125" stop-color="#FE2DC6"/>
<stop offset="0.785156" stop-color="#FE2CC7"/>
<stop offset="0.789063" stop-color="#FE2BC7"/>
<stop offset="0.792969" stop-color="#FE2BC8"/>
<stop offset="0.796875" stop-color="#FE2AC9"/>
<stop offset="0.800781" stop-color="#FE29CA"/>
<stop offset="0.804688" stop-color="#FE28CB"/>
<stop offset="0.808594" stop-color="#FE28CC"/>
<stop offset="0.8125" stop-color="#FE27CC"/>
<stop offset="0.816406" stop-color="#FE26CD"/>
<stop offset="0.820313" stop-color="#FE25CE"/>
<stop offset="0.824219" stop-color="#FE24CF"/>
<stop offset="0.828125" stop-color="#FE24D0"/>
<stop offset="0.832031" stop-color="#FE23D1"/>
<stop offset="0.835938" stop-color="#FE22D1"/>
<stop offset="0.839844" stop-color="#FE21D2"/>
<stop offset="0.84375" stop-color="#FE21D3"/>
<stop offset="0.847656" stop-color="#FE20D4"/>
<stop offset="0.851563" stop-color="#FE1FD5"/>
<stop offset="0.855469" stop-color="#FE1ED6"/>
<stop offset="0.859375" stop-color="#FE1ED6"/>
<stop offset="0.863281" stop-color="#FE1DD7"/>
<stop offset="0.867188" stop-color="#FE1CD8"/>
<stop offset="0.871094" stop-color="#FE1BD9"/>
<stop offset="0.875" stop-color="#FE1BDA"/>
<stop offset="0.878906" stop-color="#FE1ADA"/>
<stop offset="0.882812" stop-color="#FE19DB"/>
<stop offset="0.886719" stop-color="#FE18DC"/>
<stop offset="0.890625" stop-color="#FE17DD"/>
<stop offset="0.894531" stop-color="#FE17DE"/>
<stop offset="0.898438" stop-color="#FE16DF"/>
<stop offset="0.902344" stop-color="#FE15DF"/>
<stop offset="0.90625" stop-color="#FE14E0"/>
<stop offset="0.910156" stop-color="#FE14E1"/>
<stop offset="0.914062" stop-color="#FE13E2"/>
<stop offset="0.917969" stop-color="#FE12E3"/>
<stop offset="0.921875" stop-color="#FF11E4"/>
<stop offset="0.925781" stop-color="#FF11E4"/>
<stop offset="0.929687" stop-color="#FF10E5"/>
<stop offset="0.933594" stop-color="#FF0FE6"/>
<stop offset="0.9375" stop-color="#FF0EE7"/>
<stop offset="0.941406" stop-color="#FF0EE8"/>
<stop offset="0.945312" stop-color="#FF0DE8"/>
<stop offset="0.949219" stop-color="#FF0CE9"/>
<stop offset="0.953125" stop-color="#FF0BEA"/>
<stop offset="0.957031" stop-color="#FF0AEB"/>
<stop offset="0.960937" stop-color="#FF0AEC"/>
<stop offset="0.964844" stop-color="#FF09ED"/>
<stop offset="0.96875" stop-color="#FF08ED"/>
<stop offset="0.972656" stop-color="#FF07EE"/>
<stop offset="0.976562" stop-color="#FF07EF"/>
<stop offset="0.980469" stop-color="#FF06F0"/>
<stop offset="0.984375" stop-color="#FF05F1"/>
<stop offset="0.988281" stop-color="#FF04F2"/>
<stop offset="0.992187" stop-color="#FF04F2"/>
<stop offset="0.996094" stop-color="#FF03F3"/>
<stop offset="1" stop-color="#FF02F4"/>
</linearGradient>
</defs>
</svg>
