<svg width="46" height="49" viewBox="0 0 46 49" fill="none" xmlns="http://www.w3.org/2000/svg">
<mask id="mask0_863_10000" style="mask-type:luminance" maskUnits="userSpaceOnUse" x="0" y="0" width="46" height="49">
<path d="M27.3999 18.7772C27.3909 18.7701 27.3863 18.7606 27.3767 18.754L27.3728 18.7512C27.2443 18.6433 27.1001 18.5502 26.943 18.4678L8.16338 6.0869C8.03532 5.62673 7.57694 4.32989 6.42754 4.11486C5.91917 4.01869 5.3511 4.09445 4.80089 4.16766C4.04202 4.26816 3.25534 4.37224 2.67197 4.02227C1.93734 3.58046 1.10705 1.49211 0.756818 0.279194C0.707842 0.10982 0.553262 -0.0003755 0.385164 -0.0003755C0.349452 -0.0003755 0.313485 0.00447106 0.277774 0.0146743C0.0729433 0.0738533 -0.0459249 0.288377 0.0132541 0.493463C0.114522 0.844201 1.03817 3.94294 2.27379 4.68497C3.08903 5.17498 4.05273 5.0477 4.90266 4.93418C5.41487 4.86633 5.89901 4.80231 6.2847 4.875C6.99536 5.00841 7.3614 6.01344 7.44506 6.39988L8.82378 15.3068V15.3071C8.82378 15.3076 8.82378 15.3076 8.82429 15.3079L10.9106 28.7841C10.9124 28.794 10.9185 28.8017 10.9208 28.8114C10.9683 29.0639 11.0547 29.3006 11.1881 29.5154C12.4447 31.5443 17.0772 30.8745 21.7332 27.991C21.8141 27.9408 21.8901 27.889 21.9699 27.8385C22.0903 28.5086 22.2559 29.1741 22.4898 29.7292C22.7719 30.3982 23.2045 31.0393 23.6614 31.7175C24.5657 33.058 25.5901 34.5773 26.0528 37.0355C26.5147 39.4955 25.811 41.6787 25.2967 43.2725C25.0228 44.1219 24.8064 44.7933 24.8154 45.3236C24.8406 46.8342 25.6079 47.9402 25.6408 47.9866C25.7329 48.117 25.8954 48.1769 26.0505 48.1394L28.1217 47.6239C28.2457 47.5931 28.3465 47.5028 28.3911 47.3834C28.4355 47.2637 28.4182 47.1301 28.3447 47.0255C28.3381 47.0163 27.682 46.0707 27.6606 44.7951C27.6537 44.3931 27.8626 43.7451 28.1049 42.995C28.6444 41.3221 29.3834 39.031 28.8844 36.3776C28.3926 33.762 27.2739 32.1027 26.3749 30.7696C25.9204 30.096 25.5281 29.5139 25.275 28.9137C24.9138 28.0566 24.7241 26.8712 24.6236 25.8624C27.4935 23.3462 28.7401 20.7574 27.796 19.2336C27.6889 19.0604 27.5534 18.9109 27.3999 18.7772ZM19.9318 19.3417C19.6602 18.8522 19.5189 18.3367 19.5189 17.7712C19.5189 16.7942 19.9313 15.8915 20.6537 15.2489L24.9258 18.065C23.5295 18.077 21.7873 18.5183 19.9318 19.3417ZM11.6088 9.28537L16.0579 12.2191C15.5643 12.945 14.7478 13.385 13.853 13.385C12.3809 13.385 11.1835 12.1877 11.1835 10.7164C11.1835 10.2062 11.3371 9.71161 11.6088 9.28537ZM10.9591 8.85683C10.6043 9.40883 10.4101 10.0544 10.4101 10.7161C10.4101 12.6139 11.9549 14.1582 13.8535 14.1582C15.0118 14.1582 16.0671 13.5861 16.7033 12.644L19.9872 14.8092C19.1931 15.5872 18.7452 16.6396 18.7452 17.7709C18.7452 18.4433 18.9074 19.0787 19.2227 19.6682C18.572 19.9868 17.9118 20.347 17.2507 20.7567C14.3649 22.5433 12.246 24.7002 11.3499 26.5649L10.5961 21.6966C11.2264 21.504 11.758 21.0724 12.1148 20.4449C12.5166 19.7379 12.6663 18.8428 12.536 17.9245C12.4062 17.0098 11.9975 16.1909 11.3851 15.6191C10.8481 15.1178 10.202 14.8505 9.53495 14.8446L8.34066 7.13095L10.9591 8.85683ZM9.65637 15.6259C10.0847 15.6619 10.5015 15.8522 10.8573 16.1848C11.3409 16.6361 11.6651 17.2929 11.77 18.0334C11.8763 18.7828 11.7603 19.504 11.4422 20.0628C11.267 20.371 10.9626 20.738 10.4759 20.9212L9.65637 15.6259ZM25.7332 31.2012C26.6369 32.5417 27.6613 34.0612 28.124 36.5194C28.5865 38.9795 27.8822 41.1627 27.3685 42.757C27.0943 43.6059 26.878 44.2772 26.8869 44.8076C26.9025 45.745 27.2037 46.5266 27.4381 46.9962L26.1395 47.3191C25.9449 46.9668 25.6043 46.2228 25.5893 45.3103C25.5822 44.9081 25.7913 44.2599 26.0334 43.51C26.5731 41.8374 27.3116 39.5457 26.8129 36.8926C26.3211 34.277 25.2023 32.618 24.3032 31.2852C23.8486 30.611 23.4563 30.0289 23.2033 29.4287C22.5834 27.9586 22.4658 25.519 22.4434 24.6709L23.7458 24.3467C23.7787 25.3604 23.9236 27.6987 24.5616 29.2136C24.8437 29.8827 25.2755 30.5232 25.7332 31.2012ZM24.5465 24.888C24.5118 24.2814 24.5098 23.8656 24.5098 23.8541C24.5098 23.735 24.4549 23.6225 24.3608 23.5493C24.2925 23.4955 24.208 23.4674 24.1228 23.4674C24.0917 23.4674 24.0603 23.4712 24.0297 23.4786L21.9579 23.9942C21.7853 24.037 21.6643 24.1921 21.6643 24.3696C21.6643 24.452 21.6689 25.642 21.8419 26.9995C21.6712 27.1118 21.5014 27.2243 21.3253 27.3332C16.7522 30.1651 12.7311 30.5368 11.8457 29.108C10.9603 27.6791 13.0847 24.2467 17.658 21.4145C21.5644 18.9956 25.06 18.3767 26.5507 19.1364L26.9025 19.368C26.9945 19.4504 27.0757 19.5394 27.1379 19.6397C27.8072 20.7207 26.7479 22.8223 24.5465 24.888ZM29.5375 24.0916C29.492 23.9508 29.3704 23.848 29.224 23.8266C29.2056 23.824 29.187 23.8227 29.1686 23.8227C29.0418 23.8227 28.9212 23.885 28.8487 23.9919L27.658 25.7433C27.5828 25.8545 27.5698 25.9963 27.6246 26.119C27.668 26.2164 28.7161 28.5122 30.9009 29.2621C31.8033 29.5723 32.9025 29.6264 34.0664 29.6835C35.6212 29.7603 37.2284 29.8394 38.3709 30.5508C39.8463 31.4696 39.792 33.4347 39.7517 34.8691C39.7405 35.2665 39.7308 35.6098 39.7555 35.8899C39.8775 37.2883 40.823 38.0553 40.8628 38.0869C40.9317 38.1418 41.0159 38.1714 41.1039 38.1714H43.9919C44.1621 38.1714 44.3123 38.0591 44.3618 37.8959C44.411 37.7326 44.347 37.5558 44.2052 37.4615C44.1957 37.4551 43.2333 36.8041 42.8724 35.5805C42.7775 35.2583 42.7527 34.755 42.7244 34.1729C42.642 32.4869 42.5183 29.9388 40.3621 28.2732C38.5462 26.8692 36.1823 26.8503 34.2833 26.8347C33.1946 26.8263 32.2541 26.8184 31.6781 26.5641C30.1298 25.8807 29.5433 24.1092 29.5375 24.0916ZM34.2771 27.6087C36.1533 27.6237 38.2796 27.6411 39.8894 28.8854C41.763 30.3329 41.8717 32.5738 41.9515 34.2104C41.9824 34.8425 42.0087 35.3882 42.1303 35.7993C42.3321 36.4842 42.6818 37.0169 43.0081 37.3977H41.2559C41.0575 37.1975 40.5993 36.6513 40.5266 35.8228C40.5057 35.5874 40.5149 35.2647 40.5254 34.8915C40.568 33.3608 40.6325 31.0479 38.7798 29.8947C37.4672 29.0772 35.7574 28.9927 34.1047 28.9116C32.9974 28.857 31.9515 28.8058 31.1526 28.5316C29.6234 28.0063 28.7095 26.5177 28.4263 25.9909L29.0936 25.0089C29.4492 25.6996 30.155 26.7381 31.3654 27.273C32.0883 27.5913 33.1025 27.599 34.2771 27.6087ZM40.0491 25.3129C40.1739 25.2553 40.2588 25.1354 40.2716 24.9984L40.4647 22.9797C40.4787 22.8351 40.4098 22.6945 40.2866 22.6165C40.2236 22.5762 40.1517 22.5565 40.0797 22.5565C40.0114 22.5565 39.9428 22.5746 39.882 22.6111C38.9714 23.1521 38.0018 23.2294 36.9188 22.8486C36.8116 22.8106 36.6922 22.8226 36.5923 22.881C36.4938 22.9394 36.4264 23.0389 36.4081 23.1521L36.0704 25.2606C36.0382 25.4611 36.1663 25.6522 36.364 25.6984C37.6172 25.992 38.8576 25.8631 40.0491 25.3129ZM37.1022 23.712C37.9883 23.9403 38.8344 23.8998 39.629 23.5921L39.5234 24.6987C38.6676 25.0538 37.7855 25.1589 36.8938 25.0147L37.1022 23.712ZM34.1384 40.8477C34.0945 40.8477 34.0501 40.8553 34.008 40.8704L32.5393 41.3956C32.3852 41.4509 32.2829 41.5968 32.2829 41.7598C32.2847 43.6732 32.7487 45.0797 33.7019 46.059C33.7807 46.1406 33.892 46.1796 34.0047 46.1756L36.0112 46.0414C36.1556 46.0317 36.2823 45.9419 36.3405 45.8093C36.3984 45.6766 36.3772 45.5231 36.2856 45.4108C35.2008 44.0813 34.6246 42.7062 34.5243 41.2084C34.5164 41.0875 34.4516 40.9773 34.3503 40.9107C34.2861 40.8694 34.2126 40.8477 34.1384 40.8477ZM35.2436 45.3177L34.1376 45.3914C33.4532 44.6129 33.0992 43.51 33.0604 42.031L33.8037 41.7649C33.9723 43.0044 34.4547 44.1949 35.2436 45.3177ZM20.7114 30.5355C20.6468 30.3952 20.5076 30.3102 20.3596 30.3102C20.3226 30.3102 20.2851 30.3156 20.2474 30.3268L18.0113 31.0043C17.8963 31.0393 17.8042 31.1255 17.7613 31.238C17.7193 31.3502 17.7312 31.4757 17.7942 31.5783C17.8098 31.603 19.3357 34.1041 19.478 36.989C19.5627 38.708 19.0791 40.515 18.6518 42.1091C18.3445 43.2587 18.0789 44.251 18.0812 45.018C18.0884 46.8232 18.898 48.4496 18.9329 48.518C18.999 48.6481 19.1322 48.7305 19.2783 48.7305H21.4151C21.5493 48.7305 21.674 48.6603 21.7444 48.5463C21.8151 48.4323 21.821 48.2894 21.761 48.1695C21.7529 48.1542 20.9981 46.6327 20.9922 45.0144C20.9897 44.3512 21.243 43.4044 21.5366 42.3083C21.9781 40.6592 22.4783 38.7904 22.3873 36.9508C22.2368 33.886 20.7736 30.6709 20.7114 30.5355ZM20.7892 42.1088C20.4815 43.2582 20.2157 44.251 20.2185 45.0175C20.2231 46.2057 20.5757 47.3168 20.8254 47.9568H19.5268C19.3209 47.4816 18.8597 46.2779 18.8554 45.0149C18.8531 44.3515 19.1061 43.4051 19.3997 42.309C19.8413 40.6599 20.3415 38.7909 20.2509 36.951C20.1328 34.563 19.163 32.4787 18.6975 31.6045L20.1415 31.1671C20.5055 32.0377 21.4968 34.602 21.6144 36.989C21.6996 38.7078 21.2159 40.5145 20.7892 42.1088ZM14.1501 42.6889L12.6901 42.2511C12.6536 42.2402 12.6166 42.2348 12.5791 42.2348C12.499 42.2348 12.4197 42.2596 12.3531 42.3075C12.2557 42.3777 12.1965 42.4889 12.1924 42.6088C12.158 43.6724 11.6764 44.5946 10.7188 45.4272C10.6216 45.5113 10.5729 45.6391 10.5889 45.7667C10.6048 45.8942 10.6833 46.0062 10.7986 46.0641L12.5345 46.94C12.6901 47.0194 12.8819 46.9834 12.9987 46.851C13.8902 45.8417 14.3698 44.5708 14.4256 43.0738C14.4325 42.8978 14.3193 42.7396 14.1501 42.6889ZM12.6079 46.1108L11.6373 45.6213C12.3556 44.8749 12.786 44.0398 12.9214 43.1284L13.6349 43.3421C13.5474 44.4173 13.2025 45.3458 12.6079 46.1108ZM11.2052 35.1055C11.243 35.204 11.3192 35.2831 11.4164 35.3236L13.0201 35.997C13.2107 36.0761 13.4313 35.993 13.5198 35.8055C14.0476 34.6869 14.2272 33.3817 14.053 31.9259C14.0341 31.7701 13.9226 31.6405 13.7711 31.5987L12.2748 31.1893C12.2411 31.1803 12.2067 31.1757 12.1728 31.1757C12.0814 31.1757 11.9914 31.2081 11.9202 31.2693C11.8225 31.3535 11.7735 31.4806 11.7886 31.6084C11.9465 32.9253 11.6868 33.8072 11.2167 34.802C11.1716 34.8974 11.1672 35.0076 11.2052 35.1055ZM12.6026 32.0815L13.3114 32.2756C13.4058 33.335 13.2898 34.2941 12.965 35.1356L12.0819 34.7647C12.4324 33.9464 12.6459 33.1276 12.6026 32.0815ZM33.4025 34.288C33.204 34.1954 33.0017 34.149 32.8073 34.149C32.6086 34.149 32.4189 34.1974 32.2515 34.2941C31.9207 34.4852 31.709 34.8471 31.6707 35.2871C31.6368 35.682 31.7416 36.1136 31.9651 36.5013C32.1888 36.8888 32.5102 37.1952 32.8696 37.3633C33.2706 37.5512 33.6892 37.5487 34.0208 37.3576C34.3514 37.1666 34.5631 36.8044 34.6013 36.3644C34.6355 35.969 34.5307 35.5374 34.307 35.1499C34.0833 34.7624 33.7619 34.4561 33.4025 34.288ZM33.6338 36.6873C33.5805 36.7179 33.5223 36.7294 33.4652 36.7294C33.3619 36.7294 33.2616 36.6919 33.1981 36.662C32.9839 36.562 32.7788 36.3623 32.6357 36.1141C32.4926 35.8659 32.4217 35.5889 32.4421 35.353C32.451 35.2448 32.4893 35.0497 32.639 34.9632C32.7869 34.8772 32.9757 34.9415 33.0747 34.9879C33.2892 35.0882 33.4938 35.2877 33.6369 35.5358C33.78 35.7843 33.8509 36.0611 33.8302 36.297C33.821 36.4064 33.783 36.6013 33.6338 36.6873ZM10.5951 39.5128C10.3446 39.5128 10.0854 39.5957 9.84641 39.7564C9.5171 39.9781 9.24722 40.3301 9.08626 40.7477C8.72864 41.6734 9.00259 42.6121 9.70994 42.8845C10.4183 43.1579 11.2509 42.6468 11.6083 41.7208C11.9654 40.7956 11.6912 39.8574 10.9843 39.5848C10.8604 39.5368 10.729 39.5128 10.5951 39.5128ZM10.8871 41.4425C10.7042 41.9157 10.3568 42.1828 10.1012 42.1828C10.0612 42.1828 10.0237 42.1761 9.98925 42.1629C9.73417 42.0644 9.59694 41.5736 9.80814 41.0262C9.80814 41.0262 9.80814 41.0262 9.80814 41.026C9.91145 40.7589 10.0829 40.5301 10.279 40.3977C10.3696 40.3375 10.5451 40.2447 10.706 40.3061C10.9606 40.4049 11.0981 40.8956 10.8871 41.4425ZM17.1262 34.7117C17.0208 34.2829 16.7558 33.9577 16.3992 33.8199C16.275 33.772 16.1434 33.748 16.0094 33.748C15.7592 33.748 15.5 33.8306 15.2608 33.9916C14.9317 34.2132 14.6616 34.5653 14.5006 34.9828C14.1433 35.9083 14.417 36.8467 15.1243 37.1194C15.4799 37.2561 15.8954 37.1944 16.2622 36.9472C16.5913 36.7255 16.8614 36.3735 17.0224 35.956C17.1841 35.5389 17.2208 35.0969 17.1262 34.7117ZM16.3013 35.6782C16.1979 35.945 16.0265 36.1741 15.8304 36.3065C15.7607 36.3531 15.6411 36.4189 15.5166 36.4189C15.4786 36.4189 15.4409 36.4128 15.4034 36.3983C15.1483 36.2998 15.011 35.809 15.2223 35.2616C15.2223 35.2616 15.2223 35.2616 15.2223 35.2614C15.3256 34.9946 15.497 34.7655 15.6931 34.6334C15.7837 34.5729 15.9592 34.4801 16.1201 34.5415C16.2811 34.6035 16.3487 34.7908 16.3747 34.8966C16.4313 35.1257 16.4046 35.4111 16.3013 35.6782ZM17.8914 23.4789C17.7672 23.4789 17.6437 23.5008 17.5249 23.5465C17.1614 23.6863 16.8997 24.0317 16.8076 24.4939C16.7272 24.8992 16.7775 25.369 16.9497 25.8167C17.3351 26.8174 18.1901 27.3885 18.8985 27.1166C19.6061 26.8444 19.8584 25.8471 19.4732 24.8461C19.1531 24.0138 18.5069 23.4789 17.8914 23.4789ZM18.6207 26.3947C18.5916 26.406 18.5603 26.4113 18.5271 26.4113C18.2646 26.4113 17.8794 26.0787 17.6721 25.5387C17.5532 25.2305 17.5149 24.9045 17.5667 24.6449C17.6063 24.4482 17.6917 24.3107 17.8024 24.2684C18.0618 24.1681 18.5174 24.5158 18.7511 25.1237C18.9855 25.7325 18.8753 26.2968 18.6207 26.3947ZM24.1264 20.2712C23.7961 20.0549 23.4303 19.9501 23.0887 19.9501C22.6357 19.9501 22.2248 20.135 21.9919 20.4901C21.7858 20.8049 21.749 21.213 21.8914 21.6089C22.0217 21.9716 22.2896 22.3002 22.6454 22.5333C23.001 22.7662 23.4048 22.8794 23.7948 22.8542C24.2147 22.8261 24.5736 22.6292 24.7799 22.3144C25.1881 21.6905 24.8947 20.7743 24.1264 20.2712ZM24.1323 21.8905C24.0336 22.0418 23.8458 22.0757 23.743 22.0823C23.7244 22.0836 23.7058 22.0844 23.6874 22.0844C23.4856 22.0844 23.2637 22.0134 23.0691 21.8859C22.8558 21.7466 22.6918 21.5505 22.6191 21.3472C22.5842 21.25 22.5406 21.0648 22.6393 20.914C22.8084 20.6567 23.305 20.6582 23.7019 20.9186C24.0996 21.1788 24.3009 21.6329 24.1323 21.8905ZM22.1115 42.1596C22.2169 42.5884 22.4816 42.9136 22.8385 43.0513C23.1951 43.1891 23.6099 43.1261 23.9764 42.8797C24.3055 42.658 24.5756 42.306 24.7366 41.8884C24.8978 41.4706 24.9348 41.0285 24.8399 40.6434C24.7345 40.2146 24.4695 39.8893 24.1129 39.7516C23.9887 39.7036 23.857 39.6797 23.7234 39.6797C23.4729 39.6797 23.2137 39.7623 22.9747 39.9233C22.6454 40.1449 22.3753 40.4967 22.2143 40.9145C22.0531 41.3321 22.0164 41.7741 22.1115 42.1596ZM22.9359 41.1933C23.0392 40.926 23.2107 40.6972 23.4068 40.5648C23.4974 40.5046 23.6729 40.4112 23.8338 40.4732C23.9948 40.5352 24.0626 40.7222 24.0884 40.8283C24.145 41.0576 24.118 41.3425 24.0149 41.6099C23.9116 41.8767 23.7402 42.1057 23.544 42.2379C23.4744 42.2843 23.3553 42.3501 23.2303 42.3501C23.1925 42.3501 23.1545 42.344 23.117 42.3297C22.9561 42.2677 22.8885 42.0805 22.8625 41.9746C22.8061 41.7453 22.8331 41.4601 22.9359 41.1933ZM16.3992 44.7775C16.275 44.7295 16.1439 44.7055 16.0094 44.7055C15.7595 44.7055 15.5 44.7882 15.2608 44.9494C14.9317 45.1711 14.6616 45.5231 14.5006 45.9406C14.3394 46.358 14.3027 46.8 14.3973 47.1852C14.5027 47.6142 14.7677 47.9395 15.1243 48.0772C15.4809 48.2149 15.8962 48.1517 16.2622 47.9055C16.5913 47.6839 16.8614 47.3316 17.0224 46.9143C17.1838 46.4965 17.2206 46.0544 17.1257 45.6692C17.0203 45.2404 16.7558 44.915 16.3992 44.7775ZM16.3013 46.6357C16.1979 46.9026 16.0265 47.1319 15.8304 47.2643C15.7607 47.3107 15.6416 47.3762 15.5166 47.3762C15.4786 47.3762 15.4409 47.3701 15.4034 47.3558C15.2424 47.2941 15.1746 47.1069 15.1488 47.0008C15.0922 46.7714 15.1192 46.4865 15.2223 46.2192C15.2223 46.2192 15.2223 46.2192 15.2223 46.2189C15.3256 45.9519 15.497 45.7231 15.6931 45.5907C15.7837 45.5297 15.9597 45.4369 16.1201 45.4986C16.2811 45.5606 16.3487 45.7478 16.3747 45.8537C16.4313 46.083 16.4046 46.3684 16.3013 46.6357ZM42.8395 41.3798C42.9624 41.0178 42.8828 40.6064 42.6211 40.25C42.3864 39.9307 42.0229 39.6753 41.599 39.5312C41.3498 39.4465 41.1018 39.4065 40.8667 39.4065C40.2159 39.4065 39.668 39.7151 39.489 40.2419C39.366 40.6038 39.4456 41.0155 39.7071 41.3716C39.942 41.691 40.3052 41.9463 40.7294 42.0907C41.6679 42.4098 42.5956 42.0976 42.8395 41.3798ZM40.3307 40.9132C40.2662 40.8252 40.1659 40.6538 40.2218 40.4906C40.3091 40.2319 40.794 40.074 41.3503 40.2635C41.6214 40.3556 41.8574 40.5176 41.9974 40.7079C42.0622 40.7961 42.1622 40.9676 42.1066 41.1308C42.0459 41.3101 41.7934 41.4407 41.4587 41.4407C41.3113 41.4407 41.148 41.4157 40.9781 41.3578C40.707 41.2658 40.4713 41.1035 40.3307 40.9132ZM43.318 28.0665C44.2564 28.3856 45.1839 28.0734 45.428 27.3554C45.5507 26.9934 45.4709 26.5817 45.2094 26.2261C44.9748 25.9065 44.6113 25.6514 44.1873 25.507C43.9381 25.4224 43.6902 25.3826 43.455 25.3826C42.8043 25.3826 42.2563 25.6907 42.0768 26.218C41.9541 26.5799 42.0339 26.9914 42.2954 27.3477C42.5311 27.6671 42.8941 27.9224 43.318 28.0665ZM42.8099 26.4669C42.8981 26.2078 43.383 26.0509 43.9389 26.2399C44.21 26.332 44.4462 26.494 44.5863 26.6843C44.6508 26.772 44.751 26.9439 44.6952 27.1069C44.6345 27.2865 44.3819 27.4171 44.0473 27.4171C43.8998 27.4171 43.7366 27.3921 43.5667 27.3339C43.2955 27.2421 43.0596 27.0799 42.9196 26.8896C42.8548 26.8016 42.7548 26.6294 42.8099 26.4669ZM32.7017 23.5674C33.1249 23.7113 33.568 23.7299 33.9504 23.6192C34.3751 23.4967 34.6888 23.2182 34.8118 22.8562C34.935 22.4943 34.8551 22.0828 34.5937 21.727C34.3588 21.4074 33.9955 21.1523 33.5716 21.0079C33.33 20.926 33.0826 20.885 32.8433 20.885C32.6627 20.885 32.487 20.9089 32.3227 20.9564C31.8977 21.0791 31.584 21.3571 31.461 21.7191C31.3381 22.0813 31.4182 22.4927 31.6791 22.8488C31.9146 23.1679 32.2773 23.4233 32.7017 23.5674ZM32.1939 21.9675C32.2492 21.8045 32.4329 21.7295 32.5377 21.6994C32.7645 21.6329 33.0499 21.6484 33.3224 21.7408C33.5935 21.8328 33.8295 21.9948 33.9695 22.1851C34.0338 22.2731 34.134 22.4448 34.0784 22.608C34.0231 22.771 33.8392 22.8463 33.7343 22.8764C33.6412 22.9034 33.5379 22.9167 33.43 22.9167C33.2752 22.9167 33.1104 22.8891 32.9502 22.8346C32.679 22.7425 32.4426 22.5805 32.3028 22.3902C32.2383 22.3025 32.1385 22.1308 32.1939 21.9675Z" fill="white"/>
</mask>
<g mask="url(#mask0_863_10000)">
<path d="M45.5469 48.7305V-0.0003755H-0.0497729V48.7305H45.5469Z" fill="url(#paint0_linear_863_10000)"/>
</g>
<defs>
<linearGradient id="paint0_linear_863_10000" x1="22.7375" y1="48.7304" x2="22.7375" y2="-0.000461934" gradientUnits="userSpaceOnUse">
<stop stop-color="#F9C621"/>
<stop offset="0.00390625" stop-color="#F9C522"/>
<stop offset="0.0078125" stop-color="#F9C423"/>
<stop offset="0.0117188" stop-color="#F9C423"/>
<stop offset="0.015625" stop-color="#F9C324"/>
<stop offset="0.0195312" stop-color="#F9C225"/>
<stop offset="0.0234375" stop-color="#F9C126"/>
<stop offset="0.0273438" stop-color="#F9C127"/>
<stop offset="0.03125" stop-color="#F9C027"/>
<stop offset="0.0351562" stop-color="#F9BF28"/>
<stop offset="0.0390625" stop-color="#F9BE29"/>
<stop offset="0.0429688" stop-color="#F9BD2A"/>
<stop offset="0.046875" stop-color="#F9BD2B"/>
<stop offset="0.0507813" stop-color="#F9BC2C"/>
<stop offset="0.0546875" stop-color="#F9BB2C"/>
<stop offset="0.0585938" stop-color="#F9BA2D"/>
<stop offset="0.0625" stop-color="#F9BA2E"/>
<stop offset="0.0664062" stop-color="#F9B92F"/>
<stop offset="0.0703125" stop-color="#F9B830"/>
<stop offset="0.0742188" stop-color="#F9B731"/>
<stop offset="0.078125" stop-color="#F9B731"/>
<stop offset="0.0820312" stop-color="#F9B632"/>
<stop offset="0.0859375" stop-color="#F9B533"/>
<stop offset="0.0898438" stop-color="#F9B434"/>
<stop offset="0.09375" stop-color="#F9B435"/>
<stop offset="0.0976563" stop-color="#F9B336"/>
<stop offset="0.101563" stop-color="#F9B236"/>
<stop offset="0.105469" stop-color="#FAB137"/>
<stop offset="0.109375" stop-color="#FAB038"/>
<stop offset="0.113281" stop-color="#FAB039"/>
<stop offset="0.117188" stop-color="#FAAF3A"/>
<stop offset="0.121094" stop-color="#FAAE3A"/>
<stop offset="0.125" stop-color="#FAAD3B"/>
<stop offset="0.128906" stop-color="#FAAD3C"/>
<stop offset="0.132812" stop-color="#FAAC3D"/>
<stop offset="0.136719" stop-color="#FAAB3E"/>
<stop offset="0.140625" stop-color="#FAAA3F"/>
<stop offset="0.144531" stop-color="#FAAA3F"/>
<stop offset="0.148438" stop-color="#FAA940"/>
<stop offset="0.152344" stop-color="#FAA841"/>
<stop offset="0.15625" stop-color="#FAA742"/>
<stop offset="0.160156" stop-color="#FAA743"/>
<stop offset="0.164062" stop-color="#FAA644"/>
<stop offset="0.167969" stop-color="#FAA544"/>
<stop offset="0.171875" stop-color="#FAA445"/>
<stop offset="0.175781" stop-color="#FAA346"/>
<stop offset="0.179688" stop-color="#FAA347"/>
<stop offset="0.183594" stop-color="#FAA248"/>
<stop offset="0.1875" stop-color="#FAA148"/>
<stop offset="0.191406" stop-color="#FAA049"/>
<stop offset="0.195313" stop-color="#FAA04A"/>
<stop offset="0.199219" stop-color="#FA9F4B"/>
<stop offset="0.203125" stop-color="#FA9E4C"/>
<stop offset="0.207031" stop-color="#FA9D4D"/>
<stop offset="0.210938" stop-color="#FA9D4D"/>
<stop offset="0.214844" stop-color="#FA9C4E"/>
<stop offset="0.21875" stop-color="#FA9B4F"/>
<stop offset="0.222656" stop-color="#FA9A50"/>
<stop offset="0.226563" stop-color="#FA9A51"/>
<stop offset="0.230469" stop-color="#FA9952"/>
<stop offset="0.234375" stop-color="#FA9852"/>
<stop offset="0.238281" stop-color="#FA9753"/>
<stop offset="0.242188" stop-color="#FA9654"/>
<stop offset="0.246094" stop-color="#FA9655"/>
<stop offset="0.25" stop-color="#FA9556"/>
<stop offset="0.253906" stop-color="#FA9457"/>
<stop offset="0.257812" stop-color="#FA9357"/>
<stop offset="0.261719" stop-color="#FA9358"/>
<stop offset="0.265625" stop-color="#FB9259"/>
<stop offset="0.269531" stop-color="#FB915A"/>
<stop offset="0.273438" stop-color="#FB905B"/>
<stop offset="0.277344" stop-color="#FB905B"/>
<stop offset="0.28125" stop-color="#FB8F5C"/>
<stop offset="0.285156" stop-color="#FB8E5D"/>
<stop offset="0.289062" stop-color="#FB8D5E"/>
<stop offset="0.292969" stop-color="#FB8C5F"/>
<stop offset="0.296875" stop-color="#FB8C60"/>
<stop offset="0.300781" stop-color="#FB8B60"/>
<stop offset="0.304688" stop-color="#FB8A61"/>
<stop offset="0.308594" stop-color="#FB8962"/>
<stop offset="0.3125" stop-color="#FB8963"/>
<stop offset="0.316406" stop-color="#FB8864"/>
<stop offset="0.320313" stop-color="#FB8765"/>
<stop offset="0.324219" stop-color="#FB8665"/>
<stop offset="0.328125" stop-color="#FB8666"/>
<stop offset="0.332031" stop-color="#FB8567"/>
<stop offset="0.335938" stop-color="#FB8468"/>
<stop offset="0.339844" stop-color="#FB8369"/>
<stop offset="0.34375" stop-color="#FB8369"/>
<stop offset="0.347656" stop-color="#FB826A"/>
<stop offset="0.351563" stop-color="#FB816B"/>
<stop offset="0.355469" stop-color="#FB806C"/>
<stop offset="0.359375" stop-color="#FB806D"/>
<stop offset="0.363281" stop-color="#FB7F6E"/>
<stop offset="0.367188" stop-color="#FB7E6E"/>
<stop offset="0.371094" stop-color="#FB7D6F"/>
<stop offset="0.375" stop-color="#FB7C70"/>
<stop offset="0.378906" stop-color="#FB7C71"/>
<stop offset="0.382813" stop-color="#FB7B72"/>
<stop offset="0.386719" stop-color="#FB7A73"/>
<stop offset="0.390625" stop-color="#FB7973"/>
<stop offset="0.394531" stop-color="#FB7974"/>
<stop offset="0.398438" stop-color="#FB7875"/>
<stop offset="0.402344" stop-color="#FB7776"/>
<stop offset="0.40625" stop-color="#FB7677"/>
<stop offset="0.410156" stop-color="#FB7677"/>
<stop offset="0.414062" stop-color="#FB7578"/>
<stop offset="0.417969" stop-color="#FB7479"/>
<stop offset="0.421875" stop-color="#FB737A"/>
<stop offset="0.425781" stop-color="#FB727B"/>
<stop offset="0.429688" stop-color="#FC727C"/>
<stop offset="0.433594" stop-color="#FC717C"/>
<stop offset="0.4375" stop-color="#FC707D"/>
<stop offset="0.441406" stop-color="#FC6F7E"/>
<stop offset="0.445312" stop-color="#FC6F7F"/>
<stop offset="0.449219" stop-color="#FC6E80"/>
<stop offset="0.453125" stop-color="#FC6D81"/>
<stop offset="0.457031" stop-color="#FC6C81"/>
<stop offset="0.460938" stop-color="#FC6C82"/>
<stop offset="0.464844" stop-color="#FC6B83"/>
<stop offset="0.46875" stop-color="#FC6A84"/>
<stop offset="0.472656" stop-color="#FC6985"/>
<stop offset="0.476563" stop-color="#FC6986"/>
<stop offset="0.480469" stop-color="#FC6886"/>
<stop offset="0.484375" stop-color="#FC6787"/>
<stop offset="0.488281" stop-color="#FC6688"/>
<stop offset="0.492188" stop-color="#FC6589"/>
<stop offset="0.496094" stop-color="#FC658A"/>
<stop offset="0.5" stop-color="#FC648A"/>
<stop offset="0.503906" stop-color="#FC638B"/>
<stop offset="0.507812" stop-color="#FC628C"/>
<stop offset="0.511719" stop-color="#FC628D"/>
<stop offset="0.515625" stop-color="#FC618E"/>
<stop offset="0.519531" stop-color="#FC608F"/>
<stop offset="0.523438" stop-color="#FC5F8F"/>
<stop offset="0.527344" stop-color="#FC5F90"/>
<stop offset="0.53125" stop-color="#FC5E91"/>
<stop offset="0.535156" stop-color="#FC5D92"/>
<stop offset="0.539062" stop-color="#FC5C93"/>
<stop offset="0.542969" stop-color="#FC5C94"/>
<stop offset="0.546875" stop-color="#FC5B94"/>
<stop offset="0.550781" stop-color="#FC5A95"/>
<stop offset="0.554687" stop-color="#FC5996"/>
<stop offset="0.558594" stop-color="#FC5897"/>
<stop offset="0.5625" stop-color="#FC5898"/>
<stop offset="0.566406" stop-color="#FC5798"/>
<stop offset="0.570312" stop-color="#FC5699"/>
<stop offset="0.574219" stop-color="#FC559A"/>
<stop offset="0.578125" stop-color="#FC559B"/>
<stop offset="0.582031" stop-color="#FC549C"/>
<stop offset="0.585937" stop-color="#FC539D"/>
<stop offset="0.589844" stop-color="#FC529D"/>
<stop offset="0.59375" stop-color="#FD529E"/>
<stop offset="0.597656" stop-color="#FD519F"/>
<stop offset="0.601562" stop-color="#FD50A0"/>
<stop offset="0.605469" stop-color="#FD4FA1"/>
<stop offset="0.609375" stop-color="#FD4FA2"/>
<stop offset="0.613281" stop-color="#FD4EA2"/>
<stop offset="0.617187" stop-color="#FD4DA3"/>
<stop offset="0.621094" stop-color="#FD4CA4"/>
<stop offset="0.625" stop-color="#FD4BA5"/>
<stop offset="0.628906" stop-color="#FD4BA6"/>
<stop offset="0.632812" stop-color="#FD4AA7"/>
<stop offset="0.636719" stop-color="#FD49A7"/>
<stop offset="0.640625" stop-color="#FD48A8"/>
<stop offset="0.644531" stop-color="#FD48A9"/>
<stop offset="0.648437" stop-color="#FD47AA"/>
<stop offset="0.652344" stop-color="#FD46AB"/>
<stop offset="0.65625" stop-color="#FD45AB"/>
<stop offset="0.660156" stop-color="#FD45AC"/>
<stop offset="0.664062" stop-color="#FD44AD"/>
<stop offset="0.667969" stop-color="#FD43AE"/>
<stop offset="0.671875" stop-color="#FD42AF"/>
<stop offset="0.675781" stop-color="#FD42B0"/>
<stop offset="0.679688" stop-color="#FD41B0"/>
<stop offset="0.683594" stop-color="#FD40B1"/>
<stop offset="0.6875" stop-color="#FD3FB2"/>
<stop offset="0.691406" stop-color="#FD3EB3"/>
<stop offset="0.695313" stop-color="#FD3EB4"/>
<stop offset="0.699219" stop-color="#FD3DB5"/>
<stop offset="0.703125" stop-color="#FD3CB5"/>
<stop offset="0.707031" stop-color="#FD3BB6"/>
<stop offset="0.710938" stop-color="#FD3BB7"/>
<stop offset="0.714844" stop-color="#FD3AB8"/>
<stop offset="0.71875" stop-color="#FD39B9"/>
<stop offset="0.722656" stop-color="#FD38B9"/>
<stop offset="0.726563" stop-color="#FD38BA"/>
<stop offset="0.730469" stop-color="#FD37BB"/>
<stop offset="0.734375" stop-color="#FD36BC"/>
<stop offset="0.738281" stop-color="#FD35BD"/>
<stop offset="0.742188" stop-color="#FD35BE"/>
<stop offset="0.746094" stop-color="#FD34BE"/>
<stop offset="0.75" stop-color="#FD33BF"/>
<stop offset="0.753906" stop-color="#FD32C0"/>
<stop offset="0.757813" stop-color="#FE31C1"/>
<stop offset="0.761719" stop-color="#FE31C2"/>
<stop offset="0.765625" stop-color="#FE30C3"/>
<stop offset="0.769531" stop-color="#FE2FC3"/>
<stop offset="0.773438" stop-color="#FE2EC4"/>
<stop offset="0.777344" stop-color="#FE2EC5"/>
<stop offset="0.78125" stop-color="#FE2DC6"/>
<stop offset="0.785156" stop-color="#FE2CC7"/>
<stop offset="0.789063" stop-color="#FE2BC7"/>
<stop offset="0.792969" stop-color="#FE2BC8"/>
<stop offset="0.796875" stop-color="#FE2AC9"/>
<stop offset="0.800781" stop-color="#FE29CA"/>
<stop offset="0.804688" stop-color="#FE28CB"/>
<stop offset="0.808594" stop-color="#FE28CC"/>
<stop offset="0.8125" stop-color="#FE27CC"/>
<stop offset="0.816406" stop-color="#FE26CD"/>
<stop offset="0.820313" stop-color="#FE25CE"/>
<stop offset="0.824219" stop-color="#FE24CF"/>
<stop offset="0.828125" stop-color="#FE24D0"/>
<stop offset="0.832031" stop-color="#FE23D1"/>
<stop offset="0.835938" stop-color="#FE22D1"/>
<stop offset="0.839844" stop-color="#FE21D2"/>
<stop offset="0.84375" stop-color="#FE21D3"/>
<stop offset="0.847656" stop-color="#FE20D4"/>
<stop offset="0.851563" stop-color="#FE1FD5"/>
<stop offset="0.855469" stop-color="#FE1ED6"/>
<stop offset="0.859375" stop-color="#FE1ED6"/>
<stop offset="0.863281" stop-color="#FE1DD7"/>
<stop offset="0.867188" stop-color="#FE1CD8"/>
<stop offset="0.871094" stop-color="#FE1BD9"/>
<stop offset="0.875" stop-color="#FE1BDA"/>
<stop offset="0.878906" stop-color="#FE1ADA"/>
<stop offset="0.882812" stop-color="#FE19DB"/>
<stop offset="0.886719" stop-color="#FE18DC"/>
<stop offset="0.890625" stop-color="#FE17DD"/>
<stop offset="0.894531" stop-color="#FE17DE"/>
<stop offset="0.898438" stop-color="#FE16DF"/>
<stop offset="0.902344" stop-color="#FE15DF"/>
<stop offset="0.90625" stop-color="#FE14E0"/>
<stop offset="0.910156" stop-color="#FE14E1"/>
<stop offset="0.914062" stop-color="#FE13E2"/>
<stop offset="0.917969" stop-color="#FE12E3"/>
<stop offset="0.921875" stop-color="#FF11E4"/>
<stop offset="0.925781" stop-color="#FF11E4"/>
<stop offset="0.929687" stop-color="#FF10E5"/>
<stop offset="0.933594" stop-color="#FF0FE6"/>
<stop offset="0.9375" stop-color="#FF0EE7"/>
<stop offset="0.941406" stop-color="#FF0EE8"/>
<stop offset="0.945312" stop-color="#FF0DE8"/>
<stop offset="0.949219" stop-color="#FF0CE9"/>
<stop offset="0.953125" stop-color="#FF0BEA"/>
<stop offset="0.957031" stop-color="#FF0AEB"/>
<stop offset="0.960937" stop-color="#FF0AEC"/>
<stop offset="0.964844" stop-color="#FF09ED"/>
<stop offset="0.96875" stop-color="#FF08ED"/>
<stop offset="0.972656" stop-color="#FF07EE"/>
<stop offset="0.976562" stop-color="#FF07EF"/>
<stop offset="0.980469" stop-color="#FF06F0"/>
<stop offset="0.984375" stop-color="#FF05F1"/>
<stop offset="0.988281" stop-color="#FF04F2"/>
<stop offset="0.992187" stop-color="#FF04F2"/>
<stop offset="0.996094" stop-color="#FF03F3"/>
<stop offset="1" stop-color="#FF02F4"/>
</linearGradient>
</defs>
</svg>
