<svg width="78" height="78" viewBox="0 0 78 78" fill="none" xmlns="http://www.w3.org/2000/svg">
<path fill-rule="evenodd" clip-rule="evenodd" d="M75.7254 33.5744C73.8686 32.3712 71.9809 31.2065 70.0782 30.0807C69.0042 26.3584 67.105 23.7652 66.4912 23.3928C57.6671 18.005 40.9899 10.1132 38.3622 10.4435C34.0383 10.9828 16.54 21.5023 13.4247 23.8312C13.0413 24.1263 12.0017 25.7526 10.298 28.7418C7.7637 30.2244 5.25076 31.7358 2.75959 33.2757C2.16084 33.6636 2.37572 35.0301 2.97803 35.3989C4.82732 36.5347 6.68175 37.663 8.54093 38.7836C9.38108 42.7505 10.3134 47.5214 10.7242 47.8705C12.4006 49.2682 14.177 50.6343 16.2179 51.4495C17.204 51.8378 18.301 51.6633 19.402 51.3798C19.5785 52.5441 19.4712 53.9726 20.3422 54.7414C21.1555 55.4712 22.763 55.1025 23.5916 55.1101C23.7871 56.0766 23.7951 57.0896 24.5315 57.5208C25.3717 58.0176 26.4497 57.6217 27.4279 57.381C27.7006 58.627 27.6852 59.8145 28.5791 60.3814C29.542 60.9832 30.2171 60.6533 31.491 60.3466C31.5753 61.0957 31.7328 62.2332 32.4154 62.718C33.2211 63.2926 34.5101 62.718 35.3811 62.6408C35.4883 63.2149 35.4654 64.143 36.0333 64.3291C37.0653 64.6747 37.9514 64.2206 39.2827 63.9604C39.3365 64.5425 39.2059 65.4045 39.72 65.7188C41.2317 66.6465 43.2495 68.234 44.7807 67.3295C53.6812 62.0622 61.2275 54.7958 69.2919 48.2317C70.0323 47.6263 70.2049 43.9969 70.4197 40.5733C71.8852 39.4515 73.3431 38.318 74.778 37.1573C75.7254 36.3886 76.7535 34.2342 75.7254 33.5744Z" fill="white"/>
<path d="M70.6077 32.4515C70.4783 31.65 70.3006 30.8592 70.0743 30.0797C69.0002 26.3574 67.1011 23.7642 66.4873 23.3918C65.4643 24.3363 64.3887 25.2796 63.2608 26.2213C60.5528 28.439 57.7173 30.4757 54.7552 32.3314C52.5917 33.6975 50.2359 35.0484 47.6577 36.4304C46.1499 37.23 44.5887 38.0335 42.912 38.8331C43.1997 42.8469 43.3532 46.8994 44.6425 50.6141C42.5245 51.0021 29.1814 43.0098 21.3589 38.9688C19.4403 37.9715 17.2001 37.001 15.0706 35.976C12.5387 34.7381 10.1215 33.4533 8.4875 31.939L12.2854 35.9296L18.6964 42.6607L8.01539 36.372L2.75959 33.2667C2.16084 33.655 2.37572 35.0211 2.97803 35.3899C4.82732 36.5261 6.68175 37.6544 8.54093 38.775C8.54093 38.8215 8.56032 38.8643 8.57179 38.9108C8.83259 40.1491 9.10485 41.4612 9.36604 42.6839L16.5978 46.383L17.6065 51.6739C18.1613 51.6447 18.7074 51.5594 19.2449 51.4177L19.1451 49.7913L21.4471 51.6235L21.5928 55.1788C22.3178 55.2332 23.1005 55.1015 23.5956 55.1091L23.2541 52.4538L24.892 54.1194L24.6772 57.5818C24.898 57.6455 25.1224 57.6899 25.3503 57.7144C25.5782 57.7388 25.807 57.7432 26.0357 57.7276C26.2649 57.7124 26.4904 57.6767 26.7132 57.6219C26.9364 57.5666 27.1529 57.4926 27.363 57.3993L27.4628 55.1167L29.0817 56.8636L28.9626 60.5782C29.891 60.792 30.5701 60.5782 31.4945 60.3492C31.5179 60.5706 31.9591 58.1135 31.9591 58.1135L32.7759 59.1925L32.5729 62.8219C33.0027 62.9352 33.44 62.9805 33.8836 62.9573C34.3276 62.934 34.7578 62.844 35.1741 62.6862L35.9027 60.5318L36.6395 64.4603C37.505 64.4767 38.3416 64.3265 39.1485 64.0099L39.674 62.197L40.3341 63.0277L41.0322 66.5678C41.9262 67.3013 43.6639 68.012 44.7842 67.3442C53.6848 62.0768 61.2315 54.81 69.2954 48.2463C70.0359 47.6405 70.2088 44.0111 70.4237 40.5875C71.8891 39.4657 73.347 38.3322 74.7816 37.1719C74.867 37.1019 74.9478 37.027 75.0234 36.9465L75.0542 36.9157C75.3202 36.6218 75.5438 36.2983 75.7254 35.9452C75.8552 35.705 75.9585 35.4539 76.0365 35.1921C76.1112 34.9547 76.1484 34.7116 76.1477 34.4622L70.6077 32.4515Z" fill="#E4E4E4"/>
<path fill-rule="evenodd" clip-rule="evenodd" d="M50.0228 54.9401L49.6967 57.4865L55.2406 55.8214L55.9387 56.7026L60.9531 53.1196L61.3789 54.8857L69.5545 47.8599L70.4291 40.5583L50.0228 54.9401ZM31.1323 52.9139L31.4584 54.1638L33.1422 54.6607L32.6935 53.5817L31.1323 52.9139ZM19.9297 45.4881L20.6124 47.763L22.7838 48.6363L23.6049 49.9639L25.1665 50.5032L25.2508 48.5081L19.9297 45.4881ZM28.4618 47.5997L32.682 46.9711L35.5135 49.1291L33.2997 49.6728L31.6539 48.4305L29.6894 49.0983L28.4618 47.5997ZM40.7653 49.3117L37.5812 50.9228L42.7337 53.2942L42.9407 51.3536L44.7441 51.0157L40.7653 49.3117ZM51.4617 37.453L51.0973 40.6087L52.8579 41.0632L53.7174 38.2762L51.4617 37.453ZM58.5629 41.3699L57.7955 38.9047L61.5325 35.6673L61.8586 32.9504L64.402 30.233L66.8342 32.9776L66.708 35.3066L58.5629 41.3699ZM47.6405 60.5106L47.4794 62.882L48.914 62.715L49.0371 62.5909L49.785 60.0561L47.9282 59.2218L46.4932 59.928L47.6405 60.5106Z" fill="#996205"/>
<path fill-rule="evenodd" clip-rule="evenodd" d="M56.0533 17.6571L52.0825 19.6754L53.6171 21.7485L56.1261 21.003L58.4281 21.7485L60.2006 19.8075L56.0533 17.6571ZM23.8651 30.6453L21.947 35.3032L22.484 35.7693L25.6032 34.0649L26.7156 34.8104L24.7975 39.2938L25.6567 40.0469C25.8909 39.9692 25.7065 40.0469 25.9448 39.7089L28.8412 33.3354L23.8651 30.6453ZM25.7528 24.3686L22.8331 25.1449L23.4089 26.3092L26.2016 26.8489L27.3524 25.2963L25.7528 24.3686ZM19.7447 19.7647L24.8513 21.7445L26.5431 19.687L30.4332 19.2562L32.4895 17.3388L36.8442 19.0892L38.5664 17.0982L33.725 14.1054L33.9937 11.9898L25.5265 16.3955L19.7447 19.7647ZM44.6513 21.5816L43.4657 22.5789L45.476 23.7864H45.5987L49.5426 23.3709L49.2933 22.2878L45.6755 22.8704L45.476 22.1637L46.186 21.1508L44.6513 21.5816ZM47.448 26.0261L46.9953 26.6547L47.8508 27.3614L48.1385 27.3145L49.0863 26.7324L47.9735 25.9873L47.448 26.0261Z" fill="#D5B250"/>
<path d="M34.9407 62.297L34.5573 57.6158L31.4076 55.8341L31.8947 60.3095C31.9561 60.9385 32.0981 61.9983 32.6387 62.3827C33.1797 62.7666 34.2846 62.4175 34.9407 62.297ZM31.0467 60.0457L30.5326 55.3297L27.4059 53.5516C27.521 54.5493 27.7897 59.3742 28.7949 60.0148C29.5619 60.4961 30.2524 60.2359 31.0467 60.0148V60.0457ZM26.9761 57.0761L26.5198 53.0587L23.7037 51.4556C23.7651 52.2087 23.8727 56.6493 24.7433 57.1578C25.3651 57.5457 26.3279 57.2354 26.9761 57.0645V57.0761ZM23.1398 54.7199L22.8292 50.982L19.4606 49.0722C19.6257 50.1784 19.8789 53.7922 20.6114 54.4368C21.1026 54.8752 22.0887 54.7976 22.8636 54.7435L23.1513 54.7199H23.1398ZM18.9197 51.0753L18.5358 48.5637L16.2073 47.2437L17.0399 51.2498C17.6723 51.2971 18.2948 51.239 18.9082 51.0753H18.9197ZM16.1574 50.9896L15.3363 46.0638C15.9655 45.7263 24.3405 50.9003 27.2717 52.5503C29.3933 53.7458 39.1185 58.9202 39.1648 59.4868C39.3449 61.0666 39.652 62.7938 39.6789 64.3777C39.7019 65.4375 39.7786 65.2822 40.5381 65.7674C41.7811 66.571 43.2544 67.5143 44.3518 67.0714L44.5283 58.7104C44.2528 58.7733 43.9746 58.7893 43.6941 58.7577C43.4135 58.7264 43.1452 58.65 42.8899 58.5279C36.0227 54.9541 29.2259 51.2627 22.4991 47.4535C18.0079 44.9019 13.5447 42.2975 9.10971 39.6398L9.35546 40.5594C10.0611 43.9446 10.7671 47.3294 11.0013 47.5468C12.5894 48.882 14.2812 50.1744 16.1918 50.986L16.1574 50.9896ZM38.8233 63.6402L38.3896 59.7934L35.4433 58.1011C35.4971 58.722 35.731 63.78 36.1723 63.9237C37.0009 64.2068 38.0022 63.8148 38.8577 63.6246L38.8233 63.6402ZM45.2034 66.567C51.4529 62.7822 57.0388 58.0274 62.644 53.2565C64.7735 51.44 66.9065 49.6195 69.0395 47.8923C69.5765 47.4495 69.7685 44.4763 69.9564 41.4371C66.9524 43.7192 63.887 45.9357 60.7987 48.0941C57.3458 50.4967 48.6871 56.9948 45.3839 58.4234L45.2034 66.567ZM70.8271 40.7768C70.7313 42.221 70.5627 47.7097 69.5536 48.5405C67.3707 50.3142 65.2681 52.1038 63.1735 53.8931C57.3419 58.8502 51.5376 63.7992 44.9846 67.6696C43.4503 68.5817 41.6394 67.417 40.1277 66.4545C39.2107 65.8643 38.923 65.8411 38.8922 64.4594C37.8755 64.692 36.9511 65.0532 35.9036 64.7C35.2209 64.4746 35.1366 63.7411 35.0365 63.1005C34.1121 63.2715 33.0265 63.6402 32.1785 63.0425C31.5033 62.5648 31.2616 61.6372 31.1464 60.8532C30.0838 61.1287 29.3778 61.3385 28.3687 60.7135C27.36 60.0885 27.2947 58.9202 27.1107 57.868C26.1629 58.1203 25.1921 58.3729 24.3251 57.868C23.5581 57.4216 23.4236 56.5872 23.2819 55.702L23.251 55.5274L22.9249 55.5507C22.004 55.6207 20.8224 55.7176 20.0705 55.0498C19.1765 54.2543 19.169 52.9851 19.0538 51.8748C18.0601 52.1038 17.036 52.2204 16.0652 51.8284C13.9935 50.9896 12.1676 49.6079 10.4604 48.1754C10.0037 47.7874 9.26326 44.2665 8.54182 40.7304C8.43458 40.2143 8.32694 39.6938 8.18526 39.0536C6.37832 37.959 4.56743 36.8528 2.768 35.7461C1.94685 35.2341 1.65163 33.4756 2.54956 32.9167C5.02015 31.3949 7.4947 29.8851 9.99616 28.4177C10.5522 27.428 11.0433 26.5892 11.4537 25.9061C12.3017 24.5048 12.8657 23.7053 13.1688 23.4763C15.064 22.0633 22.1651 17.6884 28.4609 14.3117C32.6811 12.0524 36.5177 10.2279 38.3093 10.0105C39.6635 9.84751 44.2671 11.606 49.6384 14.0827C55.4776 16.7604 61.1647 19.7364 66.6991 23.0106C67.1902 23.3093 68.3909 24.8231 69.4155 27.086C69.8132 27.9609 70.1492 28.8585 70.4246 29.7802C72.2889 30.8852 74.1291 32.0263 75.9451 33.2038C77.3647 34.1238 76.0678 36.6354 75.0437 37.4738C73.6546 38.5956 72.2505 39.6938 70.8235 40.7885L70.8271 40.7768ZM9.17105 29.8654C7.29367 30.9833 5.42301 32.1143 3.55829 33.2582C7.84374 35.7345 12.1367 38.3045 16.4297 40.8313C25.3801 46.1375 34.3345 51.4476 43.5116 56.3194C44.279 56.7346 45.4298 56.5288 46.1358 56.0515C50.9388 52.7521 55.6501 49.3128 60.3076 45.7843C64.965 42.2558 69.588 38.6461 74.192 35.0671C74.4212 34.8937 74.6202 34.6904 74.788 34.4557C74.9562 34.2215 75.0864 33.9673 75.1778 33.693C73.7084 32.7497 72.2351 31.8297 70.7428 30.9328C70.854 31.4065 70.9537 31.8841 71.0305 32.3886C71.1496 33.1261 48.1576 50.4579 44.7432 51.0208C43.0973 51.3351 35.919 47.3838 29.0711 43.6067C26.2665 42.054 23.5197 40.5518 21.1908 39.3367C19.9632 38.7001 18.6624 38.0987 17.3545 37.4854C16.2496 36.9729 7.43336 33.0564 8.14688 31.7444C8.53035 31.0766 8.86039 30.4556 9.18648 29.8734L9.17105 29.8654ZM2.8523 33.8015C2.73753 34.1394 2.8523 34.8457 3.1863 35.0439C9.69303 39.0444 16.2749 42.9341 22.9324 46.712C29.6667 50.5292 36.4536 54.2178 43.2928 57.7788C43.9988 58.1475 45.023 57.7788 45.6292 57.3636L46.3427 56.8899C46.1013 57.0305 45.8465 57.1406 45.5794 57.2202C45.3118 57.2999 45.0392 57.3468 44.761 57.3616C44.4824 57.376 44.2061 57.3576 43.9323 57.3059C43.6584 57.2547 43.3941 57.1714 43.1392 57.0569C33.932 52.1699 24.9737 46.8557 16.0118 41.53C11.6571 38.9527 7.28733 36.3711 2.8523 33.8015ZM47.0756 56.4047C51.5297 53.4431 55.9762 50.4735 60.3305 47.4263C61.6582 46.4986 74.5256 37.1943 74.5256 36.8255C75.1204 36.3439 75.7647 35.1912 75.7417 34.4305C75.4742 34.941 75.1149 35.373 74.6637 35.7269C70.0601 39.3367 65.4177 42.9585 60.7947 46.4522C56.2833 49.8601 51.7291 53.1985 47.0717 56.4047H47.0756ZM9.00998 31.8453C11.1355 33.7006 14.4577 35.2377 17.6573 36.7247C19.0154 37.3572 20.3431 37.9782 21.5438 38.5916C23.8035 39.7563 26.5966 41.3089 29.4471 42.8616C35.5854 46.2307 41.9425 49.74 44.0716 50.1552C43.0625 46.9606 42.8286 43.5562 42.5947 40.1675C42.5718 39.822 42.5484 39.4764 42.5179 39.1001C36.8973 36.8952 31.4341 34.6323 26.4585 32.1984C21.4825 29.7645 17.0743 27.2182 13.4411 24.3691C12.9713 25.0009 12.5392 25.6583 12.1442 26.3409C11.3773 27.6374 10.3223 29.4735 9.00998 31.8453ZM44.9078 50.0892C50.5285 47.9464 63.9638 36.8488 70.1599 32.2685C69.8698 30.5929 69.3723 28.9834 68.6671 27.4396C68.1325 26.154 67.4162 24.9817 66.5191 23.9227C63.5031 26.6877 60.2893 29.1924 56.8777 31.4377C52.5368 34.2916 48.0238 36.8332 43.3387 39.0612C43.3656 39.4028 43.3886 39.7639 43.4119 40.117C43.6497 43.5254 43.8836 46.941 44.9078 50.0816V50.0892ZM65.8051 23.4566C60.4488 20.3085 54.95 17.4398 49.3084 14.851C44.0372 12.4251 39.6061 10.6975 38.4205 10.8452C36.7516 11.0586 32.9767 12.8403 28.8293 15.0568C22.9902 18.1893 16.4605 22.1798 14.0932 23.8258C17.6497 26.5856 22.0155 29.1047 26.815 31.4533C31.8025 33.8868 37.2697 36.1501 42.8899 38.3626C47.5751 36.1373 52.0881 33.5989 56.4289 30.7467C59.742 28.5606 62.8672 26.1283 65.8051 23.449V23.4566Z" fill="#5B5B5B"/>
</svg>
