<svg width="26" height="26" viewBox="0 0 26 26" fill="none" xmlns="http://www.w3.org/2000/svg">
<circle cx="12.9472" cy="12.9472" r="11.9472" fill="#F9E6E0" stroke="#F47D61" stroke-width="2"/>
<path d="M12.5235 15.5929L12.4042 18.613L12.3883 18.7936L9.04696 18.5556C8.85603 18.5392 8.67835 18.453 8.51394 18.2971C8.34953 18.1411 8.22489 17.962 8.14003 17.7595C8.08169 17.6118 8.04324 17.4613 8.02468 17.3081C8.00611 17.155 8.01672 16.9771 8.0565 16.7747C8.09628 16.5723 8.1281 16.4218 8.15196 16.3233C8.17583 16.2248 8.23285 16.0498 8.32301 15.7981C8.41317 15.5464 8.46356 15.4014 8.47416 15.3631C8.88785 15.4288 10.2376 15.5054 12.5235 15.5929ZM9.44473 10.7837L10.8767 13.8941L9.70727 13.1391C9.37314 13.533 9.07746 13.9283 8.82023 14.325C8.563 14.7216 8.37074 15.0636 8.24345 15.3508C8.11616 15.6381 8.01142 15.8966 7.92921 16.1264C7.847 16.3562 7.79794 16.5285 7.78203 16.6434L7.75021 16.8157L6.23867 13.8859C6.1485 13.7436 6.10077 13.5904 6.09547 13.4263C6.09016 13.2622 6.10607 13.1336 6.1432 13.0406L6.20684 12.8929C6.39247 12.5482 6.69478 12.0339 7.11377 11.35L6 10.6442L9.44473 10.7837ZM19.238 15.0266L17.7423 17.9729C17.6787 18.1316 17.5819 18.2588 17.452 18.3545C17.322 18.4503 17.2067 18.5064 17.1059 18.5228L16.9627 18.5556C16.5861 18.5939 16.0054 18.6267 15.2204 18.6541L15.2841 20L13.4543 16.9881L15.1329 14.0172L15.1886 15.437C16.0902 15.5245 16.8407 15.5382 17.44 15.478C18.0393 15.4178 18.4901 15.3276 18.7925 15.2072L19.238 15.0266ZM12.9929 7.4435C12.7436 7.78818 12.0409 8.97818 10.8847 11.0135L8.36279 9.4788L8.21163 9.38032L10.0016 6.45867C10.1077 6.28906 10.2668 6.16596 10.479 6.08936C10.6911 6.01277 10.9032 5.98541 11.1154 6.00729C11.2427 6.01824 11.3713 6.05106 11.5012 6.10578C11.6312 6.16049 11.7426 6.21794 11.8354 6.27812C11.9282 6.33831 12.0382 6.42858 12.1655 6.54895C12.2928 6.66932 12.3883 6.76369 12.4519 6.83208C12.5156 6.90048 12.611 7.00853 12.7383 7.15626C12.8656 7.30398 12.9505 7.39973 12.9929 7.4435ZM18.2037 9.963L19.8903 12.9421C19.9858 13.1445 20.0189 13.3524 19.9898 13.5658C19.9606 13.7792 19.8877 13.9816 19.771 14.1731C19.702 14.2826 19.6145 14.3838 19.5085 14.4768C19.4024 14.5698 19.3016 14.6464 19.2061 14.7066C19.1107 14.7668 18.9821 14.8269 18.8203 14.8871C18.6585 14.9473 18.5339 14.9911 18.4464 15.0184C18.3589 15.0458 18.2223 15.0841 18.0367 15.1333C17.8511 15.1826 17.7291 15.2154 17.6707 15.2318C17.4904 14.8379 16.7877 13.6452 15.5625 11.6536L18.0526 10.0533L18.2037 9.963ZM17.0661 8.10825L18.1958 7.42708L16.4456 10.4882L13.1122 10.3241L14.3135 9.61832C14.1332 9.13137 13.9343 8.67726 13.7168 8.25598C13.4994 7.83469 13.2992 7.49684 13.1162 7.24243C12.9332 6.98802 12.7622 6.76917 12.6031 6.58588C12.444 6.40259 12.3193 6.27539 12.2292 6.20426L12.0939 6.09757L15.3159 6.10578C15.4803 6.08936 15.6341 6.11809 15.7773 6.19195C15.9205 6.26581 16.0239 6.34378 16.0876 6.42585L16.1751 6.54895C16.3819 6.88269 16.6789 7.40246 17.0661 8.10825Z" fill="#578FFE"/>
</svg>
