<svg width="78" height="78" viewBox="0 0 78 78" fill="none" xmlns="http://www.w3.org/2000/svg">
<mask id="mask0_1_2" style="mask-type:luminance" maskUnits="userSpaceOnUse" x="20" y="3" width="39" height="73">
<path d="M20 3H59V75.6485H20V3Z" fill="white"/>
</mask>
<g mask="url(#mask0_1_2)">
<path d="M54.6853 12.5986C54.5939 12.7673 54.5044 12.9371 54.4115 13.1047C53.9783 13.8846 54.0145 14.6616 54.4607 15.4149C54.8936 16.1464 55.4223 16.8142 55.9651 17.4651C56.9622 18.6601 57.4799 20.0406 57.6726 21.5686C57.8258 22.7818 57.8835 24.0013 57.959 25.2197C58.0989 27.4781 58.2217 29.7376 58.2702 32.0001C58.3671 36.5381 58.4611 41.0768 58.3394 45.6154C58.2783 47.8913 58.3135 50.1667 58.3086 52.4421C58.3031 54.9 58.151 57.3497 57.8432 59.7898C57.6612 61.2328 57.3777 62.6539 57.0092 64.0595C56.5305 65.8865 55.6484 67.5189 54.5962 69.0695C54.4082 69.3459 54.2158 69.619 54.0193 69.8894C53.0089 71.2824 51.6488 72.2163 50.0963 72.9141C48.6175 73.5786 47.0672 73.9645 45.4751 74.2261C43.9878 74.471 42.4889 74.5865 40.9883 74.6967C39.5386 74.8033 38.0883 74.8939 36.642 75.0408C33.3409 75.376 30.1712 74.9357 27.2224 73.3448C25.1193 72.21 23.4292 70.6216 22.2219 68.5464C21.4461 67.2129 21.0335 65.7611 20.9225 64.2289C20.7583 61.9583 20.7168 59.6825 20.6724 57.407C20.6132 54.3735 20.4908 51.3407 20.5389 48.3053C20.5788 45.7849 20.6547 43.266 20.8189 40.7508C21.0184 37.6976 21.237 34.6456 21.4324 31.592C21.5364 29.9752 21.6018 28.3565 21.6973 26.7392C21.8175 24.6947 22.0695 22.6727 22.6774 20.7043C23.1995 19.0146 24.0456 17.5257 25.2847 16.2596C25.7705 15.7631 26.2086 15.2233 26.6541 14.6909C26.8198 14.4929 26.9582 14.2765 27.0833 14.0511C27.4185 13.4473 27.4773 12.8372 27.1273 12.2171C27.4359 12.2186 27.7311 12.31 28.0341 12.3496C28.6668 12.4328 29.2991 12.5209 29.9318 12.6037C30.6167 12.6936 31.3056 12.7617 31.9901 12.791C32.8858 12.8294 33.7808 12.9367 34.6803 12.8897C34.7313 12.8872 34.7854 12.8823 34.8338 12.8953C35.3725 13.0411 35.9301 12.9267 36.4773 13.0266C36.9006 13.104 37.3431 13.0618 37.7786 13.1003C38.4916 13.1632 39.2112 13.1347 39.929 13.182C40.7097 13.2335 41.4963 13.1961 42.2803 13.1991C42.3957 13.1994 42.5171 13.1872 42.6251 13.2183C42.9425 13.3104 43.2718 13.3034 43.5812 13.2557C44.0947 13.1769 44.606 13.1924 45.117 13.202C45.9646 13.2179 46.8056 13.0718 47.6533 13.1147C47.6788 13.1158 47.7054 13.1151 47.7302 13.1099C48.3866 12.9752 49.057 13.0296 49.7197 12.9822C50.3945 12.9341 51.072 12.8413 51.7531 12.8827C51.7787 12.8842 51.8049 12.8812 51.8301 12.8775C52.5497 12.7636 53.2808 12.7654 54.0031 12.6663C54.2265 12.6352 54.45 12.5312 54.6853 12.5986ZM27.3193 67.5171C27.3904 67.4886 27.4603 67.4549 27.5332 67.432C28.2291 67.2114 28.9451 67.0838 29.6614 66.9487C30.6659 66.7589 31.6745 66.6121 32.6905 66.4996C32.9965 66.4655 33.3047 66.4618 33.6069 66.4189C34.1908 66.336 34.7802 66.2872 35.3644 66.2879C37.3039 66.2902 39.2438 66.2347 41.184 66.3394C41.9247 66.3793 42.6713 66.3949 43.411 66.4496C44.0448 66.4962 44.6819 66.5558 45.3149 66.6472C45.7944 66.716 46.2773 66.7778 46.7549 66.8566C47.7014 67.0131 48.6323 67.251 49.5502 67.5285C50.0889 67.6917 50.6165 67.8952 51.0772 68.2363C51.2544 68.3677 51.3806 68.5231 51.3288 68.7558C51.2784 68.9844 51.1896 69.1994 50.9873 69.3393C50.6173 69.5953 50.2314 69.8195 49.8107 69.989C48.9053 70.3541 47.9755 70.6313 47.0202 70.8292C46.2825 70.982 45.5462 71.137 44.7955 71.2236C44.3263 71.278 43.8572 71.3346 43.388 71.3905C42.8926 71.4489 42.3957 71.4989 41.8999 71.5137C41.4123 71.5278 40.9331 71.6413 40.4429 71.6092C40.3463 71.6029 40.2427 71.6517 40.1476 71.688C40.0056 71.7423 39.9171 71.8415 39.9083 72.0043C39.8994 72.166 39.9756 72.2733 40.1047 72.3528C40.2168 72.4217 40.3386 72.4442 40.471 72.4527C41.1662 72.4975 41.8522 72.3421 42.5459 72.368C42.5711 72.3691 42.597 72.3625 42.6221 72.3565C43.0343 72.254 43.4602 72.2766 43.8786 72.2278C44.4114 72.1656 44.9435 72.0975 45.4729 72.0165C46.0405 71.9299 46.6014 71.7978 47.1641 71.6809C48.4484 71.4138 49.7064 71.0656 50.8707 70.4422C51.2662 70.2302 51.6318 69.9834 51.9074 69.609C52.3503 69.0066 52.2981 68.1594 51.745 67.6591C51.4879 67.4264 51.1941 67.2384 50.877 67.0945C50.2332 66.8022 49.551 66.6235 48.8728 66.4348C48.0595 66.2084 47.23 66.0511 46.3986 65.912C45.7319 65.8007 45.0574 65.7296 44.384 65.6652C43.9256 65.6212 43.4568 65.6245 43.0069 65.5609C42.3173 65.4632 41.6272 65.5261 40.9372 65.4473C40.0477 65.3459 39.1453 65.4458 38.2455 65.3659C37.0423 65.259 35.835 65.4421 34.6281 65.4314C34.5896 65.431 34.55 65.4325 34.513 65.4425C34.0506 65.565 33.5718 65.5121 33.1015 65.5698C32.5573 65.6364 32.0104 65.6989 31.4662 65.7677C30.8979 65.8395 30.3307 65.935 29.765 66.0375C28.8311 66.2065 27.9087 66.4086 27.0137 66.7282C26.912 66.7645 26.8217 66.7989 26.7754 66.9025C26.7362 66.8699 26.6892 66.8429 26.6589 66.8033C26.0847 66.0578 25.6259 65.2438 25.2418 64.3873C25.0006 63.849 24.7697 63.3062 24.5274 62.7686C24.3912 62.4663 24.1381 62.261 23.888 62.0604C23.7922 61.9835 23.6601 61.9039 23.5369 62.0138C23.3597 62.1725 23.2217 62.3771 23.2446 62.6158C23.2838 63.0213 23.3593 63.4235 23.4337 63.8245C23.588 64.6585 23.864 65.4566 24.1592 66.2502C24.8951 68.2278 26.162 69.7899 27.895 70.9694C28.9935 71.7176 30.2049 72.2485 31.4773 72.6337C32.0533 72.8079 32.6413 72.9322 33.2414 72.9896C33.6354 73.027 34.028 73.0813 34.4209 73.1202C34.8024 73.1583 35.1794 73.2482 35.5683 73.2234C35.7362 73.2127 35.8809 73.1798 35.9475 73.0173C36.0089 72.8671 35.8805 72.7842 35.7932 72.6936C35.4517 72.3403 35.0025 72.1567 34.5604 72.0006C33.1977 71.5189 31.9105 70.8925 30.691 70.1218C30.6052 70.0678 30.499 70.0378 30.4779 69.9176C30.8024 69.8436 31.1106 69.9919 31.4325 69.983C33.1389 69.9368 34.8457 70.0182 36.5543 69.9198C38.3092 69.8188 40.0722 69.9756 41.8296 69.8321C42.4161 69.784 43.0051 69.8228 43.596 69.767C44.3459 69.6963 45.1063 69.7596 45.8618 69.68C46.2207 69.6423 46.5722 69.5801 46.9137 69.4787C47.1234 69.4166 47.2988 69.2786 47.3207 69.0192C47.3425 68.7573 47.1871 68.6196 46.9888 68.5057C46.944 68.4801 46.8978 68.4579 46.8515 68.435C46.3191 68.1697 45.7467 68.0202 45.1695 67.9067C44.2286 67.7213 43.2689 67.6699 42.3154 67.6018C41.46 67.5404 40.5983 67.6044 39.7403 67.5189C39.256 67.4708 38.7694 67.5467 38.2836 67.5818C37.5429 67.6354 36.8003 67.5799 36.0544 67.6477C35.3178 67.7143 34.5759 67.7405 33.8371 67.8123C33.2011 67.8741 32.5676 67.9492 31.9394 68.0591C31.2819 68.1742 30.6389 68.3358 30.0876 68.7499C29.8467 68.9308 29.6721 69.1273 29.7109 69.4491C29.6059 69.448 29.5174 69.4121 29.429 69.3504C28.7922 68.9071 28.1918 68.418 27.6112 67.9044C27.491 67.7982 27.3415 67.7024 27.3193 67.5171ZM23.235 33.6033C23.269 33.9056 23.1684 34.3326 23.2997 34.7492C23.3304 34.8465 23.3205 34.9749 23.4414 34.9967C23.5872 35.023 23.6701 34.916 23.7389 34.7984C23.8447 34.6167 23.8906 34.4125 23.9172 34.2131C24.1085 32.7923 24.4545 31.4037 24.7675 30.0081C25.0172 28.8952 25.3624 27.8093 25.6851 26.7167C26.2756 24.7195 26.9704 22.7663 28.066 20.98C28.4548 20.3462 28.8722 19.7327 29.3883 19.1899C29.8534 18.7012 30.3899 18.3164 30.9759 17.9882C31.7403 17.5601 32.5221 17.1809 33.379 16.9722C34.2122 16.7695 35.0477 16.5737 35.8735 16.344C36.2761 16.2319 36.6919 16.1205 36.989 15.7768C37.1008 15.6473 37.1663 15.5193 37.1137 15.3594C37.0578 15.1896 36.8984 15.1515 36.7437 15.1289C36.6553 15.116 36.5639 15.1223 36.474 15.1226C36.1014 15.1252 35.7277 15.0793 35.3666 15.0205C34.5708 14.891 33.7668 14.8488 32.9694 14.7445C32.8436 14.7282 32.7049 14.7227 32.5861 14.7578C32.3704 14.8222 32.154 14.8085 31.9364 14.8144C31.7951 14.8185 31.6523 14.8096 31.5128 14.8292C30.7887 14.9295 30.0861 15.1108 29.3905 15.3424C28.349 15.6895 27.5613 16.3665 26.879 17.1831C26.1076 18.1074 25.7132 19.2269 25.3436 20.3484C25.1316 20.9914 24.9795 21.6545 24.8123 22.3116C24.5888 23.191 24.3934 24.0764 24.2184 24.9677C24.0778 25.6825 23.9861 26.404 23.8632 27.1207C23.7363 27.8625 23.6209 28.6088 23.5539 29.358C23.4973 29.9941 23.4137 30.6275 23.3686 31.2657C23.3164 32.0053 23.2165 32.7416 23.235 33.6033ZM52.1257 37.9156C52.1257 36.5647 52.1265 35.3304 52.125 34.0961C52.125 33.9548 52.1228 33.8124 52.1054 33.6725C52.0699 33.3876 51.9222 33.2389 51.6381 33.1908C51.4971 33.1671 51.3561 33.183 51.2159 33.2067C50.7841 33.2785 50.3616 33.388 49.9443 33.5186C49.4411 33.6766 48.9301 33.8001 48.4084 33.8838C47.5815 34.017 46.7461 34.0577 45.9139 34.132C44.4136 34.2656 42.91 34.2989 41.4038 34.2723C39.3958 34.2367 37.3971 34.0743 35.4003 33.8741C34.0691 33.7406 32.7452 33.5593 31.4236 33.358C30.7099 33.2492 29.9906 33.2133 29.271 33.1874C28.8688 33.1726 28.6968 33.3562 28.6872 33.7495C28.6842 33.8649 28.6724 33.9803 28.6624 34.0954C28.6047 34.761 28.5251 35.4255 28.4926 36.0922C28.43 37.3761 28.3801 38.6611 28.3508 39.9461C28.3238 41.1282 28.2916 42.3114 28.3845 43.4932C28.4319 44.0959 28.6298 44.3456 29.2015 44.5136C29.3365 44.5532 29.476 44.5839 29.6155 44.6017C29.934 44.642 30.257 44.6542 30.573 44.709C32.1462 44.9816 33.7409 45.0553 35.3259 45.2121C36.7841 45.3561 38.2485 45.4345 39.7099 45.5385C40.2871 45.5795 40.8643 45.6191 41.4419 45.6461C42.4179 45.6917 43.3947 45.8212 44.3707 45.7294C46.0464 45.5718 47.7325 45.5174 49.3933 45.2133C50.1762 45.0701 50.9743 45.0109 51.7406 44.7778C52.206 44.6361 52.3214 44.4822 52.3259 44.0034C52.3263 43.9264 52.3207 43.8495 52.3177 43.7721C52.236 41.782 52.0721 39.794 52.1257 37.9156ZM27.8088 11.5226C28.477 11.6351 29.1485 11.7172 29.8182 11.8145C30.5279 11.9178 31.2479 11.9045 31.9542 12.0321C31.979 12.0365 32.0056 12.0365 32.0311 12.0351C32.854 11.9888 33.6717 12.1046 34.4923 12.1276C35.1295 12.1457 35.7729 12.1501 36.4056 12.2608C36.4311 12.2648 36.4573 12.267 36.4825 12.2656C37.2029 12.2201 37.9181 12.3218 38.6351 12.354C40.9738 12.4587 43.3133 12.4472 45.6513 12.4043C46.3761 12.391 47.1131 12.4132 47.8349 12.2774C47.8601 12.2726 47.8864 12.2715 47.9119 12.273C48.6578 12.3174 49.3989 12.2127 50.1411 12.1757C50.7264 12.1464 51.3173 12.1501 51.9015 12.055C52.2918 11.9918 52.6918 12.0251 53.0892 11.9755C53.6079 11.9107 54.1322 11.8763 54.652 11.8097C54.5547 11.5866 54.4378 11.3658 54.4278 11.119C54.4193 10.911 54.3275 10.8626 54.1374 10.8766C53.7015 10.9092 53.2649 10.9425 52.8283 10.9466C50.9769 10.9625 49.1251 10.9732 47.2737 10.9754C45.1266 10.9776 42.9799 10.9066 40.8321 10.9403C38.2451 10.981 35.6682 10.8063 33.0978 10.5151C31.5272 10.3372 29.9529 10.1918 28.3793 10.0404C28.1159 10.0149 27.8562 9.92538 27.5517 9.96681C27.6109 10.5022 27.3526 10.8511 26.9064 11.092C26.798 11.1504 26.6826 11.2174 26.6352 11.348C27.0407 11.3073 27.4196 11.4571 27.8088 11.5226ZM29.7109 69.4491C29.6721 69.1273 29.8467 68.9308 30.0876 68.7499C30.6389 68.3358 31.2819 68.1742 31.9394 68.0591C32.5676 67.9492 33.2011 67.8741 33.8371 67.8123C34.5759 67.7405 35.3178 67.7143 36.0544 67.6477C36.8003 67.5799 37.5429 67.6354 38.2836 67.5818C38.7694 67.5467 39.256 67.4708 39.7403 67.5189C40.5983 67.6044 41.46 67.5404 42.3154 67.6018C43.2689 67.6699 44.2286 67.7213 45.1695 67.9067C45.7467 68.0202 46.3191 68.1697 46.8515 68.435C46.8978 68.4579 46.944 68.4801 46.9888 68.5057C47.1871 68.6196 47.3425 68.7573 47.3207 69.0192C47.2988 69.2786 47.1234 69.4166 46.9137 69.4787C46.5722 69.5801 46.2207 69.6423 45.8618 69.68C45.1063 69.7596 44.3459 69.6963 43.596 69.767C43.0051 69.8228 42.4161 69.784 41.8296 69.8321C40.0722 69.9756 38.3092 69.8188 36.5543 69.9198C34.8457 70.0182 33.1389 69.9368 31.4325 69.983C31.1106 69.9919 30.8024 69.8436 30.4779 69.9176C30.1764 69.8365 29.9111 69.6959 29.7109 69.4491ZM27.3193 67.5171C27.3904 67.4886 27.4603 67.4549 27.5332 67.432C28.2291 67.2114 28.9451 67.0838 29.6614 66.9487C30.6659 66.7589 31.6745 66.6121 32.6905 66.4996C32.9965 66.4655 33.3047 66.4618 33.6069 66.4189C34.1908 66.336 34.7802 66.2872 35.3644 66.2879C37.3039 66.2902 39.2438 66.2347 41.184 66.3394C41.9247 66.3793 42.6713 66.3949 43.411 66.4496C44.0448 66.4962 44.6819 66.5558 45.3149 66.6472C45.7944 66.716 46.2773 66.7778 46.7549 66.8566C47.7014 67.0131 48.6323 67.251 49.5502 67.5285C50.0889 67.6917 50.6165 67.8952 51.0772 68.2363C51.2544 68.3677 51.3806 68.5231 51.3288 68.7558C51.2784 68.9844 51.1896 69.1994 50.9873 69.3393C50.6173 69.5953 50.2314 69.8195 49.8107 69.989C48.9053 70.3541 47.9755 70.6313 47.0202 70.8292C46.2825 70.982 45.5462 71.137 44.7955 71.2236C44.3263 71.278 43.8572 71.3346 43.388 71.3905C42.8926 71.4489 42.3957 71.4989 41.8999 71.5137C41.4123 71.5278 40.9331 71.6413 40.4429 71.6092C40.3463 71.6029 40.2427 71.6517 40.1476 71.688C40.0056 71.7423 39.9171 71.8415 39.9083 72.0043C39.8994 72.166 39.9756 72.2733 40.1047 72.3528C40.2168 72.4217 40.3386 72.4442 40.471 72.4527C41.1662 72.4975 41.8522 72.3421 42.5459 72.368C42.5711 72.3691 42.597 72.3625 42.6221 72.3565C43.0343 72.254 43.4602 72.2766 43.8786 72.2278C44.4114 72.1656 44.9435 72.0975 45.4729 72.0165C46.0405 71.9299 46.6014 71.7978 47.1641 71.6809C48.4484 71.4138 49.7064 71.0656 50.8707 70.4422C51.2662 70.2302 51.6318 69.9834 51.9074 69.609C52.3503 69.0066 52.2981 68.1594 51.745 67.6591C51.4879 67.4264 51.1941 67.2384 50.877 67.0945C50.2332 66.8022 49.551 66.6235 48.8728 66.4348C48.0595 66.2084 47.23 66.0511 46.3986 65.912C45.7319 65.8007 45.0574 65.7296 44.384 65.6652C43.9256 65.6212 43.4568 65.6245 43.0069 65.5609C42.3173 65.4632 41.6272 65.5261 40.9372 65.4473C40.0477 65.3459 39.1453 65.4458 38.2455 65.3659C37.0423 65.259 35.835 65.4421 34.6281 65.4314C34.5896 65.431 34.55 65.4325 34.513 65.4425C34.0506 65.565 33.5718 65.5121 33.1015 65.5698C32.5573 65.6364 32.0104 65.6989 31.4662 65.7677C30.8979 65.8395 30.3307 65.935 29.765 66.0375C28.8311 66.2065 27.9087 66.4086 27.0137 66.7282C26.912 66.7645 26.8217 66.7989 26.7754 66.9025C26.9097 67.1489 27.0921 67.3528 27.3193 67.5171ZM26.6352 11.348C27.0407 11.3073 27.4196 11.4571 27.8088 11.5226C28.477 11.6351 29.1485 11.7172 29.8182 11.8145C30.5279 11.9178 31.2479 11.9045 31.9542 12.0321C31.979 12.0365 32.0056 12.0365 32.0311 12.0351C32.854 11.9888 33.6717 12.1046 34.4923 12.1276C35.1295 12.1457 35.7729 12.1501 36.4056 12.2608C36.4311 12.2648 36.4573 12.267 36.4825 12.2656C37.2029 12.2201 37.9181 12.3218 38.6351 12.354C40.9738 12.4587 43.3133 12.4472 45.6513 12.4043C46.3761 12.391 47.1131 12.4132 47.8349 12.2774C47.8601 12.2726 47.8864 12.2715 47.9119 12.273C48.6578 12.3174 49.3989 12.2127 50.1411 12.1757C50.7264 12.1464 51.3173 12.1501 51.9015 12.055C52.2918 11.9918 52.6918 12.0251 53.0892 11.9755C53.6079 11.9107 54.1322 11.8763 54.652 11.8097C54.9584 12.1746 54.9606 12.2341 54.6853 12.5986C54.45 12.5312 54.2265 12.6352 54.0031 12.6663C53.2808 12.7654 52.5497 12.7636 51.8301 12.8775C51.8049 12.8812 51.7787 12.8842 51.7531 12.8827C51.072 12.8413 50.3945 12.9341 49.7197 12.9822C49.057 13.0296 48.3866 12.9752 47.7302 13.1099C47.7054 13.1151 47.6788 13.1158 47.6533 13.1147C46.8056 13.0718 45.9646 13.2179 45.117 13.202C44.606 13.1924 44.0947 13.1769 43.5812 13.2557C43.2718 13.3034 42.9425 13.3104 42.6251 13.2183C42.5171 13.1872 42.3957 13.1994 42.2803 13.1991C41.4963 13.1961 40.7097 13.2335 39.929 13.182C39.2112 13.1347 38.4916 13.1632 37.7786 13.1003C37.3431 13.0618 36.9006 13.104 36.4773 13.0266C35.9301 12.9267 35.3725 13.0411 34.8338 12.8953C34.7854 12.8823 34.7313 12.8872 34.6803 12.8897C33.7808 12.9367 32.8858 12.8294 31.9901 12.791C31.3056 12.7617 30.6167 12.6936 29.9318 12.6037C29.2991 12.5209 28.6668 12.4328 28.0341 12.3496C27.7311 12.31 27.4359 12.2186 27.1273 12.2171C26.9978 12.1146 26.865 12.0162 26.7392 11.9093C26.5301 11.732 26.5183 11.6558 26.6352 11.348ZM23.2997 34.7492C23.3304 34.8465 23.3205 34.9749 23.4414 34.9967C23.5872 35.023 23.6701 34.916 23.7389 34.7984C23.8447 34.6167 23.8906 34.4125 23.9172 34.2131C24.1085 32.7923 24.4545 31.4037 24.7675 30.0081C25.0172 28.8952 25.3624 27.8093 25.6851 26.7167C26.2756 24.7195 26.9704 22.7663 28.066 20.98C28.4548 20.3462 28.8722 19.7327 29.3883 19.1899C29.8534 18.7012 30.3899 18.3164 30.9759 17.9882C31.7403 17.5601 32.5221 17.1809 33.379 16.9722C34.2122 16.7695 35.0477 16.5737 35.8735 16.344C36.2761 16.2319 36.6919 16.1205 36.989 15.7768C37.1008 15.6473 37.1663 15.5193 37.1137 15.3594C37.0578 15.1896 36.8984 15.1515 36.7437 15.1289C36.6553 15.116 36.5639 15.1223 36.474 15.1226C36.1014 15.1252 35.7277 15.0793 35.3666 15.0205C34.5708 14.891 33.7668 14.8488 32.9694 14.7445C32.8436 14.7282 32.7049 14.7227 32.5861 14.7578C32.3704 14.8222 32.154 14.8085 31.9364 14.8144C31.7951 14.8185 31.6523 14.8096 31.5128 14.8292C30.7887 14.9295 30.0861 15.1108 29.3905 15.3424C28.349 15.6895 27.5613 16.3665 26.879 17.1831C26.1076 18.1074 25.7132 19.2269 25.3436 20.3484C25.1316 20.9914 24.9795 21.6545 24.8123 22.3116C24.5888 23.191 24.3934 24.0764 24.2184 24.9677C24.0778 25.6825 23.9861 26.404 23.8632 27.1207C23.7363 27.8625 23.6209 28.6088 23.5539 29.358C23.4973 29.9941 23.4137 30.6275 23.3686 31.2657C23.3164 32.0053 23.2165 32.7416 23.235 33.6033C23.269 33.9056 23.1684 34.3326 23.2997 34.7492ZM26.6589 66.8033C26.0847 66.0578 25.6259 65.2438 25.2418 64.3873C25.0006 63.849 24.7697 63.3062 24.5274 62.7686C24.3912 62.4663 24.1381 62.261 23.888 62.0604C23.7922 61.9835 23.6601 61.9039 23.5369 62.0138C23.3597 62.1725 23.2217 62.3771 23.2446 62.6158C23.2838 63.0213 23.3593 63.4235 23.4337 63.8245C23.588 64.6585 23.864 65.4566 24.1592 66.2502C24.8951 68.2278 26.162 69.7899 27.895 70.9694C28.9935 71.7176 30.2049 72.2485 31.4773 72.6337C32.0533 72.8079 32.6413 72.9322 33.2414 72.9896C33.6354 73.027 34.028 73.0813 34.4209 73.1202C34.8024 73.1583 35.1794 73.2482 35.5683 73.2234C35.7362 73.2127 35.8809 73.1798 35.9475 73.0173C36.0089 72.8671 35.8805 72.7842 35.7932 72.6936C35.4517 72.3403 35.0025 72.1567 34.5604 72.0006C33.1977 71.5189 31.9105 70.8925 30.691 70.1218C30.6052 70.0678 30.499 70.0378 30.4779 69.9176C30.1764 69.8365 29.9111 69.6959 29.7109 69.4491C29.6059 69.448 29.5174 69.4121 29.429 69.3504C28.7922 68.9071 28.1918 68.418 27.6112 67.9044C27.491 67.7982 27.3415 67.7024 27.3193 67.5171C27.0921 67.3528 26.9097 67.1489 26.7754 66.9025C26.7362 66.8699 26.6892 66.8429 26.6589 66.8033ZM58.9772 41.1234C58.985 44.0811 58.8596 46.7798 58.881 49.4807C58.8888 50.4705 58.9017 51.4609 58.8936 52.4507C58.8729 54.9984 58.7142 57.5373 58.3723 60.0636C58.1736 61.5299 57.8787 62.9747 57.4747 64.3973C56.8568 66.5714 55.6928 68.4565 54.3638 70.2524C53.6749 71.1833 52.8183 71.9322 51.8371 72.5467C50.9828 73.0817 50.0619 73.4713 49.1269 73.8332C48.0188 74.2624 46.8578 74.4807 45.6934 74.6893C43.9552 75.0009 42.1963 75.1048 40.4399 75.2365C39.0033 75.3442 37.5684 75.4707 36.1318 75.5795C32.4189 75.8607 28.9277 75.1707 25.809 73.0662C23.9739 71.8278 22.4747 70.2483 21.4883 68.2326C20.9118 67.0546 20.5751 65.8084 20.449 64.505C20.2791 62.7497 20.2702 60.9871 20.2192 59.227C20.1452 56.6693 20.0975 54.1108 20.0523 51.5527C20.0027 48.7363 20.0727 45.9214 20.1966 43.1076C20.2817 41.1807 20.409 39.2564 20.5385 37.3325C20.6802 35.2291 20.8319 33.126 20.9666 31.0219C21.0391 29.893 21.0824 28.7624 21.1427 27.6324C21.2515 25.5904 21.4094 23.5544 21.9174 21.5627C22.2715 20.1738 22.7477 18.8373 23.541 17.629C23.8314 17.1868 24.1496 16.7691 24.5015 16.3751C25.0158 15.7997 25.5293 15.224 26.0391 14.645C26.2856 14.3649 26.5164 14.0708 26.6752 13.73C26.7395 13.5912 26.8028 13.4458 26.8306 13.2967C26.9042 12.9042 26.8372 12.5468 26.4717 12.3155C25.9537 11.9884 25.9925 11.1726 26.4676 10.8248C26.5816 10.7416 26.7003 10.6646 26.8198 10.5891C26.9208 10.5259 26.9989 10.4471 27.0459 10.335C27.1857 10.0023 27.114 9.86322 26.7669 9.78256C26.5423 9.73039 26.3129 9.68932 26.1087 9.57129C25.7302 9.35337 25.6869 9.02371 25.9973 8.72179C26.0066 8.71292 26.0155 8.70182 26.0266 8.69701C26.4698 8.50017 26.4476 8.11279 26.3781 7.74391C26.26 7.11825 26.2937 6.5185 26.5494 5.93243C26.6234 5.76298 26.6248 5.58871 26.5819 5.4052C26.472 4.93938 26.4128 4.46912 26.5164 3.9922C26.6141 3.54192 26.7325 3.43018 27.1854 3.39319C28.4955 3.287 29.8079 3.28848 31.1191 3.35656C32.6779 3.43758 34.2307 3.39985 35.7803 3.213C37.3187 3.02726 38.8608 3.03873 40.4044 3.11976C41.0722 3.15491 41.7397 3.20264 42.4083 3.22188C44.8643 3.29144 47.3181 3.41576 49.7704 3.56745C51.1179 3.65107 52.4639 3.76355 53.8103 3.86751C54.0793 3.88823 54.3468 3.92893 54.6147 3.96408C54.9162 4.00404 55.1064 4.17165 55.1715 4.47097C55.4153 5.59204 55.4449 6.71274 55.1308 7.82531C55.0324 8.17458 54.9835 8.49721 55.2333 8.80874C55.3102 8.90494 55.3602 9.03777 55.3813 9.16097C55.419 9.38038 55.4886 9.56981 55.6392 9.74408C55.7738 9.89948 55.7638 10.1004 55.6791 10.2913C55.5918 10.4889 55.449 10.628 55.2555 10.7205C55.1534 10.769 54.9939 10.7527 54.9554 10.8652C54.9058 11.0094 54.9443 11.1745 54.9998 11.318C55.0601 11.4727 55.1363 11.624 55.2255 11.7639C55.4349 12.0928 55.4179 12.4202 55.2399 12.7491C55.136 12.9408 55.0157 13.1239 54.9069 13.313C54.5222 13.9823 54.5684 14.642 54.9739 15.2803C55.3465 15.8667 55.7809 16.4095 56.2078 16.9567C56.358 17.1491 56.5042 17.3448 56.6563 17.5357C57.5731 18.6879 58.0089 20.0283 58.2124 21.4635C58.3715 22.585 58.4281 23.7153 58.4981 24.8438C58.6183 26.794 58.7493 28.7439 58.8022 30.6974C58.8488 32.4068 58.8821 34.1169 58.9176 35.8262C58.9561 37.6777 58.9965 39.5287 58.9772 41.1234ZM54.652 11.8097C54.5547 11.5866 54.4378 11.3658 54.4278 11.119C54.4193 10.911 54.3275 10.8626 54.1374 10.8766C53.7015 10.9092 53.2649 10.9425 52.8283 10.9466C50.9769 10.9625 49.1251 10.9732 47.2737 10.9754C45.1266 10.9776 42.9799 10.9066 40.8321 10.9403C38.2451 10.981 35.6682 10.8063 33.0978 10.5151C31.5272 10.3372 29.9529 10.1918 28.3793 10.0404C28.1159 10.0149 27.8562 9.92538 27.5517 9.96681C27.6109 10.5022 27.3526 10.8511 26.9064 11.092C26.798 11.1504 26.6826 11.2174 26.6352 11.348C26.5183 11.6558 26.5301 11.732 26.7392 11.9093C26.865 12.0162 26.9978 12.1146 27.1273 12.2171C27.4773 12.8372 27.4185 13.4473 27.0833 14.0511C26.9582 14.2765 26.8198 14.4929 26.6541 14.6909C26.2086 15.2233 25.7705 15.7631 25.2847 16.2596C24.0456 17.5257 23.1995 19.0146 22.6774 20.7043C22.0695 22.6727 21.8175 24.6947 21.6973 26.7392C21.6018 28.3565 21.5364 29.9752 21.4324 31.592C21.237 34.6456 21.0184 37.6976 20.8189 40.7508C20.6547 43.266 20.5788 45.7849 20.5389 48.3053C20.4908 51.3407 20.6132 54.3735 20.6724 57.407C20.7168 59.6825 20.7583 61.9583 20.9225 64.2289C21.0335 65.7611 21.4461 67.2129 22.2219 68.5464C23.4292 70.6216 25.1193 72.21 27.2224 73.3448C30.1712 74.9357 33.3409 75.376 36.642 75.0408C38.0883 74.8939 39.5386 74.8033 40.9883 74.6967C42.4889 74.5865 43.9878 74.471 45.4751 74.2261C47.0672 73.9645 48.6175 73.5786 50.0963 72.9141C51.6488 72.2163 53.0089 71.2824 54.0193 69.8894C54.2158 69.619 54.4082 69.3459 54.5962 69.0695C55.6484 67.5189 56.5305 65.8865 57.0092 64.0595C57.3777 62.6539 57.6612 61.2328 57.8432 59.7898C58.151 57.3497 58.3031 54.9 58.3086 52.4421C58.3135 50.1667 58.2783 47.8913 58.3394 45.6154C58.4611 41.0768 58.3671 36.5381 58.2702 32.0001C58.2217 29.7376 58.0989 27.4781 57.959 25.2197C57.8835 24.0013 57.8258 22.7818 57.6726 21.5686C57.4799 20.0406 56.9622 18.6601 55.9651 17.4651C55.4223 16.8142 54.8936 16.1464 54.4607 15.4149C54.0145 14.6616 53.9783 13.8846 54.4115 13.1047C54.5044 12.9371 54.5939 12.7673 54.6853 12.5986C54.9606 12.2341 54.9584 12.1746 54.652 11.8097ZM26.361 9.13211C26.4965 9.2124 26.6167 9.24348 26.7418 9.2716C27.622 9.46844 28.5162 9.56315 29.4127 9.64825C30.5904 9.76036 31.7673 9.87913 32.9428 10.0097C34.5667 10.1899 36.1935 10.3353 37.8256 10.4027C39.4069 10.4682 40.9901 10.4215 42.5726 10.4297C45.454 10.4448 48.3355 10.5251 51.2174 10.4774C52.3366 10.4589 53.4555 10.4352 54.5717 10.3431C54.7268 10.3301 54.8822 10.3194 55.0228 10.2506C55.2029 10.1629 55.2359 10.0486 55.1078 9.88949C54.9891 9.7426 54.9217 9.58128 54.9018 9.40036C54.8829 9.22905 54.8255 9.07366 54.7305 8.93454C54.4944 8.58971 54.4615 8.22638 54.5888 7.83271C54.9081 6.84261 54.8873 5.83402 54.729 4.82135C54.675 4.47541 54.6687 4.47541 54.3257 4.42398C54.2495 4.41251 54.1721 4.40881 54.0956 4.4003C53.0085 4.2782 51.9152 4.23972 50.8259 4.14908C48.5686 3.96186 46.3061 3.88231 44.0448 3.77724C42.6184 3.71064 41.1914 3.65884 39.7654 3.58632C38.5552 3.5249 37.349 3.55672 36.1432 3.6766C35.4395 3.74653 34.7373 3.83162 34.0298 3.8664C32.6009 3.9367 31.1746 3.86307 29.7479 3.80684C28.9754 3.77613 28.2047 3.7913 27.4344 3.84457C27.1332 3.86566 27.0396 3.97037 26.9793 4.25822C26.8879 4.69259 27.0559 5.09699 27.1051 5.51508C27.1199 5.63829 27.2246 5.62904 27.313 5.63496C27.7492 5.66308 28.1855 5.69194 28.6221 5.7171C29.6495 5.77593 30.6777 5.82181 31.7041 5.89284C33.6036 6.02345 35.5028 6.1511 37.4071 6.1696C38.7324 6.18255 40.0563 6.23583 41.3804 6.27911C41.5088 6.28318 41.6372 6.29613 41.7649 6.30945C41.8899 6.32314 41.9935 6.37383 42.0046 6.5148C42.0179 6.68204 41.8958 6.73901 41.7634 6.76084C41.6376 6.78156 41.5074 6.78748 41.3793 6.78267C40.8784 6.76417 40.3774 6.7231 39.8761 6.71903C36.1565 6.68684 32.4459 6.46633 28.7382 6.1918C28.238 6.1548 27.7374 6.12261 27.2375 6.0808C27.1262 6.07155 27.0403 6.06526 26.9934 6.19476C26.879 6.50999 26.7643 6.82448 26.8058 7.16894C26.838 7.43682 26.8898 7.70358 26.9046 7.97219C26.9153 8.16311 27.0004 8.199 27.1698 8.20529C27.6712 8.22416 28.1721 8.25191 28.672 8.29298C30.0561 8.40693 31.4392 8.53125 32.8229 8.64817C33.8608 8.73585 34.9019 8.79579 35.9371 8.9079C38.0753 9.13914 40.2209 9.22091 42.3691 9.23756C43.6811 9.24755 44.993 9.20204 46.3054 9.18391C46.446 9.18206 46.5892 9.18428 46.7276 9.20722C46.8334 9.22498 46.9151 9.29898 46.9166 9.4196C46.9181 9.54021 46.84 9.60718 46.7313 9.63308C46.6569 9.65084 46.5788 9.65491 46.5019 9.65787C46.1548 9.6723 45.8078 9.6871 45.4607 9.69672C43.1834 9.75999 40.9054 9.75037 38.6314 9.62642C37.0527 9.54021 35.478 9.37742 33.9022 9.24052C31.7625 9.05442 29.6229 8.86905 27.4851 8.66186C27.0215 8.61709 26.6589 8.71773 26.361 9.13211ZM52.1257 37.9156C52.0721 39.794 52.236 41.782 52.3177 43.7721C52.3207 43.8495 52.3263 43.9264 52.3259 44.0034C52.3214 44.4822 52.206 44.6361 51.7406 44.7778C50.9743 45.0109 50.1762 45.0701 49.3933 45.2133C47.7325 45.5174 46.0464 45.5718 44.3707 45.7294C43.3947 45.8212 42.4179 45.6917 41.4419 45.6461C40.8643 45.6191 40.2871 45.5795 39.7099 45.5385C38.2485 45.4345 36.7841 45.3561 35.3259 45.2121C33.7409 45.0553 32.1462 44.9816 30.573 44.709C30.257 44.6542 29.934 44.642 29.6155 44.6017C29.476 44.5839 29.3365 44.5532 29.2015 44.5136C28.6298 44.3456 28.4319 44.0959 28.3845 43.4932C28.2916 42.3114 28.3238 41.1282 28.3508 39.9461C28.3801 38.6611 28.43 37.3761 28.4926 36.0922C28.5251 35.4255 28.6047 34.761 28.6624 34.0954C28.6724 33.9803 28.6842 33.8649 28.6872 33.7495C28.6968 33.3562 28.8688 33.1726 29.271 33.1874C29.9906 33.2133 30.7099 33.2492 31.4236 33.358C32.7452 33.5593 34.0691 33.7406 35.4003 33.8741C37.3971 34.0743 39.3958 34.2367 41.4038 34.2723C42.91 34.2989 44.4136 34.2656 45.9139 34.132C46.7461 34.0577 47.5815 34.017 48.4084 33.8838C48.9301 33.8001 49.4411 33.6766 49.9443 33.5186C50.3616 33.388 50.7841 33.2785 51.2159 33.2067C51.3561 33.183 51.4971 33.1671 51.6381 33.1908C51.9222 33.2389 52.0699 33.3876 52.1054 33.6725C52.1228 33.8124 52.125 33.9548 52.125 34.0961C52.1265 35.3304 52.1257 36.5647 52.1257 37.9156ZM51.7446 38.9656C51.7446 38.0399 51.7461 37.1142 51.7443 36.1884C51.7424 35.4303 51.7413 34.6715 51.7309 33.9134C51.7269 33.6041 51.6618 33.5441 51.3602 33.5863C51.0809 33.6255 50.7982 33.6725 50.5311 33.7598C49.3256 34.1531 48.0888 34.3485 46.8271 34.4543C45.0822 34.6012 43.3377 34.6896 41.5865 34.6659C39.9519 34.6437 38.3217 34.5475 36.6953 34.3955C35.5945 34.2922 34.4945 34.1757 33.3979 34.0377C32.161 33.8819 30.9341 33.6477 29.6854 33.5907C29.2769 33.5722 29.0579 33.748 29.0183 34.1616C28.9928 34.4302 28.9621 34.6985 28.9454 34.9678C28.8063 37.2651 28.7219 39.5642 28.716 41.866C28.7145 42.4313 28.7264 42.9966 28.7774 43.5609C28.8045 43.8572 28.9473 44.0371 29.2244 44.1181C29.3598 44.1577 29.4967 44.1984 29.6358 44.2176C29.967 44.2628 30.3 44.292 30.6315 44.3345C31.2945 44.4193 31.9549 44.5447 32.6205 44.5898C34.3654 44.7071 36.1022 44.9143 37.8489 45.0212C39.5301 45.1245 41.211 45.2417 42.8922 45.3476C43.3037 45.3735 43.7162 45.3923 44.1265 45.3624C45.2424 45.281 46.3572 45.1855 47.472 45.0934C48.3318 45.0227 49.1758 44.8392 50.0305 44.7319C50.5662 44.6646 51.0986 44.5695 51.6185 44.4185C51.8941 44.3386 51.9263 44.2938 51.93 44.013C51.9322 43.8202 51.9163 43.6275 51.91 43.4351C51.8634 41.9448 51.7398 40.4574 51.7446 38.9656ZM26.361 9.13211C26.6589 8.71773 27.0215 8.61709 27.4851 8.66186C29.6229 8.86905 31.7625 9.05442 33.9022 9.24052C35.478 9.37742 37.0527 9.54021 38.6314 9.62642C40.9054 9.75037 43.1834 9.75999 45.4607 9.69672C45.8078 9.6871 46.1548 9.6723 46.5019 9.65787C46.5788 9.65491 46.6569 9.65084 46.7313 9.63308C46.84 9.60718 46.9181 9.54021 46.9166 9.4196C46.9151 9.29898 46.8334 9.22498 46.7276 9.20722C46.5892 9.18428 46.446 9.18206 46.3054 9.18391C44.993 9.20204 43.6811 9.24755 42.3691 9.23756C40.2209 9.22091 38.0753 9.13914 35.9371 8.9079C34.9019 8.79579 33.8608 8.73585 32.8229 8.64817C31.4392 8.53125 30.0561 8.40693 28.672 8.29298C28.1721 8.25191 27.6712 8.22416 27.1698 8.20529C27.0004 8.199 26.9153 8.16311 26.9046 7.97219C26.8898 7.70358 26.838 7.43682 26.8058 7.16894C26.7643 6.82448 26.879 6.50999 26.9934 6.19476C27.0403 6.06526 27.1262 6.07155 27.2375 6.0808C27.7374 6.12261 28.238 6.1548 28.7382 6.1918C32.4459 6.46633 36.1565 6.68684 39.8761 6.71903C40.3774 6.7231 40.8784 6.76417 41.3793 6.78267C41.5074 6.78748 41.6376 6.78156 41.7634 6.76084C41.8958 6.73901 42.0179 6.68204 42.0046 6.5148C41.9935 6.37383 41.8899 6.32314 41.7649 6.30945C41.6372 6.29613 41.5088 6.28318 41.3804 6.27911C40.0563 6.23583 38.7324 6.18255 37.4071 6.1696C35.5028 6.1511 33.6036 6.02345 31.7041 5.89284C30.6777 5.82181 29.6495 5.77593 28.6221 5.7171C28.1855 5.69194 27.7492 5.66308 27.313 5.63496C27.2246 5.62904 27.1199 5.63829 27.1051 5.51508C27.0559 5.09699 26.8879 4.69259 26.9793 4.25822C27.0396 3.97037 27.1332 3.86566 27.4344 3.84457C28.2047 3.7913 28.9754 3.77613 29.7479 3.80684C31.1746 3.86307 32.6009 3.9367 34.0298 3.8664C34.7373 3.83162 35.4395 3.74653 36.1432 3.6766C37.349 3.55672 38.5552 3.5249 39.7654 3.58632C41.1914 3.65884 42.6184 3.71064 44.0448 3.77724C46.3061 3.88231 48.5686 3.96186 50.8259 4.14908C51.9152 4.23972 53.0085 4.2782 54.0956 4.4003C54.1721 4.40881 54.2495 4.41251 54.3257 4.42398C54.6687 4.47541 54.675 4.47541 54.729 4.82135C54.8873 5.83402 54.9081 6.84261 54.5888 7.83271C54.4615 8.22638 54.4944 8.58971 54.7305 8.93454C54.8255 9.07366 54.8829 9.22905 54.9018 9.40036C54.9217 9.58128 54.9891 9.7426 55.1078 9.88949C55.2359 10.0486 55.2029 10.1629 55.0228 10.2506C54.8822 10.3194 54.7268 10.3301 54.5717 10.3431C53.4555 10.4352 52.3366 10.4589 51.2174 10.4774C48.3355 10.5251 45.454 10.4448 42.5726 10.4297C40.9901 10.4215 39.4069 10.4682 37.8256 10.4027C36.1935 10.3353 34.5667 10.1899 32.9428 10.0097C31.7673 9.87913 30.5904 9.76036 29.4127 9.64825C28.5162 9.56315 27.622 9.46844 26.7418 9.2716C26.6167 9.24348 26.4965 9.2124 26.361 9.13211ZM51.7443 36.1884C51.7424 35.4303 51.7413 34.6715 51.7309 33.9134C51.7269 33.6041 51.6618 33.5441 51.3602 33.5863C51.0809 33.6255 50.7982 33.6725 50.5311 33.7598C49.3256 34.1531 48.0888 34.3485 46.8271 34.4543C45.0822 34.6012 43.3377 34.6896 41.5865 34.6659C39.9519 34.6437 38.3217 34.5475 36.6953 34.3955C35.5945 34.2922 34.4945 34.1757 33.3979 34.0377C32.161 33.8819 30.9341 33.6477 29.6854 33.5907C29.2769 33.5722 29.0579 33.748 29.0183 34.1616C28.9928 34.4302 28.9621 34.6985 28.9454 34.9678C28.8063 37.2651 28.7219 39.5642 28.716 41.866C28.7145 42.4313 28.7264 42.9966 28.7774 43.5609C28.8045 43.8572 28.9473 44.0371 29.2244 44.1181C29.3598 44.1577 29.4967 44.1984 29.6358 44.2176C29.967 44.2628 30.3 44.292 30.6315 44.3345C31.2945 44.4193 31.9549 44.5447 32.6205 44.5898C34.3654 44.7071 36.1022 44.9143 37.8489 45.0212C39.5301 45.1245 41.211 45.2417 42.8922 45.3476C43.3037 45.3735 43.7162 45.3923 44.1265 45.3624C45.2424 45.281 46.3572 45.1855 47.472 45.0934C48.3318 45.0227 49.1758 44.8392 50.0305 44.7319C50.5662 44.6646 51.0986 44.5695 51.6185 44.4185C51.8941 44.3386 51.9263 44.2938 51.93 44.013C51.9322 43.8202 51.9163 43.6275 51.91 43.4351C51.8634 41.9448 51.7398 40.4574 51.7446 38.9656C51.7446 38.0399 51.7461 37.1142 51.7443 36.1884Z" fill="#D0E1E8"/>
</g>
<path d="M54.6809 12.6055C54.5895 12.7743 54.5 12.9441 54.4071 13.1117C53.9739 13.8916 54.0101 14.6686 54.4563 15.4219C54.8892 16.1534 55.4179 16.8212 55.9607 17.472C56.9578 18.6671 57.4754 20.0475 57.6682 21.5756C57.8214 22.7888 57.8791 24.0083 57.9546 25.2267C58.0944 27.4851 58.2173 29.7446 58.2657 32.0071C58.3627 36.5451 58.4567 41.0837 58.3349 45.6224C58.2739 47.8982 58.309 50.1737 58.3042 52.4491C58.2987 54.907 58.1466 57.3567 57.8388 59.7968C57.6567 61.2397 57.3733 62.6609 57.0048 64.0665C56.5261 65.8935 55.644 67.5259 54.5917 69.0765C54.4038 69.3529 54.2114 69.626 54.0149 69.8964C53.0045 71.2894 51.6444 72.2233 50.0919 72.9211C48.6131 73.5856 47.0628 73.9715 45.4707 74.2331C43.9834 74.478 42.4845 74.5935 40.9838 74.7037C39.5342 74.8103 38.0839 74.9009 36.6376 75.0478C33.3365 75.383 30.1668 74.9427 27.218 73.3518C25.1149 72.217 23.4248 70.6286 22.2175 68.5534C21.4417 67.2199 21.0291 65.7681 20.9181 64.2359C20.7539 61.9653 20.7124 59.6895 20.668 57.414C20.6088 54.3805 20.4863 51.3477 20.5344 48.3123C20.5744 45.7919 20.6503 43.273 20.8145 40.7578C21.014 37.7046 21.2326 34.6526 21.428 31.599C21.5319 29.9822 21.5974 28.3635 21.6929 26.7462C21.8131 24.7017 22.0651 22.6797 22.673 20.7113C23.1951 19.0216 24.0412 17.5327 25.2803 16.2666C25.7661 15.7701 26.2042 15.2303 26.6497 14.6978C26.8154 14.4999 26.9538 14.2835 27.0788 14.0581C27.4141 13.4543 27.4729 12.8442 27.1229 12.2241C27.4314 12.2256 27.7267 12.317 28.0297 12.3565C28.6624 12.4398 29.2947 12.5278 29.9274 12.6107C30.6123 12.7006 31.3012 12.7687 31.9857 12.7979C32.8814 12.8364 33.7764 12.9437 34.6759 12.8967C34.7269 12.8941 34.7809 12.8893 34.8294 12.9023C35.3681 13.0481 35.9257 12.9337 36.4729 13.0336C36.8962 13.111 37.3387 13.0688 37.7742 13.1073C38.4871 13.1702 39.2068 13.1417 39.9246 13.189C40.7052 13.2404 41.4918 13.2031 42.2759 13.206C42.3913 13.2064 42.5126 13.1942 42.6207 13.2253C42.9381 13.3174 43.2674 13.3104 43.5767 13.2626C44.0903 13.1838 44.6016 13.1994 45.1126 13.209C45.9602 13.2249 46.8012 13.0788 47.6489 13.1217C47.6744 13.1228 47.701 13.1221 47.7258 13.1169C48.3822 12.9822 49.0526 13.0366 49.7153 12.9892C50.3901 12.9411 51.0676 12.8483 51.7487 12.8897C51.7743 12.8912 51.8005 12.8882 51.8257 12.8845C52.5453 12.7706 53.2764 12.7724 53.9986 12.6733C54.2221 12.6422 54.4456 12.5382 54.6809 12.6055ZM27.3149 67.524C27.3859 67.4955 27.4559 67.4619 27.5288 67.4389C28.2247 67.2184 28.9406 67.0908 29.6569 66.9557C30.6615 66.7659 31.6701 66.619 32.6861 66.5066C32.992 66.4725 33.3002 66.4688 33.6025 66.4259C34.1864 66.343 34.7758 66.2942 35.36 66.2949C37.2995 66.2971 39.2393 66.2416 41.1796 66.3464C41.9203 66.3863 42.6669 66.4019 43.4065 66.4566C44.0403 66.5032 44.6775 66.5628 45.3105 66.6542C45.79 66.723 46.2729 66.7848 46.7505 66.8636C47.697 67.0201 48.6279 67.258 49.5458 67.5355C50.0845 67.6987 50.6121 67.9022 51.0728 68.2433C51.25 68.3746 51.3761 68.53 51.3243 68.7628C51.274 68.9914 51.1852 69.2064 50.9828 69.3462C50.6129 69.6023 50.227 69.8265 49.8063 69.9959C48.9009 70.3611 47.9711 70.6383 47.0158 70.8362C46.278 70.989 45.5418 71.144 44.791 71.2306C44.3219 71.285 43.8528 71.3416 43.3836 71.3975C42.8882 71.4559 42.3913 71.5059 41.8955 71.5207C41.4079 71.5347 40.9287 71.6483 40.4385 71.6161C40.3419 71.6098 40.2383 71.6587 40.1432 71.6949C40.0011 71.7493 39.9127 71.8485 39.9038 72.0113C39.895 72.173 39.9712 72.2803 40.1003 72.3598C40.2124 72.4286 40.3341 72.4512 40.4666 72.4597C41.1618 72.5045 41.8478 72.3491 42.5415 72.375C42.5667 72.3761 42.5926 72.3694 42.6177 72.3635C43.0299 72.261 43.4558 72.2836 43.8742 72.2348C44.407 72.1726 44.939 72.1045 45.4685 72.0235C46.0361 71.9369 46.597 71.8048 47.1597 71.6879C48.444 71.4208 49.7019 71.0726 50.8663 70.4492C51.2618 70.2372 51.6274 69.9904 51.903 69.616C52.3459 69.0136 52.2937 68.1663 51.7406 67.6661C51.4834 67.4334 51.1897 67.2454 50.8726 67.1015C50.2288 66.8092 49.5465 66.6305 48.8683 66.4418C48.0551 66.2154 47.2256 66.0581 46.3942 65.919C45.7275 65.8076 45.053 65.7366 44.3796 65.6722C43.9212 65.6282 43.4524 65.6315 43.0025 65.5679C42.3129 65.4702 41.6228 65.5331 40.9328 65.4543C40.0433 65.3529 39.1409 65.4528 38.2411 65.3729C37.0379 65.266 35.8306 65.4491 34.6237 65.4384C34.5852 65.438 34.5456 65.4395 34.5086 65.4495C34.0461 65.572 33.5674 65.5191 33.0971 65.5768C32.5529 65.6434 32.006 65.7059 31.4618 65.7747C30.8935 65.8465 30.3263 65.942 29.7605 66.0444C28.8267 66.2135 27.9043 66.4155 27.0093 66.7352C26.9075 66.7715 26.8173 66.8059 26.771 66.9095C26.7318 66.8769 26.6848 66.8499 26.6545 66.8103C26.0802 66.0648 25.6215 65.2508 25.2374 64.3943C24.9962 63.8559 24.7653 63.3132 24.5229 62.7756C24.3868 62.4733 24.1337 62.2679 23.8836 62.0674C23.7878 61.9905 23.6557 61.9109 23.5325 62.0208C23.3553 62.1795 23.2172 62.3841 23.2402 62.6228C23.2794 63.0283 23.3549 63.4305 23.4293 63.8315C23.5835 64.6655 23.8596 65.4636 24.1548 66.2572C24.8907 68.2348 26.1576 69.7969 27.8906 70.9764C28.9891 71.7245 30.2005 72.2555 31.4729 72.6406C32.0489 72.8149 32.6368 72.9392 33.237 72.9966C33.631 73.0339 34.0236 73.0883 34.4165 73.1272C34.798 73.1653 35.175 73.2552 35.5638 73.2304C35.7318 73.2197 35.8765 73.1867 35.9431 73.0243C36.0045 72.8741 35.8761 72.7912 35.7888 72.7006C35.4473 72.3472 34.9981 72.1637 34.556 72.0076C33.1933 71.5259 31.9061 70.8995 30.6866 70.1288C30.6008 70.0748 30.4946 70.0448 30.4735 69.9245C30.798 69.8505 31.1062 69.9989 31.4281 69.99C33.1345 69.9438 34.8413 70.0252 36.5499 69.9268C38.3047 69.8258 40.0677 69.9826 41.8252 69.8391C42.4116 69.791 43.0007 69.8298 43.5915 69.774C44.3415 69.7033 45.1018 69.7666 45.8574 69.687C46.2163 69.6493 46.5677 69.5871 46.9092 69.4857C47.119 69.4236 47.2944 69.2856 47.3162 69.0262C47.3381 68.7642 47.1827 68.6266 46.9844 68.5127C46.9396 68.4871 46.8933 68.4649 46.8471 68.442C46.3147 68.1767 45.7423 68.0272 45.1651 67.9136C44.2242 67.7283 43.2645 67.6768 42.311 67.6088C41.4556 67.5473 40.5939 67.6114 39.7359 67.5259C39.2515 67.4778 38.765 67.5536 38.2792 67.5888C37.5385 67.6424 36.7959 67.5869 36.05 67.6546C35.3134 67.7212 34.5715 67.7475 33.8327 67.8193C33.1966 67.8811 32.5632 67.9562 31.935 68.0661C31.2775 68.1811 30.6345 68.3428 30.0832 68.7568C29.8423 68.9378 29.6677 69.1342 29.7065 69.4561C29.6014 69.455 29.513 69.4191 29.4246 69.3573C28.7878 68.9141 28.1873 68.425 27.6068 67.9114C27.4866 67.8052 27.3371 67.7094 27.3149 67.524ZM23.2306 33.6103C23.2646 33.9126 23.164 34.3396 23.2953 34.7562C23.326 34.8535 23.316 34.9819 23.437 35.0037C23.5828 35.03 23.6657 34.923 23.7345 34.8054C23.8403 34.6237 23.8862 34.4195 23.9128 34.22C24.1041 32.7993 24.4501 31.4107 24.7631 30.0151C25.0128 28.9022 25.358 27.8162 25.6806 26.7237C26.2712 24.7264 26.966 22.7733 28.0615 20.9869C28.4504 20.3532 28.8678 19.7397 29.3839 19.1969C29.849 18.7082 30.3855 18.3234 30.9715 17.9952C31.7359 17.5671 32.5177 17.1879 33.3746 16.9792C34.2078 16.7765 35.0433 16.5807 35.8691 16.351C36.2716 16.2389 36.6875 16.1275 36.9846 15.7838C37.0963 15.6543 37.1618 15.5263 37.1093 15.3664C37.0534 15.1966 36.894 15.1585 36.7393 15.1359C36.6509 15.123 36.5595 15.1293 36.4696 15.1296C36.097 15.1322 35.7233 15.0863 35.3622 15.0275C34.5664 14.898 33.7624 14.8558 32.965 14.7515C32.8392 14.7352 32.7005 14.7297 32.5817 14.7648C32.366 14.8292 32.1496 14.8155 31.932 14.8214C31.7907 14.8255 31.6479 14.8166 31.5084 14.8362C30.7843 14.9365 30.0817 15.1178 29.3861 15.3494C28.3446 15.6964 27.5569 16.3735 26.8746 17.1901C26.1032 18.1143 25.7088 19.2339 25.3391 20.3554C25.1271 20.9984 24.9751 21.6614 24.8078 22.3185C24.5844 23.198 24.389 24.0834 24.214 24.9747C24.0734 25.6895 23.9817 26.411 23.8588 27.1277C23.7319 27.8695 23.6165 28.6158 23.5495 29.365C23.4929 30.001 23.4093 30.6345 23.3641 31.2727C23.312 32.0123 23.2121 32.7486 23.2306 33.6103ZM52.1213 37.9225C52.1213 36.5717 52.122 35.3374 52.1206 34.1031C52.1206 33.9618 52.1183 33.8193 52.101 33.6795C52.0654 33.3946 51.9178 33.2459 51.6337 33.1978C51.4927 33.1741 51.3517 33.19 51.2115 33.2137C50.7797 33.2854 50.3572 33.395 49.9398 33.5256C49.4367 33.6836 48.9257 33.8071 48.404 33.8908C47.5771 34.0239 46.7416 34.0646 45.9095 34.139C44.4092 34.2726 42.9056 34.3059 41.3993 34.2792C39.3914 34.2437 37.3927 34.0813 35.3959 33.8811C34.0646 33.7476 32.7408 33.5663 31.4192 33.365C30.7055 33.2562 29.9862 33.2203 29.2666 33.1944C28.8644 33.1796 28.6924 33.3631 28.6828 33.7564C28.6798 33.8719 28.668 33.9873 28.658 34.1024C28.6002 34.768 28.5207 35.4325 28.4881 36.0992C28.4256 37.3831 28.3757 38.6681 28.3464 39.9531C28.3194 41.1352 28.2872 42.3184 28.3801 43.5002C28.4275 44.1029 28.6254 44.3526 29.197 44.5206C29.3321 44.5602 29.4716 44.5909 29.6111 44.6086C29.9296 44.649 30.2526 44.6612 30.5686 44.7159C32.1418 44.9886 33.7365 45.0623 35.3215 45.2191C36.7796 45.3631 38.2441 45.4415 39.7055 45.5455C40.2827 45.5865 40.8599 45.6261 41.4375 45.6531C42.4135 45.6986 43.3903 45.8281 44.3663 45.7364C46.042 45.5788 47.728 45.5244 49.3889 45.2202C50.1718 45.0771 50.9699 45.0179 51.7361 44.7848C52.2016 44.6431 52.317 44.4891 52.3215 44.0104C52.3218 43.9334 52.3163 43.8565 52.3133 43.7791C52.2316 41.7889 52.0677 39.801 52.1213 37.9225ZM27.8044 11.5296C28.4726 11.6421 29.1441 11.7242 29.8138 11.8215C30.5235 11.9248 31.2435 11.9114 31.9498 12.0391C31.9746 12.0435 32.0012 12.0435 32.0267 12.042C32.8496 11.9958 33.6673 12.1116 34.4879 12.1345C35.125 12.1527 35.7685 12.1571 36.4011 12.2677C36.4267 12.2718 36.4529 12.274 36.4781 12.2726C37.1985 12.227 37.9137 12.3288 38.6307 12.361C40.9694 12.4657 43.3089 12.4542 45.6468 12.4113C46.3717 12.398 47.1087 12.4202 47.8305 12.2844C47.8557 12.2796 47.882 12.2785 47.9075 12.28C48.6534 12.3244 49.3945 12.2196 50.1367 12.1826C50.722 12.1534 51.3129 12.1571 51.8971 12.062C52.2874 11.9988 52.6874 12.0321 53.0848 11.9825C53.6035 11.9177 54.1278 11.8833 54.6476 11.8167C54.5503 11.5936 54.4334 11.3727 54.4234 11.126C54.4149 10.918 54.3231 10.8695 54.1329 10.8836C53.6971 10.9162 53.2605 10.9495 52.8239 10.9535C50.9725 10.9694 49.1207 10.9802 47.2692 10.9824C45.1222 10.9846 42.9755 10.9136 40.8277 10.9472C38.2407 10.9879 35.6637 10.8133 33.0934 10.5221C31.5228 10.3442 29.9485 10.1988 28.3749 10.0474C28.1115 10.0219 27.8518 9.93236 27.5473 9.9738C27.6065 10.5092 27.3482 10.8581 26.902 11.0989C26.7936 11.1574 26.6781 11.2244 26.6308 11.355C27.0363 11.3143 27.4152 11.4641 27.8044 11.5296Z" fill="#D0DAE8" fill-opacity="0.54"/>
<path d="M29.7081 69.4523C29.6692 69.1304 29.8439 68.934 30.0847 68.7531C30.636 68.339 31.2791 68.1773 31.9365 68.0623C32.5648 67.9524 33.1982 67.8773 33.8342 67.8155C34.5731 67.7437 35.3149 67.7174 36.0516 67.6509C36.7975 67.5831 37.54 67.6386 38.2808 67.585C38.7666 67.5498 39.2531 67.474 39.7374 67.5221C40.5954 67.6076 41.4571 67.5436 42.3126 67.605C43.266 67.673 44.2258 67.7245 45.1667 67.9098C45.7439 68.0234 46.3162 68.1729 46.8486 68.4382C46.8949 68.4611 46.9411 68.4833 46.9859 68.5089C47.1842 68.6228 47.3396 68.7605 47.3178 69.0224C47.296 69.2818 47.1206 69.4198 46.9108 69.4819C46.5693 69.5833 46.2178 69.6455 45.8589 69.6832C45.1034 69.7628 44.3431 69.6995 43.5931 69.7702C43.0022 69.826 42.4132 69.7872 41.8268 69.8353C40.0693 69.9788 38.3063 69.822 36.5514 69.923C34.8428 70.0214 33.136 69.94 31.4296 69.9862C31.1078 69.9951 30.7995 69.8467 30.4751 69.9207C30.1735 69.8397 29.9082 69.6991 29.7081 69.4523ZM27.3165 67.5202C27.3875 67.4918 27.4574 67.4581 27.5303 67.4351C28.2263 67.2146 28.9422 67.087 29.6585 66.9519C30.663 66.7621 31.6716 66.6152 32.6876 66.5028C32.9936 66.4687 33.3018 66.465 33.6041 66.4221C34.1879 66.3392 34.7773 66.2904 35.3615 66.2911C37.301 66.2934 39.2409 66.2379 41.1811 66.3426C41.9218 66.3825 42.6685 66.3981 43.4081 66.4528C44.0419 66.4994 44.679 66.559 45.3121 66.6504C45.7916 66.7192 46.2744 66.781 46.7521 66.8598C47.6985 67.0163 48.6294 67.2542 49.5474 67.5317C50.0861 67.6949 50.6137 67.8984 51.0743 68.2395C51.2515 68.3709 51.3777 68.5262 51.3259 68.759C51.2756 68.9876 51.1868 69.2026 50.9844 69.3424C50.6144 69.5985 50.2285 69.8227 49.8078 69.9922C48.9025 70.3573 47.9727 70.6345 47.0174 70.8324C46.2796 70.9852 45.5433 71.1402 44.7926 71.2268C44.3235 71.2812 43.8543 71.3378 43.3852 71.3937C42.8897 71.4521 42.3928 71.5021 41.8971 71.5169C41.4094 71.5309 40.9303 71.6445 40.44 71.6123C40.3435 71.6061 40.2399 71.6549 40.1448 71.6912C40.0027 71.7455 39.9143 71.8447 39.9054 72.0075C39.8965 72.1692 39.9727 72.2765 40.1019 72.356C40.214 72.4248 40.3357 72.4474 40.4682 72.4559C41.1634 72.5007 41.8493 72.3453 42.5431 72.3712C42.5682 72.3723 42.5941 72.3656 42.6193 72.3597C43.0314 72.2572 43.4573 72.2798 43.8758 72.231C44.4086 72.1688 44.9406 72.1007 45.4701 72.0197C46.0376 71.9331 46.5985 71.801 47.1613 71.6841C48.4455 71.417 49.7035 71.0688 50.8679 70.4454C51.2634 70.2334 51.6289 69.9866 51.9046 69.6122C52.3474 69.0098 52.2953 68.1625 51.7421 67.6623C51.485 67.4296 51.1912 67.2416 50.8741 67.0977C50.2304 66.8054 49.5481 66.6267 48.8699 66.438C48.0567 66.2116 47.2271 66.0543 46.3958 65.9152C45.7291 65.8039 45.0546 65.7328 44.3812 65.6684C43.9228 65.6244 43.454 65.6277 43.0041 65.5641C42.3144 65.4664 41.6244 65.5293 40.9343 65.4505C40.0449 65.3491 39.1425 65.449 38.2427 65.3691C37.0394 65.2622 35.8322 65.4453 34.6253 65.4346C34.5868 65.4342 34.5472 65.4357 34.5102 65.4457C34.0477 65.5682 33.5689 65.5153 33.0987 65.573C32.5544 65.6396 32.0076 65.7021 31.4633 65.7709C30.895 65.8427 30.3278 65.9382 29.7621 66.0407C28.8282 66.2097 27.9058 66.4118 27.0108 66.7314C26.9091 66.7677 26.8188 66.8021 26.7726 66.9057C26.9069 67.1521 27.0893 67.356 27.3165 67.5202Z" fill="#B3CEDB"/>
<path d="M26.6315 11.3529C27.037 11.3122 27.4159 11.4621 27.8051 11.5276C28.4733 11.6401 29.1448 11.7222 29.8145 11.8195C30.5242 11.9227 31.2442 11.9094 31.9505 12.0371C31.9753 12.0415 32.0019 12.0415 32.0274 12.04C32.8503 11.9938 33.668 12.1096 34.4886 12.1325C35.1257 12.1506 35.7691 12.1551 36.4018 12.2657C36.4274 12.2698 36.4536 12.272 36.4788 12.2705C37.1992 12.225 37.9144 12.3268 38.6314 12.3589C40.9701 12.4637 43.3096 12.4522 45.6475 12.4093C46.3723 12.3959 47.1094 12.4181 47.8312 12.2824C47.8564 12.2775 47.8826 12.2764 47.9082 12.2779C48.6541 12.3223 49.3952 12.2176 50.1374 12.1806C50.7227 12.1514 51.3136 12.1551 51.8978 12.06C52.2881 11.9967 52.6881 12.03 53.0855 11.9804C53.6042 11.9157 54.1285 11.8813 54.6483 11.8147C54.9547 12.1795 54.9569 12.2391 54.6816 12.6035C54.4463 12.5362 54.2228 12.6401 53.9993 12.6712C53.2771 12.7704 52.546 12.7685 51.8264 12.8825C51.8012 12.8862 51.775 12.8891 51.7494 12.8877C51.0683 12.8462 50.3908 12.9391 49.716 12.9872C49.0533 13.0345 48.3829 12.9802 47.7265 13.1148C47.7017 13.12 47.6751 13.1208 47.6496 13.1196C46.8019 13.0767 45.9609 13.2229 45.1133 13.207C44.6023 13.1973 44.091 13.1818 43.5774 13.2606C43.2681 13.3083 42.9388 13.3154 42.6214 13.2232C42.5133 13.1922 42.392 13.2044 42.2765 13.204C41.4925 13.201 40.7059 13.2384 39.9253 13.187C39.2075 13.1396 38.4878 13.1681 37.7749 13.1052C37.3394 13.0667 36.8969 13.1089 36.4736 13.0316C35.9264 12.9317 35.3688 13.046 34.8301 12.9002C34.7816 12.8873 34.7276 12.8921 34.6766 12.8947C33.7771 12.9417 32.8821 12.8344 31.9864 12.7959C31.3019 12.7667 30.613 12.6986 29.9281 12.6087C29.2954 12.5258 28.6631 12.4378 28.0304 12.3545C27.7274 12.3149 27.4321 12.2235 27.1236 12.222C26.9941 12.1196 26.8612 12.0211 26.7354 11.9142C26.5264 11.737 26.5146 11.6608 26.6315 11.3529ZM23.296 34.7541C23.3267 34.8514 23.3167 34.9798 23.4377 35.0016C23.5835 35.0279 23.6664 34.921 23.7352 34.8033C23.841 34.6217 23.8869 34.4174 23.9135 34.218C24.1048 32.7972 24.4508 31.4087 24.7638 30.0131C25.0135 28.9001 25.3587 27.8142 25.6813 26.7216C26.2719 24.7244 26.9667 22.7712 28.0622 20.9849C28.4511 20.3511 28.8684 19.7377 29.3846 19.1949C29.8497 18.7061 30.3861 18.3213 30.9722 17.9932C31.7366 17.5651 32.5184 17.1858 33.3753 16.9772C34.2085 16.7744 35.044 16.5787 35.8698 16.3489C36.2723 16.2368 36.6882 16.1255 36.9853 15.7817C37.097 15.6522 37.1625 15.5242 37.11 15.3644C37.0541 15.1946 36.8947 15.1564 36.74 15.1339C36.6516 15.1209 36.5602 15.1272 36.4703 15.1276C36.0977 15.1302 35.724 15.0843 35.3629 15.0255C34.567 14.896 33.7631 14.8538 32.9657 14.7495C32.8399 14.7332 32.7012 14.7276 32.5824 14.7628C32.3667 14.8272 32.1503 14.8135 31.9327 14.8194C31.7914 14.8235 31.6486 14.8146 31.5091 14.8342C30.785 14.9345 30.0824 15.1157 29.3868 15.3474C28.3453 15.6944 27.5576 16.3715 26.8753 17.1881C26.1039 18.1123 25.7095 19.2319 25.3398 20.3533C25.1278 20.9964 24.9758 21.6594 24.8085 22.3165C24.5851 23.196 24.3897 24.0814 24.2147 24.9727C24.0741 25.6875 23.9823 26.409 23.8595 27.1257C23.7326 27.8675 23.6172 28.6138 23.5502 29.363C23.4936 29.999 23.41 30.6324 23.3648 31.2707C23.3127 32.0103 23.2128 32.7466 23.2313 33.6083C23.2653 33.9105 23.1647 34.3375 23.296 34.7541ZM26.6552 66.8083C26.0809 66.0628 25.6221 65.2488 25.2381 64.3922C24.9969 63.8539 24.766 63.3111 24.5236 62.7735C24.3875 62.4713 24.1344 62.2659 23.8843 62.0654C23.7885 61.9884 23.6564 61.9089 23.5332 62.0188C23.356 62.1775 23.2179 62.3821 23.2409 62.6207C23.2801 63.0262 23.3556 63.4284 23.43 63.8295C23.5842 64.6634 23.8602 65.4615 24.1555 66.2551C24.8914 68.2328 26.1583 69.7949 27.8913 70.9744C28.9898 71.7225 30.2012 72.2534 31.4736 72.6386C32.0496 72.8129 32.6375 72.9372 33.2377 72.9945C33.6317 73.0319 34.0243 73.0863 34.4172 73.1251C34.7987 73.1632 35.1757 73.2532 35.5645 73.2284C35.7325 73.2176 35.8772 73.1847 35.9438 73.0223C36.0052 72.8721 35.8768 72.7892 35.7895 72.6985C35.448 72.3452 34.9988 72.1617 34.5567 72.0055C33.194 71.5238 31.9068 70.8974 30.6873 70.1267C30.6015 70.0727 30.4953 70.0427 30.4742 69.9225C30.1727 69.8415 29.9074 69.7009 29.7072 69.4541C29.6021 69.453 29.5137 69.4171 29.4253 69.3553C28.7885 68.9121 28.188 68.4229 27.6075 67.9094C27.4873 67.8032 27.3378 67.7074 27.3156 67.522C27.0884 67.3577 26.906 67.1539 26.7717 66.9074C26.7325 66.8749 26.6855 66.8479 26.6552 66.8083Z" fill="white"/>
<mask id="mask1_1_2" style="mask-type:luminance" maskUnits="userSpaceOnUse" x="20" y="3" width="39" height="73">
<path d="M20 3H59V75.6485H20V3Z" fill="white"/>
</mask>
<g mask="url(#mask1_1_2)">
<path d="M58.9772 41.1234C58.985 44.0811 58.8596 46.7798 58.881 49.4807C58.8888 50.4705 58.9017 51.4609 58.8936 52.4507C58.8729 54.9984 58.7142 57.5373 58.3723 60.0636C58.1736 61.5299 57.8787 62.9747 57.4747 64.3973C56.8568 66.5714 55.6928 68.4565 54.3638 70.2524C53.6749 71.1833 52.8183 71.9322 51.8371 72.5467C50.9828 73.0817 50.0619 73.4713 49.1269 73.8332C48.0188 74.2624 46.8578 74.4807 45.6934 74.6893C43.9552 75.0009 42.1963 75.1048 40.4399 75.2365C39.0033 75.3442 37.5684 75.4707 36.1318 75.5795C32.4189 75.8607 28.9277 75.1707 25.809 73.0662C23.9739 71.8278 22.4747 70.2483 21.4883 68.2326C20.9118 67.0546 20.5751 65.8084 20.449 64.505C20.2791 62.7497 20.2702 60.9871 20.2192 59.227C20.1452 56.6693 20.0975 54.1108 20.0523 51.5527C20.0027 48.7363 20.0727 45.9214 20.1966 43.1076C20.2817 41.1807 20.409 39.2564 20.5385 37.3325C20.6802 35.2291 20.8319 33.126 20.9666 31.0219C21.0391 29.893 21.0824 28.7624 21.1427 27.6324C21.2515 25.5904 21.4094 23.5544 21.9174 21.5627C22.2715 20.1738 22.7477 18.8373 23.541 17.629C23.8314 17.1868 24.1496 16.7691 24.5015 16.3751C25.0158 15.7997 25.5293 15.224 26.0391 14.645C26.2856 14.3649 26.5164 14.0708 26.6752 13.73C26.7395 13.5912 26.8028 13.4458 26.8306 13.2967C26.9042 12.9042 26.8372 12.5468 26.4717 12.3155C25.9537 11.9884 25.9925 11.1726 26.4676 10.8248C26.5816 10.7416 26.7003 10.6646 26.8198 10.5891C26.9208 10.5259 26.9989 10.4471 27.0459 10.335C27.1857 10.0023 27.114 9.86322 26.7669 9.78256C26.5423 9.73039 26.3129 9.68932 26.1087 9.57129C25.7302 9.35337 25.6869 9.02371 25.9973 8.72179C26.0066 8.71292 26.0155 8.70182 26.0266 8.69701C26.4698 8.50017 26.4476 8.11279 26.3781 7.74391C26.26 7.11825 26.2937 6.5185 26.5494 5.93243C26.6234 5.76298 26.6248 5.58871 26.5819 5.4052C26.472 4.93938 26.4128 4.46912 26.5164 3.9922C26.6141 3.54192 26.7325 3.43018 27.1854 3.39319C28.4955 3.287 29.8079 3.28848 31.1191 3.35656C32.6779 3.43758 34.2307 3.39985 35.7803 3.213C37.3187 3.02726 38.8608 3.03873 40.4044 3.11976C41.0722 3.15491 41.7397 3.20264 42.4083 3.22188C44.8643 3.29144 47.3181 3.41576 49.7704 3.56745C51.1179 3.65107 52.4639 3.76355 53.8103 3.86751C54.0793 3.88823 54.3468 3.92893 54.6147 3.96408C54.9162 4.00404 55.1064 4.17165 55.1715 4.47097C55.4153 5.59204 55.4449 6.71274 55.1308 7.82531C55.0324 8.17458 54.9835 8.49721 55.2333 8.80874C55.3102 8.90494 55.3602 9.03777 55.3813 9.16097C55.419 9.38038 55.4886 9.56981 55.6392 9.74408C55.7738 9.89948 55.7638 10.1004 55.6791 10.2913C55.5918 10.4889 55.449 10.628 55.2555 10.7205C55.1534 10.769 54.9939 10.7527 54.9554 10.8652C54.9058 11.0094 54.9443 11.1745 54.9998 11.318C55.0601 11.4727 55.1363 11.624 55.2255 11.7639C55.4349 12.0928 55.4179 12.4202 55.2399 12.7491C55.136 12.9408 55.0157 13.1239 54.9069 13.313C54.5222 13.9823 54.5684 14.642 54.9739 15.2803C55.3465 15.8667 55.7809 16.4095 56.2078 16.9567C56.358 17.1491 56.5042 17.3448 56.6563 17.5357C57.5731 18.6879 58.0089 20.0283 58.2124 21.4635C58.3715 22.585 58.4281 23.7153 58.4981 24.8438C58.6183 26.794 58.7493 28.7439 58.8022 30.6974C58.8488 32.4068 58.8821 34.1169 58.9176 35.8262C58.9561 37.6777 58.9965 39.5287 58.9772 41.1234ZM54.652 11.8097C54.5547 11.5866 54.4378 11.3658 54.4278 11.119C54.4193 10.911 54.3275 10.8626 54.1374 10.8766C53.7015 10.9092 53.2649 10.9425 52.8283 10.9466C50.9769 10.9625 49.1251 10.9732 47.2737 10.9754C45.1266 10.9776 42.9799 10.9066 40.8321 10.9403C38.2451 10.981 35.6682 10.8063 33.0978 10.5151C31.5272 10.3372 29.9529 10.1918 28.3793 10.0404C28.1159 10.0149 27.8562 9.92538 27.5517 9.96681C27.6109 10.5022 27.3526 10.8511 26.9064 11.092C26.798 11.1504 26.6826 11.2174 26.6352 11.348C26.5183 11.6558 26.5301 11.732 26.7392 11.9093C26.865 12.0162 26.9978 12.1146 27.1273 12.2171C27.4773 12.8372 27.4185 13.4473 27.0833 14.0511C26.9582 14.2765 26.8198 14.4929 26.6541 14.6909C26.2086 15.2233 25.7705 15.7631 25.2847 16.2596C24.0456 17.5257 23.1995 19.0146 22.6774 20.7043C22.0695 22.6727 21.8175 24.6947 21.6973 26.7392C21.6018 28.3565 21.5364 29.9752 21.4324 31.592C21.237 34.6456 21.0184 37.6976 20.8189 40.7508C20.6547 43.266 20.5788 45.7849 20.5389 48.3053C20.4908 51.3407 20.6132 54.3735 20.6724 57.407C20.7168 59.6825 20.7583 61.9583 20.9225 64.2289C21.0335 65.7611 21.4461 67.2129 22.2219 68.5464C23.4292 70.6216 25.1193 72.21 27.2224 73.3448C30.1712 74.9357 33.3409 75.376 36.642 75.0408C38.0883 74.8939 39.5386 74.8033 40.9883 74.6967C42.4889 74.5865 43.9878 74.471 45.4751 74.2261C47.0672 73.9645 48.6175 73.5786 50.0963 72.9141C51.6488 72.2163 53.0089 71.2824 54.0193 69.8894C54.2158 69.619 54.4082 69.3459 54.5962 69.0695C55.6484 67.5189 56.5305 65.8865 57.0092 64.0595C57.3777 62.6539 57.6612 61.2328 57.8432 59.7898C58.151 57.3497 58.3031 54.9 58.3086 52.4421C58.3135 50.1667 58.2783 47.8913 58.3394 45.6154C58.4611 41.0768 58.3671 36.5381 58.2702 32.0001C58.2217 29.7376 58.0989 27.4781 57.959 25.2197C57.8835 24.0013 57.8258 22.7818 57.6726 21.5686C57.4799 20.0406 56.9622 18.6601 55.9651 17.4651C55.4223 16.8142 54.8936 16.1464 54.4607 15.4149C54.0145 14.6616 53.9783 13.8846 54.4115 13.1047C54.5044 12.9371 54.5939 12.7673 54.6853 12.5986C54.9606 12.2341 54.9584 12.1746 54.652 11.8097ZM26.361 9.13211C26.4965 9.2124 26.6167 9.24348 26.7418 9.2716C27.622 9.46844 28.5162 9.56315 29.4127 9.64825C30.5904 9.76036 31.7673 9.87913 32.9428 10.0097C34.5667 10.1899 36.1935 10.3353 37.8256 10.4027C39.4069 10.4682 40.9901 10.4215 42.5726 10.4297C45.454 10.4448 48.3355 10.5251 51.2174 10.4774C52.3366 10.4589 53.4555 10.4352 54.5717 10.3431C54.7268 10.3301 54.8822 10.3194 55.0228 10.2506C55.2029 10.1629 55.2359 10.0486 55.1078 9.88949C54.9891 9.7426 54.9217 9.58128 54.9018 9.40036C54.8829 9.22905 54.8255 9.07366 54.7305 8.93454C54.4944 8.58971 54.4615 8.22638 54.5888 7.83271C54.9081 6.84261 54.8873 5.83402 54.729 4.82135C54.675 4.47541 54.6687 4.47541 54.3257 4.42398C54.2495 4.41251 54.1721 4.40881 54.0956 4.4003C53.0085 4.2782 51.9152 4.23972 50.8259 4.14908C48.5686 3.96186 46.3061 3.88231 44.0448 3.77724C42.6184 3.71064 41.1914 3.65884 39.7654 3.58632C38.5552 3.5249 37.349 3.55672 36.1432 3.6766C35.4395 3.74653 34.7373 3.83162 34.0298 3.8664C32.6009 3.9367 31.1746 3.86307 29.7479 3.80684C28.9754 3.77613 28.2047 3.7913 27.4344 3.84457C27.1332 3.86566 27.0396 3.97037 26.9793 4.25822C26.8879 4.69259 27.0559 5.09699 27.1051 5.51508C27.1199 5.63829 27.2246 5.62904 27.313 5.63496C27.7492 5.66308 28.1855 5.69194 28.6221 5.7171C29.6495 5.77593 30.6777 5.82181 31.7041 5.89284C33.6036 6.02345 35.5028 6.1511 37.4071 6.1696C38.7324 6.18255 40.0563 6.23583 41.3804 6.27911C41.5088 6.28318 41.6372 6.29613 41.7649 6.30945C41.8899 6.32314 41.9935 6.37383 42.0046 6.5148C42.0179 6.68204 41.8958 6.73901 41.7634 6.76084C41.6376 6.78156 41.5074 6.78748 41.3793 6.78267C40.8784 6.76417 40.3774 6.7231 39.8761 6.71903C36.1565 6.68684 32.4459 6.46633 28.7382 6.1918C28.238 6.1548 27.7374 6.12261 27.2375 6.0808C27.1262 6.07155 27.0403 6.06526 26.9934 6.19476C26.879 6.50999 26.7643 6.82448 26.8058 7.16894C26.838 7.43682 26.8898 7.70358 26.9046 7.97219C26.9153 8.16311 27.0004 8.199 27.1698 8.20529C27.6712 8.22416 28.1721 8.25191 28.672 8.29298C30.0561 8.40693 31.4392 8.53125 32.8229 8.64817C33.8608 8.73585 34.9019 8.79579 35.9371 8.9079C38.0753 9.13914 40.2209 9.22091 42.3691 9.23756C43.6811 9.24755 44.993 9.20204 46.3054 9.18391C46.446 9.18206 46.5892 9.18428 46.7276 9.20722C46.8334 9.22498 46.9151 9.29898 46.9166 9.4196C46.9181 9.54021 46.84 9.60718 46.7313 9.63308C46.6569 9.65084 46.5788 9.65491 46.5019 9.65787C46.1548 9.6723 45.8078 9.6871 45.4607 9.69672C43.1834 9.75999 40.9054 9.75037 38.6314 9.62642C37.0527 9.54021 35.478 9.37742 33.9022 9.24052C31.7625 9.05442 29.6229 8.86905 27.4851 8.66186C27.0215 8.61709 26.6589 8.71773 26.361 9.13211ZM52.1257 37.9156C52.0721 39.794 52.236 41.782 52.3177 43.7721C52.3207 43.8495 52.3263 43.9264 52.3259 44.0034C52.3214 44.4822 52.206 44.6361 51.7406 44.7778C50.9743 45.0109 50.1762 45.0701 49.3933 45.2133C47.7325 45.5174 46.0464 45.5718 44.3707 45.7294C43.3947 45.8212 42.4179 45.6917 41.4419 45.6461C40.8643 45.6191 40.2871 45.5795 39.7099 45.5385C38.2485 45.4345 36.7841 45.3561 35.3259 45.2121C33.7409 45.0553 32.1462 44.9816 30.573 44.709C30.257 44.6542 29.934 44.642 29.6155 44.6017C29.476 44.5839 29.3365 44.5532 29.2015 44.5136C28.6298 44.3456 28.4319 44.0959 28.3845 43.4932C28.2916 42.3114 28.3238 41.1282 28.3508 39.9461C28.3801 38.6611 28.43 37.3761 28.4926 36.0922C28.5251 35.4255 28.6047 34.761 28.6624 34.0954C28.6724 33.9803 28.6842 33.8649 28.6872 33.7495C28.6968 33.3562 28.8688 33.1726 29.271 33.1874C29.9906 33.2133 30.7099 33.2492 31.4236 33.358C32.7452 33.5593 34.0691 33.7406 35.4003 33.8741C37.3971 34.0743 39.3958 34.2367 41.4038 34.2723C42.91 34.2989 44.4136 34.2656 45.9139 34.132C46.7461 34.0577 47.5815 34.017 48.4084 33.8838C48.9301 33.8001 49.4411 33.6766 49.9443 33.5186C50.3616 33.388 50.7841 33.2785 51.2159 33.2067C51.3561 33.183 51.4971 33.1671 51.6381 33.1908C51.9222 33.2389 52.0699 33.3876 52.1054 33.6725C52.1228 33.8124 52.125 33.9548 52.125 34.0961C52.1265 35.3304 52.1257 36.5647 52.1257 37.9156ZM51.7446 38.9656C51.7446 38.0399 51.7461 37.1142 51.7443 36.1884C51.7424 35.4303 51.7413 34.6715 51.7309 33.9134C51.7269 33.6041 51.6618 33.5441 51.3602 33.5863C51.0809 33.6255 50.7982 33.6725 50.5311 33.7598C49.3256 34.1531 48.0888 34.3485 46.8271 34.4543C45.0822 34.6012 43.3377 34.6896 41.5865 34.6659C39.9519 34.6437 38.3217 34.5475 36.6953 34.3955C35.5945 34.2922 34.4945 34.1757 33.3979 34.0377C32.161 33.8819 30.9341 33.6477 29.6854 33.5907C29.2769 33.5722 29.0579 33.748 29.0183 34.1616C28.9928 34.4302 28.9621 34.6985 28.9454 34.9678C28.8063 37.2651 28.7219 39.5642 28.716 41.866C28.7145 42.4313 28.7264 42.9966 28.7774 43.5609C28.8045 43.8572 28.9473 44.0371 29.2244 44.1181C29.3598 44.1577 29.4967 44.1984 29.6358 44.2176C29.967 44.2628 30.3 44.292 30.6315 44.3345C31.2945 44.4193 31.9549 44.5447 32.6205 44.5898C34.3654 44.7071 36.1022 44.9143 37.8489 45.0212C39.5301 45.1245 41.211 45.2417 42.8922 45.3476C43.3037 45.3735 43.7162 45.3923 44.1265 45.3624C45.2424 45.281 46.3572 45.1855 47.472 45.0934C48.3318 45.0227 49.1758 44.8392 50.0305 44.7319C50.5662 44.6646 51.0986 44.5695 51.6185 44.4185C51.8941 44.3386 51.9263 44.2938 51.93 44.013C51.9322 43.8202 51.9163 43.6275 51.91 43.4351C51.8634 41.9448 51.7398 40.4574 51.7446 38.9656Z" fill="#0D0B0A"/>
</g>
<path d="M26.3596 9.13492C26.6574 8.72053 27.02 8.61989 27.4836 8.66466C29.6214 8.87186 31.7611 9.05722 33.9008 9.24333C35.4765 9.38022 37.0512 9.54302 38.63 9.62923C40.9039 9.75317 43.182 9.76279 45.4593 9.69953C45.8063 9.68991 46.1534 9.67511 46.5004 9.66068C46.5774 9.65772 46.6555 9.65365 46.7298 9.63589C46.8386 9.60999 46.9167 9.54302 46.9152 9.4224C46.9137 9.30178 46.8319 9.22779 46.7261 9.21003C46.5877 9.18709 46.4446 9.18487 46.304 9.18672C44.9916 9.20485 43.6796 9.25036 42.3676 9.24037C40.2195 9.22372 38.0739 9.14195 35.9357 8.9107C34.9005 8.7986 33.8593 8.73866 32.8215 8.65097C31.4377 8.53405 30.0547 8.40974 28.6706 8.29578C28.1707 8.25471 27.6697 8.22696 27.1684 8.20809C26.9989 8.2018 26.9139 8.16591 26.9031 7.975C26.8883 7.70638 26.8365 7.43962 26.8043 7.17175C26.7629 6.82729 26.8776 6.51279 26.9919 6.19756C27.0389 6.06806 27.1247 6.07435 27.2361 6.0836C27.736 6.12541 28.2366 6.1576 28.7368 6.1946C32.4445 6.46913 36.1551 6.68965 39.8746 6.72184C40.376 6.72591 40.8769 6.76698 41.3779 6.78548C41.5059 6.79029 41.6362 6.78437 41.762 6.76365C41.8944 6.74182 42.0165 6.68484 42.0032 6.5176C41.9921 6.37664 41.8885 6.32595 41.7634 6.31226C41.6358 6.29894 41.5074 6.28599 41.379 6.28192C40.0548 6.23863 38.731 6.18535 37.4057 6.1724C35.5013 6.1539 33.6022 6.02626 31.7026 5.89565C30.6763 5.82461 29.6481 5.77873 28.6206 5.7199C28.184 5.69474 27.7478 5.66588 27.3116 5.63776C27.2232 5.63184 27.1185 5.64109 27.1037 5.51789C27.0544 5.0998 26.8865 4.6954 26.9779 4.26103C27.0382 3.97318 27.1318 3.86847 27.4329 3.84738C28.2033 3.7941 28.974 3.77893 29.7465 3.80964C31.1732 3.86588 32.5995 3.93951 34.0284 3.86921C34.7358 3.83443 35.4381 3.74933 36.1418 3.6794C37.3476 3.55953 38.5538 3.52771 39.764 3.58913C41.1899 3.66164 42.617 3.71344 44.0433 3.78004C46.3047 3.88512 48.5672 3.96467 50.8245 4.15188C51.9138 4.24253 53.0071 4.28101 54.0941 4.40311C54.1707 4.41161 54.248 4.41531 54.3243 4.42678C54.6672 4.47821 54.6735 4.47821 54.7275 4.82415C54.8859 5.83682 54.9066 6.84542 54.5873 7.83551C54.46 8.22918 54.493 8.59251 54.729 8.93734C54.8241 9.07646 54.8815 9.23186 54.9003 9.40316C54.9203 9.58409 54.9877 9.7454 55.1064 9.89229C55.2344 10.0514 55.2015 10.1657 55.0213 10.2534C54.8807 10.3222 54.7253 10.3329 54.5703 10.3459C53.454 10.438 52.3352 10.4617 51.216 10.4802C48.3341 10.5279 45.4526 10.4476 42.5711 10.4325C40.9887 10.4243 39.4055 10.471 37.8241 10.4055C36.1921 10.3381 34.5653 10.1927 32.9414 10.0125C31.7659 9.88193 30.589 9.76316 29.4113 9.65106C28.5148 9.56596 27.6205 9.47124 26.7403 9.27441C26.6153 9.24629 26.495 9.21521 26.3596 9.13492ZM51.7428 36.1912C51.741 35.4331 51.7399 34.6743 51.7295 33.9162C51.7254 33.6069 51.6603 33.5469 51.3588 33.5891C51.0794 33.6283 50.7968 33.6753 50.5296 33.7626C49.3242 34.1559 48.0873 34.3513 46.8257 34.4571C45.0808 34.604 43.3363 34.6924 41.5851 34.6687C39.9505 34.6465 38.3203 34.5503 36.6938 34.3983C35.5931 34.295 34.4931 34.1785 33.3965 34.0405C32.1596 33.8847 30.9327 33.6505 29.684 33.5935C29.2755 33.575 29.0565 33.7508 29.0169 34.1644C28.9913 34.433 28.9606 34.7013 28.944 34.9706C28.8049 37.2679 28.7205 39.567 28.7146 41.8688C28.7131 42.4341 28.725 42.9994 28.776 43.5637C28.803 43.86 28.9458 44.0399 29.223 44.1209C29.3584 44.1605 29.4953 44.2012 29.6344 44.2204C29.9655 44.2656 30.2985 44.2948 30.63 44.3373C31.2931 44.4221 31.9535 44.5475 32.6191 44.5926C34.364 44.7099 36.1007 44.9171 37.8475 45.024C39.5287 45.1273 41.2096 45.2446 42.8908 45.3504C43.3022 45.3763 43.7148 45.3951 44.1251 45.3652C45.241 45.2838 46.3558 45.1883 47.4705 45.0962C48.3304 45.0255 49.1744 44.842 50.029 44.7347C50.5648 44.6674 51.0972 44.5723 51.617 44.4213C51.8927 44.3414 51.9249 44.2966 51.9286 44.0158C51.9308 43.823 51.9149 43.6303 51.9086 43.4379C51.862 41.9476 51.7384 40.4602 51.7432 38.9684C51.7432 38.0427 51.7447 37.117 51.7428 36.1912Z" fill="#D5B250"/>
<path d="M30.727 38.5466V36.5176H31.541C31.7511 36.5176 31.9095 36.566 32.016 36.6626C32.1233 36.7596 32.1773 36.8931 32.1773 37.0637C32.1773 37.1862 32.1455 37.2868 32.0826 37.3656C32.0205 37.4448 31.9276 37.5047 31.8044 37.5462V37.5758C31.8673 37.6035 31.9187 37.6446 31.9583 37.6986C31.9975 37.753 32.0353 37.834 32.0708 37.9413L32.2735 38.5466H31.8606L31.6623 37.9398C31.6416 37.8788 31.6183 37.8314 31.5928 37.7977C31.568 37.7644 31.5358 37.74 31.4966 37.7252C31.457 37.7097 31.4055 37.7015 31.3426 37.7015H31.128V38.5466H30.727ZM31.4936 37.3834C31.6878 37.3834 31.7851 37.2931 31.7851 37.1125C31.7851 36.9283 31.6878 36.8358 31.4936 36.8358H31.128V37.3834H31.4936Z" fill="black"/>
<path d="M33.0411 38.5466H32.64V36.5176H33.0411V38.5466Z" fill="black"/>
<path d="M33.9483 38.5466H33.5591V36.5176H34.0179L34.8333 37.8244L34.8689 37.8199V36.5176H35.2551V38.5466H34.8437L33.9824 37.151L33.9483 37.1569V38.5466Z" fill="black"/>
<path d="M36.4185 38.5677C36.2772 38.5677 36.1521 38.5503 36.0426 38.5159C35.9331 38.4804 35.8417 38.4345 35.7688 38.3782C35.6956 38.322 35.6393 38.2606 35.6001 38.1932L35.8206 37.9239H35.8561C35.9172 38.0149 35.9945 38.0867 36.0885 38.14C36.1821 38.1932 36.292 38.2199 36.4185 38.2199C36.5251 38.2199 36.6054 38.1973 36.6598 38.1518C36.7149 38.1067 36.7426 38.0445 36.7426 37.9653C36.7426 37.9172 36.7337 37.8765 36.716 37.844C36.6982 37.8114 36.669 37.784 36.6287 37.7611C36.588 37.7385 36.5328 37.7189 36.4629 37.7019L36.2024 37.6412C36.0208 37.5998 35.885 37.531 35.7955 37.434C35.7067 37.3375 35.6623 37.212 35.6623 37.0581C35.6623 36.9427 35.6907 36.8417 35.7481 36.7547C35.8051 36.6681 35.8887 36.6008 35.9982 36.5534C36.1077 36.5053 36.2387 36.4809 36.3919 36.4809C36.5476 36.4809 36.6812 36.5016 36.7929 36.5431C36.9043 36.5838 36.9987 36.6463 37.0756 36.731L36.8773 37.0034H36.8418C36.7844 36.9434 36.719 36.8983 36.645 36.8687C36.571 36.8383 36.4866 36.8228 36.3919 36.8228C36.2813 36.8228 36.1973 36.8428 36.1403 36.882C36.0829 36.9205 36.0544 36.9738 36.0544 37.0418C36.0544 37.1062 36.0741 37.1573 36.1136 37.1957C36.154 37.2335 36.2239 37.2623 36.3238 37.2831L36.5902 37.3393C36.7863 37.3807 36.9291 37.4514 37.0179 37.5509C37.1067 37.6508 37.1511 37.7803 37.1511 37.9402C37.1511 38.0667 37.1237 38.177 37.0697 38.2717C37.0153 38.3657 36.9328 38.4385 36.8225 38.4907C36.713 38.5418 36.5784 38.5677 36.4185 38.5677Z" fill="black"/>
<path d="M37.9252 37.6557V38.2107H38.8931V38.5466H37.5241V36.5176H38.8709V36.8535H37.9252V37.3286H38.7525V37.6557H37.9252Z" fill="black"/>
<path d="M40.0057 36.5176C40.335 36.5176 40.5866 36.603 40.7605 36.7736C40.934 36.9434 41.021 37.1965 41.021 37.5328C41.021 37.8673 40.934 38.12 40.7605 38.2906C40.5866 38.4615 40.335 38.5466 40.0057 38.5466H39.2761V36.5176H40.0057ZM39.982 38.2092C40.1911 38.2092 40.3476 38.1559 40.4512 38.0493C40.5548 37.9428 40.6066 37.7707 40.6066 37.5328C40.6066 37.2953 40.5548 37.1229 40.4512 37.0163C40.3476 36.909 40.1911 36.855 39.982 36.855H39.6772V38.2092H39.982Z" fill="black"/>
<path d="M42.9188 38.5762C42.6383 38.5762 42.4308 38.5103 42.2957 38.3779C42.1614 38.2447 42.0945 38.0475 42.0945 37.7859V36.5176H42.4866V37.7829C42.4866 37.9309 42.5222 38.0419 42.5932 38.1159C42.6642 38.1899 42.7727 38.2269 42.9188 38.2269C43.2059 38.2269 43.3495 38.0789 43.3495 37.7829V36.5176H43.7417V37.7859C43.7417 38.0475 43.674 38.2447 43.5389 38.3779C43.4046 38.5103 43.1978 38.5762 42.9188 38.5762Z" fill="black"/>
<path d="M44.8938 38.5677C44.7525 38.5677 44.6274 38.5503 44.5179 38.5159C44.4084 38.4804 44.317 38.4345 44.2441 38.3782C44.1709 38.322 44.1146 38.2606 44.0754 38.1932L44.2959 37.9239H44.3314C44.3925 38.0149 44.4698 38.0867 44.5638 38.14C44.6574 38.1932 44.7673 38.2199 44.8938 38.2199C45.0004 38.2199 45.0807 38.1973 45.135 38.1518C45.1902 38.1067 45.2179 38.0445 45.2179 37.9653C45.2179 37.9172 45.209 37.8765 45.1913 37.844C45.1735 37.8114 45.1443 37.784 45.104 37.7611C45.0633 37.7385 45.0081 37.7189 44.9382 37.7019L44.6777 37.6412C44.4961 37.5998 44.3603 37.531 44.2707 37.434C44.182 37.3375 44.1376 37.212 44.1376 37.0581C44.1376 36.9427 44.166 36.8417 44.2234 36.7547C44.2804 36.6681 44.364 36.6008 44.4735 36.5534C44.583 36.5053 44.714 36.4809 44.8672 36.4809C45.0229 36.4809 45.1565 36.5016 45.2682 36.5431C45.3796 36.5838 45.474 36.6463 45.5509 36.731L45.3526 37.0034H45.3171C45.2597 36.9434 45.1942 36.8983 45.1202 36.8687C45.0462 36.8383 44.9619 36.8228 44.8672 36.8228C44.7565 36.8228 44.6726 36.8428 44.6156 36.882C44.5582 36.9205 44.5297 36.9738 44.5297 37.0418C44.5297 37.1062 44.5494 37.1573 44.5889 37.1957C44.6293 37.2335 44.6992 37.2623 44.7991 37.2831L45.0655 37.3393C45.2616 37.3807 45.4044 37.4514 45.4932 37.5509C45.582 37.6508 45.6264 37.7803 45.6264 37.9402C45.6264 38.0667 45.599 38.177 45.545 38.2717C45.4906 38.3657 45.4081 38.4385 45.2978 38.4907C45.1883 38.5418 45.0536 38.5677 44.8938 38.5677Z" fill="black"/>
<path d="M46.3986 37.6557V38.2107H47.3665V38.5466H45.9976V36.5176H47.3443V36.8535H46.3986V37.3286H47.2259V37.6557H46.3986Z" fill="black"/>
<path d="M48.4755 36.5176C48.8048 36.5176 49.0564 36.603 49.2303 36.7736C49.4038 36.9434 49.4907 37.1965 49.4907 37.5328C49.4907 37.8673 49.4038 38.12 49.2303 38.2906C49.0564 38.4615 48.8048 38.5466 48.4755 38.5466H47.7459V36.5176H48.4755ZM48.4518 38.2092C48.6609 38.2092 48.8174 38.1559 48.921 38.0493C49.0246 37.9428 49.0764 37.7707 49.0764 37.5328C49.0764 37.2953 49.0246 37.1229 48.921 37.0163C48.8174 36.909 48.6609 36.855 48.4518 36.855H48.1469V38.2092H48.4518Z" fill="black"/>
<path d="M33.3511 42.5458C33.1813 42.5458 33.0348 42.5073 32.9116 42.4304C32.788 42.3527 32.6929 42.2358 32.6259 42.0796C32.5586 41.9239 32.5253 41.7315 32.5253 41.5025C32.5253 41.2708 32.5653 41.077 32.6452 40.9208C32.7258 40.7651 32.8379 40.6493 32.9811 40.573C33.1239 40.4972 33.2897 40.4591 33.4784 40.4591C33.6726 40.4591 33.838 40.4953 33.9742 40.5671C34.1111 40.6393 34.208 40.7462 34.2643 40.8883L33.9712 41.0659L33.9357 41.0644C33.8943 40.9737 33.8354 40.9075 33.7596 40.8661C33.6845 40.8246 33.5909 40.8039 33.4784 40.8039C33.3038 40.8039 33.1698 40.8594 33.0773 40.9697C32.9845 41.0803 32.9382 41.2579 32.9382 41.5025C32.9382 41.7474 32.9815 41.9253 33.0684 42.0367C33.155 42.1473 33.283 42.2025 33.4518 42.2025C33.5975 42.2025 33.7052 42.1699 33.7744 42.1048C33.8443 42.0389 33.8795 41.9405 33.8795 41.8103V41.723H33.3985V41.3959H34.2776V42.5162H33.8943V42.2439L33.8647 42.2395C33.8232 42.3371 33.76 42.4126 33.6752 42.4659C33.5912 42.5192 33.4832 42.5458 33.3511 42.5458Z" fill="black"/>
<path d="M35.1445 40.4958V42.1888H36.0562V42.5248H34.7435V40.4958H35.1445Z" fill="black"/>
<path d="M38.0696 42.5248H37.6478L37.4954 42.0571H36.7184L36.5659 42.5248H36.1545L36.8545 40.4958H37.3696L38.0696 42.5248ZM37.0884 40.919L36.8264 41.7197H37.3844L37.1224 40.919H37.0884Z" fill="black"/>
<path d="M38.9942 42.5458C38.8529 42.5458 38.7278 42.5284 38.6183 42.494C38.5088 42.4585 38.4174 42.4126 38.3445 42.3564C38.2712 42.3002 38.215 42.2387 38.1758 42.1714L38.3963 41.902H38.4318C38.4929 41.9931 38.5702 42.0648 38.6642 42.1181C38.7578 42.1714 38.8677 42.198 38.9942 42.198C39.1008 42.198 39.181 42.1755 39.2354 42.13C39.2906 42.0848 39.3183 42.0227 39.3183 41.9435C39.3183 41.8954 39.3094 41.8547 39.2917 41.8221C39.2739 41.7896 39.2447 41.7622 39.2044 41.7392C39.1637 41.7167 39.1085 41.6971 39.0386 41.68L38.7781 41.6194C38.5965 41.5779 38.4607 41.5091 38.3711 41.4122C38.2823 41.3156 38.2379 41.1902 38.2379 41.0363C38.2379 40.9208 38.2664 40.8198 38.3238 40.7329C38.3808 40.6463 38.4644 40.579 38.5739 40.5316C38.6834 40.4835 38.8144 40.4591 38.9676 40.4591C39.1233 40.4591 39.2569 40.4798 39.3686 40.5212C39.48 40.5619 39.5743 40.6245 39.6513 40.7092L39.453 40.9815H39.4175C39.3601 40.9216 39.2946 40.8764 39.2206 40.8468C39.1466 40.8165 39.0623 40.8009 38.9676 40.8009C38.8569 40.8009 38.7729 40.8209 38.716 40.8601C38.6586 40.8986 38.6301 40.9519 38.6301 41.02C38.6301 41.0844 38.6497 41.1354 38.6893 41.1739C38.7297 41.2116 38.7996 41.2405 38.8995 41.2612L39.1659 41.3175C39.362 41.3589 39.5048 41.4296 39.5936 41.5291C39.6824 41.629 39.7268 41.7585 39.7268 41.9183C39.7268 42.0449 39.6994 42.1551 39.6454 42.2498C39.591 42.3438 39.5085 42.4167 39.3982 42.4689C39.2887 42.5199 39.154 42.5458 38.9942 42.5458Z" fill="black"/>
<path d="M40.7338 42.5458C40.5925 42.5458 40.4674 42.5284 40.3579 42.494C40.2484 42.4585 40.157 42.4126 40.0841 42.3564C40.0108 42.3002 39.9546 42.2387 39.9154 42.1714L40.1359 41.902H40.1714C40.2325 41.9931 40.3098 42.0648 40.4038 42.1181C40.4974 42.1714 40.6073 42.198 40.7338 42.198C40.8404 42.198 40.9206 42.1755 40.975 42.13C41.0302 42.0848 41.0579 42.0227 41.0579 41.9435C41.0579 41.8954 41.049 41.8547 41.0313 41.8221C41.0135 41.7896 40.9843 41.7622 40.944 41.7392C40.9033 41.7167 40.8481 41.6971 40.7782 41.68L40.5177 41.6194C40.3361 41.5779 40.2003 41.5091 40.1107 41.4122C40.0219 41.3156 39.9775 41.1902 39.9775 41.0363C39.9775 40.9208 40.006 40.8198 40.0634 40.7329C40.1204 40.6463 40.204 40.579 40.3135 40.5316C40.423 40.4835 40.554 40.4591 40.7072 40.4591C40.8629 40.4591 40.9965 40.4798 41.1082 40.5212C41.2196 40.5619 41.3139 40.6245 41.3909 40.7092L41.1926 40.9815H41.1571C41.0997 40.9216 41.0342 40.8764 40.9602 40.8468C40.8862 40.8165 40.8019 40.8009 40.7072 40.8009C40.5965 40.8009 40.5125 40.8209 40.4556 40.8601C40.3982 40.8986 40.3697 40.9519 40.3697 41.02C40.3697 41.0844 40.3893 41.1354 40.4289 41.1739C40.4693 41.2116 40.5392 41.2405 40.6391 41.2612L40.9055 41.3175C41.1016 41.3589 41.2444 41.4296 41.3332 41.5291C41.422 41.629 41.4664 41.7585 41.4664 41.9183C41.4664 42.0449 41.439 42.1551 41.385 42.2498C41.3306 42.3438 41.2481 42.4167 41.1378 42.4689C41.0283 42.5199 40.8936 42.5458 40.7338 42.5458Z" fill="black"/>
<path d="M42.97 42.5544C42.7983 42.5544 42.6551 42.5218 42.5408 42.4567C42.4272 42.3909 42.3447 42.3028 42.2936 42.1933L42.5186 41.918H42.5541C42.5904 42.0068 42.6429 42.0771 42.711 42.1282C42.7791 42.1796 42.8579 42.2051 42.9478 42.2051C43.0484 42.2051 43.1232 42.1763 43.1727 42.1178C43.2219 42.0586 43.2467 41.9631 43.2467 41.8307V40.4958H43.6463V41.8381C43.6463 42.083 43.5905 42.2636 43.4791 42.3798C43.3674 42.4963 43.1979 42.5544 42.97 42.5544Z" fill="black"/>
<path d="M45.8317 42.5248H45.4099L45.2575 42.0571H44.4805L44.3281 42.5248H43.9166L44.6167 40.4958H45.1317L45.8317 42.5248ZM44.8505 40.919L44.5886 41.7197H45.1465L44.8845 40.919H44.8505Z" fill="black"/>
<path d="M46.127 42.5248V40.4958H46.941C47.1512 40.4958 47.3095 40.5442 47.4161 40.6408C47.5234 40.7377 47.5774 40.8713 47.5774 41.0419C47.5774 41.1643 47.5456 41.265 47.4827 41.3438C47.4205 41.423 47.3277 41.4829 47.2045 41.5243V41.5539C47.2673 41.5817 47.3188 41.6228 47.3584 41.6768C47.3976 41.7312 47.4353 41.8122 47.4708 41.9195L47.6736 42.5248H47.2607L47.0624 41.918C47.0417 41.857 47.0183 41.8096 46.9928 41.7759C46.968 41.7426 46.9358 41.7182 46.8966 41.7034C46.857 41.6879 46.8056 41.6797 46.7427 41.6797H46.5281V42.5248H46.127ZM46.8937 41.3615C47.0879 41.3615 47.1852 41.2713 47.1852 41.0907C47.1852 40.9064 47.0879 40.814 46.8937 40.814H46.5281V41.3615H46.8937Z" fill="black"/>
</svg>
