<svg width="225" height="170" viewBox="0 0 225 170" fill="none" xmlns="http://www.w3.org/2000/svg">
<g filter="url(#filter0_d_838_1295)">
<rect width="220" height="165" rx="40" fill="#FDFAF1"/>
<path d="M33.8942 96C33.3902 96 32.9822 95.88 32.6702 95.64C32.3582 95.4 32.2022 95.112 32.2022 94.776V70.944C32.2022 70.536 32.3822 70.224 32.7422 70.008C33.1022 69.792 33.4862 69.684 33.8942 69.684H40.4462C41.7422 69.684 42.9422 69.852 44.0462 70.188C45.1502 70.524 46.0382 71.148 46.7102 72.06C47.3822 72.948 47.7182 74.232 47.7182 75.912C47.7182 77.424 47.4422 78.672 46.8902 79.656C46.3622 80.64 45.6182 81.336 44.6582 81.744C45.4022 82.032 46.0502 82.416 46.6022 82.896C47.1542 83.352 47.5862 83.976 47.8982 84.768C48.2102 85.536 48.3662 86.532 48.3662 87.756V88.44C48.3662 90.288 48.0542 91.764 47.4302 92.868C46.8062 93.972 45.9542 94.776 44.8742 95.28C43.7942 95.76 42.5702 96 41.2022 96H33.8942ZM35.9822 92.616H40.4822C41.7782 92.616 42.7742 92.268 43.4702 91.572C44.1902 90.852 44.5502 89.712 44.5502 88.152V87.576C44.5502 85.992 44.1902 84.876 43.4702 84.228C42.7742 83.58 41.7782 83.256 40.4822 83.256H35.9822V92.616ZM35.9822 80.232H40.3022C41.5262 80.232 42.4262 79.92 43.0022 79.296C43.6022 78.672 43.9022 77.748 43.9022 76.524C43.9022 75.708 43.7462 75.048 43.4342 74.544C43.1462 74.04 42.7262 73.668 42.1742 73.428C41.6222 73.188 40.9742 73.068 40.2302 73.068H35.9822V80.232ZM55.4126 96.288C54.0926 96.288 52.9646 95.904 52.0286 95.136C51.0926 94.344 50.6246 93.144 50.6246 91.536C50.6246 90.168 50.9846 89.112 51.7046 88.368C52.4246 87.624 53.4086 87.108 54.6566 86.82C55.9286 86.532 57.3926 86.388 59.0486 86.388H60.6326V85.74C60.6326 85.116 60.5126 84.516 60.2726 83.94C60.0566 83.34 59.6846 82.848 59.1566 82.464C58.6526 82.056 57.9566 81.852 57.0686 81.852C56.1806 81.852 55.4966 81.936 55.0166 82.104C54.5366 82.272 54.1526 82.452 53.8646 82.644C53.5766 82.836 53.3126 82.932 53.0726 82.932C52.6406 82.932 52.3046 82.728 52.0646 82.32C51.8246 81.888 51.7046 81.456 51.7046 81.024C51.7046 80.592 51.9806 80.208 52.5326 79.872C53.1086 79.512 53.8166 79.236 54.6566 79.044C55.4966 78.828 56.3246 78.72 57.1406 78.72C58.9166 78.72 60.3326 79.056 61.3886 79.728C62.4446 80.376 63.2126 81.228 63.6926 82.284C64.1726 83.34 64.4126 84.48 64.4126 85.704V94.74C64.4126 95.076 64.2326 95.376 63.8726 95.64C63.5366 95.88 63.1046 96 62.5766 96C62.0966 96 61.6886 95.88 61.3526 95.64C61.0166 95.376 60.8486 95.076 60.8486 94.74V93.48C60.2246 94.2 59.4686 94.848 58.5806 95.424C57.6926 96 56.6366 96.288 55.4126 96.288ZM56.7806 93.408C57.3806 93.408 57.9686 93.228 58.5446 92.868C59.1446 92.508 59.6366 92.052 60.0206 91.5C60.4286 90.948 60.6326 90.384 60.6326 89.808V88.476H59.7326C58.8206 88.476 57.9566 88.536 57.1406 88.656C56.3246 88.752 55.6646 88.992 55.1606 89.376C54.6806 89.736 54.4406 90.3 54.4406 91.068C54.4406 91.884 54.6566 92.484 55.0886 92.868C55.5446 93.228 56.1086 93.408 56.7806 93.408ZM70.136 96C69.584 96 69.128 95.868 68.768 95.604C68.432 95.34 68.264 95.052 68.264 94.74V70.008C68.264 69.648 68.432 69.36 68.768 69.144C69.128 68.904 69.584 68.784 70.136 68.784C70.664 68.784 71.108 68.904 71.468 69.144C71.852 69.36 72.044 69.648 72.044 70.008V81.456C72.404 80.76 72.968 80.136 73.736 79.584C74.528 79.008 75.5 78.72 76.652 78.72C77.78 78.72 78.812 79.044 79.748 79.692C80.708 80.316 81.476 81.168 82.052 82.248C82.628 83.304 82.916 84.492 82.916 85.812V94.74C82.916 95.148 82.712 95.46 82.304 95.676C81.92 95.892 81.488 96 81.008 96C80.576 96 80.156 95.892 79.748 95.676C79.34 95.46 79.136 95.148 79.136 94.74V85.812C79.136 85.188 78.968 84.588 78.632 84.012C78.296 83.436 77.852 82.968 77.3 82.608C76.772 82.248 76.172 82.068 75.5 82.068C74.924 82.068 74.372 82.224 73.844 82.536C73.316 82.824 72.884 83.244 72.548 83.796C72.212 84.348 72.044 85.02 72.044 85.812V94.74C72.044 95.052 71.852 95.34 71.468 95.604C71.108 95.868 70.664 96 70.136 96ZM90.3931 96.288C89.0731 96.288 87.9451 95.904 87.0091 95.136C86.0731 94.344 85.6051 93.144 85.6051 91.536C85.6051 90.168 85.9651 89.112 86.6851 88.368C87.4051 87.624 88.3891 87.108 89.6371 86.82C90.9091 86.532 92.3731 86.388 94.0291 86.388H95.6131V85.74C95.6131 85.116 95.4931 84.516 95.2531 83.94C95.0371 83.34 94.6651 82.848 94.1371 82.464C93.6331 82.056 92.9371 81.852 92.0491 81.852C91.1611 81.852 90.4771 81.936 89.9971 82.104C89.5171 82.272 89.1331 82.452 88.8451 82.644C88.5571 82.836 88.2931 82.932 88.0531 82.932C87.6211 82.932 87.2851 82.728 87.0451 82.32C86.8051 81.888 86.6851 81.456 86.6851 81.024C86.6851 80.592 86.9611 80.208 87.5131 79.872C88.0891 79.512 88.7971 79.236 89.6371 79.044C90.4771 78.828 91.3051 78.72 92.1211 78.72C93.8971 78.72 95.3131 79.056 96.3691 79.728C97.4251 80.376 98.1931 81.228 98.6731 82.284C99.1531 83.34 99.3931 84.48 99.3931 85.704V94.74C99.3931 95.076 99.2131 95.376 98.8531 95.64C98.5171 95.88 98.0851 96 97.5571 96C97.0771 96 96.6691 95.88 96.3331 95.64C95.9971 95.376 95.8291 95.076 95.8291 94.74V93.48C95.2051 94.2 94.4491 94.848 93.5611 95.424C92.6731 96 91.6171 96.288 90.3931 96.288ZM91.7611 93.408C92.3611 93.408 92.9491 93.228 93.5251 92.868C94.1251 92.508 94.6171 92.052 95.0011 91.5C95.4091 90.948 95.6131 90.384 95.6131 89.808V88.476H94.7131C93.8011 88.476 92.9371 88.536 92.1211 88.656C91.3051 88.752 90.6451 88.992 90.1411 89.376C89.6611 89.736 89.4211 90.3 89.4211 91.068C89.4211 91.884 89.6371 92.484 90.0691 92.868C90.5251 93.228 91.0891 93.408 91.7611 93.408ZM103.718 76.812C103.43 76.812 103.142 76.728 102.854 76.56C102.566 76.368 102.422 76.104 102.422 75.768C102.422 75.6 102.458 75.456 102.53 75.336L103.322 73.428C102.962 73.236 102.662 72.972 102.422 72.636C102.206 72.3 102.098 71.916 102.098 71.484C102.098 70.884 102.302 70.38 102.71 69.972C103.118 69.54 103.622 69.324 104.222 69.324C104.798 69.324 105.29 69.54 105.698 69.972C106.13 70.38 106.346 70.872 106.346 71.448C106.346 71.568 106.322 71.736 106.274 71.952C106.226 72.168 106.13 72.456 105.986 72.816C105.866 73.152 105.686 73.608 105.446 74.184C105.23 74.736 104.93 75.432 104.546 76.272C104.474 76.464 104.354 76.608 104.186 76.704C104.018 76.776 103.862 76.812 103.718 76.812ZM111.022 74.652C110.422 74.652 109.906 74.448 109.474 74.04C109.042 73.632 108.826 73.176 108.826 72.672C108.826 72.12 109.042 71.652 109.474 71.268C109.906 70.884 110.422 70.692 111.022 70.692C111.622 70.692 112.126 70.884 112.534 71.268C112.966 71.652 113.182 72.12 113.182 72.672C113.182 73.176 112.966 73.632 112.534 74.04C112.126 74.448 111.622 74.652 111.022 74.652ZM111.022 96C110.47 96 110.014 95.868 109.654 95.604C109.318 95.34 109.15 95.052 109.15 94.74V80.16C109.15 79.8 109.318 79.512 109.654 79.296C110.014 79.056 110.47 78.936 111.022 78.936C111.55 78.936 111.994 79.056 112.354 79.296C112.738 79.512 112.93 79.8 112.93 80.16V94.74C112.93 95.052 112.738 95.34 112.354 95.604C111.994 95.868 111.55 96 111.022 96ZM126.36 96C125.88 96 125.436 95.904 125.028 95.712C124.644 95.496 124.452 95.172 124.452 94.74V70.944C124.452 70.536 124.632 70.224 124.992 70.008C125.352 69.792 125.736 69.684 126.144 69.684H138.78C139.212 69.684 139.524 69.864 139.716 70.224C139.908 70.584 140.004 70.956 140.004 71.34C140.004 71.796 139.896 72.204 139.68 72.564C139.488 72.9 139.188 73.068 138.78 73.068H128.268V81.312H133.848C134.256 81.312 134.556 81.468 134.748 81.78C134.964 82.092 135.072 82.452 135.072 82.86C135.072 83.196 134.976 83.532 134.784 83.868C134.592 84.18 134.28 84.336 133.848 84.336H128.268V94.74C128.268 95.172 128.064 95.496 127.656 95.712C127.272 95.904 126.84 96 126.36 96ZM141.44 96.288C140.12 96.288 138.992 95.904 138.056 95.136C137.12 94.344 136.652 93.144 136.652 91.536C136.652 90.168 137.012 89.112 137.732 88.368C138.452 87.624 139.436 87.108 140.684 86.82C141.956 86.532 143.42 86.388 145.076 86.388H146.66V85.74C146.66 85.116 146.54 84.516 146.3 83.94C146.084 83.34 145.712 82.848 145.184 82.464C144.68 82.056 143.984 81.852 143.096 81.852C142.208 81.852 141.524 81.936 141.044 82.104C140.564 82.272 140.18 82.452 139.892 82.644C139.604 82.836 139.34 82.932 139.1 82.932C138.668 82.932 138.332 82.728 138.092 82.32C137.852 81.888 137.732 81.456 137.732 81.024C137.732 80.592 138.008 80.208 138.56 79.872C139.136 79.512 139.844 79.236 140.684 79.044C141.524 78.828 142.352 78.72 143.168 78.72C144.944 78.72 146.36 79.056 147.416 79.728C148.472 80.376 149.24 81.228 149.72 82.284C150.2 83.34 150.44 84.48 150.44 85.704V94.74C150.44 95.076 150.26 95.376 149.9 95.64C149.564 95.88 149.132 96 148.604 96C148.124 96 147.716 95.88 147.38 95.64C147.044 95.376 146.876 95.076 146.876 94.74V93.48C146.252 94.2 145.496 94.848 144.608 95.424C143.72 96 142.664 96.288 141.44 96.288ZM142.808 93.408C143.408 93.408 143.996 93.228 144.572 92.868C145.172 92.508 145.664 92.052 146.048 91.5C146.456 90.948 146.66 90.384 146.66 89.808V88.476H145.76C144.848 88.476 143.984 88.536 143.168 88.656C142.352 88.752 141.692 88.992 141.188 89.376C140.708 89.736 140.468 90.3 140.468 91.068C140.468 91.884 140.684 92.484 141.116 92.868C141.572 93.228 142.136 93.408 142.808 93.408ZM156.127 74.652C155.527 74.652 155.011 74.448 154.579 74.04C154.147 73.632 153.931 73.176 153.931 72.672C153.931 72.12 154.147 71.652 154.579 71.268C155.011 70.884 155.527 70.692 156.127 70.692C156.727 70.692 157.231 70.884 157.639 71.268C158.071 71.652 158.287 72.12 158.287 72.672C158.287 73.176 158.071 73.632 157.639 74.04C157.231 74.448 156.727 74.652 156.127 74.652ZM156.127 96C155.575 96 155.119 95.868 154.759 95.604C154.423 95.34 154.255 95.052 154.255 94.74V80.16C154.255 79.8 154.423 79.512 154.759 79.296C155.119 79.056 155.575 78.936 156.127 78.936C156.655 78.936 157.099 79.056 157.459 79.296C157.843 79.512 158.035 79.8 158.035 80.16V94.74C158.035 95.052 157.843 95.34 157.459 95.604C157.099 95.868 156.655 96 156.127 96ZM168.183 96C166.143 96 164.583 95.556 163.503 94.668C162.423 93.756 161.883 92.328 161.883 90.384V72.348C161.883 71.988 162.075 71.7 162.459 71.484C162.867 71.244 163.299 71.124 163.755 71.124C164.211 71.124 164.643 71.244 165.051 71.484C165.459 71.7 165.663 71.988 165.663 72.348V78.936H170.055C170.391 78.936 170.643 79.08 170.811 79.368C171.003 79.656 171.099 79.98 171.099 80.34C171.099 80.7 171.003 81.024 170.811 81.312C170.643 81.6 170.391 81.744 170.055 81.744H165.663V90.384C165.663 91.248 165.843 91.86 166.203 92.22C166.587 92.58 167.247 92.76 168.183 92.76H169.407C169.959 92.76 170.367 92.928 170.631 93.264C170.919 93.576 171.063 93.948 171.063 94.38C171.063 94.788 170.919 95.16 170.631 95.496C170.367 95.832 169.959 96 169.407 96H168.183ZM175.605 96C175.053 96 174.597 95.868 174.237 95.604C173.901 95.34 173.733 95.052 173.733 94.74V70.008C173.733 69.648 173.901 69.36 174.237 69.144C174.597 68.904 175.053 68.784 175.605 68.784C176.133 68.784 176.577 68.904 176.937 69.144C177.321 69.36 177.513 69.648 177.513 70.008V81.456C177.873 80.76 178.437 80.136 179.205 79.584C179.997 79.008 180.969 78.72 182.121 78.72C183.249 78.72 184.281 79.044 185.217 79.692C186.177 80.316 186.945 81.168 187.521 82.248C188.097 83.304 188.385 84.492 188.385 85.812V94.74C188.385 95.148 188.181 95.46 187.773 95.676C187.389 95.892 186.957 96 186.477 96C186.045 96 185.625 95.892 185.217 95.676C184.809 95.46 184.605 95.148 184.605 94.74V85.812C184.605 85.188 184.437 84.588 184.101 84.012C183.765 83.436 183.321 82.968 182.769 82.608C182.241 82.248 181.641 82.068 180.969 82.068C180.393 82.068 179.841 82.224 179.313 82.536C178.785 82.824 178.353 83.244 178.017 83.796C177.681 84.348 177.513 85.02 177.513 85.812V94.74C177.513 95.052 177.321 95.34 176.937 95.604C176.577 95.868 176.133 96 175.605 96Z" fill="#FF0082"/>
<rect x="1.5" y="1.5" width="217" height="162" rx="38.5" stroke="#F7CFE5" stroke-width="3"/>
</g>
<defs>
<filter id="filter0_d_838_1295" x="0" y="0" width="225" height="170" filterUnits="userSpaceOnUse" color-interpolation-filters="sRGB">
<feFlood flood-opacity="0" result="BackgroundImageFix"/>
<feColorMatrix in="SourceAlpha" type="matrix" values="0 0 0 0 0 0 0 0 0 0 0 0 0 0 0 0 0 0 127 0" result="hardAlpha"/>
<feOffset dx="5" dy="5"/>
<feComposite in2="hardAlpha" operator="out"/>
<feColorMatrix type="matrix" values="0 0 0 0 1 0 0 0 0 0 0 0 0 0 0.509804 0 0 0 1 0"/>
<feBlend mode="normal" in2="BackgroundImageFix" result="effect1_dropShadow_838_1295"/>
<feBlend mode="normal" in="SourceGraphic" in2="effect1_dropShadow_838_1295" result="shape"/>
</filter>
</defs>
</svg>
