<svg width="225" height="170" viewBox="0 0 225 170" fill="none" xmlns="http://www.w3.org/2000/svg">
<g filter="url(#filter0_d_838_998)">
<rect width="220" height="165" rx="40" fill="#FDFAF1"/>
<path d="M42.4977 97C41.9937 97 41.5857 96.88 41.2737 96.64C40.9617 96.4 40.8057 96.112 40.8057 95.776V71.944C40.8057 71.536 40.9857 71.224 41.3457 71.008C41.7057 70.792 42.0897 70.684 42.4977 70.684H49.0497C50.3457 70.684 51.5457 70.852 52.6497 71.188C53.7537 71.524 54.6417 72.148 55.3137 73.06C55.9857 73.948 56.3217 75.232 56.3217 76.912C56.3217 78.424 56.0457 79.672 55.4937 80.656C54.9657 81.64 54.2217 82.336 53.2617 82.744C54.0057 83.032 54.6537 83.416 55.2057 83.896C55.7577 84.352 56.1897 84.976 56.5017 85.768C56.8137 86.536 56.9697 87.532 56.9697 88.756V89.44C56.9697 91.288 56.6577 92.764 56.0337 93.868C55.4097 94.972 54.5577 95.776 53.4777 96.28C52.3977 96.76 51.1737 97 49.8057 97H42.4977ZM44.5857 93.616H49.0857C50.3817 93.616 51.3777 93.268 52.0737 92.572C52.7937 91.852 53.1537 90.712 53.1537 89.152V88.576C53.1537 86.992 52.7937 85.876 52.0737 85.228C51.3777 84.58 50.3817 84.256 49.0857 84.256H44.5857V93.616ZM44.5857 81.232H48.9057C50.1297 81.232 51.0297 80.92 51.6057 80.296C52.2057 79.672 52.5057 78.748 52.5057 77.524C52.5057 76.708 52.3497 76.048 52.0377 75.544C51.7497 75.04 51.3297 74.668 50.7777 74.428C50.2257 74.188 49.5777 74.068 48.8337 74.068H44.5857V81.232ZM67.5801 97.288C66.2361 97.288 64.9881 96.964 63.8361 96.316C62.7081 95.644 61.8081 94.768 61.1361 93.688C60.4641 92.584 60.1281 91.42 60.1281 90.196V81.196C60.1281 80.884 60.3081 80.596 60.6681 80.332C61.0521 80.068 61.5081 79.936 62.0361 79.936C62.5401 79.936 62.9721 80.068 63.3321 80.332C63.7161 80.596 63.9081 80.884 63.9081 81.196V90.196C63.9081 90.82 64.0641 91.42 64.3761 91.996C64.7121 92.572 65.1561 93.04 65.7081 93.4C66.2841 93.76 66.9081 93.94 67.5801 93.94C68.2521 93.94 68.8641 93.76 69.4161 93.4C69.9681 93.04 70.4001 92.572 70.7121 91.996C71.0481 91.42 71.2161 90.82 71.2161 90.196V81.16C71.2161 80.824 71.4081 80.536 71.7921 80.296C72.2001 80.056 72.6441 79.936 73.1241 79.936C73.6761 79.936 74.1201 80.056 74.4561 80.296C74.8161 80.536 74.9961 80.824 74.9961 81.16V90.196C74.9961 91.468 74.6601 92.644 73.9881 93.724C73.3161 94.804 72.4161 95.668 71.2881 96.316C70.1601 96.964 68.9241 97.288 67.5801 97.288ZM84.4532 97.288C83.3252 97.288 82.2812 96.952 81.3212 96.28C80.3612 95.608 79.5812 94.732 78.9812 93.652C78.4052 92.548 78.1172 91.372 78.1172 90.124V86.812C78.1172 85.492 78.4052 84.304 78.9812 83.248C79.5812 82.168 80.3612 81.316 81.3212 80.692C82.2812 80.044 83.3492 79.72 84.5252 79.72C85.6772 79.72 86.6492 80.008 87.4412 80.584C88.2332 81.136 88.8212 81.76 89.2052 82.456V71.008C89.2052 70.648 89.3972 70.36 89.7812 70.144C90.1652 69.904 90.6212 69.784 91.1492 69.784C91.6772 69.784 92.1092 69.904 92.4452 70.144C92.8052 70.36 92.9852 70.648 92.9852 71.008V95.74C92.9852 96.052 92.8052 96.34 92.4452 96.604C92.1092 96.868 91.6772 97 91.1492 97C90.6932 97 90.2852 96.868 89.9252 96.604C89.5892 96.34 89.4212 96.052 89.4212 95.74V94.48C89.0612 95.224 88.4252 95.884 87.5132 96.46C86.6012 97.012 85.5812 97.288 84.4532 97.288ZM85.5332 93.94C86.2292 93.94 86.8532 93.748 87.4052 93.364C87.9572 92.98 88.3892 92.56 88.7012 92.104C89.0372 91.624 89.2052 91.24 89.2052 90.952V86.812C89.2052 86.02 89.0252 85.348 88.6652 84.796C88.3052 84.244 87.8492 83.824 87.2972 83.536C86.7452 83.224 86.1692 83.068 85.5692 83.068C84.8972 83.068 84.2732 83.248 83.6972 83.608C83.1452 83.968 82.7012 84.436 82.3652 85.012C82.0532 85.588 81.8972 86.188 81.8972 86.812V90.124C81.8972 90.748 82.0532 91.36 82.3652 91.96C82.7012 92.56 83.1452 93.04 83.6972 93.4C84.2492 93.76 84.8612 93.94 85.5332 93.94ZM102.664 97.288C101.536 97.288 100.492 96.952 99.5321 96.28C98.5721 95.608 97.7921 94.732 97.1921 93.652C96.6161 92.548 96.3281 91.372 96.3281 90.124V86.812C96.3281 85.492 96.6161 84.304 97.1921 83.248C97.7921 82.168 98.5721 81.316 99.5321 80.692C100.492 80.044 101.56 79.72 102.736 79.72C103.888 79.72 104.86 80.008 105.652 80.584C106.444 81.136 107.032 81.76 107.416 82.456V71.008C107.416 70.648 107.608 70.36 107.992 70.144C108.376 69.904 108.832 69.784 109.36 69.784C109.888 69.784 110.32 69.904 110.656 70.144C111.016 70.36 111.196 70.648 111.196 71.008V95.74C111.196 96.052 111.016 96.34 110.656 96.604C110.32 96.868 109.888 97 109.36 97C108.904 97 108.496 96.868 108.136 96.604C107.8 96.34 107.632 96.052 107.632 95.74V94.48C107.272 95.224 106.636 95.884 105.724 96.46C104.812 97.012 103.792 97.288 102.664 97.288ZM103.744 93.94C104.44 93.94 105.064 93.748 105.616 93.364C106.168 92.98 106.6 92.56 106.912 92.104C107.248 91.624 107.416 91.24 107.416 90.952V86.812C107.416 86.02 107.236 85.348 106.876 84.796C106.516 84.244 106.06 83.824 105.508 83.536C104.956 83.224 104.38 83.068 103.78 83.068C103.108 83.068 102.484 83.248 101.908 83.608C101.356 83.968 100.912 84.436 100.576 85.012C100.264 85.588 100.108 86.188 100.108 86.812V90.124C100.108 90.748 100.264 91.36 100.576 91.96C100.912 92.56 101.356 93.04 101.908 93.4C102.46 93.76 103.072 93.94 103.744 93.94ZM117.095 97C116.543 97 116.087 96.868 115.727 96.604C115.391 96.34 115.223 96.052 115.223 95.74V71.008C115.223 70.648 115.391 70.36 115.727 70.144C116.087 69.904 116.543 69.784 117.095 69.784C117.623 69.784 118.067 69.904 118.427 70.144C118.811 70.36 119.003 70.648 119.003 71.008V82.456C119.363 81.76 119.927 81.136 120.695 80.584C121.487 80.008 122.459 79.72 123.611 79.72C124.739 79.72 125.771 80.044 126.707 80.692C127.667 81.316 128.435 82.168 129.011 83.248C129.587 84.304 129.875 85.492 129.875 86.812V95.74C129.875 96.148 129.671 96.46 129.263 96.676C128.879 96.892 128.447 97 127.967 97C127.535 97 127.115 96.892 126.707 96.676C126.299 96.46 126.095 96.148 126.095 95.74V86.812C126.095 86.188 125.927 85.588 125.591 85.012C125.255 84.436 124.811 83.968 124.259 83.608C123.731 83.248 123.131 83.068 122.459 83.068C121.883 83.068 121.331 83.224 120.803 83.536C120.275 83.824 119.843 84.244 119.507 84.796C119.171 85.348 119.003 86.02 119.003 86.812V95.74C119.003 96.052 118.811 96.34 118.427 96.604C118.067 96.868 117.623 97 117.095 97ZM135.516 75.652C134.916 75.652 134.4 75.448 133.968 75.04C133.536 74.632 133.32 74.176 133.32 73.672C133.32 73.12 133.536 72.652 133.968 72.268C134.4 71.884 134.916 71.692 135.516 71.692C136.116 71.692 136.62 71.884 137.028 72.268C137.46 72.652 137.676 73.12 137.676 73.672C137.676 74.176 137.46 74.632 137.028 75.04C136.62 75.448 136.116 75.652 135.516 75.652ZM135.516 97C134.964 97 134.508 96.868 134.148 96.604C133.812 96.34 133.644 96.052 133.644 95.74V81.16C133.644 80.8 133.812 80.512 134.148 80.296C134.508 80.056 134.964 79.936 135.516 79.936C136.044 79.936 136.488 80.056 136.848 80.296C137.232 80.512 137.424 80.8 137.424 81.16V95.74C137.424 96.052 137.232 96.34 136.848 96.604C136.488 96.868 136.044 97 135.516 97ZM146.563 97.288C145.387 97.288 144.331 97.144 143.395 96.856C142.459 96.568 141.715 96.208 141.163 95.776C140.635 95.32 140.371 94.864 140.371 94.408C140.371 94.192 140.419 93.952 140.515 93.688C140.635 93.424 140.791 93.196 140.983 93.004C141.199 92.812 141.427 92.716 141.667 92.716C141.979 92.716 142.303 92.86 142.639 93.148C142.999 93.412 143.467 93.688 144.043 93.976C144.619 94.24 145.423 94.372 146.455 94.372C147.655 94.372 148.459 94.168 148.867 93.76C149.299 93.352 149.515 92.908 149.515 92.428C149.515 91.804 149.299 91.324 148.867 90.988C148.459 90.628 147.919 90.34 147.247 90.124C146.599 89.908 145.903 89.704 145.159 89.512C144.415 89.296 143.707 89.02 143.035 88.684C142.387 88.348 141.847 87.88 141.415 87.28C141.007 86.68 140.803 85.888 140.803 84.904C140.803 84.088 141.007 83.284 141.415 82.492C141.823 81.676 142.471 81.016 143.359 80.512C144.271 79.984 145.483 79.72 146.995 79.72C147.907 79.72 148.771 79.816 149.587 80.008C150.403 80.2 151.075 80.464 151.603 80.8C152.131 81.112 152.395 81.46 152.395 81.844C152.395 82.012 152.335 82.252 152.215 82.564C152.095 82.852 151.927 83.116 151.711 83.356C151.519 83.572 151.267 83.68 150.955 83.68C150.715 83.68 150.415 83.596 150.055 83.428C149.695 83.236 149.275 83.056 148.795 82.888C148.315 82.72 147.727 82.636 147.031 82.636C146.335 82.636 145.771 82.756 145.339 82.996C144.931 83.212 144.631 83.476 144.439 83.788C144.247 84.1 144.151 84.412 144.151 84.724C144.151 85.252 144.355 85.66 144.763 85.948C145.171 86.236 145.711 86.476 146.383 86.668C147.055 86.86 147.763 87.064 148.507 87.28C149.251 87.472 149.947 87.76 150.595 88.144C151.267 88.528 151.807 89.044 152.215 89.692C152.647 90.34 152.863 91.204 152.863 92.284C152.863 93.796 152.311 95.008 151.207 95.92C150.127 96.832 148.579 97.288 146.563 97.288ZM157.84 97C157.288 97 156.832 96.868 156.472 96.604C156.136 96.34 155.968 96.052 155.968 95.74V81.16C155.968 80.8 156.136 80.512 156.472 80.296C156.832 80.056 157.288 79.936 157.84 79.936C158.296 79.936 158.692 80.056 159.028 80.296C159.364 80.512 159.532 80.8 159.532 81.16V82.456C159.94 81.76 160.54 81.136 161.332 80.584C162.124 80.008 163.12 79.72 164.32 79.72C165.4 79.72 166.348 80.056 167.164 80.728C168.004 81.4 168.628 82.264 169.036 83.32C169.66 82.096 170.464 81.196 171.448 80.62C172.432 80.02 173.44 79.72 174.472 79.72C175.552 79.72 176.56 79.996 177.496 80.548C178.456 81.1 179.236 81.904 179.836 82.96C180.436 84.016 180.736 85.3 180.736 86.812V95.74C180.736 96.052 180.544 96.34 180.16 96.604C179.8 96.868 179.356 97 178.828 97C178.324 97 177.88 96.868 177.496 96.604C177.136 96.34 176.956 96.052 176.956 95.74V86.812C176.956 85.996 176.788 85.312 176.452 84.76C176.14 84.184 175.72 83.752 175.192 83.464C174.688 83.176 174.16 83.032 173.608 83.032C173.032 83.032 172.492 83.188 171.988 83.5C171.484 83.788 171.064 84.208 170.728 84.76C170.392 85.288 170.224 85.948 170.224 86.74V95.776C170.224 96.208 170.02 96.52 169.612 96.712C169.228 96.904 168.796 97 168.316 97C167.884 97 167.464 96.904 167.056 96.712C166.648 96.52 166.444 96.208 166.444 95.776V86.776C166.444 86.008 166.288 85.348 165.976 84.796C165.664 84.244 165.256 83.824 164.752 83.536C164.248 83.224 163.696 83.068 163.096 83.068C162.544 83.068 162.004 83.212 161.476 83.5C160.972 83.788 160.552 84.208 160.216 84.76C159.904 85.312 159.748 85.996 159.748 86.812V95.74C159.748 96.052 159.556 96.34 159.172 96.604C158.812 96.868 158.368 97 157.84 97Z" fill="#FF0082"/>
<rect x="1.5" y="1.5" width="217" height="162" rx="38.5" stroke="#F7CFE5" stroke-width="3"/>
</g>
<defs>
<filter id="filter0_d_838_998" x="0" y="0" width="225" height="170" filterUnits="userSpaceOnUse" color-interpolation-filters="sRGB">
<feFlood flood-opacity="0" result="BackgroundImageFix"/>
<feColorMatrix in="SourceAlpha" type="matrix" values="0 0 0 0 0 0 0 0 0 0 0 0 0 0 0 0 0 0 127 0" result="hardAlpha"/>
<feOffset dx="5" dy="5"/>
<feComposite in2="hardAlpha" operator="out"/>
<feColorMatrix type="matrix" values="0 0 0 0 1 0 0 0 0 0 0 0 0 0 0.509804 0 0 0 1 0"/>
<feBlend mode="normal" in2="BackgroundImageFix" result="effect1_dropShadow_838_998"/>
<feBlend mode="normal" in="SourceGraphic" in2="effect1_dropShadow_838_998" result="shape"/>
</filter>
</defs>
</svg>
