<svg width="225" height="170" viewBox="0 0 225 170" fill="none" xmlns="http://www.w3.org/2000/svg">
<g filter="url(#filter0_d_838_1289)">
<rect width="220" height="165" rx="40" fill="#FDFAF1"/>
<path d="M38.412 94.216C36.972 94.216 35.64 93.952 34.416 93.424C33.216 92.896 32.256 92.044 31.536 90.868C30.816 89.692 30.456 88.132 30.456 86.188V75.712C30.456 73.768 30.816 72.208 31.536 71.032C32.256 69.856 33.228 69.004 34.452 68.476C35.676 67.948 37.008 67.684 38.448 67.684C40.104 67.684 41.532 67.972 42.732 68.548C43.956 69.1 44.904 69.868 45.576 70.852C46.272 71.812 46.62 72.928 46.62 74.2C46.62 75.016 46.464 75.556 46.152 75.82C45.84 76.06 45.36 76.18 44.712 76.18C44.136 76.18 43.68 76.084 43.344 75.892C43.008 75.676 42.828 75.352 42.804 74.92C42.78 74.608 42.72 74.236 42.624 73.804C42.528 73.372 42.336 72.952 42.048 72.544C41.784 72.112 41.376 71.764 40.824 71.5C40.272 71.212 39.516 71.068 38.556 71.068C37.164 71.068 36.096 71.452 35.352 72.22C34.608 72.964 34.236 74.128 34.236 75.712V86.188C34.236 87.772 34.608 88.948 35.352 89.716C36.12 90.46 37.224 90.832 38.664 90.832C39.576 90.832 40.296 90.7 40.824 90.436C41.376 90.148 41.784 89.8 42.048 89.392C42.312 88.96 42.492 88.516 42.588 88.06C42.684 87.58 42.756 87.148 42.804 86.764C42.828 86.308 43.008 85.984 43.344 85.792C43.704 85.6 44.148 85.504 44.676 85.504C45.348 85.504 45.84 85.636 46.152 85.9C46.464 86.164 46.62 86.692 46.62 87.484C46.62 88.78 46.272 89.944 45.576 90.976C44.904 91.984 43.956 92.776 42.732 93.352C41.508 93.928 40.068 94.216 38.412 94.216ZM51.6966 94C51.1446 94 50.6886 93.868 50.3286 93.604C49.9926 93.34 49.8246 93.052 49.8246 92.74V68.008C49.8246 67.648 49.9926 67.36 50.3286 67.144C50.6886 66.904 51.1446 66.784 51.6966 66.784C52.2246 66.784 52.6686 66.904 53.0286 67.144C53.4126 67.36 53.6046 67.648 53.6046 68.008V79.456C53.9646 78.76 54.5286 78.136 55.2966 77.584C56.0886 77.008 57.0606 76.72 58.2126 76.72C59.3406 76.72 60.3726 77.044 61.3086 77.692C62.2686 78.316 63.0366 79.168 63.6126 80.248C64.1886 81.304 64.4766 82.492 64.4766 83.812V92.74C64.4766 93.148 64.2726 93.46 63.8646 93.676C63.4806 93.892 63.0486 94 62.5686 94C62.1366 94 61.7166 93.892 61.3086 93.676C60.9006 93.46 60.6966 93.148 60.6966 92.74V83.812C60.6966 83.188 60.5286 82.588 60.1926 82.012C59.8566 81.436 59.4126 80.968 58.8606 80.608C58.3326 80.248 57.7326 80.068 57.0606 80.068C56.4846 80.068 55.9326 80.224 55.4046 80.536C54.8766 80.824 54.4446 81.244 54.1086 81.796C53.7726 82.348 53.6046 83.02 53.6046 83.812V92.74C53.6046 93.052 53.4126 93.34 53.0286 93.604C52.6686 93.868 52.2246 94 51.6966 94ZM70.0816 94C69.5536 94 69.1096 93.868 68.7496 93.604C68.4136 93.34 68.2456 93.052 68.2456 92.74V78.16C68.2456 77.8 68.4136 77.512 68.7496 77.296C69.1096 77.056 69.5536 76.936 70.0816 76.936C70.5616 76.936 70.9696 77.056 71.3056 77.296C71.6416 77.512 71.8096 77.8 71.8096 78.16V79.744C72.0736 79.24 72.4216 78.76 72.8536 78.304C73.3096 77.848 73.8376 77.476 74.4376 77.188C75.0376 76.876 75.6856 76.72 76.3816 76.72H77.5336C77.9176 76.72 78.2536 76.888 78.5416 77.224C78.8296 77.536 78.9736 77.92 78.9736 78.376C78.9736 78.832 78.8296 79.228 78.5416 79.564C78.2536 79.9 77.9176 80.068 77.5336 80.068H76.3816C75.6616 80.068 74.9656 80.284 74.2936 80.716C73.6216 81.148 73.0696 81.76 72.6376 82.552C72.2296 83.32 72.0256 84.256 72.0256 85.36V92.74C72.0256 93.052 71.8336 93.34 71.4496 93.604C71.0896 93.868 70.6336 94 70.0816 94ZM83.02 72.652C82.42 72.652 81.904 72.448 81.472 72.04C81.04 71.632 80.824 71.176 80.824 70.672C80.824 70.12 81.04 69.652 81.472 69.268C81.904 68.884 82.42 68.692 83.02 68.692C83.62 68.692 84.124 68.884 84.532 69.268C84.964 69.652 85.18 70.12 85.18 70.672C85.18 71.176 84.964 71.632 84.532 72.04C84.124 72.448 83.62 72.652 83.02 72.652ZM83.02 94C82.468 94 82.012 93.868 81.652 93.604C81.316 93.34 81.148 93.052 81.148 92.74V78.16C81.148 77.8 81.316 77.512 81.652 77.296C82.012 77.056 82.468 76.936 83.02 76.936C83.548 76.936 83.992 77.056 84.352 77.296C84.736 77.512 84.928 77.8 84.928 78.16V92.74C84.928 93.052 84.736 93.34 84.352 93.604C83.992 93.868 83.548 94 83.02 94ZM94.0672 94.288C92.8912 94.288 91.8352 94.144 90.8992 93.856C89.9632 93.568 89.2192 93.208 88.6672 92.776C88.1392 92.32 87.8752 91.864 87.8752 91.408C87.8752 91.192 87.9232 90.952 88.0192 90.688C88.1392 90.424 88.2952 90.196 88.4872 90.004C88.7032 89.812 88.9312 89.716 89.1712 89.716C89.4832 89.716 89.8072 89.86 90.1432 90.148C90.5032 90.412 90.9712 90.688 91.5472 90.976C92.1232 91.24 92.9272 91.372 93.9592 91.372C95.1592 91.372 95.9632 91.168 96.3712 90.76C96.8032 90.352 97.0192 89.908 97.0192 89.428C97.0192 88.804 96.8032 88.324 96.3712 87.988C95.9632 87.628 95.4232 87.34 94.7512 87.124C94.1032 86.908 93.4072 86.704 92.6632 86.512C91.9192 86.296 91.2112 86.02 90.5392 85.684C89.8912 85.348 89.3512 84.88 88.9192 84.28C88.5112 83.68 88.3072 82.888 88.3072 81.904C88.3072 81.088 88.5112 80.284 88.9192 79.492C89.3272 78.676 89.9752 78.016 90.8632 77.512C91.7752 76.984 92.9872 76.72 94.4992 76.72C95.4112 76.72 96.2752 76.816 97.0912 77.008C97.9072 77.2 98.5792 77.464 99.1072 77.8C99.6352 78.112 99.8992 78.46 99.8992 78.844C99.8992 79.012 99.8392 79.252 99.7192 79.564C99.5992 79.852 99.4312 80.116 99.2152 80.356C99.0232 80.572 98.7712 80.68 98.4592 80.68C98.2192 80.68 97.9192 80.596 97.5592 80.428C97.1992 80.236 96.7792 80.056 96.2992 79.888C95.8192 79.72 95.2312 79.636 94.5352 79.636C93.8392 79.636 93.2752 79.756 92.8432 79.996C92.4352 80.212 92.1352 80.476 91.9432 80.788C91.7512 81.1 91.6552 81.412 91.6552 81.724C91.6552 82.252 91.8592 82.66 92.2672 82.948C92.6752 83.236 93.2152 83.476 93.8872 83.668C94.5592 83.86 95.2672 84.064 96.0112 84.28C96.7552 84.472 97.4512 84.76 98.0992 85.144C98.7712 85.528 99.3112 86.044 99.7192 86.692C100.151 87.34 100.367 88.204 100.367 89.284C100.367 90.796 99.8152 92.008 98.7112 92.92C97.6312 93.832 96.0832 94.288 94.0672 94.288ZM109.7 94C107.66 94 106.1 93.556 105.02 92.668C103.94 91.756 103.4 90.328 103.4 88.384V70.348C103.4 69.988 103.592 69.7 103.976 69.484C104.384 69.244 104.816 69.124 105.272 69.124C105.728 69.124 106.16 69.244 106.568 69.484C106.976 69.7 107.18 69.988 107.18 70.348V76.936H111.572C111.908 76.936 112.16 77.08 112.328 77.368C112.52 77.656 112.616 77.98 112.616 78.34C112.616 78.7 112.52 79.024 112.328 79.312C112.16 79.6 111.908 79.744 111.572 79.744H107.18V88.384C107.18 89.248 107.36 89.86 107.72 90.22C108.104 90.58 108.764 90.76 109.7 90.76H110.924C111.476 90.76 111.884 90.928 112.148 91.264C112.436 91.576 112.58 91.948 112.58 92.38C112.58 92.788 112.436 93.16 112.148 93.496C111.884 93.832 111.476 94 110.924 94H109.7ZM117.086 72.652C116.486 72.652 115.97 72.448 115.538 72.04C115.106 71.632 114.89 71.176 114.89 70.672C114.89 70.12 115.106 69.652 115.538 69.268C115.97 68.884 116.486 68.692 117.086 68.692C117.686 68.692 118.19 68.884 118.598 69.268C119.03 69.652 119.246 70.12 119.246 70.672C119.246 71.176 119.03 71.632 118.598 72.04C118.19 72.448 117.686 72.652 117.086 72.652ZM117.086 94C116.534 94 116.078 93.868 115.718 93.604C115.382 93.34 115.214 93.052 115.214 92.74V78.16C115.214 77.8 115.382 77.512 115.718 77.296C116.078 77.056 116.534 76.936 117.086 76.936C117.614 76.936 118.058 77.056 118.418 77.296C118.802 77.512 118.994 77.8 118.994 78.16V92.74C118.994 93.052 118.802 93.34 118.418 93.604C118.058 93.868 117.614 94 117.086 94ZM126.622 94.288C125.302 94.288 124.174 93.904 123.238 93.136C122.302 92.344 121.834 91.144 121.834 89.536C121.834 88.168 122.194 87.112 122.914 86.368C123.634 85.624 124.618 85.108 125.866 84.82C127.138 84.532 128.602 84.388 130.258 84.388H131.842V83.74C131.842 83.116 131.722 82.516 131.482 81.94C131.266 81.34 130.894 80.848 130.366 80.464C129.862 80.056 129.166 79.852 128.278 79.852C127.39 79.852 126.706 79.936 126.226 80.104C125.746 80.272 125.362 80.452 125.074 80.644C124.786 80.836 124.522 80.932 124.282 80.932C123.85 80.932 123.514 80.728 123.274 80.32C123.034 79.888 122.914 79.456 122.914 79.024C122.914 78.592 123.19 78.208 123.742 77.872C124.318 77.512 125.026 77.236 125.866 77.044C126.706 76.828 127.534 76.72 128.35 76.72C130.126 76.72 131.542 77.056 132.598 77.728C133.654 78.376 134.422 79.228 134.902 80.284C135.382 81.34 135.622 82.48 135.622 83.704V92.74C135.622 93.076 135.442 93.376 135.082 93.64C134.746 93.88 134.314 94 133.786 94C133.306 94 132.898 93.88 132.562 93.64C132.226 93.376 132.058 93.076 132.058 92.74V91.48C131.434 92.2 130.678 92.848 129.79 93.424C128.902 94 127.846 94.288 126.622 94.288ZM127.99 91.408C128.59 91.408 129.178 91.228 129.754 90.868C130.354 90.508 130.846 90.052 131.23 89.5C131.638 88.948 131.842 88.384 131.842 87.808V86.476H130.942C130.03 86.476 129.166 86.536 128.35 86.656C127.534 86.752 126.874 86.992 126.37 87.376C125.89 87.736 125.65 88.3 125.65 89.068C125.65 89.884 125.866 90.484 126.298 90.868C126.754 91.228 127.318 91.408 127.99 91.408ZM141.309 94C140.757 94 140.301 93.868 139.941 93.604C139.605 93.34 139.437 93.052 139.437 92.74V78.16C139.437 77.8 139.605 77.512 139.941 77.296C140.301 77.056 140.757 76.936 141.309 76.936C141.765 76.936 142.161 77.056 142.497 77.296C142.833 77.512 143.001 77.8 143.001 78.16V79.456C143.361 78.76 143.949 78.136 144.765 77.584C145.605 77.008 146.625 76.72 147.825 76.72C148.953 76.72 149.985 77.044 150.921 77.692C151.881 78.316 152.649 79.168 153.225 80.248C153.801 81.304 154.089 82.492 154.089 83.812V92.74C154.089 93.148 153.885 93.46 153.477 93.676C153.093 93.892 152.661 94 152.181 94C151.749 94 151.329 93.892 150.921 93.676C150.513 93.46 150.309 93.148 150.309 92.74V83.812C150.309 83.188 150.141 82.588 149.805 82.012C149.493 81.436 149.061 80.968 148.509 80.608C147.957 80.248 147.345 80.068 146.673 80.068C146.097 80.068 145.545 80.224 145.017 80.536C144.489 80.824 144.057 81.244 143.721 81.796C143.385 82.348 143.217 83.02 143.217 83.812V92.74C143.217 93.052 143.025 93.34 142.641 93.604C142.281 93.868 141.837 94 141.309 94ZM159.731 72.652C159.131 72.652 158.615 72.448 158.183 72.04C157.751 71.632 157.535 71.176 157.535 70.672C157.535 70.12 157.751 69.652 158.183 69.268C158.615 68.884 159.131 68.692 159.731 68.692C160.331 68.692 160.835 68.884 161.243 69.268C161.675 69.652 161.891 70.12 161.891 70.672C161.891 71.176 161.675 71.632 161.243 72.04C160.835 72.448 160.331 72.652 159.731 72.652ZM159.731 94C159.179 94 158.723 93.868 158.363 93.604C158.027 93.34 157.859 93.052 157.859 92.74V78.16C157.859 77.8 158.027 77.512 158.363 77.296C158.723 77.056 159.179 76.936 159.731 76.936C160.259 76.936 160.703 77.056 161.063 77.296C161.447 77.512 161.639 77.8 161.639 78.16V92.74C161.639 93.052 161.447 93.34 161.063 93.604C160.703 93.868 160.259 94 159.731 94ZM171.786 94C169.746 94 168.186 93.556 167.106 92.668C166.026 91.756 165.486 90.328 165.486 88.384V70.348C165.486 69.988 165.678 69.7 166.062 69.484C166.47 69.244 166.902 69.124 167.358 69.124C167.814 69.124 168.246 69.244 168.654 69.484C169.062 69.7 169.266 69.988 169.266 70.348V76.936H173.658C173.994 76.936 174.246 77.08 174.414 77.368C174.606 77.656 174.702 77.98 174.702 78.34C174.702 78.7 174.606 79.024 174.414 79.312C174.246 79.6 173.994 79.744 173.658 79.744H169.266V88.384C169.266 89.248 169.446 89.86 169.806 90.22C170.19 90.58 170.85 90.76 171.786 90.76H173.01C173.562 90.76 173.97 90.928 174.234 91.264C174.522 91.576 174.666 91.948 174.666 92.38C174.666 92.788 174.522 93.16 174.234 93.496C173.97 93.832 173.562 94 173.01 94H171.786ZM177.372 102.1C176.892 102.1 176.484 101.992 176.148 101.776C175.812 101.584 175.644 101.152 175.644 100.48C175.644 100.048 175.716 99.664 175.86 99.328C176.004 99.016 176.268 98.86 176.652 98.86C177.108 98.86 177.6 98.74 178.128 98.5C178.68 98.284 179.208 97.924 179.712 97.42C180.24 96.94 180.684 96.328 181.044 95.584C181.428 94.84 181.692 93.964 181.836 92.956L175.752 78.988C175.656 78.82 175.608 78.652 175.608 78.484C175.608 78.172 175.74 77.884 176.004 77.62C176.292 77.332 176.628 77.104 177.012 76.936C177.396 76.768 177.756 76.684 178.092 76.684C178.332 76.684 178.56 76.744 178.776 76.864C179.016 76.96 179.172 77.128 179.244 77.368L183.78 89.068L187.704 77.368C187.776 77.128 187.92 76.96 188.136 76.864C188.352 76.744 188.568 76.684 188.784 76.684C189.072 76.684 189.408 76.768 189.792 76.936C190.2 77.104 190.548 77.332 190.836 77.62C191.148 77.884 191.304 78.196 191.304 78.556C191.304 78.748 191.268 78.892 191.196 78.988L185.796 93.064C185.412 94.096 185.016 95.14 184.608 96.196C184.2 97.276 183.696 98.26 183.096 99.148C182.52 100.036 181.764 100.744 180.828 101.272C179.916 101.824 178.764 102.1 177.372 102.1Z" fill="#FF0082"/>
<rect x="1.5" y="1.5" width="217" height="162" rx="38.5" stroke="#F7CFE5" stroke-width="3"/>
</g>
<defs>
<filter id="filter0_d_838_1289" x="0" y="0" width="225" height="170" filterUnits="userSpaceOnUse" color-interpolation-filters="sRGB">
<feFlood flood-opacity="0" result="BackgroundImageFix"/>
<feColorMatrix in="SourceAlpha" type="matrix" values="0 0 0 0 0 0 0 0 0 0 0 0 0 0 0 0 0 0 127 0" result="hardAlpha"/>
<feOffset dx="5" dy="5"/>
<feComposite in2="hardAlpha" operator="out"/>
<feColorMatrix type="matrix" values="0 0 0 0 1 0 0 0 0 0 0 0 0 0 0.509804 0 0 0 1 0"/>
<feBlend mode="normal" in2="BackgroundImageFix" result="effect1_dropShadow_838_1289"/>
<feBlend mode="normal" in="SourceGraphic" in2="effect1_dropShadow_838_1289" result="shape"/>
</filter>
</defs>
</svg>
