<svg width="225" height="170" viewBox="0 0 225 170" fill="none" xmlns="http://www.w3.org/2000/svg">
<g filter="url(#filter0_d_838_935)">
<rect width="220" height="165" rx="40" fill="#FDFAF1"/>
<path d="M46.7664 94C46.2864 94 45.8424 93.892 45.4344 93.676C45.0504 93.46 44.8584 93.148 44.8584 92.74V68.908C44.8584 68.476 45.0504 68.164 45.4344 67.972C45.8424 67.78 46.2864 67.684 46.7664 67.684C47.2464 67.684 47.6784 67.78 48.0624 67.972C48.4704 68.164 48.6744 68.476 48.6744 68.908V78.844H57.6384V68.908C57.6384 68.476 57.8304 68.164 58.2144 67.972C58.6224 67.78 59.0664 67.684 59.5464 67.684C60.0264 67.684 60.4584 67.78 60.8424 67.972C61.2504 68.164 61.4544 68.476 61.4544 68.908V92.74C61.4544 93.148 61.2504 93.46 60.8424 93.676C60.4584 93.892 60.0264 94 59.5464 94C59.0664 94 58.6224 93.892 58.2144 93.676C57.8304 93.46 57.6384 93.148 57.6384 92.74V81.868H48.6744V92.74C48.6744 93.148 48.4704 93.46 48.0624 93.676C47.6784 93.892 47.2464 94 46.7664 94ZM67.6743 72.652C67.0743 72.652 66.5583 72.448 66.1263 72.04C65.6943 71.632 65.4783 71.176 65.4783 70.672C65.4783 70.12 65.6943 69.652 66.1263 69.268C66.5583 68.884 67.0743 68.692 67.6743 68.692C68.2743 68.692 68.7783 68.884 69.1863 69.268C69.6183 69.652 69.8343 70.12 69.8343 70.672C69.8343 71.176 69.6183 71.632 69.1863 72.04C68.7783 72.448 68.2743 72.652 67.6743 72.652ZM67.6743 94C67.1223 94 66.6663 93.868 66.3063 93.604C65.9703 93.34 65.8023 93.052 65.8023 92.74V78.16C65.8023 77.8 65.9703 77.512 66.3063 77.296C66.6663 77.056 67.1223 76.936 67.6743 76.936C68.2023 76.936 68.6463 77.056 69.0063 77.296C69.3903 77.512 69.5823 77.8 69.5823 78.16V92.74C69.5823 93.052 69.3903 93.34 69.0063 93.604C68.6463 93.868 68.2023 94 67.6743 94ZM75.3735 94C74.8215 94 74.3655 93.868 74.0055 93.604C73.6695 93.34 73.5015 93.052 73.5015 92.74V78.16C73.5015 77.8 73.6695 77.512 74.0055 77.296C74.3655 77.056 74.8215 76.936 75.3735 76.936C75.8295 76.936 76.2255 77.056 76.5615 77.296C76.8975 77.512 77.0655 77.8 77.0655 78.16V79.456C77.4255 78.76 78.0135 78.136 78.8295 77.584C79.6695 77.008 80.6895 76.72 81.8895 76.72C83.0175 76.72 84.0495 77.044 84.9855 77.692C85.9455 78.316 86.7135 79.168 87.2895 80.248C87.8655 81.304 88.1535 82.492 88.1535 83.812V92.74C88.1535 93.148 87.9495 93.46 87.5415 93.676C87.1575 93.892 86.7255 94 86.2455 94C85.8135 94 85.3935 93.892 84.9855 93.676C84.5775 93.46 84.3735 93.148 84.3735 92.74V83.812C84.3735 83.188 84.2055 82.588 83.8695 82.012C83.5575 81.436 83.1255 80.968 82.5735 80.608C82.0215 80.248 81.4095 80.068 80.7375 80.068C80.1615 80.068 79.6095 80.224 79.0815 80.536C78.5535 80.824 78.1215 81.244 77.7855 81.796C77.4495 82.348 77.2815 83.02 77.2815 83.812V92.74C77.2815 93.052 77.0895 93.34 76.7055 93.604C76.3455 93.868 75.9015 94 75.3735 94ZM97.6114 94.288C96.4834 94.288 95.4394 93.952 94.4794 93.28C93.5194 92.608 92.7394 91.732 92.1394 90.652C91.5634 89.548 91.2754 88.372 91.2754 87.124V83.812C91.2754 82.492 91.5634 81.304 92.1394 80.248C92.7394 79.168 93.5194 78.316 94.4794 77.692C95.4394 77.044 96.5074 76.72 97.6834 76.72C98.8354 76.72 99.8074 77.008 100.599 77.584C101.391 78.136 101.979 78.76 102.363 79.456V68.008C102.363 67.648 102.555 67.36 102.939 67.144C103.323 66.904 103.779 66.784 104.307 66.784C104.835 66.784 105.267 66.904 105.603 67.144C105.963 67.36 106.143 67.648 106.143 68.008V92.74C106.143 93.052 105.963 93.34 105.603 93.604C105.267 93.868 104.835 94 104.307 94C103.851 94 103.443 93.868 103.083 93.604C102.747 93.34 102.579 93.052 102.579 92.74V91.48C102.219 92.224 101.583 92.884 100.671 93.46C99.7594 94.012 98.7394 94.288 97.6114 94.288ZM98.6914 90.94C99.3874 90.94 100.011 90.748 100.563 90.364C101.115 89.98 101.547 89.56 101.859 89.104C102.195 88.624 102.363 88.24 102.363 87.952V83.812C102.363 83.02 102.183 82.348 101.823 81.796C101.463 81.244 101.007 80.824 100.455 80.536C99.9034 80.224 99.3274 80.068 98.7274 80.068C98.0554 80.068 97.4314 80.248 96.8554 80.608C96.3034 80.968 95.8594 81.436 95.5234 82.012C95.2114 82.588 95.0554 83.188 95.0554 83.812V87.124C95.0554 87.748 95.2114 88.36 95.5234 88.96C95.8594 89.56 96.3034 90.04 96.8554 90.4C97.4074 90.76 98.0194 90.94 98.6914 90.94ZM117.406 94.288C116.062 94.288 114.814 93.964 113.662 93.316C112.534 92.644 111.634 91.768 110.962 90.688C110.29 89.584 109.954 88.42 109.954 87.196V78.196C109.954 77.884 110.134 77.596 110.494 77.332C110.878 77.068 111.334 76.936 111.862 76.936C112.366 76.936 112.798 77.068 113.158 77.332C113.542 77.596 113.734 77.884 113.734 78.196V87.196C113.734 87.82 113.89 88.42 114.202 88.996C114.538 89.572 114.982 90.04 115.534 90.4C116.11 90.76 116.734 90.94 117.406 90.94C118.078 90.94 118.69 90.76 119.242 90.4C119.794 90.04 120.226 89.572 120.538 88.996C120.874 88.42 121.042 87.82 121.042 87.196V78.16C121.042 77.824 121.234 77.536 121.618 77.296C122.026 77.056 122.47 76.936 122.95 76.936C123.502 76.936 123.946 77.056 124.282 77.296C124.642 77.536 124.822 77.824 124.822 78.16V87.196C124.822 88.468 124.486 89.644 123.814 90.724C123.142 91.804 122.242 92.668 121.114 93.316C119.986 93.964 118.75 94.288 117.406 94.288ZM130.463 72.652C129.863 72.652 129.347 72.448 128.915 72.04C128.483 71.632 128.267 71.176 128.267 70.672C128.267 70.12 128.483 69.652 128.915 69.268C129.347 68.884 129.863 68.692 130.463 68.692C131.063 68.692 131.567 68.884 131.975 69.268C132.407 69.652 132.623 70.12 132.623 70.672C132.623 71.176 132.407 71.632 131.975 72.04C131.567 72.448 131.063 72.652 130.463 72.652ZM130.463 94C129.911 94 129.455 93.868 129.095 93.604C128.759 93.34 128.591 93.052 128.591 92.74V78.16C128.591 77.8 128.759 77.512 129.095 77.296C129.455 77.056 129.911 76.936 130.463 76.936C130.991 76.936 131.435 77.056 131.795 77.296C132.179 77.512 132.371 77.8 132.371 78.16V92.74C132.371 93.052 132.179 93.34 131.795 93.604C131.435 93.868 130.991 94 130.463 94ZM141.511 94.288C140.335 94.288 139.279 94.144 138.343 93.856C137.407 93.568 136.663 93.208 136.111 92.776C135.583 92.32 135.319 91.864 135.319 91.408C135.319 91.192 135.367 90.952 135.463 90.688C135.583 90.424 135.739 90.196 135.931 90.004C136.147 89.812 136.375 89.716 136.615 89.716C136.927 89.716 137.251 89.86 137.587 90.148C137.947 90.412 138.415 90.688 138.991 90.976C139.567 91.24 140.371 91.372 141.403 91.372C142.603 91.372 143.407 91.168 143.815 90.76C144.247 90.352 144.463 89.908 144.463 89.428C144.463 88.804 144.247 88.324 143.815 87.988C143.407 87.628 142.867 87.34 142.195 87.124C141.547 86.908 140.851 86.704 140.107 86.512C139.363 86.296 138.655 86.02 137.983 85.684C137.335 85.348 136.795 84.88 136.363 84.28C135.955 83.68 135.751 82.888 135.751 81.904C135.751 81.088 135.955 80.284 136.363 79.492C136.771 78.676 137.419 78.016 138.307 77.512C139.219 76.984 140.431 76.72 141.943 76.72C142.855 76.72 143.719 76.816 144.535 77.008C145.351 77.2 146.023 77.464 146.551 77.8C147.079 78.112 147.343 78.46 147.343 78.844C147.343 79.012 147.283 79.252 147.163 79.564C147.043 79.852 146.875 80.116 146.659 80.356C146.467 80.572 146.215 80.68 145.903 80.68C145.663 80.68 145.363 80.596 145.003 80.428C144.643 80.236 144.223 80.056 143.743 79.888C143.263 79.72 142.675 79.636 141.979 79.636C141.283 79.636 140.719 79.756 140.287 79.996C139.879 80.212 139.579 80.476 139.387 80.788C139.195 81.1 139.099 81.412 139.099 81.724C139.099 82.252 139.303 82.66 139.711 82.948C140.119 83.236 140.659 83.476 141.331 83.668C142.003 83.86 142.711 84.064 143.455 84.28C144.199 84.472 144.895 84.76 145.543 85.144C146.215 85.528 146.755 86.044 147.163 86.692C147.595 87.34 147.811 88.204 147.811 89.284C147.811 90.796 147.259 92.008 146.155 92.92C145.075 93.832 143.527 94.288 141.511 94.288ZM152.788 94C152.236 94 151.78 93.868 151.42 93.604C151.084 93.34 150.916 93.052 150.916 92.74V78.16C150.916 77.8 151.084 77.512 151.42 77.296C151.78 77.056 152.236 76.936 152.788 76.936C153.244 76.936 153.64 77.056 153.976 77.296C154.312 77.512 154.48 77.8 154.48 78.16V79.456C154.888 78.76 155.488 78.136 156.28 77.584C157.072 77.008 158.068 76.72 159.268 76.72C160.348 76.72 161.296 77.056 162.112 77.728C162.952 78.4 163.576 79.264 163.984 80.32C164.608 79.096 165.412 78.196 166.396 77.62C167.38 77.02 168.388 76.72 169.42 76.72C170.5 76.72 171.508 76.996 172.444 77.548C173.404 78.1 174.184 78.904 174.784 79.96C175.384 81.016 175.684 82.3 175.684 83.812V92.74C175.684 93.052 175.492 93.34 175.108 93.604C174.748 93.868 174.304 94 173.776 94C173.272 94 172.828 93.868 172.444 93.604C172.084 93.34 171.904 93.052 171.904 92.74V83.812C171.904 82.996 171.736 82.312 171.4 81.76C171.088 81.184 170.668 80.752 170.14 80.464C169.636 80.176 169.108 80.032 168.556 80.032C167.98 80.032 167.44 80.188 166.936 80.5C166.432 80.788 166.012 81.208 165.676 81.76C165.34 82.288 165.172 82.948 165.172 83.74V92.776C165.172 93.208 164.968 93.52 164.56 93.712C164.176 93.904 163.744 94 163.264 94C162.832 94 162.412 93.904 162.004 93.712C161.596 93.52 161.392 93.208 161.392 92.776V83.776C161.392 83.008 161.236 82.348 160.924 81.796C160.612 81.244 160.204 80.824 159.7 80.536C159.196 80.224 158.644 80.068 158.044 80.068C157.492 80.068 156.952 80.212 156.424 80.5C155.92 80.788 155.5 81.208 155.164 81.76C154.852 82.312 154.696 82.996 154.696 83.812V92.74C154.696 93.052 154.504 93.34 154.12 93.604C153.76 93.868 153.316 94 152.788 94Z" fill="#FF0082"/>
<rect x="1.5" y="1.5" width="217" height="162" rx="38.5" stroke="#F7CFE5" stroke-width="3"/>
</g>
<defs>
<filter id="filter0_d_838_935" x="0" y="0" width="225" height="170" filterUnits="userSpaceOnUse" color-interpolation-filters="sRGB">
<feFlood flood-opacity="0" result="BackgroundImageFix"/>
<feColorMatrix in="SourceAlpha" type="matrix" values="0 0 0 0 0 0 0 0 0 0 0 0 0 0 0 0 0 0 127 0" result="hardAlpha"/>
<feOffset dx="5" dy="5"/>
<feComposite in2="hardAlpha" operator="out"/>
<feColorMatrix type="matrix" values="0 0 0 0 1 0 0 0 0 0 0 0 0 0 0.509804 0 0 0 1 0"/>
<feBlend mode="normal" in2="BackgroundImageFix" result="effect1_dropShadow_838_935"/>
<feBlend mode="normal" in="SourceGraphic" in2="effect1_dropShadow_838_935" result="shape"/>
</filter>
</defs>
</svg>
