<svg width="85" height="66" viewBox="0 0 85 66" fill="none" xmlns="http://www.w3.org/2000/svg">
<path d="M21.9334 46C21.6614 46 21.3654 45.912 21.0454 45.736C20.7254 45.544 20.5654 45.296 20.5654 44.992V42.664C20.5654 42.04 20.7494 41.456 21.1174 40.912C21.4854 40.352 21.9654 39.824 22.5574 39.328C23.1494 38.832 23.7734 38.352 24.4294 37.888C25.0854 37.424 25.7014 36.952 26.2774 36.472C26.8694 35.992 27.3494 35.504 27.7174 35.008C28.1014 34.512 28.2934 33.984 28.2934 33.424C28.2934 33.088 28.2134 32.76 28.0534 32.44C27.9094 32.104 27.6694 31.832 27.3334 31.624C27.0134 31.4 26.5894 31.288 26.0614 31.288C25.4854 31.288 24.9814 31.456 24.5494 31.792C24.1334 32.112 23.9254 32.648 23.9254 33.4C23.9254 33.688 23.7814 33.952 23.4934 34.192C23.2054 34.432 22.8054 34.552 22.2934 34.552C21.8774 34.552 21.5414 34.432 21.2854 34.192C21.0294 33.952 20.9014 33.512 20.9014 32.872C20.9014 31.96 21.1414 31.176 21.6214 30.52C22.1014 29.848 22.7334 29.336 23.5174 28.984C24.3174 28.632 25.1654 28.456 26.0614 28.456C26.9894 28.456 27.8614 28.656 28.6774 29.056C29.4934 29.44 30.1494 29.992 30.6454 30.712C31.1574 31.432 31.4134 32.304 31.4134 33.328C31.4134 34.176 31.2294 34.944 30.8614 35.632C30.4934 36.32 30.0214 36.944 29.4454 37.504C28.8694 38.064 28.2534 38.576 27.5974 39.04C26.9574 39.488 26.3494 39.912 25.7734 40.312C25.1974 40.696 24.7254 41.08 24.3574 41.464C23.9894 41.848 23.8054 42.248 23.8054 42.664V43.264H30.4774C30.7494 43.264 30.9814 43.4 31.1734 43.672C31.3654 43.928 31.4614 44.24 31.4614 44.608C31.4614 44.976 31.3654 45.304 31.1734 45.592C30.9814 45.864 30.7494 46 30.4774 46H21.9334Z" fill="#578FFE"/>
<path fill-rule="evenodd" clip-rule="evenodd" d="M76.6118 12.5102C78.8365 12.5102 80.9701 13.3907 82.5432 14.9579C84.1163 16.5252 85 18.6508 85 20.8673C85 23.0837 84.1163 25.2094 82.5432 26.7766C80.9701 28.3439 78.8365 29.2244 76.6118 29.2244H63.9111C64.4733 30.2943 64.7963 31.4728 64.8578 32.679C64.9192 33.8851 64.7177 35.0902 64.2671 36.2114C63.8165 37.3325 63.1274 38.3431 62.2473 39.1736C61.3672 40.0041 60.317 40.6348 59.1689 41.0223C59.9421 42.2885 60.3632 43.7368 60.389 45.2187C60.4148 46.7005 60.0444 48.1625 59.3158 49.4547C58.5872 50.7468 57.5266 51.8225 56.2429 52.5714C54.9592 53.3203 53.4986 53.7154 52.0111 53.7162H51.0671C51.3192 54.4354 51.4478 55.1919 51.4474 55.9537V57.6206C51.4474 62.2382 47.6895 65.9777 43.0592 65.9777H27.1329C27.0366 65.9915 26.9394 65.999 26.8421 66C17.2684 66 10.4371 62.3897 6.06184 56.7827C1.75368 51.2648 0 44.0443 0 37.0288C0 29.942 1.785 23.9471 5.11342 18.8259C8.41499 13.7403 13.1661 9.63089 18.9371 6.17217C21.233 4.67375 23.5583 3.22045 25.9116 1.81312C34.2639 -3.23679 44.7368 2.88282 44.7368 12.5102L76.6118 12.5102ZM21.2097 9.75569C23.4815 8.26876 25.7829 6.82734 28.1126 5.43229C33.5526 2.1474 40.4868 6.08303 40.4868 12.5102V12.733H33.5526C33.0187 12.733 32.5067 12.9444 32.1291 13.3205C31.7516 13.6966 31.5395 14.2068 31.5395 14.7387C31.5395 15.2707 31.7516 15.7808 32.1291 16.157C32.5067 16.5331 33.0187 16.7444 33.5526 16.7444L76.6118 16.7444C77.7093 16.7444 78.7619 17.1788 79.538 17.952C80.314 18.7252 80.75 19.7738 80.75 20.8673C80.75 21.9607 80.314 23.0094 79.538 23.7826C78.7619 24.5557 77.7093 24.9901 76.6118 24.9901L44.7368 24.9767C44.2029 24.9767 43.6909 25.188 43.3133 25.5642C42.9358 25.9403 42.7237 26.4505 42.7237 26.9824C42.7237 27.5144 42.9358 28.0245 43.3133 28.4007C43.6909 28.7768 44.2029 28.9881 44.7368 28.9881L56.5876 28.9881C57.6526 29.0493 58.6528 29.5174 59.3799 30.2949C60.1071 31.0724 60.5052 32.0995 60.4914 33.1621C60.4776 34.2248 60.0528 35.2412 59.3057 35.9996C58.5585 36.7581 57.5464 37.2002 56.4803 37.2338H46.5263C45.9924 37.2338 45.4803 37.4451 45.1028 37.8213C44.7253 38.1974 44.5132 38.7076 44.5132 39.2395C44.5132 39.7714 44.7253 40.2816 45.1028 40.6577C45.4803 41.0339 45.9924 41.2452 46.5263 41.2452H48.9421C49.0325 41.2574 49.1237 41.2634 49.215 41.263L52.0066 41.2541C52.5494 41.2535 53.0871 41.3595 53.5888 41.5659C54.0906 41.7723 54.5466 42.0752 54.9308 42.4572C55.3151 42.8392 55.6201 43.2929 55.8284 43.7923C56.0366 44.2918 56.1441 44.8272 56.1447 45.368C56.1453 45.9089 56.039 46.4445 55.8318 46.9444C55.6246 47.4443 55.3206 47.8986 54.9372 48.2815C54.5537 48.6643 54.0984 48.9682 53.5971 49.1757C53.0958 49.3832 52.5584 49.4903 52.0155 49.4909H42.5C41.9661 49.4909 41.454 49.7022 41.0765 50.0783C40.6989 50.4545 40.4868 50.9646 40.4868 51.4966C40.4868 52.0285 40.6989 52.5387 41.0765 52.9148C41.454 53.2909 41.9661 53.5023 42.5 53.5023H44.7368C45.3894 53.5023 46.0153 53.7605 46.4767 54.2203C46.9381 54.68 47.1974 55.3035 47.1974 55.9537V57.6206C47.1974 59.8982 45.3453 61.7435 43.0592 61.7435L26.8421 61.7435C26.7526 61.7435 26.6676 61.7524 26.5871 61.7613L26.5558 61.7657C18.3332 61.6944 12.8797 58.6146 9.42157 54.1842C5.86052 49.6201 4.24999 43.4158 4.24999 37.0243C4.24999 30.6952 5.83369 25.5116 8.67895 21.1258C11.5421 16.7132 15.7563 13.0138 21.1695 9.77798C21.1836 9.769 21.1985 9.76153 21.2142 9.75569H21.2097Z" fill="#F47D61"/>
</svg>
