<svg width="225" height="170" viewBox="0 0 225 170" fill="none" xmlns="http://www.w3.org/2000/svg">
<g filter="url(#filter0_d_838_1291)">
<rect width="220" height="165" rx="40" fill="#FDFAF1"/>
<path d="M76.4461 96C75.9661 96 75.5221 95.892 75.1141 95.676C74.7301 95.46 74.5381 95.148 74.5381 94.74V70.908C74.5381 70.476 74.7301 70.164 75.1141 69.972C75.5221 69.78 75.9661 69.684 76.4461 69.684C76.9261 69.684 77.3581 69.78 77.7421 69.972C78.1501 70.164 78.3541 70.476 78.3541 70.908V94.74C78.3541 95.148 78.1501 95.46 77.7421 95.676C77.3581 95.892 76.9261 96 76.4461 96ZM87.9402 96.288C86.7642 96.288 85.7082 96.144 84.7722 95.856C83.8362 95.568 83.0922 95.208 82.5402 94.776C82.0122 94.32 81.7482 93.864 81.7482 93.408C81.7482 93.192 81.7962 92.952 81.8922 92.688C82.0122 92.424 82.1682 92.196 82.3602 92.004C82.5762 91.812 82.8042 91.716 83.0442 91.716C83.3562 91.716 83.6802 91.86 84.0162 92.148C84.3762 92.412 84.8442 92.688 85.4202 92.976C85.9962 93.24 86.8002 93.372 87.8322 93.372C89.0322 93.372 89.8362 93.168 90.2442 92.76C90.6762 92.352 90.8922 91.908 90.8922 91.428C90.8922 90.804 90.6762 90.324 90.2442 89.988C89.8362 89.628 89.2962 89.34 88.6242 89.124C87.9762 88.908 87.2802 88.704 86.5362 88.512C85.7922 88.296 85.0842 88.02 84.4122 87.684C83.7642 87.348 83.2242 86.88 82.7922 86.28C82.3842 85.68 82.1802 84.888 82.1802 83.904C82.1802 83.088 82.3842 82.284 82.7922 81.492C83.2002 80.676 83.8482 80.016 84.7362 79.512C85.6482 78.984 86.8602 78.72 88.3722 78.72C89.2842 78.72 90.1482 78.816 90.9642 79.008C91.7802 79.2 92.4522 79.464 92.9802 79.8C93.5082 80.112 93.7722 80.46 93.7722 80.844C93.7722 81.012 93.7122 81.252 93.5922 81.564C93.4722 81.852 93.3042 82.116 93.0882 82.356C92.8962 82.572 92.6442 82.68 92.3322 82.68C92.0922 82.68 91.7922 82.596 91.4322 82.428C91.0722 82.236 90.6522 82.056 90.1722 81.888C89.6922 81.72 89.1042 81.636 88.4082 81.636C87.7122 81.636 87.1482 81.756 86.7162 81.996C86.3082 82.212 86.0082 82.476 85.8162 82.788C85.6242 83.1 85.5282 83.412 85.5282 83.724C85.5282 84.252 85.7322 84.66 86.1402 84.948C86.5482 85.236 87.0882 85.476 87.7602 85.668C88.4322 85.86 89.1402 86.064 89.8842 86.28C90.6282 86.472 91.3242 86.76 91.9722 87.144C92.6442 87.528 93.1842 88.044 93.5922 88.692C94.0242 89.34 94.2402 90.204 94.2402 91.284C94.2402 92.796 93.6882 94.008 92.5842 94.92C91.5042 95.832 89.9562 96.288 87.9402 96.288ZM99.5412 96C98.9892 96 98.5332 95.868 98.1732 95.604C97.8372 95.34 97.6692 95.052 97.6692 94.74V70.008C97.6692 69.648 97.8372 69.36 98.1732 69.144C98.5332 68.904 98.9892 68.784 99.5412 68.784C100.069 68.784 100.513 68.904 100.873 69.144C101.257 69.36 101.449 69.648 101.449 70.008V94.74C101.449 95.052 101.257 95.34 100.873 95.604C100.513 95.868 100.069 96 99.5412 96ZM109.42 96.288C108.1 96.288 106.972 95.904 106.036 95.136C105.1 94.344 104.632 93.144 104.632 91.536C104.632 90.168 104.992 89.112 105.712 88.368C106.432 87.624 107.416 87.108 108.664 86.82C109.936 86.532 111.4 86.388 113.056 86.388H114.64V85.74C114.64 85.116 114.52 84.516 114.28 83.94C114.064 83.34 113.692 82.848 113.164 82.464C112.66 82.056 111.964 81.852 111.076 81.852C110.188 81.852 109.504 81.936 109.024 82.104C108.544 82.272 108.16 82.452 107.872 82.644C107.584 82.836 107.32 82.932 107.08 82.932C106.648 82.932 106.312 82.728 106.072 82.32C105.832 81.888 105.712 81.456 105.712 81.024C105.712 80.592 105.988 80.208 106.54 79.872C107.116 79.512 107.824 79.236 108.664 79.044C109.504 78.828 110.332 78.72 111.148 78.72C112.924 78.72 114.34 79.056 115.396 79.728C116.452 80.376 117.22 81.228 117.7 82.284C118.18 83.34 118.42 84.48 118.42 85.704V94.74C118.42 95.076 118.24 95.376 117.88 95.64C117.544 95.88 117.112 96 116.584 96C116.104 96 115.696 95.88 115.36 95.64C115.024 95.376 114.856 95.076 114.856 94.74V93.48C114.232 94.2 113.476 94.848 112.588 95.424C111.7 96 110.644 96.288 109.42 96.288ZM110.788 93.408C111.388 93.408 111.976 93.228 112.552 92.868C113.152 92.508 113.644 92.052 114.028 91.5C114.436 90.948 114.64 90.384 114.64 89.808V88.476H113.74C112.828 88.476 111.964 88.536 111.148 88.656C110.332 88.752 109.672 88.992 109.168 89.376C108.688 89.736 108.448 90.3 108.448 91.068C108.448 91.884 108.664 92.484 109.096 92.868C109.552 93.228 110.116 93.408 110.788 93.408ZM124.108 96C123.556 96 123.1 95.868 122.74 95.604C122.404 95.34 122.236 95.052 122.236 94.74V80.16C122.236 79.8 122.404 79.512 122.74 79.296C123.1 79.056 123.556 78.936 124.108 78.936C124.564 78.936 124.96 79.056 125.296 79.296C125.632 79.512 125.8 79.8 125.8 80.16V81.456C126.208 80.76 126.808 80.136 127.6 79.584C128.392 79.008 129.388 78.72 130.588 78.72C131.668 78.72 132.616 79.056 133.432 79.728C134.272 80.4 134.896 81.264 135.304 82.32C135.928 81.096 136.732 80.196 137.716 79.62C138.7 79.02 139.708 78.72 140.74 78.72C141.82 78.72 142.828 78.996 143.764 79.548C144.724 80.1 145.504 80.904 146.104 81.96C146.704 83.016 147.004 84.3 147.004 85.812V94.74C147.004 95.052 146.812 95.34 146.428 95.604C146.068 95.868 145.624 96 145.096 96C144.592 96 144.148 95.868 143.764 95.604C143.404 95.34 143.224 95.052 143.224 94.74V85.812C143.224 84.996 143.056 84.312 142.72 83.76C142.408 83.184 141.988 82.752 141.46 82.464C140.956 82.176 140.428 82.032 139.876 82.032C139.3 82.032 138.76 82.188 138.256 82.5C137.752 82.788 137.332 83.208 136.996 83.76C136.66 84.288 136.492 84.948 136.492 85.74V94.776C136.492 95.208 136.288 95.52 135.88 95.712C135.496 95.904 135.064 96 134.584 96C134.152 96 133.732 95.904 133.324 95.712C132.916 95.52 132.712 95.208 132.712 94.776V85.776C132.712 85.008 132.556 84.348 132.244 83.796C131.932 83.244 131.524 82.824 131.02 82.536C130.516 82.224 129.964 82.068 129.364 82.068C128.812 82.068 128.272 82.212 127.744 82.5C127.24 82.788 126.82 83.208 126.484 83.76C126.172 84.312 126.016 84.996 126.016 85.812V94.74C126.016 95.052 125.824 95.34 125.44 95.604C125.08 95.868 124.636 96 124.108 96Z" fill="#FF0082"/>
<rect x="1.5" y="1.5" width="217" height="162" rx="38.5" stroke="#F7CFE5" stroke-width="3"/>
</g>
<defs>
<filter id="filter0_d_838_1291" x="0" y="0" width="225" height="170" filterUnits="userSpaceOnUse" color-interpolation-filters="sRGB">
<feFlood flood-opacity="0" result="BackgroundImageFix"/>
<feColorMatrix in="SourceAlpha" type="matrix" values="0 0 0 0 0 0 0 0 0 0 0 0 0 0 0 0 0 0 127 0" result="hardAlpha"/>
<feOffset dx="5" dy="5"/>
<feComposite in2="hardAlpha" operator="out"/>
<feColorMatrix type="matrix" values="0 0 0 0 1 0 0 0 0 0 0 0 0 0 0.509804 0 0 0 1 0"/>
<feBlend mode="normal" in2="BackgroundImageFix" result="effect1_dropShadow_838_1291"/>
<feBlend mode="normal" in="SourceGraphic" in2="effect1_dropShadow_838_1291" result="shape"/>
</filter>
</defs>
</svg>
