<svg width="225" height="170" viewBox="0 0 225 170" fill="none" xmlns="http://www.w3.org/2000/svg">
<g filter="url(#filter0_d_838_1002)">
<rect width="220" height="165" rx="40" fill="#FDFAF1"/>
<path d="M62.5675 96.216C60.9835 96.216 59.5675 95.94 58.3195 95.388C57.0715 94.812 56.0995 94.008 55.4035 92.976C54.7075 91.944 54.3595 90.732 54.3595 89.34C54.3595 88.62 54.5155 88.14 54.8275 87.9C55.1635 87.636 55.6435 87.504 56.2675 87.504C56.7715 87.504 57.2035 87.6 57.5635 87.792C57.9475 87.96 58.1515 88.284 58.1755 88.764C58.1995 89.46 58.3555 90.12 58.6435 90.744C58.9315 91.368 59.3875 91.872 60.0115 92.256C60.6355 92.64 61.4395 92.832 62.4235 92.832C63.7915 92.832 64.8475 92.46 65.5915 91.716C66.3595 90.948 66.7435 89.772 66.7435 88.188V73.068H62.5315C62.1235 73.068 61.8115 72.9 61.5955 72.564C61.3795 72.204 61.2715 71.796 61.2715 71.34C61.2715 70.956 61.3675 70.584 61.5595 70.224C61.7515 69.864 62.0755 69.684 62.5315 69.684H68.8315C69.2875 69.684 69.6835 69.792 70.0195 70.008C70.3795 70.224 70.5595 70.536 70.5595 70.944V88.188C70.5595 90.132 70.1995 91.692 69.4795 92.868C68.7595 94.044 67.7995 94.896 66.5995 95.424C65.3995 95.952 64.0555 96.216 62.5675 96.216ZM78.2818 96.288C76.9618 96.288 75.8338 95.904 74.8978 95.136C73.9618 94.344 73.4938 93.144 73.4938 91.536C73.4938 90.168 73.8538 89.112 74.5738 88.368C75.2938 87.624 76.2778 87.108 77.5258 86.82C78.7978 86.532 80.2618 86.388 81.9178 86.388H83.5018V85.74C83.5018 85.116 83.3818 84.516 83.1418 83.94C82.9258 83.34 82.5538 82.848 82.0258 82.464C81.5218 82.056 80.8258 81.852 79.9378 81.852C79.0498 81.852 78.3658 81.936 77.8857 82.104C77.4058 82.272 77.0218 82.452 76.7338 82.644C76.4458 82.836 76.1818 82.932 75.9418 82.932C75.5098 82.932 75.1738 82.728 74.9338 82.32C74.6938 81.888 74.5738 81.456 74.5738 81.024C74.5738 80.592 74.8498 80.208 75.4018 79.872C75.9778 79.512 76.6858 79.236 77.5258 79.044C78.3658 78.828 79.1938 78.72 80.0098 78.72C81.7858 78.72 83.2018 79.056 84.2578 79.728C85.3138 80.376 86.0818 81.228 86.5618 82.284C87.0418 83.34 87.2818 84.48 87.2818 85.704V94.74C87.2818 95.076 87.1018 95.376 86.7418 95.64C86.4058 95.88 85.9738 96 85.4458 96C84.9658 96 84.5578 95.88 84.2218 95.64C83.8858 95.376 83.7178 95.076 83.7178 94.74V93.48C83.0938 94.2 82.3378 94.848 81.4498 95.424C80.5618 96 79.5058 96.288 78.2818 96.288ZM79.6498 93.408C80.2498 93.408 80.8378 93.228 81.4138 92.868C82.0138 92.508 82.5058 92.052 82.8898 91.5C83.2978 90.948 83.5018 90.384 83.5018 89.808V88.476H82.6018C81.6898 88.476 80.8258 88.536 80.0098 88.656C79.1938 88.752 78.5338 88.992 78.0298 89.376C77.5498 89.736 77.3098 90.3 77.3098 91.068C77.3098 91.884 77.5258 92.484 77.9578 92.868C78.4138 93.228 78.9778 93.408 79.6498 93.408ZM92.9692 74.652C92.3692 74.652 91.8532 74.448 91.4212 74.04C90.9892 73.632 90.7732 73.176 90.7732 72.672C90.7732 72.12 90.9892 71.652 91.4212 71.268C91.8532 70.884 92.3692 70.692 92.9692 70.692C93.5692 70.692 94.0732 70.884 94.4812 71.268C94.9132 71.652 95.1292 72.12 95.1292 72.672C95.1292 73.176 94.9132 73.632 94.4812 74.04C94.0732 74.448 93.5692 74.652 92.9692 74.652ZM92.9692 96C92.4172 96 91.9612 95.868 91.6012 95.604C91.2652 95.34 91.0972 95.052 91.0972 94.74V80.16C91.0972 79.8 91.2652 79.512 91.6012 79.296C91.9612 79.056 92.4172 78.936 92.9692 78.936C93.4972 78.936 93.9412 79.056 94.3012 79.296C94.6852 79.512 94.8772 79.8 94.8772 80.16V94.74C94.8772 95.052 94.6852 95.34 94.3012 95.604C93.9412 95.868 93.4972 96 92.9692 96ZM100.668 96C100.116 96 99.6604 95.868 99.3004 95.604C98.9644 95.34 98.7964 95.052 98.7964 94.74V80.16C98.7964 79.8 98.9644 79.512 99.3004 79.296C99.6604 79.056 100.116 78.936 100.668 78.936C101.124 78.936 101.52 79.056 101.856 79.296C102.192 79.512 102.36 79.8 102.36 80.16V81.456C102.72 80.76 103.308 80.136 104.124 79.584C104.964 79.008 105.984 78.72 107.184 78.72C108.312 78.72 109.344 79.044 110.28 79.692C111.24 80.316 112.008 81.168 112.584 82.248C113.16 83.304 113.448 84.492 113.448 85.812V94.74C113.448 95.148 113.244 95.46 112.836 95.676C112.452 95.892 112.02 96 111.54 96C111.108 96 110.688 95.892 110.28 95.676C109.872 95.46 109.668 95.148 109.668 94.74V85.812C109.668 85.188 109.5 84.588 109.164 84.012C108.852 83.436 108.42 82.968 107.868 82.608C107.316 82.248 106.704 82.068 106.032 82.068C105.456 82.068 104.904 82.224 104.376 82.536C103.848 82.824 103.416 83.244 103.08 83.796C102.744 84.348 102.576 85.02 102.576 85.812V94.74C102.576 95.052 102.384 95.34 102 95.604C101.64 95.868 101.196 96 100.668 96ZM119.09 74.652C118.49 74.652 117.974 74.448 117.542 74.04C117.11 73.632 116.894 73.176 116.894 72.672C116.894 72.12 117.11 71.652 117.542 71.268C117.974 70.884 118.49 70.692 119.09 70.692C119.69 70.692 120.194 70.884 120.602 71.268C121.034 71.652 121.25 72.12 121.25 72.672C121.25 73.176 121.034 73.632 120.602 74.04C120.194 74.448 119.69 74.652 119.09 74.652ZM119.09 96C118.538 96 118.082 95.868 117.722 95.604C117.386 95.34 117.218 95.052 117.218 94.74V80.16C117.218 79.8 117.386 79.512 117.722 79.296C118.082 79.056 118.538 78.936 119.09 78.936C119.618 78.936 120.062 79.056 120.422 79.296C120.806 79.512 120.998 79.8 120.998 80.16V94.74C120.998 95.052 120.806 95.34 120.422 95.604C120.062 95.868 119.618 96 119.09 96ZM130.138 96.288C128.962 96.288 127.906 96.144 126.97 95.856C126.034 95.568 125.29 95.208 124.738 94.776C124.21 94.32 123.946 93.864 123.946 93.408C123.946 93.192 123.994 92.952 124.09 92.688C124.21 92.424 124.366 92.196 124.558 92.004C124.774 91.812 125.002 91.716 125.242 91.716C125.554 91.716 125.878 91.86 126.214 92.148C126.574 92.412 127.042 92.688 127.618 92.976C128.194 93.24 128.998 93.372 130.03 93.372C131.23 93.372 132.034 93.168 132.441 92.76C132.874 92.352 133.09 91.908 133.09 91.428C133.09 90.804 132.874 90.324 132.441 89.988C132.034 89.628 131.494 89.34 130.822 89.124C130.174 88.908 129.478 88.704 128.734 88.512C127.99 88.296 127.282 88.02 126.61 87.684C125.962 87.348 125.422 86.88 124.99 86.28C124.582 85.68 124.378 84.888 124.378 83.904C124.378 83.088 124.582 82.284 124.99 81.492C125.398 80.676 126.046 80.016 126.934 79.512C127.846 78.984 129.058 78.72 130.57 78.72C131.482 78.72 132.346 78.816 133.162 79.008C133.978 79.2 134.65 79.464 135.178 79.8C135.706 80.112 135.97 80.46 135.97 80.844C135.97 81.012 135.91 81.252 135.79 81.564C135.67 81.852 135.502 82.116 135.286 82.356C135.094 82.572 134.842 82.68 134.53 82.68C134.29 82.68 133.99 82.596 133.63 82.428C133.27 82.236 132.85 82.056 132.37 81.888C131.89 81.72 131.302 81.636 130.606 81.636C129.91 81.636 129.346 81.756 128.914 81.996C128.506 82.212 128.206 82.476 128.014 82.788C127.822 83.1 127.726 83.412 127.726 83.724C127.726 84.252 127.93 84.66 128.338 84.948C128.746 85.236 129.286 85.476 129.958 85.668C130.63 85.86 131.338 86.064 132.082 86.28C132.826 86.472 133.522 86.76 134.17 87.144C134.842 87.528 135.382 88.044 135.79 88.692C136.222 89.34 136.438 90.204 136.438 91.284C136.438 92.796 135.886 94.008 134.782 94.92C133.702 95.832 132.154 96.288 130.138 96.288ZM141.415 96C140.863 96 140.407 95.868 140.047 95.604C139.711 95.34 139.543 95.052 139.543 94.74V80.16C139.543 79.8 139.711 79.512 140.047 79.296C140.407 79.056 140.863 78.936 141.415 78.936C141.871 78.936 142.267 79.056 142.603 79.296C142.939 79.512 143.107 79.8 143.107 80.16V81.456C143.515 80.76 144.115 80.136 144.907 79.584C145.699 79.008 146.695 78.72 147.895 78.72C148.975 78.72 149.923 79.056 150.739 79.728C151.579 80.4 152.203 81.264 152.611 82.32C153.235 81.096 154.039 80.196 155.023 79.62C156.007 79.02 157.015 78.72 158.047 78.72C159.127 78.72 160.135 78.996 161.071 79.548C162.031 80.1 162.811 80.904 163.411 81.96C164.011 83.016 164.311 84.3 164.311 85.812V94.74C164.311 95.052 164.119 95.34 163.735 95.604C163.375 95.868 162.931 96 162.403 96C161.899 96 161.455 95.868 161.071 95.604C160.711 95.34 160.531 95.052 160.531 94.74V85.812C160.531 84.996 160.363 84.312 160.027 83.76C159.715 83.184 159.295 82.752 158.767 82.464C158.263 82.176 157.735 82.032 157.183 82.032C156.607 82.032 156.067 82.188 155.562 82.5C155.059 82.788 154.639 83.208 154.303 83.76C153.967 84.288 153.799 84.948 153.799 85.74V94.776C153.799 95.208 153.595 95.52 153.187 95.712C152.803 95.904 152.371 96 151.891 96C151.459 96 151.039 95.904 150.631 95.712C150.223 95.52 150.019 95.208 150.019 94.776V85.776C150.019 85.008 149.863 84.348 149.551 83.796C149.239 83.244 148.831 82.824 148.327 82.536C147.823 82.224 147.271 82.068 146.671 82.068C146.119 82.068 145.579 82.212 145.051 82.5C144.547 82.788 144.127 83.208 143.791 83.76C143.479 84.312 143.323 84.996 143.323 85.812V94.74C143.323 95.052 143.131 95.34 142.747 95.604C142.387 95.868 141.943 96 141.415 96Z" fill="#FF0082"/>
<rect x="1.5" y="1.5" width="217" height="162" rx="38.5" stroke="#F7CFE5" stroke-width="3"/>
</g>
<defs>
<filter id="filter0_d_838_1002" x="0" y="0" width="225" height="170" filterUnits="userSpaceOnUse" color-interpolation-filters="sRGB">
<feFlood flood-opacity="0" result="BackgroundImageFix"/>
<feColorMatrix in="SourceAlpha" type="matrix" values="0 0 0 0 0 0 0 0 0 0 0 0 0 0 0 0 0 0 127 0" result="hardAlpha"/>
<feOffset dx="5" dy="5"/>
<feComposite in2="hardAlpha" operator="out"/>
<feColorMatrix type="matrix" values="0 0 0 0 1 0 0 0 0 0 0 0 0 0 0.509804 0 0 0 1 0"/>
<feBlend mode="normal" in2="BackgroundImageFix" result="effect1_dropShadow_838_1002"/>
<feBlend mode="normal" in="SourceGraphic" in2="effect1_dropShadow_838_1002" result="shape"/>
</filter>
</defs>
</svg>
