<svg width="225" height="170" viewBox="0 0 225 170" fill="none" xmlns="http://www.w3.org/2000/svg">
<g filter="url(#filter0_d_838_937)">
<rect width="220" height="165" rx="40" fill="#FDFAF1"/>
<path d="M57.794 96.216C56.21 96.216 54.794 95.94 53.546 95.388C52.298 94.812 51.326 94.008 50.63 92.976C49.934 91.944 49.586 90.732 49.586 89.34C49.586 88.62 49.742 88.14 50.054 87.9C50.39 87.636 50.87 87.504 51.494 87.504C51.998 87.504 52.43 87.6 52.79 87.792C53.174 87.96 53.378 88.284 53.402 88.764C53.426 89.46 53.582 90.12 53.87 90.744C54.158 91.368 54.614 91.872 55.238 92.256C55.862 92.64 56.666 92.832 57.65 92.832C59.018 92.832 60.074 92.46 60.818 91.716C61.586 90.948 61.97 89.772 61.97 88.188V73.068H57.758C57.35 73.068 57.038 72.9 56.822 72.564C56.606 72.204 56.498 71.796 56.498 71.34C56.498 70.956 56.594 70.584 56.786 70.224C56.978 69.864 57.302 69.684 57.758 69.684H64.058C64.514 69.684 64.91 69.792 65.246 70.008C65.606 70.224 65.786 70.536 65.786 70.944V88.188C65.786 90.132 65.426 91.692 64.706 92.868C63.986 94.044 63.026 94.896 61.826 95.424C60.626 95.952 59.282 96.216 57.794 96.216ZM77.0723 96.288C75.7283 96.288 74.4803 95.964 73.3283 95.316C72.2003 94.644 71.3003 93.768 70.6283 92.688C69.9563 91.584 69.6203 90.42 69.6203 89.196V80.196C69.6203 79.884 69.8003 79.596 70.1603 79.332C70.5443 79.068 71.0003 78.936 71.5283 78.936C72.0323 78.936 72.4643 79.068 72.8243 79.332C73.2083 79.596 73.4003 79.884 73.4003 80.196V89.196C73.4003 89.82 73.5563 90.42 73.8683 90.996C74.2043 91.572 74.6483 92.04 75.2003 92.4C75.7763 92.76 76.4003 92.94 77.0723 92.94C77.7443 92.94 78.3563 92.76 78.9083 92.4C79.4603 92.04 79.8923 91.572 80.2043 90.996C80.5403 90.42 80.7083 89.82 80.7083 89.196V80.16C80.7083 79.824 80.9003 79.536 81.2843 79.296C81.6923 79.056 82.1363 78.936 82.6163 78.936C83.1683 78.936 83.6123 79.056 83.9483 79.296C84.3083 79.536 84.4883 79.824 84.4883 80.16V89.196C84.4883 90.468 84.1523 91.644 83.4803 92.724C82.8083 93.804 81.9083 94.668 80.7803 95.316C79.6523 95.964 78.4163 96.288 77.0723 96.288ZM93.9453 96.288C92.8173 96.288 91.7733 95.952 90.8133 95.28C89.8533 94.608 89.0733 93.732 88.4733 92.652C87.8973 91.548 87.6093 90.372 87.6093 89.124V85.812C87.6093 84.492 87.8973 83.304 88.4733 82.248C89.0733 81.168 89.8533 80.316 90.8133 79.692C91.7733 79.044 92.8413 78.72 94.0173 78.72C95.1693 78.72 96.1413 79.008 96.9333 79.584C97.7253 80.136 98.3133 80.76 98.6973 81.456V70.008C98.6973 69.648 98.8893 69.36 99.2733 69.144C99.6573 68.904 100.113 68.784 100.641 68.784C101.169 68.784 101.601 68.904 101.937 69.144C102.297 69.36 102.477 69.648 102.477 70.008V94.74C102.477 95.052 102.297 95.34 101.937 95.604C101.601 95.868 101.169 96 100.641 96C100.185 96 99.7773 95.868 99.4173 95.604C99.0813 95.34 98.9133 95.052 98.9133 94.74V93.48C98.5533 94.224 97.9173 94.884 97.0053 95.46C96.0933 96.012 95.0733 96.288 93.9453 96.288ZM95.0253 92.94C95.7213 92.94 96.3453 92.748 96.8973 92.364C97.4493 91.98 97.8813 91.56 98.1933 91.104C98.5293 90.624 98.6973 90.24 98.6973 89.952V85.812C98.6973 85.02 98.5173 84.348 98.1573 83.796C97.7973 83.244 97.3413 82.824 96.7893 82.536C96.2373 82.224 95.6613 82.068 95.0613 82.068C94.3893 82.068 93.7653 82.248 93.1893 82.608C92.6373 82.968 92.1933 83.436 91.8573 84.012C91.5453 84.588 91.3893 85.188 91.3893 85.812V89.124C91.3893 89.748 91.5453 90.36 91.8573 90.96C92.1933 91.56 92.6373 92.04 93.1893 92.4C93.7413 92.76 94.3533 92.94 95.0253 92.94ZM110.176 96.288C108.856 96.288 107.728 95.904 106.792 95.136C105.856 94.344 105.388 93.144 105.388 91.536C105.388 90.168 105.748 89.112 106.468 88.368C107.188 87.624 108.172 87.108 109.42 86.82C110.692 86.532 112.156 86.388 113.812 86.388H115.396V85.74C115.396 85.116 115.276 84.516 115.036 83.94C114.82 83.34 114.448 82.848 113.92 82.464C113.416 82.056 112.72 81.852 111.832 81.852C110.944 81.852 110.26 81.936 109.78 82.104C109.3 82.272 108.916 82.452 108.628 82.644C108.34 82.836 108.076 82.932 107.836 82.932C107.404 82.932 107.068 82.728 106.828 82.32C106.588 81.888 106.468 81.456 106.468 81.024C106.468 80.592 106.744 80.208 107.296 79.872C107.872 79.512 108.58 79.236 109.42 79.044C110.26 78.828 111.088 78.72 111.904 78.72C113.68 78.72 115.096 79.056 116.152 79.728C117.208 80.376 117.976 81.228 118.456 82.284C118.936 83.34 119.176 84.48 119.176 85.704V94.74C119.176 95.076 118.996 95.376 118.636 95.64C118.3 95.88 117.868 96 117.34 96C116.86 96 116.452 95.88 116.116 95.64C115.78 95.376 115.612 95.076 115.612 94.74V93.48C114.988 94.2 114.232 94.848 113.344 95.424C112.456 96 111.4 96.288 110.176 96.288ZM111.544 93.408C112.144 93.408 112.732 93.228 113.308 92.868C113.908 92.508 114.4 92.052 114.784 91.5C115.192 90.948 115.396 90.384 115.396 89.808V88.476H114.496C113.584 88.476 112.72 88.536 111.904 88.656C111.088 88.752 110.428 88.992 109.924 89.376C109.444 89.736 109.204 90.3 109.204 91.068C109.204 91.884 109.42 92.484 109.852 92.868C110.308 93.228 110.872 93.408 111.544 93.408ZM124.864 74.652C124.264 74.652 123.748 74.448 123.316 74.04C122.884 73.632 122.668 73.176 122.668 72.672C122.668 72.12 122.884 71.652 123.316 71.268C123.748 70.884 124.264 70.692 124.864 70.692C125.464 70.692 125.968 70.884 126.376 71.268C126.808 71.652 127.024 72.12 127.024 72.672C127.024 73.176 126.808 73.632 126.376 74.04C125.968 74.448 125.464 74.652 124.864 74.652ZM124.864 96C124.312 96 123.856 95.868 123.496 95.604C123.16 95.34 122.992 95.052 122.992 94.74V80.16C122.992 79.8 123.16 79.512 123.496 79.296C123.856 79.056 124.312 78.936 124.864 78.936C125.392 78.936 125.836 79.056 126.196 79.296C126.58 79.512 126.772 79.8 126.772 80.16V94.74C126.772 95.052 126.58 95.34 126.196 95.604C125.836 95.868 125.392 96 124.864 96ZM135.911 96.288C134.735 96.288 133.679 96.144 132.743 95.856C131.807 95.568 131.063 95.208 130.511 94.776C129.983 94.32 129.719 93.864 129.719 93.408C129.719 93.192 129.767 92.952 129.863 92.688C129.983 92.424 130.139 92.196 130.331 92.004C130.547 91.812 130.775 91.716 131.015 91.716C131.327 91.716 131.651 91.86 131.987 92.148C132.347 92.412 132.815 92.688 133.391 92.976C133.967 93.24 134.771 93.372 135.803 93.372C137.003 93.372 137.807 93.168 138.215 92.76C138.647 92.352 138.863 91.908 138.863 91.428C138.863 90.804 138.647 90.324 138.215 89.988C137.807 89.628 137.267 89.34 136.595 89.124C135.947 88.908 135.251 88.704 134.507 88.512C133.763 88.296 133.055 88.02 132.383 87.684C131.735 87.348 131.195 86.88 130.763 86.28C130.355 85.68 130.151 84.888 130.151 83.904C130.151 83.088 130.355 82.284 130.763 81.492C131.171 80.676 131.819 80.016 132.707 79.512C133.619 78.984 134.831 78.72 136.343 78.72C137.255 78.72 138.119 78.816 138.935 79.008C139.751 79.2 140.423 79.464 140.951 79.8C141.479 80.112 141.743 80.46 141.743 80.844C141.743 81.012 141.683 81.252 141.563 81.564C141.443 81.852 141.275 82.116 141.059 82.356C140.867 82.572 140.615 82.68 140.303 82.68C140.063 82.68 139.763 82.596 139.403 82.428C139.043 82.236 138.623 82.056 138.143 81.888C137.663 81.72 137.075 81.636 136.379 81.636C135.683 81.636 135.119 81.756 134.687 81.996C134.279 82.212 133.979 82.476 133.787 82.788C133.595 83.1 133.499 83.412 133.499 83.724C133.499 84.252 133.703 84.66 134.111 84.948C134.519 85.236 135.059 85.476 135.731 85.668C136.403 85.86 137.111 86.064 137.855 86.28C138.599 86.472 139.295 86.76 139.943 87.144C140.615 87.528 141.155 88.044 141.563 88.692C141.995 89.34 142.211 90.204 142.211 91.284C142.211 92.796 141.659 94.008 140.555 94.92C139.475 95.832 137.927 96.288 135.911 96.288ZM147.188 96C146.636 96 146.18 95.868 145.82 95.604C145.484 95.34 145.316 95.052 145.316 94.74V80.16C145.316 79.8 145.484 79.512 145.82 79.296C146.18 79.056 146.636 78.936 147.188 78.936C147.644 78.936 148.04 79.056 148.376 79.296C148.712 79.512 148.88 79.8 148.88 80.16V81.456C149.288 80.76 149.888 80.136 150.68 79.584C151.472 79.008 152.468 78.72 153.668 78.72C154.748 78.72 155.696 79.056 156.512 79.728C157.352 80.4 157.976 81.264 158.384 82.32C159.008 81.096 159.812 80.196 160.796 79.62C161.78 79.02 162.788 78.72 163.82 78.72C164.9 78.72 165.908 78.996 166.844 79.548C167.804 80.1 168.584 80.904 169.184 81.96C169.784 83.016 170.084 84.3 170.084 85.812V94.74C170.084 95.052 169.892 95.34 169.508 95.604C169.148 95.868 168.704 96 168.176 96C167.672 96 167.228 95.868 166.844 95.604C166.484 95.34 166.304 95.052 166.304 94.74V85.812C166.304 84.996 166.136 84.312 165.8 83.76C165.488 83.184 165.068 82.752 164.54 82.464C164.036 82.176 163.508 82.032 162.956 82.032C162.38 82.032 161.84 82.188 161.336 82.5C160.832 82.788 160.412 83.208 160.076 83.76C159.74 84.288 159.572 84.948 159.572 85.74V94.776C159.572 95.208 159.368 95.52 158.96 95.712C158.576 95.904 158.144 96 157.664 96C157.232 96 156.812 95.904 156.404 95.712C155.996 95.52 155.792 95.208 155.792 94.776V85.776C155.792 85.008 155.636 84.348 155.324 83.796C155.012 83.244 154.604 82.824 154.1 82.536C153.596 82.224 153.044 82.068 152.444 82.068C151.892 82.068 151.352 82.212 150.824 82.5C150.32 82.788 149.9 83.208 149.564 83.76C149.252 84.312 149.096 84.996 149.096 85.812V94.74C149.096 95.052 148.904 95.34 148.52 95.604C148.16 95.868 147.716 96 147.188 96Z" fill="#FF0082"/>
<rect x="1.5" y="1.5" width="217" height="162" rx="38.5" stroke="#F7CFE5" stroke-width="3"/>
</g>
<defs>
<filter id="filter0_d_838_937" x="0" y="0" width="225" height="170" filterUnits="userSpaceOnUse" color-interpolation-filters="sRGB">
<feFlood flood-opacity="0" result="BackgroundImageFix"/>
<feColorMatrix in="SourceAlpha" type="matrix" values="0 0 0 0 0 0 0 0 0 0 0 0 0 0 0 0 0 0 127 0" result="hardAlpha"/>
<feOffset dx="5" dy="5"/>
<feComposite in2="hardAlpha" operator="out"/>
<feColorMatrix type="matrix" values="0 0 0 0 1 0 0 0 0 0 0 0 0 0 0.509804 0 0 0 1 0"/>
<feBlend mode="normal" in2="BackgroundImageFix" result="effect1_dropShadow_838_937"/>
<feBlend mode="normal" in="SourceGraphic" in2="effect1_dropShadow_838_937" result="shape"/>
</filter>
</defs>
</svg>
