<svg width="225" height="170" viewBox="0 0 225 170" fill="none" xmlns="http://www.w3.org/2000/svg">
<g filter="url(#filter0_d_838_1293)">
<rect width="220" height="165" rx="40" fill="#FDFAF1"/>
<path d="M62.6621 96.288C61.1021 96.288 59.7221 96.06 58.5221 95.604C57.3221 95.148 56.3861 94.596 55.7141 93.948C55.0421 93.276 54.7061 92.64 54.7061 92.04C54.7061 91.752 54.7781 91.452 54.9221 91.14C55.0901 90.828 55.2941 90.564 55.5341 90.348C55.7981 90.108 56.0741 89.988 56.3621 89.988C56.6981 89.988 57.0101 90.132 57.2981 90.42C57.6101 90.684 57.9821 91.008 58.4141 91.392C58.8461 91.776 59.3861 92.112 60.0341 92.4C60.6821 92.688 61.5101 92.832 62.5181 92.832C63.3821 92.832 64.1501 92.7 64.8221 92.436C65.5181 92.148 66.0581 91.728 66.4421 91.176C66.8501 90.6 67.0541 89.88 67.0541 89.016C67.0541 88.104 66.8381 87.348 66.4061 86.748C65.9981 86.148 65.4341 85.644 64.7141 85.236C64.0181 84.828 63.2621 84.456 62.4461 84.12C61.6301 83.784 60.8021 83.424 59.9621 83.04C59.1221 82.656 58.3541 82.2 57.6581 81.672C56.9621 81.12 56.3981 80.436 55.9661 79.62C55.5581 78.78 55.3541 77.736 55.3541 76.488C55.3541 75.168 55.5941 74.064 56.0741 73.176C56.5781 72.288 57.2381 71.58 58.0541 71.052C58.8701 70.524 59.7701 70.152 60.7541 69.936C61.7381 69.696 62.7101 69.576 63.6701 69.576C64.2701 69.576 64.9301 69.624 65.6501 69.72C66.3941 69.792 67.1141 69.936 67.8101 70.152C68.5061 70.344 69.0821 70.608 69.5381 70.944C69.9941 71.28 70.2221 71.688 70.2221 72.168C70.2221 72.408 70.1621 72.696 70.0421 73.032C69.9221 73.344 69.7421 73.62 69.5021 73.86C69.2861 74.1 68.9981 74.22 68.6381 74.22C68.3261 74.22 67.9781 74.112 67.5941 73.896C67.2101 73.656 66.7061 73.428 66.0821 73.212C65.4821 72.972 64.6781 72.852 63.6701 72.852C62.8061 72.852 62.0261 72.972 61.3301 73.212C60.6581 73.452 60.1301 73.812 59.7461 74.292C59.3621 74.748 59.1701 75.36 59.1701 76.128C59.1701 76.896 59.3741 77.532 59.7821 78.036C60.2141 78.516 60.7781 78.936 61.4741 79.296C62.1701 79.632 62.9261 79.956 63.7421 80.268C64.5821 80.58 65.4101 80.952 66.2261 81.384C67.0661 81.792 67.8341 82.296 68.5301 82.896C69.2501 83.496 69.8141 84.264 70.2221 85.2C70.6541 86.112 70.8701 87.252 70.8701 88.62C70.8701 90.348 70.5101 91.788 69.7901 92.94C69.0941 94.068 68.1221 94.908 66.8741 95.46C65.6501 96.012 64.2461 96.288 62.6621 96.288ZM75.9008 74.652C75.3008 74.652 74.7848 74.448 74.3528 74.04C73.9208 73.632 73.7048 73.176 73.7048 72.672C73.7048 72.12 73.9208 71.652 74.3528 71.268C74.7848 70.884 75.3008 70.692 75.9008 70.692C76.5008 70.692 77.0048 70.884 77.4128 71.268C77.8448 71.652 78.0608 72.12 78.0608 72.672C78.0608 73.176 77.8448 73.632 77.4128 74.04C77.0048 74.448 76.5008 74.652 75.9008 74.652ZM75.9008 96C75.3488 96 74.8928 95.868 74.5328 95.604C74.1968 95.34 74.0288 95.052 74.0288 94.74V80.16C74.0288 79.8 74.1968 79.512 74.5328 79.296C74.8928 79.056 75.3488 78.936 75.9008 78.936C76.4288 78.936 76.8728 79.056 77.2328 79.296C77.6168 79.512 77.8088 79.8 77.8088 80.16V94.74C77.8088 95.052 77.6168 95.34 77.2328 95.604C76.8728 95.868 76.4288 96 75.9008 96ZM83.6 96C83.072 96 82.628 95.868 82.268 95.604C81.932 95.34 81.764 95.052 81.764 94.74V70.008C81.764 69.648 81.932 69.36 82.268 69.144C82.628 68.904 83.072 68.784 83.6 68.784C84.152 68.784 84.608 68.904 84.968 69.144C85.352 69.36 85.544 69.648 85.544 70.008V86.028L93.068 79.116C93.284 78.9 93.548 78.792 93.86 78.792C94.148 78.792 94.424 78.888 94.688 79.08C94.976 79.248 95.216 79.476 95.408 79.764C95.6 80.028 95.696 80.304 95.696 80.592C95.696 80.736 95.672 80.88 95.624 81.024C95.576 81.144 95.492 81.264 95.372 81.384L90.728 85.524L96.38 93.66C96.524 93.9 96.596 94.116 96.596 94.308C96.596 94.62 96.476 94.92 96.236 95.208C96.02 95.496 95.744 95.736 95.408 95.928C95.096 96.12 94.784 96.216 94.472 96.216C94.04 96.216 93.704 96.036 93.464 95.676L88.172 87.864L85.544 90.24V94.74C85.544 95.052 85.352 95.34 84.968 95.604C84.608 95.868 84.152 96 83.6 96ZM100.863 96C100.311 96 99.8546 95.868 99.4946 95.604C99.1586 95.34 98.9906 95.052 98.9906 94.74V70.008C98.9906 69.648 99.1586 69.36 99.4946 69.144C99.8546 68.904 100.311 68.784 100.863 68.784C101.391 68.784 101.835 68.904 102.195 69.144C102.579 69.36 102.771 69.648 102.771 70.008V81.456C103.131 80.76 103.695 80.136 104.463 79.584C105.255 79.008 106.227 78.72 107.379 78.72C108.507 78.72 109.539 79.044 110.475 79.692C111.435 80.316 112.203 81.168 112.779 82.248C113.355 83.304 113.643 84.492 113.643 85.812V94.74C113.643 95.148 113.439 95.46 113.031 95.676C112.647 95.892 112.215 96 111.735 96C111.303 96 110.883 95.892 110.475 95.676C110.067 95.46 109.863 95.148 109.863 94.74V85.812C109.863 85.188 109.695 84.588 109.359 84.012C109.023 83.436 108.579 82.968 108.027 82.608C107.499 82.248 106.899 82.068 106.227 82.068C105.651 82.068 105.099 82.224 104.571 82.536C104.043 82.824 103.611 83.244 103.275 83.796C102.939 84.348 102.771 85.02 102.771 85.812V94.74C102.771 95.052 102.579 95.34 102.195 95.604C101.835 95.868 101.391 96 100.863 96ZM119.284 74.652C118.684 74.652 118.168 74.448 117.736 74.04C117.304 73.632 117.088 73.176 117.088 72.672C117.088 72.12 117.304 71.652 117.736 71.268C118.168 70.884 118.684 70.692 119.284 70.692C119.884 70.692 120.388 70.884 120.796 71.268C121.228 71.652 121.444 72.12 121.444 72.672C121.444 73.176 121.228 73.632 120.796 74.04C120.388 74.448 119.884 74.652 119.284 74.652ZM119.284 96C118.732 96 118.276 95.868 117.916 95.604C117.58 95.34 117.412 95.052 117.412 94.74V80.16C117.412 79.8 117.58 79.512 117.916 79.296C118.276 79.056 118.732 78.936 119.284 78.936C119.812 78.936 120.256 79.056 120.616 79.296C121 79.512 121.192 79.8 121.192 80.16V94.74C121.192 95.052 121 95.34 120.616 95.604C120.256 95.868 119.812 96 119.284 96ZM130.331 96.288C129.155 96.288 128.099 96.144 127.163 95.856C126.227 95.568 125.483 95.208 124.931 94.776C124.403 94.32 124.139 93.864 124.139 93.408C124.139 93.192 124.187 92.952 124.283 92.688C124.403 92.424 124.559 92.196 124.751 92.004C124.967 91.812 125.195 91.716 125.435 91.716C125.747 91.716 126.071 91.86 126.407 92.148C126.767 92.412 127.235 92.688 127.811 92.976C128.387 93.24 129.191 93.372 130.223 93.372C131.423 93.372 132.227 93.168 132.635 92.76C133.067 92.352 133.283 91.908 133.283 91.428C133.283 90.804 133.067 90.324 132.635 89.988C132.227 89.628 131.687 89.34 131.015 89.124C130.367 88.908 129.671 88.704 128.927 88.512C128.183 88.296 127.475 88.02 126.803 87.684C126.155 87.348 125.615 86.88 125.183 86.28C124.775 85.68 124.571 84.888 124.571 83.904C124.571 83.088 124.775 82.284 125.183 81.492C125.591 80.676 126.239 80.016 127.127 79.512C128.039 78.984 129.251 78.72 130.763 78.72C131.675 78.72 132.539 78.816 133.355 79.008C134.171 79.2 134.843 79.464 135.371 79.8C135.899 80.112 136.163 80.46 136.163 80.844C136.163 81.012 136.103 81.252 135.983 81.564C135.863 81.852 135.695 82.116 135.479 82.356C135.287 82.572 135.035 82.68 134.723 82.68C134.483 82.68 134.183 82.596 133.823 82.428C133.463 82.236 133.043 82.056 132.563 81.888C132.083 81.72 131.495 81.636 130.799 81.636C130.103 81.636 129.539 81.756 129.107 81.996C128.699 82.212 128.399 82.476 128.207 82.788C128.015 83.1 127.919 83.412 127.919 83.724C127.919 84.252 128.123 84.66 128.531 84.948C128.939 85.236 129.479 85.476 130.151 85.668C130.823 85.86 131.531 86.064 132.275 86.28C133.019 86.472 133.715 86.76 134.363 87.144C135.035 87.528 135.575 88.044 135.983 88.692C136.415 89.34 136.631 90.204 136.631 91.284C136.631 92.796 136.079 94.008 134.975 94.92C133.895 95.832 132.347 96.288 130.331 96.288ZM141.608 96C141.056 96 140.6 95.868 140.24 95.604C139.904 95.34 139.736 95.052 139.736 94.74V80.16C139.736 79.8 139.904 79.512 140.24 79.296C140.6 79.056 141.056 78.936 141.608 78.936C142.064 78.936 142.46 79.056 142.796 79.296C143.132 79.512 143.3 79.8 143.3 80.16V81.456C143.708 80.76 144.308 80.136 145.1 79.584C145.892 79.008 146.888 78.72 148.088 78.72C149.168 78.72 150.116 79.056 150.932 79.728C151.772 80.4 152.396 81.264 152.804 82.32C153.428 81.096 154.232 80.196 155.216 79.62C156.2 79.02 157.208 78.72 158.24 78.72C159.32 78.72 160.328 78.996 161.264 79.548C162.224 80.1 163.004 80.904 163.604 81.96C164.204 83.016 164.504 84.3 164.504 85.812V94.74C164.504 95.052 164.312 95.34 163.928 95.604C163.568 95.868 163.124 96 162.596 96C162.092 96 161.648 95.868 161.264 95.604C160.904 95.34 160.724 95.052 160.724 94.74V85.812C160.724 84.996 160.556 84.312 160.22 83.76C159.908 83.184 159.488 82.752 158.96 82.464C158.456 82.176 157.928 82.032 157.376 82.032C156.8 82.032 156.26 82.188 155.756 82.5C155.252 82.788 154.832 83.208 154.496 83.76C154.16 84.288 153.992 84.948 153.992 85.74V94.776C153.992 95.208 153.788 95.52 153.38 95.712C152.996 95.904 152.564 96 152.084 96C151.652 96 151.232 95.904 150.824 95.712C150.416 95.52 150.212 95.208 150.212 94.776V85.776C150.212 85.008 150.056 84.348 149.744 83.796C149.432 83.244 149.024 82.824 148.52 82.536C148.016 82.224 147.464 82.068 146.864 82.068C146.312 82.068 145.772 82.212 145.244 82.5C144.74 82.788 144.32 83.208 143.984 83.76C143.672 84.312 143.516 84.996 143.516 85.812V94.74C143.516 95.052 143.324 95.34 142.94 95.604C142.58 95.868 142.136 96 141.608 96Z" fill="#FF0082"/>
<rect x="1.5" y="1.5" width="217" height="162" rx="38.5" stroke="#F7CFE5" stroke-width="3"/>
</g>
<defs>
<filter id="filter0_d_838_1293" x="0" y="0" width="225" height="170" filterUnits="userSpaceOnUse" color-interpolation-filters="sRGB">
<feFlood flood-opacity="0" result="BackgroundImageFix"/>
<feColorMatrix in="SourceAlpha" type="matrix" values="0 0 0 0 0 0 0 0 0 0 0 0 0 0 0 0 0 0 127 0" result="hardAlpha"/>
<feOffset dx="5" dy="5"/>
<feComposite in2="hardAlpha" operator="out"/>
<feColorMatrix type="matrix" values="0 0 0 0 1 0 0 0 0 0 0 0 0 0 0.509804 0 0 0 1 0"/>
<feBlend mode="normal" in2="BackgroundImageFix" result="effect1_dropShadow_838_1293"/>
<feBlend mode="normal" in="SourceGraphic" in2="effect1_dropShadow_838_1293" result="shape"/>
</filter>
</defs>
</svg>
