<svg width="233" height="235" viewBox="0 0 233 235" fill="none" xmlns="http://www.w3.org/2000/svg">
<g filter="url(#filter0_d_560_166)">
<mask id="mask0_560_166" style="mask-type:luminance" maskUnits="userSpaceOnUse" x="0" y="0" width="233" height="235">
<path d="M103.258 0L232.478 96.006L129.224 234.982L0.00346762 138.976L103.258 0Z" fill="white"/>
</mask>
<g mask="url(#mask0_560_166)">
<path d="M33.0257 146.58L33.0093 146.569L32.9926 146.559C27.42 143.138 21.0196 141.224 13.8276 140.777C22.225 137.82 29.9898 134.741 37.1202 131.538L37.1588 131.521L37.1963 131.502C40.774 129.645 43.5593 128.131 45.5399 126.963C46.5286 126.38 47.3364 125.872 47.9495 125.442C48.424 125.109 48.9009 124.743 49.2334 124.366C51.3663 122.7 53.1085 120.927 54.4338 119.036L54.4826 118.967L54.5232 118.892L56.0163 116.147L56.0642 116.059L56.0999 115.966C56.8835 113.915 57.2146 111.761 57.0982 109.521C57.1294 108.918 57.0244 108.051 56.8631 107.062C56.68 105.938 56.3907 104.473 55.9992 102.676C55.2206 99.102 54.0239 94.1521 52.4124 87.8345C52.1366 84.4428 52.0285 81.7294 52.0799 79.677C52.1339 77.5251 52.3627 76.3207 52.6078 75.8028L52.6815 75.647L52.718 75.4786C53.3392 72.6089 54.5021 69.604 56.2309 66.4619L59.2965 61.6617C61.5803 58.4975 64.3646 55.4236 67.658 52.4422L67.658 52.4422L67.6671 52.4339C74.2929 46.3364 82.6151 41.5231 92.6718 38.0171C97.6254 36.357 102.928 35.2409 108.581 34.6749L117.37 34.3545C132.728 34.8521 148.337 39.5178 164.21 48.4158L164.217 48.4194L164.223 48.4229C180.145 57.1441 192.508 69.0566 201.342 84.172C207.829 95.9696 209.221 108.425 205.514 121.627C201.258 134.959 193.298 147.729 181.569 159.935C169.805 172.176 156.888 182.147 142.818 189.859C135.966 193.601 129.322 196.466 122.887 198.465L113.484 200.688L113.426 200.702L113.369 200.72C112.791 200.907 111.559 201.075 109.509 201.158C107.524 201.238 104.912 201.236 101.661 201.147C91.7791 199.997 83.3407 196.544 76.2968 190.816L76.2817 190.804L76.2663 190.792C72.5646 187.938 68.9891 184.652 65.5429 180.93L44.0025 155.532L43.9862 155.512L43.9694 155.494C41.2917 152.543 37.6294 149.575 33.0257 146.58Z" fill="white" stroke="#F7CFE5" stroke-width="3"/>
<path d="M81.1062 133.188C80.7062 133.182 80.3464 133.096 80.0268 132.931C79.7071 132.75 79.5477 132.492 79.5483 132.156L79.5751 118.428L76.0475 118.373C75.7435 118.368 75.5038 118.22 75.3284 117.93C75.153 117.639 75.0657 117.31 75.0664 116.942C75.067 116.606 75.1476 116.295 75.3082 116.009C75.4687 115.708 75.717 115.56 76.053 115.565L86.2037 115.723C86.5557 115.728 86.8034 115.884 86.9468 116.19C87.1062 116.481 87.1856 116.794 87.1849 117.13C87.1842 117.498 87.0956 117.825 86.919 118.11C86.7585 118.395 86.5182 118.536 86.1983 118.531L82.6947 118.476L82.6679 132.204C82.6673 132.54 82.4988 132.794 82.1625 132.964C81.8422 133.119 81.4901 133.194 81.1062 133.188ZM98.4423 133.577C98.2344 133.574 98.0265 133.507 97.8188 133.376C97.6271 133.245 97.4754 133.058 97.3639 132.817L93.9692 126.14L91.9535 126.108L91.9413 132.348C91.9407 132.684 91.7802 132.938 91.4599 133.109C91.1396 133.264 90.7795 133.338 90.3795 133.332C89.9956 133.326 89.6358 133.24 89.3001 133.075C88.9805 132.894 88.821 132.636 88.8217 132.3L88.852 116.748C88.8525 116.476 88.941 116.245 89.1173 116.056C89.3097 115.867 89.5578 115.775 89.8618 115.779L94.6132 115.853C95.6691 115.87 96.6207 116.036 97.468 116.354C98.3313 116.671 99.0182 117.202 99.5287 117.946C100.039 118.674 100.293 119.678 100.291 120.958C100.289 121.886 100.151 122.676 99.8782 123.327C99.605 123.963 99.228 124.477 98.7473 124.87C98.2826 125.247 97.7461 125.526 97.1378 125.709L100.294 131.59C100.326 131.655 100.35 131.727 100.366 131.807C100.381 131.871 100.389 131.927 100.389 131.975C100.389 132.231 100.292 132.486 100.1 132.739C99.9073 132.992 99.659 133.196 99.3547 133.351C99.0664 133.507 98.7623 133.582 98.4423 133.577ZM91.9583 123.66L94.5979 123.701C95.3818 123.713 96.0061 123.531 96.4708 123.154C96.9355 122.778 97.1688 122.125 97.1706 121.197C97.1725 120.237 96.9418 119.57 96.4786 119.194C96.0154 118.803 95.3918 118.601 94.6079 118.589L91.9682 118.548L91.9583 123.66ZM107.741 133.602C107.357 133.596 106.998 133.51 106.662 133.345C106.342 133.164 106.183 132.906 106.184 132.57L106.195 126.546C106.196 126.418 106.172 126.313 106.124 126.232L101.173 117.563C101.141 117.499 101.118 117.442 101.102 117.394C101.102 117.33 101.102 117.282 101.102 117.25C101.102 116.994 101.215 116.772 101.439 116.583C101.664 116.395 101.936 116.247 102.256 116.14C102.576 116.033 102.88 115.982 103.168 115.986C103.424 115.99 103.616 116.049 103.744 116.163C103.872 116.261 103.991 116.415 104.103 116.625L107.761 123.618L111.422 116.738C111.55 116.532 111.679 116.382 111.807 116.288C111.935 116.178 112.127 116.125 112.383 116.129C112.671 116.134 112.967 116.194 113.271 116.311C113.59 116.428 113.862 116.584 114.086 116.78C114.325 116.976 114.445 117.201 114.444 117.457C114.444 117.489 114.436 117.537 114.42 117.601C114.42 117.649 114.404 117.705 114.372 117.768L109.388 126.283C109.339 126.362 109.315 126.466 109.315 126.594L109.303 132.618C109.303 132.954 109.134 133.207 108.798 133.378C108.478 133.533 108.125 133.608 107.741 133.602ZM121.599 133.817C121.311 133.813 121.015 133.752 120.711 133.635C120.408 133.519 120.152 133.363 119.944 133.167C119.737 132.972 119.633 132.747 119.634 132.491C119.634 132.443 119.642 132.363 119.658 132.251L124.319 117.227C124.432 116.877 124.68 116.616 125.064 116.446C125.465 116.277 125.889 116.195 126.337 116.202C126.801 116.209 127.224 116.304 127.608 116.486C127.992 116.668 128.239 116.936 128.35 117.29L132.952 132.457C132.984 132.57 133 132.65 133 132.698C133 132.938 132.887 133.16 132.663 133.365C132.454 133.554 132.198 133.702 131.894 133.809C131.59 133.916 131.294 133.968 131.006 133.963C130.75 133.959 130.526 133.916 130.334 133.833C130.158 133.734 130.039 133.564 129.975 133.323L129.069 130.117L123.55 130.031L122.656 133.21C122.591 133.449 122.463 133.615 122.271 133.708C122.079 133.785 121.855 133.821 121.599 133.817ZM124.227 127.594L128.402 127.659L126.329 120.258L124.227 127.594ZM140.082 134.248C139.026 134.232 138.074 134.041 137.227 133.676C136.38 133.295 135.701 132.7 135.191 131.892C134.696 131.069 134.45 129.985 134.453 128.641L134.466 121.993C134.469 120.649 134.719 119.581 135.216 118.788C135.73 117.98 136.403 117.407 137.235 117.068C138.084 116.713 139.012 116.543 140.02 116.559C141.14 116.576 142.123 116.776 142.971 117.157C143.834 117.538 144.513 118.077 145.007 118.772C145.502 119.468 145.748 120.296 145.746 121.256C145.745 121.848 145.616 122.246 145.36 122.45C145.104 122.638 144.712 122.728 144.184 122.72C143.768 122.713 143.408 122.636 143.104 122.487C142.801 122.338 142.641 122.08 142.626 121.711C142.611 121.327 142.531 120.958 142.388 120.604C142.261 120.234 142.021 119.926 141.67 119.681C141.334 119.435 140.815 119.307 140.111 119.296C139.327 119.284 138.71 119.507 138.262 119.964C137.829 120.405 137.611 121.098 137.61 122.042L137.597 128.69C137.595 129.634 137.809 130.341 138.24 130.812C138.688 131.267 139.303 131.5 140.087 131.512C140.871 131.524 141.487 131.31 141.936 130.869C142.385 130.412 142.61 129.711 142.612 128.767L142.615 127.375L140.671 127.345C140.367 127.341 140.127 127.209 139.952 126.95C139.792 126.692 139.713 126.41 139.713 126.106C139.714 125.802 139.795 125.524 139.955 125.27C140.132 125.017 140.372 124.893 140.676 124.897L144.755 124.961C145.075 124.966 145.315 125.073 145.475 125.284C145.65 125.479 145.738 125.72 145.737 126.008L145.732 128.816C145.729 130.16 145.479 131.236 144.981 132.044C144.484 132.837 143.803 133.41 142.938 133.765C142.09 134.103 141.137 134.265 140.082 134.248ZM148.924 134.242C148.636 134.237 148.34 134.177 148.036 134.06C147.732 133.943 147.477 133.787 147.269 133.592C147.061 133.397 146.958 133.171 146.958 132.915C146.959 132.867 146.967 132.787 146.983 132.675L151.644 117.651C151.756 117.301 152.005 117.041 152.389 116.871C152.79 116.701 153.214 116.62 153.662 116.627C154.126 116.634 154.549 116.729 154.933 116.911C155.317 117.093 155.564 117.36 155.675 117.714L160.277 132.882C160.309 132.995 160.325 133.075 160.325 133.123C160.324 133.363 160.212 133.585 159.988 133.79C159.779 133.978 159.523 134.126 159.219 134.234C158.915 134.341 158.618 134.392 158.331 134.388C158.075 134.384 157.851 134.34 157.659 134.257C157.483 134.159 157.363 133.989 157.3 133.748L156.394 130.542L150.875 130.456L149.981 133.634C149.916 133.873 149.788 134.039 149.596 134.132C149.404 134.209 149.18 134.246 148.924 134.242ZM151.552 128.018L155.727 128.083L153.654 120.683L151.552 128.018ZM163.519 134.468C163.135 134.463 162.775 134.377 162.44 134.212C162.12 134.031 161.961 133.772 161.961 133.436L161.992 117.884C161.992 117.532 162.153 117.287 162.473 117.148C162.809 116.993 163.169 116.919 163.553 116.925C163.953 116.931 164.313 117.016 164.633 117.181C164.952 117.33 165.112 117.581 165.111 117.933L165.081 133.485C165.08 133.821 164.92 134.074 164.599 134.245C164.279 134.4 163.919 134.475 163.519 134.468ZM169.542 134.562C169.158 134.556 168.798 134.471 168.462 134.305C168.143 134.124 167.983 133.866 167.984 133.53L168.014 117.978C168.015 117.642 168.175 117.396 168.496 117.241C168.832 117.087 169.192 117.012 169.576 117.018C169.96 117.024 170.272 117.069 170.512 117.153C170.768 117.237 170.999 117.4 171.207 117.643C171.43 117.871 171.662 118.227 171.901 118.71L176.515 127.734L176.533 118.11C176.534 117.758 176.694 117.513 177.015 117.374C177.351 117.219 177.711 117.144 178.095 117.15C178.495 117.157 178.855 117.242 179.174 117.407C179.494 117.556 179.654 117.807 179.653 118.159L179.623 133.711C179.622 134.047 179.461 134.3 179.141 134.471C178.821 134.626 178.461 134.701 178.061 134.694C177.693 134.689 177.349 134.611 177.029 134.462C176.726 134.314 176.478 134.054 176.287 133.683L171.122 123.954L171.104 133.578C171.103 133.914 170.943 134.168 170.622 134.339C170.302 134.494 169.942 134.568 169.542 134.562ZM183.768 129.935C183.448 129.93 183.168 129.854 182.929 129.706C182.689 129.558 182.57 129.324 182.57 129.004C182.572 127.948 182.55 126.804 182.505 125.571C182.459 124.338 182.406 123.106 182.344 121.873C182.299 120.64 182.277 119.496 182.279 118.44C182.28 118.024 182.424 117.706 182.713 117.486C183.001 117.251 183.361 117.136 183.793 117.143C184.193 117.149 184.537 117.275 184.824 117.519C185.128 117.748 185.279 118.07 185.278 118.486C185.276 119.542 185.25 120.686 185.2 121.917C185.149 123.148 185.091 124.379 185.025 125.61C184.974 126.842 184.948 127.985 184.946 129.041C184.945 129.361 184.809 129.591 184.537 129.731C184.264 129.871 184.008 129.939 183.768 129.935ZM183.783 134.927C183.319 134.92 182.927 134.754 182.608 134.429C182.304 134.088 182.153 133.702 182.154 133.27C182.155 132.822 182.308 132.44 182.612 132.125C182.933 131.81 183.325 131.656 183.789 131.663C184.221 131.67 184.597 131.836 184.916 132.161C185.235 132.486 185.394 132.872 185.394 133.32C185.393 133.752 185.232 134.134 184.911 134.465C184.591 134.78 184.215 134.934 183.783 134.927Z" fill="#FF0082"/>
<path d="M89.5372 98.3232C88.4813 98.3068 87.5297 98.116 86.6825 97.7508C85.8354 97.3697 85.1566 96.7751 84.6462 95.9671C84.1518 95.1434 83.906 94.0596 83.9086 92.7156L83.9216 86.0676C83.9242 84.7236 84.1742 83.6555 84.6717 82.8632C85.1853 82.0551 85.8583 81.4816 86.6909 81.1425C87.5395 80.7877 88.4998 80.6186 89.5716 80.6352C90.6275 80.6516 91.579 80.8504 92.4262 81.2316C93.2894 81.597 93.9682 82.1916 94.4626 83.0153C94.9569 83.823 95.2028 84.8989 95.2002 86.2429L95.1872 92.8908C95.1846 94.2348 94.9345 95.311 94.437 96.1193C93.9395 96.9116 93.2585 97.485 92.3938 97.8396C91.5453 98.1784 90.593 98.3396 89.5372 98.3232ZM89.5425 95.5872C90.3264 95.5994 90.9428 95.385 91.3916 94.9439C91.8404 94.5029 92.0657 93.8024 92.0676 92.8424L92.0806 86.1944C92.0824 85.2344 91.8598 84.5269 91.4128 84.0719C90.9657 83.617 90.3502 83.3834 89.5663 83.3712C88.7824 83.3591 88.166 83.5735 87.7172 84.0145C87.2844 84.4558 87.0671 85.1564 87.0652 86.1164L87.0522 92.7644C87.0504 93.7244 87.265 94.4318 87.696 94.8865C88.1431 95.3415 88.7586 95.575 89.5425 95.5872ZM99.4295 98.3329C99.0455 98.3269 98.6857 98.2414 98.3501 98.0761C98.0305 97.8952 97.871 97.6367 97.8717 97.3007L97.902 81.7487C97.9027 81.3967 98.0631 81.1512 98.3834 81.0122C98.7196 80.8574 99.0797 80.783 99.4637 80.7889C99.8636 80.7952 100.223 80.8808 100.543 81.0457C100.863 81.1947 101.022 81.4452 101.022 81.7972L101.009 88.0372L106.409 88.1211L106.421 81.8811C106.422 81.5291 106.582 81.2836 106.902 81.1445C107.239 80.9898 107.599 80.9154 107.983 80.9213C108.383 80.9275 108.742 81.0131 109.062 81.1781C109.382 81.3271 109.541 81.5776 109.541 81.9295L109.51 97.4815C109.51 97.8175 109.349 98.071 109.029 98.2421C108.709 98.3971 108.348 98.4715 107.948 98.4653C107.565 98.4593 107.205 98.3737 106.869 98.2085C106.549 98.0275 106.39 97.769 106.391 97.433L106.404 90.5691L101.005 90.4852L100.991 97.3492C100.991 97.6852 100.83 97.9387 100.51 98.1097C100.19 98.2647 99.8295 98.3391 99.4295 98.3329ZM118.787 98.6337C118.403 98.6277 118.043 98.5421 117.707 98.3769C117.388 98.1959 117.228 97.9375 117.229 97.6015L117.259 82.0495C117.26 81.7135 117.42 81.468 117.74 81.3129C118.077 81.1582 118.437 81.0838 118.821 81.0897C119.205 81.0957 119.517 81.1405 119.756 81.2243C120.012 81.3082 120.244 81.4718 120.451 81.7151C120.675 81.9426 120.906 82.2982 121.145 82.7819L125.759 91.8058L125.778 82.1819C125.779 81.8299 125.939 81.5843 126.259 81.4453C126.596 81.2905 126.956 81.2161 127.34 81.2221C127.74 81.2283 128.099 81.3139 128.419 81.4789C128.739 81.6278 128.898 81.8783 128.898 82.2303L128.867 97.7823C128.867 98.1183 128.706 98.3718 128.386 98.5428C128.066 98.6979 127.705 98.7723 127.306 98.7661C126.938 98.7603 126.594 98.683 126.274 98.534C125.97 98.3853 125.723 98.1255 125.532 97.7545L120.367 88.0259L120.348 97.6499C120.348 97.9859 120.187 98.2394 119.867 98.4105C119.547 98.5655 119.186 98.6399 118.787 98.6337ZM137.227 99.0642C136.171 99.0478 135.219 98.857 134.372 98.4919C133.525 98.1107 132.846 97.5161 132.336 96.7082C131.841 95.8845 131.596 94.8006 131.598 93.4566L131.611 86.8086C131.614 85.4646 131.864 84.3965 132.361 83.6042C132.875 82.7961 133.548 82.2226 134.38 81.8835C135.229 81.5287 136.189 81.3596 137.261 81.3763C138.317 81.3927 139.269 81.5915 140.116 81.9726C140.979 82.3381 141.658 82.9326 142.152 83.7563C142.646 84.564 142.892 85.6399 142.89 86.9839L142.877 93.6319C142.874 94.9759 142.624 96.052 142.127 96.8603C141.629 97.6526 140.948 98.226 140.083 98.5806C139.235 98.9194 138.283 99.0806 137.227 99.0642ZM137.232 96.3282C138.016 96.3404 138.632 96.126 139.081 95.6849C139.53 95.2439 139.755 94.5434 139.757 93.5834L139.77 86.9354C139.772 85.9754 139.549 85.2679 139.102 84.813C138.655 84.358 138.04 84.1244 137.256 84.1123C136.472 84.1001 135.856 84.3145 135.407 84.7555C134.974 85.1968 134.757 85.8975 134.755 86.8575L134.742 93.5055C134.74 94.4655 134.955 95.1728 135.386 95.6275C135.833 96.0825 136.448 96.316 137.232 96.3282ZM146.793 94.2207C146.473 94.2157 146.193 94.1394 145.953 93.9917C145.713 93.8439 145.594 93.6101 145.594 93.2901C145.597 92.2341 145.575 91.0897 145.529 89.857C145.484 88.6242 145.43 87.3914 145.368 86.1584C145.323 84.9256 145.301 83.7812 145.303 82.7252C145.304 82.3092 145.449 81.9915 145.737 81.772C146.025 81.5364 146.386 81.422 146.817 81.4287C147.217 81.435 147.561 81.5603 147.849 81.8048C148.152 82.0335 148.304 82.3559 148.303 82.7719C148.301 83.8279 148.274 84.9715 148.224 86.2027C148.174 87.434 148.115 88.6651 148.049 89.8961C147.998 91.1274 147.972 92.271 147.97 93.327C147.97 93.647 147.833 93.8769 147.561 94.0167C147.289 94.1564 147.033 94.2244 146.793 94.2207ZM146.807 99.2131C146.343 99.2059 145.951 99.0398 145.632 98.7148C145.329 98.3741 145.177 97.9877 145.178 97.5557C145.179 97.1077 145.332 96.7261 145.636 96.4108C145.957 96.0958 146.349 95.9419 146.813 95.9491C147.245 95.9558 147.621 96.1216 147.94 96.4466C148.259 96.7716 148.419 97.1581 148.418 97.6061C148.417 98.0381 148.256 98.4196 147.936 98.7506C147.615 99.0656 147.239 99.2198 146.807 99.2131Z" fill="#FF0082"/>
</g>
</g>
<defs>
<filter id="filter0_d_560_166" x="4.55469" y="32.8535" width="209.477" height="174.863" filterUnits="userSpaceOnUse" color-interpolation-filters="sRGB">
<feFlood flood-opacity="0" result="BackgroundImageFix"/>
<feColorMatrix in="SourceAlpha" type="matrix" values="0 0 0 0 0 0 0 0 0 0 0 0 0 0 0 0 0 0 127 0" result="hardAlpha"/>
<feOffset dx="5" dy="5"/>
<feComposite in2="hardAlpha" operator="out"/>
<feColorMatrix type="matrix" values="0 0 0 0 0.992157 0 0 0 0 0.709804 0 0 0 0 0.556863 0 0 0 1 0"/>
<feBlend mode="normal" in2="BackgroundImageFix" result="effect1_dropShadow_560_166"/>
<feBlend mode="normal" in="SourceGraphic" in2="effect1_dropShadow_560_166" result="shape"/>
</filter>
</defs>
</svg>
