<svg width="225" height="170" viewBox="0 0 225 170" fill="none" xmlns="http://www.w3.org/2000/svg">
<g filter="url(#filter0_d_838_1000)">
<rect width="220" height="165" rx="40" fill="#FDFAF1"/>
<path d="M69.6158 96C69.1358 96 68.6918 95.892 68.2838 95.676C67.8998 95.46 67.7078 95.148 67.7078 94.74V73.176H62.1278C61.7438 73.176 61.4438 72.996 61.2278 72.636C61.0118 72.276 60.9038 71.868 60.9038 71.412C60.9038 70.98 60.9998 70.584 61.1918 70.224C61.3838 69.864 61.6958 69.684 62.1278 69.684H77.0678C77.5238 69.684 77.8478 69.864 78.0398 70.224C78.2318 70.584 78.3278 70.968 78.3278 71.376C78.3278 71.856 78.2198 72.276 78.0038 72.636C77.8118 72.996 77.4998 73.176 77.0678 73.176H71.5238V94.74C71.5238 95.148 71.3198 95.46 70.9118 95.676C70.5278 95.892 70.0958 96 69.6158 96ZM81.2427 96.288C79.9227 96.288 78.7947 95.904 77.8587 95.136C76.9227 94.344 76.4547 93.144 76.4547 91.536C76.4547 90.168 76.8147 89.112 77.5347 88.368C78.2547 87.624 79.2387 87.108 80.4867 86.82C81.7587 86.532 83.2227 86.388 84.8787 86.388H86.4627V85.74C86.4627 85.116 86.3427 84.516 86.1027 83.94C85.8867 83.34 85.5147 82.848 84.9867 82.464C84.4827 82.056 83.7867 81.852 82.8987 81.852C82.0107 81.852 81.3267 81.936 80.8467 82.104C80.3667 82.272 79.9827 82.452 79.6947 82.644C79.4067 82.836 79.1427 82.932 78.9027 82.932C78.4707 82.932 78.1347 82.728 77.8947 82.32C77.6547 81.888 77.5347 81.456 77.5347 81.024C77.5347 80.592 77.8107 80.208 78.3627 79.872C78.9387 79.512 79.6467 79.236 80.4867 79.044C81.3267 78.828 82.1547 78.72 82.9707 78.72C84.7467 78.72 86.1627 79.056 87.2187 79.728C88.2747 80.376 89.0427 81.228 89.5227 82.284C90.0027 83.34 90.2427 84.48 90.2427 85.704V94.74C90.2427 95.076 90.0627 95.376 89.7027 95.64C89.3667 95.88 88.9347 96 88.4067 96C87.9267 96 87.5187 95.88 87.1827 95.64C86.8467 95.376 86.6787 95.076 86.6787 94.74V93.48C86.0547 94.2 85.2987 94.848 84.4107 95.424C83.5227 96 82.4667 96.288 81.2427 96.288ZM82.6107 93.408C83.2107 93.408 83.7987 93.228 84.3747 92.868C84.9747 92.508 85.4667 92.052 85.8507 91.5C86.2587 90.948 86.4627 90.384 86.4627 89.808V88.476H85.5627C84.6507 88.476 83.7867 88.536 82.9707 88.656C82.1547 88.752 81.4947 88.992 80.9907 89.376C80.5107 89.736 80.2707 90.3 80.2707 91.068C80.2707 91.884 80.4867 92.484 80.9187 92.868C81.3747 93.228 81.9387 93.408 82.6107 93.408ZM100.79 96.288C99.4941 96.288 98.2821 95.952 97.1541 95.28C96.0261 94.608 95.1141 93.732 94.4181 92.652C93.7461 91.548 93.4101 90.372 93.4101 89.124V85.812C93.4101 84.54 93.7341 83.364 94.3821 82.284C95.0541 81.204 95.9541 80.34 97.0821 79.692C98.2341 79.044 99.4821 78.72 100.826 78.72C102.17 78.72 103.406 79.044 104.534 79.692C105.662 80.316 106.562 81.168 107.234 82.248C107.93 83.304 108.278 84.492 108.278 85.812V89.124C108.278 90.348 107.93 91.512 107.234 92.616C106.562 93.72 105.65 94.608 104.498 95.28C103.37 95.952 102.134 96.288 100.79 96.288ZM100.826 92.94C101.498 92.94 102.11 92.76 102.662 92.4C103.214 92.04 103.658 91.572 103.994 90.996C104.33 90.396 104.498 89.772 104.498 89.124V85.812C104.498 85.188 104.33 84.588 103.994 84.012C103.658 83.436 103.214 82.968 102.662 82.608C102.11 82.248 101.498 82.068 100.826 82.068C100.13 82.068 99.5061 82.248 98.9541 82.608C98.4261 82.968 97.9941 83.436 97.6581 84.012C97.3461 84.588 97.1901 85.188 97.1901 85.812V89.124C97.1901 89.772 97.3461 90.396 97.6581 90.996C97.9941 91.572 98.4381 92.04 98.9901 92.4C99.5421 92.76 100.154 92.94 100.826 92.94ZM113.438 74.652C112.838 74.652 112.322 74.448 111.89 74.04C111.458 73.632 111.242 73.176 111.242 72.672C111.242 72.12 111.458 71.652 111.89 71.268C112.322 70.884 112.838 70.692 113.438 70.692C114.038 70.692 114.542 70.884 114.95 71.268C115.382 71.652 115.598 72.12 115.598 72.672C115.598 73.176 115.382 73.632 114.95 74.04C114.542 74.448 114.038 74.652 113.438 74.652ZM113.438 96C112.886 96 112.43 95.868 112.07 95.604C111.734 95.34 111.566 95.052 111.566 94.74V80.16C111.566 79.8 111.734 79.512 112.07 79.296C112.43 79.056 112.886 78.936 113.438 78.936C113.966 78.936 114.41 79.056 114.77 79.296C115.154 79.512 115.346 79.8 115.346 80.16V94.74C115.346 95.052 115.154 95.34 114.77 95.604C114.41 95.868 113.966 96 113.438 96ZM124.485 96.288C123.309 96.288 122.253 96.144 121.317 95.856C120.381 95.568 119.637 95.208 119.085 94.776C118.557 94.32 118.293 93.864 118.293 93.408C118.293 93.192 118.341 92.952 118.437 92.688C118.557 92.424 118.713 92.196 118.905 92.004C119.121 91.812 119.349 91.716 119.589 91.716C119.901 91.716 120.225 91.86 120.561 92.148C120.921 92.412 121.389 92.688 121.965 92.976C122.541 93.24 123.345 93.372 124.377 93.372C125.577 93.372 126.381 93.168 126.789 92.76C127.221 92.352 127.437 91.908 127.437 91.428C127.437 90.804 127.221 90.324 126.789 89.988C126.381 89.628 125.841 89.34 125.169 89.124C124.521 88.908 123.825 88.704 123.081 88.512C122.337 88.296 121.629 88.02 120.957 87.684C120.309 87.348 119.769 86.88 119.337 86.28C118.929 85.68 118.725 84.888 118.725 83.904C118.725 83.088 118.929 82.284 119.337 81.492C119.745 80.676 120.393 80.016 121.281 79.512C122.193 78.984 123.405 78.72 124.917 78.72C125.829 78.72 126.693 78.816 127.509 79.008C128.325 79.2 128.997 79.464 129.525 79.8C130.053 80.112 130.317 80.46 130.317 80.844C130.317 81.012 130.257 81.252 130.137 81.564C130.017 81.852 129.849 82.116 129.633 82.356C129.441 82.572 129.189 82.68 128.877 82.68C128.637 82.68 128.337 82.596 127.977 82.428C127.617 82.236 127.197 82.056 126.717 81.888C126.237 81.72 125.649 81.636 124.953 81.636C124.257 81.636 123.693 81.756 123.261 81.996C122.853 82.212 122.553 82.476 122.361 82.788C122.169 83.1 122.073 83.412 122.073 83.724C122.073 84.252 122.277 84.66 122.685 84.948C123.093 85.236 123.633 85.476 124.305 85.668C124.977 85.86 125.685 86.064 126.429 86.28C127.173 86.472 127.869 86.76 128.517 87.144C129.189 87.528 129.729 88.044 130.137 88.692C130.569 89.34 130.785 90.204 130.785 91.284C130.785 92.796 130.233 94.008 129.129 94.92C128.049 95.832 126.501 96.288 124.485 96.288ZM135.762 96C135.21 96 134.754 95.868 134.394 95.604C134.058 95.34 133.89 95.052 133.89 94.74V80.16C133.89 79.8 134.058 79.512 134.394 79.296C134.754 79.056 135.21 78.936 135.762 78.936C136.218 78.936 136.614 79.056 136.95 79.296C137.286 79.512 137.454 79.8 137.454 80.16V81.456C137.862 80.76 138.462 80.136 139.254 79.584C140.046 79.008 141.042 78.72 142.242 78.72C143.322 78.72 144.27 79.056 145.086 79.728C145.926 80.4 146.55 81.264 146.958 82.32C147.582 81.096 148.386 80.196 149.37 79.62C150.354 79.02 151.362 78.72 152.394 78.72C153.474 78.72 154.482 78.996 155.418 79.548C156.378 80.1 157.158 80.904 157.758 81.96C158.358 83.016 158.658 84.3 158.658 85.812V94.74C158.658 95.052 158.466 95.34 158.082 95.604C157.722 95.868 157.278 96 156.75 96C156.246 96 155.802 95.868 155.418 95.604C155.058 95.34 154.878 95.052 154.878 94.74V85.812C154.878 84.996 154.71 84.312 154.374 83.76C154.062 83.184 153.642 82.752 153.114 82.464C152.61 82.176 152.082 82.032 151.53 82.032C150.954 82.032 150.414 82.188 149.91 82.5C149.406 82.788 148.986 83.208 148.65 83.76C148.314 84.288 148.146 84.948 148.146 85.74V94.776C148.146 95.208 147.942 95.52 147.534 95.712C147.15 95.904 146.718 96 146.238 96C145.806 96 145.386 95.904 144.978 95.712C144.57 95.52 144.366 95.208 144.366 94.776V85.776C144.366 85.008 144.21 84.348 143.898 83.796C143.586 83.244 143.178 82.824 142.674 82.536C142.17 82.224 141.618 82.068 141.018 82.068C140.466 82.068 139.926 82.212 139.398 82.5C138.894 82.788 138.474 83.208 138.138 83.76C137.826 84.312 137.67 84.996 137.67 85.812V94.74C137.67 95.052 137.478 95.34 137.094 95.604C136.734 95.868 136.29 96 135.762 96Z" fill="#FF0082"/>
<rect x="1.5" y="1.5" width="217" height="162" rx="38.5" stroke="#F7CFE5" stroke-width="3"/>
</g>
<defs>
<filter id="filter0_d_838_1000" x="0" y="0" width="225" height="170" filterUnits="userSpaceOnUse" color-interpolation-filters="sRGB">
<feFlood flood-opacity="0" result="BackgroundImageFix"/>
<feColorMatrix in="SourceAlpha" type="matrix" values="0 0 0 0 0 0 0 0 0 0 0 0 0 0 0 0 0 0 127 0" result="hardAlpha"/>
<feOffset dx="5" dy="5"/>
<feComposite in2="hardAlpha" operator="out"/>
<feColorMatrix type="matrix" values="0 0 0 0 1 0 0 0 0 0 0 0 0 0 0.509804 0 0 0 1 0"/>
<feBlend mode="normal" in2="BackgroundImageFix" result="effect1_dropShadow_838_1000"/>
<feBlend mode="normal" in="SourceGraphic" in2="effect1_dropShadow_838_1000" result="shape"/>
</filter>
</defs>
</svg>
