<svg width="225" height="170" viewBox="0 0 225 170" fill="none" xmlns="http://www.w3.org/2000/svg">
<g filter="url(#filter0_d_838_939)">
<rect width="220" height="165" rx="40" fill="#FDFAF1"/>
<path d="M16.4594 96C16.0967 96 15.83 95.904 15.6594 95.712C15.4887 95.52 15.4034 95.2853 15.4034 95.008C15.4034 94.624 15.5207 94.2293 15.7554 93.824L25.6754 75.616H17.0034C16.662 75.616 16.3847 75.4667 16.1714 75.168C15.9794 74.8693 15.8834 74.5173 15.8834 74.112C15.8834 73.7493 15.9687 73.408 16.1394 73.088C16.3314 72.768 16.6194 72.608 17.0034 72.608H28.9394C29.302 72.608 29.5687 72.704 29.7394 72.896C29.9314 73.0667 30.0274 73.2907 30.0274 73.568C30.0274 73.9307 29.8994 74.3467 29.6434 74.816L19.7234 92.992H29.4194C29.782 92.992 30.0594 93.152 30.2514 93.472C30.4434 93.792 30.5394 94.1333 30.5394 94.496C30.5394 94.8587 30.4434 95.2 30.2514 95.52C30.0594 95.84 29.782 96 29.4194 96H16.4594ZM38.0409 96.256C36.8889 96.256 35.8115 95.9573 34.8089 95.36C33.8062 94.7627 32.9955 93.984 32.3769 93.024C31.7795 92.0427 31.4809 90.9973 31.4809 89.888V86.944C31.4809 85.8133 31.7689 84.768 32.3449 83.808C32.9422 82.848 33.7422 82.08 34.7449 81.504C35.7689 80.928 36.8782 80.64 38.0729 80.64C39.2675 80.64 40.3662 80.928 41.3689 81.504C42.3715 82.0587 43.1715 82.816 43.7689 83.776C44.3875 84.7147 44.6969 85.7707 44.6969 86.944V89.888C44.6969 90.976 44.3875 92.0107 43.7689 92.992C43.1715 93.9733 42.3609 94.7627 41.3369 95.36C40.3342 95.9573 39.2355 96.256 38.0409 96.256ZM38.0729 93.28C38.6702 93.28 39.2142 93.12 39.7049 92.8C40.1955 92.48 40.5902 92.064 40.8889 91.552C41.1875 91.0187 41.3369 90.464 41.3369 89.888V86.944C41.3369 86.3893 41.1875 85.856 40.8889 85.344C40.5902 84.832 40.1955 84.416 39.7049 84.096C39.2142 83.776 38.6702 83.616 38.0729 83.616C37.4542 83.616 36.8995 83.776 36.4089 84.096C35.9395 84.416 35.5555 84.832 35.2569 85.344C34.9795 85.856 34.8409 86.3893 34.8409 86.944V89.888C34.8409 90.464 34.9795 91.0187 35.2569 91.552C35.5555 92.064 35.9502 92.48 36.4409 92.8C36.9315 93.12 37.4755 93.28 38.0729 93.28ZM49.2514 96C48.782 96 48.3874 95.8827 48.0674 95.648C47.7687 95.4133 47.6194 95.1573 47.6194 94.88V81.92C47.6194 81.6 47.7687 81.344 48.0674 81.152C48.3874 80.9387 48.782 80.832 49.2514 80.832C49.678 80.832 50.0407 80.9387 50.3394 81.152C50.638 81.344 50.7874 81.6 50.7874 81.92V83.328C51.022 82.88 51.3314 82.4533 51.7154 82.048C52.1207 81.6427 52.59 81.312 53.1234 81.056C53.6567 80.7787 54.2327 80.64 54.8514 80.64H55.8754C56.2167 80.64 56.5154 80.7893 56.7714 81.088C57.0274 81.3653 57.1554 81.7067 57.1554 82.112C57.1554 82.5173 57.0274 82.8693 56.7714 83.168C56.5154 83.4667 56.2167 83.616 55.8754 83.616H54.8514C54.2114 83.616 53.5927 83.808 52.9954 84.192C52.398 84.576 51.9074 85.12 51.5234 85.824C51.1607 86.5067 50.9794 87.3387 50.9794 88.32V94.88C50.9794 95.1573 50.8087 95.4133 50.4674 95.648C50.1474 95.8827 49.742 96 49.2514 96ZM64.5721 96.256C63.4201 96.256 62.3428 95.9573 61.3401 95.36C60.3375 94.7627 59.5268 93.984 58.9081 93.024C58.3108 92.0427 58.0121 90.9973 58.0121 89.888V86.944C58.0121 85.8133 58.3001 84.768 58.8761 83.808C59.4735 82.848 60.2735 82.08 61.2761 81.504C62.3001 80.928 63.4095 80.64 64.6041 80.64C65.7988 80.64 66.8975 80.928 67.9001 81.504C68.9028 82.0587 69.7028 82.816 70.3001 83.776C70.9188 84.7147 71.2281 85.7707 71.2281 86.944V89.888C71.2281 90.976 70.9188 92.0107 70.3001 92.992C69.7028 93.9733 68.8921 94.7627 67.8681 95.36C66.8655 95.9573 65.7668 96.256 64.5721 96.256ZM64.6041 93.28C65.2015 93.28 65.7455 93.12 66.2361 92.8C66.7268 92.48 67.1215 92.064 67.4201 91.552C67.7188 91.0187 67.8681 90.464 67.8681 89.888V86.944C67.8681 86.3893 67.7188 85.856 67.4201 85.344C67.1215 84.832 66.7268 84.416 66.2361 84.096C65.7455 83.776 65.2015 83.616 64.6041 83.616C63.9855 83.616 63.4308 83.776 62.9401 84.096C62.4708 84.416 62.0868 84.832 61.7881 85.344C61.5108 85.856 61.3721 86.3893 61.3721 86.944V89.888C61.3721 90.464 61.5108 91.0187 61.7881 91.552C62.0868 92.064 62.4815 92.48 62.9721 92.8C63.4628 93.12 64.0068 93.28 64.6041 93.28ZM77.4466 96.256C76.2733 96.256 75.2706 95.9147 74.4386 95.232C73.6066 94.528 73.1906 93.4613 73.1906 92.032C73.1906 90.816 73.5106 89.8773 74.1506 89.216C74.7906 88.5547 75.6653 88.096 76.7746 87.84C77.9053 87.584 79.2066 87.456 80.6786 87.456H82.0866V86.88C82.0866 86.3253 81.98 85.792 81.7666 85.28C81.5746 84.7467 81.244 84.3093 80.7746 83.968C80.3266 83.6053 79.708 83.424 78.9186 83.424C78.1293 83.424 77.5213 83.4987 77.0946 83.648C76.668 83.7973 76.3266 83.9573 76.0706 84.128C75.8146 84.2987 75.58 84.384 75.3666 84.384C74.9826 84.384 74.684 84.2027 74.4706 83.84C74.2573 83.456 74.1506 83.072 74.1506 82.688C74.1506 82.304 74.396 81.9627 74.8866 81.664C75.3986 81.344 76.028 81.0987 76.7746 80.928C77.5213 80.736 78.2573 80.64 78.9826 80.64C80.5613 80.64 81.82 80.9387 82.7586 81.536C83.6973 82.112 84.38 82.8693 84.8066 83.808C85.2333 84.7467 85.4466 85.76 85.4466 86.848V94.88C85.4466 95.1787 85.2866 95.4453 84.9666 95.68C84.668 95.8933 84.284 96 83.8146 96C83.388 96 83.0253 95.8933 82.7266 95.68C82.428 95.4453 82.2786 95.1787 82.2786 94.88V93.76C81.724 94.4 81.052 94.976 80.2626 95.488C79.4733 96 78.5346 96.256 77.4466 96.256ZM78.6626 93.696C79.196 93.696 79.7186 93.536 80.2306 93.216C80.764 92.896 81.2013 92.4907 81.5426 92C81.9053 91.5093 82.0866 91.008 82.0866 90.496V89.312H81.2866C80.476 89.312 79.708 89.3653 78.9826 89.472C78.2573 89.5573 77.6706 89.7707 77.2226 90.112C76.796 90.432 76.5826 90.9333 76.5826 91.616C76.5826 92.3413 76.7746 92.8747 77.1586 93.216C77.564 93.536 78.0653 93.696 78.6626 93.696ZM93.4781 96.256C92.4328 96.256 91.4941 96.128 90.6621 95.872C89.8301 95.616 89.1688 95.296 88.6781 94.912C88.2088 94.5067 87.9741 94.1013 87.9741 93.696C87.9741 93.504 88.0168 93.2907 88.1021 93.056C88.2088 92.8213 88.3475 92.6187 88.5181 92.448C88.7101 92.2773 88.9128 92.192 89.1261 92.192C89.4035 92.192 89.6915 92.32 89.9901 92.576C90.3101 92.8107 90.7261 93.056 91.2381 93.312C91.7501 93.5467 92.4648 93.664 93.3821 93.664C94.4488 93.664 95.1635 93.4827 95.5261 93.12C95.9101 92.7573 96.1021 92.3627 96.1021 91.936C96.1021 91.3813 95.9101 90.9547 95.5261 90.656C95.1635 90.336 94.6835 90.08 94.0861 89.888C93.5101 89.696 92.8915 89.5147 92.2301 89.344C91.5688 89.152 90.9395 88.9067 90.3421 88.608C89.7661 88.3093 89.2861 87.8933 88.9021 87.36C88.5395 86.8267 88.3581 86.1227 88.3581 85.248C88.3581 84.5227 88.5395 83.808 88.9021 83.104C89.2648 82.3787 89.8408 81.792 90.6301 81.344C91.4408 80.8747 92.5181 80.64 93.8621 80.64C94.6728 80.64 95.4408 80.7253 96.1661 80.896C96.8915 81.0667 97.4888 81.3013 97.9581 81.6C98.4275 81.8773 98.6621 82.1867 98.6621 82.528C98.6621 82.6773 98.6088 82.8907 98.5021 83.168C98.3955 83.424 98.2461 83.6587 98.0541 83.872C97.8835 84.064 97.6595 84.16 97.3821 84.16C97.1688 84.16 96.9021 84.0853 96.5821 83.936C96.2621 83.7653 95.8888 83.6053 95.4621 83.456C95.0355 83.3067 94.5128 83.232 93.8941 83.232C93.2755 83.232 92.7741 83.3387 92.3901 83.552C92.0275 83.744 91.7608 83.9787 91.5901 84.256C91.4195 84.5333 91.3341 84.8107 91.3341 85.088C91.3341 85.5573 91.5155 85.92 91.8781 86.176C92.2408 86.432 92.7208 86.6453 93.3181 86.816C93.9155 86.9867 94.5448 87.168 95.2061 87.36C95.8675 87.5307 96.4861 87.7867 97.0621 88.128C97.6595 88.4693 98.1395 88.928 98.5021 89.504C98.8861 90.08 99.0781 90.848 99.0781 91.808C99.0781 93.152 98.5875 94.2293 97.6061 95.04C96.6461 95.8507 95.2701 96.256 93.4781 96.256ZM107.374 96C105.561 96 104.174 95.6053 103.214 94.816C102.254 94.0053 101.774 92.736 101.774 91.008V74.976C101.774 74.656 101.945 74.4 102.286 74.208C102.649 73.9947 103.033 73.888 103.438 73.888C103.843 73.888 104.227 73.9947 104.59 74.208C104.953 74.4 105.134 74.656 105.134 74.976V80.832H109.038C109.337 80.832 109.561 80.96 109.71 81.216C109.881 81.472 109.966 81.76 109.966 82.08C109.966 82.4 109.881 82.688 109.71 82.944C109.561 83.2 109.337 83.328 109.038 83.328H105.134V91.008C105.134 91.776 105.294 92.32 105.614 92.64C105.955 92.96 106.542 93.12 107.374 93.12H108.462C108.953 93.12 109.315 93.2693 109.55 93.568C109.806 93.8453 109.934 94.176 109.934 94.56C109.934 94.9227 109.806 95.2533 109.55 95.552C109.315 95.8507 108.953 96 108.462 96H107.374ZM113.908 96C113.438 96 113.044 95.8827 112.724 95.648C112.425 95.4133 112.276 95.1573 112.276 94.88V81.92C112.276 81.6 112.425 81.344 112.724 81.152C113.044 80.9387 113.438 80.832 113.908 80.832C114.334 80.832 114.697 80.9387 114.996 81.152C115.294 81.344 115.444 81.6 115.444 81.92V83.328C115.678 82.88 115.988 82.4533 116.372 82.048C116.777 81.6427 117.246 81.312 117.78 81.056C118.313 80.7787 118.889 80.64 119.508 80.64H120.532C120.873 80.64 121.172 80.7893 121.428 81.088C121.684 81.3653 121.812 81.7067 121.812 82.112C121.812 82.5173 121.684 82.8693 121.428 83.168C121.172 83.4667 120.873 83.616 120.532 83.616H119.508C118.868 83.616 118.249 83.808 117.652 84.192C117.054 84.576 116.564 85.12 116.18 85.824C115.817 86.5067 115.636 87.3387 115.636 88.32V94.88C115.636 95.1573 115.465 95.4133 115.124 95.648C114.804 95.8827 114.398 96 113.908 96ZM125.408 77.024C124.875 77.024 124.416 76.8427 124.032 76.48C123.648 76.1173 123.456 75.712 123.456 75.264C123.456 74.7733 123.648 74.3573 124.032 74.016C124.416 73.6747 124.875 73.504 125.408 73.504C125.942 73.504 126.39 73.6747 126.752 74.016C127.136 74.3573 127.328 74.7733 127.328 75.264C127.328 75.712 127.136 76.1173 126.752 76.48C126.39 76.8427 125.942 77.024 125.408 77.024ZM125.408 96C124.918 96 124.512 95.8827 124.192 95.648C123.894 95.4133 123.744 95.1573 123.744 94.88V81.92C123.744 81.6 123.894 81.344 124.192 81.152C124.512 80.9387 124.918 80.832 125.408 80.832C125.878 80.832 126.272 80.9387 126.592 81.152C126.934 81.344 127.104 81.6 127.104 81.92V94.88C127.104 95.1573 126.934 95.4133 126.592 95.648C126.272 95.8827 125.878 96 125.408 96ZM133.884 96.256C132.711 96.256 131.708 95.9147 130.876 95.232C130.044 94.528 129.628 93.4613 129.628 92.032C129.628 90.816 129.948 89.8773 130.588 89.216C131.228 88.5547 132.103 88.096 133.212 87.84C134.343 87.584 135.644 87.456 137.116 87.456H138.524V86.88C138.524 86.3253 138.417 85.792 138.204 85.28C138.012 84.7467 137.681 84.3093 137.212 83.968C136.764 83.6053 136.145 83.424 135.356 83.424C134.567 83.424 133.959 83.4987 133.532 83.648C133.105 83.7973 132.764 83.9573 132.508 84.128C132.252 84.2987 132.017 84.384 131.804 84.384C131.42 84.384 131.121 84.2027 130.908 83.84C130.695 83.456 130.588 83.072 130.588 82.688C130.588 82.304 130.833 81.9627 131.324 81.664C131.836 81.344 132.465 81.0987 133.212 80.928C133.959 80.736 134.695 80.64 135.42 80.64C136.999 80.64 138.257 80.9387 139.196 81.536C140.135 82.112 140.817 82.8693 141.244 83.808C141.671 84.7467 141.884 85.76 141.884 86.848V94.88C141.884 95.1787 141.724 95.4453 141.404 95.68C141.105 95.8933 140.721 96 140.252 96C139.825 96 139.463 95.8933 139.164 95.68C138.865 95.4453 138.716 95.1787 138.716 94.88V93.76C138.161 94.4 137.489 94.976 136.7 95.488C135.911 96 134.972 96.256 133.884 96.256ZM135.1 93.696C135.633 93.696 136.156 93.536 136.668 93.216C137.201 92.896 137.639 92.4907 137.98 92C138.343 91.5093 138.524 91.008 138.524 90.496V89.312H137.724C136.913 89.312 136.145 89.3653 135.42 89.472C134.695 89.5573 134.108 89.7707 133.66 90.112C133.233 90.432 133.02 90.9333 133.02 91.616C133.02 92.3413 133.212 92.8747 133.596 93.216C134.001 93.536 134.503 93.696 135.1 93.696ZM146.94 96C146.449 96 146.044 95.8827 145.724 95.648C145.425 95.4133 145.276 95.1573 145.276 94.88V81.92C145.276 81.6 145.425 81.344 145.724 81.152C146.044 80.9387 146.449 80.832 146.94 80.832C147.345 80.832 147.697 80.9387 147.996 81.152C148.294 81.344 148.444 81.6 148.444 81.92V83.072C148.764 82.4533 149.286 81.8987 150.012 81.408C150.758 80.896 151.665 80.64 152.732 80.64C153.734 80.64 154.652 80.928 155.484 81.504C156.337 82.0587 157.02 82.816 157.532 83.776C158.044 84.7147 158.3 85.7707 158.3 86.944V94.88C158.3 95.2427 158.118 95.52 157.756 95.712C157.414 95.904 157.03 96 156.604 96C156.22 96 155.846 95.904 155.484 95.712C155.121 95.52 154.94 95.2427 154.94 94.88V86.944C154.94 86.3893 154.79 85.856 154.492 85.344C154.214 84.832 153.83 84.416 153.34 84.096C152.849 83.776 152.305 83.616 151.708 83.616C151.196 83.616 150.705 83.7547 150.236 84.032C149.766 84.288 149.382 84.6613 149.084 85.152C148.785 85.6427 148.636 86.24 148.636 86.944V94.88C148.636 95.1573 148.465 95.4133 148.124 95.648C147.804 95.8827 147.409 96 146.94 96ZM163.315 77.024C162.781 77.024 162.323 76.8427 161.939 76.48C161.555 76.1173 161.363 75.712 161.363 75.264C161.363 74.7733 161.555 74.3573 161.939 74.016C162.323 73.6747 162.781 73.504 163.315 73.504C163.848 73.504 164.296 73.6747 164.659 74.016C165.043 74.3573 165.235 74.7733 165.235 75.264C165.235 75.712 165.043 76.1173 164.659 76.48C164.296 76.8427 163.848 77.024 163.315 77.024ZM163.315 96C162.824 96 162.419 95.8827 162.099 95.648C161.8 95.4133 161.651 95.1573 161.651 94.88V81.92C161.651 81.6 161.8 81.344 162.099 81.152C162.419 80.9387 162.824 80.832 163.315 80.832C163.784 80.832 164.179 80.9387 164.499 81.152C164.84 81.344 165.011 81.6 165.011 81.92V94.88C165.011 95.1573 164.84 95.4133 164.499 95.648C164.179 95.8827 163.784 96 163.315 96ZM173.134 96.256C172.089 96.256 171.15 96.128 170.318 95.872C169.486 95.616 168.825 95.296 168.334 94.912C167.865 94.5067 167.63 94.1013 167.63 93.696C167.63 93.504 167.673 93.2907 167.758 93.056C167.865 92.8213 168.004 92.6187 168.174 92.448C168.366 92.2773 168.569 92.192 168.782 92.192C169.06 92.192 169.348 92.32 169.646 92.576C169.966 92.8107 170.382 93.056 170.894 93.312C171.406 93.5467 172.121 93.664 173.038 93.664C174.105 93.664 174.82 93.4827 175.182 93.12C175.566 92.7573 175.758 92.3627 175.758 91.936C175.758 91.3813 175.566 90.9547 175.182 90.656C174.82 90.336 174.34 90.08 173.742 89.888C173.166 89.696 172.548 89.5147 171.886 89.344C171.225 89.152 170.596 88.9067 169.998 88.608C169.422 88.3093 168.942 87.8933 168.558 87.36C168.196 86.8267 168.014 86.1227 168.014 85.248C168.014 84.5227 168.196 83.808 168.558 83.104C168.921 82.3787 169.497 81.792 170.286 81.344C171.097 80.8747 172.174 80.64 173.518 80.64C174.329 80.64 175.097 80.7253 175.822 80.896C176.548 81.0667 177.145 81.3013 177.614 81.6C178.084 81.8773 178.318 82.1867 178.318 82.528C178.318 82.6773 178.265 82.8907 178.158 83.168C178.052 83.424 177.902 83.6587 177.71 83.872C177.54 84.064 177.316 84.16 177.038 84.16C176.825 84.16 176.558 84.0853 176.238 83.936C175.918 83.7653 175.545 83.6053 175.118 83.456C174.692 83.3067 174.169 83.232 173.55 83.232C172.932 83.232 172.43 83.3387 172.046 83.552C171.684 83.744 171.417 83.9787 171.246 84.256C171.076 84.5333 170.99 84.8107 170.99 85.088C170.99 85.5573 171.172 85.92 171.534 86.176C171.897 86.432 172.377 86.6453 172.974 86.816C173.572 86.9867 174.201 87.168 174.862 87.36C175.524 87.5307 176.142 87.7867 176.718 88.128C177.316 88.4693 177.796 88.928 178.158 89.504C178.542 90.08 178.734 90.848 178.734 91.808C178.734 93.152 178.244 94.2293 177.262 95.04C176.302 95.8507 174.926 96.256 173.134 96.256ZM183.158 96C182.668 96 182.262 95.8827 181.942 95.648C181.644 95.4133 181.494 95.1573 181.494 94.88V81.92C181.494 81.6 181.644 81.344 181.942 81.152C182.262 80.9387 182.668 80.832 183.158 80.832C183.564 80.832 183.916 80.9387 184.214 81.152C184.513 81.344 184.662 81.6 184.662 81.92V83.072C185.025 82.4533 185.558 81.8987 186.262 81.408C186.966 80.896 187.852 80.64 188.918 80.64C189.878 80.64 190.721 80.9387 191.446 81.536C192.193 82.1333 192.748 82.9013 193.11 83.84C193.665 82.752 194.38 81.952 195.254 81.44C196.129 80.9067 197.025 80.64 197.942 80.64C198.902 80.64 199.798 80.8853 200.63 81.376C201.484 81.8667 202.177 82.5813 202.71 83.52C203.244 84.4587 203.51 85.6 203.51 86.944V94.88C203.51 95.1573 203.34 95.4133 202.998 95.648C202.678 95.8827 202.284 96 201.814 96C201.366 96 200.972 95.8827 200.63 95.648C200.31 95.4133 200.15 95.1573 200.15 94.88V86.944C200.15 86.2187 200.001 85.6107 199.702 85.12C199.425 84.608 199.052 84.224 198.582 83.968C198.134 83.712 197.665 83.584 197.174 83.584C196.662 83.584 196.182 83.7227 195.734 84C195.286 84.256 194.913 84.6293 194.614 85.12C194.316 85.5893 194.166 86.176 194.166 86.88V94.912C194.166 95.296 193.985 95.5733 193.622 95.744C193.281 95.9147 192.897 96 192.47 96C192.086 96 191.713 95.9147 191.35 95.744C190.988 95.5733 190.806 95.296 190.806 94.912V86.912C190.806 86.2293 190.668 85.6427 190.39 85.152C190.113 84.6613 189.75 84.288 189.302 84.032C188.854 83.7547 188.364 83.616 187.83 83.616C187.34 83.616 186.86 83.744 186.39 84C185.942 84.256 185.569 84.6293 185.27 85.12C184.993 85.6107 184.854 86.2187 184.854 86.944V94.88C184.854 95.1573 184.684 95.4133 184.342 95.648C184.022 95.8827 183.628 96 183.158 96Z" fill="#FF0082"/>
<rect x="1.5" y="1.5" width="217" height="162" rx="38.5" stroke="#F7CFE5" stroke-width="3"/>
</g>
<defs>
<filter id="filter0_d_838_939" x="0" y="0" width="225" height="170" filterUnits="userSpaceOnUse" color-interpolation-filters="sRGB">
<feFlood flood-opacity="0" result="BackgroundImageFix"/>
<feColorMatrix in="SourceAlpha" type="matrix" values="0 0 0 0 0 0 0 0 0 0 0 0 0 0 0 0 0 0 127 0" result="hardAlpha"/>
<feOffset dx="5" dy="5"/>
<feComposite in2="hardAlpha" operator="out"/>
<feColorMatrix type="matrix" values="0 0 0 0 1 0 0 0 0 0 0 0 0 0 0.509804 0 0 0 1 0"/>
<feBlend mode="normal" in2="BackgroundImageFix" result="effect1_dropShadow_838_939"/>
<feBlend mode="normal" in="SourceGraphic" in2="effect1_dropShadow_838_939" result="shape"/>
</filter>
</defs>
</svg>
