<svg width="27" height="57" viewBox="0 0 27 57" fill="none" xmlns="http://www.w3.org/2000/svg">
<path d="M25 11.3733C25 11.3733 23.541 11.401 21.3522 11.442C20.8134 11.4503 20.2295 11.4591 19.6125 11.4685C18.9955 11.4708 18.352 11.4902 17.6817 11.4913C17.014 11.4989 16.3252 11.5054 15.6251 11.5069C14.9259 11.5149 14.2162 11.5107 13.5065 11.5103C12.7959 11.5209 12.087 11.4974 11.3869 11.5023C10.6869 11.4947 9.99733 11.4872 9.33116 11.4803C8.66176 11.4773 8.01816 11.4537 7.40119 11.4496C6.7834 11.4465 6.20191 11.4294 5.65993 11.4203C5.12199 11.404 4.61712 11.4116 4.17596 11.3979C3.73561 11.3831 3.34445 11.3808 3.02265 11.3763C2.37825 11.3691 2 11.3763 2 11.3763C2 11.3763 2.33147 11.4568 2.92748 11.5771C3.52349 11.6986 4.38323 11.8695 5.45427 12.0061C5.98738 12.0806 6.56564 12.1664 7.18988 12.2218C7.81331 12.2799 8.47062 12.3531 9.15937 12.3938C9.84813 12.4336 10.5611 12.4856 11.2902 12.5046C12.0184 12.5232 12.7596 12.549 13.5008 12.5441C14.9848 12.5437 16.468 12.4985 17.8439 12.4025C18.5334 12.3638 19.1931 12.2939 19.8174 12.2381C20.4384 12.1701 21.0231 12.1026 21.5562 12.0251C22.0917 11.9556 22.5748 11.8759 22.9982 11.8007C23.4249 11.732 23.787 11.6519 24.0846 11.5919C24.679 11.4655 25 11.3733 25 11.3733Z" fill="url(#paint0_linear_1_2)"/>
<mask id="mask0_1_2" style="mask-type:luminance" maskUnits="userSpaceOnUse" x="12" y="13" width="4" height="44">
<path d="M12.4545 13.245H15.1547V56.6103H12.4545V13.245Z" fill="white"/>
</mask>
<g mask="url(#mask0_1_2)">
<path d="M12.4787 13.2517L13.8086 56.6076L15.1385 13.2517H12.4787Z" fill="url(#paint1_linear_1_2)"/>
</g>
<path d="M16.6364 13.7164L17.6814 41.8356L18.7273 13.7164H16.6364Z" fill="url(#paint2_linear_1_2)"/>
<path d="M8.27273 13.7164L9.3178 41.8356L10.3636 13.7164H8.27273Z" fill="url(#paint3_linear_1_2)"/>
<path d="M4.09091 12.5447L5.13636 28.9476L6.18182 12.5447H4.09091Z" fill="url(#paint4_linear_1_2)"/>
<path d="M20.8182 12.5447L21.8636 28.9476L22.9091 12.5447H20.8182Z" fill="url(#paint5_linear_1_2)"/>
<g filter="url(#filter0_f_1_2)">
<ellipse cx="13.5" cy="8.444" rx="11.5" ry="6.444" fill="url(#paint6_linear_1_2)"/>
</g>
<g filter="url(#filter1_f_1_2)">
<ellipse cx="13.5" cy="6.68654" rx="3.13636" ry="1.17164" fill="white"/>
</g>
<defs>
<filter id="filter0_f_1_2" x="0" y="0" width="27" height="16.888" filterUnits="userSpaceOnUse" color-interpolation-filters="sRGB">
<feFlood flood-opacity="0" result="BackgroundImageFix"/>
<feBlend mode="normal" in="SourceGraphic" in2="BackgroundImageFix" result="shape"/>
<feGaussianBlur stdDeviation="1" result="effect1_foregroundBlur_1_2"/>
</filter>
<filter id="filter1_f_1_2" x="9.36364" y="4.51491" width="8.27273" height="4.34327" filterUnits="userSpaceOnUse" color-interpolation-filters="sRGB">
<feFlood flood-opacity="0" result="BackgroundImageFix"/>
<feBlend mode="normal" in="SourceGraphic" in2="BackgroundImageFix" result="shape"/>
<feGaussianBlur stdDeviation="0.5" result="effect1_foregroundBlur_1_2"/>
</filter>
<linearGradient id="paint0_linear_1_2" x1="13.5" y1="11.3731" x2="13.5" y2="12.5447" gradientUnits="userSpaceOnUse">
<stop stop-color="#58DFFF"/>
<stop offset="1" stop-color="#58DFFF" stop-opacity="0"/>
</linearGradient>
<linearGradient id="paint1_linear_1_2" x1="13.8086" y1="13.2517" x2="13.8086" y2="56.6076" gradientUnits="userSpaceOnUse">
<stop stop-color="#58DFFF"/>
<stop offset="1" stop-color="#58DFFF" stop-opacity="0"/>
</linearGradient>
<linearGradient id="paint2_linear_1_2" x1="17.6818" y1="13.7164" x2="17.6818" y2="41.8356" gradientUnits="userSpaceOnUse">
<stop stop-color="#58DFFF"/>
<stop offset="1" stop-color="#58DFFF" stop-opacity="0"/>
</linearGradient>
<linearGradient id="paint3_linear_1_2" x1="9.31818" y1="13.7164" x2="9.31818" y2="41.8356" gradientUnits="userSpaceOnUse">
<stop stop-color="#58DFFF"/>
<stop offset="1" stop-color="#58DFFF" stop-opacity="0"/>
</linearGradient>
<linearGradient id="paint4_linear_1_2" x1="5.13636" y1="12.5447" x2="5.13636" y2="28.9476" gradientUnits="userSpaceOnUse">
<stop stop-color="#58DFFF"/>
<stop offset="1" stop-color="#58DFFF" stop-opacity="0"/>
</linearGradient>
<linearGradient id="paint5_linear_1_2" x1="21.8636" y1="12.5447" x2="21.8636" y2="28.9476" gradientUnits="userSpaceOnUse">
<stop stop-color="#58DFFF"/>
<stop offset="1" stop-color="#58DFFF" stop-opacity="0"/>
</linearGradient>
<linearGradient id="paint6_linear_1_2" x1="13.5" y1="2" x2="13.5" y2="14.888" gradientUnits="userSpaceOnUse">
<stop offset="0.473958" stop-color="#58DFFF"/>
<stop offset="1" stop-color="#58DFFF" stop-opacity="0"/>
</linearGradient>
</defs>
</svg>
