<svg width="50" height="51" viewBox="0 0 50 51" fill="none" xmlns="http://www.w3.org/2000/svg">
<path d="M5.82268 2.72909C3.51318 2.72909 1.63431 4.60852 1.63431 6.91885C1.63431 9.22724 3.51318 11.1086 5.82268 11.1086C7.09319 11.1086 8.28219 10.5399 9.08187 9.54833C9.68829 8.79634 10.0094 7.88657 10.0094 6.91885C10.0094 4.60852 8.13245 2.72909 5.82268 2.72909ZM5.82268 12.7426C2.61146 12.7426 0 10.129 0 6.91885C0 3.7068 2.61146 1.09506 5.82268 1.09506C9.0339 1.09506 11.6448 3.7068 11.6448 6.91885C11.6448 8.24565 11.1862 9.54445 10.3543 10.5759C9.24131 11.9527 7.59009 12.7426 5.82268 12.7426Z" fill="#F9C35E"/>
<path d="M18.8171 18.2337C18.6355 18.2337 18.4541 18.1741 18.3044 18.0524L9.20531 10.7021C8.85427 10.4168 8.80048 9.90217 9.08358 9.55113C9.36697 9.19981 9.88133 9.14601 10.2324 9.4294L19.3298 16.7794C19.6828 17.0627 19.7365 17.5774 19.4534 17.9284C19.2918 18.1281 19.0544 18.2337 18.8171 18.2337Z" fill="#F9C35E"/>
<path d="M41.5117 4.65126C40.2612 4.65126 39.2438 5.66862 39.2438 6.91972C39.2438 7.48843 39.4554 8.03301 39.8403 8.45199C40.2689 8.91894 40.8773 9.18624 41.5098 9.18624H41.5117C42.7623 9.18624 43.7794 8.17055 43.7794 6.91972C43.7794 5.66862 42.7623 4.65126 41.5117 4.65126ZM41.5076 10.8222C40.4206 10.8222 39.3717 10.3614 38.6355 9.55724C37.9733 8.83492 37.6104 7.89936 37.6104 6.91972C37.6104 4.76689 39.3595 3.01529 41.5117 3.01529C43.6637 3.01529 45.4131 4.76689 45.4131 6.91972C45.4131 9.07255 43.6637 10.8222 41.5117 10.8222H41.5076Z" fill="#F9C35E"/>
<path d="M30.4655 17.8646C30.2442 17.8646 30.0227 17.7747 29.8632 17.5992C29.556 17.2662 29.5799 16.7493 29.9109 16.444L38.6831 8.39975C39.0161 8.09446 39.5327 8.11637 39.838 8.44966C40.143 8.78268 40.1191 9.29953 39.7881 9.60482L31.0159 17.651C30.8604 17.7927 30.6629 17.8646 30.4655 17.8646Z" fill="#F9C35E"/>
<path d="M24.7973 15.3729C22.713 15.3751 20.7642 16.3068 19.4518 17.9289C18.4567 19.1636 17.9301 20.654 17.9301 22.2442C17.9301 23.3237 18.1733 24.3571 18.6522 25.3146C19.4161 26.843 20.7124 28.0261 22.302 28.6467C23.8099 29.2351 25.5232 29.2651 27.053 28.7363C28.7067 28.1617 30.0649 26.9886 30.8826 25.4363C31.3953 24.4589 31.6665 23.3556 31.6665 22.2442C31.6665 20.5204 31.0262 18.8705 29.8636 17.6014C28.8543 16.5022 27.4939 15.748 26.034 15.4846C25.6311 15.4109 25.2141 15.3751 24.7973 15.3729ZM24.7993 30.7494C23.7323 30.7494 22.693 30.5539 21.7059 30.169C19.7391 29.4006 18.1356 27.9363 17.19 26.045C16.5958 24.8579 16.2966 23.5791 16.2966 22.2442C16.2966 20.3049 16.9646 18.4075 18.1813 16.9032C19.8051 14.8921 22.2164 13.7388 24.7973 13.7388C25.3139 13.7388 25.8266 13.7849 26.3252 13.8747C28.1341 14.2038 29.8175 15.1355 31.0681 16.4961C32.5083 18.0683 33.3022 20.1094 33.3022 22.2442C33.3022 23.6187 32.965 24.9874 32.3286 26.1966C31.3196 28.1199 29.6362 29.5703 27.5896 30.2805C26.6942 30.5919 25.7548 30.7494 24.7993 30.7494Z" fill="#F9C35E"/>
<path d="M45.3411 30.0147C44.2142 30.0147 43.1869 30.635 42.6623 31.6346C42.433 32.0697 42.3173 32.5424 42.3173 33.0413C42.3173 34.7091 43.6735 36.0659 45.3411 36.0659C47.0104 36.0659 48.3668 34.7091 48.3668 33.0413C48.3668 31.3712 47.0104 30.0147 45.3411 30.0147ZM45.3411 37.7019C42.7721 37.7019 40.6816 35.6109 40.6816 33.0413C40.6816 32.2851 40.8671 31.537 41.2143 30.8746C42.024 29.3362 43.6037 28.3785 45.3411 28.3785C47.9102 28.3785 50.0003 30.4695 50.0003 33.0413C50.0003 35.6109 47.9102 37.7019 45.3411 37.7019Z" fill="#F9C35E"/>
<path d="M41.9399 32.0738C41.8104 32.0738 41.6807 32.0439 41.5589 31.9801L31.2293 26.5434C30.8283 26.3338 30.6747 25.8391 30.8863 25.4401C31.0956 25.0411 31.5884 24.8852 31.9893 25.0968L42.3209 30.5335C42.7199 30.7431 42.8735 31.2378 42.662 31.6388C42.5164 31.9163 42.2333 32.0738 41.9399 32.0738Z" fill="#F9C35E"/>
<mask id="mask0_838_565" style="mask-type:luminance" maskUnits="userSpaceOnUse" x="11" y="44" width="7" height="7">
<path d="M11.7314 44.5159H17.9781V50.7343H11.7314V44.5159Z" fill="white"/>
</mask>
<g mask="url(#mask0_838_565)">
<path d="M14.8737 46.2215C14.0779 46.2215 13.4277 46.8698 13.4277 47.6659C13.4277 48.4639 14.0779 49.1125 14.8737 49.1125C15.6714 49.1125 16.3197 48.4639 16.3197 47.6659C16.3197 47.0656 15.9587 46.5368 15.4003 46.3194C15.2347 46.2534 15.0573 46.2215 14.8737 46.2215ZM14.8737 50.7485C13.1764 50.7485 11.7942 49.3659 11.7942 47.6659C11.7942 45.9681 13.1764 44.5856 14.8737 44.5856C15.2627 44.5856 15.6396 44.6574 15.9967 44.7949C17.1854 45.2619 17.9552 46.389 17.9552 47.6659C17.9552 49.3659 16.5732 50.7485 14.8737 50.7485Z" fill="#F9C35E"/>
</g>
<path d="M15.6935 46.3749C15.5939 46.3749 15.4941 46.3568 15.3965 46.3188C14.9756 46.1553 14.7682 45.6805 14.9337 45.2596L21.2425 29.1109C21.408 28.6919 21.8808 28.4826 22.3014 28.6481C22.7223 28.8117 22.9297 29.2864 22.7661 29.7073L16.4554 45.8541C16.3298 46.1772 16.0206 46.3749 15.6935 46.3749Z" fill="#F9C35E"/>
<path d="M7.38823 27.4151C5.43948 27.4151 3.85397 29.0011 3.85397 30.9504C3.85397 32.8997 5.43948 34.4858 7.38823 34.4858C9.33892 34.4858 10.9244 32.8997 10.9244 30.9504C10.9244 30.3939 10.7988 29.8632 10.5537 29.3724H10.5515C9.94922 28.1651 8.73666 27.4151 7.38823 27.4151ZM7.38823 36.1218C4.53803 36.1218 2.22021 33.8015 2.22021 30.9504C2.22021 28.0994 4.53803 25.7791 7.38823 25.7791C9.36082 25.7791 11.1321 26.8763 12.0136 28.6401C12.3746 29.3602 12.5582 30.1385 12.5582 30.9504C12.5582 33.8015 10.2384 36.1218 7.38823 36.1218Z" fill="#F9C35E"/>
<path d="M11.2815 29.827C10.9804 29.827 10.6931 29.6595 10.5495 29.3742C10.3482 28.9691 10.5118 28.4783 10.9147 28.2767L17.4946 24.9868C17.6164 24.9111 17.7619 24.8672 17.9175 24.8672C18.3681 24.8672 18.7352 25.2302 18.7352 25.6811V25.6891C18.7352 25.9983 18.5597 26.2817 18.2824 26.4214L11.6464 29.7394C11.5289 29.799 11.4033 29.827 11.2815 29.827Z" fill="#F9C35E"/>
<mask id="mask1_838_565" style="mask-type:luminance" maskUnits="userSpaceOnUse" x="25" y="0" width="7" height="7">
<path d="M25.1462 0H31.3929V6.1862H25.1462V0Z" fill="white"/>
</mask>
<g mask="url(#mask1_838_565)">
<path d="M28.2805 1.64354C27.4824 1.64354 26.8341 2.29211 26.8341 3.09013C26.8341 3.78833 27.333 4.38699 28.019 4.5126C28.1027 4.52674 28.1906 4.5345 28.2805 4.5345C29.0763 4.5345 29.7243 3.88622 29.7243 3.09013C29.7243 2.29211 29.0763 1.64354 28.2805 1.64354ZM28.2805 6.17076C28.0908 6.17076 27.9053 6.15273 27.7259 6.12084C26.2618 5.85548 25.1987 4.58053 25.1987 3.09013C25.1987 1.39038 26.581 0.0072937 28.2805 0.0072937C29.9777 0.0072937 31.36 1.39038 31.36 3.09013C31.36 4.78794 29.9777 6.17076 28.2802 6.17076" fill="#F9C35E"/>
</g>
<path d="M26.1753 15.494C26.1254 15.494 26.0774 15.4901 26.0275 15.4801C25.5827 15.4003 25.2896 14.9752 25.3692 14.5304L27.0687 5.16933C27.1505 4.72429 27.5714 4.43092 28.0201 4.51078C28.4629 4.59064 28.7582 5.01766 28.6764 5.46048L26.9769 14.8216C26.9051 15.2167 26.5621 15.494 26.175 15.494" fill="#F9C35E"/>
<path d="M30.5436 37.5046C30.4 37.5046 30.2583 37.5285 30.1227 37.5765C29.6061 37.7559 29.259 38.2428 29.259 38.7915C29.259 39.4978 29.8354 40.0742 30.5436 40.0742C31.2515 40.0742 31.828 39.4978 31.828 38.7915C31.828 38.0811 31.2515 37.5046 30.5436 37.5046ZM30.5436 41.7102C28.934 41.7102 27.6235 40.3995 27.6235 38.7915C27.6235 37.5465 28.4132 36.4371 29.5861 36.032C29.8953 35.9244 30.2184 35.8706 30.5436 35.8706C32.153 35.8706 33.4634 37.1794 33.4634 38.7915C33.4634 40.3995 32.153 41.7102 30.5436 41.7102Z" fill="#F9C35E"/>
<path d="M29.8515 37.6184C29.5124 37.6184 29.1971 37.4068 29.0795 37.0677L26.5762 29.8433C26.5305 29.7416 26.5044 29.6279 26.5044 29.5081C26.5044 29.0553 26.8676 28.6901 27.3182 28.6901H27.3263C27.6754 28.6901 27.9845 28.9095 28.0982 29.2408L30.6251 36.5328C30.771 36.9598 30.5455 37.4248 30.1185 37.5724C30.0309 37.6042 29.941 37.6184 29.8515 37.6184Z" fill="#F9C35E"/>
<circle cx="5.82963" cy="6.89441" r="4.23246" fill="#F9C35E"/>
<circle cx="28.2961" cy="3.06118" r="1.62377" fill="#F9C35E"/>
<circle cx="30.5854" cy="38.7848" r="1.62377" fill="#F9C35E"/>
<circle cx="14.8537" cy="47.6481" r="1.49068" fill="#F9C35E"/>
<circle cx="7.40023" cy="30.9316" r="3.56698" fill="#F9C35E"/>
<circle cx="24.8358" cy="22.2276" r="7.10734" fill="#F9C35E"/>
<circle cx="41.5259" cy="6.92085" r="2.39573" fill="#F9C35E"/>
<circle cx="45.386" cy="33.0341" r="3.16769" fill="#F9C35E"/>
</svg>
