<svg width="34" height="35" viewBox="0 0 34 35" fill="none" xmlns="http://www.w3.org/2000/svg">
<path fill-rule="evenodd" clip-rule="evenodd" d="M14.8857 8.7826C14.6018 8.87441 14.3055 8.93876 14 8.97254L14 18.1C16.2822 18.5633 18 20.581 18 23C18 23.5697 17.9047 24.1172 17.7292 24.6273L29.1507 30.9726L14.8857 8.7826ZM15.8061 8.365C17.1201 7.57926 18 6.14238 18 4.5C18 2.01472 15.9853 0 13.5 0C11.0147 0 9 2.01472 9 4.5C9 6.2283 9.97433 7.72904 11.4037 8.48291L3.36493 26.022C3.24532 26.0075 3.12353 26 3 26C1.34315 26 0 27.3431 0 29C0 30.6569 1.34315 32 3 32C4.51779 32 5.77232 30.8729 5.97222 29.41L29.0015 32.5864C29.047 33.9271 30.1482 35 31.5 35C32.8807 35 34 33.8807 34 32.5C34 31.1193 32.8807 30 31.5 30C30.948 30 30.4377 30.1789 30.0241 30.4819L15.8061 8.365ZM27.9079 31.4261L17.309 25.5378C16.4392 27.0114 14.835 28 13 28C11.0114 28 9.29401 26.8391 8.48844 25.1581L5.45791 27.2795C5.68909 27.6091 5.85564 27.9874 5.93916 28.3959L27.9079 31.4261ZM8.14032 24.1811L4.74388 26.5586C4.61403 26.4657 4.47647 26.3829 4.33233 26.3113L12.3363 8.84809C12.5516 8.90556 12.7733 8.94747 13 8.97254V18C10.2386 18 8 20.2386 8 23C8 23.4069 8.0486 23.8024 8.14032 24.1811Z" fill="#578FFE"/>
</svg>
