<svg width="50" height="51" viewBox="0 0 50 51" fill="none" xmlns="http://www.w3.org/2000/svg">
<path d="M5.82268 2.72913C3.51318 2.72913 1.63431 4.60855 1.63431 6.91888C1.63431 9.22727 3.51318 11.1086 5.82268 11.1086C7.09319 11.1086 8.28219 10.5399 9.08187 9.54836C9.68829 8.79637 10.0094 7.8866 10.0094 6.91888C10.0094 4.60855 8.13245 2.72913 5.82268 2.72913ZM5.82268 12.7427C2.61146 12.7427 0 10.129 0 6.91888C0 3.70683 2.61146 1.09509 5.82268 1.09509C9.0339 1.09509 11.6448 3.70683 11.6448 6.91888C11.6448 8.24568 11.1862 9.54448 10.3543 10.576C9.24131 11.9527 7.59009 12.7427 5.82268 12.7427Z" fill="#FF0082"/>
<path d="M18.8171 18.2337C18.6355 18.2337 18.4541 18.1741 18.3044 18.0523L9.20531 10.7021C8.85427 10.4168 8.80048 9.90214 9.08358 9.5511C9.36697 9.19978 9.88133 9.14598 10.2324 9.42937L19.3298 16.7793C19.6828 17.0627 19.7365 17.5773 19.4534 17.9284C19.2918 18.128 19.0544 18.2337 18.8171 18.2337Z" fill="#FF0082"/>
<path d="M41.5117 4.65123C40.2612 4.65123 39.2438 5.66859 39.2438 6.91969C39.2438 7.4884 39.4554 8.03298 39.8403 8.45196C40.2689 8.91891 40.8773 9.18621 41.5098 9.18621H41.5117C42.7623 9.18621 43.7794 8.17052 43.7794 6.91969C43.7794 5.66859 42.7623 4.65123 41.5117 4.65123ZM41.5076 10.8222C40.4206 10.8222 39.3717 10.3613 38.6355 9.55721C37.9733 8.83489 37.6104 7.89933 37.6104 6.91969C37.6104 4.76686 39.3595 3.01526 41.5117 3.01526C43.6637 3.01526 45.4131 4.76686 45.4131 6.91969C45.4131 9.07252 43.6637 10.8222 41.5117 10.8222H41.5076Z" fill="#FF0082"/>
<path d="M30.4655 17.8645C30.2442 17.8645 30.0227 17.7747 29.8632 17.5992C29.556 17.2661 29.5799 16.7493 29.9109 16.444L38.6831 8.39972C39.0161 8.09443 39.5327 8.11633 39.838 8.44963C40.143 8.78265 40.1191 9.2995 39.7881 9.60479L31.0159 17.651C30.8604 17.7927 30.6629 17.8645 30.4655 17.8645Z" fill="#FF0082"/>
<path d="M24.7973 15.3728C22.713 15.375 20.7642 16.3067 19.4518 17.9288C18.4567 19.1635 17.9301 20.6539 17.9301 22.2442C17.9301 23.3236 18.1733 24.3571 18.6522 25.3145C19.4161 26.8429 20.7124 28.0261 22.302 28.6466C23.8099 29.235 25.5232 29.265 27.053 28.7362C28.7067 28.1617 30.0649 26.9885 30.8826 25.4363C31.3953 24.4588 31.6665 23.3555 31.6665 22.2442C31.6665 20.5203 31.0262 18.8705 29.8636 17.6013C28.8543 16.5022 27.4939 15.748 26.034 15.4845C25.6311 15.4108 25.2141 15.375 24.7973 15.3728ZM24.7993 30.7493C23.7323 30.7493 22.693 30.5538 21.7059 30.1689C19.7391 29.4006 18.1356 27.9362 17.19 26.0449C16.5958 24.8578 16.2966 23.579 16.2966 22.2442C16.2966 20.3048 16.9646 18.4074 18.1813 16.9031C19.8051 14.892 22.2164 13.7388 24.7973 13.7388C25.3139 13.7388 25.8266 13.7848 26.3252 13.8746C28.1341 14.2038 29.8175 15.1354 31.0681 16.4961C32.5083 18.0683 33.3022 20.1094 33.3022 22.2442C33.3022 23.6187 32.965 24.9873 32.3286 26.1966C31.3196 28.1198 29.6362 29.5703 27.5896 30.2804C26.6942 30.5918 25.7548 30.7493 24.7993 30.7493Z" fill="#FF0082"/>
<path d="M45.3411 30.0148C44.2142 30.0148 43.1869 30.6351 42.6623 31.6347C42.433 32.0697 42.3173 32.5425 42.3173 33.0413C42.3173 34.7092 43.6735 36.066 45.3411 36.066C47.0104 36.066 48.3668 34.7092 48.3668 33.0413C48.3668 31.3713 47.0104 30.0148 45.3411 30.0148ZM45.3411 37.7019C42.7721 37.7019 40.6816 35.6109 40.6816 33.0413C40.6816 32.2852 40.8671 31.5371 41.2143 30.8746C42.024 29.3363 43.6037 28.3785 45.3411 28.3785C47.9102 28.3785 50.0003 30.4695 50.0003 33.0413C50.0003 35.6109 47.9102 37.7019 45.3411 37.7019Z" fill="#FF0082"/>
<path d="M41.9399 32.0738C41.8104 32.0738 41.6807 32.0438 41.5589 31.9801L31.2293 26.5434C30.8283 26.3337 30.6747 25.8391 30.8863 25.4401C31.0956 25.041 31.5884 24.8852 31.9893 25.0968L42.3209 30.5335C42.7199 30.7431 42.8735 31.2378 42.662 31.6387C42.5164 31.9163 42.2333 32.0738 41.9399 32.0738Z" fill="#FF0082"/>
<mask id="mask0_893_7353" style="mask-type:luminance" maskUnits="userSpaceOnUse" x="11" y="44" width="7" height="7">
<path d="M11.7314 44.5159H17.9781V50.7342H11.7314V44.5159Z" fill="white"/>
</mask>
<g mask="url(#mask0_893_7353)">
<path d="M14.8737 46.2215C14.0779 46.2215 13.4277 46.8698 13.4277 47.6659C13.4277 48.4639 14.0779 49.1125 14.8737 49.1125C15.6714 49.1125 16.3197 48.4639 16.3197 47.6659C16.3197 47.0656 15.9587 46.5368 15.4003 46.3194C15.2347 46.2534 15.0573 46.2215 14.8737 46.2215ZM14.8737 50.7485C13.1764 50.7485 11.7942 49.3659 11.7942 47.6659C11.7942 45.9681 13.1764 44.5856 14.8737 44.5856C15.2627 44.5856 15.6396 44.6574 15.9967 44.7949C17.1854 45.2619 17.9552 46.389 17.9552 47.6659C17.9552 49.3659 16.5732 50.7485 14.8737 50.7485Z" fill="#FF0082"/>
</g>
<path d="M15.6935 46.3748C15.5939 46.3748 15.4941 46.3568 15.3965 46.3188C14.9756 46.1552 14.7682 45.6805 14.9337 45.2596L21.2425 29.1108C21.408 28.6919 21.8808 28.4825 22.3014 28.6481C22.7223 28.8117 22.9297 29.2864 22.7661 29.7073L16.4554 45.8541C16.3298 46.1771 16.0206 46.3748 15.6935 46.3748Z" fill="#FF0082"/>
<path d="M7.38823 27.415C5.43948 27.415 3.85397 29.0011 3.85397 30.9504C3.85397 32.8997 5.43948 34.4858 7.38823 34.4858C9.33892 34.4858 10.9244 32.8997 10.9244 30.9504C10.9244 30.3939 10.7988 29.8632 10.5537 29.3724H10.5515C9.94922 28.1651 8.73666 27.415 7.38823 27.415ZM7.38823 36.1217C4.53803 36.1217 2.22021 33.8014 2.22021 30.9504C2.22021 28.0994 4.53803 25.7791 7.38823 25.7791C9.36082 25.7791 11.1321 26.8763 12.0136 28.6401C12.3746 29.3602 12.5582 30.1385 12.5582 30.9504C12.5582 33.8014 10.2384 36.1217 7.38823 36.1217Z" fill="#FF0082"/>
<path d="M11.2815 29.827C10.9804 29.827 10.6931 29.6595 10.5495 29.3742C10.3482 28.969 10.5118 28.4783 10.9147 28.2767L17.4946 24.9867C17.6164 24.911 17.7619 24.8672 17.9175 24.8672C18.3681 24.8672 18.7352 25.2302 18.7352 25.681V25.6891C18.7352 25.9982 18.5597 26.2816 18.2824 26.4214L11.6464 29.7393C11.5289 29.799 11.4033 29.827 11.2815 29.827Z" fill="#FF0082"/>
<mask id="mask1_893_7353" style="mask-type:luminance" maskUnits="userSpaceOnUse" x="25" y="0" width="7" height="7">
<path d="M25.1462 0H31.3929V6.1862H25.1462V0Z" fill="white"/>
</mask>
<g mask="url(#mask1_893_7353)">
<path d="M28.2805 1.64358C27.4824 1.64358 26.8341 2.29214 26.8341 3.09016C26.8341 3.78836 27.333 4.38702 28.019 4.51263C28.1027 4.52677 28.1906 4.53453 28.2805 4.53453C29.0763 4.53453 29.7243 3.88625 29.7243 3.09016C29.7243 2.29214 29.0763 1.64358 28.2805 1.64358ZM28.2805 6.17079C28.0908 6.17079 27.9053 6.15276 27.7259 6.12087C26.2618 5.85551 25.1987 4.58056 25.1987 3.09016C25.1987 1.39042 26.581 0.00732422 28.2805 0.00732422C29.9777 0.00732422 31.36 1.39042 31.36 3.09016C31.36 4.78797 29.9777 6.17079 28.2802 6.17079" fill="#FF0082"/>
</g>
<path d="M26.1753 15.494C26.1254 15.494 26.0774 15.4901 26.0275 15.4801C25.5827 15.4003 25.2896 14.9752 25.3692 14.5304L27.0687 5.16933C27.1505 4.72429 27.5714 4.43092 28.0201 4.51078C28.4629 4.59064 28.7582 5.01766 28.6764 5.46048L26.9769 14.8216C26.9051 15.2167 26.5621 15.494 26.175 15.494" fill="#FF0082"/>
<path d="M30.5436 37.5046C30.4 37.5046 30.2583 37.5285 30.1227 37.5765C29.6061 37.7559 29.259 38.2428 29.259 38.7915C29.259 39.4978 29.8354 40.0742 30.5436 40.0742C31.2515 40.0742 31.828 39.4978 31.828 38.7915C31.828 38.0811 31.2515 37.5046 30.5436 37.5046ZM30.5436 41.7102C28.934 41.7102 27.6235 40.3995 27.6235 38.7915C27.6235 37.5465 28.4132 36.4371 29.5861 36.032C29.8953 35.9244 30.2184 35.8706 30.5436 35.8706C32.153 35.8706 33.4634 37.1794 33.4634 38.7915C33.4634 40.3995 32.153 41.7102 30.5436 41.7102Z" fill="#FF0082"/>
<path d="M29.8515 37.6183C29.5124 37.6183 29.1971 37.4068 29.0795 37.0676L26.5762 29.8433C26.5305 29.7415 26.5044 29.6278 26.5044 29.5081C26.5044 29.0552 26.8676 28.6901 27.3182 28.6901H27.3263C27.6754 28.6901 27.9845 28.9094 28.0982 29.2407L30.6251 36.5328C30.771 36.9598 30.5455 37.4248 30.1185 37.5723C30.0309 37.6042 29.941 37.6183 29.8515 37.6183Z" fill="#FF0082"/>
<circle cx="5.82963" cy="6.89445" r="4.23246" fill="#FF0082"/>
<circle cx="28.2961" cy="3.06115" r="1.62377" fill="#FF0082"/>
<circle cx="30.5854" cy="38.7848" r="1.62377" fill="#FF0082"/>
<circle cx="14.8537" cy="47.6481" r="1.49068" fill="#FF0082"/>
<circle cx="7.40023" cy="30.9316" r="3.56698" fill="#FF0082"/>
<circle cx="24.8358" cy="22.2276" r="7.10734" fill="#FF0082"/>
<circle cx="41.5259" cy="6.92088" r="2.39573" fill="#FF0082"/>
<circle cx="45.386" cy="33.034" r="3.16769" fill="#FF0082"/>
<line x1="6.5033" y1="31.0573" x2="3.5033" y2="5.05731" stroke="#FF0082"/>
<line x1="14.5419" y1="48.2004" x2="7.54192" y2="32.2004" stroke="#FF0082"/>
<line x1="30.2906" y1="39.4069" x2="16.2906" y2="49.4069" stroke="#FF0082"/>
<line x1="45.197" y1="33.4596" x2="31.197" y2="39.4596" stroke="#FF0082"/>
<line x1="42.4961" y1="7.93798" x2="45.4961" y2="31.938" stroke="#FF0082"/>
<line x1="28.1124" y1="3.5128" x2="41.1124" y2="6.5128" stroke="#FF0082"/>
<line x1="5.90644" y1="6.50883" x2="26.9064" y2="2.50883" stroke="#FF0082"/>
</svg>
