<svg width="34" height="35" viewBox="0 0 34 35" fill="none" xmlns="http://www.w3.org/2000/svg">
<path fill-rule="evenodd" clip-rule="evenodd" d="M14 8.97254C16.25 8.72381 18 6.81628 18 4.5C18 2.01472 15.9853 0 13.5 0C11.0147 0 9 2.01472 9 4.5C9 6.81628 10.75 8.72381 13 8.97254V18C10.2386 18 8 20.2386 8 23C8 23.4069 8.0486 23.8024 8.14032 24.1811L4.74388 26.5586C4.25244 26.207 3.65039 26 3 26C1.34315 26 0 27.3431 0 29C0 30.6569 1.34315 32 3 32C4.65685 32 6 30.6569 6 29C6 28.3599 5.79951 27.7666 5.45791 27.2795L8.48844 25.1581C9.29401 26.8391 11.0114 28 13 28C14.835 28 16.4392 27.0114 17.309 25.5378L29.0395 32.0548C29.0136 32.1993 29 32.3481 29 32.5C29 33.8807 30.1193 35 31.5 35C32.8807 35 34 33.8807 34 32.5C34 31.1193 32.8807 30 31.5 30C30.6296 30 29.863 30.4449 29.4153 31.1196L17.7292 24.6273C17.9047 24.1172 18 23.5697 18 23C18 20.581 16.2822 18.5633 14 18.1L14 8.97254Z" fill="#578FFE"/>
</svg>
