<svg width="39" height="45" viewBox="0 0 39 45" fill="none" xmlns="http://www.w3.org/2000/svg">
<path fill-rule="evenodd" clip-rule="evenodd" d="M11.2854 38.6712C11.1961 38.6712 11.1961 38.6712 11.1068 38.6712C10.839 38.5836 10.5712 38.2323 10.6603 37.881L13.4282 27.6067C13.5176 27.3433 13.8747 27.0799 14.2321 27.1676C14.5892 27.2554 14.7677 27.6067 14.6783 27.958L11.9104 38.2323C11.821 38.4957 11.5532 38.6712 11.2854 38.6712ZM16.1964 20.5816C16.1071 20.5816 16.1071 20.5816 16.0177 20.5816C15.7499 20.4937 15.4819 20.1424 15.5713 19.7914L18.3392 9.42923C18.4286 9.16583 18.7857 8.90243 19.1428 8.99007C19.4109 9.07795 19.6786 9.42923 19.5893 9.78051L16.8213 20.1424C16.732 20.4061 16.4642 20.5816 16.1964 20.5816Z" fill="#CAC5FF"/>
<path fill-rule="evenodd" clip-rule="evenodd" d="M19.9463 32.6119C19.7679 32.6119 19.5001 32.5243 19.4108 32.3485L16.6428 27.6945C16.4641 27.3432 16.5535 26.9919 16.9106 26.8164C17.1784 26.6406 17.5355 26.7285 17.7142 26.9919L20.4822 31.646C20.6608 31.9972 20.5715 32.3485 20.3037 32.5243C20.125 32.6119 20.0357 32.6119 19.9463 32.6119ZM13.071 20.9327C12.8926 20.9327 12.6245 20.8449 12.5354 20.6693L4.58846 7.23378C4.41002 6.8825 4.49912 6.53122 4.76715 6.3557C5.12428 6.17994 5.48141 6.26782 5.6601 6.53122L13.6068 19.9668C13.7855 20.3181 13.6962 20.6693 13.4281 20.8449C13.2497 20.9327 13.1604 20.9327 13.071 20.9327Z" fill="#CAC5FF"/>
<path fill-rule="evenodd" clip-rule="evenodd" d="M6.91033 29.0997C6.73164 29.0997 6.46385 29.0121 6.37451 28.8363C6.19582 28.485 6.28517 28.1338 6.6423 27.9582L11.2855 25.3238C11.5533 25.1482 11.9104 25.2359 12.0891 25.5872C12.2675 25.8508 12.1784 26.2018 11.9104 26.3776L7.26746 29.0121C7.08877 29.0997 6.99943 29.0997 6.91033 29.0997ZM18.6966 22.4259C18.518 22.4259 18.2502 22.3382 18.1608 22.1625C17.9821 21.8112 18.0715 21.4599 18.4286 21.2844L32.1793 13.4688C32.4473 13.2933 32.8044 13.3812 32.9829 13.7322C33.1616 13.9959 33.0722 14.3472 32.8044 14.5227L19.0538 22.3382C18.8751 22.4259 18.7857 22.4259 18.6966 22.4259Z" fill="#CAC5FF"/>
<path fill-rule="evenodd" clip-rule="evenodd" d="M19.9461 10.3951C19.4998 10.3951 19.1425 10.3072 18.7853 10.2193C17.8033 9.95591 16.9103 9.25358 16.4638 8.37526C15.928 7.49718 15.8389 6.53122 16.1067 5.56526C16.3745 4.5993 17.0888 3.72122 17.9817 3.19418C18.8747 2.66738 19.857 2.5795 20.839 2.84314C21.9107 3.10654 22.7143 3.8091 23.2498 4.68718C23.7857 5.56526 23.875 6.6191 23.607 7.58506C23.3392 8.55102 22.6249 9.4291 21.732 9.86827C21.1961 10.2193 20.5712 10.3951 19.9461 10.3951Z" fill="#CAC5FF"/>
<path fill-rule="evenodd" clip-rule="evenodd" d="M35.0362 15.9272C34.6791 15.9272 34.4113 15.9272 34.0542 15.8393C32.0005 15.2246 30.7504 13.117 31.2862 11.0974C31.554 10.0436 32.1789 9.25336 33.1612 8.72632C34.0542 8.19952 35.1256 8.11164 36.1079 8.37504C38.1616 8.90208 39.4116 11.0095 38.8758 13.117C38.608 13.9953 37.8935 14.8734 37.0006 15.4002C36.3757 15.7514 35.7507 15.9272 35.0362 15.9272Z" fill="#CAC5FF"/>
<path fill-rule="evenodd" clip-rule="evenodd" d="M3.96362 7.67295C3.60649 7.67295 3.24936 7.67295 2.89198 7.58531C0.838293 7.05827 -0.411547 4.95083 0.124029 2.84339C0.39206 1.87743 1.10632 1.08699 1.99927 0.560185C2.89198 0.0331454 3.96362 -0.142375 4.94567 0.121025C6.99936 0.735706 8.24945 2.84339 7.71387 4.86295C7.26739 6.53147 5.74928 7.67295 3.96362 7.67295Z" fill="#CAC5FF"/>
<path fill-rule="evenodd" clip-rule="evenodd" d="M5.12436 32.261C4.94567 32.261 4.67789 32.1734 4.4101 32.1734C3.07067 31.8221 2.17772 30.3293 2.53485 28.9242C2.71354 28.3095 3.16001 27.6948 3.78493 27.3436C4.4101 26.9923 5.12436 26.8168 5.83862 26.9923C7.35649 27.4314 8.1601 28.8363 7.80297 30.3293C7.35649 31.5587 6.2851 32.261 5.12436 32.261Z" fill="#CAC5FF"/>
<path fill-rule="evenodd" clip-rule="evenodd" d="M20.9287 36.3885C20.75 36.3885 20.4822 36.3885 20.2144 36.3006C19.5893 36.1248 18.9643 35.6859 18.6072 35.0712C18.2501 34.4565 18.1607 33.754 18.3392 33.0514C18.6966 31.7342 20.2144 30.8561 21.643 31.2074C22.3575 31.3829 22.893 31.9099 23.2502 32.5246C23.6073 33.1393 23.6966 33.8419 23.5182 34.4565C23.3395 35.1589 22.8037 35.7735 22.1788 36.1248C21.8216 36.3006 21.3752 36.3885 20.9287 36.3885Z" fill="#CAC5FF"/>
<mask id="mask0_838_817" style="mask-type:luminance" maskUnits="userSpaceOnUse" x="6" y="37" width="9" height="9">
<path d="M6.46851 37.3201H14.3833V45.0011H6.46851V37.3201Z" fill="white"/>
</mask>
<g mask="url(#mask0_838_817)">
<path fill-rule="evenodd" clip-rule="evenodd" d="M10.3923 44.9942C10.0352 44.9942 9.76742 44.9942 9.41005 44.9063C7.35636 44.2916 6.10652 42.1839 6.6421 40.1644C7.17791 38.1446 9.32095 36.9152 11.4637 37.442C13.5174 37.969 14.7675 40.0765 14.2319 42.1839C13.9639 43.1499 13.2496 43.9403 12.3567 44.4671C11.7318 44.8184 11.1066 44.9942 10.3923 44.9942Z" fill="#CAC5FF"/>
</g>
<path fill-rule="evenodd" clip-rule="evenodd" d="M15.125 28.4856C14.6786 28.4856 14.3214 28.4856 13.875 28.398C11.375 27.6954 9.94627 25.0609 10.5714 22.6022C10.9286 21.4605 11.7322 20.4069 12.8036 19.7922C13.875 19.1773 15.2144 19.0018 16.3751 19.353C17.5359 19.6164 18.5182 20.4069 19.2324 21.4605C19.8576 22.5143 20.036 23.8316 19.7682 25.0609C19.1431 27.1684 17.1787 28.4856 15.125 28.4856Z" fill="#CAC5FF"/>
</svg>
