<svg width="42" height="49" viewBox="0 0 42 49" fill="none" xmlns="http://www.w3.org/2000/svg">
<path fill-rule="evenodd" clip-rule="evenodd" d="M12.0372 41.248C11.9419 41.248 11.9419 41.248 11.8467 41.248C11.561 41.1545 11.2754 40.7798 11.3704 40.4051L14.3228 29.4462C14.4181 29.1652 14.7991 28.8842 15.1803 28.9777C15.5612 29.0715 15.7515 29.4462 15.6562 29.8208L12.7038 40.7798C12.6085 41.0608 12.3229 41.248 12.0372 41.248ZM17.2755 21.9529C17.1802 21.9529 17.1802 21.9529 17.0849 21.9529C16.7993 21.8591 16.5134 21.4844 16.6087 21.11L19.5611 10.0573C19.6564 9.77634 20.0373 9.49539 20.4183 9.58887C20.7042 9.6826 20.9898 10.0573 20.8945 10.432L17.9421 21.4844C17.8468 21.7656 17.5611 21.9529 17.2755 21.9529Z" fill="#F47D61"/>
<path fill-rule="evenodd" clip-rule="evenodd" d="M21.276 34.7847C21.0857 34.7847 20.8001 34.6912 20.7048 34.5037L17.7524 29.5395C17.5618 29.1648 17.6571 28.7901 18.038 28.6029C18.3236 28.4154 18.7046 28.5092 18.8952 28.7901L21.8476 33.7543C22.0382 34.129 21.9429 34.5037 21.6572 34.6912C21.4666 34.7847 21.3713 34.7847 21.276 34.7847ZM13.9425 22.3272C13.7522 22.3272 13.4663 22.2334 13.3713 22.0462L4.8947 7.7153C4.70436 7.34061 4.7994 6.96592 5.08529 6.7787C5.46623 6.59123 5.84716 6.68496 6.03775 6.96592L14.5141 21.2968C14.7047 21.6715 14.6094 22.0462 14.3235 22.2334C14.1331 22.3272 14.0378 22.3272 13.9425 22.3272Z" fill="#F47D61"/>
<path fill-rule="evenodd" clip-rule="evenodd" d="M7.37094 31.0387C7.18034 31.0387 6.89471 30.9452 6.79941 30.7578C6.60881 30.3831 6.70411 30.0084 7.08504 29.8212L12.0377 27.0111C12.3233 26.8239 12.7042 26.9174 12.8948 27.2921C13.0852 27.5733 12.9901 27.9477 12.7042 28.1352L7.75187 30.9452C7.56127 31.0387 7.46597 31.0387 7.37094 31.0387ZM19.9427 23.9201C19.7521 23.9201 19.4665 23.8266 19.3712 23.6392C19.1806 23.2645 19.2759 22.8898 19.6568 22.7026L34.3239 14.3662C34.6097 14.1789 34.9907 14.2727 35.181 14.6471C35.3716 14.9283 35.2763 15.303 34.9907 15.4902L20.3236 23.8266C20.133 23.9201 20.0378 23.9201 19.9427 23.9201Z" fill="#F47D61"/>
<path fill-rule="evenodd" clip-rule="evenodd" d="M21.2759 11.0879C20.7999 11.0879 20.4187 10.9942 20.0378 10.9005C18.9903 10.6195 18.0378 9.87037 17.5616 8.93352C16.9901 7.99692 16.895 6.96659 17.1807 5.93626C17.4663 4.90592 18.2282 3.96933 19.1806 3.40716C20.1331 2.84526 21.1808 2.75152 22.2283 3.03273C23.3714 3.31368 24.2285 4.06306 24.7998 4.99966C25.3713 5.93626 25.4666 7.06033 25.1807 8.09066C24.8951 9.12099 24.1333 10.0576 23.1808 10.526C22.6093 10.9005 21.9427 11.0879 21.2759 11.0879Z" fill="#F47D61"/>
<path fill-rule="evenodd" clip-rule="evenodd" d="M37.3711 16.9878C36.9901 16.9878 36.7045 16.9878 36.3236 16.894C34.133 16.2384 32.7996 13.9903 33.3712 11.8361C33.6568 10.712 34.3233 9.86917 35.3711 9.30701C36.3236 8.7451 37.4664 8.65137 38.5141 8.93232C40.7047 9.49448 42.0381 11.7424 41.4665 13.9903C41.1809 14.9271 40.4188 15.8637 39.4663 16.4256C38.7997 16.8003 38.1332 16.9878 37.3711 16.9878Z" fill="#F47D61"/>
<path fill-rule="evenodd" clip-rule="evenodd" d="M4.22776 8.18428C3.84683 8.18428 3.4659 8.18428 3.08471 8.0908C0.894157 7.52864 -0.438973 5.28076 0.132294 3.03287C0.418188 2.00254 1.18005 1.15942 2.13251 0.597517C3.08471 0.0353543 4.22776 -0.151863 5.27526 0.129091C7.46581 0.784734 8.7992 3.03287 8.22793 5.18702C7.7517 6.96673 6.13242 8.18428 4.22776 8.18428Z" fill="#F47D61"/>
<path fill-rule="evenodd" clip-rule="evenodd" d="M5.46602 34.4113C5.27542 34.4113 4.98979 34.3178 4.70415 34.3178C3.27546 33.9431 2.32301 32.3509 2.70394 30.8521C2.89453 30.1965 3.37076 29.5408 4.03733 29.1661C4.70415 28.7915 5.46602 28.6042 6.22788 28.7915C7.8469 29.2599 8.70406 30.7584 8.32313 32.3509C7.8469 33.6622 6.70411 34.4113 5.46602 34.4113Z" fill="#F47D61"/>
<path fill-rule="evenodd" clip-rule="evenodd" d="M22.3235 38.8127C22.1329 38.8127 21.8473 38.8127 21.5616 38.7189C20.8948 38.5315 20.2283 38.0633 19.8473 37.4076C19.4664 36.752 19.3711 36.0026 19.5614 35.2532C19.9426 33.8482 21.5616 32.9116 23.0854 33.2863C23.8475 33.4735 24.4188 34.0357 24.7997 34.6913C25.1806 35.347 25.2759 36.0964 25.0856 36.752C24.895 37.5011 24.3235 38.1568 23.6569 38.5315C23.276 38.7189 22.7997 38.8127 22.3235 38.8127Z" fill="#F47D61"/>
<mask id="mask0_893_7285" style="mask-type:luminance" maskUnits="userSpaceOnUse" x="6" y="39" width="10" height="10">
<path d="M6.90063 39.8088H15.3429V48.0017H6.90063V39.8088Z" fill="white"/>
</mask>
<g mask="url(#mask0_893_7285)">
<path fill-rule="evenodd" clip-rule="evenodd" d="M11.0856 47.9944C10.7047 47.9944 10.419 47.9944 10.0378 47.9007C7.84728 47.245 6.51415 44.9969 7.08542 42.8427C7.65695 40.6883 9.94279 39.3771 12.2284 39.939C14.4189 40.5011 15.7523 42.749 15.1811 44.9969C14.8952 46.0272 14.1333 46.8703 13.1808 47.4323C12.5143 47.8069 11.8475 47.9944 11.0856 47.9944Z" fill="#F47D61"/>
</g>
<path fill-rule="evenodd" clip-rule="evenodd" d="M16.1328 30.3837C15.6566 30.3837 15.2757 30.3837 14.7994 30.2902C12.1329 29.5408 10.6089 26.7308 11.2758 24.1082C11.6567 22.8904 12.5139 21.7666 13.6567 21.111C14.7994 20.4551 16.2281 20.2678 17.4662 20.6425C18.7043 20.9235 19.7521 21.7666 20.5139 22.8904C21.1808 24.0145 21.3711 25.4195 21.0855 26.7308C20.4186 28.9787 18.3234 30.3837 16.1328 30.3837Z" fill="#F47D61"/>
<line x1="5.50147" y1="31.0383" x2="3.50147" y2="5.03835" stroke="#F47D61"/>
<line x1="10.5448" y1="43.2069" x2="5.54482" y2="32.2069" stroke="#F47D61"/>
<line x1="22.2941" y1="36.4044" x2="11.2941" y2="44.4044" stroke="#F47D61"/>
<line x1="37.4188" y1="13.2731" x2="22.4188" y2="36.2731" stroke="#F47D61"/>
<line x1="21.1756" y1="6.53184" x2="37.1756" y2="12.5318" stroke="#F47D61"/>
<line x1="4.02936" y1="5.50086" x2="21.0294" y2="6.50086" stroke="#F47D61"/>
</svg>
