<svg width="52" height="52" viewBox="0 0 52 52" fill="none" xmlns="http://www.w3.org/2000/svg">
<circle cx="26" cy="26" r="25" fill="#F9E6E0" stroke="#FF0082" stroke-width="2"/>
<path fill-rule="evenodd" clip-rule="evenodd" d="M21.6165 40.8188C21.5408 40.8188 21.5408 40.8188 21.465 40.8188C21.2379 40.7445 21.0108 40.4466 21.0864 40.1487L23.4337 31.4358C23.5095 31.2124 23.8123 30.9891 24.1154 31.0634C24.4182 31.1379 24.5696 31.4358 24.4938 31.7337L22.1465 40.4466C22.0707 40.67 21.8436 40.8188 21.6165 40.8188ZM25.7812 25.4783C25.7054 25.4783 25.7054 25.4783 25.6297 25.4783C25.4026 25.4038 25.1753 25.1059 25.251 24.8082L27.5983 16.0208C27.6741 15.7974 27.977 15.574 28.2798 15.6484C28.5071 15.7229 28.7342 16.0208 28.6584 16.3187L26.3111 25.1059C26.2354 25.3295 26.0083 25.4783 25.7812 25.4783Z" fill="#F47D61"/>
<path fill-rule="evenodd" clip-rule="evenodd" d="M28.9746 35.688C28.8233 35.688 28.5962 35.6137 28.5204 35.4647L26.1731 31.5179C26.0216 31.22 26.0973 30.9221 26.4002 30.7733C26.6273 30.6242 26.9302 30.6987 27.0817 30.9221L29.429 34.8689C29.5805 35.1668 29.5048 35.4647 29.2777 35.6137C29.1261 35.688 29.0504 35.688 28.9746 35.688ZM23.1441 25.7838C22.9928 25.7838 22.7655 25.7092 22.6899 25.5604L15.9507 14.1667C15.7994 13.8688 15.8749 13.5709 16.1022 13.422C16.4051 13.273 16.7079 13.3475 16.8595 13.5709L23.5985 24.9646C23.75 25.2625 23.6743 25.5604 23.447 25.7092C23.2957 25.7838 23.2199 25.7838 23.1441 25.7838Z" fill="#F47D61"/>
<path fill-rule="evenodd" clip-rule="evenodd" d="M17.9059 32.7119C17.7544 32.7119 17.5273 32.6375 17.4515 32.4885C17.3 32.1906 17.3757 31.8927 17.6786 31.7439L21.6162 29.5097C21.8432 29.3609 22.1461 29.4352 22.2976 29.7331C22.449 29.9567 22.3734 30.2544 22.1461 30.4034L18.2087 32.6375C18.0572 32.7119 17.9814 32.7119 17.9059 32.7119ZM27.901 27.0523C27.7495 27.0523 27.5224 26.9779 27.4466 26.8289C27.2951 26.531 27.3709 26.2331 27.6737 26.0842L39.3347 19.4564C39.562 19.3076 39.8648 19.3821 40.0162 19.6798C40.1677 19.9034 40.0919 20.2013 39.8648 20.3501L28.2039 26.9779C28.0523 27.0523 27.9766 27.0523 27.901 27.0523Z" fill="#F47D61"/>
<path fill-rule="evenodd" clip-rule="evenodd" d="M28.9628 16.8558C28.5844 16.8558 28.2814 16.7812 27.9785 16.7067C27.1457 16.4833 26.3884 15.8878 26.0098 15.1429C25.5554 14.3983 25.4799 13.5791 25.707 12.76C25.9341 11.9408 26.5398 11.1962 27.297 10.7492C28.0543 10.3025 28.8873 10.2279 29.7201 10.4515C30.6289 10.6749 31.3104 11.2707 31.7645 12.0153C32.2189 12.76 32.2947 13.6536 32.0674 14.4728C31.8403 15.292 31.2346 16.0366 30.4773 16.409C30.0229 16.7067 29.493 16.8558 28.9628 16.8558Z" fill="#F47D61"/>
<path fill-rule="evenodd" clip-rule="evenodd" d="M41.7589 21.5318C41.4561 21.5318 41.229 21.5318 40.9261 21.4572C39.1845 20.936 38.1244 19.1486 38.5788 17.4359C38.8059 16.5423 39.3359 15.8721 40.1689 15.4252C40.9261 14.9785 41.8347 14.9039 42.6677 15.1273C44.4093 15.5743 45.4694 17.3614 45.015 19.1486C44.7879 19.8934 44.182 20.6381 43.4247 21.0848C42.8948 21.3827 42.3648 21.5318 41.7589 21.5318Z" fill="#F47D61"/>
<path fill-rule="evenodd" clip-rule="evenodd" d="M15.4102 14.5395C15.1073 14.5395 14.8044 14.5395 14.5014 14.4652C12.7598 14.0182 11.6999 12.231 12.1541 10.4439C12.3814 9.62471 12.9871 8.95439 13.7443 8.50765C14.5014 8.06071 15.4102 7.91186 16.243 8.13523C17.9846 8.6565 19.0447 10.4439 18.5905 12.1565C18.2119 13.5715 16.9244 14.5395 15.4102 14.5395Z" fill="#F47D61"/>
<path fill-rule="evenodd" clip-rule="evenodd" d="M16.3992 35.3926C16.2477 35.3926 16.0206 35.3182 15.7935 35.3182C14.6577 35.0203 13.9004 33.7544 14.2033 32.5629C14.3548 32.0416 14.7334 31.5203 15.2634 31.2224C15.7935 30.9245 16.3992 30.7757 17.005 30.9245C18.2922 31.2969 18.9736 32.4883 18.6708 33.7544C18.2922 34.797 17.3836 35.3926 16.3992 35.3926Z" fill="#F47D61"/>
<path fill-rule="evenodd" clip-rule="evenodd" d="M29.7922 38.8945C29.6407 38.8945 29.4136 38.8945 29.1865 38.8199C28.6564 38.6709 28.1264 38.2987 27.8236 37.7774C27.5207 37.2561 27.4449 36.6603 27.5963 36.0646C27.8993 34.9475 29.1865 34.2029 30.398 34.5008C31.0039 34.6496 31.4581 35.0965 31.7609 35.6178C32.0638 36.1391 32.1395 36.7349 31.9882 37.2561C31.8367 37.8517 31.3823 38.373 30.8523 38.6709C30.5495 38.8199 30.1709 38.8945 29.7922 38.8945Z" fill="#F47D61"/>
<mask id="mask0_0_6" style="mask-type:luminance" maskUnits="userSpaceOnUse" x="17" y="39" width="8" height="8">
<path d="M17.5343 39.678H24.2463V46.1917H17.5343V39.678Z" fill="white"/>
</mask>
<g mask="url(#mask0_0_6)">
<path fill-rule="evenodd" clip-rule="evenodd" d="M20.8483 46.1859C20.5455 46.1859 20.3184 46.1859 20.0153 46.1114C18.2737 45.5901 17.2138 43.8027 17.668 42.0901C18.1224 40.3773 19.9397 39.3347 21.7569 39.7815C23.4985 40.2284 24.5586 42.0156 24.1044 43.8027C23.8771 44.6219 23.2714 45.2922 22.5141 45.739C21.9842 46.0369 21.454 46.1859 20.8483 46.1859Z" fill="#F47D61"/>
</g>
<path fill-rule="evenodd" clip-rule="evenodd" d="M24.8778 32.1864C24.4991 32.1864 24.1963 32.1864 23.8177 32.1121C21.6976 31.5163 20.486 29.2822 21.0162 27.1971C21.319 26.2289 22.0005 25.3354 22.9091 24.8142C23.8177 24.2927 24.9535 24.1439 25.9379 24.4417C26.9222 24.6651 27.7552 25.3354 28.3609 26.2289C28.8911 27.1226 29.0424 28.2397 28.8153 29.2822C28.2852 31.0694 26.6193 32.1864 24.8778 32.1864Z" fill="#F47D61"/>
<line x1="16.5728" y1="32.6958" x2="14.9827" y2="12.0247" stroke="#F47D61" stroke-width="0.5"/>
<line x1="20.5747" y1="42.319" x2="16.5994" y2="33.5735" stroke="#F47D61" stroke-width="0.5"/>
<line x1="29.6877" y1="36.859" x2="20.9422" y2="43.2194" stroke="#F47D61" stroke-width="0.5"/>
<line x1="41.6756" y1="18.5011" x2="29.7499" y2="36.7872" stroke="#F47D61" stroke-width="0.5"/>
<line x1="28.8279" y1="13.3573" x2="41.5486" y2="18.1275" stroke="#F47D61" stroke-width="0.5"/>
<line x1="15.2432" y1="12.5562" x2="28.759" y2="13.3513" stroke="#F47D61" stroke-width="0.5"/>
</svg>
