<svg width="83" height="63" viewBox="0 0 83 63" fill="none" xmlns="http://www.w3.org/2000/svg">
<mask id="mask0_1185_17923" style="mask-type:luminance" maskUnits="userSpaceOnUse" x="16" y="0" width="61" height="55">
<path d="M16.7188 54.5312H76.0682V-0.00286567H16.7188V54.5312Z" fill="white"/>
</mask>
<g mask="url(#mask0_1185_17923)">
<path d="M21.6271 17.9691L28.1507 11.4494L26.0028 9.3019H22.5453V9.30451H18.6643C18.4647 9.52371 18.1784 9.66141 17.859 9.66141C17.2572 9.66141 16.7695 9.17422 16.7695 8.57284C16.7695 7.97147 17.2572 7.48427 17.859 7.48427C18.1784 7.48427 18.4647 7.62241 18.6643 7.84117H22.2577C22.2935 7.43067 22.4137 7.04413 22.6029 6.70161L20.186 4.20286C20.1394 4.2094 20.0928 4.21288 20.0453 4.21288C19.4439 4.21288 18.9563 3.72568 18.9563 3.12431C18.9563 2.52294 19.4439 2.03574 20.0453 2.03574C20.631 2.03574 21.1068 2.49723 21.133 3.07638L23.6143 5.64136C24.0553 5.3677 24.5743 5.20733 25.1312 5.20733H25.2084L25.3666 1.96078C25.1073 1.76163 24.9391 1.45005 24.9391 1.09751C24.9391 0.496135 25.4276 0.00893548 26.0294 0.00893548C26.6303 0.00893548 27.1179 0.496135 27.1179 1.09751C27.1179 1.37728 27.0116 1.63264 26.8373 1.82526C26.8373 1.83092 26.8391 1.83659 26.8386 1.84312L26.6743 5.2143L32.2484 10.7853C33.0001 11.5357 33.0001 12.7533 32.2484 13.5045L27.657 18.0928C27.657 18.0928 21.6886 18.0314 21.6271 17.9691ZM26.8386 43.8382C26.8391 43.8447 26.8373 43.8499 26.8373 43.8565C27.0116 44.0495 27.1179 44.304 27.1179 44.5842C27.1179 45.1856 26.6303 45.6728 26.0294 45.6728C25.4276 45.6728 24.9391 45.1856 24.9391 44.5842C24.9391 44.2317 25.1073 43.9197 25.3666 43.7209L25.2084 40.4744H25.1312C24.5743 40.4744 24.0553 40.3136 23.6143 40.0399L21.133 42.6049C21.1068 43.1845 20.631 43.6464 20.0453 43.6464C19.4439 43.6464 18.9563 43.1584 18.9563 42.557C18.9563 41.9556 19.4439 41.4684 20.0453 41.4684C20.0928 41.4684 20.1394 41.4723 20.186 41.4789L22.6029 38.9801C22.4137 38.6372 22.2935 38.2511 22.2577 37.8401H18.6643C18.4647 38.0593 18.1784 38.197 17.859 38.197C17.2572 38.197 16.7695 37.7098 16.7695 37.1084C16.7695 36.5071 17.2572 36.0199 17.859 36.0199C18.1784 36.0199 18.4647 36.158 18.6643 36.3768H22.5453V36.3794H26.0028L28.1507 34.2319L21.6271 27.7122C21.6886 27.6499 27.657 27.5884 27.657 27.5884L32.2484 32.1772C33.0001 32.928 33.0001 34.1456 32.2484 34.8969L26.6743 40.467L26.8386 43.8382ZM55.9564 53.4349C55.9564 53.1547 56.0636 52.9002 56.2375 52.7071C56.2375 52.701 56.2362 52.6953 56.2366 52.6892L56.4009 49.3176L50.8269 43.7475C50.0752 42.9962 50.0752 41.7787 50.8269 41.0283L55.4182 36.4391C55.4182 36.4391 61.3858 36.5014 61.4481 36.5629L54.9236 43.0834L57.0733 45.2309H60.5308V45.2274H64.4109C64.6105 45.0091 64.8964 44.8705 65.2163 44.8705C65.8181 44.8705 66.3057 45.3577 66.3057 45.9591C66.3057 46.5605 65.8181 47.0485 65.2163 47.0485C64.8964 47.0485 64.6105 46.91 64.4109 46.6912H60.8167C60.7818 47.1017 60.6615 47.4878 60.4715 47.8312L62.8892 50.3295C62.935 50.3234 62.9816 50.3195 63.0291 50.3195C63.6309 50.3195 64.119 50.8071 64.119 51.4085C64.119 52.0099 63.6309 52.4971 63.0291 52.4971C62.4434 52.4971 61.9675 52.0351 61.9423 51.4564L59.4605 48.8914C59.0191 49.1642 58.5009 49.325 57.944 49.325H57.8669L57.7087 52.5716C57.9675 52.7703 58.1362 53.0828 58.1362 53.4349C58.1362 54.0362 57.6477 54.5234 57.0459 54.5234C56.4441 54.5234 55.9564 54.0362 55.9564 53.4349ZM63.3442 22.0218L66.3828 21.946L68.8877 24.3271L68.8864 24.3288L71.698 27.0019C71.6915 27.2973 71.8039 27.595 72.0353 27.8146C72.4715 28.2295 73.1609 28.212 73.5758 27.7763C73.9902 27.3401 73.9728 26.6515 73.537 26.2367C73.3056 26.017 73.0027 25.9199 72.7069 25.9412L70.1031 23.4664C70.3602 23.1444 70.5397 22.7814 70.6391 22.4023L74.1135 22.2567C74.1427 22.2929 74.1737 22.3277 74.2081 22.3609C74.6439 22.7748 75.3337 22.7574 75.7481 22.3221C76.163 21.8867 76.1456 21.1969 75.7098 20.7829C75.2853 20.3794 74.6217 20.3863 74.2042 20.7881L70.6373 20.9376C70.5062 20.4365 70.2408 19.9623 69.8368 19.5788L69.781 19.5257L71.905 17.064C72.2305 17.0984 72.5674 16.9881 72.8101 16.7328C73.2246 16.2966 73.2076 15.608 72.7718 15.1936C72.3356 14.7792 71.6462 14.7966 71.2313 15.232C71.0378 15.4355 70.9402 15.6935 70.9328 15.9527C70.9284 15.9571 70.9236 15.9606 70.9197 15.9649L68.7138 18.5212L60.8336 18.7191C59.7712 18.7461 58.9315 19.6281 58.9581 20.6896L59.1215 27.1775C59.1215 27.1775 63.4888 31.2424 63.5764 31.2398L63.3442 22.0218Z" fill="#AB7D6B"/>
</g>
<mask id="mask1_1185_17923" style="mask-type:luminance" maskUnits="userSpaceOnUse" x="0" y="13" width="83" height="50">
<path d="M0 62.4062H83V13.9473H0V62.4062Z" fill="white"/>
</mask>
<g mask="url(#mask1_1185_17923)">
<path d="M73.8279 62.1837L80.6286 59.437C82.0615 58.8583 82.9997 57.4677 82.9997 55.9225V53.8381C82.9997 48.7609 81.1603 43.8553 77.8222 40.0279L77.2914 39.42C75.6185 37.5021 73.6863 35.8261 71.5509 34.4404L62.2602 28.4105L62.2841 28.3643L45.9085 18.0529C44.4595 17.1408 42.7778 16.665 41.0652 16.6833L19.8302 16.906L19.8328 16.8528L17.2443 15.036C15.8132 14.0316 14.0034 13.73 12.3235 14.2155L5.22554 16.2671C3.6842 16.7129 2.32065 17.6293 1.32577 18.8879L0.828545 19.5163C-0.252185 20.8837 -0.278331 22.8068 0.765793 24.2026L1.07694 24.6188C1.92191 25.7488 3.06234 26.6251 4.37229 27.1511L11.557 30.0355C13.3789 30.7672 15.4467 30.5227 17.0478 29.3884L19.282 27.8052C19.316 27.8479 19.3635 27.8797 19.4193 27.8932L56.8164 36.858L68.443 40.302C70.7909 40.9975 72.9206 42.2839 74.6284 44.0375L75.3139 44.7413C77.9277 47.4252 79.3906 51.0221 79.3906 54.7672C79.3906 55.7129 78.8241 56.5661 77.9516 56.9335L72.931 59.0492C72.6151 59.1821 72.2661 58.9502 72.2661 58.6082V55.7159C72.2661 55.003 71.6878 54.4256 70.9744 54.4256C70.2619 54.4256 69.6836 55.003 69.6836 55.7159V59.3904C69.6836 61.5261 71.846 62.9842 73.8279 62.1837Z" fill="#D0A893"/>
</g>
<path d="M69.8215 35.2822C70.3588 36.8658 68.42 38.3984 68.42 38.3984L69.8215 35.2822ZM62.6481 36.4348L64.4213 32.4936C65.1016 34.496 62.6481 36.4348 62.6481 36.4348ZM54.3832 34.8477L57.4258 28.0831C58.5923 31.521 54.3832 34.8477 54.3832 34.8477ZM47.148 31.9428L50.1906 25.1787C51.3563 28.6157 47.148 31.9428 47.148 31.9428ZM42.8878 21.9683C44.6174 25.1599 41.0314 29.1486 41.0314 29.1486L42.8878 21.9683ZM34.3182 27.5951L35.1009 20.22C37.2802 23.1231 34.3182 27.5951 34.3182 27.5951ZM28.213 27.1793V19.7624C30.6869 22.4202 28.213 27.1793 28.213 27.1793ZM22.2759 26.3139V18.8974C24.7498 21.5552 22.2759 26.3139 22.2759 26.3139ZM6.54827 16.8174C6.47288 16.5106 6.86857 16.1498 7.43247 16.0112C7.99593 15.8726 8.51407 16.0086 8.58989 16.315C8.66528 16.6217 8.2696 16.9826 7.7057 17.1211C7.14224 17.2597 6.6241 17.1238 6.54827 16.8174ZM7.71398 26.9763C7.14529 26.8603 6.63238 27.0177 6.56963 27.3271C6.50644 27.636 6.91694 27.9807 7.4865 28.0966C8.05519 28.2121 8.56723 28.0552 8.63042 27.7454C8.69317 27.4364 8.28354 27.0917 7.71398 26.9763Z" fill="white"/>
<path d="M2.13788 20.517L0.875 21.3336C1.09812 20.2573 2.13788 20.517 2.13788 20.517ZM0.875 22.5686L2.13788 23.3853C2.13788 23.3853 1.09812 23.645 0.875 22.5686ZM6.93188 16.7296C6.90922 16.6377 7.16981 16.4782 7.52192 16.391C7.8749 16.3052 8.17994 16.3252 8.20304 16.4163C8.2257 16.5087 7.96336 16.6678 7.61213 16.7549C7.25915 16.8416 6.9541 16.8207 6.93188 16.7296ZM8.23965 27.6733C8.25882 27.5805 7.99082 27.4315 7.63566 27.3596C7.27963 27.2877 6.97545 27.3199 6.95672 27.4127C6.93754 27.5055 7.20511 27.6537 7.5607 27.7265C7.9163 27.7984 8.22047 27.7657 8.23965 27.6733Z" fill="#7E584E"/>
</svg>
