<svg width="65" height="58" viewBox="0 0 65 58" fill="none" xmlns="http://www.w3.org/2000/svg">
<path d="M31.8359 29.4687V27.8599C35.574 26.9156 43.839 25.3398 47.625 28.6643C43.839 31.9885 35.574 30.4127 31.8359 29.4687Z" fill="#854848"/>
<path d="M47.6215 28.6644C47.6215 28.6644 37.6586 31.0943 32.893 27.6057C32.5767 27.6773 32.279 27.7486 32.0036 27.8169C31.9813 27.8225 31.9594 27.8281 31.9375 27.8336C32.1777 28.1406 32.3447 28.4342 32.4234 28.654V28.6544C32.4242 28.6566 32.4253 28.6585 32.426 28.6603C32.426 28.6607 32.426 28.6611 32.4264 28.6614C32.4264 28.6622 32.4268 28.6633 32.4271 28.6644C32.3499 28.8849 32.1814 29.183 31.9375 29.4948C32.818 29.7153 33.935 29.9662 35.1774 30.1804C36.8122 30.4622 38.6646 30.6801 40.4835 30.6797C43.2252 30.6793 45.8909 30.1838 47.6215 28.6644Z" fill="#633032"/>
<path d="M24.5703 28.1877H26.1565V29.1484H24.5703V28.1877Z" fill="#4A2527"/>
<path d="M17.5 31.8516C17.5 31.8516 21.7136 29.7082 23.0518 29.3336C22.969 29.0742 22.3083 29.0578 22.3083 29.0578C22.3083 29.0578 19.3174 30.562 17.5 31.8516Z" fill="#4A2527"/>
<mask id="mask0_1131_23424" style="mask-type:luminance" maskUnits="userSpaceOnUse" x="30" y="12" width="35" height="17">
<path d="M30.0312 28.6562H64.9992V12.4062H30.0312V28.6562Z" fill="white"/>
</mask>
<g mask="url(#mask0_1131_23424)">
<path d="M30.0393 27.6702C30.2509 27.6687 40.9095 17.7362 43.8368 16.0751C48.4509 18.4835 52.7384 22.3801 52.7384 22.3801C52.7384 22.3801 62.7028 15.7714 64.8732 12.4907C65.0021 12.7442 65.0021 12.7442 65.0021 12.7442C65.0021 12.7442 60.0568 18.8799 52.682 23.4083C50.964 22.177 44.0517 17.0777 44.0517 17.0777C44.0517 17.0777 33.2555 25.9381 30.6964 28.5859C30.0056 28.1832 30.0393 27.6702 30.0393 27.6702Z" fill="#6B3639"/>
</g>
<mask id="mask1_1131_23424" style="mask-type:luminance" maskUnits="userSpaceOnUse" x="30" y="28" width="35" height="17">
<path d="M30.0312 44.9062H64.9992V28.6562H30.0312V44.9062Z" fill="white"/>
</mask>
<g mask="url(#mask1_1131_23424)">
<path d="M30.0393 29.6568C30.2513 29.6583 40.9094 39.5904 43.8368 41.2515C48.4509 38.8435 52.7384 34.9465 52.7384 34.9465C52.7384 34.9465 62.7028 41.5556 64.8732 44.8359C65.002 44.5824 65.002 44.5824 65.002 44.5824C65.002 44.5824 60.0568 38.4467 52.682 33.9183C50.9644 35.1496 44.0517 40.2489 44.0517 40.2489C44.0517 40.2489 33.2555 31.3889 30.6967 28.741C30.0059 29.1438 30.0393 29.6568 30.0393 29.6568Z" fill="#4A2527"/>
</g>
<mask id="mask2_1131_23424" style="mask-type:luminance" maskUnits="userSpaceOnUse" x="22" y="0" width="10" height="29">
<path d="M22.5234 28.375H31.2662V0.0172044H22.5234V28.375Z" fill="white"/>
</mask>
<g mask="url(#mask2_1131_23424)">
<path d="M27.6944 27.2398C27.6944 27.2398 23.4645 14.3009 22.5391 6.43277C22.5391 2.86211 25.9757 0.0190143 25.9757 0.0190143C25.9757 0.0190143 29.1484 1.27556 30.9997 8.08576C31.3905 10.63 31.1868 12.5789 30.983 14.2181C30.7732 15.9016 30.5639 17.2587 30.9997 18.5988C31.4295 19.9218 30.621 21.2158 29.8129 22.567C29.0059 23.9167 28.1985 25.3232 28.6254 26.8719C29.1406 28.7436 28.6941 28.4885 28.2598 27.9933C27.9747 27.6685 27.6944 27.2398 27.6944 27.2398Z" fill="#D8C09F"/>
</g>
<path d="M30.9723 14.3022C30.95 14.4785 30.9281 14.6515 30.9073 14.8208C30.9281 14.6511 30.95 14.4785 30.9723 14.3022ZM28.6611 24.9485C28.6611 24.9481 28.6611 24.9474 28.6611 24.9474C28.5642 25.2907 28.5078 25.6404 28.5078 25.9975C28.5078 26.071 28.51 26.1445 28.5149 26.2188C28.51 26.1449 28.5078 26.0718 28.5078 25.9986C28.5078 25.6415 28.5646 25.2922 28.6611 24.9485Z" fill="#A5A7A6"/>
<path d="M30.9712 14.2949C29.9278 14.5503 29.3175 14.0347 29.1222 13.828C29.3153 12.7448 29.5332 11.7514 29.7544 10.8687C30.0889 9.53232 30.4515 8.34927 30.7908 7.35555C30.7095 7.08531 30.6256 6.82435 30.5402 6.57304C30.1984 7.52445 29.8197 8.68745 29.4619 10.0208C27.7625 10.192 27.3601 8.92799 27.3434 8.87342C27.3393 8.85894 27.3334 8.84558 27.3271 8.83259C27.418 6.5103 27.6084 4.09299 27.9396 1.6612C27.7903 1.48302 27.6448 1.32228 27.5056 1.17825C27.2454 3.00831 27.0642 4.83207 26.9466 6.61684C25.1347 6.98619 24.1922 6.27162 23.8065 5.8425C23.8058 5.84918 23.805 5.85549 23.8047 5.86217C23.7939 5.97019 23.7891 6.09566 23.7891 6.23672C23.7891 6.3221 23.7905 6.41268 23.7946 6.50882C24.3644 6.96281 25.3541 7.41271 26.915 7.12874C26.8185 8.7487 26.7725 10.333 26.765 11.8572C25.543 12.4244 24.8541 12.0543 24.5252 11.734C24.5675 11.9619 24.6102 12.1931 24.6544 12.427C25.1224 12.6709 25.8099 12.7852 26.7639 12.3981C26.7658 14.691 26.8512 16.8366 26.9752 18.745C26.5304 18.9789 26.2004 18.846 25.9339 18.6529C25.9799 18.8642 26.026 19.0746 26.0716 19.2829C26.3816 19.3942 26.6953 19.3909 27.0104 19.2725C27.2369 22.5068 27.5657 25.004 27.7577 26.2969C27.9099 26.2687 28.0736 26.246 28.2488 26.2301C28.0093 24.6179 27.5513 21.0925 27.3534 16.5898C27.5776 16.7085 27.8668 16.7832 28.2079 16.7345C28.0602 18.1132 27.9696 19.585 27.9696 21.1244C27.9696 22.7589 28.0717 24.4694 28.3145 26.2245C28.3791 26.2189 28.4463 26.2145 28.5142 26.2111C28.509 26.1373 28.5068 26.0634 28.5068 25.9899C28.5068 25.6332 28.5632 25.2835 28.6601 24.9397C28.525 23.6323 28.4659 22.3546 28.4659 21.1204C28.4659 21.1003 28.4659 21.0799 28.4659 21.0599C28.6475 21.2499 28.8891 21.437 29.2043 21.5617C29.5461 21.6968 29.9207 21.7377 30.3249 21.6872C30.4315 21.4979 30.5325 21.31 30.6245 21.1226C30.1612 21.2481 29.7481 21.2417 29.3921 21.1025C28.777 20.8624 28.5127 20.2877 28.476 20.2001C28.525 18.0965 28.7388 16.1365 29.0265 14.3903C29.3925 14.6613 30.0258 14.9687 30.9063 14.8135C30.9274 14.6439 30.9497 14.4713 30.9712 14.2949ZM27.2588 12.3272C27.2588 11.4815 27.2706 10.6159 27.2955 9.73463C27.6563 10.1504 28.2863 10.5806 29.3297 10.5279C29.3123 10.5966 29.2945 10.6649 29.277 10.7343C28.8928 12.2674 28.516 14.1283 28.2662 16.2189C27.7109 16.3674 27.4002 16.0355 27.3274 15.9446C27.284 14.7924 27.2588 13.5818 27.2588 12.3272Z" fill="#CDAE86"/>
<mask id="mask3_1131_23424" style="mask-type:luminance" maskUnits="userSpaceOnUse" x="22" y="0" width="6" height="28">
<path d="M22.5234 27.125H27.9401V0.00258915H22.5234V27.125Z" fill="white"/>
</mask>
<g mask="url(#mask3_1131_23424)">
<path d="M27.645 27.0781C27.1695 25.6052 23.4055 13.7922 22.5391 6.42441C22.5391 2.85375 25.9757 0.0106531 25.9757 0.0106531C25.9757 0.0106531 26.0967 0.0585391 26.3042 0.185864C25.5652 1.17254 24.0376 3.46995 23.8053 5.8624C23.4975 9.03587 27.86 27.0536 27.86 27.0536C27.86 27.0536 27.7779 27.0651 27.645 27.0781Z" fill="#C19969"/>
</g>
<mask id="mask4_1131_23424" style="mask-type:luminance" maskUnits="userSpaceOnUse" x="22" y="28" width="10" height="30">
<path d="M22.5234 57.3125H31.2662V28.9376H22.5234V57.3125Z" fill="white"/>
</mask>
<g mask="url(#mask4_1131_23424)">
<path d="M27.6948 30.0839C27.6948 30.0839 23.4645 43.0228 22.5391 50.8909C22.5391 54.4612 25.9761 57.3047 25.9761 57.3047C25.9761 57.3047 29.1484 56.0481 30.9993 49.2379C31.3905 46.6937 31.1864 44.7448 30.983 43.1056C30.7732 41.4221 30.5639 40.065 30.9993 38.7245C31.4292 37.4019 30.621 36.1075 29.8129 34.7567C29.0055 33.407 28.1989 32.0005 28.6254 30.4518C29.1406 28.5801 28.6941 28.8348 28.2594 29.3304C27.9743 29.6552 27.6948 30.0839 27.6948 30.0839Z" fill="#D8C09F"/>
</g>
<path d="M28.6611 32.3772C28.565 32.0334 28.5078 31.6837 28.5078 31.3274C28.5078 31.2539 28.5104 31.1807 28.5156 31.1072C28.51 31.1811 28.5078 31.255 28.5078 31.3281C28.5078 31.6852 28.5646 32.0349 28.6611 32.3783C28.6611 32.3779 28.6611 32.3775 28.6611 32.3772Z" fill="#A5A7A6"/>
<path d="M30.9712 43.0243C30.9489 42.848 30.9274 42.6754 30.9059 42.5057C30.0254 42.3506 29.3917 42.6579 29.0257 42.9285C28.7388 41.1831 28.5246 39.2224 28.4752 37.1187C28.5123 37.0315 28.7763 36.4565 29.3917 36.2167C29.7481 36.0775 30.1609 36.0716 30.6241 36.1967C30.5321 36.0088 30.4315 35.8206 30.3249 35.6324C29.9207 35.5816 29.5458 35.6224 29.2039 35.7579C28.8887 35.8822 28.6471 36.0693 28.4656 36.259C28.4656 36.239 28.4656 36.2189 28.4656 36.1985C28.4656 34.965 28.525 33.6869 28.6597 32.3795C28.5628 32.0358 28.5064 31.6861 28.5064 31.329C28.5064 31.2555 28.5086 31.182 28.5134 31.1081C28.4459 31.1048 28.3791 31.1003 28.3145 31.0948C28.0713 32.8502 27.9693 34.56 27.9693 36.1948C27.9693 37.7338 28.0598 39.2061 28.2076 40.5844C27.8664 40.5361 27.5776 40.6103 27.353 40.7295C27.5513 36.2267 28.009 32.7014 28.2484 31.0892C28.0732 31.0729 27.9095 31.0506 27.7569 31.022C27.5654 32.3153 27.2365 34.8124 27.0097 38.0468C26.6949 37.9284 26.3816 37.925 26.0716 38.036C26.0256 38.2446 25.9796 38.4547 25.9335 38.6663C26.2008 38.4733 26.5301 38.3404 26.9748 38.5739C26.8508 40.4826 26.7654 42.6282 26.7632 44.9212C25.8096 44.534 25.1224 44.6484 24.654 44.8922C24.6102 45.1257 24.5667 45.3574 24.5248 45.5853C24.8537 45.2646 25.5427 44.8948 26.765 45.4624C26.7725 46.9859 26.8181 48.5702 26.9146 50.1905C25.3537 49.9062 24.3641 50.3564 23.7943 50.8104C23.7905 50.9062 23.7891 50.9971 23.7891 51.0825C23.7891 51.2236 23.7939 51.3491 23.8043 51.4571C23.8047 51.4638 23.8058 51.4701 23.8061 51.4768C24.1922 51.0473 25.1347 50.3331 26.9466 50.7024C27.0639 52.4868 27.245 54.3109 27.5056 56.1406C27.6448 55.997 27.7896 55.8359 27.9392 55.6581C27.6084 53.2263 27.418 50.8089 27.3263 48.4863C27.333 48.4733 27.3389 48.4599 27.343 48.4458C27.3597 48.3909 27.7621 47.1273 29.4619 47.2984C29.8197 48.6322 30.198 49.7944 30.5399 50.7458C30.6253 50.4949 30.7095 50.2336 30.7908 49.9637C30.4512 48.9696 30.0885 47.7869 29.754 46.4502C29.5328 45.5675 29.3145 44.5741 29.1222 43.4909C29.3171 43.2845 29.9278 42.7689 30.9712 43.0243ZM27.2584 44.9917C27.2584 43.7378 27.2836 42.5265 27.3274 41.3747C27.3998 41.2837 27.7109 40.9519 28.2658 41.1003C28.5157 43.191 28.8924 45.0519 29.277 46.585C29.2941 46.6544 29.3115 46.7227 29.3294 46.7913C28.2859 46.7383 27.656 47.1689 27.2955 47.5842C27.2699 46.703 27.2584 45.8377 27.2584 44.9917Z" fill="#CDAE86"/>
<mask id="mask5_1131_23424" style="mask-type:luminance" maskUnits="userSpaceOnUse" x="22" y="30" width="6" height="28">
<path d="M22.5234 57.3125H27.9401V30.173H22.5234V57.3125Z" fill="white"/>
</mask>
<g mask="url(#mask5_1131_23424)">
<path d="M27.6447 30.2368C27.1695 31.7102 23.4055 43.5232 22.5391 50.8909C22.5391 54.4612 25.9761 57.3047 25.9761 57.3047C25.9761 57.3047 26.0967 57.2568 26.3042 57.1295C25.5652 56.1428 24.0373 53.8454 23.8053 51.4529C23.4975 48.2791 27.8596 30.2617 27.8596 30.2617C27.8596 30.2617 27.7779 30.2498 27.6447 30.2368Z" fill="#C19969"/>
</g>
<path d="M17.5 25.4719C17.5 25.4719 21.7136 27.6153 23.0518 27.9902C22.969 28.2493 22.3083 28.2656 22.3083 28.2656C22.3083 28.2656 19.3174 26.7615 17.5 25.4719Z" fill="#6B3639"/>
<mask id="mask6_1131_23424" style="mask-type:luminance" maskUnits="userSpaceOnUse" x="0" y="12" width="28" height="16">
<path d="M0 27.7031H27.6566V12.0232H0V27.7031Z" fill="white"/>
</mask>
<g mask="url(#mask6_1131_23424)">
<path d="M27.5727 26.8574C27.3633 26.8244 23.0673 20.8735 20.4236 18.7907C15.4995 20.4767 10.6745 23.6836 10.6745 23.6836C10.6745 23.6836 1.81781 15.6502 0.165188 12.0796C2.26568e-08 12.3108 0 12.3108 0 12.3108C0 12.3108 3.966 19.1214 10.5754 24.7085C12.4585 23.7497 20.0602 19.7495 20.0602 19.7495C20.0602 19.7495 24.6535 24.661 26.785 27.6641C27.5281 27.3697 27.5727 26.8574 27.5727 26.8574Z" fill="#854848"/>
</g>
<path d="M29.0312 26.7452C29.2339 26.6839 33.3755 18.4947 35.7123 16.0722C39.5862 17.5433 45.3426 21.307 45.3426 21.307C45.3426 21.307 53.0281 12.1459 54.1807 8.38407C54.3759 8.59083 54.3759 8.59083 54.3759 8.59083C54.3759 8.59083 51.3706 15.8766 45.5798 22.3092C43.5838 21.6151 36.2026 16.9727 36.2026 16.9727C36.2026 16.9727 31.6253 24.1727 29.9207 27.4375C29.1445 27.2467 29.0312 26.7452 29.0312 26.7452Z" fill="#854848"/>
<path d="M22.3031 29.0596C21.923 29.1261 20.8984 29.1257 20.8984 29.1257V28.9605C20.8984 28.9605 22.1873 28.6795 22.3031 28.6632C22.1873 28.6465 20.8984 28.3658 20.8984 28.3658V28.2006C20.8984 28.2006 21.923 28.2003 22.3031 28.2663C22.9304 27.6216 25.1781 26.3156 25.1948 28.6632C25.1781 31.0107 22.9304 29.7044 22.3031 29.0596Z" fill="#854848"/>
<path d="M22.9453 29.655C22.9453 29.8929 23.138 30.0859 23.3759 30.0859C23.6135 30.0859 23.8061 29.8929 23.8061 29.655C23.8061 29.417 23.6135 29.224 23.3759 29.224C23.138 29.224 22.9453 29.417 22.9453 29.655Z" fill="#6B3639"/>
<mask id="mask7_1131_23424" style="mask-type:luminance" maskUnits="userSpaceOnUse" x="0" y="29" width="28" height="17">
<path d="M0 45.2812H27.6566V29.6014H0V45.2812Z" fill="white"/>
</mask>
<g mask="url(#mask7_1131_23424)">
<path d="M27.5727 30.464C27.3633 30.497 23.0673 36.4482 20.4236 38.5304C15.4995 36.8443 10.6745 33.6378 10.6745 33.6378C10.6745 33.6378 1.81781 41.6712 0.165188 45.2422C2.26568e-08 45.0102 0 45.0102 0 45.0102C0 45.0102 3.966 38.2003 10.5754 32.6129C12.4585 33.5717 20.0602 37.5719 20.0602 37.5719C20.0602 37.5719 24.6535 32.6604 26.785 29.6573C27.5281 29.9517 27.5727 30.464 27.5727 30.464Z" fill="#6B3639"/>
</g>
<path d="M29.0312 30.5842C29.2343 30.6454 33.3755 38.8347 35.7126 41.2572C39.5862 39.7861 45.3429 36.022 45.3429 36.022C45.3429 36.022 53.0284 45.1835 54.1811 48.9453C54.3763 48.7382 54.3763 48.7382 54.3763 48.7382C54.3763 48.7382 51.371 41.4528 45.5801 35.0201C43.5838 35.7143 36.2026 40.3563 36.2026 40.3563C36.2026 40.3563 31.6256 33.1567 29.921 29.8915C29.1448 30.0827 29.0312 30.5842 29.0312 30.5842Z" fill="#6B3639"/>
<path d="M28.7886 31.1189C25.219 31.0695 25.6404 28.6644 25.6404 28.6644C25.6404 28.6644 25.219 26.2594 28.7886 26.2096C30.6966 26.0856 32.1477 27.8708 32.4261 28.6644C32.1477 29.4577 30.6966 31.2428 28.7886 31.1189Z" fill="#9E6C67"/>
<path d="M32.4263 28.6639C32.4256 28.6631 32.4256 28.662 32.4252 28.6609C32.4248 28.6609 32.4248 28.6605 32.4248 28.6602C32.4241 28.6583 32.4233 28.6561 32.4226 28.6539C32.2155 28.0781 31.4051 26.9972 30.2562 26.4856C31.6416 27.7195 31.9857 28.5852 31.9857 28.5852C31.9857 28.5852 29.5071 30.276 27.5683 29.5318C26.5014 29.1223 25.988 28.358 25.7416 27.7529C25.6469 28.0198 25.6254 28.2656 25.6254 28.4345C25.6254 28.5729 25.6398 28.6594 25.6406 28.6635V28.6639C25.6406 28.6639 25.625 28.7515 25.625 28.894C25.625 29.4969 25.9012 31.0786 28.7884 31.1187C28.8519 31.1228 28.9147 31.125 28.977 31.125C29.1051 31.125 29.2309 31.1165 29.3545 31.1005C29.725 31.0526 30.0732 30.9372 30.3928 30.7787C30.594 30.6788 30.7841 30.5622 30.9615 30.4346C31.2533 30.2248 31.5105 29.9858 31.7262 29.7456C32.084 29.3465 32.3279 28.9438 32.4263 28.6639Z" fill="#854848"/>
<path d="M30.7001 27.7553C30.7001 27.4921 30.4978 27.2107 30.0163 26.9658C28.5029 26.1973 27.1242 27.0857 27.1242 27.0857C26.753 27.2824 26.5938 27.4817 26.5938 27.6696C26.5938 28.1291 27.5448 28.5237 28.6822 28.6644C29.7743 28.7999 30.7004 28.3188 30.7001 27.7553Z" fill="#BA9488"/>
<path d="M24.3996 27.9873C24.3996 27.8748 24.306 27.7697 24.0833 27.7092C23.4675 27.5422 23.0279 27.9747 23.0279 27.9747C22.9214 28.0637 22.875 28.1402 22.875 28.2044C22.875 28.3919 23.2715 28.4739 23.7225 28.4364C24.1085 28.4049 24.3996 28.1851 24.3996 27.9873Z" fill="#A9615F"/>
<path d="M25.1975 28.6575V28.6572C25.1975 28.6575 25.1975 28.6575 25.1975 28.6575ZM25.1975 28.6538C25.1975 28.6534 25.1975 28.6531 25.1975 28.6527C25.1975 28.6531 25.1975 28.6531 25.1975 28.6538ZM25.1975 28.6727C25.1975 28.6727 25.1975 28.6739 25.1975 28.6742C25.1975 28.6735 25.1975 28.6731 25.1975 28.6727ZM25.1972 28.6802C25.1972 28.6805 25.1972 28.6809 25.1972 28.6817C25.1972 28.6813 25.1972 28.6805 25.1972 28.6802ZM25.1972 28.6924C25.1972 28.6928 25.1972 28.6932 25.1972 28.6939C25.1972 28.6932 25.1972 28.6932 25.1972 28.6924ZM25.1968 28.7036C25.1968 28.7043 25.1968 28.7043 25.1968 28.705C25.1968 28.7043 25.1968 28.7039 25.1968 28.7036ZM25.1964 28.7229C25.1964 28.724 25.1964 28.724 25.1964 28.7247C25.1964 28.724 25.1964 28.7236 25.1964 28.7229ZM25.1964 28.7269C25.1964 28.7273 25.1964 28.7273 25.1964 28.7281C25.1964 28.7273 25.1964 28.7269 25.1964 28.7269ZM25.1953 28.76C25.1953 28.7607 25.1953 28.7615 25.1953 28.7618C25.1953 28.7611 25.1953 28.7607 25.1953 28.76ZM25.1953 28.7674C25.1953 28.7678 25.1953 28.7685 25.1953 28.7685C25.1953 28.7681 25.1953 28.7678 25.1953 28.7674ZM25.1949 28.7756C25.1949 28.7763 25.1949 28.7763 25.1949 28.7767C25.1949 28.7767 25.1949 28.7759 25.1949 28.7756ZM25.1949 28.7793C25.1949 28.7797 25.1946 28.7804 25.1946 28.7808C25.1946 28.7804 25.1946 28.7797 25.1949 28.7793ZM25.1946 28.7822C25.1946 28.783 25.1946 28.7837 25.1946 28.7848C25.1946 28.7837 25.1946 28.7834 25.1946 28.7822ZM25.1942 28.7893C25.1942 28.79 25.1942 28.7908 25.1942 28.7915C25.1942 28.7904 25.1942 28.79 25.1942 28.7893ZM25.1938 28.7934C25.1938 28.7938 25.1938 28.7941 25.1938 28.7949C25.1938 28.7941 25.1938 28.7934 25.1938 28.7934ZM25.1938 28.7967C25.1938 28.7975 25.1938 28.7978 25.1938 28.7982C25.1938 28.7978 25.1938 28.7971 25.1938 28.7967ZM25.1938 28.8016C25.1938 28.8023 25.1938 28.803 25.1938 28.8034C25.1938 28.8027 25.1938 28.8023 25.1938 28.8016ZM25.1934 28.8086C25.1931 28.809 25.1931 28.8097 25.1931 28.8101C25.1931 28.8097 25.1934 28.809 25.1934 28.8086ZM25.1905 28.8591L25.1901 28.8598C25.1901 28.8595 25.1905 28.8595 25.1905 28.8591ZM25.1886 28.8873C25.1886 28.8877 25.1886 28.888 25.1886 28.888C25.1886 28.8877 25.1886 28.8877 25.1886 28.8873ZM25.1879 28.8944V28.8947C25.1879 28.8947 25.1879 28.8947 25.1879 28.8944Z" fill="#311A1B"/>
<path d="M25.1948 28.6639C25.1948 28.6628 25.1948 28.6609 25.1948 28.6598C25.1948 28.6594 25.1948 28.6594 25.1948 28.6594C25.1948 28.6583 25.1948 28.6572 25.1948 28.6561C25.1948 28.6557 25.1948 28.6557 25.1948 28.655C25.1948 28.6538 25.1948 28.6527 25.1948 28.6512C25.187 27.9463 24.9762 27.5751 24.6692 27.4166C24.7323 27.6508 24.8013 27.976 24.8013 28.2778C24.8013 28.6305 24.7078 28.9516 24.4015 29.0603C23.6112 29.3424 22.3031 28.6639 22.3031 28.6639C22.1873 28.6802 20.8984 28.9612 20.8984 28.9612V29.1264C20.8984 29.1264 21.923 29.1268 22.3031 29.0603C22.3035 29.0611 22.3038 29.0618 22.3046 29.0622C22.3046 29.0622 22.3046 29.0622 22.3049 29.0622C22.3053 29.0629 22.3057 29.0637 22.3064 29.064C22.4516 29.2125 22.6817 29.3948 22.9505 29.5596C22.9954 29.3695 23.1662 29.2281 23.3696 29.2281C23.6075 29.2281 23.8002 29.4208 23.8002 29.6587C23.8002 29.7563 23.7683 29.8458 23.7137 29.9178C24.4101 30.1365 25.0938 30.0143 25.1844 28.9003C25.1844 28.9003 25.1844 28.9 25.1844 28.8996C25.1844 28.8992 25.1848 28.8977 25.1848 28.897V28.8966C25.1848 28.8955 25.1852 28.8948 25.1852 28.8936C25.1852 28.8933 25.1852 28.8933 25.1852 28.8929C25.1852 28.8925 25.1855 28.891 25.1855 28.8899C25.1855 28.8899 25.1855 28.8899 25.1855 28.8896C25.1855 28.8885 25.1859 28.8873 25.1859 28.8862C25.1859 28.8829 25.1859 28.8792 25.1863 28.8758C25.1863 28.8747 25.1863 28.8736 25.1866 28.8725C25.1866 28.8721 25.1866 28.8717 25.1866 28.8717C25.1866 28.871 25.1866 28.8699 25.187 28.8688C25.187 28.8688 25.187 28.8688 25.187 28.8684C25.187 28.8673 25.187 28.8665 25.1874 28.8654C25.1874 28.8654 25.1874 28.8651 25.1874 28.8647C25.1874 28.864 25.1874 28.8625 25.1874 28.8621L25.1878 28.8614C25.1878 28.8606 25.1878 28.8599 25.1878 28.8588C25.1878 28.8584 25.1878 28.858 25.1878 28.8576C25.1878 28.8554 25.1878 28.8536 25.1878 28.8513C25.1878 28.8506 25.1878 28.8502 25.1878 28.8502C25.1881 28.8491 25.1881 28.8484 25.1881 28.8476C25.1881 28.8472 25.1881 28.8469 25.1881 28.8465C25.1881 28.8458 25.1881 28.845 25.1885 28.8446C25.1885 28.8439 25.1885 28.8432 25.1885 28.8428C25.1885 28.842 25.1885 28.8413 25.1885 28.8409C25.1885 28.8406 25.1889 28.8398 25.1889 28.8395C25.1889 28.8387 25.1889 28.8383 25.1889 28.8376C25.1889 28.8369 25.1889 28.8369 25.1889 28.8365C25.1892 28.8354 25.1892 28.8343 25.1892 28.8339C25.1892 28.8335 25.1892 28.8331 25.1892 28.8328C25.1892 28.8317 25.1896 28.8309 25.1896 28.8298C25.1896 28.8294 25.1896 28.8294 25.1896 28.8291C25.1896 28.8276 25.1896 28.8272 25.1896 28.8257C25.1896 28.8257 25.1896 28.8253 25.1896 28.825C25.1896 28.8242 25.1896 28.8231 25.1896 28.822C25.1896 28.822 25.19 28.8216 25.19 28.8209C25.19 28.8201 25.19 28.8198 25.19 28.819C25.19 28.8187 25.19 28.8179 25.19 28.8175C25.19 28.8172 25.1904 28.8164 25.1904 28.8157C25.1904 28.8153 25.1904 28.8146 25.1904 28.8138C25.1904 28.8135 25.1904 28.8131 25.1904 28.8124C25.1904 28.8116 25.1904 28.8112 25.1907 28.8105C25.1907 28.8101 25.1907 28.8094 25.1907 28.8086C25.1907 28.8083 25.1907 28.8079 25.1907 28.8068C25.1907 28.8064 25.1907 28.806 25.1907 28.8057C25.1907 28.8049 25.1907 28.8042 25.1907 28.8038C25.1907 28.8027 25.1907 28.8012 25.1907 28.8005C25.1911 28.7997 25.1911 28.7994 25.1911 28.799C25.1911 28.7982 25.1911 28.7975 25.1911 28.7968C25.1911 28.7964 25.1911 28.796 25.1911 28.7956C25.1911 28.7945 25.1911 28.7942 25.1911 28.7938C25.1911 28.793 25.1911 28.7923 25.1911 28.7919C25.1911 28.7912 25.1911 28.7908 25.1911 28.7897C25.1911 28.789 25.1911 28.789 25.1915 28.7882C25.1915 28.7875 25.1915 28.7871 25.1915 28.7871C25.1915 28.786 25.1915 28.7853 25.1915 28.7849C25.1915 28.7841 25.1915 28.7838 25.1915 28.783C25.1915 28.7827 25.1918 28.7819 25.1918 28.7815C25.1918 28.7804 25.1918 28.7801 25.1918 28.7789C25.1918 28.7782 25.1918 28.7782 25.1918 28.7778C25.1918 28.7767 25.1918 28.7756 25.1922 28.7745C25.1922 28.7741 25.1922 28.7741 25.1922 28.7737C25.1922 28.773 25.1922 28.7719 25.1922 28.7708V28.7697C25.1922 28.7685 25.1922 28.7682 25.1926 28.7674C25.1926 28.7667 25.1926 28.766 25.1926 28.7656C25.1926 28.7652 25.1926 28.7645 25.1926 28.7641C25.1926 28.7634 25.1926 28.7626 25.1926 28.7622C25.1926 28.7615 25.1926 28.7611 25.193 28.7608C25.193 28.76 25.193 28.7593 25.193 28.7589C25.193 28.7582 25.193 28.7574 25.193 28.757C25.193 28.7567 25.193 28.7556 25.193 28.7548C25.193 28.7544 25.193 28.7541 25.193 28.7541C25.193 28.753 25.193 28.7522 25.193 28.7518C25.193 28.7515 25.193 28.7507 25.193 28.7504C25.193 28.7492 25.193 28.7478 25.193 28.7466C25.193 28.7459 25.193 28.7452 25.193 28.7444C25.193 28.744 25.193 28.7433 25.193 28.7426C25.193 28.7422 25.193 28.7418 25.193 28.7415C25.193 28.7403 25.193 28.74 25.193 28.7392C25.193 28.7385 25.193 28.7381 25.193 28.7377C25.193 28.737 25.193 28.7363 25.193 28.7359C25.193 28.7351 25.193 28.7348 25.1933 28.734C25.1933 28.7333 25.1933 28.7329 25.1933 28.7325C25.1933 28.7314 25.1933 28.7311 25.1933 28.7303C25.1933 28.7296 25.1933 28.7292 25.1933 28.7288C25.1933 28.7281 25.1933 28.7277 25.1933 28.727C25.1933 28.7262 25.1933 28.7259 25.1933 28.7251C25.1933 28.724 25.1937 28.7236 25.1937 28.7229C25.1937 28.7221 25.1937 28.7221 25.1937 28.7214C25.1937 28.7207 25.1937 28.7188 25.1937 28.7181C25.1937 28.7177 25.1937 28.7173 25.1937 28.717C25.1937 28.7166 25.1937 28.7151 25.1937 28.7144C25.1937 28.714 25.1937 28.7136 25.1937 28.7129C25.1937 28.7125 25.1941 28.7118 25.1941 28.711C25.1941 28.7099 25.1941 28.7099 25.1941 28.7092C25.1941 28.7084 25.1941 28.7077 25.1941 28.7073C25.1941 28.7066 25.1941 28.7066 25.1941 28.7058C25.1941 28.7051 25.1941 28.7043 25.1941 28.7036C25.1941 28.7028 25.1941 28.7028 25.1941 28.7017C25.1941 28.7014 25.1941 28.7006 25.1941 28.6999C25.1941 28.6995 25.1941 28.6991 25.1941 28.698C25.1941 28.6976 25.1944 28.6969 25.1944 28.6958C25.1944 28.6954 25.1944 28.6951 25.1944 28.6947C25.1944 28.6925 25.1944 28.6899 25.1944 28.6873C25.1944 28.6873 25.1944 28.6865 25.1944 28.6861C25.1944 28.6858 25.1944 28.6847 25.1944 28.6839C25.1944 28.6832 25.1944 28.6828 25.1944 28.6821C25.1944 28.6817 25.1944 28.6809 25.1944 28.6802C25.1944 28.6795 25.1944 28.6791 25.1944 28.6787C25.1944 28.678 25.1944 28.6769 25.1948 28.6765C25.1948 28.6761 25.1948 28.675 25.1948 28.6746C25.1948 28.6743 25.1948 28.6735 25.1948 28.6728C25.1948 28.672 25.1948 28.6717 25.1948 28.6713C25.1948 28.6702 25.1948 28.6698 25.1948 28.6687C25.1948 28.6683 25.1948 28.668 25.1948 28.6676C25.1948 28.6661 25.1948 28.6646 25.1948 28.6639Z" fill="#633032"/>
<path d="M23.8061 29.655C23.8061 29.417 23.6135 29.224 23.3759 29.224C23.1721 29.224 23.0014 29.3658 22.9564 29.5562C22.9568 29.5566 22.9572 29.5566 22.9576 29.5566C22.9505 29.5878 22.9453 29.6193 22.9453 29.6531C22.9453 29.6535 22.9453 29.6542 22.9453 29.655C22.9453 29.8929 23.138 30.0859 23.3759 30.0859C23.3763 30.0859 23.3774 30.0859 23.3785 30.0859C23.3796 30.0859 23.3804 30.0859 23.3807 30.0859C23.3811 30.0859 23.3815 30.0859 23.3822 30.0859C23.3822 30.0859 23.383 30.0859 23.3833 30.0859C23.3837 30.0859 23.3848 30.0859 23.3856 30.0859C23.3856 30.0859 23.3856 30.0859 23.3859 30.0859C23.5222 30.0822 23.6413 30.0154 23.7182 29.9141C23.7185 29.9141 23.7193 29.9141 23.7197 29.9141C23.7742 29.8421 23.8061 29.7522 23.8061 29.655Z" fill="#462425"/>
<path d="M44.5576 27.7499C44.5576 27.5746 43.8449 27.3939 41.8641 27.2576C41.1206 27.2372 40.7735 27.2394 40.7735 27.2394C40.7735 27.2394 36.7808 27.3285 36.0065 27.6801C35.933 27.7131 35.8984 27.7465 35.8984 27.7792C35.8984 28.0914 39.0062 28.3627 41.0026 28.3512C42.4031 28.343 44.5576 28.0546 44.5576 27.7499Z" fill="#A9615F"/>
<path d="M22.9453 27.6706C22.9453 27.433 23.138 27.24 23.3759 27.24C23.6135 27.24 23.8061 27.433 23.8061 27.6706C23.8061 27.9089 23.6135 28.1016 23.3759 28.1016C23.138 28.1016 22.9453 27.9089 22.9453 27.6706Z" fill="#6B3639"/>
</svg>
