<svg width="26" height="26" viewBox="0 0 26 26" fill="none" xmlns="http://www.w3.org/2000/svg">
<circle cx="12.9472" cy="12.9472" r="11.9472" fill="#DFE9FD" stroke="#F47D61" stroke-width="2"/>
<mask id="mask0_1192_52789" style="mask-type:luminance" maskUnits="userSpaceOnUse" x="13" y="4" width="2" height="2">
<path d="M13.2082 4H14.8572V5.9198H13.2082V4Z" fill="white"/>
</mask>
<g mask="url(#mask0_1192_52789)">
<mask id="mask1_1192_52789" style="mask-type:luminance" maskUnits="userSpaceOnUse" x="4" y="3" width="20" height="21">
<path d="M13.1991 3.26746L23.0923 8.56738L14.8374 23.9767L4.94409 18.6768L13.1991 3.26746Z" fill="white"/>
</mask>
<g mask="url(#mask1_1192_52789)">
<mask id="mask2_1192_52789" style="mask-type:luminance" maskUnits="userSpaceOnUse" x="4" y="3" width="20" height="21">
<path d="M23.0978 8.57446L13.2045 3.27454L4.94958 18.684L14.8428 23.9839L23.0978 8.57446Z" fill="white"/>
</mask>
<g mask="url(#mask2_1192_52789)">
<mask id="mask3_1192_52789" style="mask-type:luminance" maskUnits="userSpaceOnUse" x="4" y="3" width="20" height="21">
<path d="M23.0982 8.56738L13.2049 3.26746L4.95001 18.6769L14.8432 23.9768L23.0982 8.56738Z" fill="white"/>
</mask>
<g mask="url(#mask3_1192_52789)">
<path d="M14.8129 4.14019L14.8196 4.42843L14.8193 4.42074C14.5836 4.41324 14.3781 4.58822 14.3522 4.82666C14.3252 5.07663 14.506 5.30122 14.7557 5.32805C14.7842 5.33112 14.8122 5.33112 14.84 5.32901L14.8527 5.89924L13.2203 5.7232L13.6361 4.01318L14.8129 4.14019Z" fill="#F9E6E0"/>
</g>
</g>
</g>
</g>
<mask id="mask4_1192_52789" style="mask-type:luminance" maskUnits="userSpaceOnUse" x="14" y="4" width="1" height="2">
<path d="M14.3663 4.44495H14.8339V5.30639H14.3663V4.44495Z" fill="white"/>
</mask>
<g mask="url(#mask4_1192_52789)">
<mask id="mask5_1192_52789" style="mask-type:luminance" maskUnits="userSpaceOnUse" x="4" y="3" width="20" height="21">
<path d="M13.2013 3.26868L23.0945 8.56861L14.8396 23.978L4.94629 18.678L13.2013 3.26868Z" fill="white"/>
</mask>
<g mask="url(#mask5_1192_52789)">
<mask id="mask6_1192_52789" style="mask-type:luminance" maskUnits="userSpaceOnUse" x="4" y="3" width="20" height="21">
<path d="M23.0964 8.57569L13.2032 3.27576L4.94824 18.6852L14.8414 23.9851L23.0964 8.57569Z" fill="white"/>
</mask>
<g mask="url(#mask6_1192_52789)">
<mask id="mask7_1192_52789" style="mask-type:luminance" maskUnits="userSpaceOnUse" x="4" y="3" width="20" height="21">
<path d="M23.0963 8.5686L13.203 3.26868L4.94812 18.6781L14.8413 23.9781L23.0963 8.5686Z" fill="white"/>
</mask>
<g mask="url(#mask7_1192_52789)">
<path d="M14.8072 4.46444L14.8088 4.5253C14.6249 4.51751 14.464 4.65365 14.4438 4.8393C14.4229 5.03294 14.5626 5.20657 14.756 5.22753C14.7772 5.22984 14.798 5.22974 14.8187 5.2284L14.825 5.24522L14.826 5.28868C14.8011 5.2907 14.7754 5.2906 14.7496 5.28782C14.5229 5.26349 14.359 5.05967 14.3835 4.83286C14.4071 4.61644 14.5934 4.45771 14.8072 4.46444Z" fill="#578FFE"/>
</g>
</g>
</g>
</g>
<mask id="mask8_1192_52789" style="mask-type:luminance" maskUnits="userSpaceOnUse" x="12" y="6" width="4" height="1">
<path d="M12.7913 6.21606H15.2034V6.75755H12.7913V6.21606Z" fill="white"/>
</mask>
<g mask="url(#mask8_1192_52789)">
<mask id="mask9_1192_52789" style="mask-type:luminance" maskUnits="userSpaceOnUse" x="4" y="3" width="20" height="21">
<path d="M13.2004 3.2666L23.0936 8.56653L14.8387 23.9759L4.94543 18.676L13.2004 3.2666Z" fill="white"/>
</mask>
<g mask="url(#mask9_1192_52789)">
<mask id="mask10_1192_52789" style="mask-type:luminance" maskUnits="userSpaceOnUse" x="4" y="3" width="20" height="21">
<path d="M23.0983 8.55725L13.205 3.25732L4.95007 18.6668L14.8433 23.9667L23.0983 8.55725Z" fill="white"/>
</mask>
<g mask="url(#mask10_1192_52789)">
<mask id="mask11_1192_52789" style="mask-type:luminance" maskUnits="userSpaceOnUse" x="4" y="3" width="20" height="21">
<path d="M23.0987 8.55762L13.2054 3.25769L4.9505 18.6671L14.8437 23.9671L23.0987 8.55762Z" fill="white"/>
</mask>
<g mask="url(#mask11_1192_52789)">
<path d="M12.8059 6.34871C12.796 6.44062 12.9368 6.53119 13.1204 6.5509L14.8314 6.73559C15.015 6.75521 15.172 6.69694 15.1818 6.60493C15.1918 6.51302 15.0511 6.42265 14.8673 6.40274L13.1565 6.21824C12.9727 6.19834 12.8159 6.2568 12.8059 6.34871Z" fill="#FF0082"/>
</g>
</g>
</g>
</g>
<mask id="mask12_1192_52789" style="mask-type:luminance" maskUnits="userSpaceOnUse" x="9" y="19" width="8" height="3">
<path d="M9 19.78H16.2362V21.8229H9V19.78Z" fill="white"/>
</mask>
<g mask="url(#mask12_1192_52789)">
<mask id="mask13_1192_52789" style="mask-type:luminance" maskUnits="userSpaceOnUse" x="4" y="3" width="20" height="21">
<path d="M13.1989 3.28198L23.0921 8.58191L14.8372 23.9913L4.94391 18.6913L13.1989 3.28198Z" fill="white"/>
</mask>
<g mask="url(#mask13_1192_52789)">
<mask id="mask14_1192_52789" style="mask-type:luminance" maskUnits="userSpaceOnUse" x="4" y="3" width="20" height="21">
<path d="M23.0935 8.58508L13.2002 3.28516L4.94531 18.6946L14.8385 23.9945L23.0935 8.58508Z" fill="white"/>
</mask>
<g mask="url(#mask14_1192_52789)">
<mask id="mask15_1192_52789" style="mask-type:luminance" maskUnits="userSpaceOnUse" x="4" y="3" width="20" height="21">
<path d="M23.0949 8.58472L13.2016 3.28479L4.94672 18.6942L14.8399 23.9942L23.0949 8.58472Z" fill="white"/>
</mask>
<g mask="url(#mask15_1192_52789)">
<path d="M9.3227 19.8207C9.29953 19.8549 9.2853 19.8906 9.28107 19.9282C9.23108 20.3888 10.6934 20.9242 12.5468 21.1242C14.4003 21.3239 15.9433 21.1125 15.9933 20.652C15.9962 20.624 15.9935 20.5958 15.9857 20.5675C16.1678 20.7501 16.2524 20.941 16.2116 21.1302C16.1017 21.6391 14.489 21.9799 12.501 21.7656C10.513 21.5513 9.03629 20.8739 9.01245 20.3539C9.00187 20.1263 9.10677 19.9442 9.29646 19.802L9.3227 19.8207Z" fill="#FF0082"/>
</g>
</g>
</g>
</g>
<mask id="mask16_1192_52789" style="mask-type:luminance" maskUnits="userSpaceOnUse" x="10" y="7" width="8" height="3">
<path d="M10.6503 7.61829H17.0004V9.41502H10.6503V7.61829Z" fill="white"/>
</mask>
<g mask="url(#mask16_1192_52789)">
<mask id="mask17_1192_52789" style="mask-type:luminance" maskUnits="userSpaceOnUse" x="4" y="3" width="20" height="21">
<path d="M13.1992 3.2583L23.0924 8.55823L14.8374 23.9676L4.94415 18.6677L13.1992 3.2583Z" fill="white"/>
</mask>
<g mask="url(#mask17_1192_52789)">
<mask id="mask18_1192_52789" style="mask-type:luminance" maskUnits="userSpaceOnUse" x="4" y="3" width="20" height="21">
<path d="M23.0958 8.56323L13.2025 3.26331L4.94763 18.6728L14.8408 23.9727L23.0958 8.56323Z" fill="white"/>
</mask>
<g mask="url(#mask18_1192_52789)">
<mask id="mask19_1192_52789" style="mask-type:luminance" maskUnits="userSpaceOnUse" x="4" y="3" width="20" height="21">
<path d="M23.0957 8.55762L13.2024 3.25769L4.94751 18.6671L14.8407 23.9671L23.0957 8.55762Z" fill="white"/>
</mask>
<g mask="url(#mask19_1192_52789)">
<path d="M16.7588 9.29075C16.8025 8.88695 15.5208 8.41777 13.8957 8.24221C12.2708 8.06713 10.9182 8.2524 10.8743 8.6562C10.8737 8.6637 10.867 8.71697 10.867 8.71697C10.7167 8.56093 10.6483 8.39815 10.683 8.23692C10.7791 7.79062 12.1933 7.492 13.9358 7.67977C15.6789 7.86782 16.9735 8.4617 16.9945 8.91743C17.0037 9.11712 16.9121 9.27691 16.7456 9.4018C16.7456 9.4018 16.7577 9.30056 16.7588 9.29075Z" fill="#FF0082"/>
</g>
</g>
</g>
</g>
<mask id="mask20_1192_52789" style="mask-type:luminance" maskUnits="userSpaceOnUse" x="9" y="8" width="8" height="13">
<path d="M9.68903 8.48035H16.7283V20.7375H9.68903V8.48035Z" fill="white"/>
</mask>
<g mask="url(#mask20_1192_52789)">
<mask id="mask21_1192_52789" style="mask-type:luminance" maskUnits="userSpaceOnUse" x="4" y="3" width="20" height="21">
<path d="M13.1984 3.26733L23.0916 8.56726L14.8367 23.9766L4.94342 18.6767L13.1984 3.26733Z" fill="white"/>
</mask>
<g mask="url(#mask21_1192_52789)">
<mask id="mask22_1192_52789" style="mask-type:luminance" maskUnits="userSpaceOnUse" x="4" y="3" width="20" height="21">
<path d="M23.093 8.57434L13.1997 3.27441L4.94482 18.6839L14.838 23.9838L23.093 8.57434Z" fill="white"/>
</mask>
<g mask="url(#mask22_1192_52789)">
<mask id="mask23_1192_52789" style="mask-type:luminance" maskUnits="userSpaceOnUse" x="4" y="3" width="20" height="21">
<path d="M23.0944 8.57544L13.2011 3.27551L4.94623 18.685L14.8394 23.9849L23.0944 8.57544Z" fill="white"/>
</mask>
<g mask="url(#mask23_1192_52789)">
<path d="M10.8423 8.9695C10.886 8.56589 12.2388 8.38043 13.8637 8.5557C15.477 8.72972 16.7512 9.19352 16.7268 9.5953L16.7164 9.69154C16.7147 9.7051 16.7135 9.7151 16.7135 9.7151L16.7138 9.71481L15.5737 20.2375C15.5299 20.6413 14.1771 20.8267 12.5523 20.6515C10.9274 20.4762 9.64548 20.0069 9.68913 19.603L10.8351 9.02719C10.8366 9.01594 10.8416 8.97604 10.8423 8.9695Z" fill="#EEB4A3"/>
</g>
</g>
</g>
</g>
<mask id="mask24_1192_52789" style="mask-type:luminance" maskUnits="userSpaceOnUse" x="14" y="4" width="1" height="2">
<path d="M14.4894 4.56787H14.8094V5.18319H14.4894V4.56787Z" fill="white"/>
</mask>
<g mask="url(#mask24_1192_52789)">
<mask id="mask25_1192_52789" style="mask-type:luminance" maskUnits="userSpaceOnUse" x="4" y="3" width="20" height="21">
<path d="M13.1993 3.26794L23.0925 8.56787L14.8376 23.9772L4.94427 18.6773L13.1993 3.26794Z" fill="white"/>
</mask>
<g mask="url(#mask25_1192_52789)">
<mask id="mask26_1192_52789" style="mask-type:luminance" maskUnits="userSpaceOnUse" x="4" y="3" width="20" height="21">
<path d="M23.0939 8.57495L13.2006 3.27502L4.94568 18.6845L14.8389 23.9844L23.0939 8.57495Z" fill="white"/>
</mask>
<g mask="url(#mask26_1192_52789)">
<mask id="mask27_1192_52789" style="mask-type:luminance" maskUnits="userSpaceOnUse" x="4" y="3" width="20" height="21">
<path d="M23.0953 8.57605L13.202 3.27612L4.94708 18.6856L14.8403 23.9855L23.0953 8.57605Z" fill="white"/>
</mask>
<g mask="url(#mask27_1192_52789)">
<path d="M14.5057 4.98257C14.5855 4.85806 14.5164 4.76259 14.5164 4.76259C14.5126 4.75528 14.5087 4.75634 14.5051 4.76192C14.5521 4.64799 14.6667 4.57203 14.7942 4.57742L14.7344 4.78249C14.6917 4.87585 14.7179 4.94892 14.7179 4.94892L14.8026 5.17534C14.7852 5.17668 14.7674 5.17659 14.7494 5.17466C14.6251 5.1613 14.527 5.07352 14.494 4.96036C14.5001 4.97478 14.5057 4.98257 14.5057 4.98257Z" fill="#578FFE"/>
</g>
</g>
</g>
</g>
<mask id="mask28_1192_52789" style="mask-type:luminance" maskUnits="userSpaceOnUse" x="11" y="6" width="6" height="3">
<path d="M11.5104 6.61328H16.2115V8.09005H11.5104V6.61328Z" fill="white"/>
</mask>
<g mask="url(#mask28_1192_52789)">
<mask id="mask29_1192_52789" style="mask-type:luminance" maskUnits="userSpaceOnUse" x="4" y="3" width="20" height="21">
<path d="M13.2012 3.26868L23.0944 8.56861L14.8395 23.978L4.94617 18.678L13.2012 3.26868Z" fill="white"/>
</mask>
<g mask="url(#mask29_1192_52789)">
<mask id="mask30_1192_52789" style="mask-type:luminance" maskUnits="userSpaceOnUse" x="4" y="3" width="20" height="21">
<path d="M23.0983 8.55933L13.205 3.2594L4.95013 18.6688L14.8433 23.9688L23.0983 8.55933Z" fill="white"/>
</mask>
<g mask="url(#mask30_1192_52789)">
<mask id="mask31_1192_52789" style="mask-type:luminance" maskUnits="userSpaceOnUse" x="4" y="3" width="20" height="21">
<path d="M23.0988 8.55615L13.2055 3.25623L4.95056 18.6657L14.8438 23.9656L23.0988 8.55615Z" fill="white"/>
</mask>
<g mask="url(#mask31_1192_52789)">
<path d="M12.9278 6.63495C12.9278 6.63495 12.9386 6.62677 12.9585 6.61389C13.0036 6.63139 13.0557 6.64408 13.1122 6.65023L14.8231 6.83473C14.8981 6.84281 14.9687 6.83762 15.0266 6.82262C15.61 7.21075 15.9825 7.68484 16.2093 8.0648C15.6603 7.8178 14.8618 7.60388 13.937 7.50428C12.9744 7.40054 12.1126 7.44525 11.5172 7.58119C12.1665 6.94347 12.9278 6.63495 12.9278 6.63495Z" fill="#578FFE"/>
</g>
</g>
</g>
</g>
<mask id="mask32_1192_52789" style="mask-type:luminance" maskUnits="userSpaceOnUse" x="13" y="5" width="2" height="2">
<path d="M13.5526 5.89465H14.4632V6.26385H13.5526V5.89465Z" fill="white"/>
</mask>
<g mask="url(#mask32_1192_52789)">
<mask id="mask33_1192_52789" style="mask-type:luminance" maskUnits="userSpaceOnUse" x="4" y="3" width="20" height="21">
<path d="M13.1967 3.2594L23.0899 8.55933L14.8349 23.9687L4.94165 18.6688L13.1967 3.2594Z" fill="white"/>
</mask>
<g mask="url(#mask33_1192_52789)">
<mask id="mask34_1192_52789" style="mask-type:luminance" maskUnits="userSpaceOnUse" x="4" y="3" width="20" height="21">
<path d="M23.0936 8.55615L13.2003 3.25623L4.94543 18.6657L14.8386 23.9656L23.0936 8.55615Z" fill="white"/>
</mask>
<g mask="url(#mask34_1192_52789)">
<mask id="mask35_1192_52789" style="mask-type:luminance" maskUnits="userSpaceOnUse" x="4" y="3" width="20" height="21">
<path d="M23.0956 8.55652L13.2023 3.25659L4.94739 18.666L14.8406 23.966L23.0956 8.55652Z" fill="white"/>
</mask>
<g mask="url(#mask35_1192_52789)">
<path d="M14.4478 5.97767L14.4195 6.2387L13.5591 6.14592L13.5874 5.88489L14.4478 5.97767Z" fill="#F47D61"/>
</g>
</g>
</g>
</g>
</svg>
