<svg width="79" height="71" viewBox="0 0 79 71" fill="none" xmlns="http://www.w3.org/2000/svg">
<path fill-rule="evenodd" clip-rule="evenodd" d="M52.7525 16.8723C56.8343 15.6381 71.9239 23.2044 65.1014 37.5172C58.2788 51.8308 63.6554 50.7622 63.8094 51.8065C63.9638 52.851 60.9029 51.8226 60.2611 48.9738C58.6815 41.9652 66.2149 34.0003 63.7468 27.885C61.2594 21.7221 53.9766 20.7064 53.9766 20.7064L52.7528 16.8722L52.7525 16.8723Z" fill="#B8978E"/>
<mask id="mask0_1131_34331" style="mask-type:luminance" maskUnits="userSpaceOnUse" x="44" y="9" width="35" height="46">
<path d="M58.7852 54.9219L78.0519 47.5338L63.3226 9.12249L44.0559 16.5106L58.7852 54.9219Z" fill="white"/>
</mask>
<g mask="url(#mask0_1131_34331)">
<path d="M52.7517 16.8726C56.8335 15.6385 71.9231 23.2047 65.1005 37.5176C58.278 51.8311 63.6546 50.7625 63.8086 51.8068C63.963 52.8513 60.9021 51.823 60.2603 48.9742C58.6807 41.9656 66.2141 34.0006 63.746 27.8853C61.2586 21.7225 53.9758 20.7067 53.9758 20.7067L52.752 16.8725L52.7517 16.8726Z" stroke="black"/>
</g>
<path fill-rule="evenodd" clip-rule="evenodd" d="M64.9179 27.4309C65.993 30.348 65.9045 33.9845 63.6486 38.2962C61.5712 42.2662 60.5501 44.9943 60.1414 46.8961L59.7891 47.0312C60.3242 40.4589 66.0335 33.4092 63.7889 27.8524C61.171 21.3697 53.424 20.3361 53.424 20.3361L52.9275 18.7864C56.3751 18.8075 62.8323 21.7715 64.9179 27.4309Z" fill="black" fill-opacity="0.3137"/>
<path d="M31.5395 12.2862C21.6439 16.0808 6.47394 30.9487 8.50139 36.236C10.5858 41.6718 31.7513 42.4363 41.6459 38.6421C51.5409 34.8478 57.3074 25.8645 54.5181 18.5903C51.7287 11.3161 41.4338 8.49215 31.5395 12.2862Z" fill="#673A2E"/>
<mask id="mask1_1131_34331" style="mask-type:luminance" maskUnits="userSpaceOnUse" x="0" y="2" width="65" height="52">
<path d="M12.8281 53.4141L64.0876 33.758L52.2564 2.90451L0.996979 22.5606L12.8281 53.4141Z" fill="white"/>
</mask>
<g mask="url(#mask1_1131_34331)">
<path d="M31.5384 12.2913C21.6428 16.0858 6.47287 30.9538 8.50033 36.241C10.5848 41.6769 31.7503 42.4414 41.6449 38.6472C51.5398 34.8528 57.3064 25.8695 54.517 18.5953C51.7276 11.3212 41.4327 8.49717 31.5384 12.2913Z" stroke="black" stroke-linecap="round"/>
</g>
<path d="M33.5719 11.7178C33.0686 11.8741 32.5672 12.0478 32.0656 12.2401C22.477 15.917 7.89711 30.651 9.94614 35.9945C11.8673 41.0047 29.2009 42.3321 39.5095 39.7365C29.4563 42.8353 10.5611 41.6254 8.55035 36.3817C6.50132 31.0382 21.0806 16.3044 30.6698 12.6273C31.6352 12.2571 32.6043 11.9554 33.5716 11.7179L33.5719 11.7178Z" fill="black" fill-opacity="0.3137"/>
<path d="M17.0033 22.6377C16.2007 19.6879 17.803 16.5275 20.7867 15.3833C23.9623 14.1656 27.5055 15.6939 28.6944 18.7942C29.8834 21.8948 28.2702 25.4 25.0946 26.6177C24.8714 26.7034 24.6444 26.7758 24.4183 26.8346" fill="#673A2E"/>
<mask id="mask2_1131_34331" style="mask-type:luminance" maskUnits="userSpaceOnUse" x="11" y="11" width="25" height="23">
<path d="M17.3516 33.3281L35.3445 26.4285L29.6497 11.5776L11.6568 18.4772L17.3516 33.3281Z" fill="white"/>
</mask>
<g mask="url(#mask2_1131_34331)">
<path d="M17.0026 22.6404C16.2 19.6905 17.8023 16.5301 20.786 15.386C23.9615 14.1683 27.5048 15.6966 28.6937 18.7969C29.8826 21.8975 28.2695 25.4027 25.0939 26.6204C24.8706 26.706 24.6437 26.7784 24.4176 26.8373" stroke="black" stroke-linecap="round"/>
</g>
<path d="M26.9786 32.8175C27.2047 32.6973 27.4415 32.5894 27.6866 32.4954C30.8557 31.2802 34.3917 32.8062 35.5806 35.9069C36.7694 39.0069 35.1618 42.5099 31.9928 43.7251C28.9419 44.895 25.5516 43.5228 24.2419 40.6526" fill="#673A2E"/>
<path d="M26.9786 32.8175C27.2047 32.6973 27.4415 32.5894 27.6866 32.4954C30.8557 31.2802 34.3917 32.8062 35.5806 35.9069C36.7694 39.0069 35.1618 42.5099 31.9928 43.7251C28.9419 44.895 25.5516 43.5228 24.2419 40.6526" stroke="black" stroke-linecap="round"/>
<path d="M10.929 33.3702C10.0588 33.7039 9.41658 35.1455 9.6217 35.6804C9.8527 36.2828 11.2684 36.8583 12.1386 36.5246C13.0087 36.191 12.6389 35.5223 12.305 34.6515C11.9712 33.781 11.7991 33.0365 10.929 33.3702Z" fill="black"/>
<path d="M18.5727 35.8921C17.7578 36.2043 17.2889 36.9584 17.5258 37.576C17.7627 38.194 18.6153 38.4414 19.4303 38.1285C20.2455 37.8162 20.7144 37.0621 20.4774 36.4442C20.2406 35.8265 19.3877 35.5792 18.5727 35.8921Z" fill="black" stroke="black" stroke-linecap="round"/>
<path d="M15.4829 27.8374C14.6679 28.1496 14.1991 28.9037 14.436 29.5216C14.6729 30.1393 15.5254 30.3867 16.3404 30.0738C17.1557 29.7615 17.6245 29.0074 17.3877 28.3898C17.1507 27.7718 16.2979 27.5246 15.4829 27.8374Z" fill="black" stroke="black" stroke-linecap="round"/>
<path d="M27.7106 19.1005C28.4597 21.1405 27.5808 23.6346 25.7848 24.8805C26.0561 23.6828 25.9783 22.3396 25.4803 21.0408C24.4793 18.4304 22.1036 16.8222 19.7798 16.9781C22.157 14.8953 26.5091 15.9066 27.6173 18.8673C27.6509 18.9446 27.682 19.0219 27.7108 19.1008L27.7106 19.1005Z" fill="black" fill-opacity="0.3137"/>
<mask id="mask3_1131_34331" style="mask-type:luminance" maskUnits="userSpaceOnUse" x="3" y="18" width="15" height="19">
<path d="M9.21875 36.1719L17.1006 33.1495L11.4974 18.5374L3.61556 21.5598L9.21875 36.1719Z" fill="white"/>
</mask>
<g mask="url(#mask3_1131_34331)">
<path d="M11.2277 31.7278C11.7618 24.0978 7.85105 22.1703 7.85105 22.1703" stroke="black" stroke-linecap="round"/>
</g>
<mask id="mask4_1131_34331" style="mask-type:luminance" maskUnits="userSpaceOnUse" x="0" y="19" width="16" height="19">
<path d="M6.84375 37.8047L15.8278 34.3597L9.98036 19.1106L0.996331 22.5557L6.84375 37.8047Z" fill="white"/>
</mask>
<g mask="url(#mask4_1131_34331)">
<path d="M10.3314 32.7746C11.5338 26.8875 5.05694 24.6591 5.05694 24.6591" stroke="black" stroke-linecap="round"/>
</g>
<mask id="mask5_1131_34331" style="mask-type:luminance" maskUnits="userSpaceOnUse" x="2" y="22" width="13" height="16">
<path d="M6.84375 37.8047L14.7928 34.7565L10.0608 22.4163L2.11172 25.4644L6.84375 37.8047Z" fill="white"/>
</mask>
<g mask="url(#mask5_1131_34331)">
<path d="M9.70169 33.0203C10.3061 27.077 3.81317 28.5669 3.81317 28.5669" stroke="black" stroke-linecap="round"/>
</g>
<path d="M13.3527 37.6965C18.8514 43.0133 17.2321 47.0616 17.2321 47.0616" stroke="black" stroke-linecap="round"/>
<mask id="mask6_1131_34331" style="mask-type:luminance" maskUnits="userSpaceOnUse" x="6" y="32" width="15" height="20">
<path d="M12.0352 51.3438L20.86 47.9598L14.9983 32.6737L6.17355 36.0577L12.0352 51.3438Z" fill="white"/>
</mask>
<g mask="url(#mask6_1131_34331)">
<path d="M11.9798 37.5012C16.8102 41.0751 13.4839 47.0629 13.4839 47.0629" stroke="black" stroke-linecap="round"/>
</g>
<mask id="mask7_1131_34331" style="mask-type:luminance" maskUnits="userSpaceOnUse" x="6" y="33" width="13" height="16">
<path d="M10.875 48.3125L18.6648 45.3254L13.9633 33.0647L6.1735 36.0518L10.875 48.3125Z" fill="white"/>
</mask>
<g mask="url(#mask7_1131_34331)">
<path d="M11.3502 37.7468C15.7732 41.7626 9.94904 44.9955 9.94904 44.9955" stroke="black" stroke-linecap="round"/>
</g>
<path d="M34.5935 36.2036C33.7857 34.1864 31.428 32.933 29.2139 33.2252C30.2313 33.9288 31.0802 34.9759 31.5783 36.275C32.5794 38.8855 31.8525 41.683 29.973 43.1393C33.1965 43.0743 35.8359 39.3822 34.6795 36.4399C34.653 36.3598 34.6243 36.2813 34.5932 36.2037L34.5935 36.2036Z" fill="black" fill-opacity="0.3137"/>
</svg>
