<svg width="40" height="90" viewBox="0 0 40 90" fill="none" xmlns="http://www.w3.org/2000/svg">
<mask id="mask0_1185_18425" style="mask-type:luminance" maskUnits="userSpaceOnUse" x="21" y="0" width="9" height="10">
<path d="M21.0469 0H29.2931V9.6001H21.0469V0Z" fill="white"/>
</mask>
<g mask="url(#mask0_1185_18425)">
<mask id="mask1_1185_18425" style="mask-type:luminance" maskUnits="userSpaceOnUse" x="-21" y="-4" width="92" height="104">
<path d="M20.9946 -3.64062L70.4663 22.8621L29.187 99.9177L-20.2852 73.415L20.9946 -3.64062Z" fill="white"/>
</mask>
<g mask="url(#mask1_1185_18425)">
<mask id="mask2_1185_18425" style="mask-type:luminance" maskUnits="userSpaceOnUse" x="-21" y="-4" width="92" height="104">
<path d="M70.4858 22.8699L21.0136 -3.63281L-20.2656 73.4233L29.206 99.9259L70.4858 22.8699Z" fill="white"/>
</mask>
<g mask="url(#mask2_1185_18425)">
<mask id="mask3_1185_18425" style="mask-type:luminance" maskUnits="userSpaceOnUse" x="-21" y="-4" width="92" height="104">
<path d="M70.4858 22.8621L21.0136 -3.64062L-20.2656 73.4155L29.206 99.9181L70.4858 22.8621Z" fill="white"/>
</mask>
<g mask="url(#mask3_1185_18425)">
<path d="M29.0612 0.705415L29.0949 2.14678L29.0934 2.10831C27.9146 2.07081 26.8871 2.94582 26.7578 4.13814C26.6227 5.38816 27.5266 6.51124 28.7751 6.64538C28.9179 6.66076 29.0578 6.66076 29.1968 6.65019L29.2602 9.50166L21.0977 8.62136L23.1765 0.0703125L29.0612 0.705415Z" fill="#F9E6E0"/>
</g>
</g>
</g>
</g>
<mask id="mask4_1185_18425" style="mask-type:luminance" maskUnits="userSpaceOnUse" x="26" y="2" width="4" height="5">
<path d="M26.832 2.21094H29.1705V6.51867H26.832V2.21094Z" fill="white"/>
</mask>
<g mask="url(#mask4_1185_18425)">
<mask id="mask5_1185_18425" style="mask-type:luminance" maskUnits="userSpaceOnUse" x="-21" y="-4" width="92" height="104">
<path d="M20.9985 -3.64844L70.4702 22.8542L29.1909 99.9099L-20.2812 73.4072L20.9985 -3.64844Z" fill="white"/>
</mask>
<g mask="url(#mask5_1185_18425)">
<mask id="mask6_1185_18425" style="mask-type:luminance" maskUnits="userSpaceOnUse" x="-21" y="-4" width="92" height="104">
<path d="M70.4897 22.8621L21.0176 -3.64062L-20.2617 73.4155L29.2099 99.9181L70.4897 22.8621Z" fill="white"/>
</mask>
<g mask="url(#mask6_1185_18425)">
<mask id="mask7_1185_18425" style="mask-type:luminance" maskUnits="userSpaceOnUse" x="-21" y="-4" width="92" height="104">
<path d="M70.4897 22.8542L21.0176 -3.64844L-20.2617 73.4076L29.2099 99.9103L70.4897 22.8542Z" fill="white"/>
</mask>
<g mask="url(#mask7_1185_18425)">
<path d="M29.0411 2.30572L29.0488 2.61005C28.129 2.57111 27.3247 3.25188 27.2237 4.18026C27.1189 5.14854 27.818 6.01681 28.7848 6.12162C28.8911 6.13316 28.9949 6.13268 29.0983 6.12595L29.13 6.21009L29.1348 6.4274C29.0103 6.43749 28.8819 6.43701 28.7526 6.42307C27.6194 6.30143 26.7997 5.28219 26.9223 4.14805C27.0401 3.06582 27.9718 2.27206 29.0411 2.30572Z" fill="#578FFE"/>
</g>
</g>
</g>
</g>
<mask id="mask8_1185_18425" style="mask-type:luminance" maskUnits="userSpaceOnUse" x="18" y="11" width="14" height="3">
<path d="M18.9531 11.0781H31.0148V13.7858H18.9531V11.0781Z" fill="white"/>
</mask>
<g mask="url(#mask8_1185_18425)">
<mask id="mask9_1185_18425" style="mask-type:luminance" maskUnits="userSpaceOnUse" x="-21" y="-4" width="92" height="104">
<path d="M20.9946 -3.64062L70.4663 22.8621L29.187 99.9177L-20.2852 73.415L20.9946 -3.64062Z" fill="white"/>
</mask>
<g mask="url(#mask9_1185_18425)">
<mask id="mask10_1185_18425" style="mask-type:luminance" maskUnits="userSpaceOnUse" x="-21" y="-4" width="92" height="104">
<path d="M70.4819 22.8699L21.0097 -3.63281L-20.2695 73.4233L29.2021 99.9259L70.4819 22.8699Z" fill="white"/>
</mask>
<g mask="url(#mask10_1185_18425)">
<mask id="mask11_1185_18425" style="mask-type:luminance" maskUnits="userSpaceOnUse" x="-21" y="-4" width="92" height="104">
<path d="M70.4819 22.8699L21.0097 -3.63281L-20.2695 73.4233L29.2021 99.9259L70.4819 22.8699Z" fill="white"/>
</mask>
<g mask="url(#mask11_1185_18425)">
<path d="M19.0103 11.8125C18.9608 12.2721 19.6646 12.725 20.5829 12.8235L29.1387 13.7471C30.057 13.8452 30.8421 13.5538 30.8912 13.0937C30.9412 12.6341 30.2373 12.1822 29.3186 12.0827L20.7632 11.1601C19.8444 11.0605 19.0603 11.3529 19.0103 11.8125Z" fill="#FF0082"/>
</g>
</g>
</g>
</g>
<mask id="mask12_1185_18425" style="mask-type:luminance" maskUnits="userSpaceOnUse" x="0" y="78" width="37" height="12">
<path d="M0 78.8984H36.185V89.1139H0V78.8984Z" fill="white"/>
</mask>
<g mask="url(#mask12_1185_18425)">
<mask id="mask13_1185_18425" style="mask-type:luminance" maskUnits="userSpaceOnUse" x="-21" y="-4" width="92" height="104">
<path d="M20.9946 -3.64062L70.4663 22.8621L29.187 99.9177L-20.2852 73.415L20.9946 -3.64062Z" fill="white"/>
</mask>
<g mask="url(#mask13_1185_18425)">
<mask id="mask14_1185_18425" style="mask-type:luminance" maskUnits="userSpaceOnUse" x="-21" y="-4" width="92" height="104">
<path d="M70.4819 22.8621L21.0097 -3.64062L-20.2695 73.4155L29.2021 99.9181L70.4819 22.8621Z" fill="white"/>
</mask>
<g mask="url(#mask14_1185_18425)">
<mask id="mask15_1185_18425" style="mask-type:luminance" maskUnits="userSpaceOnUse" x="-21" y="-4" width="92" height="104">
<path d="M70.4819 22.8621L21.0097 -3.64062L-20.2695 73.4155L29.2021 99.9181L70.4819 22.8621Z" fill="white"/>
</mask>
<g mask="url(#mask15_1185_18425)">
<path d="M1.61761 79.0547C1.50174 79.2254 1.43058 79.4042 1.40943 79.5922C1.15943 81.8951 8.472 84.5725 17.7399 85.5725C27.0083 86.5711 34.7242 85.5144 34.9742 83.2115C34.9891 83.0716 34.9756 82.9302 34.9362 82.7889C35.8468 83.7019 36.2699 84.6567 36.066 85.6028C35.5165 88.1476 27.452 89.8519 17.511 88.7803C7.56959 87.7086 0.18538 84.3211 0.0661477 81.7206C0.0132625 80.5826 0.537787 79.672 1.48635 78.9609L1.61761 79.0547Z" fill="#FF0082"/>
</g>
</g>
</g>
</g>
<mask id="mask16_1185_18425" style="mask-type:luminance" maskUnits="userSpaceOnUse" x="8" y="18" width="32" height="10">
<path d="M8.24609 18.0938H40.0003V27.0785H8.24609V18.0938Z" fill="white"/>
</mask>
<g mask="url(#mask16_1185_18425)">
<mask id="mask17_1185_18425" style="mask-type:luminance" maskUnits="userSpaceOnUse" x="-21" y="-4" width="92" height="104">
<path d="M20.9946 -3.64844L70.4663 22.8542L29.187 99.9099L-20.2852 73.4072L20.9946 -3.64844Z" fill="white"/>
</mask>
<g mask="url(#mask17_1185_18425)">
<mask id="mask18_1185_18425" style="mask-type:luminance" maskUnits="userSpaceOnUse" x="-21" y="-4" width="92" height="104">
<path d="M70.4819 22.8621L21.0097 -3.64062L-20.2695 73.4155L29.2021 99.9181L70.4819 22.8621Z" fill="white"/>
</mask>
<g mask="url(#mask18_1185_18425)">
<mask id="mask19_1185_18425" style="mask-type:luminance" maskUnits="userSpaceOnUse" x="-21" y="-4" width="92" height="104">
<path d="M70.4819 22.8621L21.0097 -3.64062L-20.2695 73.4155L29.2021 99.9181L70.4819 22.8621Z" fill="white"/>
</mask>
<g mask="url(#mask19_1185_18425)">
<path d="M38.7902 26.5132C39.0084 24.4939 32.5992 22.1478 24.4732 21.2699C16.3476 20.3944 9.58361 21.3208 9.36437 23.3401C9.36101 23.3776 9.32783 23.6439 9.32783 23.6439C8.5759 22.8636 8.23407 22.0497 8.40763 21.2434C8.88841 19.0117 15.9601 17.5184 24.6737 18.4573C33.3901 19.3977 39.8637 22.3675 39.9685 24.6463C40.0147 25.6449 39.5565 26.444 38.7243 27.0685C38.7243 27.0685 38.7844 26.5622 38.7902 26.5132Z" fill="#FF0082"/>
</g>
</g>
</g>
</g>
<mask id="mask20_1185_18425" style="mask-type:luminance" maskUnits="userSpaceOnUse" x="3" y="22" width="36" height="62">
<path d="M3.44531 22.4062H38.6457V83.6992H3.44531V22.4062Z" fill="white"/>
</mask>
<g mask="url(#mask20_1185_18425)">
<mask id="mask21_1185_18425" style="mask-type:luminance" maskUnits="userSpaceOnUse" x="-21" y="-4" width="92" height="104">
<path d="M20.9946 -3.64062L70.4663 22.8621L29.187 99.9177L-20.2852 73.415L20.9946 -3.64062Z" fill="white"/>
</mask>
<g mask="url(#mask21_1185_18425)">
<mask id="mask22_1185_18425" style="mask-type:luminance" maskUnits="userSpaceOnUse" x="-21" y="-4" width="92" height="104">
<path d="M70.4819 22.8699L21.0097 -3.63281L-20.2695 73.4233L29.2021 99.9259L70.4819 22.8699Z" fill="white"/>
</mask>
<g mask="url(#mask22_1185_18425)">
<mask id="mask23_1185_18425" style="mask-type:luminance" maskUnits="userSpaceOnUse" x="-21" y="-4" width="92" height="104">
<path d="M70.4819 22.8699L21.0097 -3.63281L-20.2695 73.4233L29.2021 99.9259L70.4819 22.8699Z" fill="white"/>
</mask>
<g mask="url(#mask23_1185_18425)">
<path d="M9.21713 24.845C9.43588 22.8267 16.2004 21.8993 24.3259 22.7757C32.3933 23.6459 38.765 25.9652 38.6429 27.9743L38.591 28.4556C38.5823 28.5234 38.5766 28.5734 38.5766 28.5734L38.578 28.5719L32.877 81.1912C32.6578 83.2105 25.8933 84.1379 17.7682 83.2615C9.64262 82.385 3.23245 80.0383 3.45073 78.0186L9.18107 25.1335C9.18877 25.0772 9.21377 24.8777 9.21713 24.845Z" fill="#EEB4A3"/>
</g>
</g>
</g>
</g>
<mask id="mask24_1185_18425" style="mask-type:luminance" maskUnits="userSpaceOnUse" x="27" y="2" width="3" height="4">
<path d="M27.4453 2.83594H29.0453V5.91289H27.4453V2.83594Z" fill="white"/>
</mask>
<g mask="url(#mask24_1185_18425)">
<mask id="mask25_1185_18425" style="mask-type:luminance" maskUnits="userSpaceOnUse" x="-21" y="-4" width="92" height="104">
<path d="M20.9946 -3.64062L70.4663 22.8621L29.187 99.9177L-20.2852 73.415L20.9946 -3.64062Z" fill="white"/>
</mask>
<g mask="url(#mask25_1185_18425)">
<mask id="mask26_1185_18425" style="mask-type:luminance" maskUnits="userSpaceOnUse" x="-21" y="-4" width="92" height="104">
<path d="M70.4819 22.8699L21.0097 -3.63281L-20.2695 73.4233L29.2021 99.9259L70.4819 22.8699Z" fill="white"/>
</mask>
<g mask="url(#mask26_1185_18425)">
<mask id="mask27_1185_18425" style="mask-type:luminance" maskUnits="userSpaceOnUse" x="-21" y="-4" width="92" height="104">
<path d="M70.4819 22.8699L21.0097 -3.63281L-20.2695 73.4233L29.2021 99.9259L70.4819 22.8699Z" fill="white"/>
</mask>
<g mask="url(#mask27_1185_18425)">
<path d="M27.5274 4.89451C27.9264 4.27191 27.5808 3.7945 27.5808 3.7945C27.5615 3.75796 27.5423 3.76325 27.524 3.79114C27.7591 3.22142 28.3322 2.84161 28.9697 2.86853L28.6707 3.89402C28.4572 4.36086 28.5885 4.72624 28.5885 4.72624L29.012 5.85847C28.925 5.8652 28.8356 5.86472 28.7457 5.8551C28.124 5.78827 27.6337 5.34933 27.4688 4.78346C27.499 4.85557 27.5274 4.89451 27.5274 4.89451Z" fill="#578FFE"/>
</g>
</g>
</g>
</g>
<mask id="mask28_1185_18425" style="mask-type:luminance" maskUnits="userSpaceOnUse" x="12" y="13" width="25" height="8">
<path d="M12.5547 13.0469H36.0626V20.4316H12.5547V13.0469Z" fill="white"/>
</mask>
<g mask="url(#mask28_1185_18425)">
<mask id="mask29_1185_18425" style="mask-type:luminance" maskUnits="userSpaceOnUse" x="-21" y="-4" width="92" height="104">
<path d="M20.9946 -3.64062L70.4663 22.8621L29.187 99.9177L-20.2852 73.415L20.9946 -3.64062Z" fill="white"/>
</mask>
<g mask="url(#mask29_1185_18425)">
<mask id="mask30_1185_18425" style="mask-type:luminance" maskUnits="userSpaceOnUse" x="-21" y="-4" width="92" height="104">
<path d="M70.4819 22.8621L21.0097 -3.64062L-20.2695 73.4155L29.2021 99.9181L70.4819 22.8621Z" fill="white"/>
</mask>
<g mask="url(#mask30_1185_18425)">
<mask id="mask31_1185_18425" style="mask-type:luminance" maskUnits="userSpaceOnUse" x="-21" y="-4" width="92" height="104">
<path d="M70.4819 22.8542L21.0097 -3.64844L-20.2695 73.4076L29.2021 99.9103L70.4819 22.8542Z" fill="white"/>
</mask>
<g mask="url(#mask31_1185_18425)">
<path d="M19.6203 13.2303C19.6203 13.2303 19.6747 13.1894 19.7742 13.125C19.9997 13.2125 20.2602 13.276 20.5425 13.3067L29.0978 14.2293C29.4733 14.2697 29.8262 14.2438 30.1156 14.1688C33.033 16.1096 34.8955 18.4803 36.0296 20.3804C33.2844 19.1453 29.2916 18.0755 24.667 17.5774C19.8535 17.0587 15.5438 17.2823 12.5664 17.9621C15.8136 14.7731 19.6203 13.2303 19.6203 13.2303Z" fill="#578FFE"/>
</g>
</g>
</g>
</g>
<mask id="mask32_1185_18425" style="mask-type:luminance" maskUnits="userSpaceOnUse" x="22" y="9" width="6" height="3">
<path d="M22.7695 9.48438H27.3234V11.3305H22.7695V9.48438Z" fill="white"/>
</mask>
<g mask="url(#mask32_1185_18425)">
<mask id="mask33_1185_18425" style="mask-type:luminance" maskUnits="userSpaceOnUse" x="-21" y="-4" width="92" height="104">
<path d="M20.9946 -3.64062L70.4663 22.8621L29.187 99.9177L-20.2852 73.415L20.9946 -3.64062Z" fill="white"/>
</mask>
<g mask="url(#mask33_1185_18425)">
<mask id="mask34_1185_18425" style="mask-type:luminance" maskUnits="userSpaceOnUse" x="-21" y="-4" width="92" height="104">
<path d="M70.4819 22.8621L21.0097 -3.64062L-20.2695 73.4155L29.2021 99.9181L70.4819 22.8621Z" fill="white"/>
</mask>
<g mask="url(#mask34_1185_18425)">
<mask id="mask35_1185_18425" style="mask-type:luminance" maskUnits="userSpaceOnUse" x="-21" y="-4" width="92" height="104">
<path d="M70.4819 22.8542L21.0097 -3.64844L-20.2695 73.4076L29.2021 99.9103L70.4819 22.8542Z" fill="white"/>
</mask>
<g mask="url(#mask35_1185_18425)">
<path d="M27.2407 9.94832L27.0993 11.2536L22.7969 10.7897L22.9382 9.48438L27.2407 9.94832Z" fill="#F47D61"/>
</g>
</g>
</g>
</g>
<path d="M13.0527 42.9588L12.2691 42.88L12.3281 42.2934L13.1117 42.3722C13.2185 42.383 13.3069 42.3737 13.3769 42.3443C13.4469 42.3149 13.5003 42.2699 13.537 42.2095C13.5752 42.1478 13.5984 42.0765 13.6066 41.9957C13.6153 41.9091 13.6075 41.8274 13.5831 41.7506C13.5602 41.674 13.5178 41.6099 13.456 41.5585C13.3942 41.5057 13.31 41.4739 13.2032 41.4631L12.7053 41.413L12.4473 43.9781L11.6875 43.9016L12.0046 40.75L13.2622 40.8765C13.5147 40.9019 13.7273 40.97 13.8998 41.0806C14.0738 41.1914 14.2017 41.3325 14.2836 41.504C14.3656 41.6741 14.3962 41.8623 14.3754 42.0686C14.355 42.2721 14.288 42.4447 14.1747 42.5863C14.0613 42.728 13.9087 42.8321 13.7169 42.8988C13.5266 42.9642 13.3052 42.9842 13.0527 42.9588Z" fill="#578FFE"/>
<path d="M16.8027 43.8259L16.7439 44.4103L15.0642 44.2413L15.123 43.6569L16.8027 43.8259ZM15.6519 41.1169L15.3348 44.2686L14.575 44.1921L14.8921 41.0405L15.6519 41.1169ZM16.7187 42.4881L16.6618 43.053L15.1986 42.9058L15.2554 42.3408L16.7187 42.4881ZM17.0675 41.2594L17.0085 41.846L15.3223 41.6763L15.3813 41.0897L17.0675 41.2594Z" fill="#578FFE"/>
<path d="M18.7633 43.7673C18.7683 43.7183 18.7655 43.6735 18.755 43.6331C18.7446 43.5912 18.7217 43.551 18.6862 43.5125C18.6507 43.4739 18.5979 43.4336 18.5278 43.3916C18.4593 43.3483 18.3678 43.3012 18.2534 43.2503C18.1195 43.1902 17.9913 43.1248 17.8687 43.0542C17.7462 42.9821 17.6384 42.902 17.5452 42.8139C17.4522 42.7244 17.3814 42.624 17.3328 42.5127C17.2844 42.3999 17.2673 42.2728 17.2815 42.1314C17.2952 41.9958 17.3377 41.8769 17.4092 41.7748C17.4809 41.6712 17.5746 41.5866 17.6906 41.521C17.8081 41.4541 17.9425 41.4079 18.0937 41.3823C18.2451 41.3552 18.4081 41.3505 18.5827 41.3681C18.8136 41.3913 19.013 41.4522 19.1809 41.5507C19.3505 41.6479 19.4776 41.7751 19.5624 41.9323C19.6487 42.0883 19.6819 42.2658 19.6618 42.4649L18.9064 42.3889C18.9144 42.3096 18.9048 42.2379 18.8777 42.1739C18.8521 42.1101 18.8085 42.0577 18.7471 42.0165C18.6856 41.9753 18.6058 41.9498 18.5077 41.9399C18.4125 41.9304 18.3309 41.9367 18.2631 41.9591C18.1952 41.9814 18.1423 42.0154 18.1041 42.0611C18.0662 42.1054 18.0443 42.1564 18.0385 42.2141C18.0337 42.2618 18.0423 42.3064 18.0643 42.3479C18.088 42.3882 18.1227 42.4274 18.1684 42.4655C18.2156 42.5038 18.273 42.5417 18.3406 42.5791C18.4097 42.6166 18.4876 42.6544 18.5741 42.6922C18.7362 42.7624 18.8788 42.8373 19.002 42.9167C19.1268 42.9949 19.2297 43.0803 19.3107 43.173C19.3934 43.2644 19.4525 43.3651 19.488 43.4751C19.5251 43.5852 19.5369 43.7067 19.5235 43.8394C19.5093 43.9808 19.4693 44.1036 19.4034 44.2078C19.3375 44.3119 19.2495 44.3971 19.1394 44.4633C19.0294 44.528 18.901 44.5727 18.7542 44.5973C18.6074 44.6219 18.446 44.6253 18.2699 44.6076C18.1083 44.5913 17.9509 44.5551 17.7977 44.4988C17.646 44.4413 17.511 44.3636 17.3926 44.2657C17.2743 44.1663 17.1837 44.0457 17.1207 43.9038C17.0593 43.7606 17.038 43.5959 17.0567 43.4098L17.8186 43.4864C17.8093 43.5788 17.8138 43.6579 17.8319 43.7239C17.85 43.7899 17.881 43.8447 17.9247 43.8885C17.9685 43.9308 18.0242 43.9641 18.0917 43.9884C18.1594 44.0112 18.238 44.0271 18.3274 44.0361C18.4241 44.0459 18.5034 44.04 18.5653 44.0185C18.6274 43.9956 18.6745 43.9624 18.7065 43.919C18.7387 43.8742 18.7577 43.8236 18.7633 43.7673Z" fill="#578FFE"/>
<path d="M21.6737 41.7228L21.3566 44.8744L20.5969 44.798L20.914 41.6463L21.6737 41.7228ZM22.6218 41.8182L22.5628 42.4048L19.9285 42.1397L19.9875 41.5531L22.6218 41.8182Z" fill="#578FFE"/>
<path d="M23.7517 41.9318L23.4346 45.0834L22.677 45.0072L22.9941 41.8556L23.7517 41.9318Z" fill="#578FFE"/>
<path d="M25.8689 44.2504L26.6265 44.3266C26.5943 44.545 26.5157 44.7324 26.3907 44.8889C26.2656 45.0454 26.1024 45.1609 25.901 45.2354C25.7012 45.3086 25.4715 45.3321 25.2117 45.306C25.001 45.2848 24.8163 45.2305 24.6574 45.1431C24.5 45.0558 24.3703 44.94 24.2682 44.7956C24.1676 44.6514 24.0965 44.4817 24.0549 44.2866C24.0147 44.0916 24.0066 43.8757 24.0304 43.6391L24.0476 43.4681C24.0714 43.2314 24.1238 43.0217 24.2049 42.8389C24.2875 42.6548 24.3933 42.5022 24.5221 42.381C24.6525 42.2586 24.8027 42.1702 24.9729 42.1159C25.1431 42.0616 25.3278 42.0445 25.5269 42.0645C25.8011 42.0921 26.0278 42.1645 26.2069 42.2816C26.3861 42.3987 26.519 42.5484 26.6056 42.7306C26.6924 42.9113 26.7342 43.1116 26.731 43.3314L25.9734 43.2551C25.9824 43.1365 25.9722 43.0356 25.9426 42.9525C25.9133 42.8679 25.8602 42.8014 25.7834 42.7528C25.7067 42.7043 25.6012 42.6733 25.467 42.6598C25.3732 42.6503 25.2899 42.6594 25.2172 42.6871C25.1444 42.7148 25.0812 42.7638 25.0275 42.8342C24.9737 42.9046 24.9293 42.9985 24.8942 43.116C24.8606 43.2321 24.8354 43.3739 24.8186 43.5413L24.801 43.7166C24.7841 43.884 24.7798 44.0279 24.7881 44.1482C24.7964 44.2686 24.8192 44.3686 24.8564 44.4481C24.8935 44.5276 24.9457 44.589 25.0128 44.6322C25.0814 44.6741 25.1677 44.7002 25.2716 44.7107C25.3871 44.7223 25.4863 44.7141 25.5693 44.686C25.6524 44.6565 25.7194 44.6063 25.7702 44.5357C25.8212 44.4635 25.8541 44.3685 25.8689 44.2504Z" fill="#578FFE"/>
<path d="M28.0029 42.3595L27.6859 45.5111L26.9283 45.4349L27.2453 42.2833L28.0029 42.3595Z" fill="#578FFE"/>
<path d="M29.2444 45.6679L28.5452 45.5976L28.6083 45.0136L29.3031 45.0835C29.4475 45.098 29.5729 45.0757 29.6794 45.0164C29.7874 44.9573 29.8743 44.8618 29.94 44.73C30.0073 44.5968 30.0512 44.4292 30.0715 44.2272L30.0852 44.0908C30.1004 43.9393 30.0986 43.805 30.0798 43.6879C30.0626 43.5696 30.0289 43.4693 29.9789 43.387C29.929 43.3033 29.8627 43.2376 29.7801 43.1899C29.6989 43.1424 29.6027 43.113 29.4916 43.1018L28.7903 43.0313L28.8493 42.4447L29.5506 42.5152C29.7642 42.5367 29.956 42.5932 30.1261 42.6846C30.2978 42.7748 30.4417 42.8942 30.558 43.0429C30.6758 43.1904 30.7607 43.36 30.8129 43.5518C30.8666 43.7423 30.8822 43.9494 30.8597 44.1731L30.8464 44.3051C30.824 44.5274 30.7675 44.7272 30.6768 44.9047C30.5875 45.0822 30.4711 45.2316 30.3278 45.3528C30.1844 45.4739 30.0202 45.5623 29.8353 45.6181C29.652 45.6725 29.455 45.6891 29.2444 45.6679ZM29.2973 42.4897L28.9803 45.6414L28.2205 45.5649L28.5376 42.4133L29.2973 42.4897Z" fill="#578FFE"/>
<path d="M33.3184 45.4875L33.2596 46.0719L31.5799 45.9029L31.6387 45.3185L33.3184 45.4875ZM32.1676 42.7785L31.8505 45.9301L31.0907 45.8537L31.4078 42.7021L32.1676 42.7785ZM33.2344 44.1496L33.1775 44.7146L31.7143 44.5674L31.7711 44.0024L33.2344 44.1496ZM33.5832 42.9209L33.5242 43.5075L31.838 43.3379L31.897 42.7513L33.5832 42.9209Z" fill="#578FFE"/>
</svg>
