<svg width="75" height="31" viewBox="0 0 75 31" fill="none" xmlns="http://www.w3.org/2000/svg">
<g filter="url(#filter0_d_1192_52447)">
<path d="M0 0H63C68.5229 0 73 4.47715 73 10V29H10C4.47715 29 0 24.5228 0 19V0Z" fill="#FDFAF1"/>
<path d="M12.5788 20.126C11.9721 20.126 11.4215 20.0373 10.9268 19.86C10.4415 19.6827 10.0541 19.4633 9.76479 19.202C9.48479 18.9313 9.34479 18.6607 9.34479 18.39C9.34479 18.2593 9.37746 18.1193 9.44279 17.97C9.51746 17.8113 9.61546 17.6807 9.73679 17.578C9.85812 17.466 9.99346 17.41 10.1428 17.41C10.2921 17.41 10.4321 17.466 10.5628 17.578C10.6935 17.6807 10.8428 17.8067 11.0108 17.956C11.1788 18.096 11.3841 18.222 11.6268 18.334C11.8695 18.4367 12.1681 18.488 12.5228 18.488C12.8028 18.488 13.0595 18.446 13.2928 18.362C13.5355 18.2687 13.7268 18.1333 13.8668 17.956C14.0161 17.7787 14.0908 17.55 14.0908 17.27C14.0908 16.9713 14.0115 16.7193 13.8528 16.514C13.6941 16.3087 13.4795 16.1313 13.2088 15.982C12.9381 15.8327 12.6441 15.688 12.3268 15.548C12.0095 15.408 11.6875 15.2587 11.3608 15.1C11.0435 14.9413 10.7495 14.75 10.4788 14.526C10.2175 14.302 10.0028 14.0267 9.83479 13.7C9.67612 13.3733 9.59679 12.972 9.59679 12.496C9.59679 11.9733 9.69479 11.5347 9.89079 11.18C10.0961 10.8253 10.3621 10.5407 10.6888 10.326C11.0248 10.102 11.3935 9.94333 11.7948 9.85C12.1961 9.74733 12.5975 9.696 12.9988 9.696C13.2135 9.696 13.4655 9.71467 13.7548 9.752C14.0535 9.78 14.3475 9.836 14.6368 9.92C14.9355 10.004 15.1781 10.1207 15.3648 10.27C15.5608 10.41 15.6588 10.5967 15.6588 10.83C15.6588 10.9327 15.6308 11.0587 15.5748 11.208C15.5281 11.3573 15.4488 11.4927 15.3368 11.614C15.2341 11.7353 15.0988 11.796 14.9308 11.796C14.7815 11.796 14.6321 11.754 14.4828 11.67C14.3428 11.5767 14.1561 11.488 13.9228 11.404C13.6988 11.3107 13.3908 11.264 12.9988 11.264C12.6721 11.264 12.3875 11.306 12.1448 11.39C11.9021 11.474 11.7201 11.5953 11.5988 11.754C11.4775 11.9033 11.4168 12.0947 11.4168 12.328C11.4168 12.5707 11.4961 12.776 11.6548 12.944C11.8228 13.112 12.0375 13.2613 12.2988 13.392C12.5695 13.5227 12.8635 13.6533 13.1808 13.784C13.4981 13.9147 13.8155 14.0687 14.1328 14.246C14.4595 14.414 14.7581 14.6193 15.0288 14.862C15.2995 15.1047 15.5141 15.408 15.6728 15.772C15.8315 16.1267 15.9108 16.5653 15.9108 17.088C15.9108 17.7507 15.7661 18.3107 15.4768 18.768C15.1875 19.216 14.7908 19.5567 14.2868 19.79C13.7921 20.014 13.2228 20.126 12.5788 20.126ZM19.9776 20C19.7442 20 19.5342 19.9533 19.3476 19.86C19.1609 19.7573 19.0676 19.608 19.0676 19.412V11.404H17.0096C16.8322 11.404 16.6922 11.32 16.5896 11.152C16.4869 10.984 16.4356 10.7927 16.4356 10.578C16.4356 10.382 16.4822 10.2 16.5756 10.032C16.6689 9.85467 16.8136 9.766 17.0096 9.766H22.9316C23.1369 9.766 23.2816 9.85467 23.3656 10.032C23.4589 10.2 23.5056 10.382 23.5056 10.578C23.5056 10.7927 23.4542 10.984 23.3516 11.152C23.2582 11.32 23.1182 11.404 22.9316 11.404H20.8876V19.412C20.8876 19.608 20.7896 19.7573 20.5936 19.86C20.4069 19.9533 20.2016 20 19.9776 20ZM24.064 20C23.896 20 23.7234 19.9673 23.546 19.902C23.3687 19.8367 23.2194 19.748 23.098 19.636C22.9767 19.524 22.916 19.3933 22.916 19.244C22.916 19.216 22.9207 19.1693 22.93 19.104L25.632 10.298C25.6974 10.0927 25.842 9.93867 26.066 9.836C26.2994 9.73333 26.5467 9.682 26.808 9.682C27.0787 9.682 27.326 9.73333 27.55 9.836C27.774 9.93867 27.9187 10.0927 27.984 10.298L30.686 19.104C30.7047 19.1693 30.714 19.216 30.714 19.244C30.714 19.384 30.6487 19.5147 30.518 19.636C30.3967 19.748 30.2474 19.8367 30.07 19.902C29.8927 19.9673 29.72 20 29.552 20C29.4027 20 29.272 19.9767 29.16 19.93C29.0574 19.874 28.9874 19.776 28.95 19.636L28.418 17.774H25.198L24.68 19.636C24.6427 19.776 24.568 19.874 24.456 19.93C24.344 19.9767 24.2134 20 24.064 20ZM25.59 16.346H28.026L26.808 12.048L25.59 16.346ZM37.2831 20.07C37.1618 20.07 37.0404 20.0327 36.9191 19.958C36.8071 19.8833 36.7184 19.776 36.6531 19.636L34.6651 15.772H33.4891V19.412C33.4891 19.608 33.3958 19.7573 33.2091 19.86C33.0224 19.9533 32.8124 20 32.5791 20C32.3551 20 32.1451 19.9533 31.9491 19.86C31.7624 19.7573 31.6691 19.608 31.6691 19.412V10.34C31.6691 10.1813 31.7204 10.046 31.8231 9.934C31.9351 9.822 32.0798 9.766 32.2571 9.766H35.0291C35.6451 9.766 36.2004 9.85467 36.6951 10.032C37.1991 10.2093 37.6004 10.5127 37.8991 10.942C38.1978 11.362 38.3471 11.9453 38.3471 12.692C38.3471 13.2333 38.2678 13.6953 38.1091 14.078C37.9504 14.4513 37.7311 14.7547 37.4511 14.988C37.1804 15.212 36.8678 15.38 36.5131 15.492L38.3611 18.894C38.3798 18.9313 38.3938 18.9733 38.4031 19.02C38.4124 19.0573 38.4171 19.09 38.4171 19.118C38.4171 19.2673 38.3611 19.4167 38.2491 19.566C38.1371 19.7153 37.9924 19.8367 37.8151 19.93C37.6471 20.0233 37.4698 20.07 37.2831 20.07ZM33.4891 14.344H35.0291C35.4864 14.344 35.8504 14.232 36.1211 14.008C36.3918 13.784 36.5271 13.4013 36.5271 12.86C36.5271 12.3 36.3918 11.9127 36.1211 11.698C35.8504 11.474 35.4864 11.362 35.0291 11.362H33.4891V14.344ZM42.3311 20C42.0978 20 41.8878 19.9533 41.7011 19.86C41.5144 19.7573 41.4211 19.608 41.4211 19.412V11.404H39.3631C39.1858 11.404 39.0458 11.32 38.9431 11.152C38.8404 10.984 38.7891 10.7927 38.7891 10.578C38.7891 10.382 38.8358 10.2 38.9291 10.032C39.0224 9.85467 39.1671 9.766 39.3631 9.766H45.2851C45.4904 9.766 45.6351 9.85467 45.7191 10.032C45.8124 10.2 45.8591 10.382 45.8591 10.578C45.8591 10.7927 45.8078 10.984 45.7051 11.152C45.6118 11.32 45.4718 11.404 45.2851 11.404H43.2411V19.412C43.2411 19.608 43.1431 19.7573 42.9471 19.86C42.7604 19.9533 42.5551 20 42.3311 20Z" fill="#FF0082"/>
<path d="M52 14C52 12.1435 52.7375 10.363 54.0503 9.05025C55.363 7.7375 57.1435 7 59 7C59.9193 7 60.8295 7.18106 61.6788 7.53284C62.5281 7.88463 63.2997 8.40024 63.9497 9.05025C64.5998 9.70026 65.1154 10.4719 65.4672 11.3212C65.8189 12.1705 66 13.0807 66 14C66 15.8565 65.2625 17.637 63.9497 18.9497C62.637 20.2625 60.8565 21 59 21C58.0807 21 57.1705 20.8189 56.3212 20.4672C55.4719 20.1154 54.7003 19.5998 54.0503 18.9497C52.7375 17.637 52 15.8565 52 14ZM57.6 17.5L61.1 14L57.6 10.5V17.5Z" fill="#FF0082"/>
<path d="M0.5 0.5H63C68.2467 0.5 72.5 4.75329 72.5 10V28.5H10C4.7533 28.5 0.5 24.2467 0.5 19V0.5Z" stroke="#F7CFE5"/>
</g>
<defs>
<filter id="filter0_d_1192_52447" x="0" y="0" width="75" height="31" filterUnits="userSpaceOnUse" color-interpolation-filters="sRGB">
<feFlood flood-opacity="0" result="BackgroundImageFix"/>
<feColorMatrix in="SourceAlpha" type="matrix" values="0 0 0 0 0 0 0 0 0 0 0 0 0 0 0 0 0 0 127 0" result="hardAlpha"/>
<feOffset dx="2" dy="2"/>
<feComposite in2="hardAlpha" operator="out"/>
<feColorMatrix type="matrix" values="0 0 0 0 1 0 0 0 0 0 0 0 0 0 0.509804 0 0 0 1 0"/>
<feBlend mode="normal" in2="BackgroundImageFix" result="effect1_dropShadow_1192_52447"/>
<feBlend mode="normal" in="SourceGraphic" in2="effect1_dropShadow_1192_52447" result="shape"/>
</filter>
</defs>
</svg>
