<svg width="233" height="235" viewBox="0 0 233 235" fill="none" xmlns="http://www.w3.org/2000/svg">
<g filter="url(#filter0_d_838_1833)">
<mask id="mask0_838_1833" style="mask-type:luminance" maskUnits="userSpaceOnUse" x="0" y="0" width="233" height="235">
<path d="M103.258 0L232.478 96.006L129.224 234.982L0.00346762 138.976L103.258 0Z" fill="white"/>
</mask>
<g mask="url(#mask0_838_1833)">
<path d="M33.029 146.58L33.0126 146.569L32.9959 146.559C27.4233 143.138 21.0229 141.224 13.8309 140.777C22.2283 137.82 29.9931 134.741 37.1235 131.538L37.1621 131.521L37.1996 131.502C40.7772 129.645 43.5626 128.131 45.5432 126.963C46.5319 126.38 47.3397 125.872 47.9528 125.442C48.4273 125.109 48.9042 124.743 49.2367 124.366C51.3696 122.7 53.1118 120.927 54.4371 119.036L54.4859 118.967L54.5265 118.892L56.0196 116.147L56.0675 116.059L56.1032 115.966C56.8868 113.915 57.2179 111.761 57.1015 109.521C57.1327 108.918 57.0277 108.051 56.8664 107.062C56.6833 105.938 56.394 104.473 56.0025 102.676C55.2239 99.102 54.0272 94.1521 52.4157 87.8345C52.1399 84.4428 52.0318 81.7294 52.0832 79.677C52.1372 77.5251 52.366 76.3207 52.6111 75.8028L52.6848 75.647L52.7213 75.4786C53.3425 72.6089 54.5053 69.604 56.2342 66.4619L59.2998 61.6617C61.5836 58.4975 64.3679 55.4236 67.6613 52.4422L67.6613 52.4422L67.6704 52.4339C74.2962 46.3364 82.6184 41.5231 92.6751 38.0171C97.6287 36.357 102.931 35.2409 108.585 34.6749L117.373 34.3545C132.731 34.8521 148.34 39.5178 164.213 48.4158L164.22 48.4194L164.226 48.4229C180.148 57.1441 192.511 69.0566 201.346 84.172C207.832 95.9696 209.224 108.425 205.517 121.627C201.261 134.959 193.301 147.729 181.572 159.935C169.808 172.176 156.892 182.147 142.821 189.859C135.97 193.601 129.326 196.466 122.89 198.465L113.487 200.688L113.429 200.702L113.372 200.72C112.794 200.907 111.562 201.075 109.512 201.158C107.527 201.238 104.915 201.236 101.665 201.147C91.7824 199.997 83.344 196.544 76.3001 190.816L76.285 190.804L76.2696 190.792C72.5679 187.938 68.9924 184.652 65.5462 180.93L44.0058 155.532L43.9895 155.512L43.9727 155.494C41.2949 152.543 37.6327 149.575 33.029 146.58Z" fill="white" stroke="#F7CFE5" stroke-width="3"/>
<path d="M81.1095 133.188C80.7095 133.182 80.3497 133.096 80.0301 132.931C79.7104 132.75 79.551 132.492 79.5516 132.156L79.5784 118.428L76.0508 118.373C75.7468 118.368 75.5071 118.22 75.3317 117.93C75.1563 117.639 75.069 117.31 75.0697 116.942C75.0703 116.606 75.1509 116.295 75.3115 116.009C75.472 115.708 75.7203 115.56 76.0563 115.565L86.207 115.723C86.559 115.728 86.8067 115.884 86.9501 116.19C87.1095 116.481 87.1889 116.794 87.1882 117.13C87.1875 117.498 87.0989 117.825 86.9223 118.11C86.7618 118.395 86.5215 118.536 86.2016 118.531L82.698 118.476L82.6712 132.204C82.6706 132.54 82.5021 132.794 82.1658 132.964C81.8455 133.119 81.4934 133.194 81.1095 133.188ZM98.4456 133.577C98.2377 133.574 98.0298 133.507 97.8221 133.376C97.6304 133.245 97.4787 133.058 97.3672 132.817L93.9725 126.14L91.9568 126.108L91.9446 132.348C91.944 132.684 91.7835 132.938 91.4632 133.109C91.1429 133.264 90.7828 133.338 90.3828 133.332C89.9989 133.326 89.6391 133.24 89.3034 133.075C88.9838 132.894 88.8243 132.636 88.825 132.3L88.8553 116.748C88.8558 116.476 88.9443 116.245 89.1206 116.056C89.313 115.867 89.5611 115.775 89.8651 115.779L94.6165 115.853C95.6724 115.87 96.624 116.036 97.4713 116.354C98.3346 116.671 99.0215 117.202 99.532 117.946C100.043 118.674 100.297 119.678 100.294 120.958C100.292 121.886 100.155 122.676 99.8815 123.327C99.6083 123.963 99.2313 124.477 98.7506 124.87C98.2859 125.247 97.7494 125.526 97.1411 125.709L100.297 131.59C100.329 131.655 100.353 131.727 100.369 131.807C100.385 131.871 100.393 131.927 100.393 131.975C100.392 132.231 100.296 132.486 100.103 132.739C99.9106 132.992 99.6623 133.196 99.358 133.351C99.0697 133.507 98.7656 133.582 98.4456 133.577ZM91.9615 123.66L94.6012 123.701C95.3851 123.713 96.0094 123.531 96.4741 123.154C96.9388 122.778 97.1721 122.125 97.1739 121.197C97.1758 120.237 96.9451 119.57 96.4818 119.194C96.0187 118.803 95.3951 118.601 94.6112 118.589L91.9715 118.548L91.9615 123.66ZM107.745 133.602C107.361 133.596 107.001 133.51 106.665 133.345C106.346 133.164 106.186 132.906 106.187 132.57L106.199 126.546C106.199 126.418 106.175 126.313 106.127 126.232L101.177 117.563C101.145 117.499 101.121 117.442 101.105 117.394C101.105 117.33 101.105 117.282 101.105 117.25C101.106 116.994 101.218 116.772 101.442 116.583C101.667 116.395 101.939 116.247 102.259 116.14C102.579 116.033 102.884 115.982 103.171 115.986C103.427 115.99 103.619 116.049 103.747 116.163C103.875 116.261 103.995 116.415 104.106 116.625L107.764 123.618L111.425 116.738C111.554 116.532 111.682 116.382 111.81 116.288C111.938 116.178 112.13 116.125 112.386 116.129C112.674 116.134 112.97 116.194 113.274 116.311C113.594 116.428 113.865 116.584 114.089 116.78C114.329 116.976 114.448 117.201 114.448 117.457C114.448 117.489 114.439 117.537 114.423 117.601C114.423 117.649 114.407 117.705 114.375 117.768L109.391 126.283C109.343 126.362 109.319 126.466 109.318 126.594L109.307 132.618C109.306 132.954 109.137 133.207 108.801 133.378C108.481 133.533 108.129 133.608 107.745 133.602ZM121.602 133.817C121.314 133.813 121.018 133.752 120.715 133.635C120.411 133.519 120.155 133.363 119.948 133.167C119.74 132.972 119.636 132.747 119.637 132.491C119.637 132.443 119.645 132.363 119.661 132.251L124.322 117.227C124.435 116.877 124.683 116.616 125.068 116.446C125.468 116.277 125.892 116.195 126.34 116.202C126.804 116.209 127.228 116.304 127.611 116.486C127.995 116.668 128.242 116.936 128.354 117.29L132.956 132.457C132.988 132.57 133.003 132.65 133.003 132.698C133.003 132.938 132.89 133.16 132.666 133.365C132.458 133.554 132.201 133.702 131.897 133.809C131.593 133.916 131.297 133.968 131.009 133.963C130.753 133.959 130.529 133.916 130.337 133.833C130.162 133.734 130.042 133.564 129.978 133.323L129.073 130.117L123.553 130.031L122.659 133.21C122.595 133.449 122.466 133.615 122.274 133.708C122.082 133.785 121.858 133.821 121.602 133.817ZM124.23 127.594L128.406 127.659L126.332 120.258L124.23 127.594ZM140.085 134.248C139.029 134.232 138.077 134.041 137.23 133.676C136.383 133.295 135.704 132.7 135.194 131.892C134.7 131.069 134.454 129.985 134.456 128.641L134.469 121.993C134.472 120.649 134.722 119.581 135.219 118.788C135.733 117.98 136.406 117.407 137.239 117.068C138.087 116.713 139.015 116.543 140.023 116.559C141.143 116.576 142.127 116.776 142.974 117.157C143.837 117.538 144.516 118.077 145.011 118.772C145.505 119.468 145.752 120.296 145.75 121.256C145.749 121.848 145.62 122.246 145.363 122.45C145.107 122.638 144.715 122.728 144.187 122.72C143.771 122.713 143.411 122.636 143.108 122.487C142.804 122.338 142.644 122.08 142.629 121.711C142.614 121.327 142.535 120.958 142.391 120.604C142.264 120.234 142.025 119.926 141.673 119.681C141.338 119.435 140.818 119.307 140.114 119.296C139.33 119.284 138.714 119.507 138.265 119.964C137.832 120.405 137.615 121.098 137.613 122.042L137.6 128.69C137.598 129.634 137.813 130.341 138.244 130.812C138.691 131.267 139.306 131.5 140.09 131.512C140.874 131.524 141.49 131.31 141.939 130.869C142.388 130.412 142.613 129.711 142.615 128.767L142.618 127.375L140.674 127.345C140.37 127.341 140.131 127.209 139.955 126.95C139.796 126.692 139.716 126.41 139.717 126.106C139.717 125.802 139.798 125.524 139.958 125.27C140.135 125.017 140.375 124.893 140.679 124.897L144.759 124.961C145.079 124.966 145.318 125.073 145.478 125.284C145.653 125.479 145.741 125.72 145.74 126.008L145.735 128.816C145.732 130.16 145.482 131.236 144.985 132.044C144.487 132.837 143.806 133.41 142.942 133.765C142.093 134.103 141.141 134.265 140.085 134.248ZM148.927 134.242C148.639 134.237 148.343 134.177 148.039 134.06C147.736 133.943 147.48 133.787 147.272 133.592C147.065 133.397 146.961 133.171 146.962 132.915C146.962 132.867 146.97 132.787 146.986 132.675L151.647 117.651C151.76 117.301 152.008 117.041 152.393 116.871C152.793 116.701 153.217 116.62 153.665 116.627C154.129 116.634 154.553 116.729 154.936 116.911C155.32 117.093 155.567 117.36 155.679 117.714L160.281 132.882C160.312 132.995 160.328 133.075 160.328 133.123C160.328 133.363 160.215 133.585 159.991 133.79C159.782 133.978 159.526 134.126 159.222 134.234C158.918 134.341 158.622 134.392 158.334 134.388C158.078 134.384 157.854 134.34 157.662 134.257C157.486 134.159 157.367 133.989 157.303 133.748L156.397 130.542L150.878 130.456L149.984 133.634C149.92 133.873 149.791 134.039 149.599 134.132C149.407 134.209 149.183 134.246 148.927 134.242ZM151.555 128.018L155.73 128.083L153.657 120.683L151.555 128.018ZM163.522 134.468C163.138 134.463 162.779 134.377 162.443 134.212C162.123 134.031 161.964 133.772 161.965 133.436L161.995 117.884C161.996 117.532 162.156 117.287 162.476 117.148C162.813 116.993 163.173 116.919 163.557 116.925C163.957 116.931 164.316 117.016 164.636 117.181C164.956 117.33 165.115 117.581 165.115 117.933L165.084 133.485C165.084 133.821 164.923 134.074 164.603 134.245C164.283 134.4 163.922 134.475 163.522 134.468ZM169.545 134.562C169.161 134.556 168.801 134.471 168.466 134.305C168.146 134.124 167.987 133.866 167.987 133.53L168.018 117.978C168.018 117.642 168.179 117.396 168.499 117.241C168.835 117.087 169.195 117.012 169.579 117.018C169.963 117.024 170.275 117.069 170.515 117.153C170.771 117.237 171.002 117.4 171.21 117.643C171.434 117.871 171.665 118.227 171.904 118.71L176.518 127.734L176.537 118.11C176.537 117.758 176.698 117.513 177.018 117.374C177.354 117.219 177.714 117.144 178.098 117.15C178.498 117.157 178.858 117.242 179.178 117.407C179.497 117.556 179.657 117.807 179.656 118.159L179.626 133.711C179.625 134.047 179.465 134.3 179.144 134.471C178.824 134.626 178.464 134.701 178.064 134.694C177.696 134.689 177.352 134.611 177.033 134.462C176.729 134.314 176.482 134.054 176.29 133.683L171.126 123.954L171.107 133.578C171.106 133.914 170.946 134.168 170.625 134.339C170.305 134.494 169.945 134.568 169.545 134.562ZM183.772 129.935C183.452 129.93 183.172 129.854 182.932 129.706C182.692 129.558 182.573 129.324 182.574 129.004C182.576 127.948 182.554 126.804 182.508 125.571C182.463 124.338 182.409 123.106 182.347 121.873C182.302 120.64 182.28 119.496 182.282 118.44C182.283 118.024 182.428 117.706 182.716 117.486C183.004 117.251 183.365 117.136 183.797 117.143C184.196 117.149 184.54 117.275 184.828 117.519C185.131 117.748 185.283 118.07 185.282 118.486C185.28 119.542 185.253 120.686 185.203 121.917C185.153 123.148 185.094 124.379 185.028 125.61C184.978 126.842 184.951 127.985 184.949 129.041C184.949 129.361 184.812 129.591 184.54 129.731C184.268 129.871 184.012 129.939 183.772 129.935ZM183.786 134.927C183.322 134.92 182.93 134.754 182.611 134.429C182.308 134.088 182.156 133.702 182.157 133.27C182.158 132.822 182.311 132.44 182.615 132.125C182.936 131.81 183.328 131.656 183.792 131.663C184.224 131.67 184.6 131.836 184.919 132.161C185.238 132.486 185.398 132.872 185.397 133.32C185.396 133.752 185.235 134.134 184.915 134.465C184.594 134.78 184.218 134.934 183.786 134.927Z" fill="#FF0082"/>
<path d="M89.5405 98.3232C88.4846 98.3068 87.533 98.116 86.6858 97.7508C85.8387 97.3697 85.1599 96.7751 84.6495 95.9671C84.1551 95.1434 83.9093 94.0596 83.9119 92.7156L83.9249 86.0676C83.9275 84.7236 84.1775 83.6555 84.675 82.8632C85.1886 82.0551 85.8616 81.4816 86.6942 81.1425C87.5428 80.7877 88.5031 80.6186 89.5749 80.6352C90.6308 80.6516 91.5823 80.8504 92.4295 81.2316C93.2927 81.597 93.9715 82.1916 94.4659 83.0153C94.9602 83.823 95.2061 84.8989 95.2035 86.2429L95.1905 92.8908C95.1879 94.2348 94.9378 95.311 94.4403 96.1193C93.9428 96.9116 93.2618 97.485 92.3971 97.8396C91.5486 98.1784 90.5963 98.3396 89.5405 98.3232ZM89.5458 95.5872C90.3297 95.5994 90.9461 95.385 91.3949 94.9439C91.8437 94.5029 92.069 93.8024 92.0709 92.8424L92.0839 86.1944C92.0857 85.2344 91.8631 84.5269 91.4161 84.0719C90.969 83.617 90.3535 83.3834 89.5696 83.3712C88.7857 83.3591 88.1693 83.5735 87.7205 84.0145C87.2877 84.4558 87.0703 85.1564 87.0685 86.1164L87.0555 92.7644C87.0536 93.7244 87.2683 94.4318 87.6993 94.8865C88.1464 95.3415 88.7619 95.575 89.5458 95.5872ZM99.4328 98.3329C99.0488 98.3269 98.689 98.2414 98.3534 98.0761C98.0338 97.8952 97.8743 97.6367 97.8749 97.3007L97.9053 81.7487C97.9059 81.3967 98.0664 81.1512 98.3867 81.0122C98.7229 80.8574 99.083 80.783 99.467 80.7889C99.8669 80.7952 100.227 80.8808 100.546 81.0457C100.866 81.1947 101.026 81.4452 101.025 81.7972L101.013 88.0372L106.412 88.1211L106.424 81.8811C106.425 81.5291 106.585 81.2836 106.906 81.1445C107.242 80.9898 107.602 80.9154 107.986 80.9213C108.386 80.9275 108.746 81.0131 109.065 81.1781C109.385 81.3271 109.545 81.5776 109.544 81.9295L109.514 97.4815C109.513 97.8175 109.352 98.071 109.032 98.2421C108.712 98.3971 108.352 98.4715 107.952 98.4653C107.568 98.4593 107.208 98.3737 106.872 98.2085C106.553 98.0275 106.393 97.769 106.394 97.433L106.407 90.5691L101.008 90.4852L100.995 97.3492C100.994 97.6852 100.833 97.9387 100.513 98.1097C100.193 98.2647 99.8327 98.3391 99.4328 98.3329ZM118.79 98.6337C118.406 98.6277 118.046 98.5421 117.71 98.3769C117.391 98.1959 117.231 97.9375 117.232 97.6015L117.262 82.0495C117.263 81.7135 117.423 81.468 117.744 81.3129C118.08 81.1582 118.44 81.0838 118.824 81.0897C119.208 81.0957 119.52 81.1405 119.76 81.2243C120.015 81.3082 120.247 81.4718 120.455 81.7151C120.678 81.9426 120.909 82.2982 121.149 82.7819L125.763 91.8058L125.781 82.1819C125.782 81.8299 125.942 81.5843 126.263 81.4453C126.599 81.2905 126.959 81.2161 127.343 81.2221C127.743 81.2283 128.103 81.3139 128.422 81.4789C128.742 81.6278 128.902 81.8783 128.901 82.2303L128.871 97.7823C128.87 98.1183 128.709 98.3718 128.389 98.5428C128.069 98.6979 127.709 98.7723 127.309 98.7661C126.941 98.7603 126.597 98.683 126.277 98.534C125.974 98.3853 125.726 98.1255 125.535 97.7545L120.37 88.0259L120.352 97.6499C120.351 97.9859 120.19 98.2394 119.87 98.4105C119.55 98.5655 119.19 98.6399 118.79 98.6337ZM137.23 99.0642C136.174 99.0478 135.223 98.857 134.375 98.4919C133.528 98.1107 132.849 97.5161 132.339 96.7082C131.845 95.8845 131.599 94.8006 131.601 93.4566L131.614 86.8086C131.617 85.4646 131.867 84.3965 132.365 83.6042C132.878 82.7961 133.551 82.2226 134.384 81.8835C135.232 81.5287 136.193 81.3596 137.264 81.3763C138.32 81.3927 139.272 81.5915 140.119 81.9726C140.982 82.3381 141.661 82.9326 142.155 83.7563C142.65 84.564 142.896 85.6399 142.893 86.9839L142.88 93.6319C142.877 94.9759 142.627 96.052 142.13 96.8603C141.632 97.6526 140.951 98.226 140.087 98.5806C139.238 98.9194 138.286 99.0806 137.23 99.0642ZM137.235 96.3282C138.019 96.3404 138.636 96.126 139.084 95.6849C139.533 95.2439 139.759 94.5434 139.76 93.5834L139.773 86.9354C139.775 85.9754 139.553 85.2679 139.106 84.813C138.659 84.358 138.043 84.1244 137.259 84.1123C136.475 84.1001 135.859 84.3145 135.41 84.7555C134.977 85.1968 134.76 85.8975 134.758 86.8575L134.745 93.5055C134.743 94.4655 134.958 95.1728 135.389 95.6275C135.836 96.0825 136.451 96.316 137.235 96.3282ZM146.796 94.2207C146.476 94.2157 146.196 94.1394 145.956 93.9917C145.717 93.8439 145.597 93.6101 145.598 93.2901C145.6 92.2341 145.578 91.0897 145.532 89.857C145.487 88.6242 145.433 87.3914 145.372 86.1584C145.326 84.9256 145.304 83.7812 145.306 82.7252C145.307 82.3092 145.452 81.9915 145.74 81.772C146.029 81.5364 146.389 81.422 146.821 81.4287C147.221 81.435 147.564 81.5603 147.852 81.8048C148.155 82.0335 148.307 82.3559 148.306 82.7719C148.304 83.8279 148.278 84.9715 148.227 86.2027C148.177 87.434 148.119 88.6651 148.052 89.8961C148.002 91.1274 147.976 92.271 147.973 93.327C147.973 93.647 147.836 93.8769 147.564 94.0167C147.292 94.1564 147.036 94.2244 146.796 94.2207ZM146.81 99.2131C146.346 99.2059 145.955 99.0398 145.635 98.7148C145.332 98.3741 145.181 97.9877 145.181 97.5557C145.182 97.1077 145.335 96.7261 145.64 96.4108C145.96 96.0958 146.353 95.9419 146.816 95.9491C147.248 95.9558 147.624 96.1216 147.943 96.4466C148.263 96.7716 148.422 97.1581 148.421 97.6061C148.42 98.0381 148.26 98.4196 147.939 98.7506C147.618 99.0656 147.242 99.2198 146.81 99.2131Z" fill="#FF0082"/>
</g>
</g>
<defs>
<filter id="filter0_d_838_1833" x="4.55786" y="32.8535" width="209.481" height="174.862" filterUnits="userSpaceOnUse" color-interpolation-filters="sRGB">
<feFlood flood-opacity="0" result="BackgroundImageFix"/>
<feColorMatrix in="SourceAlpha" type="matrix" values="0 0 0 0 0 0 0 0 0 0 0 0 0 0 0 0 0 0 127 0" result="hardAlpha"/>
<feOffset dx="5" dy="5"/>
<feComposite in2="hardAlpha" operator="out"/>
<feColorMatrix type="matrix" values="0 0 0 0 0.992157 0 0 0 0 0.709804 0 0 0 0 0.556863 0 0 0 1 0"/>
<feBlend mode="normal" in2="BackgroundImageFix" result="effect1_dropShadow_838_1833"/>
<feBlend mode="normal" in="SourceGraphic" in2="effect1_dropShadow_838_1833" result="shape"/>
</filter>
</defs>
</svg>
