<svg width="112" height="107" viewBox="0 0 112 107" fill="none" xmlns="http://www.w3.org/2000/svg">
<g filter="url(#filter0_d_838_3405)">
<path d="M104.897 23.1039C102.887 24.1146 100.851 25.0685 98.7491 25.8734C98.0409 26.145 97.3287 26.4071 96.616 26.6569C96.5279 27.536 96.4403 28.4201 96.3522 29.3037C97.8342 28.6912 99.2896 28.0174 100.728 27.2997C101.541 26.8931 102.315 26.4116 103.107 25.9611C103.257 25.8779 103.406 25.7946 103.555 25.7159C103.59 25.7598 103.626 25.8036 103.661 25.8475C103.538 25.9611 103.423 26.0877 103.287 26.1844C102.922 26.4381 102.553 26.6962 102.17 26.915C100.284 27.9955 98.3312 28.923 96.3172 29.702C96.2291 30.5552 96.141 31.4124 96.0535 32.2701C97.3462 31.7712 98.626 31.2374 99.8702 30.612C101.018 30.0389 102.148 29.4264 103.177 28.6519C103.243 28.6035 103.327 28.5731 103.402 28.5383C103.437 28.5731 103.472 28.6125 103.507 28.6474C103.388 28.7655 103.287 28.9055 103.151 28.9972C102.465 29.4742 101.792 29.9776 101.071 30.3977C99.4613 31.3291 97.7636 32.0423 96.0179 32.6374C95.9258 33.5474 95.8332 34.462 95.7496 35.3765C97.2406 34.8118 98.7096 34.1819 100.134 33.4467C100.974 33.0137 101.797 32.5502 102.632 32.1081C102.773 32.0339 102.918 31.8938 103.111 32.0119C102.412 32.8955 98.8327 34.6194 95.7101 35.7787C95.6751 36.142 95.644 36.5098 95.609 36.8726C95.5474 37.4767 95.4814 38.0802 95.4113 38.6798C96.7306 38.2815 98.0234 37.7956 99.2812 37.236C100.336 36.7635 101.401 36.295 102.228 35.4462C102.245 35.4288 102.293 35.4378 102.355 35.4333C102.469 35.665 102.346 35.84 102.187 35.9716C101.902 36.2078 101.603 36.4395 101.286 36.6319C99.8397 37.4941 98.2781 38.1021 96.6951 38.6449C96.2557 38.7934 95.8112 38.9379 95.3673 39.0645C95.2176 40.2417 95.0459 41.4099 94.8528 42.5736C97.3942 41.7423 99.8832 40.7884 102.135 39.2613C102.17 39.2968 102.209 39.3361 102.245 39.371C102.144 39.4976 102.064 39.655 101.937 39.7473C101.611 39.992 101.282 40.2417 100.921 40.4385C98.9734 41.5106 96.9153 42.3109 94.7912 42.9369C94.6331 43.8728 94.4614 44.8048 94.2767 45.7323C96.9633 44.8358 99.6635 43.9865 102.144 42.5607C102.166 42.591 102.187 42.6175 102.206 42.6478C102.161 42.7311 102.135 42.8402 102.069 42.8886C101.797 43.0854 101.519 43.2913 101.225 43.4488C99.9758 44.1091 98.6695 44.6344 97.3242 45.072C96.2862 45.4128 95.2487 45.7497 94.2061 46.0867C93.9909 47.1677 93.7577 48.2481 93.516 49.3247C96.097 48.5502 98.6125 47.6008 100.895 46.004C100.961 46.3364 100.754 46.4804 100.578 46.603C100.125 46.9179 99.668 47.2329 99.184 47.4956C97.4694 48.4276 95.6485 49.1098 93.7667 49.6177C93.6521 49.6481 93.5425 49.679 93.4279 49.7049C93.1861 50.7724 92.9309 51.8399 92.6761 52.912C95.4729 51.8315 98.1731 50.5277 100.847 49.1537C100.851 49.1492 100.869 49.1756 100.882 49.1885C100.165 50.0463 95.9123 52.0368 92.588 53.2708C92.2932 54.4829 91.9899 55.695 91.6821 56.911C92.5835 56.6224 93.4849 56.3333 94.3823 56.0274C95.3758 55.6905 96.3432 55.2613 97.2977 54.8198C97.8432 54.5661 98.3532 54.2247 98.8542 53.8878C99.1004 53.7258 99.2941 53.4851 99.5359 53.2624C99.7341 53.354 99.7341 53.5025 99.655 53.6296C99.5449 53.8091 99.4173 53.984 99.2591 54.1195C98.63 54.6578 97.9048 55.0431 97.1525 55.3755C95.3362 56.1803 93.4719 56.8277 91.5681 57.366C91.2817 58.4948 90.9959 59.6282 90.7102 60.7654C93.1201 59.9257 95.4418 58.8582 97.667 57.5499C97.6806 57.5409 97.7201 57.5803 97.7506 57.6022C97.0294 58.5826 93.5775 60.2142 90.5961 61.234C90.3233 62.3189 90.055 63.4123 89.7913 64.5108C90.4069 64.283 91.018 64.0468 91.6251 63.8021C92.4339 63.4736 93.2432 63.1412 94.0389 62.7739C94.8483 62.4016 95.644 61.9949 96.4358 61.5838C97.2011 61.1901 97.9133 60.7002 98.7051 60.3498C97.9839 61.4392 93.1511 63.7492 89.7032 64.8955C89.6151 65.2718 89.523 65.648 89.4349 66.0288C89.2372 66.8646 89.039 67.7004 88.8368 68.5272C89.0305 68.453 89.2237 68.3697 89.4129 68.282C91.0536 67.5429 92.6891 66.7904 94.2942 65.9765C95.134 65.5519 95.8993 64.9922 96.6996 64.4933C96.8142 64.423 96.9283 64.3533 97.135 64.2307C97.091 64.423 97.1 64.5372 97.043 64.598C96.8797 64.7819 96.7131 64.9832 96.5104 65.1143C95.9343 65.4996 95.3628 65.9062 94.7426 66.2127C93.0675 67.044 91.3698 67.8315 89.6766 68.6234C89.3688 68.7679 89.048 68.8816 88.7227 68.9687C88.485 69.9361 88.2478 70.894 88.0015 71.8524C90.2132 71.1257 92.3463 70.2073 94.4128 69.1223C95.3012 68.6538 96.1585 68.1464 96.8622 67.4243C96.8933 67.3894 96.9549 67.3849 97.0644 67.3371C97.1395 67.6565 96.9989 67.8399 96.8182 67.9845C96.4183 68.3129 96.0354 68.6673 95.5915 68.9294C93.1731 70.3647 90.6181 71.4671 87.9134 72.1893C87.6581 73.1865 87.3989 74.1753 87.1352 75.1596C87.5966 74.9982 88.0586 74.8317 88.516 74.6568C89.8263 74.1534 91.1411 73.6286 92.3943 72.9987C93.6216 72.3862 94.7782 71.6336 96.0224 70.9902C95.9434 71.0864 95.8773 71.2045 95.7762 71.2793C95.1826 71.7298 94.615 72.2326 93.9734 72.6089C91.7878 73.8997 89.4569 74.8272 87.0341 75.5185C86.7042 76.7395 86.3699 77.9555 86.0271 79.1676C88.3618 78.2969 90.6136 77.2514 92.7417 75.9431C93.3618 75.5623 93.9158 75.0809 94.5054 74.6478C94.5975 74.578 94.7121 74.5342 94.8132 74.4774C94.8573 74.5167 94.8968 74.5516 94.9409 74.591C94.8307 74.7575 94.7472 74.9498 94.602 75.0809C94.3033 75.3565 93.9864 75.6236 93.6475 75.8509C91.2597 77.4437 88.6872 78.6558 85.9435 79.5045C85.939 79.5045 85.9345 79.5045 85.9299 79.509C84.4175 84.8028 82.7378 89.9959 80.7894 95.207C80.7939 95.207 80.7939 95.2025 80.7984 95.2025C83.7708 94.1614 86.6336 92.8751 89.2852 91.1641C90.4905 90.3857 91.594 89.484 92.5044 88.3642C92.7241 88.0931 92.9308 87.7821 93.0455 87.4542C93.3358 86.6139 93.5685 85.7567 93.8238 84.9035C95.4684 79.4387 96.8797 73.9087 98.2781 68.3737C99.7911 62.3932 101.137 56.3727 102.28 50.3089C102.913 46.9354 103.507 43.5579 104.035 40.1674C104.483 37.3057 104.831 34.4271 105.187 31.5479C105.46 29.3606 105.675 27.1642 105.908 24.9723C106 24.1062 106.079 23.2394 106.172 22.299C105.684 22.623 105.306 22.8941 104.897 23.1039ZM91.3393 87.3012C89.1401 88.7276 86.9064 90.0881 84.3955 90.9149C83.8719 91.0898 83.868 91.0898 83.4325 91.0111C84.2198 90.6658 84.967 90.3592 85.6973 90.0139C86.436 89.6635 87.1702 89.2962 87.8914 88.9109C88.6126 88.5262 89.3118 88.0931 90.033 87.7078C90.7412 87.3271 91.3613 86.7978 92.0735 86.426C92.1131 86.4828 92.1481 86.5351 92.1876 86.5919C91.9018 86.8287 91.6426 87.0998 91.3393 87.3012ZM83.4766 88.4559C83.472 88.4385 83.4675 88.4255 83.472 88.4081C83.472 88.3907 83.4766 88.3687 83.485 88.3597C83.5421 88.3203 83.6036 88.281 83.6652 88.2545C85.7498 87.3664 87.7773 86.3692 89.7518 85.2578C90.7633 84.6892 91.7657 84.1115 92.7682 83.5384C92.7993 83.521 92.8343 83.521 92.8693 83.5165C92.8829 83.5165 92.9004 83.5294 92.9619 83.5558C92.2142 84.6717 84.8704 88.4514 83.4766 88.4559ZM93.8283 80.9483C93.2257 81.4163 92.6321 81.9062 91.9899 82.3179C89.8438 83.674 87.5175 84.6717 85.1652 85.6122C85.0856 85.6431 84.9935 85.6515 84.91 85.669C84.897 85.669 84.8834 85.647 84.8089 85.5902C88.01 83.976 91.3037 82.589 94.1225 80.3707C94.1581 80.4056 94.1931 80.441 94.2281 80.4759C94.092 80.6334 93.9864 80.8257 93.8283 80.9483ZM94.4173 77.8245C94.1931 78.0517 93.9644 78.284 93.7052 78.4674C91.3828 80.139 88.8679 81.4208 86.0932 82.1778C85.904 82.2302 85.7102 82.2695 85.5171 82.2999C85.4335 82.3134 85.3454 82.2915 85.1342 82.2785C85.3189 82.1818 85.3934 82.125 85.477 82.0991C88.3573 81.1407 91.075 79.8589 93.5555 78.0956C93.8017 77.9207 94.013 77.6974 94.2417 77.5005C94.3292 77.4263 94.4218 77.356 94.5359 77.2688C94.659 77.527 94.5495 77.6929 94.4173 77.8245Z" fill="#CF7044"/>
<path d="M85.4244 79.6356C85.3409 79.6491 85.2527 79.6401 85.0285 79.6401C85.2087 79.522 85.2748 79.4562 85.3538 79.4304C85.5786 79.3516 85.8068 79.2684 86.031 79.1851C86.3744 77.9775 86.7087 76.7615 87.0386 75.536C86.3258 75.7373 85.6001 75.9212 84.8749 76.0877C84.7958 76.1052 84.7122 76.0877 84.6326 76.0877C84.6287 76.0658 84.6242 76.0439 84.6196 76.0219C85.4549 75.7334 86.2993 75.4572 87.1351 75.1687C87.3989 74.1844 87.6581 73.1911 87.9134 72.1978C87.4559 72.3204 86.9985 72.4301 86.537 72.5302C86.4314 72.5522 86.3258 72.5657 86.2202 72.5741C86.1897 72.5786 86.1547 72.5567 86.0135 72.5128C86.2072 72.4341 86.3173 72.3727 86.4359 72.3379C86.9589 72.1894 87.4825 72.0274 87.997 71.8564C88.2387 70.9031 88.4804 69.9402 88.7182 68.9733C88.2873 69.0875 87.8473 69.1617 87.3989 69.2095C87.1837 69.2315 86.9855 69.2405 86.7483 69.0042C87.5135 68.9559 88.1862 68.772 88.8238 68.5273C89.026 67.7005 89.2237 66.8647 89.4219 66.0289C89.5094 65.6481 89.5975 65.2718 89.6902 64.8956C88.3974 65.3247 87.2978 65.5913 86.6867 65.5694C87.4955 65.2983 88.3138 65.0401 89.1186 64.7516C89.3428 64.6728 89.5625 64.5896 89.7822 64.5063C90.046 63.4039 90.3142 62.3145 90.587 61.2295C88.6787 61.8814 86.9589 62.2796 86.2733 62.0912C86.3699 62.0434 86.4184 62.004 86.4755 61.9905C87.9134 61.6536 89.3208 61.247 90.7017 60.7655C90.9874 59.6237 91.2732 58.4904 91.559 57.3661C90.4244 57.6855 89.2767 57.9701 88.1201 58.2193C88.0365 58.2367 87.9529 58.2412 87.8078 58.2587C87.9264 58.0179 88.1201 58.0309 88.2607 57.9876C89.3953 57.6242 90.5385 57.2699 91.6731 56.9065C91.9809 55.6905 92.2847 54.4784 92.579 53.2664C90.8508 53.9053 89.3688 54.3429 88.7707 54.3035C88.8238 54.2597 88.8503 54.2118 88.8938 54.1983C90.1736 53.8221 91.4268 53.389 92.6671 52.912C92.9263 51.8445 93.1771 50.777 93.4193 49.7049C92.3768 49.9766 91.3212 50.1954 90.2662 50.4356C90.09 50.4749 89.9053 50.4794 89.7252 50.4969C89.7161 50.4575 89.7077 50.4181 89.7031 50.3788C90.9739 50.0334 92.2491 49.701 93.5069 49.3202C93.7492 48.2437 93.9773 47.1632 94.1976 46.0828C93.3533 46.3584 92.5089 46.6295 91.6646 46.9006C91.4534 46.9709 91.2292 47.0013 91.0134 47.0496C91.0049 47.0013 90.9914 46.949 90.9829 46.9006C92.0645 46.4765 93.1641 46.1002 94.2676 45.7324C94.4523 44.8049 94.624 43.8729 94.7822 42.937C94.5754 42.9977 94.3732 43.0551 94.1665 43.1119C93.3928 43.3262 92.61 43.4921 91.8273 43.6716C91.7216 43.698 91.603 43.6761 91.4844 43.6367C92.6055 43.2778 93.7271 42.937 94.8437 42.5692C95.0374 41.41 95.2091 40.2418 95.3582 39.0606C94.0609 39.4408 92.7416 39.7344 91.4008 39.9442C91.2597 39.9662 91.119 39.9706 90.9739 39.9746C90.9479 39.9746 90.9214 39.9352 90.8773 39.9003C92.1966 39.546 93.5069 39.2091 94.8042 38.8503C95.0024 38.7934 95.2046 38.7366 95.4023 38.6753C95.4774 38.0758 95.5429 37.4723 95.6005 36.8682C95.631 36.5009 95.666 36.1376 95.7016 35.7748C93.8723 36.457 92.2011 36.943 91.3653 36.9469C91.4884 36.7675 91.6691 36.7675 91.8227 36.7197C93.1421 36.304 94.4484 35.862 95.7366 35.3721C95.8247 34.4575 95.9123 33.543 96.0049 32.6329C95.2221 32.8956 94.4348 33.1363 93.6345 33.3596C93.5684 33.3771 93.4939 33.39 93.4233 33.3945C93.3928 33.399 93.3578 33.3771 93.2166 33.3377C93.4233 33.246 93.5464 33.1802 93.6786 33.1318C94.4698 32.8517 95.2571 32.5632 96.0399 32.2657C96.128 31.4079 96.2161 30.5508 96.3036 29.6975C95.0459 30.1829 93.7667 30.6076 92.4558 30.9749C92.3067 31.0187 92.1526 31.0407 91.9374 31.089C92.0385 30.8264 92.2407 30.8393 92.3858 30.7915C93.7271 30.3404 95.0459 29.846 96.3477 29.3083C96.4403 28.4241 96.5279 27.545 96.6114 26.6609C89.9144 29.0192 83.0016 30.4805 75.9476 31.3511C73.5733 31.6442 71.1854 31.863 68.7975 32.0204C66.0138 32.2089 63.2261 32.336 60.4378 32.4102C57.131 32.5019 53.8237 32.4187 50.517 32.2482C47.3554 32.0862 44.1978 31.8894 41.0582 31.4867C38.4721 31.1543 35.8866 30.8174 33.3186 30.3713C28.6349 29.5575 24.0218 28.4596 19.4709 27.0765C14.8929 25.6856 10.3634 24.1675 6.09767 21.9532C6.03159 21.9183 5.94857 21.9183 5.86046 21.8964C5.85594 21.9925 5.84691 22.0454 5.85142 22.0932C6.08016 24.4296 6.29138 26.766 6.54609 29.1025C6.8234 31.6661 7.06964 34.2348 7.45199 36.7855C8.07663 40.9156 8.73176 45.0456 9.49703 49.1492C10.6187 55.1961 11.8804 61.216 13.4284 67.1752C14.7697 72.3379 16.1371 77.4922 17.5049 82.6459C17.9138 84.1904 18.3583 85.7258 18.7977 87.2658C18.8508 87.4452 18.9474 87.6337 19.075 87.7692C19.4969 88.2287 19.9103 88.6967 20.3768 89.1123C21.6521 90.2457 23.103 91.1208 24.594 91.9342C28.1379 93.8594 31.8981 95.2509 35.7855 96.3049C39.91 97.4253 44.0967 98.2302 48.3669 98.5626C50.574 98.7336 52.7908 98.8866 55.0024 98.9608C58.151 99.066 61.2996 98.9608 64.4307 98.6284C66.6644 98.3922 68.8941 98.0643 71.1148 97.688C74.404 97.1278 77.6407 96.3269 80.7939 95.22C82.7418 90.005 84.422 84.8158 85.9344 79.522C85.7673 79.5743 85.5961 79.6053 85.4244 79.6356ZM84.9054 61.5749C84.1582 61.9073 83.4189 62.2796 82.6407 62.5243C80.5476 63.1806 78.393 63.4652 76.1983 63.4518C76.0136 63.4518 75.8289 63.4259 75.6358 63.3471C78.9516 62.9748 82.2803 62.6992 85.3279 60.9888C85.3104 61.3606 85.1036 61.4877 84.9054 61.5749ZM87.8914 46.4017C86.6997 46.9445 85.4335 47.2549 84.1757 47.5963C81.7743 48.2437 79.3249 48.6245 76.867 48.9614C76.6998 48.9833 76.5236 48.9659 76.3305 48.8826C76.4141 48.8478 76.4886 48.7994 76.5767 48.7865C79.9365 48.2178 83.2783 47.5615 86.5455 46.5637C86.9725 46.4326 87.3859 46.2661 87.8078 46.1177C87.9659 46.0608 88.1331 46.017 88.2957 45.9686C88.3223 46.0254 88.3488 46.0783 88.3754 46.1351C88.2127 46.2223 88.0585 46.3274 87.8914 46.4017ZM77.3024 32.8304C77.4736 32.8169 77.6407 32.7949 77.8124 32.791C80.4686 32.7556 83.0716 32.314 85.6487 31.7235C86.3653 31.557 87.0606 31.3337 87.6801 30.927C87.7242 30.8961 87.7728 30.8742 87.8253 30.8612C87.8563 30.8528 87.8959 30.8657 87.9529 30.8702C88.0806 31.0975 87.9354 31.2375 87.7637 31.3253C87.4034 31.5176 87.0425 31.7364 86.6511 31.8416C85.6882 32.0992 84.7123 32.318 83.7358 32.5193C81.7303 32.935 79.6988 33.0402 77.6582 32.9963C77.5396 32.9918 77.4211 32.9699 77.2979 32.9569C77.2979 32.913 77.2979 32.8697 77.3024 32.8304ZM88.6741 32.8304C88.6696 33.1712 88.4629 33.2983 88.2743 33.4119C87.9659 33.5869 87.6496 33.7578 87.3198 33.8934C84.6021 35.0003 81.7879 35.6825 78.8414 35.7658C78.5026 35.7748 78.1598 35.7658 77.8209 35.7484C77.7334 35.7439 77.6407 35.696 77.5572 35.6347C81.414 35.3501 85.1471 34.624 88.6741 32.8304ZM76.3525 39.244C77.7289 38.9554 79.1097 38.6843 80.4815 38.3694C81.8715 38.0454 83.2563 37.691 84.6326 37.3232C85.983 36.9649 87.3153 36.5403 88.6035 35.8181C88.6391 36.1989 88.4544 36.3125 88.2698 36.3957C87.7157 36.6455 87.1747 36.9295 86.5986 37.1134C83.8103 38.0105 80.974 38.7321 78.0717 39.1697C77.7023 39.2265 77.3329 39.2923 76.9591 39.3317C76.7614 39.3536 76.5547 39.3362 76.3525 39.3362C76.348 39.3098 76.3525 39.2788 76.3525 39.244ZM87.4164 39.1039C87.4034 39.3795 87.2232 39.4498 87.082 39.5241C86.2778 39.9397 85.4905 40.4122 84.6462 40.7316C82.3154 41.6198 79.8925 42.1057 77.39 42.1845C77.1528 42.1929 76.9111 42.1625 76.6733 42.149C76.6778 42.1186 76.6778 42.0877 76.6823 42.0573C77.909 41.8695 79.1402 41.7249 80.3539 41.4752C81.5721 41.2215 82.7903 40.933 83.969 40.5348C85.1341 40.1456 86.2422 39.5983 87.4164 39.1039ZM76.326 45.6846C76.3305 45.6671 76.3389 45.6452 76.3525 45.6452C80.6002 45.0237 84.7032 43.838 88.7668 42.4904C88.7843 42.4859 88.8148 42.5253 88.8368 42.5472C87.6276 43.6322 78.2563 46.0215 76.3214 45.7414C76.326 45.7194 76.3214 45.702 76.326 45.6846ZM87.3898 48.8084C87.4559 48.791 87.544 48.8523 87.7067 48.9046C86.5416 49.5784 76.8275 52.1375 75.9346 51.9626C79.7519 50.9086 83.5686 49.854 87.3898 48.8084ZM76.0447 54.1196C78.4455 53.7782 80.8379 53.3626 83.1817 52.7287C84.1051 52.4789 84.998 52.0982 85.9039 51.7832C86.0225 51.7399 86.1502 51.7219 86.2778 51.6915C86.2993 51.7264 86.3213 51.7613 86.3433 51.8006C86.2558 51.8974 86.1897 52.0194 86.0841 52.0762C85.7232 52.2692 85.3629 52.466 84.9805 52.6106C83.3223 53.2315 81.5896 53.5774 79.853 53.9053C78.6743 54.1286 77.4956 54.3035 76.2954 54.33C76.1238 54.3339 75.9476 54.33 75.7764 54.33C75.7719 54.2945 75.7629 54.2597 75.7589 54.2248C75.8465 54.1854 75.9436 54.137 76.0447 54.1196ZM75.4771 57.0117C77.399 57.0292 79.2854 56.7361 81.1587 56.3643C82.421 56.1107 83.6477 55.7209 84.8173 55.1826C85.0856 55.0606 85.3188 54.8547 85.578 54.7102C85.6662 54.6624 85.7938 54.6927 85.9039 54.6882C85.8864 54.785 85.8994 54.9205 85.8424 54.9683C85.6357 55.1348 85.4154 55.2923 85.1782 55.4104C83.96 56.0229 82.6627 56.4256 81.3349 56.7097C79.6022 57.0815 77.839 57.2434 76.0622 57.2215C75.86 57.2176 75.6618 57.1647 75.4596 57.1343C75.4686 57.0905 75.4731 57.0511 75.4771 57.0117ZM77.8915 60.1007C78.7138 59.9516 79.5361 59.7767 80.35 59.5844C81.1457 59.3959 81.9415 59.1861 82.7243 58.9544C83.5161 58.7182 84.2898 58.4381 85.0856 58.1754C85.1341 58.4555 84.9449 58.5078 84.8134 58.5691C84.3734 58.766 83.938 58.9719 83.4805 59.1164C81.6472 59.7025 79.7824 60.1879 77.8695 60.468C77.1833 60.5686 76.4841 60.5816 75.7894 60.6254C75.6663 60.6344 75.5387 60.5816 75.4291 60.4815C76.2514 60.3544 77.0737 60.2492 77.8915 60.1007ZM62.698 80.292C62.1835 80.3443 61.669 80.4056 61.1545 80.445C60.8952 80.4669 60.6354 80.4495 60.3762 80.4495C60.3717 80.4056 60.3672 80.3618 60.3632 80.3185C60.9393 80.2397 61.5154 80.1739 62.0914 80.0862C64.5629 79.7144 67.0162 79.2729 69.4352 78.6469C69.4702 78.6384 69.5052 78.603 69.5363 78.612C69.6419 78.6469 69.7475 78.6907 69.8486 78.7301C69.7915 78.8088 69.7514 78.914 69.6769 78.9618C69.5758 79.0276 69.4482 79.058 69.325 79.0844C67.1354 79.5878 64.9407 80.0687 62.698 80.292ZM69.2239 84.6673C69.1099 84.912 68.8591 84.9868 68.6394 85.052C67.9221 85.2708 67.2055 85.4896 66.4797 85.6645C64.8616 86.0543 63.2125 86.2377 61.5459 86.2557C61.3747 86.2557 61.1985 86.2557 60.9393 86.2557C61.0489 86.1376 61.0664 86.0937 61.0929 86.0892C63.8242 85.8265 66.5283 85.4109 69.1624 84.6105C69.1669 84.606 69.1799 84.6324 69.2239 84.6673ZM42.5221 56.6484C40.869 56.5128 39.2244 56.325 37.5752 56.1365C37.1793 56.0927 36.7659 56.0404 36.3791 55.7518C36.4801 55.699 36.5112 55.6686 36.5372 55.6731C39.7869 56.1585 43.0631 56.316 46.3303 56.5961C46.3569 56.5961 46.3789 56.6399 46.4715 56.7361C46.2778 56.7581 46.1372 56.7929 45.9966 56.7884C44.8399 56.7491 43.6787 56.7406 42.5221 56.6484ZM45.2838 59.059C45.1697 59.2958 44.976 59.3133 44.7913 59.3481C43.7098 59.545 42.6192 59.5186 41.5286 59.4353C40.2619 59.3391 39.0086 59.1468 37.8085 58.6962C37.6057 58.622 37.3555 58.6001 37.2144 58.2761C39.9061 58.915 42.5531 59.3611 45.2838 59.059ZM45.6227 53.9447C45.6712 54.2422 45.4775 54.299 45.2799 54.321C44.963 54.3558 44.6377 54.4042 44.3209 54.3868C42.9355 54.299 41.5462 54.2158 40.1608 54.0718C38.9386 53.9447 37.7289 53.7085 36.5462 53.3586C36.3881 53.3102 36.2339 53.2444 36.0978 53.1224C39.2594 53.6033 42.4035 54.159 45.6227 53.9447ZM36.9065 50.7247C39.7389 51.2236 42.5797 51.381 45.451 51.1403C44.8309 51.6083 42.1708 51.7528 39.9851 51.5031C38.9205 51.385 37.852 51.3107 36.9065 50.7247ZM59.5409 39.1652C58.6921 39.2788 57.8432 39.4189 56.9904 39.4543C54.5585 39.5634 52.1311 39.4718 49.7167 39.1433C48.7798 39.0167 47.8563 38.8064 46.9284 38.623C46.7262 38.5837 46.537 38.4914 46.3569 38.3604C48.6216 38.7102 50.8909 38.9599 53.1776 39.0735C55.4774 39.1872 57.7726 39.222 60.0509 38.8024C60.0684 38.8458 60.0814 38.8896 60.0989 38.938C59.9103 39.0167 59.7296 39.1394 59.5409 39.1652ZM60.174 41.4578C60.139 41.8301 59.8967 41.9089 59.655 41.9347C58.9649 42.018 58.2741 42.0967 57.5795 42.1406C55.2046 42.2981 52.8303 42.2891 50.4599 42.1361C49.2508 42.0573 48.0501 41.8734 46.8494 41.7294C46.7398 41.7159 46.6342 41.6507 46.5286 41.5236C46.6206 41.5106 46.7133 41.4752 46.8014 41.4842C49.5055 41.712 52.2147 41.856 54.9324 41.8211C56.3963 41.8037 57.8562 41.6985 59.3167 41.6197C59.5844 41.6068 59.8397 41.5236 60.174 41.4578ZM46.3659 65.1931C44.5891 65.3815 38.327 64.5153 37.5267 63.9461C37.6809 63.9461 37.7819 63.9332 37.8785 63.9461C40.6708 64.4321 43.4811 64.7555 46.2953 65.062C46.3128 65.0665 46.3264 65.1189 46.3659 65.1931ZM39.9456 66.7201C40.9435 66.9041 41.9505 67.0526 42.962 67.1667C43.9515 67.2758 44.9455 67.3197 46.0186 67.3985C44.884 67.9845 38.2434 67.0222 37.0828 66.0902C38.0327 66.3045 38.9821 66.5452 39.9456 66.7201ZM40.0026 69.4941C41.0141 69.6123 42.0256 69.7039 43.0326 69.8395C44.0086 69.9666 44.998 69.997 45.9966 70.2338C45.8074 70.5307 45.5696 70.4481 45.3764 70.4346C44.5586 70.3777 43.7363 70.3254 42.9225 70.2248C41.401 70.0363 39.8795 69.822 38.3625 69.5948C37.9181 69.529 37.4651 69.4548 37.0737 69.1747C38.0632 69.2056 39.0261 69.3805 40.0026 69.4941ZM41.5462 74.6175C40.1653 74.3812 38.7889 74.1186 37.5662 73.3795C40.2268 74.1405 42.918 74.6743 45.6927 74.7705C45.2488 75.0461 43.6567 74.9763 41.5462 74.6175ZM45.1652 77.2166C45.1607 77.2734 45.1567 77.3302 45.1477 77.387C42.9795 77.3167 40.8074 77.2992 38.7449 76.446C38.8635 76.455 38.9866 76.446 39.1013 76.4769C40.6753 76.91 42.2804 77.1069 43.912 77.1114C44.3299 77.1069 44.7473 77.1772 45.1652 77.2166ZM45.429 72.5392C44.4705 72.9639 37.7904 71.9093 36.9376 71.2045C39.7914 71.6556 42.5752 72.0932 45.429 72.5392ZM45.935 82.2173C45.8339 82.458 45.6712 82.5058 45.495 82.5148C45.2093 82.5323 44.9235 82.5542 44.6422 82.5452C42.5486 82.4884 40.4861 82.1954 38.4416 81.7662C37.9446 81.6616 37.4476 81.5345 37.0212 81.1891C39.9541 81.7229 42.892 82.2347 45.935 82.2173ZM46.0095 84.5841C45.0466 84.9648 38.6438 84.1949 37.6323 83.521C40.359 84.0284 43.1247 84.291 45.8909 84.4834C45.9305 84.4879 45.9655 84.5447 46.0095 84.5841ZM46.0141 86.5003C45.0551 86.903 38.0412 86.3603 37.2014 85.8575C40.1783 86.0717 43.0942 86.286 46.0141 86.5003ZM37.7159 78.6165C39.2905 79.1154 40.7854 79.4388 42.2979 79.6137C43.8109 79.7886 45.3324 79.8854 46.8494 80.0384C45.2443 80.4669 38.9956 79.8415 37.7159 78.6165ZM46.7968 66.8208C46.8804 66.7905 46.92 66.755 46.942 66.764C48.1907 67.3107 49.5365 67.3895 50.8598 67.5604C53.063 67.8405 55.2797 67.9013 57.4959 67.8973C57.9398 67.8973 58.3888 67.858 58.8327 67.8405C58.9293 67.836 59.0264 67.858 59.123 67.8709C59.1275 67.9193 59.136 67.9716 59.1405 68.0194C58.9733 68.0503 58.8062 68.1026 58.639 68.1071C57.9093 68.1336 57.1751 68.1774 56.4403 68.1594C54.9584 68.1246 53.4719 68.0942 51.9944 67.9845C50.8028 67.8973 49.6156 67.7264 48.4369 67.5385C47.9885 67.4682 47.5621 67.2494 47.1312 67.079C47.012 67.0306 46.92 66.9215 46.7968 66.8208ZM60.2441 56.9853C58.1685 57.0292 56.0975 57.073 54.022 57.0905C52.4124 57.1034 50.8073 56.9723 49.2242 56.6748C48.8679 56.609 48.4985 56.5522 48.2218 56.2288C48.494 56.2766 48.7622 56.3424 49.035 56.3643C50.4424 56.4824 51.8453 56.6484 53.2567 56.6793C55.4554 56.7271 57.654 56.6877 59.8527 56.6658C60.4073 56.6619 60.9568 56.5916 61.5108 56.5567C61.5899 56.5522 61.6735 56.5657 61.8141 56.5696C61.691 56.8278 61.4888 56.8452 61.3087 56.8717C60.9568 56.9285 60.6004 56.9768 60.2441 56.9853ZM60.8687 58.6524C60.7411 58.9718 60.5168 58.9764 60.3457 59.0067C59.5229 59.1687 58.7005 59.3172 57.8698 59.4488C56.2206 59.707 54.5585 59.7199 52.9003 59.6457C51.9244 59.6018 50.9524 59.4443 49.9805 59.3088C49.7342 59.2739 49.4614 59.2345 49.2943 58.9673C53.1556 59.5534 56.9904 59.4792 60.8687 58.6524ZM54.1451 62.1874C56.2251 62.1919 58.3052 62.0389 60.4073 61.9995C60.3101 62.0434 60.2136 62.1131 60.1125 62.1221C59.1891 62.2267 58.2696 62.3539 57.3417 62.4107C54.3518 62.5856 51.3743 62.4849 48.4285 61.9073C48.2302 61.8679 48.0326 61.8027 47.8388 61.7458C47.8479 61.693 47.8609 61.6362 47.8699 61.5839C49.9454 61.9208 52.0385 62.1834 54.1451 62.1874ZM60.5304 64.3972C60.3497 64.5373 60.2706 64.6374 60.174 64.6638C59.9498 64.7206 59.7166 64.769 59.4878 64.7735C56.4494 64.8607 53.4148 64.9529 50.3764 65.0182C49.8268 65.0317 49.2728 64.9439 48.7227 64.8871C48.5425 64.8697 48.3404 64.8388 48.1907 64.6115C52.3022 64.7251 56.3528 64.5373 60.5304 64.3972ZM48.3404 69.3102C48.4285 69.3412 48.516 69.3631 48.5951 69.4064C49.2417 69.7787 49.963 69.9537 50.6887 70.0234C52.9003 70.2293 55.1171 70.2073 57.3332 70.0937C58.2611 70.0453 59.1891 69.9711 60.117 69.9098C60.2045 69.9053 60.2881 69.9182 60.3762 69.9227C60.3853 69.9711 60.3983 70.0189 60.4073 70.0673C60.1786 70.1241 59.9543 70.2028 59.7211 70.2293C56.8187 70.5313 53.9073 70.6578 50.992 70.4481C50.2002 70.3912 49.4355 70.2248 48.7538 69.7917C48.5821 69.682 48.4369 69.5335 48.2833 69.4025C48.3008 69.3715 48.3229 69.3412 48.3404 69.3102ZM69.8311 76.1839C69.2019 76.3808 68.5688 76.5686 67.9267 76.7261C65.8952 77.2295 63.8242 77.5096 61.7441 77.689C61.4668 77.711 61.1895 77.693 60.9128 77.693C60.9128 77.6361 60.9082 77.6187 60.9128 77.6013C60.9173 77.5883 60.9303 77.5664 60.9433 77.5664C64.0789 77.1727 67.1704 76.5821 70.2044 75.7024C70.2264 75.6979 70.2575 75.7373 70.3015 75.7682C70.297 76.0697 70.0287 76.1181 69.8311 76.1839ZM67.9882 73.2215C66.3306 73.6416 64.6374 73.7074 62.9358 73.6461C62.6715 73.6371 62.4038 73.5938 62.144 73.537C62.0033 73.5061 61.8757 73.4144 61.6735 73.3182C62.5178 73.3267 63.2611 73.3615 64.0043 73.3402C65.9036 73.2828 67.764 72.9678 69.5888 72.4386C69.8266 72.3688 70.0508 72.2546 70.2795 72.163C70.4597 72.0887 70.6398 72.0055 70.8245 72.1849C70.7985 72.4476 70.5743 72.4909 70.4071 72.5437C69.6069 72.78 68.8021 73.0162 67.9882 73.2215ZM65.5303 71.0954C64.4002 71.2703 63.2696 71.4278 62.1394 71.5769C61.7876 71.6247 61.4318 71.6247 61.0799 71.6511C61.0709 71.5988 61.0624 71.546 61.0579 71.4981C64.6679 70.785 68.3576 70.4087 71.836 69.1049C71.8535 69.1398 71.871 69.1702 71.8846 69.2056C71.823 69.2753 71.7745 69.3715 71.6954 69.4109C71.4271 69.5509 71.1589 69.6955 70.8731 69.7962C69.1449 70.4261 67.3506 70.8108 65.5303 71.0954ZM71.5107 66.5627C70.5743 66.8996 69.6419 67.2758 68.6829 67.5295C67.4957 67.8405 66.282 68.0633 65.0729 68.2691C64.2946 68.4047 63.5028 68.3304 62.7291 68.1949C62.5664 68.1639 62.3682 68.1555 62.2846 67.9058C62.6585 67.9367 63.0058 67.98 63.3577 67.989C64.6679 68.0239 65.9522 67.8012 67.2275 67.5211C68.7445 67.1881 70.2309 66.7595 71.6688 66.1644C71.7699 66.1206 71.8891 66.1166 72.0472 66.0857C71.9507 66.4052 71.7129 66.4884 71.5107 66.5627ZM72.0252 63.8241C71.4051 64.0429 70.794 64.305 70.1519 64.4276C67.5573 64.9175 64.9497 65.3073 62.3021 65.3596C62.0604 65.3641 61.8141 65.3596 61.5724 65.3596C61.5634 65.3247 61.5549 65.2853 61.5504 65.2499C61.6119 65.2105 61.6735 65.1453 61.7396 65.1363C63.3136 64.9529 64.8967 64.7994 66.4667 64.5896C67.8431 64.4057 69.2155 64.1694 70.5828 63.9248C71.0357 63.8415 71.4667 63.6531 71.9066 63.5131C72.0518 63.4697 72.2009 63.4259 72.346 63.382C72.3771 63.4304 72.4036 63.4827 72.4341 63.5305C72.2935 63.6312 72.1749 63.7667 72.0252 63.8241ZM64.211 55.6377C67.175 55.3795 70.0553 54.7495 72.8385 53.6955C72.9706 53.6471 73.1068 53.5555 73.2479 53.8614C72.8035 54.0499 72.3946 54.2642 71.9637 54.4042C69.6198 55.1697 67.2405 55.7777 64.7605 55.9093C64.1404 55.9397 63.5118 55.9048 62.8917 55.8919C62.8386 55.8919 62.7861 55.8216 62.6805 55.7518C63.2345 55.7125 63.7225 55.6815 64.211 55.6377ZM63.2741 52.7107C64.8396 52.6539 66.3831 52.5009 67.9046 52.1949C69.246 51.9277 70.5783 51.5734 71.8976 51.2101C72.355 51.0835 72.7684 50.8118 73.2039 50.6066C73.353 50.5362 73.4806 50.3613 73.7489 50.5452C73.6348 50.6763 73.5512 50.8383 73.4191 50.9125C73.0057 51.1533 72.5922 51.4244 72.1438 51.5734C69.5933 52.4131 66.9903 52.9953 64.2771 52.9255C63.9292 52.9165 63.5909 52.8946 63.2741 52.7107ZM70.5303 61.2295C68.6213 61.6975 66.6864 62.0124 64.7295 62.1964C64.1935 62.2442 63.6525 62.2048 63.1029 62.1525C66.4492 61.7369 69.7384 61.063 73.0237 60.1665C73.0102 60.5338 72.773 60.5816 72.5838 60.639C71.9021 60.8532 71.2204 61.063 70.5303 61.2295ZM68.9291 58.0573C67.4782 58.4117 66.0053 58.6873 64.5408 58.9848C64.3031 59.0332 64.0568 59.0112 63.8151 59.0242C63.8106 58.9893 63.8021 58.9499 63.7976 58.915C64.8882 58.6698 65.9788 58.4381 67.0648 58.1709C68.1904 57.8953 69.303 57.5849 70.4246 57.2918C71.5062 57.0072 72.5747 56.6574 73.7709 56.465C73.6128 56.8239 73.3536 56.8239 73.1508 56.8807C71.7439 57.2828 70.3456 57.712 68.9291 58.0573ZM73.4061 47.1323C72.5352 47.4478 71.6649 47.7712 70.772 48.0249C68.6699 48.62 66.5153 48.9395 64.3517 49.1712C63.7095 49.2415 63.0589 49.1802 62.4122 49.1802C62.4077 49.1453 62.4032 49.1099 62.4032 49.0795C66.3566 48.607 70.31 48.143 74.0262 46.5637C73.9381 46.9315 73.6614 47.0406 73.4061 47.1323ZM62.9617 45.4174C66.5633 44.7436 70.1609 44.1795 73.6918 43.0506C73.6213 43.392 73.3841 43.4708 73.1864 43.5405C72.5488 43.7638 71.9066 43.9955 71.2515 44.1575C69.36 44.621 67.4692 45.0721 65.5343 45.3212C64.8616 45.409 64.189 45.4877 63.5118 45.5575C63.3356 45.5704 63.1244 45.6317 62.9617 45.4174ZM70.354 41.1344C68.4587 41.5804 66.5373 41.8824 64.5759 41.8256C64.0043 41.8082 63.4367 41.7643 62.8652 41.7204C62.7511 41.712 62.641 41.6546 62.5399 41.5584C63.5689 41.5191 64.6024 41.5061 65.6269 41.4319C66.6559 41.3532 67.6895 41.2525 68.7094 41.086C69.7475 40.9201 70.7765 40.6968 71.7965 40.4431C72.7814 40.1979 73.7489 39.8874 74.8395 39.5679C74.6107 39.9572 74.325 40.0314 74.0612 40.1062C72.83 40.465 71.6033 40.8413 70.354 41.1344ZM74.4351 36.5273C74.4481 36.5667 74.4616 36.6061 74.4791 36.6455C74.404 36.6978 74.3385 36.772 74.2549 36.7984C72.1794 37.4593 70.0683 37.9751 67.9092 38.3165C66.4362 38.5482 64.9582 38.5746 63.4723 38.5398C63.217 38.5308 62.9533 38.5398 62.72 38.3694C62.7686 38.321 62.7906 38.2771 62.8126 38.2771C66.5108 38.3474 70.0903 37.6342 73.6348 36.6803C73.894 36.61 74.1668 36.5796 74.4351 36.5273ZM62.3021 34.6898C66.1194 34.7641 69.9101 34.624 73.5908 33.4642C73.6038 33.4997 73.6173 33.5345 73.6303 33.5694C73.5467 33.6397 73.4676 33.7269 73.3711 33.7753C72.6323 34.1645 71.8185 34.2955 71.0137 34.4575C68.5688 34.9435 66.0974 35.1229 63.6039 34.9913C63.1684 34.9694 62.733 34.9081 62.2936 34.8687C62.2981 34.8079 62.2981 34.7506 62.3021 34.6898ZM61.5549 54.2073C59.8397 54.2861 58.129 54.3907 56.4143 54.3997C54.2507 54.4087 52.0955 54.2203 49.9675 53.7962C49.6201 53.7259 49.2768 53.6207 48.9385 53.5161C48.8108 53.4767 48.6967 53.398 48.573 53.3367C48.5821 53.3232 48.5911 53.3057 48.5996 53.2928C49.7212 53.4632 50.8423 53.6781 51.9685 53.8001C53.1206 53.9272 54.2812 54.0015 55.4424 54.0454C56.5855 54.0892 57.7291 54.0847 58.8722 54.0583C60.0023 54.0324 61.1279 53.9537 62.2671 53.9576C62.0739 54.1854 61.8011 54.1938 61.5549 54.2073ZM61.9152 50.3484C60.6134 51.0745 50.504 51.0222 48.3404 50.5143C52.8167 50.6021 57.3022 50.7072 61.7791 50.2871C61.8186 50.2871 61.8627 50.322 61.9152 50.3484ZM59.8131 48.1346C58.3843 48.4147 56.9328 48.4102 55.4864 48.3883C53.0325 48.3489 50.6006 48.1082 48.1952 47.5963C47.9755 47.548 47.7598 47.4911 47.5576 47.3691C48.4369 47.3511 49.2903 47.548 50.1567 47.6183C51.027 47.6925 51.8979 47.7887 52.7727 47.8545C53.6656 47.9242 54.5585 47.9945 55.4508 48.012C56.3262 48.0294 57.2056 48.021 58.0765 47.9636C58.9558 47.9068 59.8267 47.7758 60.7015 47.6796C60.4818 48.0384 60.139 48.0733 59.8131 48.1346ZM60.5699 44.4461C60.4508 44.7745 60.2356 44.8049 60.0289 44.8223C59.2636 44.8966 58.5029 44.9973 57.7376 45.0192C54.8223 45.1069 51.9199 44.9624 49.026 44.5906C48.5205 44.5248 48.0235 44.4022 47.531 44.2408C51.8583 44.617 56.1766 44.9539 60.5699 44.4461ZM59.8572 36.0329C59.9673 36.0065 60.0859 36.0065 60.2311 35.9936C60.1825 36.3699 59.9012 36.4177 59.6815 36.466C59.193 36.5751 58.7005 36.6584 58.2041 36.7023C55.8998 36.8991 53.5995 36.8249 51.2998 36.6365C50.055 36.5358 48.8063 36.4441 47.5841 36.1685C47.3198 36.1072 47.034 36.0898 46.7398 35.8361C46.8934 35.8142 46.955 35.7922 47.012 35.7967C48.4855 35.9542 49.95 36.173 51.4274 36.2647C53.1381 36.3699 54.8527 36.3957 56.568 36.3957C57.4563 36.3957 58.3447 36.2692 59.2331 36.1859C59.4483 36.164 59.6505 36.0763 59.8572 36.0329ZM58.8457 34.1426C58.7802 34.3743 58.5994 34.3349 58.4588 34.3569C57.1751 34.5498 55.8908 34.475 54.6026 34.4272C53.4064 34.3788 52.2057 34.3484 51.014 34.2477C49.3959 34.1077 47.7818 33.9063 46.1637 33.7269C46.0711 33.7185 45.983 33.6701 45.8955 33.6397C50.2092 33.8276 54.4969 34.3 58.8457 34.1426ZM46.1372 48.6768C46.1722 48.9963 45.9875 48.9878 45.8339 48.9833C45.1387 48.9788 44.4395 48.9878 43.7448 48.9569C41.5111 48.8478 39.3034 48.5238 37.1048 48.1391C36.9642 48.1127 36.8275 48.0733 36.6914 48.0339C36.6473 48.021 36.6078 47.99 36.5637 47.9636C36.5683 47.9242 36.5728 47.8894 36.5812 47.85C39.7564 48.2308 42.927 48.7162 46.1372 48.6768ZM45.3674 45.9821C45.2883 46.0254 45.2138 46.0867 45.1302 46.1042C44.941 46.148 44.7433 46.1874 44.5496 46.1919C43.1027 46.2532 41.6563 46.2093 40.2139 46.0518C39.435 45.9686 38.6528 45.8899 37.874 45.7717C37.3555 45.693 36.8365 45.5665 36.4276 45.1857C39.387 45.6671 42.351 45.9337 45.3499 45.864C45.3544 45.9034 45.3629 45.9427 45.3674 45.9821ZM44.8354 43.545C43.8329 44.013 36.0713 43.2165 35.1829 42.5253C38.349 43.0287 41.5371 43.243 44.7253 43.4488C44.7608 43.4488 44.7913 43.5101 44.8354 43.545ZM35.3986 87.3974C34.6158 87.3142 33.837 87.218 33.0633 87.0999C31.9682 86.9379 30.8776 86.763 29.787 86.5661C29.242 86.4655 28.723 86.2686 28.2701 85.9272C28.0679 85.7742 28.0679 85.7742 28.0238 85.4283C28.9692 86.1021 30.0598 86.2815 31.1414 86.4565C32.6894 86.7062 34.2504 86.9115 35.803 87.1393C35.9171 87.1567 36.0272 87.2051 36.1678 87.2529C35.9261 87.5594 35.6403 87.4233 35.3986 87.3974ZM35.5127 89.4538C35.5042 89.5016 35.4952 89.5499 35.4862 89.6022C34.8135 89.5499 34.1363 89.5325 33.4677 89.4363C32.254 89.2569 31.0403 89.0555 29.8356 88.8148C29.2641 88.7012 28.71 88.4869 28.156 88.29C27.8041 88.1674 27.5048 87.9486 27.2015 87.6027C27.3467 87.5898 27.4127 87.5634 27.4607 87.5853C28.8552 88.2681 30.3501 88.5831 31.8626 88.8367C32.9712 89.0246 34.0793 89.1866 35.1874 89.3615C35.2975 89.3795 35.4026 89.4228 35.5127 89.4538ZM35.3591 77.4483C34.0177 77.4438 32.6939 77.2559 31.3746 77.0191C30.214 76.8093 29.0703 76.5512 27.9798 76.0917C27.7426 75.991 27.5183 75.8554 27.3156 75.6676C30.1739 76.5292 33.0633 77.1378 36.0583 77.1986C36.0622 77.2599 36.0667 77.3212 36.0667 77.3825C35.8335 77.4044 35.5963 77.4483 35.3591 77.4483ZM35.5963 79.6576C35.3591 79.9725 35.1083 79.9596 34.866 79.9422C33.9031 79.8764 32.9402 79.828 31.9817 79.7234C30.4907 79.5569 29.0088 79.3077 27.5709 78.8786C27.2806 78.7914 26.9462 78.765 26.757 78.4151C27.4743 78.5597 28.191 78.7082 28.9077 78.8392C29.6464 78.9753 30.3806 79.1109 31.1238 79.2155C31.8496 79.3162 32.5798 79.391 33.305 79.4607C34.0398 79.531 34.7785 79.5878 35.5963 79.6576ZM35.1258 75.208C33.1779 74.9628 31.2295 74.7227 29.3211 74.2412C28.5779 74.0528 27.8391 73.8559 27.1004 73.6461C26.8717 73.5803 26.6559 73.4583 26.3967 73.3441C26.4978 73.2828 26.5289 73.2524 26.5509 73.2569C29.4352 74.005 32.3816 74.46 35.3235 74.9195C35.3851 74.928 35.4421 74.9763 35.5172 75.0112C35.4421 75.2384 35.2885 75.23 35.1258 75.208ZM35.5347 37.1922C35.5522 37.1573 35.5697 37.1224 35.5872 37.087C36.1198 37.2051 36.6428 37.3367 37.1793 37.4329C37.7424 37.5336 38.3094 37.6078 38.877 37.6691C39.4266 37.7259 39.9806 37.7608 40.5346 37.7782C41.1062 37.8002 41.6783 37.7827 42.2499 37.7957C42.7903 37.8092 43.3359 37.7434 43.8679 37.853C43.8724 37.8924 43.877 37.9318 43.8809 37.9711C43.7798 38.0105 43.6787 38.0803 43.5776 38.0893C41.9025 38.1854 40.2223 38.2332 38.5472 38.0409C37.6984 37.9402 36.841 37.844 36.0492 37.4897C35.8691 37.4109 35.7064 37.2928 35.5347 37.1922ZM36.278 40.2721C36.7704 40.1804 37.1923 40.3424 37.6148 40.3509C38.0587 40.3644 38.5032 40.4167 38.9516 40.4386C39.3955 40.4605 39.8445 40.4605 40.2884 40.465C40.7148 40.469 41.1457 40.469 41.5727 40.469C42.0211 40.465 42.465 40.4431 42.9135 40.456C43.345 40.469 43.7798 40.3289 44.3339 40.4735C43.0236 41.1034 37.3555 40.9459 36.278 40.2721ZM42.7073 33.2983C42.6983 33.6133 42.4961 33.6043 42.3289 33.6088C41.898 33.6178 41.4716 33.6217 41.0401 33.6088C39.1848 33.5475 37.4035 33.0925 35.6273 32.6026C35.5697 32.5851 35.5217 32.5283 35.4686 32.489C37.8785 32.8562 40.2489 33.3945 42.7073 33.2983ZM34.9852 34.7641C35.9922 35.0262 36.9901 35.3327 38.0107 35.5341C39.0222 35.7309 40.0512 35.8929 41.0802 35.9407C42.1092 35.9936 43.1422 35.8884 44.1712 35.849C44.1803 35.8929 44.1848 35.9407 44.1932 35.9846C44.0001 36.0459 43.8109 36.1291 43.6132 36.1595C42.1177 36.3783 40.6273 36.3344 39.1363 36.1291C37.9271 35.9626 36.7659 35.6477 35.6358 35.2016C35.3986 35.1055 35.1744 34.9739 34.9411 34.8557C34.9587 34.8293 34.9716 34.7944 34.9852 34.7641ZM34.1318 72.4695C33.5078 72.4431 32.8741 72.4605 32.2675 72.3508C30.7065 72.0668 29.1539 71.7473 27.6104 71.393C27.0078 71.2529 26.4317 70.9902 25.8472 70.7715C25.728 70.7281 25.636 70.6275 25.5303 70.5527C28.5954 71.2225 31.5903 72.141 34.8135 72.0972C34.6554 72.4341 34.3956 72.4779 34.1318 72.4695ZM25.2005 68.2208C25.0509 68.151 24.9193 68.0413 24.8046 67.8928C26.3481 68.3782 27.9182 68.7286 29.4928 69.0391C31.0668 69.3496 32.6589 69.5161 34.29 69.4593C34.277 69.7827 34.0923 69.8136 33.8901 69.8091C33.301 69.8091 32.7069 69.8355 32.1224 69.7917C30.0864 69.6342 28.0984 69.1966 26.1459 68.606C25.8161 68.5054 25.5083 68.3608 25.2005 68.2208ZM25.5038 75.068C25.4953 75.1248 25.4908 75.1861 25.4818 75.2429C25.3191 75.2429 25.148 75.2739 24.9893 75.2384C22.8962 74.7795 20.8077 74.3244 18.7231 73.8301C18.2261 73.7119 17.7557 73.4712 17.2852 73.2569C17.1265 73.1866 17.0079 73.0291 16.8718 72.911C16.8938 72.8806 16.9159 72.8452 16.9379 72.8148C17.0254 72.8497 17.1135 72.8891 17.2017 72.92C18.0635 73.2085 18.9123 73.55 19.7872 73.7643C21.5549 74.1973 23.3402 74.5562 25.1169 74.9454C25.2536 74.9763 25.3767 75.0241 25.5038 75.068ZM22.0389 48.0468C21.8802 47.9158 21.7266 47.7803 21.7221 47.4827C23.0019 48.5154 24.4748 48.8607 25.9483 49.2106C28.2305 49.7533 30.5523 50.0025 32.8876 50.169C33.0633 50.1819 33.2395 50.2432 33.4547 50.2871C33.2875 50.5582 33.0853 50.4839 32.9272 50.4794C31.0363 50.3962 29.1449 50.2916 27.2851 49.8844C26.1725 49.6397 25.0599 49.377 23.9603 49.075C23.2571 48.8736 22.606 48.5283 22.0389 48.0468ZM22.4213 61.4089C22.4168 61.4613 22.4128 61.5096 22.4083 61.5619C22.2982 61.5839 22.188 61.6277 22.0869 61.6187C21.2516 61.5445 20.4118 61.5051 19.585 61.3735C17.6631 61.063 15.7637 60.6474 13.9604 59.8819C13.6662 59.7548 13.3889 59.5928 13.1031 59.4443C12.9975 59.3875 12.8964 59.3172 12.8348 59.1951C15.9264 60.4331 19.1366 61.0805 22.4213 61.4089ZM25.2225 62.9664C25.9217 63.1807 26.6339 63.3511 27.3512 63.4911C28.0679 63.6357 28.7936 63.7493 29.5188 63.8196C30.2445 63.8893 30.9787 63.8938 31.7135 63.9113C32.4256 63.9332 33.1423 63.837 33.859 63.8545C33.8636 63.9113 33.8726 63.9726 33.8771 64.0294C33.7009 64.0688 33.5253 64.1256 33.3445 64.1391C30.794 64.3579 28.2746 64.1914 25.8116 63.4911C25.0288 63.2684 24.2901 62.8921 23.5384 62.5771C23.4023 62.5203 23.2876 62.4062 23.16 62.319C23.1735 62.2881 23.1911 62.2577 23.204 62.2267C23.8727 62.4804 24.5409 62.7605 25.2225 62.9664ZM23.5649 60.0349C23.7976 59.9213 23.9998 60 24.189 60.0349C25.7856 60.315 27.3771 60.6345 28.9783 60.8881C30.262 61.094 31.5593 61.2205 32.8481 61.387C32.9492 61.3999 33.0503 61.4264 33.1514 61.4438C32.1794 61.8898 24.6245 60.7436 23.5649 60.0349ZM27.729 65.9721C29.8751 66.3135 32.0297 66.6195 34.1804 66.9434C34.343 66.9699 34.5012 67.0306 34.6638 67.079C34.6638 67.1403 34.6599 67.1971 34.6599 67.2584C34.5322 67.2803 34.4001 67.3326 34.277 67.3152C31.5638 66.9086 28.8461 66.5058 26.1375 66.0728C25.7416 66.0115 25.3587 65.8275 24.9853 65.6701C24.7916 65.5913 24.8046 65.5609 24.7521 65.2415C25.6885 65.7533 26.722 65.8101 27.729 65.9721ZM34.6638 58.6698C34.6638 58.7227 34.6684 58.7795 34.6684 58.8318C34.5012 58.8492 34.334 58.8931 34.1714 58.8757C32.0213 58.6788 29.8661 58.4775 27.716 58.2716C26.8587 58.1884 26.0273 57.9741 25.2355 57.6332C25.0644 57.5584 24.9102 57.4493 24.7521 57.3531C24.7651 57.3182 24.7786 57.2828 24.7871 57.2479C24.8577 57.2479 24.9368 57.2305 25.0028 57.2524C26.177 57.6507 27.3952 57.8211 28.6219 57.9656C30.5393 58.1884 32.4567 58.3942 34.3735 58.6085C34.4707 58.6175 34.5673 58.6479 34.6638 58.6698ZM34.1889 55.5066C34.0657 55.5415 33.9471 55.5943 33.824 55.6073C32.4302 55.7693 31.0363 55.7125 29.6509 55.5634C28.4638 55.4369 27.2851 55.2091 26.1194 54.9599C25.4603 54.8199 24.8266 54.5572 24.1935 54.321C23.9738 54.2377 23.7931 54.0673 23.5909 53.9357C23.6084 53.9008 23.6305 53.8659 23.6485 53.8311C24.4968 54.0802 25.3411 54.3558 26.199 54.5662C27.0654 54.776 27.9402 54.9599 28.8196 55.0865C29.721 55.2181 30.6314 55.2923 31.5373 55.3401C32.4127 55.3885 33.292 55.3711 34.1714 55.384C34.1804 55.4279 34.1849 55.4672 34.1889 55.5066ZM33.1378 53.1224C32.6939 53.1134 32.2455 53.0785 31.801 53.0436C29.3476 52.8423 26.9157 52.4879 24.5058 51.9671C24.1585 51.8929 23.8196 51.7748 23.4853 51.6566C23.3622 51.6173 23.2611 51.525 23.1645 51.4069C26.744 52.002 30.3015 52.6499 33.9296 52.8682C33.6964 53.1353 33.4106 53.1263 33.1378 53.1224ZM33.6834 46.9096C33.5032 46.9619 33.3225 47.0536 33.1469 47.0536C32.307 47.0626 31.4627 47.1109 30.6314 47.0277C28.7625 46.8483 26.9202 46.4849 25.1085 45.986C24.5279 45.8286 23.9738 45.5704 23.4108 45.3432C23.3227 45.3083 23.2611 45.2076 23.1555 45.1114C23.2526 45.085 23.3051 45.0546 23.3362 45.0676C24.6555 45.5884 26.0449 45.846 27.4302 46.1042C28.7625 46.3539 30.1084 46.5378 31.4537 46.7037C31.9817 46.7695 32.5222 46.7037 33.0588 46.7037C33.2609 46.7037 33.4637 46.7167 33.6614 46.7257C33.6704 46.787 33.6789 46.8483 33.6834 46.9096ZM33.3315 43.7109C33.2304 44.0259 32.9972 43.9865 32.7995 43.9781C31.8891 43.9387 30.9787 43.9258 30.0728 43.8381C28.4722 43.6896 26.8892 43.4095 25.3327 43.0158C24.3957 42.775 23.5073 42.3987 22.6545 41.9567C22.4478 41.8475 22.21 41.7514 22.096 41.401C22.4478 41.5719 22.7206 41.7249 23.0064 41.843C24.3296 42.3897 25.7066 42.7486 27.1089 43.0242C29.0573 43.4095 31.0273 43.5928 33.0108 43.6631C33.1073 43.6631 33.2039 43.6896 33.3315 43.7109ZM31.4407 31.9771C31.1815 32.3793 30.8731 32.318 30.6093 32.2966C30.0203 32.2482 29.4352 32.1824 28.8552 32.0907C26.5723 31.7274 24.3737 31.0452 22.153 30.4371C22.0609 30.4107 21.9728 30.3584 21.8983 30.2617C25.0509 30.8174 28.1249 31.8022 31.4407 31.9771ZM21.8102 32.4974C22.9973 32.8652 24.167 33.2854 25.3722 33.5869C26.5639 33.8889 27.7731 34.1341 28.9913 34.2955C30.218 34.4575 31.4582 34.4885 32.7334 34.5756C32.6369 34.8338 32.4256 34.8079 32.25 34.8034C31.4977 34.7989 30.746 34.8209 30.0028 34.7596C28.2571 34.615 26.5289 34.3529 24.8532 33.8147C24.0043 33.543 23.1775 33.2066 22.3467 32.8872C22.14 32.8084 21.9508 32.6813 21.7531 32.5722C21.7707 32.5542 21.7882 32.5283 21.8102 32.4974ZM32.3511 37.4768C32.1749 37.6297 32.1178 37.704 32.0388 37.7389C31.9597 37.7743 31.8626 37.7698 31.775 37.7698C29.4572 37.8137 27.1665 37.6078 24.9458 36.9121C24.1495 36.6629 23.3932 36.2821 22.628 35.9452C22.4348 35.8575 22.2761 35.696 22.1005 35.5689C22.118 35.5341 22.14 35.4992 22.1575 35.4637C25.3366 37.0127 28.714 37.5639 32.3511 37.4768ZM26.4492 40.1321C28.3096 40.618 30.205 40.7361 32.1308 40.7446C32.0738 41.0686 31.8761 40.9853 31.7395 40.9943C30.0158 41.086 28.3186 40.9285 26.6339 40.5393C25.0469 40.1714 23.5073 39.6641 22.0169 39.0122C21.7571 38.8986 21.5024 38.7631 21.2607 38.6185C21.168 38.5617 21.102 38.461 21.0229 38.3778C22.7906 39.1214 24.6115 39.6512 26.4492 40.1321ZM21.4538 54.1415C21.4408 54.1764 21.4318 54.2158 21.4188 54.2512C18.6305 54.2642 13.4109 53.0869 12.2718 51.9148C12.4214 51.9407 12.514 51.9407 12.5931 51.9761C14.6421 52.8288 16.7532 53.4677 18.9564 53.7743C19.6465 53.8704 20.3367 53.9317 21.0274 54.0234C21.1726 54.0364 21.3132 54.0977 21.4538 54.1415ZM20.614 49.1976C18.521 48.9833 16.564 48.6335 14.6421 48.0733C13.3364 47.6925 12.0521 47.2684 10.8999 46.5243C10.482 46.2577 10.4295 46.2048 10.2137 45.7937C10.3589 45.8724 10.447 45.9073 10.5215 45.9602C11.4189 46.5637 12.4214 46.9355 13.4329 47.2859C15.5435 48.0165 17.7162 48.5019 19.9323 48.7994C20.1656 48.8303 20.4248 48.8388 20.614 49.1976ZM19.5539 30.0783C19.572 30.0822 19.5805 30.1351 19.6155 30.2313C19.2241 30.2139 18.8547 30.2268 18.4989 30.17C15.4379 29.6846 12.483 28.8398 9.64218 27.6018C9.56311 27.567 9.48856 27.5141 9.41344 27.4702C9.40497 27.4663 9.40497 27.4399 9.38295 27.3043C12.7603 28.4112 16.08 29.5355 19.5539 30.0783ZM8.96953 24.8014C12.0035 26.1097 15.1391 27.1204 18.4108 28.0085C18.138 28.2447 17.9313 28.162 17.7467 28.1092C16.6476 27.8116 15.548 27.5102 14.4529 27.1991C12.7512 26.7137 11.1241 26.0399 9.52809 25.2829C9.31235 25.1822 9.11468 25.0511 8.90797 24.933C8.93 24.8892 8.95202 24.8453 8.96953 24.8014ZM11.9775 30.0299C13.2392 30.4585 14.5235 30.8393 15.8163 31.1678C17.1135 31.5002 18.4329 31.7409 19.8002 32.0384C19.55 32.336 19.3037 32.2353 19.097 32.1999C18.1821 32.0424 17.2677 31.8849 16.3618 31.688C13.8814 31.1458 11.4715 30.3798 9.18471 29.2689C8.93 29.1463 8.67472 29.0108 8.433 28.8662C8.33642 28.8094 8.26583 28.7132 8.09414 28.5513C9.47049 29.076 10.7107 29.5969 11.9775 30.0299ZM7.49209 31.233C7.53558 31.1717 7.57963 31.1149 7.62368 31.0536C11.1066 32.7078 14.8138 33.6397 18.5515 34.4795C18.5735 34.484 18.5825 34.5363 18.613 34.5931C18.4458 34.7376 18.2482 34.6808 18.068 34.6504C14.7257 34.0987 11.4715 33.2674 8.433 31.7274C8.17772 31.6009 7.936 31.4473 7.68976 31.3118C7.6282 31.2769 7.5576 31.2594 7.49209 31.233ZM8.27486 34.322C11.6607 35.849 15.2182 36.6803 18.9253 37.0566C18.8067 37.3496 18.5865 37.3541 18.3803 37.3406C17.9359 37.3103 17.4874 37.2754 17.0475 37.2186C15.2752 36.9908 13.5385 36.5926 11.8233 36.0898C10.7548 35.7787 9.75231 35.3153 8.78033 34.786C8.58662 34.6763 8.42396 34.5143 8.27486 34.322ZM8.66173 36.9295C9.32534 37.2141 9.87543 37.4633 10.434 37.682C11.0321 37.9143 11.6341 38.1326 12.2458 38.3384C12.8394 38.5353 13.4374 38.7102 14.0355 38.8812C14.6336 39.0516 15.2357 39.222 15.8428 39.3621C16.4669 39.5066 17.1045 39.5983 17.7337 39.7339C18.3318 39.8655 18.9564 39.8655 19.5364 40.0927C19.132 40.3205 18.046 40.2069 16.3923 39.8655C12.9184 39.1523 9.37391 37.8047 8.66173 36.9295ZM19.3517 43.2081C19.2066 43.545 18.9824 43.545 18.7802 43.5231C18.2657 43.4708 17.7467 43.4224 17.2457 43.3133C16.1636 43.0855 15.0866 42.8403 14.0135 42.5647C12.9009 42.2806 11.8583 41.8166 10.8384 41.2963C10.6317 41.1912 10.3899 41.0989 10.2843 40.7446C11.7533 41.5061 13.2392 41.9876 14.7568 42.3594C16.2602 42.7182 17.7467 43.1468 19.3517 43.2081ZM19.598 46.17C19.3738 46.4894 19.1191 46.4456 18.9033 46.4152C17.9488 46.2881 16.9859 46.1874 16.045 45.986C14.1937 45.5839 12.3819 45.0327 10.7198 44.0872C10.4775 43.9517 10.2137 43.838 10.0776 43.5495C13.1116 44.8752 16.2297 45.8421 19.598 46.17ZM10.2007 48.2611C13.7097 49.6003 17.2852 50.6808 20.9659 51.4379C20.5259 51.6431 20.1085 51.5076 19.7036 51.4289C17.0915 50.9215 14.532 50.2083 12.043 49.2719C11.4805 49.0576 10.9485 48.7555 10.4074 48.4889C10.3193 48.4451 10.2533 48.3618 10.2007 48.2611ZM11.463 53.7259C11.6081 53.7259 11.6652 53.7085 11.7047 53.7304C13.7712 54.6972 15.9614 55.2659 18.1821 55.7299C19.1586 55.9352 20.1481 56.0887 21.1285 56.2682C21.2561 56.2895 21.3702 56.3508 21.4934 56.3947C21.4888 56.4386 21.4849 56.4869 21.4849 56.5303C21.3618 56.5477 21.2386 56.5961 21.124 56.5786C20.3808 56.4735 19.6375 56.3728 18.9033 56.2372C16.7752 55.8435 14.6862 55.3187 12.6987 54.4346C12.4039 54.3035 12.1181 54.159 11.8363 54.0105C11.7177 53.9576 11.6257 53.8569 11.463 53.7259ZM11.9775 56.1062C12.1311 56.1675 12.2893 56.2243 12.4434 56.294C14.2287 57.0995 16.054 57.8126 17.9534 58.311C18.9564 58.5736 19.9719 58.7486 21.0184 58.6394C21.0624 58.6349 21.1155 58.6698 21.2386 58.7137C21.0009 59.0287 20.6976 59.0332 20.4338 59.0022C19.62 58.9195 18.7932 58.8667 18.0019 58.6788C16.0755 58.2148 14.2202 57.5325 12.4785 56.5741C12.2853 56.469 12.1046 56.3424 11.9199 56.2243C11.9335 56.1849 11.9555 56.1455 11.9775 56.1062ZM12.8258 61.5884C12.6547 61.4961 12.448 61.3954 12.4169 61.1024C15.5875 62.7301 18.9344 63.5744 22.4563 63.8848C22.3772 64.143 22.1971 64.161 22.0214 64.1475C21.5244 64.1126 21.0229 64.0862 20.5304 64.0165C18.5294 63.7274 16.577 63.22 14.6907 62.5068C14.0485 62.2661 13.4414 61.9118 12.8258 61.5884ZM13.8768 64.607C16.4714 65.4473 19.1806 65.7443 21.8277 66.2916C21.8187 66.3529 21.8102 66.4097 21.7966 66.471C21.665 66.471 21.5289 66.4884 21.4013 66.4665C19.594 66.156 17.7822 65.8714 15.9834 65.5126C15.3458 65.386 14.7387 65.0924 14.1231 64.8652C14.022 64.8343 13.9429 64.7341 13.8768 64.607ZM24.5363 69.376C24.1365 69.5813 23.7406 69.4154 23.3667 69.3451C17.0695 68.1684 15.7637 67.8405 15.1566 67.2539C18.3052 68.1465 21.4453 68.6499 24.5363 69.376ZM15.5175 69.7214C18.6175 70.6888 21.8147 71.2749 25.0113 72.0448C24.8137 72.3334 24.6115 72.2462 24.4093 72.2023C22.9448 71.8874 21.4758 71.5943 20.0204 71.2619C18.9604 71.0167 17.9138 70.7321 16.8673 70.4481C16.542 70.3603 16.2252 70.2293 15.9128 70.1021C15.7547 70.0369 15.6141 69.9402 15.4644 69.8575C15.4864 69.8046 15.4994 69.7607 15.5175 69.7214ZM15.7457 74.937C15.7767 74.8976 15.8078 74.8537 15.8428 74.8143C16.1986 75.0376 16.5465 75.2739 16.9114 75.4792C18.8463 76.5602 20.9128 77.2559 23.0984 77.6277C23.679 77.7284 24.2551 77.8375 24.8357 77.9556C24.9763 77.9865 25.1085 78.0563 25.2446 78.1086C25.2355 78.144 25.2271 78.1834 25.2225 78.2183C25.0904 78.2228 24.9588 78.2532 24.8312 78.2357C23.6175 78.0299 22.3863 77.8859 21.1946 77.5923C19.4884 77.1772 17.8477 76.5641 16.4144 75.5185C16.1726 75.3391 15.9659 75.1293 15.7457 74.937ZM17.3688 77.6058C17.3908 77.5709 17.4129 77.5355 17.4389 77.5006C19.8578 78.6075 22.4083 79.3032 25.0333 79.9641C24.8136 80.2088 24.616 80.0777 24.4573 80.0429C22.641 79.6491 20.8512 79.1722 19.097 78.5597C18.6441 78.4022 18.2171 78.1744 17.7907 77.9556C17.6281 77.8684 17.5049 77.7194 17.3688 77.6058ZM18.1296 80.7122C17.9669 80.616 17.8348 80.4759 17.7207 80.305C20.4643 81.6177 23.3187 82.5626 26.3131 83.0835C26.3041 83.1448 26.2956 83.2016 26.2866 83.2629C26.0844 83.2629 25.8822 83.2893 25.6845 83.2584C25.1214 83.1706 24.5409 83.1228 24.0043 82.9524C22.4744 82.4754 20.9568 81.9676 19.4444 81.4299C18.9739 81.2589 18.556 80.9613 18.1296 80.7122ZM18.9564 82.8079C19.4619 83.0835 19.9103 83.3636 20.3943 83.5779C22.1575 84.3608 24.0179 84.8512 25.8912 85.2973C26.0578 85.3366 26.225 85.385 26.3877 85.5205C26.3001 85.5335 26.212 85.5729 26.1284 85.5554C24.0264 85.1398 21.9638 84.5841 19.9939 83.7353C19.6991 83.6082 19.4269 83.4378 19.1541 83.2713C18.9869 83.1706 18.8372 83.0351 18.9564 82.8079ZM25.5614 89.8255C25.4733 89.8604 25.3897 89.9307 25.3016 89.9262C25.1435 89.9217 24.9808 89.8953 24.8266 89.852C23.2571 89.4228 21.7441 88.8587 20.3723 87.9661C20.117 87.7996 19.8442 87.6421 19.7301 87.3232C21.5549 88.4301 23.5209 89.1781 25.5874 89.6855C25.5789 89.7338 25.5699 89.7817 25.5614 89.8255ZM26.234 87.9661C26.0403 87.9661 25.8381 87.9571 25.6535 87.9093C23.8902 87.4368 22.188 86.7934 20.557 85.9795C20.2051 85.8046 19.8753 85.5903 19.5409 85.385C19.4269 85.3147 19.3387 85.2056 19.2727 85.061C21.5944 86.146 23.9253 87.1916 26.5509 87.7737C26.3656 87.8873 26.3001 87.9706 26.234 87.9661ZM35.5042 82.5323C34.1409 82.9608 27.6629 81.7055 26.674 80.8348C29.5583 81.7055 32.5267 82.134 35.5042 82.5323ZM36.0362 84.9474C35.9351 85.052 35.8775 85.1617 35.8075 85.1701C35.4732 85.2185 35.1303 85.3063 34.8045 85.2624C32.2895 84.9513 29.787 84.5796 27.3952 83.6915C27.2631 83.6437 27.127 83.5953 26.9948 83.5385C26.9683 83.5255 26.9598 83.4817 26.8626 83.3242C29.9237 84.0987 32.8876 84.8332 36.0362 84.9474ZM35.0818 94.004C34.1188 93.8245 33.1469 93.667 32.206 93.4089C30.5568 92.9539 28.9207 92.442 27.3772 91.685C27.2145 91.6062 26.9903 91.5798 26.9423 91.2519C27.162 91.3306 27.3376 91.3875 27.5093 91.4578C29.4222 92.1923 31.3526 92.8881 33.3536 93.3605C34.1849 93.5574 35.0202 93.7632 35.8911 93.6671C35.9306 93.6626 35.9747 93.7194 36.0667 93.7807C35.7589 94.0956 35.4116 94.0653 35.0818 94.004ZM35.825 91.8734C35.4336 91.8734 35.0332 91.8599 34.6509 91.7857C32.6194 91.3965 30.5918 90.9763 28.6485 90.2541C28.2175 90.0927 27.8081 89.8649 27.3992 89.6506C27.2365 89.5629 27.1049 89.4273 26.9598 89.3092C26.9818 89.2743 27.0038 89.235 27.0213 89.2001C28.4813 89.9172 30.0248 90.3683 31.5943 90.7311C33.1469 91.0944 34.6813 91.5843 36.3305 91.4926C36.3085 91.8863 36.0272 91.8734 35.825 91.8734ZM36.0052 60.4286C35.9566 60.4027 35.9216 60.3414 35.8821 60.2975C37.5442 60.8313 39.2504 61.1159 40.9526 61.3561C42.6588 61.5968 44.3824 61.702 46.1897 61.8769C46.0621 61.9905 45.9966 62.1002 45.935 62.0957C42.7598 61.9033 39.5937 61.6407 36.5417 60.6609C36.357 60.5996 36.1814 60.5118 36.0052 60.4286ZM36.8009 88.0099C36.8055 87.9964 36.8275 87.988 36.845 87.9835C36.8806 87.9751 36.9156 87.9706 36.9506 87.9706C37.0037 87.9706 37.0562 87.979 37.1093 87.9835C39.2464 88.2985 41.379 88.6399 43.5206 88.9155C44.6857 89.0645 45.8644 89.0994 47.1092 89.1866C46.9465 89.4931 46.7178 89.4622 46.515 89.4538C45.7458 89.4228 44.9805 89.3969 44.2153 89.3356C42.0386 89.1692 39.888 88.8367 37.7554 88.3862C37.4301 88.3159 37.1133 88.2068 36.8275 88.1281C36.8055 88.0448 36.797 88.0229 36.8009 88.0099ZM46.6737 96.292C46.2998 96.3269 45.926 96.3752 45.5521 96.3623C42.9931 96.2616 40.5301 95.7059 38.1513 94.7694C37.9621 94.6952 37.7819 94.5945 37.5973 94.5029C37.6193 94.4635 37.6413 94.4196 37.6633 94.3802C40.6973 95.3865 43.7623 96.2178 47.0165 95.9945C47.0081 96.2656 46.8234 96.2746 46.6737 96.292ZM46.48 94.3667C46.0005 94.3802 45.508 94.4241 45.0376 94.3583C43.45 94.135 41.8669 93.8988 40.2884 93.6142C39.6993 93.5096 39.1272 93.2733 38.5557 93.0849C38.3975 93.0326 38.2569 92.9319 38.1073 92.8577C38.1202 92.8267 38.1338 92.7919 38.1468 92.7615C39.0967 92.9842 40.0422 93.2379 40.9966 93.4263C41.9901 93.6187 43.0016 93.7503 44.004 93.9078C44.9896 94.0653 45.979 94.1569 47.0736 94.0124C46.9025 94.3319 46.6822 94.3583 46.48 94.3667ZM47.1617 92.2232C45.9305 92.1839 44.6948 92.1529 43.4681 92.0787C42.7903 92.0348 42.1132 91.9431 41.4496 91.8031C40.6312 91.6327 39.8264 91.3919 39.0177 91.1687C38.8635 91.1248 38.7274 91.0112 38.5868 90.9324C38.6043 90.8846 38.6218 90.8407 38.6393 90.7924C41.5021 91.5933 44.431 91.9128 47.3995 92.1181C47.3198 92.1529 47.2407 92.2277 47.1617 92.2232ZM47.496 72.8103C47.7293 72.8452 47.9665 72.9065 48.1997 72.9155C49.1452 72.9549 50.0906 73.0117 51.036 72.9942C52.2497 72.9723 53.4679 72.9285 54.6771 72.8193C56.0094 72.6967 57.3332 72.4909 58.661 72.3204C58.8813 72.294 59.0964 72.2591 59.3822 72.2198C59.2636 72.5128 59.0789 72.5392 58.9163 72.5696C57.4078 72.8542 55.8998 73.1562 54.3603 73.226C53.041 73.2873 51.7177 73.3441 50.3984 73.3925C49.5586 73.4228 48.7182 73.3925 47.9049 73.1253C47.7507 73.073 47.6056 72.9943 47.4565 72.9245C47.4695 72.8936 47.4825 72.8542 47.496 72.8103ZM58.8022 75.2913C58.8061 75.3436 58.8062 75.392 58.8107 75.4443C58.648 75.4792 58.4854 75.532 58.3182 75.554C56.4844 75.7637 54.6506 75.8554 52.8038 75.7334C51.555 75.6501 50.3058 75.5843 49.0616 75.4662C48.6612 75.4313 48.2698 75.2739 47.8829 75.1467C47.7643 75.1074 47.6672 74.9938 47.5751 74.8801C51.3043 75.4617 55.0419 75.6456 58.8022 75.2913ZM48.4765 80.283C49.1316 80.3359 49.7873 80.3798 50.4424 80.4405C52.6275 80.6419 54.8177 80.7819 57.0164 80.7206C57.3818 80.7122 57.7466 80.616 58.1425 80.5592C58.2476 80.7251 58.129 80.8432 57.9754 80.8955C57.7551 80.9658 57.5224 81.0271 57.2982 81.0271C56.0845 81.0356 54.8708 81.0536 53.6611 81.0097C52.113 80.9529 50.561 80.8826 49.0305 80.5896C48.8328 80.5502 48.6436 80.4934 48.4499 80.445C48.4544 80.3927 48.4635 80.3359 48.4765 80.283ZM48.1161 77.4263C51.4054 78.0434 54.6991 78.1002 58.0059 77.7368C58.0104 77.7897 58.0194 77.8465 58.0234 77.8988C57.8387 77.9427 57.6585 77.9905 57.4739 78.0259C56.3308 78.2531 55.1651 78.31 54.0084 78.2796C52.5265 78.2447 51.049 78.1395 49.5716 78.0214C49.1892 77.9905 48.8153 77.8246 48.446 77.693C48.3229 77.6536 48.2127 77.5355 48.1161 77.4263ZM47.7112 82.773C51.6957 83.3152 55.6666 83.2674 59.668 82.5368C59.598 82.8253 59.3997 82.8427 59.2416 82.8737C58.5424 83.0092 57.8432 83.1926 57.135 83.2409C55.4644 83.3591 53.7842 83.4378 52.1091 83.4727C50.7678 83.4991 49.4394 83.2977 48.1246 83.0486C47.9795 83.0221 47.8343 82.9608 47.6937 82.917C47.6982 82.8692 47.7027 82.8208 47.7112 82.773ZM59.5409 84.8687C59.4794 85.1443 59.2591 85.2185 59.0789 85.2624C58.3888 85.4328 57.6936 85.6212 56.9904 85.7129C54.6771 86.0149 52.3508 85.993 50.029 85.8181C49.532 85.7787 49.035 85.6955 48.5425 85.6167C48.3624 85.5858 48.1862 85.507 48.0105 85.4457C48.019 85.4064 48.0235 85.3631 48.0326 85.3237C51.8713 85.6342 55.7152 85.9098 59.5409 84.8687ZM58.2171 97.2369C57.8652 97.2898 57.5049 97.3157 57.1485 97.3421C54.9143 97.4951 52.6806 97.5479 50.4509 97.3421C49.7783 97.2808 49.1186 97.1104 48.4544 96.9703C48.2788 96.9354 48.0806 96.8781 47.9315 96.5766C51.5901 97.3511 55.1871 97.1936 58.8813 96.8387C58.7141 97.211 58.4458 97.202 58.2171 97.2369ZM57.0079 93.072C56.3963 93.1946 55.7807 93.3172 55.1605 93.387C53.4459 93.5793 51.7352 93.5225 50.042 93.1811C49.6461 93.1024 49.2638 92.9364 48.8814 92.7874C48.7668 92.7435 48.6787 92.6344 48.5996 92.5118C51.5635 93.3431 54.5274 93.378 57.5179 92.6867C57.5309 92.7351 57.5399 92.7874 57.5529 92.8358C57.3682 92.919 57.1966 93.0326 57.0079 93.072ZM58.0895 94.7649C57.9974 94.8178 57.9093 94.8966 57.8127 94.9185C57.131 95.058 56.4539 95.2464 55.7677 95.3077C54.4924 95.4213 53.2081 95.513 51.9284 95.5175C51.1546 95.5175 50.3718 95.3555 49.6021 95.2245C49.3519 95.1806 49.1141 95.0186 48.8854 94.8831C48.8108 94.8398 48.7758 94.7256 48.7182 94.6429C48.7402 94.6165 48.7668 94.5855 48.7888 94.5597C49.985 95.1193 51.2648 95.1547 52.5445 95.1767C54.2066 95.207 55.8558 95.058 57.4914 94.743C57.676 94.7081 57.8652 94.6952 58.0895 94.7649ZM58.8237 90.4864C58.5774 90.591 58.3272 90.6833 58.0674 90.7401C56.4319 91.1073 54.7737 91.1118 53.1116 91.0241C51.7747 90.9544 50.4424 90.8363 49.1361 90.5213C48.8594 90.4555 48.5471 90.4251 48.2477 90.0966C51.8628 90.6833 55.3673 91.1642 58.9383 90.2367C58.8988 90.3329 58.8813 90.46 58.8237 90.4864ZM59.4218 87.7996C58.8897 87.9396 58.3532 88.0757 57.8082 88.1719C55.4683 88.5876 53.107 88.4908 50.7502 88.443C50.3764 88.434 49.998 88.4166 49.6241 88.3862C49.4614 88.3727 49.3033 88.312 49.1452 88.2726C49.1536 88.2113 49.1627 88.1455 49.1711 88.0842C49.3739 88.0757 49.5806 88.0622 49.7828 88.0622C51.4974 88.0667 53.2127 88.0797 54.9324 88.0797C56.2251 88.0797 57.4959 87.8918 58.7581 87.6337C59.0835 87.5679 59.3958 87.4413 59.7516 87.3361C59.8267 87.6601 59.6155 87.7518 59.4218 87.7996ZM60.3322 83.0177C61.8232 82.8911 63.3272 82.8337 64.8046 82.6155C66.2555 82.4006 67.6849 82.0159 69.1579 81.6965C69.1008 81.985 68.8501 82.0244 68.6524 82.0817C67.8651 82.3045 67.0739 82.5368 66.273 82.7117C64.4657 83.1138 62.6319 83.1926 60.7896 83.1532C60.627 83.1493 60.4643 83.1054 60.2972 83.0835C60.3101 83.0615 60.3237 83.0396 60.3322 83.0177ZM70.0598 87.8131C69.0743 88.4256 64.0484 89.1168 61.9463 88.9987C60.9873 88.9459 60.9873 88.9459 60.6931 88.7361C63.8722 88.6399 67.0033 88.5482 70.0598 87.8131ZM60.9963 94.5507C62.4297 94.7959 63.8417 94.5855 65.253 94.3712C66.6384 94.1614 67.9707 93.7503 69.2985 93.2992C69.1889 93.6361 68.9252 93.7413 68.6654 93.851C67.5223 94.3319 66.3261 94.6165 65.1034 94.7869C64.2726 94.9005 63.4367 94.9753 62.5969 95.0102C62.1925 95.0276 61.7836 94.9359 61.3787 94.8701C61.2335 94.8482 61.102 94.7565 60.9613 94.6952C60.9743 94.6468 60.9833 94.599 60.9963 94.5507ZM69.4041 95.7757C67.9182 96.0906 66.4402 96.4191 64.9497 96.7122C64.1099 96.8781 63.2566 96.9962 62.4077 97.0969C62.0208 97.1407 61.6249 97.1014 61.2335 97.0794C61.0799 97.071 60.9128 97.0181 60.9082 96.7425C61.5809 96.9264 62.2055 96.7954 62.8081 96.6947C65.0068 96.3229 67.197 95.8983 69.3911 95.4956C69.4837 95.4781 69.5803 95.5046 69.6769 95.5091C69.7034 95.7582 69.5317 95.7453 69.4041 95.7757ZM69.6328 91.0461C68.9252 91.2255 68.2124 91.4049 67.4957 91.532C65.6839 91.847 63.8637 92.1445 62.0163 92.1704C61.8141 92.1749 61.6165 92.1574 61.4143 92.0742C64.3296 91.5275 67.302 91.3655 70.262 90.4864C70.1168 90.915 69.8616 90.9892 69.6328 91.0461ZM70.6974 83.9232C70.5523 83.9322 70.4026 83.9058 70.2575 83.8973C70.253 83.8624 70.253 83.8315 70.2484 83.7966C70.3936 83.7702 70.5387 83.7353 70.6884 83.7179C73.4806 83.4074 76.2424 82.9608 78.925 82.1076C79.4836 81.9282 80.0241 81.6875 80.5651 81.4557C80.961 81.2853 81.3259 81.0665 81.5896 80.7032C81.6252 80.6554 81.6998 80.6334 81.7833 80.5806C81.9725 80.8477 81.8534 81.0575 81.6823 81.2021C81.427 81.4209 81.1502 81.6222 80.8509 81.7797C79.6903 82.3922 78.428 82.7291 77.1612 83.0396C75.5432 83.4333 73.8986 83.6611 72.241 83.8051C71.7304 83.8534 71.2159 83.8928 70.6974 83.9232ZM82.5266 78.0259C82.2143 78.2228 81.9019 78.4371 81.5591 78.5771C79.9495 79.2245 78.2738 79.6401 76.5897 80.0513C75.328 80.3578 74.0567 80.6554 72.7905 80.9484C72.6979 80.9703 72.6013 80.9613 72.5047 80.9658C75.8465 79.8151 79.3074 79.0844 82.6542 77.7284C82.5966 77.8684 82.5882 77.9865 82.5266 78.0259ZM82.5616 83.3022C82.3199 83.4507 82.0736 83.6043 81.8054 83.6915C80.2664 84.1988 78.7268 84.7151 77.1748 85.1701C75.7719 85.5818 74.3385 85.8833 72.8871 86.0717C72.7464 86.0892 72.6058 86.0937 72.4652 86.0937C72.4431 86.0937 72.4166 86.0498 72.3375 85.9711C75.8289 85.083 79.3249 84.3872 82.5927 82.9389C82.7553 83.0919 82.6938 83.2235 82.5616 83.3022ZM81.6687 92.0483C81.5371 92.1619 81.3699 92.2407 81.2118 92.3149C79.2063 93.2688 77.0957 93.8943 74.9321 94.3667C74.2549 94.5158 73.5642 94.621 72.8786 94.7216C72.6894 94.752 72.4827 94.7036 72.289 94.6952C72.2844 94.6558 72.2844 94.6165 72.2805 94.5816C72.3375 94.5636 72.3901 94.5377 72.4516 94.5287C75.3715 94.0782 78.1688 93.2075 80.8775 92.0393C81.0226 91.978 81.2338 91.9696 81.2423 91.7114C81.2423 91.663 81.4665 91.6017 81.5941 91.5933C81.6557 91.5888 81.7879 91.6805 81.7879 91.7289C81.7788 91.838 81.7438 91.978 81.6687 92.0483ZM81.5812 89.659C81.1898 89.8739 80.8029 90.0966 80.3934 90.2676C77.874 91.3132 75.2444 91.9476 72.5397 92.3065C72.342 92.3324 72.1393 92.3104 71.9371 92.3104C71.9286 92.2626 71.9241 92.2098 71.9151 92.1619C72.0738 92.1226 72.2274 92.0703 72.3861 92.0393C74.5492 91.5888 76.7264 91.1641 78.8194 90.438C79.6943 90.136 80.5386 89.7468 81.4004 89.4099C81.5326 89.3576 81.6647 89.1956 81.8715 89.3879C81.7704 89.4841 81.6907 89.5983 81.5812 89.659ZM82.6892 86.2512C81.3609 86.7107 80.0331 87.1831 78.6873 87.5988C76.7439 88.1978 74.7734 88.6967 72.7594 88.9942C72.5747 89.0207 72.3901 89.0291 72.1924 88.9852C75.886 88.0319 79.5932 87.1348 83.1817 85.8091C83.1332 86.1241 82.8914 86.1809 82.6892 86.2512ZM83.393 74.4291C83.3884 74.4471 83.3839 74.4684 83.3709 74.4729C80.429 75.554 77.4871 76.6344 74.5452 77.711C74.2945 77.8026 74.0347 77.8684 73.7754 77.9382C73.7314 77.9511 73.6743 77.9252 73.6173 77.9162C74.1973 77.4044 82.6802 74.3374 83.3884 74.3768C83.393 74.3897 83.3969 74.4116 83.393 74.4291ZM83.2258 71.3446C82.7418 71.7079 82.2849 72.1236 81.7568 72.3992C79.5186 73.5674 77.1398 74.2761 74.6153 74.4684C74.0482 74.5123 73.4767 74.4381 72.9046 74.4077C72.7334 74.3987 72.5527 74.3723 72.4782 74.1844C76.427 74.1754 80.0681 73.1821 83.4234 71.078C83.3574 71.1652 83.3139 71.2794 83.2258 71.3446ZM73.85 70.8986C77.0381 70.3777 80.0286 69.2663 83.0191 68.151C83.0236 68.151 83.0411 68.1729 83.0851 68.2208C82.9044 68.4924 82.6102 68.6105 82.3284 68.7416C81.0356 69.3451 79.7033 69.853 78.3269 70.2203C77.3284 70.4874 76.3214 70.7147 75.3099 70.925C74.8349 71.0257 74.3425 71.0561 73.85 70.8986ZM83.8939 64.76C83.8148 64.8303 83.7228 64.8916 83.6256 64.931C81.8534 65.6836 80.1037 66.5233 78.1863 66.8338C76.9766 67.0306 75.7369 67.0486 74.5096 67.1358C74.1973 67.1577 73.8895 67.088 73.6173 66.9041C75.4116 66.9564 77.1748 66.7511 78.8719 66.2696C80.429 65.832 81.9285 65.1892 83.4545 64.6419C83.6081 64.5851 83.7533 64.4231 83.969 64.5851C83.9425 64.6464 83.938 64.7206 83.8939 64.76Z" fill="#CF7044"/>
<path d="M26.0539 8.77556C26.1596 8.5697 26.2646 8.36384 26.4188 8.06237C29.0924 7.61185 31.8321 7.11296 34.5848 6.70575C36.81 6.37334 39.0482 6.09774 41.287 5.88795C43.6172 5.66915 45.9571 5.51561 48.2964 5.41943C50.957 5.31031 53.6261 5.23157 56.2868 5.258C59.2196 5.28388 62.153 5.38905 65.0774 5.56848C67.6279 5.72146 70.1694 5.98863 72.7115 6.26816C74.9847 6.51789 77.2539 6.79799 79.5141 7.15233C86.2248 8.20242 92.8783 9.49718 99.3032 11.7548C100.781 12.2757 102.219 12.9231 103.639 13.5839C104.932 14.1829 106.053 15.0317 106.99 16.1127C107.443 16.6375 107.75 17.2196 107.913 17.8934C108.12 18.7506 107.957 19.5296 107.43 20.2118C106.62 21.2664 105.648 22.1461 104.439 22.7541C98.7446 25.6113 92.7377 27.5625 86.528 28.9579C83.7053 29.5923 80.8645 30.1306 77.9972 30.5114C75.6093 30.8264 73.2085 31.0755 70.807 31.3033C65.2971 31.8196 59.7737 31.9378 54.2462 31.8061C51.7262 31.7493 49.2113 31.5873 46.6958 31.4124C44.6112 31.2684 42.5221 31.102 40.4511 30.8309C37.76 30.4765 35.0773 30.0519 32.4082 29.5878C29.0834 29.0108 25.7941 28.2537 22.549 27.3347C18.3584 26.1451 14.1892 24.8936 10.1788 23.1742C8.88599 22.6185 7.61921 21.9925 6.35299 21.3716C5.86051 21.1264 5.40756 20.803 4.92807 20.5229C4.25091 20.1246 4.00467 19.4857 4.00015 18.7641C3.99168 17.7095 4.33901 16.7865 5.12574 16.034C6.83644 14.3933 8.89447 13.3561 11.0976 12.5293C11.1332 12.5597 11.1637 12.5991 11.2033 12.6255C11.2959 12.6913 11.397 12.7526 11.4935 12.8139C11.5421 12.7133 11.6297 12.6126 11.6387 12.5074C11.6737 11.9562 11.6873 11.405 11.7093 10.8538C11.7968 8.98985 12.1312 7.1827 12.8874 5.4633C14.0531 2.81642 15.9615 1.00083 18.8198 0.270211C19.9239 -0.0143882 21.054 -0.0931311 22.1706 0.125661C24.2066 0.523875 25.4163 1.70952 25.7682 3.77876C25.9879 5.05215 25.9088 6.33397 25.8162 7.61185C25.7896 8.00107 25.7196 8.38578 25.9133 8.74912C25.9568 8.74462 26.0054 8.76206 26.0539 8.77556ZM103.789 16.3051C103.511 16.2263 103.292 16.1914 103.089 16.1037C101.581 15.4563 100.094 14.7651 98.5684 14.1571C98.0234 13.9383 97.5394 13.7544 97.2491 13.1942C97.1 12.9056 96.8142 12.6778 96.559 12.4551C95.8332 11.8207 94.9629 11.4444 94.0389 11.2081C92.5926 10.8403 91.1326 10.8932 89.6766 11.1598C89.3954 11.2121 89.1271 11.2605 88.8368 11.1946C87.1482 10.8144 85.464 10.3988 83.7624 10.0922C80.7233 9.54105 77.6803 9.00729 74.6243 8.56126C72.4692 8.24573 70.2925 8.04887 68.1249 7.87845C65.7371 7.69059 63.3447 7.54604 60.9523 7.47574C57.3067 7.37112 53.6572 7.44987 50.0116 7.65516C46.9946 7.82614 43.9826 8.02694 40.9831 8.41222C38.1163 8.78399 35.249 9.18221 32.3907 9.63273C29.3737 10.1142 26.3968 10.7835 23.4373 11.5276C19.7257 12.459 16.0936 13.6233 12.5841 15.1413C11.0581 15.8017 9.58518 16.5587 8.25684 17.4952C7.99761 17.4997 7.81293 17.2061 7.52263 17.4733C7.71635 17.6791 7.87901 17.9238 8.10322 18.0728C8.85098 18.5582 9.59817 19.0526 10.3855 19.4553C12.5226 20.5487 14.7873 21.3148 17.0916 21.9712C22.4038 23.4847 27.7997 24.6045 33.2435 25.5146C37.4081 26.2103 41.5987 26.6479 45.8029 26.9584C48.2613 27.1423 50.7328 27.234 53.1952 27.2779C59.567 27.3875 65.9218 27.09 72.254 26.3633C74.7209 26.0793 77.1794 25.7249 79.6373 25.3965C80.0902 25.3352 80.5386 25.2654 80.9831 25.1996C81.1412 25.7075 80.8425 26.2632 81.3084 26.6699C81.3965 26.4291 81.427 26.1884 81.4406 25.9522C81.5196 24.622 81.5857 23.2879 81.6778 21.9577C81.7834 20.4616 82.0471 18.9958 82.5351 17.5739C83.0411 16.0992 83.8985 14.8483 85.1212 13.9163C86.7263 12.6953 88.5115 11.7897 90.5605 11.558C92.1792 11.3741 93.7707 11.4702 95.2662 12.2363C96.4358 12.8353 97.2011 13.7279 97.4694 15.0232C97.7727 16.4974 97.8387 17.9851 97.7416 19.4812C97.6981 20.1201 97.6845 20.7591 97.6716 21.402C97.667 21.5071 97.7241 21.6163 97.7506 21.7214C97.7902 21.7259 97.8342 21.7259 97.8737 21.7304C97.9178 21.5904 97.9923 21.4548 98.0059 21.3148C98.0454 20.8598 98.2826 20.6235 98.7051 20.4267C100.064 19.7877 101.418 19.1359 102.575 18.1555C102.992 17.8012 103.362 17.3816 103.727 16.9699C103.912 16.7556 103.969 16.4929 103.789 16.3051ZM84.945 24.4516C88.1597 23.7912 91.3213 23.0736 94.4569 22.0499C94.4789 22.2507 94.4834 22.4042 94.51 22.5572C94.5314 22.7057 94.5009 22.8896 94.7517 22.9335C95.0329 22.605 95.0375 22.181 95.064 21.7917C95.1606 20.3389 95.2267 18.8822 95.2837 17.4249C95.2967 17.0531 95.2526 16.6768 95.1956 16.3096C94.9494 14.6863 93.8983 13.9906 92.6231 13.7718C91.9504 13.6582 91.2642 13.702 90.6006 13.868C87.6937 14.5857 85.6752 16.2308 85.0421 19.2585C84.8529 20.1595 84.7253 21.0786 84.6462 21.997C84.5496 23.1304 84.5316 24.2676 84.4881 25.4055C84.4836 25.5804 84.5276 25.7553 84.5711 25.9263C84.5847 25.9696 84.6812 26.0264 84.7343 26.0225C84.7868 26.018 84.8704 25.9522 84.8789 25.9044C84.9054 25.7863 84.9009 25.6591 84.9055 25.532C84.919 25.1822 84.932 24.8323 84.945 24.4516ZM23.2657 9.43137C23.3187 9.44037 23.3713 9.44487 23.4238 9.45331C23.4854 9.22158 23.587 8.99435 23.6 8.76206C23.6525 7.75134 23.7141 6.73668 23.7011 5.72596C23.6921 5.22257 23.5955 4.69781 23.4283 4.21635C22.9138 2.74217 21.4189 1.87994 19.8928 2.21235C17.514 2.73317 15.8118 4.09824 14.9324 6.39528C14.453 7.65122 14.2242 8.96342 14.0751 10.2891C14.022 10.7486 13.9961 11.2081 13.987 11.6671C13.9825 11.9078 14.0175 12.166 14.3959 12.2537C14.427 11.9078 14.4575 11.5929 14.484 11.2779C17.3468 10.3678 20.1741 9.52811 23.059 8.88917C23.1425 9.11246 23.2041 9.27389 23.2657 9.43137ZM14.1452 12.9844C13.7893 13.1199 13.503 13.26 13.1997 13.3297C12.9094 13.4 12.5932 13.4613 12.3074 13.4084C12.021 13.3606 11.7618 13.1683 11.4715 13.0322C11.5331 13.4613 11.7313 13.6627 12.2018 13.7324C12.7558 13.8112 13.3008 13.7324 13.8244 13.5356C14.0356 13.4568 14.1762 13.3168 14.1452 12.9844ZM97.5309 22.5966C97.2581 22.7412 96.9989 22.9161 96.7132 23.0297C96.4183 23.1433 96.1015 23.1917 95.7982 23.2924C95.5034 23.3885 95.2131 23.0516 94.8748 23.2924C95.2001 23.6861 95.5915 23.6945 96.0004 23.6248C96.8843 23.4673 97.4338 23.1478 97.5309 22.5966ZM23.3402 9.83409C23.565 10.2194 23.8813 10.3549 24.3478 10.3155C25.0379 10.2542 25.6755 9.86896 25.8427 9.392C25.7766 9.37906 25.6976 9.33519 25.6535 9.35713C25.5259 9.41844 25.4118 9.50618 25.2971 9.58492C24.7742 9.9477 24.2331 10.1536 23.6045 9.83858C23.5514 9.81215 23.4724 9.83409 23.3402 9.83409ZM81.4581 26.9545C81.5857 27.405 81.6778 27.4967 82.0426 27.536C82.7774 27.6148 83.4585 27.4134 84.0967 27.0681C84.1712 27.0287 84.2108 26.9151 84.2814 26.8144C84.0306 26.6479 83.8764 26.8144 83.7138 26.8842C83.0016 27.1862 82.2849 27.4573 81.4581 26.9545Z" fill="#723112"/>
<path d="M81.0447 24.6354C81.0531 24.4515 81.0577 24.3289 81.0712 24.2069C81.2028 22.7017 81.2689 21.1876 81.4886 19.6915C81.7303 18.0464 82.1968 16.458 83.2654 15.1149C83.2958 15.08 83.2958 15.0187 83.3314 14.9135C81.9901 14.8089 80.6798 14.6818 79.3605 14.612C78.0587 14.5417 76.7524 14.5288 75.4466 14.4804C75.3235 14.4759 75.2049 14.4281 75.0202 14.3843C75.4862 14.0563 77.2409 14.0254 79.2634 14.2268C80.6798 14.3668 82.1042 14.4366 83.4986 14.8263C84.6197 13.2599 86.2908 12.477 88.032 11.6586C87.8298 11.5928 87.7067 11.536 87.5791 11.5096C84.989 10.9893 82.408 10.4072 79.8044 9.9696C76.9681 9.49264 74.1183 9.10793 71.2645 8.76202C69.3691 8.53029 67.4562 8.42118 65.5479 8.28506C62.5134 8.07527 59.4749 7.97459 56.4319 8.0314C52.531 8.1062 48.6352 8.23276 44.7564 8.62197C42.1268 8.88463 39.4966 9.16473 36.8761 9.51458C33.4767 9.9696 30.0994 10.5562 26.7486 11.2998C22.7336 12.1924 18.7757 13.2599 14.9324 14.7302C12.9139 15.5041 10.922 16.3354 9.08365 17.4997C8.95602 17.5823 8.8329 17.6746 8.65725 17.8011C9.01758 18.0289 9.32538 18.2432 9.64673 18.4271C11.1417 19.2759 12.7208 19.9362 14.3434 20.5009C18.1426 21.8221 22.0474 22.7586 25.9788 23.5764C28.8111 24.1675 31.6559 24.6703 34.5103 25.1518C36.2339 25.4448 37.9797 25.6287 39.7169 25.8385C40.904 25.9831 42.0957 26.0922 43.2919 26.1929C44.932 26.3329 46.5681 26.4775 48.2082 26.5691C49.7258 26.6524 51.2473 26.6698 52.7688 26.7182C57.0475 26.8537 61.3172 26.7047 65.5829 26.4291C68.1509 26.2632 70.715 26.005 73.27 25.7249C75.5082 25.4797 77.7334 25.1428 79.9626 24.8407C80.328 24.7929 80.6838 24.7052 81.0447 24.6354ZM75.4946 11.5276C77.5928 11.3521 79.6723 11.4179 81.7173 11.9562C82.1968 12.0827 82.6582 12.2886 83.1157 12.4899C83.3139 12.5771 83.4721 12.7436 83.6477 12.8746C83.6172 12.914 83.5861 12.9534 83.5556 12.9928C82.2273 12.3848 80.8159 12.1137 79.3825 11.9297C77.9486 11.7458 76.5107 11.851 75.0332 11.86C75.1123 11.5709 75.306 11.5405 75.4946 11.5276ZM51.8804 10.0658C52.4034 9.96566 52.936 9.87792 53.468 9.83405C55.9654 9.61975 58.4589 9.75081 60.9478 10.018C61.0534 10.0309 61.1545 10.0528 61.2556 10.0838C61.2776 10.0877 61.2867 10.1406 61.3392 10.2368C60.1916 10.1974 59.0835 10.1445 57.9709 10.1231C56.8673 10.1051 55.7587 10.0793 54.6506 10.1271C53.547 10.1755 52.4429 10.3155 51.3088 10.4162C51.4139 10.1096 51.6782 10.1051 51.8804 10.0658ZM61.59 12.2931C61.4714 12.306 61.3527 12.3369 61.2336 12.3279C60.2356 12.2796 59.2416 12.2053 58.2437 12.1705C56.058 12.1007 53.8989 12.3544 51.7528 12.7307C51.6471 12.7481 51.5415 12.7655 51.4359 12.774C51.4054 12.7785 51.3704 12.7565 51.2823 12.7307C52.3508 11.8904 59.554 11.549 61.59 12.2931ZM51.8934 14.5243C52.518 14.3713 53.1421 14.2268 53.7758 14.1216C55.2046 13.8854 56.6471 13.693 58.094 13.7847C59.3913 13.8679 60.6841 14.0518 61.9768 14.2003C62.153 14.2223 62.3202 14.2926 62.4913 14.3449C62.5134 14.3539 62.5269 14.3972 62.584 14.4939C58.7537 13.9337 55.0025 14.0693 51.1942 15.0845C51.3744 14.6644 51.6471 14.5856 51.8934 14.5243ZM39.8925 11.0023C42.5402 10.6085 45.1873 10.2233 47.8344 9.83855C48.1687 9.79018 48.5076 9.75531 48.8459 9.72887C49.013 9.71593 49.1847 9.72493 49.3519 9.72493C49.3559 9.77724 49.3604 9.82955 49.3604 9.88242C46.2253 10.3549 43.0942 10.8273 39.9586 11.2953C39.8666 11.3088 39.7609 11.2694 39.5277 11.23C39.7214 11.1074 39.8005 11.0152 39.8925 11.0023ZM38.3801 17.0401C37.5883 17.1493 36.7925 17.2544 36.0007 17.377C33.9562 17.692 31.9112 18.016 29.9017 18.5318C29.7475 18.5711 29.5894 18.624 29.4313 18.6324C29.3516 18.6369 29.268 18.5582 29.0619 18.4575C29.3296 18.3484 29.4793 18.2652 29.638 18.2303C31.0668 17.9153 32.4872 17.561 33.9252 17.3112C35.1168 17.1059 36.335 17.0227 37.5403 16.8956C37.8125 16.8692 38.0898 16.9001 38.3665 16.9046C38.371 16.9479 38.3756 16.9918 38.3801 17.0401ZM27.7245 13.1502C27.9137 13.0586 28.1159 12.9753 28.3226 12.9275C30.0073 12.5422 31.6915 12.144 33.3841 11.7987C34.6904 11.5315 36.0097 11.5535 37.3155 11.8465C37.6193 11.9168 37.9356 11.9691 38.2129 12.2188C38.1163 12.2402 38.0678 12.2666 38.0237 12.2582C35.9922 11.7722 33.9782 12 31.9818 12.4416C30.5919 12.7481 29.2065 13.1024 27.8217 13.4303C27.7556 13.4438 27.685 13.4303 27.5489 13.4303C27.6234 13.2993 27.6545 13.1857 27.7245 13.1502ZM18.3583 15.6093C18.6266 15.4737 18.9033 15.3382 19.1936 15.2594C21.102 14.7386 23.0284 14.2751 24.9893 13.9776C25.3898 13.9163 25.7857 13.8595 26.1855 13.8027C26.1991 13.855 26.2075 13.9028 26.2211 13.9557C23.578 14.6863 20.8383 15.0581 18.2437 15.9771C18.1161 15.7758 18.2392 15.6661 18.3583 15.6093ZM12.1752 18.462C12.0961 18.4969 12.0171 18.5233 11.8894 18.5711C11.7663 18.2258 11.973 18.1077 12.1487 18.0115C12.474 17.8321 12.8083 17.6352 13.1647 17.543C14.5721 17.1712 15.9925 16.8298 17.4084 16.4844C17.4654 16.4715 17.5315 16.4929 17.6236 16.5896C17.492 16.6419 17.3598 16.7117 17.2192 16.751C16.1461 17.0705 15.0601 17.3551 13.996 17.705C13.3669 17.9063 12.7778 18.2083 12.1752 18.462ZM14.1807 20.1156C14.1542 20.0897 14.1231 20.0633 14.0971 20.0329C14.2287 19.9103 14.3434 19.7483 14.497 19.6696C14.9104 19.4682 15.3283 19.2539 15.7677 19.1268C16.533 18.908 17.3203 18.7421 18.0985 18.5627C18.2217 18.5318 18.3583 18.5453 18.4945 18.6066C17.0565 19.1139 15.6186 19.6173 14.1807 20.1156ZM17.0786 21.0127C17.8348 20.6629 18.5035 20.3563 19.1716 20.0459C19.1846 20.0807 19.1982 20.1201 19.2157 20.155C18.4634 20.8642 17.7642 21.1657 17.0786 21.0127ZM19.0925 17.9367C19.0796 17.8934 19.066 17.854 19.053 17.8101C19.2422 17.7398 19.4269 17.6481 19.6246 17.5958C22.1135 16.9479 24.6335 16.4496 27.184 16.1346C27.4964 16.0952 27.8126 16.0907 28.1249 16.0733C28.1425 16.1127 28.16 16.152 28.182 16.1869C28.134 16.2088 28.0899 16.2392 28.0368 16.2482C25.0995 16.8343 22.1621 17.4209 19.2241 18.0025C19.1891 18.0115 19.1366 17.9586 19.0925 17.9367ZM23.613 22.0802C23.5209 22.0977 23.4198 22.0538 23.3227 22.0409C23.2922 21.7827 23.4769 21.7433 23.6175 21.704C24.7962 21.3845 25.9924 21.2051 27.2145 21.2315C27.2366 21.2315 27.2586 21.2709 27.3247 21.3277C26.0624 21.5813 24.8402 21.835 23.613 22.0802ZM28.112 19.092C26.4758 19.3411 24.8357 19.5689 23.1996 19.84C22.536 19.9497 21.8848 20.1465 21.2251 20.304C21.076 20.3389 20.9309 20.3783 20.7061 20.4351C20.7767 20.0504 20.9964 19.9975 21.1946 19.9452C21.9684 19.7438 22.7382 19.5205 23.5254 19.385C24.9634 19.1403 26.4058 18.8996 27.8742 18.8822C28.0459 18.8822 28.2176 18.8822 28.4107 18.9828C28.3096 19.0177 28.2131 19.0745 28.112 19.092ZM28.9343 15.5086C31.4232 14.7167 33.9387 14.0822 36.5858 14.2093C36.8716 14.2223 37.1528 14.2616 37.4347 14.3055C37.5222 14.3184 37.6018 14.3888 37.6854 14.4366C36.1504 14.4546 34.6379 14.4939 33.1514 14.7999C31.7 15.0974 30.2536 15.4253 28.7626 15.6621C28.8241 15.6093 28.8682 15.5305 28.9343 15.5086ZM28.8812 21.0566C28.8371 20.781 29.0619 20.7675 29.2155 20.7326C29.7741 20.61 30.3326 20.4879 30.8952 20.4047C32.7821 20.1156 34.6684 19.8355 36.5593 19.5644C37.0913 19.4902 37.6323 19.4553 38.279 19.394C38.1559 19.534 38.1293 19.5953 38.0943 19.5993C35.0728 20.1117 32.0473 20.6145 29.0218 21.1179C28.9823 21.1179 28.9343 21.074 28.8812 21.0566ZM34.5543 24.6658C34.5368 24.6219 34.5187 24.5826 34.5012 24.5393C34.6068 24.469 34.7034 24.3818 34.8181 24.3334C35.3631 24.1101 36.7575 23.9268 37.329 24.0488C36.4096 24.2985 35.5082 24.6135 34.5543 24.6658ZM36.8541 22.1809C36.1679 22.308 35.4777 22.4042 34.7915 22.5178C34.1234 22.6269 33.4547 22.7411 32.7821 22.8418C32.1224 22.9419 31.4712 23.1039 30.8031 23.1174C30.7856 23.06 30.772 23.0032 30.7545 22.9464C30.9437 22.8812 31.1329 22.7889 31.3261 22.7586C33.5823 22.3997 35.838 22.0454 38.0983 21.695C38.3185 21.6601 38.5473 21.691 38.7799 21.7343C38.1689 22.0189 37.5007 22.0583 36.8541 22.1809ZM38.8946 14.3184C38.8551 13.9686 39.0877 13.9247 39.2594 13.8854C39.8971 13.7234 40.5392 13.5485 41.1898 13.4568C43.2569 13.1592 45.3279 12.8881 47.3995 12.63C47.8304 12.5771 48.2743 12.621 48.7098 12.621C48.7143 12.6649 48.7228 12.7042 48.7273 12.7481C48.2303 12.932 47.6937 12.945 47.1708 13.0018C44.7213 13.2774 42.2719 13.531 39.862 14.0693C39.5407 14.139 39.2289 14.2313 38.8946 14.3184ZM40.4246 17.075C40.3941 17.0795 40.363 17.0446 40.2839 17.0008C40.3811 16.6813 40.6533 16.6329 40.8735 16.5806C41.5637 16.4102 42.2629 16.2437 42.9666 16.1346C44.6858 15.8629 46.4185 15.8629 48.1512 15.9023C48.3709 15.9068 48.5866 15.9636 48.8063 15.9945C48.8063 16.0424 48.8063 16.0862 48.8063 16.1346C48.6787 16.1565 48.5556 16.1998 48.4285 16.2043C47.43 16.2437 46.4275 16.2656 45.429 16.3095C43.8375 16.3793 42.2629 16.5502 40.7324 17.0311C40.6403 17.0621 40.5302 17.0666 40.4246 17.075ZM40.9261 20.1375C41.2164 20.0239 41.4101 19.9148 41.6168 19.8709C42.4871 19.678 43.358 19.4812 44.2373 19.3237C45.2754 19.1358 46.3129 18.9564 47.3554 18.8293C47.9355 18.7595 48.5336 18.7989 49.1187 18.7944C49.1977 18.7944 49.2768 18.8338 49.3559 18.8557C49.3559 18.9041 49.3604 18.9564 49.3604 19.0048C46.6032 19.2584 43.8945 19.7787 41.1723 20.2472C41.1328 20.2512 41.0842 20.2078 40.9261 20.1375ZM41.6648 22.8632C42.3555 22.6837 43.0502 22.5178 43.7449 22.3688C45.394 22.0189 47.0651 21.8704 48.7493 21.8879C48.969 21.8924 49.1893 21.9402 49.4044 21.9666C49.396 22.0144 49.3914 22.0628 49.3824 22.1067C46.6517 22.2029 43.947 22.5049 41.2559 23.2439C41.2999 22.8941 41.5196 22.8986 41.6648 22.8632ZM42.9095 25.1996C42.94 24.9065 43.1422 24.8936 43.3314 24.8717C43.881 24.8104 44.4265 24.7226 44.9761 24.6923C46.4535 24.6045 47.9315 24.5348 49.4089 24.469C49.6507 24.4605 49.8969 24.5038 50.1386 24.5258C50.1386 24.5826 50.1386 24.6399 50.1386 24.7013C47.7423 24.8627 45.3415 25.0292 42.9095 25.1996ZM51.5856 16.8562C52.2368 16.7426 52.8829 16.5981 53.538 16.5632C54.8709 16.4889 56.2116 16.4231 57.5484 16.458C58.613 16.4844 59.6771 16.6594 60.7371 16.7775C60.8817 16.7949 61.0229 16.8562 61.1636 16.9001C61.159 16.9395 61.15 16.9788 61.146 17.0182C57.7992 16.6903 54.4614 16.6116 51.1021 17.2809C51.1592 16.922 51.3879 16.8911 51.5856 16.8562ZM59.0349 25.1343C57.9139 25.1866 56.7877 25.1996 55.6711 25.2958C54.576 25.388 53.4855 25.5629 52.3023 25.7114C52.4169 25.5804 52.474 25.4622 52.5576 25.4319C52.8083 25.3396 53.0675 25.2609 53.3273 25.2131C54.7562 24.9634 56.1941 24.8278 57.6456 24.8801C58.0545 24.8936 58.4634 24.9414 58.8723 24.9808C58.9338 24.9853 58.9869 25.0292 59.044 25.0511C59.044 25.0815 59.0394 25.1079 59.0349 25.1343ZM60.3322 23.1871C57.5795 23.1039 54.8398 23.2923 52.1001 23.5679C52.0871 23.5195 52.0781 23.4717 52.0651 23.4234C52.2012 23.3711 52.3333 23.2968 52.474 23.2749C53.2347 23.1652 53.9909 23.0297 54.7562 22.9813C56.0405 22.9025 57.3242 22.8677 58.6085 22.8502C59.088 22.8418 59.5669 22.929 60.0464 22.9773C60.143 22.9858 60.2402 23.0297 60.3367 23.06C60.3367 23.1039 60.3367 23.1433 60.3322 23.1871ZM60.3147 21.3232C59.3518 21.3232 58.3843 21.3277 57.4214 21.3192C55.8954 21.3057 54.3959 21.5245 52.8874 21.7085C52.5971 21.7433 52.3068 21.7608 51.8979 21.8001C52.7643 21.227 59.11 20.7281 60.7191 21.2534C60.5124 21.2883 60.4113 21.3232 60.3147 21.3232ZM58.3403 19.2146C57.2937 19.1578 56.2297 19.1488 55.1871 19.2539C54.1581 19.3546 53.1421 19.6257 52.1221 19.8226C53.6611 18.5891 59.4178 18.453 61.4053 19.5779C60.3808 19.4508 59.3648 19.2714 58.3403 19.2146ZM71.2205 24.8891C71.1589 24.8981 71.0973 24.924 71.0358 24.9195C69.0218 24.7052 67.0123 24.762 64.9978 24.9195C64.2856 24.9769 63.5734 25.0072 62.8607 25.0466C62.7071 25.0556 62.5354 25.086 62.4518 24.8323C62.5529 24.78 62.65 24.6922 62.7551 24.6877C65.5784 24.4864 68.4062 24.2108 71.2205 24.78C71.2205 24.8104 71.2205 24.8497 71.2205 24.8891ZM62.5885 22.6404C62.7466 22.5966 62.9002 22.5263 63.0589 22.5178C65.5259 22.3868 67.9928 22.3294 70.4512 22.6444C70.7059 22.6798 70.9612 22.7411 71.2075 22.8632C70.2575 22.9554 69.3206 22.8373 68.3796 22.8418C67.4122 22.8457 66.4493 22.8373 65.4818 22.8373C64.5273 22.8373 63.5734 22.8457 62.619 22.8632C62.6099 22.7889 62.5969 22.7147 62.5885 22.6404ZM67.5489 20.6977C66.0754 20.6758 64.5979 20.7416 63.0324 20.772C64.0659 20.1201 70.785 20.2382 71.9902 20.9075C70.4642 20.8333 69.0043 20.7197 67.5489 20.6977ZM72.5883 18.8861C71.8581 18.8338 71.1323 18.7725 70.4027 18.7286C69.6549 18.6853 68.9032 18.6459 68.1554 18.624C67.4037 18.6066 66.656 18.615 65.9037 18.6195C65.1695 18.624 64.4308 18.7072 63.683 18.5672C64.1275 18.2652 64.6375 18.2871 65.117 18.2697C67.6234 18.1909 70.1299 18.1864 72.5923 18.7466C72.5923 18.7989 72.5923 18.8428 72.5883 18.8861ZM71.1148 12.8094C70.5128 12.7346 69.9102 12.6604 69.303 12.608C68.6965 12.5557 68.0894 12.5119 67.4828 12.4899C66.8757 12.468 66.2691 12.4809 65.6574 12.477C65.0639 12.4725 64.4703 12.5119 63.8767 12.5642C63.8722 12.4809 63.8637 12.4022 63.8592 12.3189C64.132 12.2711 64.4003 12.1924 64.6725 12.175C67.1835 12.0259 69.6724 12.1401 72.1309 12.7172C72.3816 12.774 72.6233 12.8617 72.8605 12.9973C72.267 13.0108 71.6954 12.8836 71.1148 12.8094ZM72.9487 14.6334C70.0463 14.6689 67.2625 14.7037 64.4748 14.7302C64.4528 14.7302 64.4262 14.6514 64.4003 14.6075C65.3276 14.2003 71.6339 14.1919 72.9487 14.6334ZM72.6188 16.7994C70.7805 16.7471 68.9382 16.6684 67.0999 16.6374C66.2601 16.6245 65.4202 16.6942 64.5804 16.7252C64.4087 16.7297 64.2331 16.7252 64.0614 16.7252C64.9938 16.1127 71.1939 16.1346 72.9662 16.6768C72.9046 16.8827 72.7419 16.8039 72.6188 16.7994ZM73.1508 11.5096C71.4622 11.1552 69.7825 10.7835 68.0894 10.4556C66.3832 10.1271 64.6465 10.2019 62.9002 10.2278C62.9047 9.92573 63.081 9.93473 63.2346 9.92573C63.9473 9.90435 64.664 9.86892 65.3807 9.87342C67.672 9.88635 69.8791 10.3942 72.0603 11.0242C72.3681 11.1119 72.6759 11.2036 72.9797 11.3043C73.0543 11.3302 73.1158 11.3915 73.1819 11.4353C73.1683 11.4663 73.1599 11.4882 73.1508 11.5096ZM75.2529 16.2527C77.1658 16.0424 79.0657 16.0733 80.9475 16.5283C81.0622 16.5542 81.1678 16.6116 81.2734 16.6509C81.2689 16.6903 81.2598 16.7252 81.2559 16.7645C80.7278 16.7162 80.1958 16.6639 79.6683 16.6245C79.1143 16.5806 78.5642 16.5412 78.0101 16.5238C77.4736 16.5064 76.9371 16.5457 76.4005 16.5238C75.873 16.5064 75.332 16.7426 74.809 16.5502C74.8 16.5019 74.7915 16.4496 74.7825 16.4012C74.9406 16.3534 75.0948 16.2701 75.2529 16.2527ZM74.5362 18.1645C76.8275 18.0464 79.1227 17.8759 81.3875 18.3788C81.3875 18.4491 81.392 18.4704 81.3875 18.4839C81.383 18.4969 81.3655 18.5104 81.3525 18.5143C81.3214 18.5278 81.2819 18.5408 81.2514 18.5363C78.894 18.322 76.5417 18.4446 74.1844 18.5318C74.1539 18.5318 74.1183 18.5104 74.0923 18.4884C74.0658 18.4665 74.0437 18.4356 73.9297 18.309C74.1799 18.2477 74.3561 18.1735 74.5362 18.1645ZM80.6047 20.3434C79.378 20.326 78.1993 20.2905 77.0207 20.2995C75.8601 20.304 74.7119 20.5358 73.5422 20.5487C74.4131 19.8574 79.4656 19.6302 80.6047 20.3434ZM75.4862 24.2024C75.4071 24.2069 75.319 24.1236 75.1298 24.0229C75.3455 23.9307 75.4596 23.8345 75.5782 23.8345C76.7349 23.8216 77.887 23.8261 79.0437 23.8261C79.0482 23.8655 79.0527 23.9003 79.0567 23.9397C77.8695 24.0668 76.6778 24.1366 75.4862 24.2024ZM79.4351 22.4042C78.4501 22.4042 77.4697 22.3907 76.4841 22.3997C76.0402 22.4042 75.5918 22.4565 75.1473 22.4785C74.9982 22.4869 74.822 22.5701 74.7254 22.3688C74.752 22.15 74.9366 22.137 75.0857 22.1286C76.6033 22.0144 78.1203 21.9796 79.6327 22.2203C79.6768 22.2287 79.7124 22.2726 79.831 22.3558C79.6463 22.3778 79.5407 22.4042 79.4351 22.4042ZM98.2081 20.151C98.4193 18.1864 98.3577 16.3748 97.9353 14.5372C99.7691 15.2201 101.519 15.9462 103.265 16.8737C101.876 18.4271 100.072 19.2146 98.2081 20.151ZM98.8807 16.7117C99.2636 17.1189 101.335 17.4294 101.832 17.1757C100.816 16.9698 99.8747 16.6903 98.8807 16.7117ZM98.626 18.1819C98.9293 18.6066 99.3162 18.4839 99.633 18.5188C99.9583 18.5537 100.301 18.6369 100.622 18.4401C99.9888 18.331 99.3777 18.0334 98.626 18.1819ZM94.5275 21.5026C91.4048 22.5443 88.2432 23.2614 84.9935 23.9223C85.0376 23.4104 85.0551 22.9509 85.1167 22.5004C85.2528 21.4587 85.3539 20.4131 85.5606 19.3895C86.1366 16.5677 88.0236 15.0451 90.7322 14.4062C91.1942 14.2971 91.6906 14.2751 92.1656 14.2881C93.6171 14.3229 94.58 15.1717 94.6636 16.6155C94.7342 17.8366 94.6506 19.0655 94.624 20.295C94.615 20.6758 94.5625 21.065 94.5275 21.5026ZM86.7788 18.4097C87.0736 18.5408 87.3549 18.453 87.6186 18.4097C89.6196 18.0767 91.6296 18.0289 93.6475 18.2038C93.7311 18.2128 93.8192 18.169 93.9689 18.138C92.6626 17.5171 87.5395 17.7185 86.7788 18.4097ZM92.9354 19.9497C92.3503 19.6566 91.075 19.6476 87.2803 19.8574C87.0561 19.8709 86.8228 19.8574 86.6031 20.0678C86.7042 20.1375 86.7703 20.2208 86.8358 20.2208C88.8368 20.1375 90.8378 20.0459 92.9354 19.9497ZM86.4269 22.0144C88.2082 21.8485 89.976 21.6865 91.7437 21.5161C91.8183 21.5071 91.8843 21.4503 92.0425 21.3716C91.8798 21.3406 91.8143 21.3147 91.7527 21.3147C90.486 21.3671 89.2237 21.4109 87.962 21.4767C87.535 21.4981 87.1131 21.5729 86.6907 21.6342C86.5455 21.6556 86.3964 21.682 86.4269 22.0144ZM93.5244 15.6661C92.7287 15.2814 89.2237 15.3511 88.6437 15.7583C88.7973 15.7887 88.9074 15.8371 89.017 15.8326C90.521 15.7364 92.025 15.8106 93.5244 15.6661Z" fill="#8F5328"/>
</g>
<defs>
<filter id="filter0_d_838_3405" x="0" y="0" width="112" height="107" filterUnits="userSpaceOnUse" color-interpolation-filters="sRGB">
<feFlood flood-opacity="0" result="BackgroundImageFix"/>
<feColorMatrix in="SourceAlpha" type="matrix" values="0 0 0 0 0 0 0 0 0 0 0 0 0 0 0 0 0 0 127 0" result="hardAlpha"/>
<feOffset dy="4"/>
<feGaussianBlur stdDeviation="2"/>
<feComposite in2="hardAlpha" operator="out"/>
<feColorMatrix type="matrix" values="0 0 0 0 0 0 0 0 0 0 0 0 0 0 0 0 0 0 0.25 0"/>
<feBlend mode="normal" in2="BackgroundImageFix" result="effect1_dropShadow_838_3405"/>
<feBlend mode="normal" in="SourceGraphic" in2="effect1_dropShadow_838_3405" result="shape"/>
</filter>
</defs>
</svg>
