<svg width="99" height="99" viewBox="0 0 99 99" fill="none" xmlns="http://www.w3.org/2000/svg">
<path d="M19.7286 49.6523C28.7234 60.805 78.3014 69.0296 78.408 64.1053C78.5142 59.1814 66.2196 61.3107 56.7991 47.949C47.3786 34.5873 32.5289 28.9178 32.5289 28.9178C32.5289 28.9178 25.4769 26.8152 20.7399 34.534C16.003 42.2529 19.7286 49.6523 19.7286 49.6523Z" fill="#673D22"/>
<path d="M32.3418 29.9032C32.3418 29.9032 47.1644 35.5456 56.612 48.9339C66.0592 62.3223 78.3005 60.1396 78.2205 65.0906C78.1143 70.0411 28.5363 61.79 19.5415 50.6376" fill="#B26249"/>
<path d="M32.3291 29.8861C32.4297 29.9501 32.5276 30.0185 32.6227 30.091C32.7178 30.1634 32.8101 30.2401 32.8996 30.3205C32.9891 30.4009 33.0759 30.4852 33.1594 30.5736C33.2434 30.6619 33.3237 30.7538 33.4017 30.8497C33.4793 30.9456 33.5537 31.045 33.6253 31.1481C33.6965 31.2515 33.7649 31.3581 33.8298 31.4683C33.8946 31.5789 33.9567 31.6927 34.0152 31.8097C34.0737 31.9267 34.1286 32.0472 34.1803 32.171C34.232 32.2947 34.2806 32.4216 34.3255 32.5517C34.3705 32.6814 34.4119 32.8147 34.4501 32.9504C34.4879 33.0864 34.5225 33.2253 34.5535 33.3665C34.5845 33.5082 34.612 33.6526 34.6359 33.7994C34.6597 33.9462 34.68 34.0954 34.6967 34.2474C34.7138 34.399 34.727 34.5529 34.7365 34.7093C34.7461 34.8657 34.752 35.024 34.7544 35.1847C34.7564 35.3451 34.7552 35.5074 34.7504 35.6717C34.7457 35.836 34.7369 36.0023 34.725 36.1698C34.713 36.3377 34.6971 36.5068 34.678 36.6775C34.6585 36.8482 34.6359 37.0205 34.6096 37.1935C34.5829 37.367 34.5531 37.5413 34.5197 37.7167C34.4863 37.8922 34.4493 38.0688 34.4087 38.2459C34.3681 38.4233 34.3243 38.6011 34.277 38.7794C34.2296 38.958 34.1787 39.1371 34.1246 39.3165C34.0705 39.4959 34.0132 39.6758 33.9523 39.8556C33.8915 40.0354 33.8274 40.2153 33.7602 40.3955C33.6929 40.5753 33.6225 40.7552 33.5489 40.9346C33.4753 41.114 33.3985 41.2931 33.3189 41.4717C33.239 41.6503 33.1562 41.8286 33.0703 42.006C32.9847 42.1835 32.896 42.3597 32.8045 42.5356C32.713 42.7114 32.6187 42.8861 32.5216 43.0596C32.4246 43.233 32.3247 43.4053 32.2224 43.5764C32.1202 43.7475 32.0152 43.9169 31.9077 44.0852C31.8003 44.2531 31.6905 44.4198 31.5783 44.5845C31.4661 44.7493 31.3515 44.912 31.2346 45.0731C31.118 45.2339 30.999 45.393 30.8781 45.5498C30.7571 45.7065 30.6338 45.8613 30.5089 46.0137C30.3839 46.1656 30.257 46.3156 30.1285 46.4632C30 46.6104 29.8695 46.7553 29.7374 46.8977C29.6057 47.0397 29.4721 47.179 29.3372 47.3158C29.2019 47.4523 29.0654 47.586 28.9278 47.7169C28.7901 47.8474 28.6513 47.9751 28.5112 48.0996C28.3708 48.2238 28.2299 48.3451 28.0875 48.4633C27.9455 48.581 27.8026 48.6956 27.6586 48.8066C27.515 48.9176 27.3702 49.0254 27.2253 49.1293C27.0801 49.2335 26.9341 49.3338 26.7881 49.4305C26.6417 49.5271 26.4953 49.6202 26.3485 49.7094C26.2017 49.7985 26.0548 49.8836 25.9076 49.9652C25.7604 50.0468 25.6132 50.1239 25.4664 50.1975C25.3192 50.2707 25.1724 50.34 25.0256 50.4052C24.8792 50.4705 24.7328 50.5317 24.5867 50.5886C24.4411 50.6455 24.2959 50.6984 24.1511 50.747C24.0063 50.7951 23.8622 50.8397 23.719 50.8795C23.5758 50.9193 23.4334 50.9551 23.2917 50.9861C23.1505 51.0175 23.01 51.0446 22.8704 51.0669C22.7311 51.0895 22.5931 51.1078 22.4562 51.1214C22.3193 51.1353 22.1841 51.1444 22.05 51.1496C21.9159 51.1544 21.7838 51.1548 21.6529 51.1512C21.522 51.1472 21.3927 51.1389 21.2654 51.1261C21.1381 51.1134 21.0124 51.0963 20.8886 51.0748C20.7653 51.0533 20.6436 51.0275 20.5242 50.9972C20.4045 50.9666 20.2871 50.9324 20.1717 50.8934C20.0567 50.8544 19.9437 50.811 19.8331 50.7637C19.7225 50.716 19.6143 50.6642 19.5089 50.6085C19.403 50.5524 19.3 50.4924 19.1993 50.4279C19.0987 50.3638 19.0008 50.2954 18.9057 50.223C18.8106 50.1506 18.7183 50.0742 18.6288 49.9934C18.5393 49.9131 18.4526 49.8287 18.369 49.7404C18.2851 49.6521 18.2047 49.5602 18.1271 49.4643C18.0491 49.3684 17.9747 49.2689 17.9035 49.1659C17.8319 49.0624 17.7639 48.9558 17.6986 48.8456C17.6338 48.735 17.5717 48.6216 17.5132 48.5043C17.4547 48.3873 17.3998 48.2667 17.3481 48.143C17.2964 48.0193 17.2478 47.8923 17.2029 47.7622C17.1579 47.6325 17.1165 47.4993 17.0784 47.3636C17.0406 47.2275 17.0059 47.0887 16.9749 46.9474C16.9439 46.8058 16.9164 46.6614 16.8926 46.5146C16.8687 46.3678 16.8484 46.2186 16.8317 46.0666C16.815 45.915 16.8014 45.761 16.7919 45.6047C16.7823 45.4483 16.7764 45.29 16.7744 45.1292C16.772 44.9689 16.7732 44.8066 16.778 44.6422C16.7827 44.4779 16.7915 44.3116 16.8034 44.1441C16.8154 43.9762 16.8313 43.8071 16.8504 43.6364C16.8699 43.4658 16.8926 43.2935 16.9188 43.1204C16.9455 42.947 16.9753 42.7727 17.0087 42.5972C17.0421 42.4218 17.0791 42.2451 17.1197 42.0681C17.1603 41.8906 17.2041 41.7128 17.2514 41.5346C17.2988 41.3559 17.3497 41.1769 17.4038 40.9975C17.4579 40.818 17.5152 40.6382 17.5761 40.4584C17.6369 40.2785 17.701 40.0987 17.7682 39.9185C17.8355 39.7386 17.9059 39.5592 17.9795 39.3794C18.0531 39.1999 18.1299 39.0209 18.2095 38.8423C18.2894 38.6636 18.3722 38.4854 18.4581 38.3079C18.5437 38.1305 18.6324 37.9542 18.7239 37.7784C18.8154 37.6025 18.9097 37.4279 19.0068 37.2544C19.1039 37.0809 19.2037 36.9087 19.306 36.7376C19.4082 36.5665 19.5132 36.397 19.6207 36.2287C19.7281 36.0608 19.8379 35.8941 19.9501 35.7294C20.0623 35.5647 20.1769 35.402 20.2938 35.2408C20.4104 35.0801 20.5294 34.921 20.6503 34.7642C20.7713 34.6074 20.8946 34.4527 21.0195 34.3007C21.1445 34.1483 21.2714 33.9983 21.3999 33.8507C21.5284 33.7035 21.6589 33.5587 21.791 33.4163C21.9227 33.2742 22.0564 33.135 22.1912 32.9981C22.3265 32.8616 22.463 32.728 22.6006 32.5971C22.7383 32.4666 22.8771 32.3389 23.0172 32.2143C23.1576 32.0902 23.2985 31.9688 23.4409 31.8511C23.5829 31.7329 23.7258 31.6183 23.8698 31.5073C24.0134 31.3963 24.1582 31.2885 24.3035 31.1847C24.4483 31.0804 24.5943 30.9802 24.7403 30.8835C24.8867 30.7868 25.0331 30.6937 25.18 30.6046C25.3268 30.5155 25.4736 30.4303 25.6208 30.3488C25.768 30.2672 25.9152 30.19 26.062 30.1164C26.2092 30.0432 26.356 29.974 26.5028 29.9087C26.6492 29.8435 26.7957 29.7822 26.9417 29.7253C27.0873 29.6684 27.2329 29.6155 27.3773 29.5674C27.5221 29.5188 27.6662 29.4747 27.8094 29.4345C27.9526 29.3947 28.0951 29.3589 28.2367 29.3279C28.3783 29.2964 28.5184 29.2694 28.658 29.2471C28.7973 29.2244 28.9353 29.2061 29.0722 29.1926C29.2091 29.1787 29.3443 29.1695 29.4784 29.1643C29.6125 29.1596 29.7446 29.1592 29.8755 29.1631C30.0064 29.1667 30.1357 29.1751 30.263 29.1878C30.3903 29.2005 30.516 29.2177 30.6398 29.2391C30.7631 29.2606 30.8848 29.2869 31.0042 29.3171C31.124 29.3474 31.2413 29.382 31.3567 29.4206C31.4717 29.4595 31.5847 29.5029 31.6953 29.5503C31.8059 29.598 31.9141 29.6497 32.0199 29.7054C32.1254 29.7615 32.2284 29.8216 32.3291 29.8861Z" fill="#FEECE1"/>
<path d="M26.51 38.9907C26.5557 39.0201 26.5959 39.0563 26.6313 39.1001C26.6663 39.1435 26.6958 39.1936 26.7192 39.2497C26.7427 39.3058 26.7598 39.3675 26.7706 39.4343C26.7813 39.5011 26.7853 39.572 26.7833 39.6468C26.7809 39.7216 26.7718 39.7987 26.7566 39.8787C26.7411 39.9587 26.7196 40.0395 26.6918 40.1214C26.6643 40.2034 26.6309 40.2845 26.5915 40.3653C26.5525 40.4461 26.5088 40.5248 26.4598 40.6016C26.4109 40.678 26.358 40.7508 26.3007 40.8204C26.2438 40.8897 26.1841 40.9541 26.1217 41.0138C26.0588 41.0735 25.9943 41.1268 25.9283 41.1745C25.8622 41.2219 25.7958 41.2625 25.729 41.2959C25.6621 41.3293 25.5961 41.3552 25.5308 41.3735C25.466 41.3918 25.4027 41.4021 25.3418 41.4045C25.281 41.4069 25.2233 41.4013 25.1692 41.3874C25.1147 41.3739 25.0649 41.3524 25.0192 41.3233C24.9734 41.2939 24.9332 41.2577 24.8978 41.2139C24.8628 41.1706 24.8334 41.1204 24.8099 41.0643C24.7864 41.0082 24.7693 40.9466 24.7586 40.8797C24.7478 40.8129 24.7439 40.7421 24.7459 40.6673C24.7482 40.5925 24.7574 40.5153 24.7725 40.4353C24.788 40.3554 24.8095 40.2746 24.8374 40.1926C24.8648 40.1107 24.8982 40.0295 24.9376 39.9487C24.9766 39.868 25.0204 39.7892 25.0693 39.7124C25.1183 39.636 25.1716 39.5632 25.2285 39.4936C25.2854 39.4244 25.345 39.3599 25.4075 39.3002C25.4704 39.2406 25.5348 39.1872 25.6009 39.1395C25.6669 39.0921 25.7333 39.0516 25.8002 39.0181C25.867 38.9847 25.9331 38.9589 25.9983 38.9406C26.0632 38.9223 26.1264 38.9119 26.1873 38.9095C26.2482 38.9071 26.3059 38.9127 26.36 38.9266C26.4145 38.9402 26.4642 38.9617 26.51 38.9907Z" fill="#DDC8BF"/>
<path d="M28.5366 53.3795C28.5366 53.3795 47.2981 62.4029 53.0726 62.8019C53.0726 62.8019 37.638 59.7146 28.5366 53.3795Z" fill="#54210F" fill-opacity="0.4275"/>
<path d="M30.8254 47.2042C30.8254 47.2042 55.2285 61.5506 63.0261 62.7215C63.0261 62.7215 42.4549 56.7863 30.8254 47.2042Z" fill="#54210F" fill-opacity="0.4275"/>
<path d="M33.593 44.6223C33.593 44.6223 63.0787 57.0792 67.8689 64.8776C67.8423 64.8776 54.3768 50.5579 33.593 44.6223Z" fill="#54210F" fill-opacity="0.4275"/>
<path d="M36.8933 35.9717C36.8933 35.9717 55.1224 45.8999 61.7754 58.1965C61.7754 58.1965 51.0507 42.6792 36.8933 35.9717Z" fill="#54210F" fill-opacity="0.4275"/>
<path d="M39.9265 36.7705C39.9265 36.7705 52.993 43.8771 57.7566 52.6872C57.7299 52.6872 50.0389 41.5882 39.9265 36.7705Z" fill="#54210F" fill-opacity="0.4275"/>
<path d="M39.1018 35.3594C39.1817 36.0513 39.2084 36.7169 39.1551 37.4088C39.1284 38.1011 39.0222 38.7663 38.8889 39.4586C38.7294 40.1238 38.5165 40.7894 38.1704 41.4013C37.8246 42.0136 37.3723 42.546 36.8133 42.9721L36.7866 42.9454C37.239 42.4131 37.6384 41.8807 37.9309 41.2684C38.2237 40.6561 38.4899 40.0438 38.6761 39.4053C38.836 38.7396 38.9689 38.0744 39.0222 37.4088C39.0751 36.7436 39.1018 36.0513 39.1018 35.3594Z" fill="#C38A65"/>
<path d="M48.2824 41.5884C48.442 42.3869 48.4686 43.1854 48.3353 44.0105C48.2824 44.4096 48.1491 44.809 47.9629 45.1814L47.8034 45.4476C47.7501 45.5276 47.6701 45.6075 47.6168 45.6871C47.4839 45.8471 47.3244 45.9799 47.1644 46.1132L47.1382 46.0866C47.351 45.7404 47.5639 45.421 47.7234 45.0486C47.883 44.7024 48.0429 44.3296 48.1225 43.9572C48.2291 43.5844 48.2824 43.1854 48.2824 42.7859C48.3091 42.4135 48.3091 41.9874 48.2824 41.5884Z" fill="#C38A65"/>
<path d="M52.9399 48.2424C52.8866 49.1471 52.727 50.0522 52.5142 50.9307C52.3013 51.8088 52.0085 52.6872 51.6361 53.5391C51.29 54.3909 50.8376 55.1894 50.2786 55.9346C49.72 56.6798 49.0544 57.3187 48.3096 57.8511L48.283 57.8244C48.9215 57.1854 49.5601 56.5469 50.0658 55.7746C50.5714 55.0294 51.0771 54.2843 51.4495 53.4591C51.8223 52.6339 52.1414 51.7821 52.3809 50.904C52.6204 50.0522 52.807 49.1471 52.9399 48.2424Z" fill="#C38A65"/>
<path d="M58.3947 52.3145C58.4481 52.7406 58.4747 53.1663 58.4747 53.5924C58.4747 54.0181 58.4481 54.4438 58.3681 54.8699C58.2885 55.2956 58.2085 55.7217 57.969 56.1208C57.7562 56.4936 57.4367 56.8393 57.0376 57.0259L57.011 56.9992C57.3038 56.7064 57.5433 56.3603 57.7295 55.9879C57.9157 55.6151 58.049 55.2423 58.1552 54.8166C58.2619 54.4175 58.3148 53.9914 58.3414 53.5657C58.3947 53.1663 58.3947 52.7406 58.3947 52.3145Z" fill="#C38A65"/>
<path d="M59.6457 61.0179C59.699 61.7098 59.6457 62.4021 59.4329 63.0673C59.3262 63.4135 59.22 63.7596 58.9538 64.0258C58.7143 64.2919 58.3949 64.5048 58.0225 64.5581V64.5314C58.3149 64.3448 58.5544 64.132 58.741 63.8658C58.9272 63.5997 59.0867 63.3068 59.22 63.014C59.3529 62.6945 59.4329 62.3754 59.4858 62.0293C59.5658 61.7098 59.5924 61.3637 59.6457 61.0179Z" fill="#C38A65"/>
<path d="M66.1386 60.3795C66.192 61.1514 66.1653 61.9232 65.9791 62.6688C65.8991 63.0412 65.7662 63.4406 65.5267 63.7601C65.2872 64.0792 64.9148 64.3187 64.5154 64.3454V64.3187C64.8615 64.1592 65.1277 63.893 65.3139 63.6002C65.5001 63.3074 65.6863 62.9616 65.7929 62.6155C65.8991 62.2693 65.9791 61.8966 66.0324 61.5242C66.0857 61.1514 66.1124 60.7523 66.1386 60.3795Z" fill="#C38A65"/>
<path d="M72.6864 61.9233C72.8726 62.5356 72.8726 63.2013 72.6864 63.8132C72.5798 64.1326 72.4469 64.4255 72.234 64.665C72.0212 64.9045 71.755 65.0911 71.4622 65.224L71.4355 65.1973C71.5422 65.0644 71.6484 64.9578 71.755 64.8512C71.8613 64.7183 71.9679 64.6117 72.0479 64.5054C72.234 64.2659 72.3936 64.0264 72.5265 63.7336C72.6331 63.4674 72.7131 63.1479 72.7397 62.8551C72.7131 62.5356 72.7131 62.2162 72.6864 61.9233Z" fill="#C38A65"/>
<path d="M28.1907 55.6146C28.6697 55.375 29.1487 55.0556 29.5748 54.7361C30.0005 54.417 30.3996 54.0442 30.7457 53.6185C31.0915 53.1924 31.3576 52.74 31.5705 52.261C31.7833 51.7816 31.89 51.2493 31.9695 50.7169H31.9962C32.0762 51.2759 32.0229 51.8349 31.81 52.3672C31.5971 52.8996 31.2777 53.3523 30.9053 53.778C30.5329 54.1771 30.1068 54.5499 29.6544 54.8694C29.1754 55.1355 28.6964 55.4017 28.1907 55.6146Z" fill="#C38A65"/>
<path d="M35.6687 58.1172C35.9882 57.904 36.3073 57.6378 36.6001 57.3983C36.8929 57.1321 37.1853 56.866 37.4248 56.5998C37.691 56.307 37.9039 55.9879 38.1171 55.6951C38.33 55.3756 38.5162 55.0561 38.5961 54.657H38.6224C38.6757 55.0561 38.5428 55.4822 38.33 55.8279C38.1434 56.2007 37.851 56.4669 37.5581 56.7597C36.9991 57.2921 36.3606 57.7444 35.6687 58.1172Z" fill="#C38A65"/>
<path d="M48.1235 62.4821C48.5496 62.2693 48.9487 62.0031 49.2944 61.7103C49.6672 61.4175 50.013 61.0984 50.3058 60.7256C50.5986 60.3528 50.8381 59.9537 51.0243 59.5543C51.2372 59.1286 51.3438 58.7025 51.4234 58.2234H51.45C51.5033 58.7025 51.45 59.2085 51.2638 59.6609C51.0776 60.1133 50.7848 60.5127 50.4653 60.8851C50.1462 61.2313 49.7735 61.5507 49.3744 61.8169C49.002 62.0564 48.5759 62.2959 48.1235 62.4821Z" fill="#C38A65"/>
<path d="M69.599 87.2888C69.439 87.3954 69.2795 87.4754 69.1199 87.5549C66.6715 88.4867 65.4207 84.9999 64.7821 83.2962C64.383 82.2316 64.1968 81.1403 63.5845 80.1555C62.6798 78.7181 61.3494 77.6268 60.2847 76.3226C59.4333 75.3112 58.7147 74.2199 58.0495 73.0757C57.5438 72.1972 57.0648 71.3187 56.6125 70.3873C56.6125 70.3873 56.6125 70.3607 56.5858 70.3607C56.5591 70.2807 56.5058 70.2274 56.4792 70.1478C55.4149 67.9652 54.1907 65.8625 53.0464 63.7065C52.8599 63.387 52.7003 63.0409 52.5141 62.7214C52.4875 62.6685 52.4608 62.6152 52.4341 62.5885C52.3808 62.4819 52.3279 62.4023 52.3013 62.2957C50.678 59.1283 49.081 55.961 47.5377 52.767C47.4044 52.5008 47.2715 52.208 47.1386 51.9418C47.0054 51.6756 46.8991 51.4361 46.7659 51.1966C45.2755 48.1355 43.7322 45.2609 41.7894 42.4393C41.2042 41.5879 40.6718 40.7094 40.1662 39.8043C40.1395 39.7514 40.1129 39.6981 40.0862 39.6448C39.7938 39.1391 39.5276 38.6068 39.2881 38.0744C39.1548 37.7816 38.9953 37.4888 38.862 37.1693C38.8357 37.116 38.8091 37.0897 38.8091 37.0364C38.7558 36.9298 38.7024 36.7969 38.6491 36.6903C38.0106 35.1466 37.5049 33.5229 37.2654 31.8726C38.2767 32.5116 39.2614 33.1501 40.2461 33.7891C40.0862 33.1501 39.9533 32.5116 39.8733 31.8993C39.421 28.8385 39.8467 25.7507 41.7628 23.1157C42.6942 21.8115 43.8917 20.7202 45.1959 19.8151C45.1959 19.8151 44.9564 16.7277 43.7855 15.3702C43.386 15.2373 43.1199 15.0241 42.987 14.7313C43.8651 14.5184 44.7965 14.066 45.3821 13.1876C45.3821 13.1876 45.2492 13.9594 45.595 14.8112C45.6749 14.9974 45.7545 15.1574 45.8611 15.3436C46.2335 15.9292 46.8991 16.4882 47.9901 16.8606C50.9175 17.7924 58.1024 15.3702 61.0832 23.5948C61.2427 24.0209 61.376 24.4732 61.5089 24.9789C62.7864 29.7433 63.984 34.7471 65.0483 39.2453C65.1016 39.4586 65.1549 39.6981 65.2078 39.9109C65.2345 40.0176 65.2611 40.0971 65.2878 40.2038C65.9263 42.8921 66.5386 45.3672 67.071 47.4965C67.1505 47.816 67.2305 48.1088 67.3105 48.4016C67.5763 49.413 67.8158 50.3448 68.0553 51.1166C68.0819 51.2229 68.1352 51.3561 68.1619 51.489C68.6143 53.1927 68.7472 54.9229 68.7472 56.6528C68.7472 56.919 68.7472 57.1585 68.7209 57.4247C68.6942 58.0103 68.6676 58.596 68.6409 59.1816C68.6143 59.4478 68.6143 59.6873 68.5876 59.9535C68.5876 60.0068 68.5876 60.033 68.5876 60.0864C68.5876 60.1397 68.5876 60.1663 68.5876 60.2196C68.5076 61.4172 68.4014 62.6152 68.3481 63.8127C68.3481 63.866 68.3481 63.9193 68.3481 63.9726C68.3481 64.1322 68.3481 64.2655 68.3214 64.425C68.2948 65.3301 68.2948 66.2082 68.3481 67.06C68.3481 67.14 68.3481 67.2462 68.3481 67.3262C68.4814 69.9346 68.9337 72.41 69.4657 75.0184C69.5723 75.604 69.7052 76.163 69.8385 76.7487C69.8385 76.802 69.8651 76.8549 69.8651 76.9349C70.158 78.2391 70.8498 80.8474 70.9561 83.19C70.9827 84.8932 70.7166 86.5436 69.599 87.2888Z" fill="#673D22"/>
<path d="M71.7275 87.6353C70.9024 87.9548 70.1838 87.7419 69.6252 87.2892C68.5072 86.3844 67.8154 84.4946 67.3897 83.3766C66.9906 82.3119 66.8044 81.2206 66.1921 80.2359C65.2874 78.7985 63.9569 77.7071 62.8923 76.4029C62.307 75.6844 61.748 74.9126 61.2423 74.1407C60.6038 73.1556 60.0448 72.1443 59.5125 71.0796C59.4858 70.9996 59.4329 70.9467 59.4062 70.8667C59.3263 70.7335 59.2729 70.6006 59.1934 70.4673C58.0754 68.1518 56.7716 65.8895 55.5474 63.6269C55.5207 63.5736 55.4941 63.5203 55.4674 63.4674C55.3345 63.2012 55.2017 62.9617 55.0684 62.6955C54.6693 61.9233 54.2699 61.1248 53.8708 60.3529C53.8175 60.2467 53.7646 60.1401 53.7113 60.0338C52.7532 58.144 51.7952 56.2275 50.8638 54.311C50.6509 53.8853 50.4381 53.4326 50.2252 53.0069C50.0653 52.6874 49.9058 52.3679 49.7462 52.0222C49.2672 50.9837 48.7615 49.9724 48.2558 48.9877C47.1116 46.7517 45.8607 44.6224 44.4237 42.5197C44.317 42.3868 44.2375 42.2269 44.1308 42.094C43.998 41.9078 43.8913 41.7212 43.7851 41.535C43.3327 40.8165 42.9066 40.0709 42.5076 39.299C42.4276 39.1395 42.348 38.9799 42.2681 38.82C41.9223 38.1281 41.6028 37.4625 41.31 36.744C40.911 35.7855 40.5648 34.7742 40.2987 33.7628C40.1391 33.1239 40.0062 32.4853 39.9263 31.873C39.4739 28.8123 39.8996 25.7245 41.8157 23.0895C42.7471 21.7853 43.9446 20.694 45.2484 19.7892C45.2484 19.7892 45.0093 16.7014 43.838 15.344C43.7318 15.2111 43.5985 15.0778 43.4656 14.9978C43.4656 14.9978 44.5036 15.1044 45.6479 14.785C46.4993 14.5721 47.4307 14.1197 48.0163 13.2413C48.0163 13.2413 48.0163 13.2413 48.0163 13.2679C48.0163 13.3212 47.9897 13.4541 47.9897 13.667C47.9897 14.4655 48.3091 16.1691 50.6243 16.9143C53.6846 17.8994 61.5085 15.1578 64.1431 25.0326C66.7778 34.9075 69.1195 45.847 70.6895 51.1437C71.4613 53.7787 71.4347 56.4937 71.2751 59.2087C71.1685 60.8057 71.009 62.4027 70.9557 63.973C70.929 64.4787 70.929 64.9844 70.929 65.4901C70.929 65.7562 70.929 65.9958 70.929 66.2353C70.929 66.688 70.9557 67.1137 70.9823 67.5394C70.9823 67.5661 70.9823 67.5928 70.9823 67.6461C71.1685 70.7068 71.7542 73.6346 72.446 76.7491C72.4727 76.9086 72.5256 77.0948 72.5789 77.2814C73.1646 79.9964 74.7878 86.464 71.7275 87.6353Z" fill="#B26249"/>
<path d="M45.8609 15.264C45.0891 15.4772 44.3439 15.4772 43.7853 15.2906C43.3858 15.1577 43.1197 14.9449 42.9868 14.6521C42.9601 14.5988 42.9601 14.5721 42.9335 14.5188C42.694 13.7203 43.652 12.7356 45.0358 12.3628C46.4199 11.9637 47.7237 12.3099 47.9632 13.1346C47.9632 13.1613 47.9899 13.1879 47.9899 13.2146C48.0165 13.3479 48.0165 13.4808 47.9632 13.6141C47.777 14.2793 46.9518 14.9715 45.8609 15.264Z" fill="white"/>
<mask id="mask0_838_4359" style="mask-type:luminance" maskUnits="userSpaceOnUse" x="0" y="0" width="99" height="99">
<path d="M99 0H0V99H99V0Z" fill="black" fill-opacity="0.4275"/>
</mask>
<g mask="url(#mask0_838_4359)">
<mask id="mask1_838_4359" style="mask-type:luminance" maskUnits="userSpaceOnUse" x="39" y="21" width="35" height="63">
<path d="M73.1284 21.7957H39.7209V83.9254H73.1284V21.7957Z" fill="white"/>
</mask>
<g mask="url(#mask1_838_4359)">
<path d="M45.0349 35.599C45.0349 35.599 54.9082 62.2958 60.2037 68.1514C60.2303 68.1514 47.989 50.4511 45.0349 35.599Z" fill="#54210F"/>
<path d="M46.3394 26.7621C46.3394 26.7621 59.7516 63.0675 66.9902 71.0258C66.9902 71.0525 50.3577 46.9645 46.3394 26.7621Z" fill="#54210F"/>
<path d="M49.2666 24.4203C49.2666 24.4203 69.7042 63.0945 68.0276 75.4978C68.0276 75.4978 66.1119 48.6948 49.2666 24.4203Z" fill="#54210F"/>
<path d="M55.9995 22.5833C55.9995 22.5833 70.2102 47.1774 69.1989 66.2348C69.1989 66.2348 67.7089 40.4965 55.9995 22.5833Z" fill="#54210F"/>
<path d="M58.9268 25.6978C58.9268 25.6978 69.0924 43.2915 68.3739 56.946C68.3739 56.946 67.3359 38.5272 58.9268 25.6978Z" fill="#54210F"/>
<mask id="mask2_838_4359" style="mask-type:luminance" maskUnits="userSpaceOnUse" x="52" y="21" width="11" height="7">
<path d="M52.4539 21.8414H62.639V27.9075H52.4539V21.8414Z" fill="white"/>
</mask>
<g mask="url(#mask2_838_4359)">
<path d="M62.5468 21.8654C61.9345 22.6905 61.2692 23.4357 60.5507 24.1276C59.8322 24.8199 59.0337 25.4851 58.2089 26.0441C57.3571 26.6031 56.479 27.1087 55.4943 27.4282C55.0153 27.5878 54.5096 27.6944 54.0043 27.7744C53.4987 27.8273 52.993 27.8539 52.4873 27.8006V27.7744C52.993 27.7477 53.4987 27.6677 53.9777 27.5878C54.4567 27.4815 54.9357 27.3482 55.4147 27.1887C56.3461 26.8426 57.2509 26.4169 58.1023 25.8845C58.9541 25.3522 59.7522 24.7399 60.4707 24.048C61.1893 23.3557 61.8811 22.6372 62.5468 21.8654Z" fill="#C38A65"/>
</g>
<path d="M66.4314 38.6874C66.1385 39.1931 65.7661 39.6721 65.3671 40.0978C64.9676 40.524 64.5153 40.9497 64.0363 41.2958C63.5572 41.6682 63.0253 41.961 62.4663 42.1476C61.9073 42.3338 61.2954 42.4138 60.6831 42.3871V42.3605C61.2688 42.2272 61.8277 42.121 62.3597 41.8814C62.892 41.6682 63.4244 41.4287 63.9034 41.0829C64.3824 40.7635 64.8348 40.3907 65.2605 39.965C65.6862 39.5922 66.0856 39.1398 66.4314 38.6874Z" fill="#C38A65"/>
<path d="M68.933 46.965C67.9483 47.8698 66.8569 48.6949 65.7394 49.4401C64.6218 50.1853 63.4242 50.8243 62.2 51.3566C61.5881 51.6228 60.9491 51.8623 60.3106 52.0751C59.9911 52.1818 59.672 52.2617 59.3259 52.3679C59.0064 52.4479 58.6607 52.5279 58.3412 52.5808C57.0107 52.8207 55.6536 52.8736 54.2961 52.7141V52.6874C55.627 52.7141 56.9841 52.6075 58.2879 52.3146C58.9535 52.1818 59.592 52.0222 60.2306 51.8356C60.8696 51.6494 61.5081 51.4099 62.12 51.1704C63.3442 50.6647 64.5418 50.0258 65.686 49.3339C66.8303 48.6149 67.9216 47.8164 68.933 46.965Z" fill="#C38A65"/>
<path d="M70.7956 56.8394C70.4228 57.3455 70.0237 57.8245 69.598 58.2769C69.1723 58.7292 68.6933 59.1554 68.1876 59.5277C67.6819 59.9005 67.1229 60.2467 66.511 60.4595C65.8987 60.6457 65.2335 60.7257 64.6216 60.5395V60.5128C65.2601 60.5395 65.8458 60.4329 66.431 60.1934C66.99 59.9805 67.5486 59.6877 68.0543 59.3416C68.56 58.9954 69.039 58.5964 69.4914 58.1703C69.9437 57.7712 70.3698 57.2922 70.7956 56.8394Z" fill="#C38A65"/>
<path d="M65.2335 67.9921C64.5949 68.764 63.8231 69.4558 62.9183 69.9882C62.466 70.2544 61.987 70.4672 61.4546 70.5205C60.9223 70.6005 60.3904 70.4939 59.938 70.2277V70.201C60.1775 70.2544 60.417 70.3077 60.6828 70.3077C60.9223 70.3077 61.1618 70.281 61.4013 70.2544C61.8803 70.1744 62.3594 70.0148 62.7855 69.7753C63.2378 69.5625 63.6369 69.2697 64.0359 68.9502C64.4883 68.684 64.8611 68.3379 65.2335 67.9921Z" fill="#C38A65"/>
<path d="M71.089 73.3156C70.3705 74.1937 69.572 74.9655 68.614 75.5778C68.1349 75.8707 67.6293 76.1635 67.044 76.2701C66.485 76.3763 65.8465 76.2964 65.3674 75.9506V75.924C65.8994 76.1102 66.4584 76.1368 66.964 76.0039C67.4964 75.8707 68.0021 75.6845 68.4811 75.3916C68.9601 75.1255 69.4125 74.7793 69.8382 74.4332C70.2905 74.0875 70.6896 73.7147 71.089 73.3156Z" fill="#C38A65"/>
<path d="M72.871 81.1674C72.6582 81.5935 72.392 81.9659 72.0725 82.3121C71.7535 82.6582 71.3807 82.9506 70.955 83.1639C70.5293 83.3767 70.0769 83.5629 69.6245 83.6162C69.1455 83.6696 68.6665 83.6162 68.2141 83.5096V83.483C68.3203 83.483 68.4536 83.483 68.5599 83.4567C68.6665 83.4567 68.7994 83.4567 68.906 83.43C69.1188 83.4034 69.3584 83.4034 69.5712 83.3501C70.0236 83.2701 70.4493 83.1639 70.8487 82.9773C71.2478 82.7911 71.6468 82.5249 71.9663 82.2054C72.3121 81.9126 72.6049 81.5402 72.871 81.1674Z" fill="#C38A65"/>
<path d="M39.8994 31.8192C40.6713 32.0587 41.4694 32.192 42.2679 32.272C43.0664 32.3515 43.8645 32.3515 44.663 32.2453C45.4615 32.1387 46.2329 31.9258 46.9515 31.6064C47.67 31.2869 48.3352 30.8345 48.9209 30.2755L48.9475 30.3022C48.4685 30.9678 47.8033 31.5001 47.0581 31.8459C46.3129 32.2187 45.4877 32.3782 44.6896 32.4582C43.8645 32.5381 43.0664 32.5115 42.2412 32.4049C41.4431 32.2986 40.6446 32.112 39.8994 31.8192Z" fill="#C38A65"/>
<path d="M45.5144 44.143C46.0734 44.223 46.659 44.2763 47.2443 44.303C47.8299 44.3292 48.3885 44.3292 48.9742 44.2763C49.5594 44.223 50.1184 44.1164 50.6508 43.9835C51.2094 43.8502 51.715 43.6373 52.1941 43.2912L52.2207 43.3179C51.8483 43.7969 51.2893 44.063 50.7303 44.2496C50.1717 44.4358 49.5594 44.4625 48.9742 44.4892C47.8033 44.5158 46.659 44.4092 45.5144 44.143Z" fill="#C38A65"/>
<path d="M53.7107 59.9803C54.3759 60.1665 55.0678 60.2731 55.7863 60.3527C56.4782 60.406 57.1701 60.406 57.862 60.3261C58.5538 60.2465 59.2194 60.0599 59.858 59.7937C60.4966 59.5276 61.0822 59.1552 61.6142 58.7024L61.6408 58.729C61.2151 59.288 60.6299 59.7408 59.9909 60.0599C59.3523 60.3794 58.6338 60.5127 57.9153 60.5656C57.1967 60.6189 56.5049 60.5922 55.7863 60.5127C55.0411 60.3794 54.3759 60.2198 53.7107 59.9803Z" fill="#C38A65"/>
</g>
</g>
</svg>
