<svg width="126" height="126" viewBox="0 0 126 126" fill="none" xmlns="http://www.w3.org/2000/svg">
<path d="M41.3291 55.1073C41.3291 55.1073 59.2408 54.4338 60.2287 32.2651C60.2059 32.2651 43.4386 34.1518 41.3291 55.1073Z" fill="#4C853D"/>
<path d="M41.8225 54.9955L44.0444 52.2551L46.2892 49.5152C47.7931 47.6958 49.297 45.8764 50.7786 44.057C52.2825 42.2377 53.7636 40.4183 55.2225 38.5766C55.9633 37.6556 56.6818 36.735 57.3776 35.7916C57.7366 35.3197 58.0956 34.8483 58.41 34.3763C58.7468 33.8826 59.0835 33.4107 59.3078 32.8714H59.3301C59.1058 33.4107 58.7918 33.9049 58.4551 34.3991C58.1407 34.8933 57.8039 35.3648 57.4449 35.859C56.7492 36.8246 56.0534 37.7457 55.3349 38.6891C53.8983 40.553 52.4172 42.3951 50.9356 44.214C47.9728 47.8528 44.9199 51.4464 41.8225 54.9955Z" fill="white"/>
<path d="M56.2556 34.8927C56.1432 35.1844 56.0308 35.4766 55.9189 35.7682C55.8065 36.0604 55.7169 36.3526 55.6495 36.6443C55.5822 36.9364 55.5148 37.2286 55.492 37.5431C55.4698 37.8347 55.5371 38.1492 55.7614 38.2393C56.0085 38.3289 56.323 38.2393 56.5919 38.1269C56.884 38.0145 57.1306 37.8575 57.4 37.7223C57.6694 37.5653 57.9165 37.4079 58.1859 37.2286C58.4553 37.0711 58.7019 36.8914 58.949 36.7116C58.4553 37.0939 57.9611 37.4529 57.4451 37.7902C57.1757 37.9471 56.9063 38.1046 56.6146 38.2165C56.323 38.3289 56.0085 38.4413 55.7169 38.3512C55.5594 38.2839 55.4698 38.1492 55.4247 37.9922C55.3801 37.8347 55.3801 37.6778 55.3801 37.5203C55.4024 37.2058 55.4698 36.9142 55.5594 36.5997C55.7614 36.0154 55.9862 35.4538 56.2556 34.8927Z" fill="white"/>
<path d="M54.3694 36.3067C54.2124 36.6885 54.0549 37.0703 53.9202 37.4521C53.7855 37.8339 53.6513 38.2157 53.5389 38.6202C53.4493 39.0243 53.3369 39.4061 53.3146 39.8107C53.3146 40.0128 53.3146 40.2148 53.3592 40.3946C53.4042 40.5743 53.5167 40.709 53.6959 40.7764C53.8529 40.8437 54.0549 40.8437 54.257 40.7986C54.459 40.7541 54.6388 40.709 54.8185 40.6189C55.1998 40.4619 55.5365 40.2599 55.8956 40.0578C56.2551 39.8553 56.5913 39.631 56.928 39.4061C57.2648 39.1818 57.6015 38.9347 57.9382 38.7099C57.2876 39.2264 56.6364 39.6983 55.9406 40.1474C55.5816 40.3723 55.2221 40.5743 54.8408 40.7313C54.661 40.8214 54.459 40.866 54.257 40.911C54.0549 40.9561 53.8306 40.9561 53.6513 40.8888C53.4493 40.8214 53.3146 40.6189 53.2695 40.4168C53.2022 40.2148 53.2022 40.0128 53.2245 39.8107C53.2473 39.4061 53.3369 39.002 53.4493 38.5975C53.6959 37.8116 54.0104 37.048 54.3694 36.3067Z" fill="white"/>
<path d="M51.6081 38.9578C51.4061 39.4297 51.2041 39.9011 51.0243 40.3953C50.845 40.8668 50.6653 41.361 50.5306 41.8552C50.3959 42.3494 50.2835 42.8436 50.2612 43.3601C50.2612 43.6072 50.2612 43.8543 50.3286 44.1014C50.3959 44.3257 50.5529 44.5278 50.7549 44.5956C50.957 44.6853 51.2263 44.6853 51.4507 44.6179C51.6978 44.5728 51.9449 44.5055 52.1692 44.3931C52.6406 44.2133 53.0893 43.9667 53.5384 43.6968C53.987 43.4275 54.4139 43.1353 54.818 42.8436C55.2443 42.5514 55.6707 42.2593 56.0748 41.9448C55.2666 42.5737 54.4362 43.2026 53.5607 43.7419C53.112 44.0113 52.6629 44.2584 52.1915 44.4604C51.9449 44.5506 51.6978 44.6402 51.4507 44.6853C51.2041 44.7303 50.9347 44.7526 50.6876 44.663C50.441 44.5728 50.2612 44.3257 50.1939 44.0786C50.1265 43.8315 50.1042 43.5621 50.1265 43.315C50.1488 42.7985 50.2835 42.3043 50.4182 41.8101C50.7549 40.8445 51.159 39.9011 51.6081 38.9578Z" fill="white"/>
<path d="M48.6013 42.6413C48.3993 43.1128 48.1972 43.5847 48.0175 44.0784C47.8382 44.5503 47.6584 45.0445 47.5238 45.5388C47.3891 46.0325 47.2766 46.5267 47.2544 47.0432C47.2544 47.2903 47.2544 47.5374 47.3217 47.7845C47.3891 48.0093 47.546 48.2114 47.7481 48.2787C47.9501 48.3683 48.2195 48.3683 48.4443 48.301C48.6909 48.2564 48.938 48.1891 49.1624 48.0767C49.6338 47.8969 50.0824 47.6498 50.5316 47.3804C50.9807 47.1105 51.4071 46.8189 51.8112 46.5267C52.2375 46.235 52.6639 45.9428 53.068 45.6284C52.2598 46.2573 51.4294 46.8862 50.5538 47.425C50.1052 47.6949 49.6561 47.942 49.1846 48.144C48.938 48.2336 48.6909 48.3238 48.4443 48.3683C48.1972 48.4134 47.9278 48.4357 47.6807 48.3461C47.4341 48.2564 47.2544 48.0093 47.187 47.7622C47.1197 47.5151 47.0974 47.2457 47.1197 46.9986C47.1425 46.4816 47.2766 45.9879 47.4113 45.4937C47.7709 44.5275 48.1522 43.5619 48.6013 42.6413Z" fill="white"/>
<path d="M45.0992 45.4267C44.8298 46.0105 44.605 46.5943 44.3807 47.201C44.1564 47.8076 43.9543 48.3914 43.7746 49.0203C43.5953 49.6265 43.4606 50.2554 43.4378 50.8843C43.4378 51.1987 43.4378 51.5132 43.528 51.8054C43.6176 52.0975 43.7974 52.3446 44.0667 52.4343C44.3361 52.5467 44.6501 52.5239 44.9645 52.4793C45.2785 52.412 45.5706 52.3219 45.8623 52.2094C46.4456 51.9623 47.0072 51.6707 47.5455 51.3334C48.0842 50.9967 48.623 50.6372 49.1395 50.2782C49.6555 49.9186 50.172 49.5368 50.688 49.155C49.6783 49.9409 48.6453 50.705 47.5683 51.3785C47.0295 51.7157 46.4684 52.0302 45.8846 52.2768C45.5929 52.412 45.2785 52.5016 44.9645 52.569C44.6501 52.6363 44.3133 52.6363 44.0217 52.5239C43.7072 52.412 43.5052 52.1198 43.4156 51.8054C43.3259 51.4909 43.3259 51.1765 43.3259 50.862C43.3705 50.2108 43.5052 49.6042 43.6849 48.9753C44.0667 47.7848 44.5382 46.5943 45.0992 45.4267Z" fill="white"/>
<path d="M41.3728 56.3198C41.3728 56.3198 51.3163 71.2332 70.7101 60.475C70.7101 60.475 60.3175 47.1556 41.3728 56.3198Z" fill="#4C853D"/>
<path d="M41.7329 56.7235L45.2344 57.1954L48.7359 57.6669C51.0703 57.9813 53.4046 58.318 55.739 58.6325C58.0733 58.9697 60.4077 59.2614 62.742 59.5536C63.9092 59.6883 65.0764 59.823 66.2435 59.9354C66.8274 60.0027 67.4107 60.0478 67.9946 60.0701C68.5779 60.0928 69.1617 60.1374 69.7451 60.0478V60.0701C69.1617 60.1602 68.5779 60.1374 67.9723 60.1374C67.3884 60.1151 66.8051 60.0928 66.199 60.0478C65.0318 59.9576 63.8646 59.8457 62.6747 59.7105C60.3403 59.4639 58.006 59.1495 55.6716 58.835C51.0252 58.2061 46.3565 57.4871 41.7329 56.7235Z" fill="white"/>
<path d="M66.3999 58.4987C66.0854 58.5438 65.7938 58.6111 65.5021 58.6785C65.2099 58.7458 64.896 58.8132 64.6038 58.9033C64.3121 58.9929 64.0205 59.0826 63.7511 59.24C63.504 59.3747 63.2574 59.5996 63.3019 59.8467C63.3693 60.0933 63.5941 60.3181 63.8407 60.4979C64.0878 60.6776 64.3572 60.8346 64.6266 60.9693C64.896 61.1045 65.1654 61.2615 65.457 61.3739C65.7264 61.5086 66.0181 61.621 66.3097 61.7557C65.7264 61.5308 65.1654 61.3065 64.6038 61.0366C64.3344 60.9019 64.0655 60.745 63.7961 60.5652C63.549 60.3854 63.3019 60.1611 63.2123 59.8689C63.19 59.7115 63.2574 59.5545 63.347 59.4421C63.4594 59.3297 63.5941 59.24 63.7288 59.1727C63.9982 59.038 64.2898 58.9256 64.6038 58.8582C65.1654 58.6562 65.7938 58.5438 66.3999 58.4987Z" fill="white"/>
<path d="M64.2017 57.6217C63.7976 57.6891 63.3936 57.7564 62.9895 57.8466C62.5854 57.9362 62.1813 58.0263 61.7995 58.1382C61.4182 58.2506 61.0141 58.3853 60.6774 58.5879C60.4976 58.6775 60.3407 58.7899 60.206 58.9469C60.0713 59.0816 60.0267 59.2613 60.049 59.4188C60.0713 59.5986 60.1837 59.7556 60.3184 59.8903C60.4531 60.0249 60.6101 60.1601 60.767 60.2948C61.0815 60.5419 61.4405 60.7212 61.7995 60.9237C62.159 61.1258 62.5403 61.2828 62.8998 61.4625C63.2811 61.6423 63.6402 61.7998 64.022 61.9567C63.2589 61.6646 62.4958 61.3729 61.755 60.9911C61.3959 60.8113 61.0364 60.6093 60.6997 60.3622C60.5427 60.2498 60.363 60.1151 60.2288 59.9576C60.0941 59.8006 59.9594 59.6209 59.9366 59.4188C59.892 59.2168 59.9817 58.992 60.1164 58.835C60.251 58.6775 60.4303 58.5651 60.6101 58.4755C60.9691 58.2734 61.3732 58.161 61.755 58.0486C62.5631 57.8466 63.3936 57.7119 64.2017 57.6217Z" fill="white"/>
<path d="M60.497 56.6564C59.981 56.7237 59.4873 56.8133 58.9708 56.9258C58.4771 57.0159 57.9606 57.1278 57.4669 57.2853C56.9732 57.42 56.5018 57.5997 56.0532 57.8468C55.8283 57.9815 55.6263 58.1162 55.4693 58.296C55.3124 58.4757 55.2222 58.7001 55.2673 58.9249C55.3124 59.1497 55.447 59.3518 55.604 59.5538C55.761 59.7336 55.963 59.9133 56.1651 60.048C56.5692 60.3397 57.0183 60.6096 57.4669 60.8339C57.9161 61.081 58.3875 61.283 58.8589 61.4856C59.3299 61.6876 59.8013 61.8897 60.2727 62.0917C59.3076 61.7327 58.3424 61.3504 57.4224 60.879C56.9732 60.6541 56.5018 60.3847 56.0977 60.0926C55.8957 59.9356 55.6936 59.7781 55.5144 59.5761C55.3346 59.3963 55.1777 59.172 55.1326 58.9026C55.088 58.6327 55.1999 58.3633 55.3797 58.1836C55.559 57.9815 55.7838 57.8468 56.0081 57.7121C56.4567 57.465 56.951 57.3076 57.4447 57.1729C58.4549 56.9258 59.4646 56.746 60.497 56.6564Z" fill="white"/>
<path d="M55.7837 56.0277C55.2672 56.0951 54.7735 56.1847 54.257 56.2971C53.7633 56.3872 53.2473 56.4991 52.7531 56.6566C52.2594 56.7913 51.7879 56.9711 51.3393 57.2182C51.115 57.3529 50.9129 57.4876 50.7555 57.6673C50.5985 57.8471 50.5089 58.0714 50.5534 58.2962C50.5985 58.5211 50.7332 58.7231 50.8902 58.9251C51.0476 59.1049 51.2492 59.2847 51.4512 59.4194C51.8553 59.711 52.3044 59.9809 52.7531 60.2052C53.2022 60.4523 53.6736 60.6544 54.1451 60.8569C54.6165 61.059 55.0874 61.261 55.5588 61.463C54.5937 61.104 53.6286 60.7217 52.7085 60.2503C52.2594 60.0255 51.7879 59.7561 51.3839 59.4644C51.1818 59.3069 50.9803 59.15 50.8005 58.9474C50.6208 58.7677 50.4638 58.5433 50.4187 58.274C50.3742 58.0041 50.4861 57.7347 50.6658 57.5549C50.8456 57.3529 51.0699 57.2182 51.2942 57.0835C51.7434 56.8364 52.2371 56.6789 52.7308 56.5442C53.741 56.2971 54.7735 56.1173 55.7837 56.0277Z" fill="white"/>
<path d="M51.5854 54.5008C50.957 54.5904 50.3286 54.6806 49.7002 54.8153C49.0718 54.9277 48.4434 55.0624 47.8373 55.2416C47.2312 55.4214 46.6251 55.6239 46.064 55.9156C45.7946 56.0731 45.5252 56.2528 45.3232 56.4772C45.1211 56.702 45.0087 56.9937 45.0538 57.2858C45.0989 57.578 45.2781 57.8474 45.4802 58.0717C45.6822 58.2965 45.9293 58.4986 46.1759 58.7006C46.6924 59.0824 47.2312 59.3969 47.8145 59.689C48.3761 59.9812 48.9594 60.2506 49.5432 60.4977C50.1266 60.7671 50.7104 60.9919 51.316 61.239C50.1266 60.7899 48.9371 60.3179 47.7922 59.7341C47.2312 59.4419 46.6701 59.1275 46.1536 58.768C45.8842 58.5887 45.6376 58.3862 45.4356 58.1391C45.2108 57.9147 45.0315 57.6226 44.9642 57.3081C44.8968 56.9937 45.0315 56.6569 45.2558 56.4321C45.4802 56.185 45.7495 56.0057 46.0189 55.8705C46.58 55.5789 47.1861 55.3768 47.8145 55.1971C49.049 54.8375 50.3063 54.6132 51.5854 54.5008Z" fill="white"/>
<mask id="mask0_838_4012" style="mask-type:luminance" maskUnits="userSpaceOnUse" x="30" y="25" width="13" height="30">
<path d="M30.5918 25.5938H42.9066V54.4444H30.5918V25.5938Z" fill="white"/>
</mask>
<g mask="url(#mask0_838_4012)">
<path d="M39.8684 54.4333C39.8684 54.4333 50.0813 39.6991 32.955 25.5938C32.955 25.5938 24.4035 40.1482 39.8684 54.4333Z" fill="#4C853D"/>
</g>
<path d="M40.0936 53.9619L39.2403 50.5257L38.4099 47.089C37.8488 44.7982 37.3101 42.5069 36.749 40.2161C36.2102 37.9253 35.6264 35.634 35.0431 33.3655C34.7514 32.2201 34.4369 31.0969 34.1225 29.9515C33.9655 29.39 33.8085 28.8284 33.6065 28.2669C33.4267 27.7058 33.2247 27.1443 32.9553 26.6273L32.9781 26.605C33.2921 27.1215 33.4718 27.6607 33.6961 28.2223C33.8982 28.7839 34.0779 29.3454 34.2572 29.9065C34.6167 31.0296 34.9307 32.175 35.2451 33.2981C35.8735 35.5666 36.4346 37.8579 36.9956 40.1487C38.0732 44.7531 39.1284 49.3352 40.0936 53.9619Z" fill="white"/>
<path d="M32.6868 30.333C32.8437 30.6024 33.0007 30.8495 33.1805 31.1194C33.3597 31.3665 33.5172 31.6359 33.7192 31.8602C33.9213 32.1073 34.1005 32.3321 34.3249 32.5119C34.5497 32.6917 34.8414 32.8486 35.0434 32.7139C35.2454 32.5792 35.3801 32.2648 35.4475 31.9954C35.5371 31.7032 35.5594 31.4111 35.6044 31.0966C35.6495 30.7822 35.6718 30.4905 35.6718 30.176C35.6941 29.8616 35.6941 29.5694 35.7169 29.255C35.7169 29.8839 35.7169 30.4905 35.6718 31.0966C35.6495 31.4111 35.6044 31.7032 35.5148 32.0177C35.4247 32.3099 35.3351 32.6243 35.0657 32.8264C34.931 32.916 34.7517 32.8937 34.617 32.8486C34.4596 32.8036 34.3476 32.6917 34.213 32.6015C33.9886 32.3995 33.7866 32.1524 33.5846 31.9053C33.2924 31.4111 32.9784 30.8723 32.6868 30.333Z" fill="white"/>
<path d="M32.708 32.6916C32.91 33.0506 33.1344 33.3878 33.3587 33.7468C33.5835 34.0841 33.8078 34.4208 34.0772 34.7575C34.3238 35.072 34.5932 35.3864 34.9077 35.6563C35.0646 35.791 35.2221 35.9034 35.4014 35.948C35.5811 36.0154 35.7604 36.0154 35.9179 35.9257C36.0748 35.8361 36.1872 35.6786 36.2769 35.4989C36.3665 35.3191 36.4338 35.1393 36.4789 34.9373C36.5913 34.5555 36.6359 34.1514 36.681 33.7468C36.7255 33.3428 36.7483 32.9387 36.7706 32.5118C36.7929 32.1072 36.8156 31.6809 36.8156 31.2763C36.8379 32.1072 36.8379 32.9159 36.7483 33.7468C36.7032 34.1514 36.6587 34.5555 36.5463 34.9601C36.5012 35.1621 36.4338 35.3642 36.3442 35.5439C36.2546 35.7237 36.1422 35.9034 35.9624 36.0154C35.7832 36.1278 35.5583 36.1278 35.3568 36.0604C35.1548 35.9931 34.9973 35.8584 34.8403 35.746C34.5259 35.4766 34.2565 35.1621 34.0099 34.8249C33.4934 34.1286 33.067 33.4324 32.708 32.6916Z" fill="white"/>
<path d="M33.1577 36.5093C33.4048 36.9585 33.6742 37.4076 33.9659 37.8345C34.2353 38.2613 34.5269 38.6882 34.8414 39.0923C35.1558 39.4969 35.4921 39.8787 35.8739 40.2154C36.0759 40.3729 36.2779 40.5076 36.5023 40.5972C36.7266 40.6873 36.9737 40.6646 37.1534 40.5521C37.3555 40.4402 37.4902 40.2377 37.6021 40.0134C37.7145 39.7885 37.8041 39.5414 37.8492 39.3171C37.9839 38.8229 38.0512 38.3287 38.0958 37.8122C38.1409 37.2957 38.1859 36.7792 38.1859 36.285C38.2082 35.768 38.2305 35.2515 38.2305 34.735C38.2533 35.768 38.2533 36.8015 38.1631 37.8122C38.1186 38.3287 38.0512 38.8452 37.9165 39.3394C37.8492 39.5865 37.7818 39.8336 37.6694 40.0584C37.5575 40.2828 37.4 40.5076 37.1757 40.6646C36.9514 40.7993 36.6597 40.7993 36.4126 40.7096C36.1655 40.6195 35.9635 40.4625 35.7614 40.305C35.3802 39.9683 35.0434 39.5642 34.729 39.1596C34.1456 38.3064 33.6291 37.4076 33.1577 36.5093Z" fill="white"/>
<path d="M34.3032 41.1135C34.5503 41.5627 34.8197 42.0123 35.1114 42.4387C35.3808 42.8655 35.6724 43.2924 35.9869 43.6965C36.3008 44.1011 36.6376 44.4829 37.0194 44.8196C37.2214 44.9771 37.4234 45.1118 37.6478 45.2014C37.8721 45.2915 38.1192 45.2687 38.2984 45.1563C38.5005 45.0444 38.6352 44.8419 38.7476 44.6176C38.86 44.3927 38.9496 44.1456 38.9947 43.9213C39.1294 43.4271 39.1967 42.9329 39.2413 42.4164C39.2864 41.8999 39.3314 41.3834 39.3314 40.8892C39.3537 40.3727 39.376 39.8557 39.376 39.3392C39.3983 40.3727 39.3983 41.4057 39.3086 42.4164C39.2641 42.9329 39.1967 43.4494 39.062 43.9436C38.9947 44.1907 38.9274 44.4378 38.8149 44.6626C38.7025 44.8869 38.5456 45.1118 38.3212 45.2687C38.0964 45.4034 37.8047 45.4034 37.5581 45.3138C37.311 45.2242 37.109 45.0667 36.907 44.9097C36.5257 44.5725 36.1889 44.1684 35.8745 43.7638C35.2911 42.9106 34.7524 42.0346 34.3032 41.1135Z" fill="white"/>
<path d="M34.415 45.5828C34.729 46.1444 35.0434 46.6837 35.4025 47.2225C35.7392 47.7617 36.0982 48.3005 36.48 48.7947C36.8613 49.2889 37.2882 49.7831 37.7596 50.1872C38.0062 50.3898 38.2533 50.569 38.545 50.6592C38.8366 50.7716 39.1288 50.7488 39.3754 50.6141C39.6225 50.4571 39.8018 50.21 39.9365 49.9178C40.0711 49.6485 40.1836 49.334 40.2509 49.0418C40.4079 48.4357 40.498 47.8068 40.5654 47.1551C40.6322 46.5262 40.655 45.875 40.6773 45.2461C40.6995 44.6172 40.7223 43.966 40.7223 43.3371H40.7446C40.7669 44.6172 40.7669 45.8973 40.655 47.1779C40.5876 47.8068 40.5203 48.458 40.3633 49.0641C40.296 49.3786 40.1836 49.6707 40.0489 49.9629C39.9142 50.2546 39.7121 50.5245 39.4427 50.7042C39.1734 50.8835 38.8143 50.8835 38.4999 50.7488C38.2082 50.6364 37.9388 50.4571 37.6922 50.2546C37.198 49.8282 36.7939 49.334 36.4127 48.8398C35.6718 47.8291 34.9984 46.7282 34.415 45.5828Z" fill="white"/>
<path d="M39.4205 55.5109C39.4205 55.5109 31.0255 39.6758 10.6448 48.4132C10.6448 48.4354 19.6682 62.7205 39.4205 55.5109Z" fill="#4C853D"/>
<path d="M39.1064 55.1074L35.6722 54.2992L32.2381 53.4678C29.9488 52.9062 27.659 52.3451 25.3697 51.8059C23.0799 51.2443 20.7907 50.7055 18.5009 50.1885C17.3565 49.9192 16.2116 49.672 15.0444 49.4477C14.4606 49.3353 13.8995 49.2229 13.3162 49.1333C12.7324 49.0431 12.149 48.9535 11.5652 48.9758V48.9535C12.149 48.9084 12.7324 48.9981 13.3162 49.0654C13.8995 49.1333 14.4834 49.2452 15.0667 49.3353C16.2339 49.5374 17.3788 49.7622 18.5237 50.0088C20.8357 50.503 23.125 51.0423 25.4143 51.581C30.0161 52.6819 34.5724 53.8496 39.1064 55.1074Z" fill="white"/>
<path d="M14.7297 50.8392C15.0442 50.8164 15.3359 50.7941 15.6503 50.749C15.9643 50.7268 16.2564 50.6817 16.5704 50.6143C16.8625 50.547 17.1765 50.4797 17.4459 50.3672C17.7153 50.2548 17.9847 50.0756 17.9624 49.8057C17.9396 49.5586 17.7153 49.3115 17.4909 49.1094C17.2661 48.9074 17.0195 48.7276 16.7724 48.5479C16.5258 48.3681 16.2564 48.2111 15.987 48.0537C15.7177 47.8967 15.4483 47.7392 15.1789 47.5822C15.7399 47.8516 16.2787 48.1438 16.7952 48.4805C17.0641 48.6603 17.3112 48.8178 17.5355 49.0198C17.7603 49.2218 17.9847 49.4689 18.052 49.7834C18.052 49.9404 17.9847 50.0979 17.8722 50.2103C17.7603 50.3222 17.6256 50.3895 17.4682 50.4574C17.1765 50.5693 16.8848 50.6366 16.5704 50.704C15.987 50.8164 15.3586 50.8392 14.7297 50.8392Z" fill="white"/>
<path d="M16.8396 51.9169C17.2437 51.8941 17.67 51.8718 18.0741 51.8268C18.4782 51.7822 18.8823 51.7371 19.2864 51.647C19.6904 51.5574 20.0945 51.4678 20.4535 51.3326C20.6333 51.2429 20.8125 51.1533 20.9472 51.0409C21.0819 50.9062 21.1716 50.7487 21.1493 50.569C21.127 50.3897 21.0369 50.2099 20.925 50.0525C20.8125 49.8955 20.6779 49.7608 20.5209 49.6256C20.2292 49.3562 19.8925 49.1319 19.5557 48.8848C19.219 48.66 18.86 48.4351 18.5005 48.2331C18.1415 48.0311 17.7825 47.829 17.4234 47.627C18.1643 47.986 18.8823 48.3678 19.578 48.8174C19.9148 49.0418 20.2515 49.2666 20.5659 49.5583C20.7229 49.6929 20.8576 49.8504 20.9923 50.0074C21.127 50.1649 21.2166 50.3669 21.2389 50.569C21.2617 50.7715 21.1493 50.9958 20.9923 51.1305C20.8353 51.2652 20.6556 51.3553 20.4535 51.445C20.0717 51.6024 19.6677 51.6921 19.2641 51.7594C18.4782 51.8718 17.67 51.9392 16.8396 51.9169Z" fill="white"/>
<path d="M20.4314 53.2645C20.9474 53.2423 21.4639 53.2195 21.9799 53.1521C22.4964 53.1076 22.9901 53.0402 23.5066 52.9501C24.0003 52.8605 24.5162 52.748 24.9654 52.546C25.1897 52.4336 25.414 52.3212 25.5938 52.1642C25.7736 52.0067 25.8855 51.7824 25.8632 51.5576C25.8409 51.3328 25.7285 51.1084 25.5938 50.9064C25.4368 50.7044 25.2793 50.5246 25.0773 50.3448C24.696 50.0076 24.2919 49.7159 23.8656 49.4238C23.4392 49.1321 22.9901 48.885 22.5409 48.6379C22.0923 48.368 21.6431 48.1437 21.1945 47.8966C22.1146 48.3457 23.0351 48.8176 23.9101 49.3787C24.337 49.6486 24.7634 49.9402 25.1446 50.2998C25.3467 50.4795 25.5264 50.6593 25.6834 50.8613C25.8409 51.0634 25.9756 51.3105 25.9979 51.5576C26.0202 51.827 25.8855 52.0741 25.6834 52.2538C25.4814 52.4336 25.2571 52.546 25.0327 52.6584C24.5613 52.8605 24.0448 52.9729 23.5511 53.0625C22.4964 53.1972 21.4639 53.2645 20.4314 53.2645Z" fill="white"/>
<path d="M25.0334 54.3658C25.5494 54.343 26.0659 54.3207 26.5819 54.2533C27.0984 54.2083 27.5921 54.1409 28.1086 54.0513C28.6023 53.9612 29.1183 53.8488 29.5674 53.6467C29.7918 53.5343 30.0166 53.4224 30.1958 53.2649C30.3756 53.1079 30.4875 52.8831 30.4652 52.6588C30.443 52.434 30.3305 52.2091 30.1958 52.0071C30.0389 51.8051 29.8819 51.6253 29.6799 51.4455C29.2981 51.1088 28.894 50.8166 28.4676 50.525C28.0413 50.2328 27.5921 49.9857 27.1435 49.7386C26.6943 49.4692 26.2452 49.2444 25.7965 48.9973C26.7166 49.4469 27.6372 49.9183 28.5127 50.4799C28.939 50.7493 29.3654 51.0415 29.7472 51.401C29.9492 51.5802 30.1285 51.76 30.2855 51.962C30.443 52.1646 30.5776 52.4117 30.5999 52.6588C30.6222 52.9282 30.4875 53.1753 30.2855 53.355C30.0839 53.5343 29.8591 53.6467 29.6348 53.7591C29.1634 53.9612 28.6474 54.0736 28.1532 54.1632C27.0984 54.2984 26.0659 54.3658 25.0334 54.3658Z" fill="white"/>
<path d="M29.0725 56.3192C29.7009 56.2965 30.3516 56.2519 30.9805 56.2068C31.6089 56.1618 32.2596 56.0721 32.8657 55.9597C33.4941 55.8473 34.1225 55.6903 34.6841 55.4655C34.9757 55.3308 35.2451 55.1961 35.4694 54.9941C35.6937 54.7915 35.8284 54.5222 35.8062 54.23C35.7839 53.9383 35.6492 53.6689 35.4471 53.4218C35.2674 53.1747 35.0431 52.9499 34.8187 52.7256C34.3473 52.2987 33.8308 51.9392 33.2921 51.5797C32.7538 51.2429 32.215 50.9062 31.6535 50.5917C31.0924 50.2773 30.5313 49.9628 29.9703 49.6707C31.1152 50.2322 32.2596 50.8161 33.3371 51.5123C33.8759 51.8496 34.3919 52.2314 34.8861 52.6582C35.1327 52.8603 35.3575 53.1074 35.5368 53.3545C35.7388 53.6011 35.8958 53.8932 35.9186 54.23C35.9409 54.5672 35.7839 54.8817 35.5368 55.0837C35.2902 55.3085 34.998 55.4432 34.7063 55.5779C34.1225 55.825 33.4941 55.9597 32.8657 56.0721C31.6312 56.2291 30.3516 56.3192 29.0725 56.3192Z" fill="white"/>
<path d="M40.7661 57.1514C40.7661 57.1514 23.1461 53.9395 17.3999 75.3891C17.4227 75.4119 34.2123 77.1634 40.7661 57.1514Z" fill="#4C853D"/>
<path d="M40.2511 57.1508L37.4904 59.352L34.7069 61.5304C32.8662 62.9902 31.0033 64.4278 29.1627 65.8876C27.2998 67.3252 25.4591 68.8078 23.6408 70.29C22.7207 71.0313 21.8229 71.7726 20.9251 72.5585C20.476 72.9403 20.0273 73.3221 19.601 73.7267C19.1741 74.1308 18.7477 74.5353 18.3887 75.0068L18.3665 74.9845C18.7027 74.4903 19.1295 74.0862 19.5336 73.6593C19.96 73.2547 20.3863 72.8507 20.8355 72.4466C21.7333 71.6825 22.6311 70.9189 23.5289 70.1553C25.3467 68.6504 27.1651 67.1682 29.028 65.7084C32.7315 62.811 36.4802 59.9581 40.2511 57.1508Z" fill="white"/>
<path d="M21.8449 73.681C22.0246 73.4339 22.1816 73.1645 22.3386 72.8951C22.4961 72.6252 22.653 72.3781 22.7877 72.0865C22.9224 71.8171 23.0571 71.5472 23.1245 71.2555C23.1918 70.9856 23.2141 70.6489 23.0121 70.5142C22.7877 70.3795 22.4733 70.4018 22.1816 70.4468C21.8899 70.4919 21.5983 70.5815 21.3061 70.6712C21.0144 70.7613 20.7228 70.8737 20.4311 70.9856C20.1389 71.098 19.8473 71.2104 19.5779 71.3229C20.1389 71.053 20.7005 70.8064 21.2838 70.6038C21.5755 70.5142 21.8677 70.4018 22.1816 70.3567C22.4733 70.3122 22.81 70.2671 23.1022 70.4241C23.2369 70.5142 23.3042 70.6712 23.3042 70.8286C23.3265 70.9856 23.2814 71.1431 23.2369 71.3001C23.1467 71.5922 23.0121 71.8844 22.8774 72.1538C22.5857 72.6926 22.2267 73.1868 21.8449 73.681Z" fill="white"/>
<path d="M23.9778 72.6931C24.2249 72.3564 24.4492 72.0196 24.6512 71.6601C24.8761 71.3234 25.0776 70.9639 25.2574 70.6043C25.4371 70.2453 25.6164 69.8635 25.7288 69.4812C25.7738 69.2792 25.8184 69.0994 25.7961 68.8974C25.7961 68.7176 25.7065 68.5379 25.549 68.4482C25.4143 68.3586 25.2123 68.3135 25.0102 68.3135C24.8087 68.3135 24.6067 68.3358 24.4269 68.3586C24.0228 68.4259 23.641 68.5379 23.2597 68.6731C22.8779 68.8077 22.4966 68.9424 22.1148 69.0994C21.7336 69.2569 21.3518 69.4139 20.9705 69.5713C21.7108 69.2118 22.4516 68.8751 23.2375 68.6057C23.6188 68.4705 24.0228 68.3586 24.4269 68.2685C24.629 68.2239 24.831 68.2011 25.033 68.2239C25.2351 68.2239 25.4594 68.2685 25.6164 68.3809C25.7961 68.4933 25.8858 68.7176 25.9085 68.9202C25.9308 69.1222 25.8858 69.3242 25.8184 69.5263C25.7065 69.9309 25.5267 70.2899 25.3247 70.6494C24.9657 71.3679 24.4943 72.0419 23.9778 72.6931Z" fill="white"/>
<path d="M27.2546 70.6946C27.5691 70.29 27.8385 69.8636 28.1302 69.414C28.4218 68.9876 28.6689 68.5385 28.9155 68.0888C29.1626 67.6397 29.3647 67.1682 29.4994 66.674C29.5667 66.4269 29.6118 66.1798 29.589 65.9327C29.5667 65.6856 29.4771 65.4836 29.275 65.3489C29.0953 65.2142 28.8482 65.1691 28.6016 65.1691C28.3545 65.1691 28.1079 65.1914 27.8608 65.2365C27.3671 65.3266 26.8734 65.4613 26.3791 65.6183C25.8854 65.7757 25.414 65.9778 24.9426 66.1575C24.4717 66.3373 24.0002 66.5393 23.5288 66.7637C24.4489 66.3145 25.3917 65.8877 26.3569 65.5509C26.8506 65.3939 27.3448 65.2365 27.8385 65.1468C28.0851 65.1018 28.3545 65.0795 28.6016 65.0795C28.8482 65.0795 29.1176 65.1241 29.3424 65.2815C29.5667 65.4385 29.6791 65.6856 29.7014 65.9555C29.7237 66.2249 29.6791 66.472 29.6118 66.7191C29.4771 67.2128 29.2523 67.6847 29.0057 68.1339C28.4892 69.055 27.9058 69.8859 27.2546 70.6946Z" fill="white"/>
<path d="M30.9812 67.7526C31.2952 67.3486 31.5646 66.9217 31.8562 66.4726C32.1484 66.0457 32.395 65.5965 32.6421 65.1474C32.8887 64.6982 33.0907 64.2263 33.2254 63.7321C33.2928 63.485 33.3379 63.2379 33.3156 62.9908C33.2928 62.7442 33.2032 62.5416 33.0011 62.4069C32.8214 62.2722 32.5748 62.2272 32.3277 62.2272C32.0811 62.2272 31.8339 62.25 31.5868 62.2945C31.0931 62.3847 30.5994 62.5194 30.1057 62.6763C29.612 62.8338 29.1406 63.0358 28.6692 63.2156C28.1977 63.3954 27.7263 63.5974 27.2549 63.8222C28.1755 63.3731 29.1178 62.9462 30.0834 62.609C30.5771 62.452 31.0709 62.2945 31.5646 62.2049C31.8117 62.1598 32.0811 62.1376 32.3277 62.1376C32.5748 62.1376 32.8441 62.1826 33.0685 62.3396C33.2928 62.4971 33.4052 62.7442 33.4275 63.0136C33.4503 63.283 33.4052 63.5301 33.3379 63.7772C33.2032 64.2714 32.9788 64.7428 32.7317 65.192C32.2157 66.113 31.6096 66.944 30.9812 67.7526Z" fill="white"/>
<path d="M34.9985 65.7761C35.3803 65.2591 35.7393 64.7426 36.0761 64.2038C36.4351 63.6645 36.7495 63.1258 37.0635 62.5642C37.3557 62.0026 37.625 61.4188 37.8043 60.8122C37.8716 60.52 37.939 60.2056 37.9167 59.8911C37.8944 59.5994 37.7597 59.3073 37.5126 59.1503C37.2655 58.9928 36.9516 58.9255 36.6599 58.9255C36.3455 58.9255 36.031 58.9477 35.7171 58.9928C35.0887 59.1052 34.4825 59.285 33.8764 59.487C33.2703 59.6891 32.687 59.9362 32.0808 60.161C31.497 60.4076 30.9137 60.6547 30.3298 60.9246C31.4747 60.363 32.6419 59.8465 33.8541 59.4197C34.4598 59.2176 35.0659 59.0151 35.6943 58.9032C36.0087 58.8358 36.3232 58.813 36.6599 58.813C36.9739 58.813 37.3106 58.8804 37.58 59.0602C37.8494 59.2399 38.0063 59.5766 38.0063 59.8911C38.0291 60.2056 37.9618 60.5428 37.8944 60.8345C37.7147 61.4411 37.4453 62.0249 37.1308 62.5865C36.5252 63.7319 35.8067 64.7877 34.9985 65.7761Z" fill="white"/>
<path d="M40.3857 54.0959C40.3857 54.0959 43.9546 64.1584 36.8391 84.5077L41.4182 84.0808C41.4182 84.0808 43.7976 59.1499 41.3058 54.6129" fill="#4C853D"/>
<path d="M43.4835 56.2289C43.4835 56.3231 43.479 56.4173 43.4699 56.5109C43.4608 56.6046 43.4466 56.6973 43.4283 56.7899C43.4101 56.8821 43.3873 56.9732 43.36 57.0634C43.3326 57.1535 43.3007 57.2421 43.2648 57.3292C43.2288 57.4163 43.1888 57.5014 43.1443 57.5844C43.1002 57.6675 43.0516 57.748 42.9995 57.826C42.9473 57.9044 42.8911 57.9799 42.8313 58.0528C42.7716 58.1257 42.7088 58.1951 42.642 58.2619C42.5756 58.3283 42.5058 58.3916 42.4333 58.4513C42.3604 58.5111 42.285 58.5673 42.2065 58.6194C42.1285 58.6716 42.048 58.7202 41.965 58.7643C41.8819 58.8088 41.7968 58.8488 41.7097 58.8853C41.6232 58.9212 41.5345 58.9526 41.4444 58.98C41.3543 59.0073 41.2631 59.0301 41.171 59.0488C41.0788 59.0671 40.9856 59.0807 40.892 59.0898C40.7983 59.0995 40.7046 59.104 40.6104 59.104C40.5162 59.104 40.4226 59.0995 40.3289 59.0898C40.2352 59.0807 40.142 59.0671 40.0499 59.0488C39.9577 59.0301 39.8666 59.0073 39.7764 58.98C39.6863 58.9526 39.5982 58.9212 39.5111 58.8853C39.424 58.8488 39.3389 58.8088 39.2559 58.7643C39.1734 58.7202 39.0923 58.6716 39.0144 58.6194C38.9359 58.5673 38.8604 58.5111 38.788 58.4513C38.7151 58.3916 38.6452 58.3283 38.5789 58.2619C38.5126 58.1951 38.4493 58.1257 38.3895 58.0528C38.3298 57.9799 38.2741 57.9044 38.2214 57.826C38.1692 57.748 38.1211 57.6675 38.0766 57.5844C38.0325 57.5014 37.992 57.4163 37.9561 57.3292C37.9201 57.2421 37.8887 57.1535 37.8614 57.0634C37.834 56.9732 37.8112 56.8821 37.7925 56.7899C37.7743 56.6973 37.7606 56.6046 37.7515 56.5109C37.7419 56.4173 37.7373 56.3231 37.7373 56.2289C37.7373 56.1347 37.7419 56.041 37.7515 55.9473C37.7606 55.8537 37.7743 55.7605 37.7925 55.6683C37.8112 55.5757 37.834 55.4845 37.8614 55.3944C37.8887 55.3043 37.9201 55.2156 37.9561 55.1285C37.992 55.042 38.0325 54.9569 38.0766 54.8738C38.1211 54.7908 38.1692 54.7098 38.2214 54.6318C38.2741 54.5533 38.3298 54.4779 38.3895 54.405C38.4493 54.3325 38.5126 54.2627 38.5789 54.1958C38.6452 54.1295 38.7151 54.0662 38.788 54.0064C38.8604 53.9467 38.9359 53.891 39.0144 53.8383C39.0923 53.7862 39.1734 53.7381 39.2564 53.6935C39.3389 53.6489 39.424 53.6089 39.5111 53.573C39.5982 53.537 39.6863 53.5051 39.7764 53.4778C39.8666 53.4505 39.9577 53.4277 40.0499 53.4094C40.142 53.3907 40.2352 53.377 40.3289 53.3679C40.4226 53.3588 40.5162 53.3542 40.6104 53.3542C40.7046 53.3542 40.7983 53.3588 40.892 53.3679C40.9856 53.377 41.0788 53.3907 41.171 53.4094C41.2631 53.4277 41.3543 53.4505 41.4444 53.4778C41.5345 53.5051 41.6232 53.537 41.7097 53.573C41.7968 53.6089 41.8819 53.6489 41.965 53.6935C42.048 53.7381 42.1285 53.7862 42.2065 53.8383C42.285 53.891 42.3604 53.9467 42.4333 54.0064C42.5058 54.0662 42.5756 54.1295 42.642 54.1958C42.7088 54.2627 42.7716 54.3325 42.8313 54.405C42.8911 54.4779 42.9473 54.5533 42.9995 54.6318C43.0516 54.7098 43.1002 54.7908 43.1443 54.8738C43.1888 54.9569 43.2288 55.042 43.2648 55.1285C43.3007 55.2156 43.3326 55.3043 43.36 55.3944C43.3873 55.4845 43.4101 55.5757 43.4283 55.6683C43.4466 55.7605 43.4608 55.8537 43.4699 55.9473C43.479 56.041 43.4835 56.1347 43.4835 56.2289Z" fill="#4C853D"/>
<path d="M115.332 79.9029C115.31 83.0697 110.866 82.9573 108.666 82.9573C107.297 82.9573 105.972 82.6879 104.626 82.9573C102.628 83.3619 100.81 84.3948 98.8795 85.0238C98.8344 85.046 98.7893 85.046 98.7448 85.0688C98.004 85.3159 97.2854 85.518 96.5451 85.6977C95.7815 85.8775 94.9962 86.0345 94.2331 86.1469C93.0436 86.3489 91.8314 86.4836 90.6191 86.596C90.0804 86.6411 89.5644 86.7084 89.0256 86.7535C88.0827 86.8654 87.1399 86.9778 86.2198 87.0902C84.1771 87.3596 82.1122 87.6518 80.0695 87.8989C78.8573 88.0336 77.6678 88.1683 76.4784 88.2807C72.9095 88.6625 69.3629 88.9992 65.794 89.2691C62.135 89.5608 58.6563 89.9654 55.132 90.6616C54.3466 90.8186 53.5835 90.9984 52.7977 91.1781C50.239 91.7842 47.5902 92.1438 44.9642 92.2339C42.9215 92.3012 40.8338 92.1438 38.8589 91.7169C35.245 90.9087 31.9455 89.0894 29.7681 85.7874C28.7134 84.1928 27.9949 82.3734 27.5234 80.5095C27.5234 80.5095 23.9546 79.4537 21.9119 80.1723C21.7098 80.2396 21.5078 80.3297 21.3508 80.4417C21.3508 80.4417 23.0568 76.9832 21.3508 74.5572C21.3508 74.5572 21.3508 74.5572 21.3731 74.5572C21.4182 74.5795 21.5752 74.6696 21.8223 74.7592C22.72 75.0965 24.8078 75.4783 26.6256 73.1869C29.0496 70.1548 29.319 60.1602 41.5746 61.4403C46.221 61.9345 51.0244 62.5183 55.5584 63.125C56.5686 63.2596 57.5337 63.3943 58.5216 63.5068C60.2721 63.7311 61.9558 63.9559 63.5716 64.1579C63.6617 64.1802 63.7736 64.1802 63.8638 64.203C65.5692 64.4273 67.1855 64.6299 68.6444 64.8091C69.1609 64.8765 69.6769 64.9215 70.1483 64.9889C71.5175 65.1464 72.752 65.2583 73.8073 65.3484C75.2438 65.4608 76.6131 65.7525 77.9595 66.1571C78.6107 66.3591 79.2391 66.5612 79.8675 66.8083C80.7207 67.1227 81.5734 67.4822 82.4266 67.864C84.0875 68.6054 85.7261 69.4135 87.3647 70.1548C87.544 70.245 87.746 70.3346 87.9258 70.4019C87.9703 70.4242 87.9931 70.447 88.0377 70.447C88.105 70.4693 88.1501 70.4921 88.2174 70.5143C88.2625 70.5366 88.3298 70.5594 88.3744 70.5817C88.3972 70.5817 88.3972 70.5817 88.4195 70.604C88.8909 70.8065 89.3395 70.9858 89.811 71.1655C90.3052 71.3453 90.7989 71.5251 91.2926 71.7048C95.2655 73.075 99.1711 73.7485 103.436 74.4002C106.13 74.8716 115.355 75.6352 115.332 79.9029Z" fill="#B26249"/>
<path d="M21.1657 74.5822C21.226 74.5878 21.2852 74.5984 21.3439 74.6136C21.4032 74.6293 21.4609 74.6495 21.5181 74.6754C21.5748 74.7007 21.631 74.7306 21.6857 74.766C21.7404 74.8009 21.7936 74.8404 21.8452 74.885C21.8974 74.929 21.9475 74.9782 21.9961 75.0313C22.0447 75.0845 22.0913 75.1417 22.1359 75.2035C22.1804 75.2648 22.223 75.3301 22.2635 75.3995C22.304 75.4688 22.342 75.5417 22.3779 75.6182C22.4139 75.6947 22.4468 75.7742 22.4777 75.8567C22.5086 75.9398 22.5369 76.0253 22.5622 76.1134C22.5881 76.2021 22.6109 76.2927 22.6306 76.3859C22.6509 76.4785 22.6681 76.5737 22.6823 76.6704C22.6964 76.7672 22.7081 76.8654 22.7162 76.9651C22.7248 77.0649 22.7304 77.1657 22.7329 77.2674C22.7354 77.3692 22.7349 77.471 22.7314 77.5738C22.7278 77.6766 22.7212 77.7789 22.7121 77.8817C22.7025 77.984 22.6904 78.0862 22.6752 78.1875C22.66 78.2893 22.6417 78.3895 22.621 78.4893C22.5997 78.5886 22.5764 78.6868 22.5496 78.7835C22.5233 78.8797 22.4944 78.9744 22.4625 79.0671C22.4311 79.1597 22.3972 79.2499 22.3602 79.338C22.3238 79.4256 22.2848 79.5106 22.2437 79.5927C22.2027 79.6752 22.1592 79.7542 22.1141 79.8297C22.0685 79.9056 22.0215 79.978 21.9723 80.0464C21.9232 80.1152 21.8726 80.1796 21.8204 80.2408C21.7678 80.3016 21.7141 80.3578 21.6589 80.4105C21.6037 80.4626 21.5475 80.5107 21.4903 80.5543C21.4331 80.5978 21.3748 80.6363 21.3156 80.6707C21.2563 80.7047 21.1971 80.734 21.1368 80.7588C21.0766 80.7831 21.0163 80.8029 20.9556 80.8176C20.8948 80.8318 20.834 80.8414 20.7733 80.8459C20.7125 80.8505 20.6522 80.85 20.5925 80.8449C20.5322 80.8393 20.473 80.8287 20.4142 80.813C20.3555 80.7978 20.2973 80.7771 20.2401 80.7517C20.1833 80.7264 20.1271 80.696 20.0724 80.6611C20.0178 80.6262 19.9646 80.5862 19.9129 80.5421C19.8608 80.4976 19.8107 80.4489 19.762 80.3958C19.7139 80.3426 19.6674 80.2854 19.6223 80.2236C19.5777 80.1618 19.5352 80.0965 19.4947 80.0271C19.4542 79.9583 19.4162 79.8854 19.3802 79.8089C19.3443 79.7324 19.3114 79.6529 19.2805 79.5699C19.2496 79.4874 19.2212 79.4018 19.1959 79.3132C19.1701 79.2251 19.1473 79.1344 19.1276 79.0412C19.1073 78.9481 19.0906 78.8534 19.0759 78.7567C19.0617 78.6594 19.0506 78.5612 19.042 78.4615C19.0334 78.3617 19.0278 78.2609 19.0258 78.1597C19.0233 78.0579 19.0238 77.9556 19.0268 77.8533C19.0303 77.7505 19.0369 77.6477 19.046 77.5454C19.0557 77.4426 19.0678 77.3409 19.083 77.2391C19.0987 77.1378 19.1164 77.037 19.1377 76.9378C19.1585 76.838 19.1823 76.7403 19.2086 76.6436C19.2349 76.5469 19.2638 76.4527 19.2957 76.36C19.3271 76.2674 19.3615 76.1772 19.398 76.0891C19.4344 76.0015 19.4734 75.9165 19.5144 75.8339C19.5554 75.7519 19.599 75.6729 19.6441 75.5969C19.6896 75.5215 19.7367 75.4491 19.7858 75.3807C19.835 75.3119 19.8856 75.247 19.9383 75.1863C19.9904 75.1255 20.0441 75.0688 20.0993 75.0166C20.1545 74.964 20.2107 74.9164 20.2679 74.8728C20.3256 74.8293 20.3839 74.7903 20.4426 74.7564C20.5018 74.7219 20.5611 74.6926 20.6213 74.6683C20.6816 74.644 20.7419 74.6242 20.8026 74.6095C20.8634 74.5948 20.9242 74.5852 20.9849 74.5807C21.0457 74.5761 21.1059 74.5766 21.1657 74.5822Z" fill="white"/>
<path d="M45.2566 87.5618C45.2566 87.5618 79.5543 87.9436 88.4425 84.4852C88.4425 84.4624 63.2584 90.6167 45.2566 87.5618Z" fill="#54210F" fill-opacity="0.4275"/>
<path d="M35.8738 82.2847C35.8738 82.2847 82.5389 82.8012 94.6147 78.0844C94.6147 78.0844 60.3399 86.4622 35.8738 82.2847Z" fill="#54210F" fill-opacity="0.4275"/>
<path d="M34.4597 77.9496C34.4597 77.9496 86.8265 71.5709 100.07 78.8256C100.07 78.8256 69.0718 69.4143 34.4597 77.9496Z" fill="#54210F" fill-opacity="0.4275"/>
<path d="M35.3132 69.5939C35.3132 69.5939 69.1167 64.1808 90.1714 73.5248C90.1714 73.5248 60.5424 64.0912 35.3132 69.5939Z" fill="#54210F" fill-opacity="0.4275"/>
<path d="M40.0708 67.6178C40.0708 67.6178 64.2675 63.7319 79.3288 70.4251C79.3288 70.4479 58.14 63.6874 40.0708 67.6178Z" fill="#54210F" fill-opacity="0.4275"/>
<path d="M37.3101 61.9127C37.9612 62.9462 38.4995 64.0243 38.9937 65.1474C39.4646 66.2705 39.8464 67.4382 40.1158 68.6286C40.2505 69.2353 40.3629 69.8191 40.4303 70.4252C40.4976 71.0319 40.5199 71.6385 40.4976 72.2674C40.4748 72.8735 40.3852 73.4801 40.2505 74.0868C40.1158 74.6929 39.9138 75.2544 39.6667 75.816H39.6444C39.8242 75.2322 39.9811 74.6478 40.0936 74.064C40.1832 73.4579 40.2505 72.8735 40.2728 72.2674C40.2956 71.0541 40.1832 69.8642 39.9589 68.6737C39.7118 67.4832 39.3527 66.3378 38.9036 65.1919C38.4322 64.0693 37.9162 62.9685 37.3101 61.9127Z" fill="#C38A65"/>
<path d="M57.916 64.7652C58.3424 65.3267 58.7242 65.9556 59.0381 66.5845C59.3526 67.2357 59.5992 67.9097 59.8012 68.5832C60.0033 69.2794 60.0934 69.9984 60.0934 70.717L60.0483 71.2563C60.026 71.4355 59.981 71.6153 59.9587 71.795L59.9136 72.0644L59.824 72.3115C59.7567 72.4913 59.7116 72.6488 59.6442 72.8285H59.622C59.6442 72.6488 59.6893 72.469 59.7116 72.3115L59.7567 72.0421L59.7789 71.7728C59.8012 71.593 59.824 71.4132 59.824 71.2563V70.7393C59.8012 70.043 59.7567 69.3245 59.5992 68.6505C59.4422 67.9543 59.1951 67.3031 58.9034 66.6519C58.6568 65.9779 58.3201 65.349 57.916 64.7652Z" fill="#C38A65"/>
<path d="M68.3313 65.5057C68.9374 67.0106 69.3638 68.5829 69.7228 70.1551C70.0595 71.7497 70.2838 73.367 70.3512 74.9843C70.3963 75.793 70.3963 76.6012 70.3512 77.4326C70.3289 77.8367 70.2838 78.2408 70.2616 78.6454C70.1942 79.0494 70.1492 79.454 70.0818 79.8581C69.7901 81.4527 69.2742 83.0249 68.5333 84.4625H68.5106C69.1395 82.9804 69.6104 81.4081 69.8575 79.813C69.9922 79.0272 70.0818 78.2185 70.1492 77.4098C70.2165 76.6012 70.2165 75.793 70.1942 74.9843C70.1492 73.367 69.9471 71.7497 69.6332 70.1779C69.2964 68.6057 68.8924 67.0334 68.3313 65.5057Z" fill="#C38A65"/>
<path d="M80.25 67.6635C80.6541 68.2924 81.0131 68.9658 81.3498 69.6621C81.6638 70.3584 81.9332 71.0546 82.1352 71.7959C82.3372 72.5372 82.4719 73.3008 82.4497 74.0644C82.4274 74.828 82.2025 75.6144 81.7762 76.2433H81.7539C82.0679 75.5471 82.2253 74.828 82.2253 74.0872C82.2253 73.3459 82.1352 72.6046 81.9782 71.8633C81.7985 71.1447 81.5519 70.4257 81.2602 69.7294C80.9457 69.0109 80.609 68.3369 80.25 67.6635Z" fill="#C38A65"/>
<path d="M90.417 78.7343C90.7087 79.2736 90.9558 79.8352 91.1578 80.3967C91.3598 80.9806 91.5168 81.5644 91.6292 82.171C91.7189 82.7772 91.7639 83.4061 91.607 84.035C91.5168 84.3271 91.4272 84.6416 91.2702 84.911C91.1127 85.1809 90.9107 85.428 90.6641 85.6072L90.6413 85.585C91.0231 85.1135 91.2925 84.552 91.3821 83.9676C91.4945 83.3838 91.5168 82.7772 91.4495 82.1933C91.3821 81.5872 91.2474 81.0029 91.0682 80.419C90.8884 79.8575 90.6641 79.2959 90.417 78.7343Z" fill="#C38A65"/>
<path d="M98.9241 74.4445C99.2608 75.0288 99.553 75.6572 99.7996 76.2861C100.047 76.915 100.249 77.5667 100.383 78.2407C100.518 78.9142 100.585 79.6104 100.473 80.2844C100.338 80.9584 100.002 81.6318 99.4406 82.0364L99.4183 82.0136C99.8669 81.5199 100.159 80.891 100.226 80.2393C100.316 79.5881 100.293 78.9142 100.181 78.263C100.069 77.6118 99.8892 76.9601 99.6649 76.3312C99.4856 75.68 99.2162 75.0511 98.9241 74.4445Z" fill="#C38A65"/>
<path d="M108.554 75.8159C108.935 76.22 109.228 76.7142 109.474 77.2084C109.721 77.7249 109.878 78.2642 109.946 78.8257C110.013 79.3873 110.013 79.9711 109.878 80.5104C109.811 80.7798 109.699 81.0492 109.609 81.3186C109.497 81.5885 109.34 81.8128 109.205 82.0599H109.183C109.228 81.9252 109.272 81.7905 109.317 81.6781C109.362 81.5434 109.43 81.431 109.452 81.2963C109.519 81.0269 109.632 80.7798 109.654 80.5099C109.766 79.9711 109.811 79.4319 109.766 78.8931C109.721 78.3538 109.587 77.815 109.385 77.2985C109.16 76.7593 108.869 76.265 108.554 75.8159Z" fill="#C38A65"/>
<path d="M38.7922 91.7405C39.3978 90.9769 39.8921 90.1455 40.3407 89.27C40.7898 88.3939 41.1266 87.4951 41.3732 86.5518C41.598 85.6084 41.7099 84.6428 41.6426 83.6771C41.6203 83.2052 41.5307 82.711 41.4182 82.2619L41.3286 81.9028C41.3058 81.7904 41.2385 81.678 41.2162 81.5656C41.1489 81.3413 41.0364 81.1165 40.9468 80.8921H40.9691C41.2162 81.3185 41.4405 81.7676 41.5752 82.2396C41.7099 82.711 41.8223 83.2052 41.8674 83.6994C41.957 84.6879 41.8 85.6758 41.5529 86.6191C41.2836 87.5625 40.9018 88.4836 40.4531 89.3373C39.9594 90.1682 39.4206 90.9992 38.7922 91.7405Z" fill="#C38A65"/>
<path d="M55.0657 90.6841C55.4247 90.0775 55.7169 89.4486 56.0085 88.8196C56.3002 88.1907 56.5473 87.5396 56.7493 86.8656C56.9514 86.1921 57.0861 85.5181 57.1757 84.8442C57.243 84.1707 57.243 83.4744 57.0187 82.8005H57.041C57.3777 83.4294 57.4451 84.1707 57.4 84.867C57.3555 85.5855 57.1534 86.2595 56.9286 86.9329C56.7043 87.6069 56.4349 88.2358 56.1209 88.887C55.8065 89.4936 55.4698 90.1002 55.0657 90.6841Z" fill="#C38A65"/>
<path d="M76.4333 88.2808C76.9498 87.6068 77.3762 86.8655 77.7575 86.1247C78.1393 85.3606 78.431 84.5747 78.633 83.7661C78.835 82.9574 78.9247 82.1042 78.8801 81.2732C78.8573 80.4418 78.6558 79.6108 78.3636 78.8249H78.3864C78.5884 79.184 78.7677 79.5885 78.8801 79.9926C78.992 80.3972 79.0821 80.8236 79.1044 81.2504C79.1718 82.1042 79.0371 82.9802 78.79 83.7888C78.5657 84.6198 78.2289 85.4057 77.8248 86.147C77.4435 86.9329 76.9721 87.6519 76.4333 88.2808Z" fill="#C38A65"/>
<path d="M100.137 93.7615C100.069 93.8962 99.9568 94.0086 99.8449 94.1205C98.296 95.7155 96.0963 93.5144 94.9965 92.4363C94.3007 91.7624 93.762 90.9988 92.9538 90.4823C91.7421 89.7187 90.3278 89.3591 89.0482 88.7525C88.038 88.2811 87.0957 87.7195 86.1751 87.0906C85.4793 86.6187 84.7836 86.1022 84.1101 85.5634L84.0878 85.5406C84.0428 85.4961 83.9977 85.451 83.9304 85.4287C82.3368 84.1481 80.6309 82.9805 78.9923 81.7672C78.7457 81.5879 78.4763 81.3854 78.2292 81.2061C78.1846 81.1834 78.1618 81.1611 78.1173 81.116C78.0499 81.0709 77.9826 81.0036 77.9152 80.959C75.5358 79.1397 73.1792 77.298 70.8443 75.4113C70.6428 75.2538 70.4408 75.0741 70.2387 74.9171C70.059 74.7596 69.8792 74.6249 69.6772 74.4679C67.433 72.6708 65.2333 71.0535 62.7192 69.5937C61.9784 69.1668 61.2376 68.6954 60.5195 68.1789C60.4745 68.1561 60.4294 68.1115 60.4071 68.0887C60.0031 67.7971 59.6218 67.4826 59.24 67.1905C59.0156 67.0107 58.8136 66.8309 58.6116 66.6517C58.5893 66.6289 58.5442 66.6066 58.5219 66.5615C58.4318 66.4942 58.3645 66.4269 58.2748 66.3372C57.2201 65.3939 56.2549 64.3381 55.4913 63.1699C56.5015 63.3046 57.4667 63.4398 58.4546 63.5517C58.0951 63.1254 57.7811 62.6985 57.4667 62.2493C56.0301 60.0927 55.2447 57.5776 55.7384 54.8594C55.9856 53.5343 56.5015 52.2765 57.1527 51.1088C57.1527 51.1088 55.8509 48.8403 54.4816 48.2114C54.1449 48.2564 53.8305 48.1891 53.6284 48.0093C54.2123 47.5151 54.751 46.8411 54.8857 45.9651C54.8857 45.9651 55.065 46.594 55.6488 47.1333C55.7607 47.2457 55.8954 47.3576 56.0529 47.4478C56.5466 47.7622 57.2424 47.9643 58.2075 47.8296C60.7661 47.4928 65.3903 43.0231 70.62 48.2336C70.8894 48.5035 71.1588 48.7952 71.4505 49.1324C74.1443 52.2993 76.86 55.6909 79.3067 58.723C79.4191 58.88 79.5538 59.0147 79.6657 59.1722C79.7108 59.2395 79.7782 59.3068 79.8232 59.3742C81.2821 61.1936 82.6513 62.8782 83.8185 64.293C83.9977 64.4951 84.1552 64.6976 84.3122 64.8997C84.8732 65.5731 85.3897 66.1797 85.8611 66.6962C85.9285 66.7864 85.9958 66.8537 86.0632 66.9433C87.0283 68.0665 87.7463 69.3466 88.3747 70.6717C88.4649 70.8743 88.5545 71.0763 88.6441 71.2561C88.8462 71.7052 89.0259 72.1766 89.2052 72.6258C89.2953 72.8283 89.3627 73.0304 89.4523 73.2324C89.4746 73.2775 89.4746 73.2998 89.4973 73.3448C89.5196 73.3671 89.5196 73.4122 89.5419 73.4572C89.9014 74.4006 90.2604 75.3662 90.6417 76.2868C90.6645 76.3319 90.6868 76.3769 90.6868 76.422C90.7319 76.5339 90.7764 76.6463 90.8215 76.7587C91.1359 77.455 91.4499 78.129 91.7866 78.7579C91.8317 78.8252 91.854 78.8926 91.899 78.9599C92.9538 80.8917 94.166 82.6432 95.513 84.418C95.8046 84.8221 96.1186 85.2039 96.433 85.608C96.4553 85.653 96.5004 85.6753 96.5227 85.7204C97.2184 86.6187 98.7 88.3484 99.6206 90.1005C100.316 91.4256 100.698 92.7953 100.137 93.7615Z" fill="#673D22"/>
<path d="M101.865 93.2679C101.349 93.8067 100.743 93.9191 100.136 93.7621C98.947 93.4927 97.7571 92.2795 97.0167 91.5832C96.3205 90.9097 95.7817 90.1456 94.9741 89.6291C93.7618 88.8655 92.3475 88.506 91.0685 87.8999C90.3499 87.5627 89.6542 87.1809 89.0035 86.7545C88.1726 86.2375 87.3649 85.6537 86.579 85.047C86.534 85.0025 86.4671 84.9574 86.4221 84.9123C86.3096 84.845 86.22 84.7554 86.1076 84.6652C84.4244 83.3178 82.6061 82.06 80.8556 80.7571C80.8105 80.7348 80.7654 80.6898 80.7209 80.6675C80.5188 80.5328 80.3391 80.3753 80.137 80.2183C79.5537 79.7692 78.9699 79.32 78.3638 78.8704C78.2741 78.803 78.2068 78.7357 78.1172 78.6911C76.7029 77.5903 75.2886 76.49 73.8748 75.3668C73.5604 75.1197 73.2464 74.8504 72.932 74.6032C72.7076 74.4235 72.4605 74.2214 72.2362 74.0417C71.4954 73.4351 70.7546 72.8512 69.9915 72.2674C68.3078 70.9868 66.6024 69.7963 64.739 68.7183C64.6043 68.6509 64.4924 68.5613 64.3577 68.4939C64.2002 68.4038 64.0432 68.3142 63.8862 68.2018C63.2801 67.82 62.674 67.3931 62.0907 66.9667C61.9783 66.8766 61.8436 66.787 61.7312 66.6969C61.2152 66.2928 60.7215 65.8882 60.25 65.4618C59.5988 64.8775 58.9704 64.2263 58.3871 63.5523C58.0276 63.126 57.7136 62.6991 57.3992 62.25C55.9626 60.0933 55.1773 57.5782 55.671 54.86C55.9181 53.5349 56.4341 52.2771 57.0853 51.1094C57.0853 51.1094 55.7834 48.8409 54.4142 48.212C54.2795 48.1446 54.1448 48.0996 53.9873 48.0773C53.9873 48.0773 54.8183 47.7851 55.5813 47.1339C56.1647 46.662 56.7035 45.9885 56.8381 45.1125C56.8381 45.1125 56.8381 45.1125 56.8381 45.1348C56.8381 45.1799 56.8832 45.2923 56.9728 45.4492C57.2645 46.0559 58.1177 47.2463 60.1604 46.9764C62.8538 46.6174 67.8141 41.6986 73.3811 48.2793C78.9476 54.86 84.6938 62.3396 87.7913 65.8208C89.3397 67.5506 90.3054 69.6393 91.1358 71.7732C91.6295 73.031 92.1009 74.2888 92.6169 75.5238C92.7744 75.9284 92.9537 76.3102 93.1334 76.692C93.2231 76.894 93.3127 77.0738 93.4251 77.2758C93.6049 77.6131 93.7618 77.9275 93.9416 78.2643C93.9639 78.2866 93.9639 78.3093 93.9861 78.3316C95.2435 80.6001 96.7474 82.5993 98.3855 84.7554C98.4756 84.8678 98.5652 84.9797 98.6776 85.1149C100.204 86.9338 103.795 91.2688 101.865 93.2679Z" fill="#B26249"/>
<path d="M56.0308 47.4486C55.5148 47.8977 54.9538 48.1671 54.4595 48.2122C54.1228 48.2573 53.8089 48.1899 53.6068 48.0101C53.5845 47.9874 53.5395 47.9651 53.5172 47.92C53.0458 47.3812 53.4271 46.3032 54.3248 45.5168C55.2454 44.7081 56.3675 44.5061 56.8167 45.0454C56.839 45.0677 56.839 45.0899 56.8612 45.1127C56.9286 45.2023 56.9736 45.3148 56.9959 45.4272C57.1306 45.9887 56.7493 46.7969 56.0308 47.4486Z" fill="white"/>
<mask id="mask1_838_4012" style="mask-type:luminance" maskUnits="userSpaceOnUse" x="0" y="0" width="126" height="126">
<path d="M126 0H0V126H126V0Z" fill="black" fill-opacity="0.4275"/>
</mask>
<g mask="url(#mask1_838_4012)">
<mask id="mask2_838_4012" style="mask-type:luminance" maskUnits="userSpaceOnUse" x="57" y="46" width="44" height="46">
<path d="M100.595 46.2781H57.2991V91.5188H100.595V46.2781Z" fill="white"/>
</mask>
<g mask="url(#mask2_838_4012)">
<path d="M62.7439 63.2379C62.7439 63.2379 79.9153 80.0163 86.0656 82.5765C86.0656 82.5765 70.3531 73.5024 62.7439 63.2379Z" fill="#54210F"/>
<path d="M60.5447 56.0285C60.5447 56.0285 83.8886 78.8484 92.2832 82.3073C92.2832 82.3296 70.8923 69.9991 60.5447 56.0285Z" fill="#54210F"/>
<path d="M61.9138 53.176C61.9138 53.176 91.4755 75.2769 94.6625 85.3394C94.6625 85.3394 83.5296 65.5967 61.9138 53.176Z" fill="#54210F"/>
<path d="M66.3804 49.3571C66.3804 49.3571 86.0881 62.9682 92.2157 77.8822C92.2157 77.8822 81.8007 58.7907 66.3804 49.3571Z" fill="#54210F"/>
<path d="M69.7476 50.6603C69.7476 50.6603 83.8438 60.4078 88.2431 71.0769C88.2431 71.0769 80.7914 57.3985 69.7476 50.6603Z" fill="#54210F"/>
<path d="M71.1166 46.4375C70.9597 47.2685 70.7131 48.0994 70.4209 48.8858C70.1292 49.694 69.7474 50.4581 69.3211 51.1989C68.8724 51.9402 68.3782 52.6365 67.7498 53.2203C67.4359 53.5125 67.0991 53.7819 66.7401 54.029C66.3806 54.2538 65.9993 54.4558 65.5952 54.6133V54.5905C65.9542 54.3885 66.3132 54.1637 66.65 53.8943C66.9867 53.6249 67.3012 53.3555 67.5928 53.0633C68.1767 52.4567 68.7149 51.8055 69.1641 51.1093C69.6127 50.3907 69.9945 49.6266 70.309 48.8407C70.6229 48.0771 70.8923 47.2685 71.1166 46.4375Z" fill="#C38A65"/>
<path d="M80.1627 57.8473C80.1181 58.3415 80.0057 58.8358 79.871 59.3072C79.714 59.7786 79.5343 60.2505 79.2877 60.6997C79.0628 61.1488 78.7489 61.5757 78.3899 61.9352C78.0304 62.2942 77.5817 62.5641 77.1326 62.7662V62.7439C77.5366 62.4294 77.9184 62.1373 78.2324 61.7777C78.5468 61.4187 78.8836 61.0364 79.1302 60.6101C79.3773 60.1832 79.6016 59.7341 79.7591 59.2621C79.9161 58.813 80.0508 58.3415 80.1627 57.8473Z" fill="#C38A65"/>
<path d="M85.0566 63.2603C84.6302 64.3155 84.1138 65.3268 83.5076 66.2924C82.9015 67.258 82.2508 68.1791 81.4877 69.0323C81.1059 69.4592 80.7246 69.8861 80.2978 70.2679C80.0957 70.4699 79.8714 70.6497 79.6694 70.8294C79.4451 71.0092 79.2207 71.189 78.9959 71.3459C78.0758 72.0199 77.0434 72.5587 75.9658 72.8959V72.8731C76.9983 72.4017 77.9862 71.8401 78.8612 71.1662C79.3104 70.8294 79.7367 70.4699 80.1631 70.0881C80.59 69.7063 80.9712 69.3245 81.353 68.8976C82.1161 68.0667 82.7896 67.1456 83.3957 66.2023C84.0464 65.2817 84.5852 64.2933 85.0566 63.2603Z" fill="#C38A65"/>
<path d="M90.0393 70.1106C89.9491 70.6276 89.8144 71.1441 89.6352 71.6383C89.4554 72.1326 89.2534 72.6263 89.0068 73.0982C88.7597 73.5696 88.468 74.0416 88.0639 74.4011C87.6599 74.7601 87.1884 75.0745 86.6497 75.1647V75.1419C87.1434 74.9176 87.5474 74.6254 87.907 74.2436C88.266 73.8841 88.5799 73.4577 88.8493 73.0081C89.1187 72.5589 89.343 72.0875 89.5228 71.5933C89.7248 71.1213 89.9046 70.6276 90.0393 70.1106Z" fill="#C38A65"/>
<path d="M89.837 80.6457C89.6122 81.4766 89.2983 82.2853 88.8046 82.9816C88.5575 83.3406 88.2658 83.6778 87.884 83.9249C87.5027 84.172 87.0536 84.2839 86.6272 84.2394V84.2166C86.8292 84.172 87.0313 84.127 87.2333 84.0368C87.4126 83.9472 87.5923 83.8576 87.7721 83.7224C88.1083 83.4758 88.4005 83.1836 88.6699 82.8691C88.9165 82.5324 89.1413 82.1729 89.3428 81.7911C89.5226 81.4316 89.6796 81.0275 89.837 80.6457Z" fill="#C38A65"/>
<path d="M96.2117 82.5764C95.9869 83.4975 95.6506 84.3958 95.1342 85.2044C94.887 85.6085 94.5954 86.0131 94.1913 86.2825C93.7872 86.5747 93.2935 86.7316 92.7998 86.642V86.6192C93.2712 86.5747 93.6976 86.3949 94.0566 86.1027C94.4161 85.8111 94.7301 85.4738 94.9995 85.092C95.2688 84.7102 95.4932 84.3061 95.6952 83.8793C95.875 83.4524 96.0542 83.0255 96.2117 82.5764Z" fill="#C38A65"/>
<mask id="mask3_838_4012" style="mask-type:luminance" maskUnits="userSpaceOnUse" x="97" y="87" width="4" height="5">
<path d="M97.6125 87.888H100.464V91.5126H97.6125V87.888Z" fill="white"/>
</mask>
<g mask="url(#mask3_838_4012)">
<path d="M100.41 87.9209C100.41 88.3027 100.343 88.7073 100.208 89.0891C100.074 89.4709 99.8939 89.8299 99.6696 90.1444C99.4453 90.4588 99.1536 90.7733 98.8169 90.9758C98.4801 91.2001 98.0983 91.3126 97.717 91.4022V91.3799C97.8067 91.3348 97.8963 91.2903 97.9864 91.2452C98.0761 91.2001 98.1657 91.1779 98.233 91.1105C98.3905 90.9981 98.5698 90.9308 98.7045 90.7961C99.0189 90.5712 99.3106 90.3241 99.5577 90.0325C99.8043 89.7403 100.006 89.4036 100.141 89.044C100.253 88.6845 100.343 88.3027 100.41 87.9209Z" fill="#C38A65"/>
</g>
<path d="M57.4473 62.2271C58.1207 62.1152 58.7714 61.9355 59.4226 61.7106C60.051 61.4863 60.6794 61.1941 61.2405 60.8346C61.8015 60.4756 62.318 60.026 62.7444 59.5095C63.1935 59.0152 63.5075 58.4091 63.7768 57.7802H63.7996C63.6649 58.4537 63.3505 59.1054 62.9241 59.6442C62.4978 60.1834 61.9362 60.6103 61.3306 60.9693C60.7245 61.3288 60.0961 61.5982 59.4449 61.8008C58.7942 62.0251 58.143 62.1826 57.4473 62.2271Z" fill="#C38A65"/>
<path d="M66.178 69.571C66.6494 69.4363 67.0986 69.2566 67.5472 69.0768C67.9963 68.8971 68.445 68.6727 68.8491 68.4479C69.2759 68.2008 69.6572 67.9314 70.039 67.617C70.4203 67.3248 70.7348 66.9658 70.9591 66.5389H70.9814C70.8695 67.0331 70.5327 67.4372 70.1737 67.7967C69.8142 68.1335 69.3656 68.3806 68.9392 68.6054C68.086 69.0318 67.1431 69.369 66.178 69.571Z" fill="#C38A65"/>
<path d="M78.1426 78.6911C78.7259 78.6009 79.2875 78.4212 79.8485 78.2191C80.4096 78.0171 80.9261 77.77 81.4198 77.4555C81.9135 77.1411 82.3398 76.7593 82.7439 76.3324C83.148 75.9055 83.4397 75.4118 83.6868 74.8726H83.7091C83.5971 75.4564 83.305 76.018 82.9237 76.4899C82.5419 76.9613 82.0482 77.3208 81.5317 77.6353C81.0157 77.9275 80.4546 78.1741 79.8936 78.3538C79.3098 78.5113 78.7487 78.646 78.1426 78.6911Z" fill="#C38A65"/>
</g>
</g>
<path d="M83.7964 69.5265C71.7428 68.6955 38.2082 94.6599 41.2161 97.5574C44.2239 100.455 49.925 91.6278 63.5949 93.4472C77.2642 95.2666 89.2955 89.337 89.2955 89.337C89.2955 89.337 94.6377 86.1925 92.595 78.8254C90.5523 71.4582 83.7964 69.5265 83.7964 69.5265Z" fill="#673D22"/>
<path d="M88.7793 88.6631C88.7793 88.6631 76.7708 94.5927 63.101 92.7733C49.4316 90.9539 43.7305 99.7586 40.7227 96.8835C37.7148 93.986 71.2489 68.0216 83.3024 68.8531" fill="#B26249"/>
<path d="M92.149 77.1642C92.191 77.3272 92.2311 77.4908 92.2685 77.6548C92.306 77.8189 92.3414 77.983 92.3738 78.1475C92.4063 78.3121 92.4366 78.4772 92.464 78.6417C92.4918 78.8068 92.5166 78.9714 92.5394 79.1365C92.5617 79.301 92.582 79.4656 92.5992 79.6297C92.6169 79.7942 92.6316 79.9578 92.6437 80.1208C92.6559 80.2844 92.6655 80.4469 92.6726 80.609C92.6797 80.771 92.6842 80.932 92.6863 81.092C92.6878 81.2526 92.6873 81.4116 92.6837 81.5695C92.6802 81.728 92.6746 81.8845 92.666 82.0405C92.6574 82.1959 92.6463 82.3504 92.6326 82.5028C92.6184 82.6557 92.6022 82.8071 92.5835 82.9565C92.5642 83.1059 92.543 83.2537 92.5192 83.3996C92.4949 83.5459 92.4685 83.6897 92.4392 83.832C92.4103 83.9738 92.3789 84.1135 92.345 84.2513C92.3106 84.389 92.2741 84.5247 92.2351 84.6579C92.1961 84.791 92.1551 84.9217 92.111 85.0498C92.0675 85.1779 92.0214 85.3035 91.9728 85.4265C91.9247 85.5496 91.8741 85.6696 91.8209 85.7871C91.7677 85.9045 91.7125 86.019 91.6553 86.1309C91.5976 86.2423 91.5378 86.3507 91.4761 86.4565C91.4143 86.5618 91.3505 86.6641 91.2847 86.7633C91.2188 86.8626 91.151 86.9583 91.0806 87.051C91.0107 87.1436 90.9388 87.2327 90.8654 87.3183C90.7915 87.4044 90.716 87.4864 90.6385 87.5654C90.5611 87.6439 90.4816 87.7194 90.401 87.7908C90.32 87.8622 90.2375 87.93 90.1529 87.9943C90.0689 88.0586 89.9833 88.1189 89.8957 88.1756C89.8086 88.2323 89.72 88.285 89.6298 88.3341C89.5397 88.3832 89.4481 88.4283 89.3554 88.4693C89.2627 88.5108 89.1686 88.5478 89.0734 88.5812C88.9782 88.6146 88.8819 88.644 88.7842 88.6693C88.687 88.6946 88.5888 88.7159 88.489 88.7331C88.3898 88.7503 88.2895 88.764 88.1887 88.7731C88.0875 88.7822 87.9857 88.7873 87.8829 88.7888C87.7806 88.7898 87.6773 88.7868 87.5735 88.7802C87.4697 88.7731 87.3654 88.762 87.2606 88.7473C87.1557 88.7321 87.0504 88.7134 86.9451 88.6901C86.8398 88.6673 86.7339 88.6399 86.6281 88.609C86.5218 88.5782 86.4159 88.5432 86.3096 88.5042C86.2033 88.4652 86.0974 88.4222 85.9911 88.3756C85.8848 88.329 85.7789 88.2784 85.6731 88.2237C85.5673 88.1695 85.4614 88.1113 85.3561 88.049C85.2508 87.9872 85.146 87.9214 85.0417 87.852C84.9369 87.7827 84.833 87.7092 84.7292 87.6328C84.6259 87.5558 84.5232 87.4758 84.4209 87.3922C84.3186 87.3082 84.2173 87.2211 84.117 87.1305C84.0163 87.0398 83.9165 86.9456 83.8178 86.8484C83.719 86.7512 83.6208 86.6509 83.5241 86.5471C83.4274 86.4433 83.3317 86.3365 83.237 86.2266C83.1428 86.1167 83.0496 86.0043 82.9575 85.8883C82.8653 85.7724 82.7747 85.6539 82.685 85.5324C82.5959 85.4113 82.5083 85.2873 82.4217 85.1602C82.3351 85.0336 82.2506 84.9045 82.167 84.7728C82.084 84.6412 82.0025 84.507 81.9225 84.3703C81.8425 84.234 81.7645 84.0953 81.688 83.9545C81.6115 83.8138 81.5371 83.671 81.4642 83.5261C81.3913 83.3813 81.3209 83.2345 81.252 83.0856C81.1832 82.9372 81.1163 82.7868 81.0515 82.6349C80.9867 82.483 80.9244 82.3301 80.8636 82.1752C80.8034 82.0202 80.7446 81.8643 80.6884 81.7068C80.6322 81.5493 80.5786 81.3908 80.5269 81.2308C80.4753 81.0713 80.4256 80.9108 80.3785 80.7492C80.3315 80.5877 80.2869 80.4257 80.2444 80.2626C80.2023 80.0996 80.1623 79.936 80.1249 79.7719C80.0874 79.6084 80.0519 79.4438 80.0195 79.2793C79.9871 79.1147 79.9567 78.9496 79.9294 78.785C79.9016 78.62 79.8767 78.4554 79.854 78.2903C79.8317 78.1258 79.8114 77.9612 79.7942 77.7971C79.7765 77.6331 79.7618 77.469 79.7496 77.3059C79.7375 77.1424 79.7279 76.9798 79.7208 76.8178C79.7137 76.6563 79.7091 76.4947 79.7071 76.3347C79.7056 76.1747 79.7061 76.0152 79.7096 75.8572C79.7132 75.6992 79.7188 75.5423 79.7274 75.3863C79.736 75.2309 79.7471 75.0764 79.7608 74.924C79.775 74.7711 79.7912 74.6197 79.8099 74.4703C79.8291 74.3209 79.8504 74.1731 79.8742 74.0272C79.8985 73.8809 79.9248 73.7371 79.9542 73.5948C79.9831 73.453 80.0145 73.3133 80.0484 73.1755C80.0828 73.0378 80.1193 72.9021 80.1583 72.7689C80.1973 72.6357 80.2383 72.5051 80.2823 72.377C80.3259 72.2489 80.372 72.1233 80.4206 72.0002C80.4687 71.8772 80.5193 71.7572 80.5725 71.6397C80.6257 71.5222 80.6808 71.4078 80.7381 71.2964C80.7958 71.1845 80.8555 71.0761 80.9173 70.9703C80.9791 70.865 81.0429 70.7627 81.1087 70.6634C81.1746 70.5642 81.2424 70.4685 81.3128 70.3758C81.3827 70.2832 81.4546 70.194 81.528 70.1085C81.6019 70.0224 81.6774 69.9404 81.7548 69.8614C81.8323 69.7829 81.9118 69.7074 81.9928 69.636C82.0734 69.5646 82.1559 69.4968 82.2405 69.4325C82.3245 69.3682 82.4101 69.3079 82.4977 69.2512C82.5848 69.1945 82.6734 69.1418 82.7635 69.0927C82.8537 69.0436 82.9453 68.9985 83.038 68.9575C83.1306 68.9165 83.2248 68.879 83.32 68.8456C83.4152 68.8122 83.5114 68.7833 83.6092 68.7575C83.7064 68.7322 83.8046 68.7109 83.9044 68.6937C84.0036 68.6765 84.1039 68.6633 84.2046 68.6537C84.3059 68.6446 84.4077 68.6395 84.5105 68.638C84.6128 68.637 84.7161 68.64 84.8199 68.6466C84.9237 68.6537 85.028 68.6648 85.1328 68.6795C85.2376 68.6947 85.343 68.7134 85.4483 68.7367C85.5536 68.7595 85.6594 68.7868 85.7653 68.8177C85.8716 68.8486 85.9774 68.8836 86.0838 68.9226C86.1901 68.9615 86.2959 69.0046 86.4023 69.0512C86.5086 69.0978 86.6144 69.1484 86.7203 69.2031C86.8261 69.2573 86.9319 69.3155 87.0373 69.3778C87.1426 69.4396 87.2474 69.5054 87.3517 69.5748C87.4565 69.6441 87.5603 69.7175 87.6641 69.794C87.7674 69.871 87.8702 69.951 87.9725 70.035C88.0748 70.1186 88.1761 70.2057 88.2763 70.2963C88.3771 70.387 88.4769 70.4811 88.5756 70.5784C88.6743 70.6756 88.7726 70.7759 88.8693 70.8797C88.966 70.9835 89.0617 71.0903 89.1564 71.2002C89.2506 71.3101 89.3438 71.423 89.4359 71.5384C89.5281 71.6544 89.6187 71.7729 89.7083 71.8944C89.7975 72.0154 89.8851 72.1395 89.9716 72.2666C90.0582 72.3932 90.1428 72.5223 90.2263 72.654C90.3094 72.7861 90.3909 72.9198 90.4709 73.0565C90.5509 73.1927 90.6289 73.3315 90.7054 73.4723C90.7818 73.613 90.8563 73.7558 90.9292 73.9011C91.0021 74.046 91.0725 74.1923 91.1414 74.3412C91.2102 74.4895 91.2771 74.6399 91.3419 74.7918C91.4067 74.9438 91.469 75.0972 91.5297 75.2516C91.59 75.4066 91.6487 75.563 91.7049 75.7205C91.7611 75.8775 91.8148 76.0365 91.8665 76.196C91.9181 76.3555 91.9677 76.516 92.0148 76.6775C92.0619 76.8391 92.1065 77.0016 92.149 77.1642Z" fill="#FEECE1"/>
<path d="M86.8712 78.5382C86.8905 78.6126 86.9052 78.6871 86.9158 78.7625C86.9259 78.8375 86.9315 78.9114 86.9325 78.9843C86.933 79.0572 86.9295 79.1276 86.9209 79.196C86.9123 79.2638 86.8991 79.3286 86.8819 79.3889C86.8642 79.4497 86.8424 79.5054 86.8161 79.556C86.7902 79.6071 86.7604 79.6517 86.7269 79.6907C86.6935 79.7302 86.6571 79.7626 86.6176 79.7879C86.5776 79.8137 86.536 79.8325 86.4915 79.8441C86.4474 79.8558 86.4018 79.8598 86.3548 79.8563C86.3077 79.8532 86.2596 79.8426 86.2115 79.8249C86.1633 79.8072 86.1152 79.7823 86.0682 79.751C86.0206 79.7191 85.9745 79.6811 85.9294 79.637C85.8843 79.5925 85.8418 79.5428 85.8013 79.4876C85.7603 79.4319 85.7228 79.3722 85.6879 79.3084C85.6534 79.2441 85.622 79.1767 85.5947 79.1064C85.5668 79.0355 85.5436 78.963 85.5243 78.8891C85.5051 78.8147 85.4904 78.7402 85.4798 78.6653C85.4696 78.5899 85.4641 78.5159 85.463 78.443C85.462 78.3701 85.4661 78.2997 85.4747 78.2314C85.4833 78.1635 85.4965 78.0992 85.5137 78.0384C85.5314 77.9777 85.5532 77.922 85.5795 77.8713C85.6053 77.8202 85.6352 77.7756 85.6686 77.7366C85.702 77.6976 85.7385 77.6652 85.778 77.6394C85.818 77.6136 85.8595 77.5948 85.9041 77.5832C85.9481 77.5721 85.9937 77.5675 86.0408 77.571C86.0879 77.5741 86.136 77.5847 86.1841 77.6024C86.2322 77.6202 86.2803 77.645 86.3274 77.6764C86.375 77.7083 86.4211 77.7463 86.4662 77.7903C86.5112 77.8349 86.5538 77.8845 86.5943 77.9402C86.6353 77.9954 86.6728 78.0551 86.7077 78.1194C86.7421 78.1832 86.7735 78.2506 86.8009 78.3215C86.8287 78.3919 86.852 78.4643 86.8712 78.5382Z" fill="#DDC8BF"/>
<path d="M76.4336 72.8292C76.4336 72.8292 60.0932 79.253 56.5466 82.5995C56.5466 82.6218 67.2983 74.8506 76.4336 72.8292Z" fill="#54210F" fill-opacity="0.4275"/>
<path d="M78.9476 77.8148C78.9476 77.8148 56.0751 84.6877 50.8899 88.843C50.8899 88.8202 66.3553 79.499 78.9476 77.8148Z" fill="#54210F" fill-opacity="0.4275"/>
<path d="M78.9701 80.9816C78.9701 80.9816 54.3693 92.0994 46.7825 90.5722C46.7825 90.5722 63.37 90.4375 78.9701 80.9816Z" fill="#54210F" fill-opacity="0.4275"/>
<path d="M82.405 88.0121C82.405 88.0121 65.7952 93.6044 54.3923 90.6624C54.3923 90.6624 70.1494 92.9081 82.405 88.0121Z" fill="#54210F" fill-opacity="0.4275"/>
<path d="M80.182 89.4047C80.182 89.4047 68.3077 93.4025 60.1375 91.3137C60.1152 91.3137 71.3829 92.9311 80.182 89.4047Z" fill="#54210F" fill-opacity="0.4275"/>
<path d="M81.5284 89.6956C81.0575 89.3589 80.6306 88.9771 80.2266 88.5502C79.823 88.1234 79.4635 87.697 79.1267 87.2028C78.8128 86.7086 78.5211 86.2144 78.3414 85.6528C78.1616 85.0912 78.0943 84.5074 78.1616 83.9236H78.1844C78.2517 84.5074 78.3636 85.0462 78.5657 85.5855C78.7677 86.1019 78.992 86.6412 79.3065 87.1127C79.6209 87.5846 79.9577 88.056 80.339 88.4829C80.6757 88.9097 81.0798 89.3138 81.5284 89.6956Z" fill="#C38A65"/>
<path d="M72.3942 91.807C71.8108 91.4697 71.2943 90.9983 70.868 90.459C70.6659 90.1896 70.4862 89.8752 70.3743 89.5607L70.3069 89.3136C70.2841 89.224 70.2841 89.1339 70.2619 89.0442C70.2396 88.8645 70.2619 88.7075 70.2619 88.5278H70.2841C70.3743 88.8645 70.4416 89.1789 70.5763 89.4711C70.711 89.7628 70.8229 90.0772 71.0249 90.3471C71.2047 90.6165 71.4067 90.8859 71.6533 91.133C71.9005 91.3801 72.1476 91.6049 72.3942 91.807Z" fill="#C38A65"/>
<path d="M65.6148 90.8859C65.0988 90.3244 64.6274 89.7182 64.201 89.0666C63.7741 88.4154 63.4151 87.7414 63.1007 87.0451C62.7867 86.3489 62.5396 85.6076 62.3827 84.844C62.248 84.0804 62.248 83.2945 62.3376 82.5309H62.3604C62.3827 83.2945 62.4277 84.0581 62.607 84.7994C62.7645 85.5402 62.9665 86.2815 63.2582 86.9778C63.5498 87.674 63.8866 88.3703 64.2906 89.022C64.6947 89.6509 65.1211 90.2798 65.6148 90.8859Z" fill="#C38A65"/>
<path d="M59.9589 91.9421C59.6667 91.7401 59.3974 91.5153 59.128 91.2682C58.8591 91.021 58.612 90.7517 58.4099 90.4595C58.1856 90.1678 57.9836 89.8534 57.8712 89.4938C57.7588 89.1343 57.7365 88.7525 57.8489 88.3935H57.8712C57.8935 88.7525 57.9608 89.0898 58.0955 89.4042C58.2079 89.7187 58.3877 90.0331 58.5669 90.3248C58.769 90.617 58.9938 90.8864 59.2181 91.1557C59.4424 91.4479 59.7118 91.695 59.9589 91.9421Z" fill="#C38A65"/>
<path d="M53.8767 87.6974C53.4275 87.3379 53.0234 86.911 52.7318 86.3945C52.5748 86.1474 52.4401 85.8552 52.4178 85.5636C52.395 85.2491 52.4401 84.9347 52.6193 84.6876H52.6421C52.5971 84.9792 52.5971 85.2491 52.6421 85.5185C52.6867 85.7879 52.7768 86.0578 52.8887 86.3044C53.0011 86.5515 53.1581 86.7986 53.3379 87.0234C53.4949 87.2705 53.6746 87.4726 53.8767 87.6974Z" fill="#C38A65"/>
<path d="M50.5528 92.0989C50.0591 91.6949 49.5877 91.2457 49.2287 90.6841C49.0489 90.4148 48.8919 90.1226 48.8246 89.7859C48.7572 89.4486 48.8246 89.0896 49.0266 88.8197H49.0489C48.9593 89.1342 48.9593 89.4263 49.0266 89.7185C49.094 90.0102 49.2064 90.3023 49.3633 90.5717C49.5203 90.8411 49.7001 91.111 49.9021 91.3581C50.1042 91.6275 50.3285 91.8518 50.5528 92.0989Z" fill="#C38A65"/>
<path d="M45.8401 95.2659C45.3686 95.0411 44.9418 94.6593 44.6724 94.1878C44.5382 93.9407 44.4258 93.6936 44.4035 93.4014C44.3807 93.1321 44.4035 92.8399 44.4931 92.5928H44.5154C44.5382 92.7275 44.5382 92.8627 44.5605 92.9974C44.5828 93.1321 44.5828 93.2445 44.6278 93.3792C44.6724 93.6263 44.7174 93.8734 44.8299 94.0977C44.9418 94.3225 45.0765 94.5468 45.2562 94.7489C45.436 94.9286 45.638 95.1084 45.8401 95.2659Z" fill="#C38A65"/>
<path d="M75.2668 71.3448C75.1321 71.794 75.0648 72.2431 75.0197 72.6923C74.9752 73.1419 74.9752 73.6133 75.0425 74.0625C75.1098 74.5116 75.2445 74.9385 75.4238 75.3654C75.6036 75.7922 75.8507 76.1512 76.1423 76.5108L76.1195 76.533C75.7382 76.2637 75.4238 75.9041 75.1995 75.4778C74.9974 75.0509 74.885 74.579 74.8627 74.1075C74.8177 73.6356 74.8405 73.1642 74.9078 72.715C74.9752 72.2208 75.0871 71.7717 75.2668 71.3448Z" fill="#C38A65"/>
<path d="M69.4086 74.5351C69.3636 74.8718 69.3413 75.1863 69.3413 75.523C69.3185 75.8602 69.3413 76.1747 69.3636 76.5114C69.3858 76.8482 69.4532 77.1626 69.5428 77.4548C69.6102 77.7692 69.7226 78.0614 69.9023 78.3531L69.8795 78.3759C69.6102 78.1733 69.4309 77.8589 69.3185 77.5221C69.2066 77.1854 69.1838 76.8482 69.1838 76.5114C69.1615 75.8375 69.2511 75.1863 69.4086 74.5351Z" fill="#C38A65"/>
<path d="M59.577 79.7456C59.4645 80.1274 59.42 80.5319 59.3749 80.936C59.3526 81.3406 59.3526 81.7224 59.3972 82.1265C59.4645 82.5083 59.577 82.8901 59.7116 83.2496C59.8463 83.6091 60.0707 83.9459 60.3178 84.2603L60.2955 84.2826C59.9588 84.0355 59.6894 83.721 59.5096 83.3392C59.3298 82.9574 59.2625 82.5534 59.2179 82.1493C59.1952 81.7447 59.2179 81.3406 59.2625 80.936C59.3298 80.5092 59.42 80.1274 59.577 79.7456Z" fill="#C38A65"/>
</svg>
