<svg width="148" height="148" viewBox="0 0 148 148" fill="none" xmlns="http://www.w3.org/2000/svg">
<mask id="mask0_838_3808" style="mask-type:luminance" maskUnits="userSpaceOnUse" x="19" y="71" width="113" height="38">
<path d="M19.491 71.4098H131.521V108.401H19.491V71.4098Z" fill="white"/>
</mask>
<g mask="url(#mask0_838_3808)">
<path d="M131.483 93.6456C131.456 97.4147 126.165 97.2815 123.546 97.2815C121.917 97.2815 120.34 96.9603 118.737 97.2815C116.359 97.7627 114.195 98.9921 111.896 99.7409C111.843 99.7677 111.789 99.7677 111.736 99.7945C110.854 100.088 110 100.329 109.118 100.543C108.209 100.757 107.274 100.944 106.366 101.077C104.949 101.318 103.507 101.478 102.064 101.612C101.422 101.666 100.808 101.746 100.166 101.799C99.0445 101.933 97.9221 102.067 96.8265 102.2C94.3951 102.521 91.9369 102.869 89.5048 103.163C88.0625 103.323 86.6463 103.483 85.2301 103.617C80.9816 104.072 76.7593 104.472 72.5114 104.794C68.1558 105.141 64.0144 105.622 59.8188 106.451C58.8838 106.638 57.9756 106.852 57.04 107.066C53.9941 107.788 50.8412 108.215 47.7151 108.322C45.283 108.403 42.798 108.215 40.4469 107.707C36.1448 106.745 32.2169 104.579 29.6255 100.65C28.3693 98.7518 27.5146 96.5862 26.9531 94.3671C26.9531 94.3671 22.7046 93.1109 20.2732 93.9662C20.0329 94.0465 19.7926 94.1536 19.6052 94.2868C19.6052 94.2868 21.6358 90.1697 19.6052 87.2827C19.6052 87.2827 19.6052 87.2827 19.632 87.2827C19.6855 87.3094 19.8723 87.4165 20.1661 87.5236C21.2349 87.9244 23.7199 88.3789 25.8843 85.6518C28.7702 82.0427 29.0908 70.1465 43.6801 71.6703C49.2109 72.2586 54.9291 72.9533 60.3268 73.6753C61.5294 73.8359 62.6779 73.9959 63.8538 74.1297C65.9379 74.3968 67.9417 74.6645 69.8658 74.9047C69.9729 74.9315 70.1061 74.9315 70.2132 74.9583C72.2437 75.2259 74.1679 75.4662 75.9046 75.6803C76.519 75.7606 77.1334 75.8142 77.6949 75.8939C79.3246 76.0812 80.7943 76.215 82.0505 76.3221C83.7604 76.4553 85.3901 76.8033 86.9937 77.2845C87.7681 77.5247 88.5163 77.7656 89.2645 78.0594C90.2798 78.4336 91.2951 78.8618 92.311 79.3162C94.288 80.1983 96.2383 81.1606 98.1892 82.0427C98.4027 82.1497 98.6436 82.2568 98.8571 82.3371C98.9107 82.3639 98.9374 82.3906 98.9909 82.3906C99.0706 82.4174 99.1242 82.4442 99.2045 82.4709C99.258 82.4977 99.3383 82.5239 99.3918 82.5506C99.418 82.5506 99.418 82.5506 99.4448 82.5774C100.006 82.8183 100.54 83.0318 101.102 83.2459C101.689 83.46 102.277 83.6736 102.865 83.8877C107.594 85.5186 112.244 86.3203 117.321 87.0959C120.527 87.6836 131.509 88.593 131.483 93.6456Z" fill="#54210F"/>
</g>
<path d="M19.3907 87.3341C19.4621 87.3407 19.5329 87.3532 19.6025 87.3716C19.6726 87.39 19.7416 87.4144 19.8094 87.4447C19.8772 87.4751 19.9439 87.5108 20.0093 87.553C20.0741 87.5946 20.1378 87.6416 20.1996 87.6946C20.2609 87.7475 20.3209 87.8052 20.3786 87.8688C20.4363 87.9319 20.4916 88.0003 20.5452 88.0734C20.5981 88.1466 20.6487 88.2245 20.6968 88.3072C20.745 88.3898 20.7908 88.4761 20.8331 88.5671C20.8759 88.6581 20.9157 88.7527 20.952 88.8514C20.9889 88.9501 21.0222 89.0518 21.0531 89.1571C21.0835 89.2618 21.1102 89.37 21.134 89.4807C21.1578 89.5913 21.1786 89.7043 21.1953 89.8197C21.2125 89.9351 21.2262 90.0523 21.2363 90.1706C21.2458 90.2896 21.2524 90.4091 21.2553 90.5305C21.2583 90.6512 21.2577 90.7731 21.2536 90.8951C21.25 91.017 21.2423 91.1389 21.231 91.2614C21.2197 91.3834 21.2048 91.5047 21.1869 91.6254C21.1685 91.7462 21.1471 91.8663 21.1221 91.9847C21.0977 92.1031 21.0692 92.2196 21.0377 92.3344C21.0061 92.4492 20.9716 92.5622 20.9342 92.6723C20.8967 92.7823 20.8557 92.8899 20.8122 92.9946C20.7688 93.0993 20.7224 93.2004 20.6736 93.298C20.6243 93.3961 20.5731 93.4901 20.519 93.5805C20.4649 93.6703 20.409 93.7565 20.3507 93.838C20.2918 93.9195 20.2317 93.9968 20.1693 94.0694C20.1068 94.1414 20.0432 94.2092 19.9772 94.271C19.9117 94.3335 19.8445 94.3906 19.7767 94.4423C19.7083 94.4941 19.6387 94.5405 19.5686 94.5809C19.4984 94.6219 19.4276 94.6564 19.3556 94.6856C19.2842 94.7147 19.2123 94.7385 19.1397 94.7558C19.0677 94.773 18.9952 94.7843 18.9232 94.7897C18.8512 94.7956 18.7793 94.795 18.7079 94.7885C18.6359 94.7819 18.5658 94.7694 18.4956 94.7504C18.4254 94.732 18.3564 94.7076 18.2886 94.6779C18.2208 94.6475 18.1542 94.6112 18.0887 94.5696C18.0239 94.528 17.9603 94.481 17.8984 94.428C17.8371 94.3751 17.7771 94.3174 17.7194 94.2538C17.6617 94.1907 17.6064 94.1223 17.5528 94.0492C17.4999 93.976 17.4494 93.8981 17.4012 93.8154C17.353 93.7327 17.3072 93.6459 17.265 93.5549C17.2221 93.4645 17.1823 93.3693 17.146 93.2712C17.1091 93.1725 17.0758 93.0708 17.0455 92.9655C17.0146 92.8602 16.9878 92.7526 16.964 92.6419C16.9402 92.5307 16.9194 92.4177 16.9028 92.3029C16.8855 92.1875 16.8718 92.0703 16.8623 91.9514C16.8522 91.833 16.8457 91.7129 16.8427 91.5921C16.8397 91.4714 16.8403 91.3495 16.8445 91.2275C16.8486 91.1056 16.8558 90.9831 16.8671 90.8612C16.8784 90.7392 16.8932 90.6179 16.9111 90.4966C16.9295 90.3758 16.9509 90.2563 16.9759 90.1379C17.0009 90.0195 17.0288 89.903 17.0604 89.7882C17.0919 89.6728 17.1264 89.5604 17.1639 89.4503C17.2013 89.3397 17.2424 89.2327 17.2858 89.128C17.3292 89.0233 17.3756 88.9222 17.4244 88.824C17.4737 88.7265 17.5249 88.6325 17.579 88.5421C17.6331 88.4517 17.689 88.3661 17.7479 88.2846C17.8062 88.2025 17.8663 88.1258 17.9287 88.0532C17.9912 87.9806 18.0548 87.9134 18.1209 87.851C18.1863 87.7885 18.2535 87.732 18.3213 87.6803C18.3897 87.6279 18.4593 87.5821 18.5295 87.5411C18.5997 87.5007 18.671 87.4656 18.7424 87.4364C18.8138 87.4073 18.8857 87.3841 18.9583 87.3668C19.0303 87.3496 19.1028 87.3383 19.1748 87.3323C19.2474 87.327 19.3187 87.3276 19.3907 87.3341Z" fill="#58332F"/>
<mask id="mask1_838_3808" style="mask-type:luminance" maskUnits="userSpaceOnUse" x="0" y="0" width="148" height="148">
<path d="M148 0H0V148H148V0Z" fill="black" fill-opacity="0.4275"/>
</mask>
<g mask="url(#mask1_838_3808)">
<mask id="mask2_838_3808" style="mask-type:luminance" maskUnits="userSpaceOnUse" x="47" y="98" width="53" height="6">
<path d="M99.7337 98.8193H47.9641V103.996H99.7337V98.8193Z" fill="white"/>
</mask>
<g mask="url(#mask2_838_3808)">
<mask id="mask3_838_3808" style="mask-type:luminance" maskUnits="userSpaceOnUse" x="48" y="98" width="52" height="6">
<path d="M48 98.9702H99.581V103.843H48V98.9702Z" fill="white"/>
</mask>
<g mask="url(#mask3_838_3808)">
<path d="M48.064 102.761C48.064 102.761 88.892 103.216 99.4731 99.0986C99.4731 99.0986 69.4932 106.424 48.064 102.761Z" fill="#54210F"/>
</g>
</g>
</g>
<mask id="mask4_838_3808" style="mask-type:luminance" maskUnits="userSpaceOnUse" x="0" y="0" width="148" height="148">
<path d="M148 0H0V148H148V0Z" fill="black" fill-opacity="0.4275"/>
</mask>
<g mask="url(#mask4_838_3808)">
<mask id="mask5_838_3808" style="mask-type:luminance" maskUnits="userSpaceOnUse" x="36" y="91" width="71" height="8">
<path d="M106.89 91.3576H36.697V98.2095H106.89V91.3576Z" fill="white"/>
</mask>
<g mask="url(#mask5_838_3808)">
<mask id="mask6_838_3808" style="mask-type:luminance" maskUnits="userSpaceOnUse" x="36" y="91" width="71" height="7">
<path d="M36.8499 91.3779H106.836V97.9068H36.8499V91.3779Z" fill="white"/>
</mask>
<g mask="url(#mask6_838_3808)">
<path d="M36.8945 96.5073C36.8945 96.5073 92.4457 97.1223 106.821 91.5081C106.821 91.5081 66.0197 101.48 36.8945 96.5073Z" fill="#54210F"/>
</g>
</g>
</g>
<mask id="mask7_838_3808" style="mask-type:luminance" maskUnits="userSpaceOnUse" x="0" y="0" width="148" height="148">
<path d="M148 0H0V148H148V0Z" fill="black" fill-opacity="0.4275"/>
</mask>
<g mask="url(#mask7_838_3808)">
<mask id="mask8_838_3808" style="mask-type:luminance" maskUnits="userSpaceOnUse" x="35" y="86" width="79" height="7">
<path d="M113.587 86.7888H35.1714V92.5748H113.587V86.7888Z" fill="white"/>
</mask>
<g mask="url(#mask8_838_3808)">
<mask id="mask9_838_3808" style="mask-type:luminance" maskUnits="userSpaceOnUse" x="35" y="86" width="79" height="7">
<path d="M35.2083 86.9421H113.435V92.4235H35.2083V86.9421Z" fill="white"/>
</mask>
<g mask="url(#mask9_838_3808)">
<path d="M35.209 91.3463C35.209 91.3463 97.5472 83.7539 113.312 92.3889C113.312 92.3889 76.4111 81.1875 35.209 91.3463Z" fill="#54210F"/>
</g>
</g>
</g>
<mask id="mask10_838_3808" style="mask-type:luminance" maskUnits="userSpaceOnUse" x="0" y="0" width="148" height="148">
<path d="M148 0H0V148H148V0Z" fill="black" fill-opacity="0.4275"/>
</mask>
<g mask="url(#mask10_838_3808)">
<mask id="mask11_838_3808" style="mask-type:luminance" maskUnits="userSpaceOnUse" x="35" y="79" width="67" height="8">
<path d="M101.864 79.0243H35.9343V86.3329H101.864V79.0243Z" fill="white"/>
</mask>
<g mask="url(#mask11_838_3808)">
<path d="M36.2261 81.4006C36.2261 81.4006 76.4664 74.9574 101.53 86.0786C101.53 86.0786 66.2594 74.8503 36.2261 81.4006Z" fill="#54210F"/>
</g>
</g>
<mask id="mask12_838_3808" style="mask-type:luminance" maskUnits="userSpaceOnUse" x="0" y="0" width="148" height="148">
<path d="M148 0H0V148H148V0Z" fill="black" fill-opacity="0.4275"/>
</mask>
<g mask="url(#mask12_838_3808)">
<mask id="mask13_838_3808" style="mask-type:luminance" maskUnits="userSpaceOnUse" x="41" y="77" width="48" height="6">
<path d="M88.7696 77.3496H41.7202V82.6788H88.7696V77.3496Z" fill="white"/>
</mask>
<g mask="url(#mask13_838_3808)">
<mask id="mask14_838_3808" style="mask-type:luminance" maskUnits="userSpaceOnUse" x="41" y="77" width="48" height="6">
<path d="M41.8726 77.5019H88.6721V82.5266H41.8726V77.5019Z" fill="white"/>
</mask>
<g mask="url(#mask14_838_3808)">
<path d="M41.8892 79.0485C41.8892 79.0485 70.6937 74.4235 88.6227 82.3906C88.6227 82.3906 63.3987 74.37 41.8892 79.0485Z" fill="#54210F"/>
</g>
</g>
</g>
<path d="M38.6021 72.2591C39.377 73.4885 40.0182 74.772 40.6065 76.1085C41.1673 77.445 41.6217 78.8356 41.9423 80.2523C42.1023 80.9738 42.2361 81.6691 42.3164 82.3912C42.3967 83.1126 42.4235 83.8347 42.3967 84.5829C42.37 85.305 42.2629 86.027 42.1023 86.7485C41.9423 87.4706 41.702 88.1385 41.4076 88.807H41.3809C41.595 88.1117 41.7817 87.417 41.9156 86.7217C42.0226 86.0003 42.1023 85.305 42.1291 84.5829C42.1559 83.1394 42.0226 81.7226 41.755 80.3059C41.4612 78.8891 41.0335 77.5253 40.4994 76.162C39.9385 74.8256 39.3235 73.5153 38.6021 72.2591Z" fill="#58332F"/>
<path d="M63.1316 75.6274C63.6395 76.2959 64.0933 77.0442 64.4675 77.793C64.8416 78.568 65.1354 79.3703 65.3763 80.1721C65.6166 81.0006 65.7236 81.8565 65.7236 82.7118L65.6701 83.3803C65.6433 83.5939 65.5898 83.808 65.563 84.0221L65.5095 84.3427L65.4031 84.6365C65.3228 84.8506 65.2692 85.038 65.1889 85.2515H65.1622C65.1889 85.038 65.2425 84.8239 65.2692 84.6365L65.3228 84.3159L65.3495 83.9953C65.3763 83.7812 65.4031 83.5671 65.4031 83.3803V82.7653C65.3763 81.9368 65.3228 81.0809 65.1354 80.2792C64.9486 79.45 64.6548 78.6751 64.3075 77.9001C64.0136 77.0977 63.6128 76.3495 63.1316 75.6274Z" fill="#58332F"/>
<path d="M75.5303 76.5362C76.2517 78.3277 76.7597 80.1989 77.1867 82.0701C77.5876 83.9686 77.8547 85.8933 77.935 87.818C77.9885 88.7804 77.9885 89.7427 77.935 90.7318C77.9082 91.213 77.8547 91.6942 77.8279 92.176C77.7482 92.6571 77.6947 93.1383 77.6144 93.6195C77.267 95.5174 76.6526 97.3886 75.7706 99.0998H75.7438C76.492 97.3351 77.0535 95.4639 77.3473 93.5659C77.5073 92.6304 77.6144 91.668 77.6947 90.7051C77.775 89.7427 77.775 88.7804 77.7482 87.818C77.6947 85.8933 77.4544 83.9686 77.0803 82.0968C76.6794 80.1989 76.1982 78.3545 75.5303 76.5362Z" fill="#58332F"/>
<path d="M89.718 79.1027C90.1992 79.8515 90.6262 80.6533 91.0271 81.4818C91.4012 82.3109 91.7218 83.1395 91.9627 84.0221C92.203 84.9042 92.363 85.813 92.3362 86.7218C92.3101 87.6306 92.0424 88.5668 91.5351 89.315H91.5083C91.8824 88.4865 92.0692 87.6306 92.0692 86.7486C92.0692 85.8665 91.9627 84.9845 91.7754 84.1018C91.5618 83.2465 91.2674 82.3912 90.9201 81.5621C90.5465 80.7068 90.1457 79.905 89.718 79.1027Z" fill="#58332F"/>
<path d="M101.823 92.282C102.171 92.9237 102.465 93.5923 102.705 94.2602C102.945 94.9555 103.133 95.6508 103.266 96.3723C103.373 97.0943 103.426 97.8426 103.24 98.5914C103.133 98.9387 103.026 99.3135 102.839 99.634C102.651 99.9546 102.411 100.249 102.117 100.463L102.091 100.436C102.545 99.8743 102.866 99.2064 102.972 98.5111C103.106 97.8158 103.133 97.0943 103.052 96.399C102.972 95.6776 102.812 94.9823 102.598 94.287C102.384 93.619 102.117 92.9505 101.823 92.282Z" fill="#58332F"/>
<path d="M111.95 87.176C112.351 87.8713 112.698 88.6196 112.992 89.3684C113.286 90.1172 113.526 90.8922 113.686 91.694C113.847 92.4963 113.927 93.3248 113.794 94.1272C113.633 94.929 113.232 95.7313 112.564 96.2125L112.537 96.1857C113.072 95.5975 113.419 94.8487 113.5 94.0737C113.606 93.2981 113.579 92.4963 113.446 91.7207C113.312 90.9457 113.099 90.1701 112.832 89.4219C112.618 88.6463 112.297 87.8981 111.95 87.176Z" fill="#58332F"/>
<path d="M123.413 88.8067C123.867 89.2879 124.214 89.8761 124.509 90.4643C124.803 91.0793 124.989 91.7205 125.07 92.389C125.15 93.0576 125.15 93.7523 124.989 94.394C124.909 94.7152 124.776 95.0358 124.669 95.3564C124.535 95.6776 124.348 95.9446 124.188 96.239H124.162C124.214 96.0785 124.268 95.9179 124.322 95.784C124.375 95.624 124.455 95.4902 124.482 95.3296C124.562 95.009 124.696 94.7152 124.722 94.394C124.856 93.7523 124.909 93.1111 124.856 92.4693C124.803 91.8276 124.642 91.1858 124.402 90.5714C124.135 89.9296 123.787 89.3414 123.413 88.8067Z" fill="#58332F"/>
<path d="M40.366 107.761C41.0874 106.852 41.6757 105.863 42.2098 104.82C42.7445 103.778 43.1454 102.708 43.4392 101.585C43.7062 100.463 43.8401 99.3134 43.7598 98.1637C43.733 97.6023 43.6259 97.014 43.4927 96.4793L43.3857 96.0517C43.3589 95.9178 43.2786 95.784 43.2518 95.6508C43.1715 95.3831 43.0383 95.1161 42.9312 94.8484H42.958C43.2518 95.3564 43.5189 95.8911 43.6795 96.4525C43.8401 97.014 43.9733 97.6023 44.0268 98.1905C44.1339 99.3664 43.9465 100.543 43.6527 101.666C43.3321 102.789 42.8777 103.885 42.3436 104.901C41.7554 105.89 41.1142 106.879 40.366 107.761Z" fill="#58332F"/>
<path d="M59.7388 106.505C60.1658 105.783 60.5132 105.035 60.8605 104.286C61.2079 103.538 61.5023 102.763 61.7426 101.96C61.9829 101.158 62.1435 100.356 62.2505 99.5544C62.3302 98.7526 62.3302 97.9235 62.0632 97.1217H62.0899C62.4908 97.87 62.5711 98.7526 62.5176 99.5811C62.464 100.436 62.2238 101.239 61.9561 102.041C61.689 102.843 61.3685 103.591 60.9943 104.367C60.6202 105.088 60.2194 105.81 59.7388 106.505Z" fill="#58332F"/>
<path d="M85.177 103.645C85.7914 102.843 86.2993 101.96 86.7532 101.078C87.2076 100.169 87.5549 99.2339 87.7952 98.2715C88.0361 97.3086 88.1426 96.2927 88.089 95.3036C88.0629 94.3145 87.822 93.3253 87.4746 92.3898H87.5014C87.7417 92.8174 87.9558 93.2986 88.089 93.7798C88.2229 94.2609 88.3299 94.7689 88.3567 95.2768C88.437 96.2927 88.2764 97.3353 87.9826 98.2983C87.7155 99.2874 87.3146 100.223 86.8335 101.105C86.379 102.014 85.8182 102.87 85.177 103.645Z" fill="#58332F"/>
<path d="M100.854 69.8757C100.854 69.8757 120.989 75.8491 130.411 51.6124C130.411 51.6124 111.039 47.402 100.854 69.8757Z" fill="#4C853D"/>
<path d="M101.46 69.9549L104.96 67.7441L108.461 65.5601C110.804 64.1124 113.146 62.6653 115.489 61.1914C117.831 59.7443 120.174 58.2705 122.49 56.7704C123.648 56.0335 124.806 55.2704 125.938 54.4811C126.517 54.0862 127.07 53.6918 127.622 53.2969C128.175 52.8758 128.728 52.4809 129.201 51.9545L129.228 51.9813C128.78 52.5076 128.228 52.9281 127.675 53.376C127.123 53.7971 126.569 54.2176 126.017 54.6126C124.885 55.4286 123.753 56.1917 122.595 56.9548C120.305 58.481 117.963 59.9549 115.62 61.4281C110.962 64.3229 106.224 67.1654 101.46 69.9549Z" fill="white"/>
<path d="M125.043 53.0593C124.805 53.3222 124.569 53.6118 124.358 53.9015C124.121 54.1906 123.911 54.4802 123.727 54.7699C123.542 55.0589 123.332 55.3748 123.226 55.6906C123.095 56.0064 123.042 56.3746 123.279 56.5851C123.516 56.7695 123.885 56.7957 124.227 56.7695C124.569 56.7434 124.938 56.6904 125.28 56.6119C125.622 56.5328 125.99 56.4537 126.332 56.3484C126.674 56.2699 127.043 56.1646 127.385 56.0594C126.7 56.2961 126.016 56.5328 125.306 56.6904C124.964 56.7695 124.595 56.8486 124.227 56.8748C123.885 56.901 123.49 56.901 123.174 56.6643C123.042 56.5328 122.963 56.3484 122.99 56.1646C122.99 55.9803 123.069 55.7959 123.121 55.6383C123.253 55.2957 123.463 54.9804 123.647 54.6908C124.042 54.1115 124.516 53.5589 125.043 53.0593Z" fill="white"/>
<path d="M122.411 53.9281C122.095 54.2963 121.779 54.6651 121.49 55.0332C121.2 55.4014 120.911 55.7963 120.647 56.1913C120.384 56.5856 120.121 57.0067 119.963 57.4278C119.884 57.6384 119.805 57.8751 119.805 58.0856C119.805 58.2962 119.858 58.5067 120.016 58.6388C120.174 58.7702 120.384 58.8487 120.621 58.8755C120.858 58.9017 121.095 58.9017 121.332 58.9017C121.806 58.8755 122.279 58.7702 122.753 58.6911C123.227 58.5858 123.674 58.4806 124.148 58.3491C124.622 58.2177 125.069 58.0856 125.543 57.9542C124.622 58.27 123.727 58.5597 122.779 58.7964C122.305 58.9017 121.832 59.0069 121.358 59.0331C121.121 59.0593 120.885 59.0593 120.647 59.0069C120.41 58.9808 120.174 58.9017 119.963 58.7434C119.779 58.5858 119.7 58.3229 119.7 58.0856C119.7 57.8489 119.779 57.6122 119.858 57.3755C120.042 56.9282 120.305 56.5071 120.569 56.1121C121.095 55.3229 121.727 54.6121 122.411 53.9281Z" fill="white"/>
<path d="M118.331 55.8225C117.909 56.2704 117.541 56.7177 117.146 57.1911C116.751 57.6646 116.383 58.1386 116.067 58.6388C115.725 59.1384 115.409 59.6386 115.198 60.1912C115.093 60.4541 115.015 60.7437 115.015 61.0334C114.988 61.3225 115.093 61.5859 115.304 61.7436C115.514 61.9279 115.778 62.0071 116.067 62.0332C116.356 62.0862 116.646 62.0862 116.962 62.0594C117.567 62.0332 118.147 61.9279 118.725 61.7965C119.305 61.6651 119.883 61.5068 120.463 61.3492C121.042 61.191 121.621 61.0072 122.2 60.8228C121.068 61.2172 119.91 61.5859 118.725 61.8756C118.147 62.0071 117.541 62.1123 116.936 62.1647C116.646 62.1914 116.33 62.1914 116.041 62.1385C115.752 62.1123 115.436 62.0071 115.198 61.8227C114.962 61.6121 114.856 61.2963 114.883 61.0072C114.883 60.6914 114.988 60.4017 115.093 60.1383C115.33 59.5857 115.646 59.0593 115.988 58.5597C116.699 57.5861 117.488 56.6909 118.331 55.8225Z" fill="white"/>
<path d="M113.62 58.7703C113.199 59.2176 112.831 59.6649 112.436 60.1383C112.041 60.6124 111.672 61.0858 111.356 61.586C111.014 62.0862 110.698 62.5858 110.488 63.1384C110.382 63.4019 110.303 63.6909 110.303 63.9806C110.277 64.2702 110.382 64.5331 110.593 64.6913C110.804 64.8751 111.067 64.9542 111.356 64.9804C111.646 65.0333 111.935 65.0333 112.251 65.0072C112.857 64.9804 113.435 64.8751 114.015 64.7437C114.593 64.6122 115.173 64.4546 115.752 64.2964C116.331 64.1388 116.91 63.9544 117.489 63.77C116.357 64.165 115.199 64.5331 114.015 64.8228C113.435 64.9542 112.831 65.0595 112.225 65.1125C111.935 65.1386 111.62 65.1386 111.33 65.0857C111.04 65.0595 110.724 64.9542 110.488 64.7705C110.251 64.5599 110.146 64.2441 110.172 63.9544C110.172 63.6386 110.277 63.3489 110.382 63.086C110.619 62.5335 110.935 62.0071 111.278 61.5069C111.988 60.5594 112.778 59.6387 113.62 58.7703Z" fill="white"/>
<path d="M108.671 60.5594C108.171 61.1126 107.671 61.6651 107.197 62.27C106.723 62.8493 106.25 63.428 105.855 64.0597C105.434 64.6652 105.039 65.323 104.775 66.007C104.644 66.349 104.538 66.7178 104.538 67.0597C104.512 67.4017 104.644 67.7437 104.907 67.9805C105.17 68.191 105.512 68.3231 105.881 68.3492C106.25 68.4016 106.618 68.4016 106.987 68.3754C107.724 68.3231 108.46 68.191 109.197 68.0334C109.934 67.8752 110.645 67.6646 111.355 67.4541C112.066 67.2435 112.803 67.0336 113.514 66.7963C112.093 67.2965 110.671 67.7699 109.224 68.0857C108.487 68.244 107.75 68.4016 107.013 68.4545C106.644 68.4807 106.25 68.4807 105.881 68.4277C105.513 68.3754 105.144 68.2701 104.828 68.0334C104.538 67.7967 104.407 67.4017 104.433 67.0068C104.433 66.6386 104.565 66.2699 104.697 65.9279C104.986 65.2439 105.381 64.5861 105.802 63.9806C106.644 62.7702 107.618 61.6383 108.671 60.5594Z" fill="white"/>
<mask id="mask15_838_3808" style="mask-type:luminance" maskUnits="userSpaceOnUse" x="100" y="70" width="32" height="18">
<path d="M100.343 70.8016H131.521V87.7028H100.343V70.8016Z" fill="white"/>
</mask>
<g mask="url(#mask15_838_3808)">
<path d="M100.434 71.2433C100.434 71.2433 105.883 91.5324 131.466 86.8747C131.492 86.8747 124.939 68.1903 100.434 71.2433Z" fill="#4C853D"/>
</g>
<path d="M100.696 71.8222L104.407 73.6381L108.118 75.4801C110.592 76.7173 113.04 77.9538 115.514 79.1642C117.988 80.4013 120.463 81.6117 122.936 82.8221C124.174 83.4276 125.437 84.0063 126.674 84.5588C127.306 84.8485 127.937 85.112 128.569 85.3749C129.201 85.6378 129.859 85.8751 130.517 86.0065V86.0327C129.833 85.9274 129.174 85.6645 128.543 85.454C127.885 85.2172 127.253 84.9538 126.622 84.6909C125.358 84.1645 124.095 83.5852 122.831 83.0065C120.331 81.8484 117.857 80.638 115.383 79.4015C110.461 76.954 105.565 74.4274 100.696 71.8222Z" fill="white"/>
<path d="M127.438 83.0594C127.069 83.0071 126.727 82.9548 126.358 82.9018C125.99 82.8495 125.648 82.8227 125.279 82.8227C124.911 82.8227 124.569 82.8227 124.227 82.8757C123.885 82.928 123.542 83.0862 123.49 83.3753C123.463 83.6649 123.647 84.0069 123.832 84.2966C124.016 84.5862 124.279 84.8491 124.516 85.1126C124.753 85.3755 125.016 85.6384 125.279 85.8757C125.542 86.1386 125.806 86.3753 126.069 86.6121C125.516 86.1648 124.964 85.6913 124.437 85.165C124.174 84.9021 123.937 84.6386 123.726 84.3489C123.516 84.0599 123.305 83.7179 123.358 83.3491C123.384 83.1647 123.516 83.0071 123.674 82.928C123.832 82.8227 124.016 82.7965 124.201 82.7704C124.569 82.7174 124.937 82.7174 125.279 82.7442C126.016 82.7704 126.727 82.8757 127.438 83.0594Z" fill="white"/>
<path d="M125.332 81.2704C124.858 81.1913 124.384 81.1122 123.911 81.0599C123.437 81.0069 122.963 80.9546 122.489 80.9284C122.016 80.9284 121.542 80.9017 121.068 80.9808C120.831 81.0337 120.62 81.086 120.41 81.1913C120.226 81.2966 120.094 81.4548 120.042 81.6654C120.015 81.8753 120.068 82.0859 120.147 82.2964C120.226 82.507 120.358 82.7175 120.489 82.9019C120.752 83.2968 121.094 83.6388 121.41 83.9808C121.726 84.3228 122.094 84.6648 122.437 84.9807C122.779 85.3232 123.147 85.6385 123.516 85.9543C122.779 85.3494 122.042 84.7178 121.357 84.0338C121.015 83.6912 120.7 83.323 120.41 82.9281C120.278 82.7443 120.147 82.5337 120.042 82.2964C119.936 82.0859 119.884 81.823 119.91 81.5863C119.936 81.3495 120.12 81.139 120.331 81.0337C120.541 80.9017 120.779 80.8493 121.015 80.8232C121.489 80.744 121.989 80.744 122.463 80.7702C123.437 80.8755 124.384 81.0337 125.332 81.2704Z" fill="white"/>
<path d="M121.568 78.7969C120.989 78.6916 120.383 78.5863 119.778 78.5072C119.172 78.4281 118.594 78.3496 117.988 78.3229C117.383 78.2967 116.777 78.2967 116.198 78.402C115.909 78.4549 115.619 78.5334 115.382 78.6654C115.146 78.7969 114.961 79.0336 114.909 79.2971C114.856 79.56 114.935 79.8497 115.067 80.1125C115.172 80.376 115.33 80.6389 115.514 80.8756C115.856 81.3759 116.251 81.8231 116.672 82.2442C117.093 82.6653 117.515 83.0864 117.962 83.5075C118.409 83.9286 118.857 84.323 119.304 84.7179C118.357 83.9548 117.436 83.165 116.593 82.3233C116.172 81.9022 115.751 81.455 115.409 80.9548C115.225 80.718 115.067 80.4545 114.961 80.1655C114.83 79.902 114.751 79.5862 114.804 79.2703C114.856 78.9545 115.067 78.7178 115.33 78.5602C115.593 78.402 115.883 78.3229 116.198 78.2705C116.804 78.1652 117.409 78.1652 118.014 78.2176C119.199 78.3229 120.383 78.5072 121.568 78.7969Z" fill="white"/>
<path d="M116.595 76.3227C116.015 76.2174 115.41 76.1122 114.805 76.0331C114.199 75.954 113.62 75.8754 113.015 75.8487C112.41 75.8225 111.804 75.8225 111.225 75.9278C110.935 75.9807 110.646 76.0592 110.409 76.1913C110.172 76.3227 109.988 76.5594 109.935 76.8229C109.882 77.0858 109.962 77.3755 110.093 77.6384C110.198 77.9019 110.356 78.1647 110.541 78.4015C110.883 78.9017 111.278 79.3489 111.699 79.7701C112.12 80.1912 112.541 80.6123 112.988 81.0334C113.436 81.4545 113.884 81.8488 114.331 82.2437C113.383 81.4806 112.462 80.6908 111.62 79.8492C111.199 79.4281 110.778 78.9808 110.436 78.4806C110.251 78.2438 110.093 77.9804 109.988 77.6913C109.856 77.4278 109.777 77.112 109.83 76.7962C109.882 76.4803 110.093 76.2436 110.356 76.086C110.619 75.9278 110.909 75.8487 111.225 75.7963C111.83 75.6911 112.436 75.6911 113.041 75.7434C114.226 75.8487 115.41 76.0592 116.595 76.3227Z" fill="white"/>
<path d="M112.488 73.0605C111.751 72.9023 111.014 72.797 110.277 72.6917C109.54 72.5865 108.803 72.5074 108.04 72.4812C107.303 72.455 106.539 72.455 105.829 72.5865C105.461 72.6656 105.119 72.7447 104.803 72.9285C104.487 73.0867 104.276 73.3757 104.223 73.7183C104.171 74.0603 104.276 74.4023 104.408 74.7443C104.565 75.0863 104.75 75.4022 104.96 75.6918C105.381 76.2973 105.882 76.8498 106.408 77.4024C106.934 77.9288 107.461 78.4552 108.04 78.9548C108.593 79.455 109.145 79.9552 109.725 80.4548C108.566 79.5073 107.408 78.5337 106.356 77.4815C105.829 76.9551 105.329 76.4026 104.881 75.7709C104.671 75.4551 104.46 75.1393 104.302 74.7973C104.144 74.4553 104.039 74.0865 104.092 73.6916C104.144 73.3234 104.408 72.9814 104.75 72.8232C105.066 72.6394 105.461 72.5341 105.829 72.4812C106.566 72.3497 107.329 72.3759 108.066 72.4021C109.54 72.4812 111.014 72.7179 112.488 73.0605Z" fill="white"/>
<mask id="mask16_838_3808" style="mask-type:luminance" maskUnits="userSpaceOnUse" x="94" y="33" width="15" height="36">
<path d="M94.8608 33.9801H108.108V68.67H94.8608V33.9801Z" fill="white"/>
</mask>
<g mask="url(#mask16_838_3808)">
<path d="M99.4865 68.5857C99.4865 68.5857 116.357 56.0858 102.619 33.9802C102.645 33.9802 87.6688 46.928 99.4865 68.5857Z" fill="#4C853D"/>
</g>
<path d="M99.9331 68.1383L100.275 64.0064L100.644 59.8751C100.881 57.1385 101.144 54.3751 101.355 51.638C101.618 48.9014 101.828 46.138 102.012 43.4015C102.118 42.0329 102.197 40.6381 102.249 39.2701C102.275 38.5855 102.302 37.9015 102.302 37.217C102.302 36.533 102.302 35.849 102.17 35.1644H102.197C102.354 35.849 102.354 36.533 102.381 37.217C102.407 37.9015 102.381 38.5855 102.381 39.2963C102.354 40.6643 102.275 42.059 102.197 43.4276C102.039 46.191 101.828 48.9276 101.591 51.6909C101.117 57.1646 100.565 62.6646 99.9331 68.1383Z" fill="white"/>
<path d="M98.7483 46.1658C98.8536 46.7706 98.985 47.35 99.1426 47.9287C99.2747 48.5074 99.4323 49.0867 99.6428 49.6654C99.8272 50.218 100.064 50.7973 100.38 51.2969C100.538 51.5336 100.722 51.7971 100.933 51.9547C101.143 52.1391 101.433 52.2182 101.67 52.1653C101.933 52.1129 102.169 51.9286 102.38 51.718C102.591 51.5075 102.775 51.2707 102.933 51.034C103.275 50.5338 103.539 50.0074 103.775 49.4549C104.012 48.9023 104.249 48.3498 104.459 47.7972C104.67 47.2447 104.88 46.6654 105.091 46.1128C104.723 47.2709 104.328 48.4021 103.854 49.5078C103.617 50.0604 103.354 50.6129 103.012 51.1131C102.854 51.376 102.67 51.6127 102.459 51.8233C102.249 52.0338 101.986 52.2182 101.696 52.2973C101.406 52.3758 101.064 52.2706 100.854 52.06C100.617 51.8762 100.433 51.6127 100.274 51.3498C99.9587 50.8235 99.7481 50.2709 99.5637 49.6916C99.1956 48.5342 98.9321 47.35 98.7483 46.1658Z" fill="white"/>
<path d="M98.3008 51.6914C98.4061 52.2969 98.5381 52.8756 98.6957 53.4543C98.8272 54.0337 98.9854 54.6124 99.1959 55.1911C99.3803 55.7442 99.617 56.323 99.9329 56.8232C100.091 57.0599 100.275 57.3228 100.485 57.481C100.696 57.6648 100.986 57.7439 101.222 57.6915C101.486 57.6386 101.723 57.4548 101.933 57.2443C102.144 57.0337 102.328 56.7964 102.486 56.5597C102.828 56.0601 103.091 55.5337 103.328 54.9811C103.565 54.428 103.802 53.8754 104.012 53.3229C104.223 52.7703 104.434 52.1916 104.644 51.6385C104.276 52.7965 103.881 53.9284 103.407 55.0335C103.17 55.586 102.907 56.1386 102.565 56.6388C102.407 56.9017 102.223 57.139 102.012 57.3496C101.802 57.5601 101.538 57.7439 101.249 57.823C100.959 57.9021 100.617 57.7968 100.407 57.5863C100.17 57.4019 99.9858 57.139 99.8276 56.8755C99.5118 56.3491 99.3012 55.7966 99.1168 55.2179C98.7219 54.086 98.459 52.9018 98.3008 51.6914Z" fill="white"/>
<path d="M96.7485 56.7181C96.88 57.455 97.0376 58.1913 97.222 58.9021C97.4064 59.639 97.5907 60.3492 97.8275 61.06C98.0642 61.7707 98.3538 62.4547 98.722 63.0864C98.9064 63.4022 99.1431 63.6913 99.4066 63.9018C99.6695 64.1391 100.038 64.2444 100.354 64.1653C100.696 64.0862 100.986 63.8756 101.249 63.6127C101.512 63.3493 101.723 63.0602 101.933 62.7444C102.354 62.1389 102.67 61.4549 102.986 60.7703C103.302 60.0863 103.565 59.4023 103.828 58.6915C104.092 58.0075 104.355 57.2968 104.592 56.586C104.144 58.0075 103.644 59.4285 103.039 60.7971C102.723 61.4811 102.407 62.1651 101.986 62.7967C101.776 63.1125 101.565 63.4022 101.302 63.6913C101.039 63.9547 100.723 64.1915 100.354 64.2967C99.9859 64.3758 99.591 64.2444 99.3013 64.0071C99.0117 63.7704 98.7749 63.4545 98.5906 63.1387C98.1956 62.4809 97.9327 61.7969 97.696 61.0861C97.3011 59.6652 96.9853 58.2181 96.7485 56.7181Z" fill="white"/>
<path d="M98.5906 69.6127C98.5906 69.6127 95.2218 48.8757 69.2698 50.9545C69.2698 50.9545 73.9287 70.2176 98.5906 69.6127Z" fill="#4C853D"/>
<path d="M98.4058 69.0337L94.9055 66.8497L91.4046 64.6389C89.0624 63.1656 86.7463 61.6656 84.4035 60.2179C82.0874 58.7446 79.7452 57.2707 77.3762 55.8498C76.192 55.1391 75.0072 54.4283 73.823 53.7443C73.2175 53.4023 72.6388 53.0603 72.0065 52.7445C71.4016 52.4287 70.77 52.1128 70.1116 51.9023V51.8761C70.77 52.0599 71.4016 52.3757 72.0333 52.6654C72.665 52.955 73.2704 53.297 73.8753 53.6129C75.0863 54.2707 76.2705 54.9547 77.4815 55.6654C79.8505 57.0864 82.1927 58.5341 84.5356 60.0073C89.1939 62.955 93.8266 65.9551 98.4058 69.0337Z" fill="white"/>
<path d="M72.9277 55.165C73.2703 55.2703 73.6385 55.3494 73.9805 55.4285C74.3231 55.507 74.6913 55.5861 75.0333 55.6123C75.3758 55.6652 75.744 55.6914 76.0866 55.6652C76.4286 55.639 76.7968 55.5338 76.8759 55.2441C76.9288 54.9544 76.7968 54.6124 76.613 54.2966C76.4548 53.9808 76.2181 53.6917 76.0075 53.4021C75.7969 53.1124 75.5602 52.8495 75.3229 52.5599C75.0862 52.2702 74.8495 52.0073 74.6121 51.7438C75.1124 52.244 75.6387 52.7704 76.0866 53.3491C76.2972 53.6388 76.5339 53.9284 76.7183 54.2443C76.8759 54.5601 77.0603 54.9021 77.0073 55.2703C76.955 55.4546 76.7968 55.5861 76.6392 55.6652C76.4809 55.7443 76.2972 55.7705 76.1128 55.7705C75.744 55.7966 75.3758 55.7443 75.0333 55.6914C74.2963 55.6123 73.6123 55.4017 72.9277 55.165Z" fill="white"/>
<path d="M74.8491 57.1651C75.3226 57.2965 75.7704 57.428 76.2439 57.5332C76.7179 57.6385 77.1914 57.7438 77.6654 57.7967C78.1388 57.8491 78.6129 57.902 79.0863 57.8752C79.3236 57.8491 79.5604 57.8229 79.7447 57.7176C79.9553 57.6385 80.0867 57.4809 80.1391 57.2704C80.192 57.0598 80.1658 56.8493 80.0867 56.6125C80.0076 56.402 79.9285 56.1914 79.7971 55.9809C79.5604 55.5598 79.2707 55.191 78.9811 54.7967C78.6914 54.4279 78.3756 54.0597 78.0597 53.6916C77.7439 53.3228 77.4281 52.9808 77.0861 52.6126C77.7707 53.2966 78.4285 53.9806 79.034 54.7437C79.3236 55.1125 79.6127 55.5068 79.85 55.9279C79.9815 56.1385 80.0867 56.349 80.1391 56.5858C80.2182 56.8231 80.2711 57.0598 80.192 57.2965C80.1391 57.5332 79.9285 57.7176 79.718 57.8229C79.5074 57.9282 79.2445 57.9543 79.0078 57.9805C78.5338 58.0073 78.0336 57.9543 77.5601 57.8752C76.6912 57.7176 75.7704 57.4809 74.8491 57.1651Z" fill="white"/>
<path d="M78.3237 60.0068C78.903 60.1912 79.4818 60.3226 80.0611 60.4541C80.6398 60.5861 81.2453 60.7176 81.8246 60.7967C82.4295 60.8752 83.0088 60.9281 83.6143 60.902C83.9034 60.8752 84.193 60.8229 84.4565 60.7176C84.7194 60.6123 84.9038 60.4018 84.9829 60.1383C85.062 59.8754 85.009 59.5857 84.9299 59.3228C84.8514 59.0332 84.7194 58.7703 84.5618 58.5068C84.2721 57.9804 83.9301 57.507 83.5614 57.0335C83.1932 56.5595 82.7983 56.1122 82.4033 55.6649C82.0084 55.2177 81.5873 54.7704 81.1923 54.3225C82.0613 55.1647 82.8774 56.0331 83.6405 56.9806C84.0086 57.4546 84.3774 57.9281 84.667 58.4544C84.8247 58.7173 84.9567 58.9808 85.0352 59.2699C85.1405 59.5595 85.1934 59.8754 85.1143 60.165C85.0352 60.4541 84.7985 60.6914 84.5088 60.8229C84.2192 60.9543 83.9301 60.9805 83.6143 61.0072C83.0088 61.0334 82.4033 60.9805 81.7978 60.8752C80.6398 60.6914 79.4818 60.3756 78.3237 60.0068Z" fill="white"/>
<path d="M83.0352 62.9546C83.6145 63.1384 84.1932 63.2704 84.7725 63.4019C85.3512 63.5333 85.9567 63.6648 86.536 63.7439C87.1409 63.823 87.7202 63.8753 88.3257 63.8492C88.6154 63.823 88.9044 63.77 89.1679 63.6648C89.4308 63.5595 89.6152 63.3489 89.6943 63.086C89.7734 62.8226 89.7205 62.5335 89.6414 62.27C89.5629 61.9809 89.4308 61.7175 89.2732 61.4546C88.9835 60.9282 88.6415 60.4542 88.2728 59.9807C87.9046 59.5073 87.5097 59.0594 87.1147 58.6121C86.7198 58.1648 86.2987 57.7176 85.9044 57.2703C86.7727 58.1125 87.5888 58.9809 88.3519 59.9284C88.7206 60.4018 89.0888 60.8753 89.3785 61.4016C89.5361 61.6651 89.6681 61.928 89.7466 62.2177C89.8519 62.5067 89.9049 62.8226 89.8257 63.1122C89.7466 63.4019 89.5099 63.6386 89.2203 63.77C88.9312 63.9015 88.6415 63.9283 88.3257 63.9544C87.7202 63.9806 87.1147 63.9283 86.5093 63.823C85.3512 63.6648 84.1932 63.3489 83.0352 62.9546Z" fill="white"/>
<path d="M86.7988 66.6121C87.5096 66.8226 88.2465 67.0332 88.9573 67.1908C89.6942 67.3752 90.405 67.5328 91.1419 67.638C91.8788 67.7433 92.6158 67.8224 93.3527 67.7695C93.7215 67.7433 94.0896 67.691 94.4055 67.5328C94.7213 67.4013 94.9848 67.1384 95.0633 66.7958C95.1424 66.4538 95.09 66.1118 94.9848 65.7437C94.8795 65.4011 94.7213 65.0591 94.5369 64.7433C94.1687 64.0854 93.7476 63.4805 93.2736 62.9012C92.8001 62.3225 92.3261 61.7432 91.8259 61.1906C91.3263 60.6381 90.8261 60.0855 90.2997 59.533C91.3525 60.5858 92.4052 61.6647 93.3527 62.8489C93.8267 63.4276 94.274 64.0331 94.6422 64.6909C94.8266 65.0067 94.9848 65.3487 95.1162 65.7169C95.2215 66.0589 95.3006 66.4538 95.2215 66.8226C95.1162 67.1908 94.8266 67.4804 94.4846 67.638C94.1426 67.7963 93.7476 67.8486 93.3789 67.8748C92.6158 67.9277 91.8788 67.8486 91.1419 67.7171C89.668 67.5066 88.2203 67.1117 86.7988 66.6121Z" fill="white"/>
<path d="M99.4858 71.954C99.4858 71.954 81.1143 61.7702 66.6909 83.4279C66.6909 83.4279 84.6937 91.6912 99.4858 71.954Z" fill="#4C853D"/>
<path d="M98.9056 71.7438L91.1152 74.5334C88.5094 75.4547 85.9037 76.3492 83.3241 77.2967C80.7184 78.1912 78.1389 79.1387 75.5331 80.1124C74.2437 80.5864 72.9542 81.086 71.6641 81.6124C71.0324 81.8753 70.3746 82.1388 69.7691 82.4017C69.1375 82.6913 68.5058 82.981 67.9533 83.3753L67.9265 83.3492C68.4797 82.9281 69.1113 82.639 69.7168 82.3232C70.3485 82.0335 70.9801 81.7439 71.6118 81.481C72.8751 80.9284 74.1646 80.4282 75.4546 79.928C78.0336 78.9282 80.6131 77.9807 83.2189 77.06C88.4042 75.2179 93.6418 73.4283 98.9056 71.7438Z" fill="white"/>
<path d="M72.2444 83.1916C72.5341 82.9811 72.8231 82.7444 73.0866 82.507C73.3763 82.2703 73.6392 82.0336 73.9027 81.7969C74.1656 81.5334 74.4023 81.2967 74.6128 81.007C74.7972 80.718 74.9554 80.376 74.771 80.1386C74.5867 79.9019 74.2185 79.8228 73.8759 79.7443C73.5339 79.6914 73.1657 79.6914 72.8231 79.6652C72.455 79.6652 72.1124 79.6652 71.7442 79.6914C71.3754 79.6914 71.0335 79.7175 70.6653 79.7443C71.3754 79.6652 72.1124 79.5861 72.8231 79.5861C73.1919 79.5861 73.5601 79.5861 73.9027 79.639C74.2447 79.6914 74.6396 79.7705 74.8763 80.0601C74.9816 80.2177 75.0078 80.4021 74.9554 80.5859C74.9025 80.7703 74.8234 80.9285 74.7181 81.0861C74.5076 81.3758 74.2447 81.6387 73.9812 81.9022C73.4286 82.3756 72.8499 82.7967 72.2444 83.1916Z" fill="white"/>
<path d="M75.0072 82.9021C75.4021 82.6125 75.7709 82.3234 76.139 82.0338C76.5078 81.7441 76.876 81.4283 77.218 81.0863C77.5606 80.7443 77.9026 80.4023 78.1655 80.0335C78.2975 79.8497 78.4028 79.6392 78.4551 79.4286C78.508 79.2181 78.4819 79.0075 78.3498 78.8493C78.2184 78.6917 78.034 78.5602 77.7973 78.4811C77.5867 78.402 77.35 78.3497 77.1127 78.3229C76.6393 78.2444 76.1652 78.2444 75.6918 78.2177C75.2177 78.2177 74.7443 78.2177 74.2441 78.2444C73.77 78.2706 73.2966 78.2968 72.7964 78.3497C73.7439 78.2444 74.7175 78.1391 75.6656 78.1391C76.139 78.1391 76.6393 78.1391 77.1127 78.2177C77.35 78.2444 77.5867 78.2968 77.8235 78.3759C78.0602 78.455 78.2707 78.5864 78.4289 78.7708C78.5872 78.9546 78.6133 79.2442 78.5342 79.481C78.4813 79.7177 78.3498 79.9282 78.2184 80.1388C77.9549 80.5337 77.6129 80.8757 77.2447 81.2177C76.5863 81.797 75.797 82.3758 75.0072 82.9021Z" fill="white"/>
<path d="M79.377 81.9019C79.8772 81.5599 80.3507 81.1911 80.8247 80.823C81.2982 80.4542 81.7722 80.0599 82.1933 79.6649C82.6144 79.2438 83.0355 78.8227 83.3775 78.3225C83.5357 78.0858 83.6933 77.8229 83.7463 77.5332C83.8254 77.2704 83.7724 76.9807 83.6148 76.7701C83.4566 76.5596 83.1937 76.402 82.9302 76.3229C82.6673 76.2176 82.3777 76.1647 82.088 76.1123C81.5087 76.007 80.9038 75.9809 80.2983 75.9809C79.6928 75.9809 79.0874 76.007 78.4819 76.0594C77.877 76.0862 77.2715 76.1385 76.666 76.1914C77.8502 76.0332 79.0612 75.9279 80.2722 75.9018C80.877 75.9018 81.4825 75.9018 82.088 76.007C82.3777 76.0594 82.6935 76.1123 82.9564 76.2176C83.2461 76.3229 83.5095 76.4805 83.7201 76.7178C83.9039 76.9545 83.9568 77.2965 83.8515 77.5862C83.7724 77.8752 83.6148 78.1387 83.4566 78.4016C83.1146 78.9018 82.6935 79.3229 82.2462 79.744C81.3773 80.5333 80.4036 81.2702 79.377 81.9019Z" fill="white"/>
<path d="M84.6146 80.033C85.1148 79.691 85.5888 79.3228 86.0623 78.9541C86.5363 78.5859 87.0097 78.191 87.4308 77.7966C87.8519 77.3755 88.2731 76.9544 88.6156 76.4542C88.7733 76.2175 88.9315 75.954 88.9838 75.665C89.0629 75.4015 89.01 75.1124 88.8524 74.9019C88.6942 74.6913 88.4313 74.5331 88.1678 74.4546C87.9049 74.3493 87.6152 74.2964 87.3256 74.244C86.7468 74.1388 86.1414 74.112 85.5359 74.112C84.9304 74.112 84.3249 74.1388 83.72 74.1911C83.1145 74.2173 82.509 74.2702 81.9036 74.3225C83.0884 74.1649 84.2987 74.0596 85.5097 74.0335C86.1152 74.0335 86.7201 74.0335 87.3256 74.1388C87.6152 74.1911 87.9311 74.244 88.1945 74.3493C88.4836 74.4546 88.7471 74.6122 88.9576 74.8489C89.142 75.0856 89.1944 75.4282 89.0891 75.7173C89.01 76.007 88.8524 76.2698 88.6942 76.5333C88.3522 77.0329 87.9311 77.4541 87.4838 77.8752C86.6148 78.665 85.6412 79.3752 84.6146 80.033Z" fill="white"/>
<path d="M89.8263 79.3495C90.4318 78.9284 91.0373 78.4811 91.616 78.0077C92.1954 77.5598 92.7741 77.0602 93.3272 76.56C93.8798 76.0598 94.38 75.5073 94.8011 74.9024C95.0116 74.5865 95.196 74.2707 95.2745 73.9287C95.3798 73.5861 95.3275 73.2179 95.1169 72.9551C94.9064 72.6916 94.5905 72.5072 94.2485 72.3757C93.9059 72.2443 93.5378 72.1652 93.169 72.1129C92.4321 72.0076 91.6951 71.9814 90.932 71.9546C90.1951 71.9546 89.4314 71.9814 88.6945 72.0337C87.9576 72.0861 87.1945 72.139 86.4575 72.2181C87.9314 72.0337 89.4314 71.9023 90.932 71.8761C91.669 71.8761 92.4321 71.9023 93.169 72.0076C93.5378 72.0599 93.9059 72.139 94.2747 72.2705C94.6167 72.4019 94.9587 72.5863 95.196 72.876C95.4327 73.1918 95.4851 73.5861 95.3798 73.9549C95.2745 74.323 95.0907 74.665 94.8802 74.9547C94.4591 75.5602 93.9327 76.1127 93.3796 76.6129C92.3006 77.6389 91.0897 78.5335 89.8263 79.3495Z" fill="white"/>
<path d="M100.196 68.4286C100.196 68.4286 100.38 80.9285 84.8513 100.849L90.0889 102.113C90.0889 102.113 102.091 75.3233 101.011 69.3493" fill="#4C853D"/>
<path d="M102.986 70.8749C102.986 70.9856 102.98 71.0956 102.97 71.205C102.959 71.3151 102.943 71.4239 102.921 71.5322C102.899 71.6404 102.873 71.7475 102.841 71.8528C102.809 71.9586 102.772 72.0621 102.729 72.1638C102.687 72.2661 102.64 72.3655 102.588 72.463C102.536 72.5599 102.48 72.6545 102.418 72.7467C102.357 72.8383 102.291 72.9269 102.221 73.012C102.151 73.097 102.077 73.1791 101.999 73.257C101.921 73.3349 101.84 73.4087 101.754 73.4789C101.669 73.5491 101.58 73.6145 101.489 73.6758C101.397 73.737 101.302 73.7935 101.205 73.8459C101.108 73.8976 101.008 73.9446 100.906 73.9868C100.804 74.0291 100.701 74.0665 100.595 74.0986C100.489 74.1308 100.382 74.1575 100.274 74.1789C100.166 74.2003 100.057 74.2164 99.947 74.2271C99.8375 74.2378 99.7275 74.2438 99.6169 74.2438C99.5062 74.2438 99.3962 74.2378 99.2868 74.2271C99.1767 74.2164 99.0679 74.2003 98.9596 74.1789C98.8514 74.1575 98.7443 74.1308 98.6391 74.0986C98.5332 74.0665 98.4297 74.0291 98.3274 73.9868C98.2257 73.9446 98.1258 73.8976 98.0288 73.8459C97.9313 73.7935 97.8367 73.737 97.7451 73.6758C97.6535 73.6145 97.5649 73.5491 97.4798 73.4789C97.3942 73.4087 97.3127 73.3349 97.2348 73.257C97.1569 73.1791 97.0825 73.097 97.0123 73.012C96.9427 72.9269 96.8767 72.8383 96.8155 72.7467C96.7542 72.6545 96.6977 72.5599 96.646 72.463C96.5936 72.3655 96.5466 72.2661 96.5044 72.1638C96.4622 72.0621 96.4247 71.9586 96.3932 71.8528C96.3611 71.7475 96.3343 71.6404 96.3129 71.5322C96.2909 71.4239 96.2748 71.3151 96.2641 71.205C96.2534 71.0956 96.248 70.9856 96.248 70.8749C96.248 70.7649 96.2534 70.6549 96.2641 70.5448C96.2748 70.4354 96.2909 70.326 96.3129 70.2177C96.3343 70.1095 96.3611 70.003 96.3932 69.8971C96.4247 69.7918 96.4622 69.6878 96.5044 69.5861C96.5466 69.4843 96.5936 69.3844 96.646 69.2875C96.6977 69.1899 96.7542 69.0954 96.8155 69.0038C96.8767 68.9122 96.9427 68.8235 97.0123 68.7379C97.0825 68.6528 97.1569 68.5714 97.2348 68.4934C97.3127 68.4155 97.3942 68.3412 97.4798 68.271C97.5649 68.2014 97.6535 68.1354 97.7451 68.0741C97.8367 68.0129 97.9313 67.9564 98.0288 67.9046C98.1258 67.8523 98.2257 67.8053 98.3274 67.7631C98.4297 67.7208 98.5332 67.684 98.6391 67.6518C98.7443 67.6197 98.8514 67.5929 98.9596 67.5715C99.0679 67.5501 99.1767 67.5335 99.2868 67.5228C99.3962 67.5121 99.5062 67.5067 99.6169 67.5067C99.7275 67.5067 99.8375 67.5121 99.947 67.5228C100.057 67.5335 100.166 67.5501 100.274 67.5715C100.382 67.5929 100.489 67.6197 100.595 67.6518C100.701 67.684 100.804 67.7208 100.906 67.7631C101.008 67.8053 101.108 67.8523 101.205 67.9046C101.302 67.9564 101.397 68.0129 101.489 68.0741C101.58 68.1354 101.669 68.2014 101.754 68.271C101.84 68.3412 101.921 68.4155 101.999 68.4934C102.077 68.5714 102.151 68.6528 102.221 68.7379C102.291 68.8235 102.357 68.9122 102.418 69.0038C102.48 69.0954 102.536 69.1899 102.588 69.2875C102.64 69.3844 102.687 69.4843 102.729 69.5861C102.772 69.6878 102.809 69.7918 102.841 69.8971C102.873 70.003 102.899 70.1095 102.921 70.2177C102.943 70.326 102.959 70.4354 102.97 70.5448C102.98 70.6549 102.986 70.7649 102.986 70.8749Z" fill="#4C853D"/>
<path d="M49.8983 65.7959C49.8983 65.7959 62.1371 63.8224 60.9261 48.5592C60.9529 48.5592 49.5825 51.2696 49.8983 65.7959Z" fill="#4C853D"/>
<path d="M50.2405 65.6908C50.6616 64.9801 51.0827 64.2961 51.5038 63.5859L52.7933 61.5066L55.399 57.3752C56.2941 56.0067 57.1363 54.6381 58.0047 53.2433C58.4258 52.5593 58.8737 51.8753 59.268 51.1646C59.4786 50.8226 59.6891 50.4806 59.8735 50.1118C60.0579 49.7436 60.2684 49.4016 60.3999 49.0067H60.4267C60.3208 49.4016 60.137 49.7698 59.9526 50.1386C59.7682 50.5067 59.5839 50.8749 59.3733 51.2175C58.979 51.9277 58.584 52.6384 58.1629 53.3224C57.3207 54.7172 56.4785 56.1119 55.6095 57.4805C53.846 60.27 52.0831 62.9804 50.2405 65.6908Z" fill="white"/>
<path d="M58.4533 50.6921C58.4003 50.9026 58.348 51.1132 58.3212 51.3237C58.2689 51.5337 58.2427 51.7443 58.216 51.9548C58.1898 52.1654 58.1636 52.3759 58.1898 52.5603C58.216 52.7447 58.2689 52.9552 58.4003 52.9814C58.5318 53.0076 58.7423 52.9285 58.9267 52.8499C59.1111 52.7447 59.2687 52.6394 59.4531 52.5079C59.6113 52.3759 59.7951 52.2445 59.9533 52.113C60.1109 51.9816 60.2953 51.8495 60.4535 51.7181C60.1639 52.0077 59.848 52.3236 59.506 52.5865C59.3478 52.7185 59.1634 52.8499 58.9797 52.9552C58.7953 53.0605 58.5847 53.1658 58.3742 53.1128C58.2689 53.0867 58.1898 52.9814 58.1375 52.9023C58.0845 52.797 58.0845 52.6917 58.0583 52.5865C58.0583 52.3759 58.0583 52.1654 58.1107 51.9548C58.1898 51.5075 58.2951 51.0864 58.4533 50.6921Z" fill="white"/>
<path d="M57.2674 51.823C57.1883 52.0865 57.136 52.3756 57.0831 52.6391C57.0307 52.902 56.9778 53.1916 56.9254 53.4813C56.8993 53.7703 56.8725 54.0338 56.8725 54.2967C56.8993 54.5602 56.9778 54.8231 57.1883 54.876C57.3989 54.9284 57.6624 54.8231 57.8991 54.6916C58.1364 54.5602 58.3731 54.402 58.5837 54.2176C58.8204 54.06 59.031 53.8756 59.2415 53.6918C59.4521 53.5074 59.6626 53.3231 59.8993 53.1387C59.505 53.5336 59.0839 53.9285 58.636 54.2967C58.4255 54.4811 58.1888 54.6387 57.9259 54.7708C57.6885 54.9022 57.3989 55.0336 57.1098 54.9813C56.9778 54.9545 56.8463 54.8231 56.794 54.6916C56.7411 54.5602 56.7149 54.402 56.7149 54.2705C56.6887 53.9809 56.7411 53.6918 56.7672 53.4283C56.9254 52.902 57.0831 52.3494 57.2674 51.823Z" fill="white"/>
<path d="M55.6095 53.875C55.5042 54.217 55.4257 54.5596 55.3466 54.9016C55.2675 55.2436 55.1884 55.5856 55.1622 55.9544C55.1099 56.2964 55.0831 56.6646 55.1099 57.0066C55.1361 57.3491 55.2413 57.6911 55.531 57.7697C55.8201 57.8226 56.1627 57.6911 56.4517 57.5329C56.7675 57.3753 57.031 57.1648 57.3207 56.9542C57.6103 56.7437 57.8732 56.5069 58.1367 56.2964C58.4258 56.0858 58.6631 55.8224 58.9522 55.5856C58.4526 56.0858 57.9262 56.5855 57.373 57.0333C57.0834 57.2439 56.8205 57.4806 56.5047 57.6382C56.1888 57.7964 55.8468 57.9802 55.4781 57.9017C55.2937 57.8488 55.1622 57.7173 55.0831 57.5329C55.0046 57.3753 54.9779 57.1909 54.9779 57.0066C54.9517 56.6384 55.0046 56.2964 55.057 55.9544C55.1884 55.2175 55.3728 54.5329 55.6095 53.875Z" fill="white"/>
<path d="M53.8456 56.6391C53.7403 56.9811 53.6618 57.3231 53.5827 57.6651C53.5036 58.0077 53.4245 58.3497 53.3983 58.7179C53.346 59.0599 53.3192 59.4286 53.346 59.7706C53.3722 60.1126 53.4774 60.4546 53.7671 60.5337C54.0561 60.5866 54.3987 60.4546 54.6884 60.297C55.0042 60.1388 55.2671 59.9288 55.5568 59.7183C55.8464 59.5077 56.1093 59.2704 56.3728 59.0599C56.6619 58.8493 56.8992 58.5864 57.1883 58.3497C56.6886 58.8493 56.1623 59.3495 55.6091 59.7968C55.3201 60.0073 55.0566 60.2441 54.7407 60.4023C54.4249 60.5599 54.0829 60.7443 53.7141 60.6652C53.5298 60.6128 53.3983 60.4814 53.3192 60.297C53.2407 60.1388 53.2139 59.955 53.2139 59.7706C53.1878 59.4024 53.2407 59.0599 53.293 58.7179C53.4245 58.0077 53.6089 57.3231 53.8456 56.6391Z" fill="white"/>
<path d="M51.6877 58.8487C51.5563 59.2698 51.451 59.6909 51.3719 60.1382C51.2666 60.5593 51.1875 61.0072 51.1346 61.4277C51.0822 61.8488 51.0293 62.2966 51.0561 62.7172C51.0822 62.9277 51.1084 63.1383 51.1875 63.3226C51.2666 63.507 51.3981 63.6385 51.5824 63.6908C51.7668 63.7437 51.9774 63.7176 52.1612 63.6385C52.3717 63.5855 52.5561 63.4809 52.7405 63.3756C53.1086 63.165 53.4774 62.9015 53.8194 62.6386C54.1614 62.3752 54.504 62.0861 54.846 61.7964C55.188 61.5068 55.5038 61.2171 55.8464 60.9281C55.2148 61.5597 54.5831 62.1646 53.8985 62.7172C53.5565 62.9806 53.1877 63.2435 52.8196 63.4809C52.6352 63.5855 52.4246 63.6908 52.2141 63.7437C52.0035 63.8229 51.7668 63.849 51.5563 63.7961C51.3457 63.7437 51.1613 63.5594 51.0822 63.3488C51.0031 63.1383 50.9508 62.9277 50.9508 62.691C50.924 62.2437 50.977 61.7964 51.0293 61.3753C51.1613 60.5331 51.3981 59.6909 51.6877 58.8487Z" fill="white"/>
<path d="M50.0298 66.6387C50.0298 66.6387 58.1099 76.0333 70.5068 67.0069C70.5068 67.0069 62.2685 58.7442 50.0298 66.6387Z" fill="#4C853D"/>
<path d="M50.3198 66.8493C51.1353 66.8231 51.9513 66.8493 52.7673 66.8231H55.2154L60.0843 66.8754C61.7164 66.9284 63.3217 66.9284 64.9538 66.9284C65.7698 66.9284 66.5858 66.9284 67.4013 66.9284C67.7962 66.9284 68.2173 66.9284 68.6122 66.9016C69.0072 66.8754 69.4283 66.8493 69.8232 66.7702V66.7963C69.4283 66.9016 69.0333 66.9546 68.6122 66.9807C68.2173 67.0337 67.7962 67.0337 67.4013 67.0598C66.5858 67.1122 65.7698 67.1122 64.9538 67.1389C63.3217 67.1651 61.6902 67.1651 60.0843 67.1389C56.8208 67.1122 53.5572 67.0069 50.3198 66.8493Z" fill="white"/>
<path d="M67.401 66.0075C67.1904 66.0598 67.0067 66.139 66.7961 66.2181C66.5856 66.2972 66.4012 66.3757 66.2168 66.4548C66.0324 66.5601 65.848 66.6392 65.6904 66.7444C65.5322 66.8497 65.4008 67.0073 65.4537 67.1394C65.506 67.2708 65.6642 67.4023 65.848 67.5075C66.0324 67.6128 66.2168 67.6919 66.4012 67.7704C66.5856 67.8495 66.7961 67.9286 67.0067 67.981C67.2172 68.0601 67.401 68.113 67.6115 68.1915C67.1904 68.0863 66.7961 67.981 66.375 67.8495C66.1639 67.7704 65.9801 67.6919 65.7957 67.5866C65.6113 67.4814 65.4269 67.3493 65.3484 67.1394C65.3216 67.0341 65.3484 66.9021 65.4008 66.8235C65.4537 66.7183 65.559 66.6653 65.6375 66.613C65.8219 66.481 66.0062 66.4024 66.2168 66.3233C66.5588 66.2181 66.9799 66.0866 67.401 66.0075Z" fill="white"/>
<path d="M65.8219 65.6123C65.559 65.6914 65.2694 65.7967 65.0059 65.8758C64.743 65.9811 64.4795 66.0596 64.2166 66.1916C63.9531 66.3231 63.7164 66.4283 63.4797 66.5859C63.2691 66.7442 63.0847 66.9547 63.1371 67.1653C63.2162 67.3758 63.4529 67.5334 63.6902 67.6916C63.9269 67.8231 64.1904 67.9284 64.4533 68.0336C64.7168 68.1389 64.9797 68.2442 65.2432 68.3233C65.5061 68.4286 65.7696 68.5071 66.0586 68.5862C65.5061 68.4547 64.9535 68.2965 64.4271 68.1127C64.1637 68.0075 63.9008 67.9022 63.6373 67.7701C63.4006 67.6387 63.1371 67.4543 63.0318 67.1914C62.9795 67.06 63.0318 66.9018 63.1109 66.7703C63.19 66.6389 63.2953 66.5598 63.4267 66.4807C63.664 66.3231 63.9269 66.1916 64.1904 66.0863C64.7168 65.8758 65.2432 65.7176 65.8219 65.6123Z" fill="white"/>
<path d="M63.1895 65.244C62.8475 65.3493 62.5049 65.4546 62.189 65.5598C61.847 65.6651 61.5312 65.7966 61.1892 65.9548C60.8734 66.1124 60.5576 66.2438 60.2679 66.4544C60.0044 66.6388 59.7415 66.9284 59.8468 67.1913C59.9521 67.4542 60.2417 67.6915 60.5314 67.8491C60.8205 68.0335 61.163 68.1388 61.4789 68.2964C61.7947 68.4285 62.1367 68.5331 62.4787 68.6384C62.8207 68.7705 63.1633 68.849 63.5053 68.9542C62.8207 68.7966 62.1367 68.6123 61.4521 68.3755C61.1101 68.2441 60.7943 68.1126 60.4785 67.9544C60.1888 67.77 59.8468 67.5863 59.7154 67.2175C59.6624 67.0337 59.7154 66.8493 59.8206 66.6911C59.9259 66.5335 60.0574 66.4282 60.215 66.3229C60.5046 66.1124 60.8205 65.9548 61.1631 65.8227C61.7947 65.6122 62.4787 65.4016 63.1895 65.244Z" fill="white"/>
<path d="M59.8994 65.2179C59.5574 65.3232 59.2154 65.4284 58.8996 65.5337C58.5576 65.639 58.2418 65.7704 57.8992 65.9281C57.5833 66.0863 57.2675 66.2177 56.9779 66.4283C56.715 66.6126 56.4515 66.9017 56.5568 67.1652C56.662 67.4281 56.9517 67.6648 57.2413 67.823C57.531 68.0074 57.873 68.1127 58.1888 68.2703C58.5047 68.4017 58.8467 68.507 59.1892 68.6123C59.5312 68.7437 59.8732 68.8228 60.2152 68.9281C59.5312 68.7705 58.8467 68.5861 58.1627 68.3494C57.8207 68.218 57.5048 68.0859 57.1884 67.9283C56.8993 67.7439 56.5568 67.5595 56.4253 67.1914C56.373 67.007 56.4253 66.8232 56.5306 66.665C56.6359 66.5074 56.7673 66.4021 56.9255 66.2968C57.2152 66.0863 57.531 65.9281 57.873 65.7966C58.5308 65.5599 59.2154 65.3493 59.8994 65.2179Z" fill="white"/>
<path d="M56.9 64.5075C56.4789 64.6128 56.0578 64.7442 55.6367 64.9024C55.2156 65.0339 54.7945 65.1915 54.3996 65.3759C54.0047 65.5602 53.6097 65.7446 53.2677 65.9813C53.1095 66.1128 52.9257 66.2442 52.8204 66.4024C52.7152 66.5601 52.6622 66.7444 52.7152 66.9288C52.7675 67.1126 52.899 67.2708 53.0572 67.4023C53.2148 67.5337 53.3992 67.6652 53.5835 67.7704C53.9517 67.981 54.3734 68.1392 54.7678 68.2968C55.1889 68.455 55.5838 68.5865 56.0049 68.7179C56.426 68.8494 56.8471 68.9814 57.2682 69.1129C56.3998 68.9023 55.5576 68.6918 54.7154 68.3759C54.2943 68.2183 53.8994 68.0601 53.5044 67.8495C53.3201 67.7443 53.1363 67.6128 52.9519 67.4814C52.7937 67.3493 52.6361 67.1656 52.557 66.955C52.4779 66.7444 52.557 66.5077 52.6884 66.3233C52.8204 66.139 52.9781 66.0075 53.1624 65.8761C53.5306 65.6126 53.9255 65.4288 54.3466 65.2706C55.1627 64.9548 56.0311 64.718 56.9 64.5075Z" fill="white"/>
<path d="M48.8456 65.4544C48.8456 65.4544 54.6096 54.5069 41.6862 46.2704C41.6862 46.2704 37.0273 56.9806 48.8456 65.4544Z" fill="#4C853D"/>
<path d="M48.9508 65.1127C48.635 64.3496 48.3453 63.6126 48.0295 62.8495L47.1344 60.5864L45.3976 56.0334C44.8445 54.5072 44.239 52.981 43.6603 51.4809C43.3706 50.7178 43.0809 49.9547 42.7651 49.2178C42.6075 48.8496 42.4493 48.4547 42.2917 48.0859C42.1073 47.7178 41.9491 47.3496 41.7385 47.007L41.7653 46.9808C42.0282 47.2967 42.2126 47.6654 42.3969 48.0336C42.5813 48.4017 42.7651 48.7705 42.9233 49.1387C43.2653 49.8756 43.5812 50.6387 43.897 51.3756C44.5025 52.8757 45.1079 54.4019 45.6867 55.9281C46.8185 58.9811 47.9242 62.0335 48.9508 65.1127Z" fill="white"/>
<path d="M41.897 49.5329C42.0284 49.6905 42.1866 49.8488 42.3181 50.0064C42.4495 50.1646 42.6077 50.3222 42.7653 50.4536C42.9236 50.5857 43.0812 50.7433 43.2394 50.8486C43.397 50.9539 43.6076 51.0068 43.7128 50.9277C43.8181 50.8224 43.8972 50.6119 43.9234 50.4275C43.9501 50.2169 43.9501 50.0064 43.9501 49.7958C43.9501 49.5853 43.9501 49.3747 43.9501 49.1642C43.9501 48.9542 43.9234 48.7437 43.9234 48.5331C43.9763 48.9542 44.0287 49.3747 44.0554 49.7958C44.0554 50.0064 44.0554 50.2169 44.0287 50.4275C44.0025 50.638 43.9501 50.8747 43.7919 51.0068C43.7128 51.0853 43.5814 51.0853 43.4761 51.0591C43.3708 51.033 43.2656 50.98 43.1865 50.9277C43.0027 50.7962 42.8445 50.6642 42.713 50.5066C42.3972 50.2437 42.1337 49.9011 41.897 49.5329Z" fill="white"/>
<path d="M42.1077 51.1651C42.292 51.3756 42.4764 51.6123 42.6602 51.8229C42.8446 52.0334 43.029 52.244 43.2395 52.4284C43.4501 52.6127 43.6345 52.8227 43.8712 52.9547C44.0817 53.0862 44.3714 53.1915 44.529 53.06C44.6872 52.928 44.7657 52.6389 44.8187 52.3754C44.871 52.1125 44.8448 51.8229 44.871 51.5332C44.871 51.2442 44.871 50.9807 44.8448 50.6916C44.8448 50.4019 44.8187 50.1123 44.7925 49.8494C44.871 50.4019 44.9501 50.9807 44.9501 51.5332C44.9501 51.8229 44.9501 52.1125 44.9239 52.3754C44.871 52.6389 44.8187 52.9547 44.6081 53.1653C44.5028 53.2438 44.3446 53.2706 44.187 53.2438C44.0556 53.2176 43.9235 53.1385 43.7921 53.06C43.5554 52.9018 43.3448 52.718 43.1604 52.5075C42.7655 52.0864 42.4235 51.6385 42.1077 51.1651Z" fill="white"/>
<path d="M42.7388 53.7444C42.9493 54.0341 43.186 54.297 43.4234 54.5605C43.6601 54.8234 43.8968 55.0868 44.1335 55.3497C44.397 55.5865 44.6337 55.8232 44.9234 56.0076C45.213 56.1919 45.555 56.3234 45.7918 56.139C46.0023 55.9552 46.1076 55.5865 46.1605 55.2445C46.2129 54.9025 46.2129 54.5605 46.2129 54.1917C46.2129 53.8497 46.1867 53.4815 46.1605 53.1389C46.1605 52.7969 46.1076 52.4288 46.0814 52.0868C46.1867 52.7969 46.2658 53.5077 46.292 54.2179C46.292 54.5605 46.292 54.9286 46.2658 55.2968C46.2129 55.6394 46.1344 56.0076 45.8709 56.271C45.7133 56.3763 45.5289 56.4025 45.3445 56.3496C45.1601 56.3234 45.0025 56.2181 44.8705 56.139C44.5814 55.9285 44.3179 55.6917 44.055 55.4288C43.581 54.8763 43.1337 54.3231 42.7388 53.7444Z" fill="white"/>
<path d="M43.8967 56.7967C44.1073 57.0864 44.344 57.3499 44.5813 57.6128C44.818 57.8757 45.0548 58.1391 45.2921 58.402C45.555 58.6394 45.7917 58.8761 46.0814 59.0599C46.371 59.2442 46.713 59.3757 46.9497 59.1919C47.1603 59.0075 47.2656 58.6394 47.3185 58.2968C47.3708 57.9548 47.3708 57.6128 47.3708 57.2446C47.3708 56.902 47.3447 56.5338 47.3185 56.1918C47.3185 55.8498 47.2656 55.4811 47.2394 55.1391C47.3447 55.8498 47.4238 56.56 47.4499 57.2708C47.4499 57.6128 47.4499 57.9809 47.4238 58.3497C47.3708 58.6917 47.2923 59.0599 47.0288 59.3233C46.8712 59.4286 46.6868 59.4548 46.5025 59.4025C46.3181 59.3757 46.1605 59.2704 46.029 59.1919C45.7394 58.9814 45.4759 58.7446 45.213 58.4811C44.7389 57.9548 44.2917 57.376 43.8967 56.7967Z" fill="white"/>
<path d="M44.3711 59.8494C44.634 60.1914 44.9236 60.5334 45.2133 60.8754C45.503 61.2174 45.792 61.5332 46.1078 61.849C46.4237 62.1649 46.7395 62.4545 47.1083 62.6912C47.2926 62.7965 47.4764 62.9018 47.6608 62.9547C47.8452 63.0071 48.0557 62.9809 48.1872 62.8494C48.3192 62.7442 48.4245 62.5598 48.503 62.3492C48.5821 62.1387 48.6083 61.9281 48.6351 61.7176C48.6874 61.2965 48.6874 60.8492 48.6874 60.4019C48.6874 59.9547 48.6612 59.5336 48.6351 59.0863C48.6083 58.639 48.556 58.2179 48.5298 57.77C48.6612 58.639 48.7665 59.5336 48.7927 60.4019C48.7927 60.8492 48.7927 61.2965 48.7403 61.7176C48.7136 61.9281 48.6612 62.1649 48.6083 62.3754C48.5298 62.586 48.4245 62.7965 48.2663 62.928C48.0819 63.06 47.8452 63.1123 47.6346 63.0332C47.4241 62.9809 47.2135 62.8756 47.0292 62.7442C46.661 62.5069 46.3452 62.1916 46.0293 61.8758C45.3977 61.2965 44.8707 60.5863 44.3711 59.8494Z" fill="white"/>
<path d="M48.6344 66.2439C48.6344 66.2439 41.5542 56.0863 28.2888 63.7964C28.2888 63.7964 35.6843 72.8495 48.6344 66.2439Z" fill="#4C853D"/>
<path d="M48.3722 65.981C47.5562 65.9281 46.7401 65.8228 45.9508 65.7705L43.5295 65.507L38.6862 64.9545C37.0809 64.7439 35.4488 64.5863 33.8435 64.4019C33.0275 64.3228 32.2376 64.2175 31.4222 64.1652C31.0273 64.139 30.6061 64.0861 30.2112 64.0861C29.8163 64.0599 29.3952 64.0599 29.0002 64.0861V64.0599C29.3952 63.9808 29.8163 63.9808 30.2112 63.9808C30.6061 63.9808 31.0273 64.007 31.4222 64.007C32.2376 64.0599 33.0537 64.1122 33.8435 64.1914C35.475 64.3228 37.0809 64.5072 38.6862 64.6916C41.9498 65.0859 45.161 65.507 48.3722 65.981Z" fill="white"/>
<path d="M31.3159 65.1121C31.5265 65.0592 31.737 65.0069 31.9476 64.9539C32.1581 64.9016 32.3687 64.8487 32.5525 64.7701C32.7368 64.691 32.9474 64.6381 33.1318 64.5328C33.29 64.4275 33.4476 64.2961 33.4214 64.1647C33.3953 64.0332 33.2371 63.875 33.0788 63.7436C32.9212 63.6121 32.7368 63.533 32.5525 63.4277C32.3687 63.3224 32.1843 63.2433 31.9737 63.1381C31.7894 63.0328 31.5788 62.9543 31.3944 62.8752C31.7894 63.0066 32.2105 63.1648 32.5792 63.3486C32.763 63.4539 32.9736 63.533 33.1318 63.6644C33.29 63.7959 33.4738 63.9279 33.5529 64.1385C33.5791 64.2438 33.5267 64.349 33.4476 64.4543C33.3685 64.5328 33.29 64.5858 33.1847 64.6649C33.0003 64.7701 32.7898 64.8487 32.5792 64.9016C32.1581 64.9801 31.737 65.0592 31.3159 65.1121Z" fill="white"/>
<path d="M32.8428 65.6653C33.1324 65.6124 33.3959 65.56 33.6588 65.4809C33.9223 65.4018 34.2114 65.3495 34.4748 65.2442C34.7377 65.1389 35.0012 65.0598 35.2379 64.9284C35.4747 64.7969 35.6852 64.5864 35.6329 64.402C35.5799 64.1914 35.3694 63.9809 35.1327 63.8494C34.9221 63.6912 34.6592 63.5598 34.4219 63.4283C34.1852 63.2969 33.9223 63.1654 33.6588 63.0602C33.3959 62.9281 33.1324 62.8229 32.8689 62.7176C33.3959 62.902 33.9485 63.1125 34.4487 63.3492C34.7116 63.4813 34.9483 63.6127 35.1856 63.7703C35.4223 63.9285 35.6591 64.1123 35.7382 64.402C35.7643 64.5602 35.712 64.6916 35.6067 64.7969C35.5276 64.9022 35.3962 64.9807 35.2641 65.0598C35.0012 65.1913 34.7377 65.2965 34.4748 65.3756C33.9746 65.5071 33.3959 65.6124 32.8428 65.6653Z" fill="white"/>
<path d="M35.4224 66.297C35.7644 66.2441 36.1064 66.165 36.4751 66.0603C36.8171 65.9812 37.1597 65.9021 37.5017 65.7706C37.8437 65.6654 38.1595 65.5339 38.4754 65.3757C38.765 65.2181 39.0279 64.9546 38.9756 64.6655C38.8965 64.3759 38.6336 64.1392 38.3439 63.9286C38.0543 63.7181 37.7384 63.5598 37.4488 63.4022C37.1329 63.244 36.8171 63.0864 36.4751 62.955C36.1593 62.7967 35.8173 62.6653 35.5015 62.5339C36.1593 62.7706 36.8439 63.0073 37.4755 63.3231C37.7914 63.4813 38.1072 63.639 38.3963 63.8495C38.6859 64.0601 38.9756 64.2968 39.0808 64.6388C39.107 64.8232 39.0547 65.0075 38.9226 65.139C38.8174 65.2704 38.6597 65.3757 38.5015 65.481C38.1857 65.6654 37.8437 65.7706 37.5017 65.8759C36.8171 66.0865 36.1331 66.2179 35.4224 66.297Z" fill="white"/>
<path d="M38.6584 66.6645C39.0004 66.6121 39.3692 66.533 39.7112 66.4277C40.0532 66.3486 40.3958 66.2695 40.7378 66.1381C41.0798 66.0328 41.3956 65.9014 41.7114 65.7438C42.0011 65.5855 42.264 65.3227 42.2117 65.033C42.1326 64.7433 41.8697 64.5066 41.58 64.2961C41.2903 64.0855 40.9745 63.9279 40.6849 63.7697C40.369 63.6121 40.0532 63.4539 39.7112 63.3224C39.3954 63.1648 39.0534 63.0328 38.7376 62.9013C39.3954 63.138 40.08 63.3753 40.7116 63.6906C41.0275 63.8488 41.3433 64.0064 41.6323 64.217C41.922 64.4275 42.2117 64.6648 42.3169 65.0068C42.3431 65.1906 42.2908 65.375 42.1587 65.5064C42.0534 65.6385 41.8958 65.7438 41.7376 65.849C41.4218 66.0328 41.0798 66.1381 40.7378 66.2434C40.08 66.4539 39.3692 66.5854 38.6584 66.6645Z" fill="white"/>
<path d="M41.6069 67.6644C42.0542 67.5858 42.4759 67.5067 42.897 67.4015C43.3181 67.2962 43.7654 67.1909 44.1603 67.0595C44.5814 66.928 44.9758 66.7698 45.3707 66.5593C45.5551 66.454 45.7395 66.3225 45.8447 66.1643C45.9762 66.0067 46.0291 65.8223 46.0023 65.6385C45.9762 65.4542 45.8447 65.2698 45.7133 65.1383C45.5812 64.9801 45.3975 64.8487 45.2131 64.7172C44.8705 64.4543 44.4761 64.27 44.0812 64.0594C43.6863 63.8488 43.2913 63.6906 42.8702 63.5069C42.4759 63.3225 42.0542 63.1649 41.6599 63.0066C42.5021 63.2963 43.3181 63.6121 44.1336 63.9803C44.5285 64.1647 44.9234 64.3752 45.2922 64.6381C45.476 64.7702 45.6604 64.9016 45.7918 65.0592C45.95 65.2174 46.0815 65.4012 46.1344 65.6385C46.1867 65.8491 46.0815 66.0858 45.95 66.2696C45.7918 66.4278 45.608 66.5593 45.4236 66.6645C45.0287 66.8751 44.6076 67.0333 44.1865 67.1647C43.3443 67.4015 42.4759 67.5591 41.6069 67.6644Z" fill="white"/>
<path d="M49.7134 67.2441C49.7134 67.2441 37.3426 66.5339 35.2109 81.718C35.2109 81.718 46.871 81.5075 49.7134 67.2441Z" fill="#4C853D"/>
<path d="M49.3451 67.296C48.7925 67.9015 48.2132 68.4802 47.6607 69.059L45.9501 70.7963L42.5283 74.2698C41.3703 75.4011 40.2384 76.5853 39.1066 77.7433C38.5278 78.322 37.9747 78.9014 37.4222 79.5062C37.1325 79.7959 36.8696 80.0856 36.6061 80.4014C36.3432 80.7172 36.0797 81.0063 35.8692 81.3489H35.843C36.0274 80.9801 36.2903 80.6643 36.5538 80.3485C36.8167 80.0326 37.0802 79.7168 37.343 79.401C37.8694 78.7961 38.4226 78.1906 38.9751 77.5857C40.0808 76.4015 41.2121 75.2435 42.3707 74.0854C44.66 71.7961 46.9767 69.533 49.3451 67.296Z" fill="white"/>
<path d="M38.1063 80.1648C38.2116 79.9804 38.2901 79.7699 38.3692 79.5855C38.4483 79.4011 38.5274 79.1912 38.6059 79.0068C38.6588 78.7962 38.7379 78.6118 38.7641 78.4013C38.7903 78.2169 38.7641 78.007 38.6327 77.954C38.5006 77.9017 38.2901 77.9278 38.0795 77.9802C37.8957 78.0331 37.6852 78.1122 37.5008 78.1907C37.3164 78.2698 37.1059 78.3751 36.9215 78.4542C36.7377 78.5327 36.5533 78.638 36.3428 78.7433C36.7109 78.5066 37.0797 78.296 37.4479 78.1122C37.6323 78.007 37.8428 77.9278 38.0534 77.8749C38.2639 77.8226 38.4745 77.7696 38.685 77.8487C38.7903 77.9017 38.8432 78.007 38.8694 78.1122C38.8956 78.2169 38.8694 78.3222 38.8694 78.4275C38.8432 78.638 38.7641 78.8486 38.685 79.0329C38.5274 79.4279 38.3168 79.796 38.1063 80.1648Z" fill="white"/>
<path d="M39.4752 79.3231C39.6066 79.0596 39.738 78.8229 39.8433 78.56C39.9486 78.2965 40.0806 78.0336 40.1592 77.7701C40.2383 77.5072 40.3435 77.2438 40.3697 76.9809C40.3965 76.718 40.3697 76.4283 40.1859 76.3492C39.9754 76.2701 39.6857 76.2969 39.449 76.3754C39.1855 76.4545 38.922 76.5598 38.6591 76.665C38.3956 76.7703 38.1589 76.9018 37.896 77.0332C37.6325 77.1652 37.3958 77.2967 37.1323 77.4281C37.6064 77.1123 38.1066 76.8232 38.6062 76.5859C38.8697 76.4545 39.1326 76.3492 39.3961 76.2701C39.6595 76.1916 39.9754 76.1125 40.2383 76.2439C40.3697 76.323 40.4488 76.4545 40.475 76.5859C40.5017 76.718 40.5017 76.8756 40.475 77.007C40.4226 77.2967 40.3435 77.5596 40.2383 77.8231C40.0539 78.3227 39.791 78.8229 39.4752 79.3231Z" fill="white"/>
<path d="M41.5545 77.6645C41.7121 77.3487 41.8703 77.0328 42.028 76.7176C42.1862 76.4018 42.3176 76.0592 42.4491 75.7434C42.5543 75.4014 42.6864 75.0855 42.7387 74.7435C42.7917 74.4015 42.7649 74.0334 42.502 73.9013C42.2385 73.7699 41.8703 73.849 41.5545 73.9543C41.2119 74.0595 40.8961 74.191 40.5803 74.3492C40.2644 74.5068 39.9486 74.6644 39.6328 74.8226C39.317 74.9803 39.0011 75.1646 38.6853 75.3228C39.2908 74.9541 39.8963 74.5591 40.5279 74.2439C40.8438 74.0857 41.1596 73.9281 41.5016 73.849C41.8436 73.7437 42.2123 73.6646 42.5543 73.796C42.7126 73.8752 42.8178 74.0595 42.844 74.2172C42.8969 74.4015 42.8702 74.5859 42.844 74.7435C42.7917 75.0855 42.6596 75.4281 42.5543 75.7701C42.2647 76.4279 41.9489 77.0596 41.5545 77.6645Z" fill="white"/>
<path d="M43.8704 75.3489C44.0281 75.0331 44.1863 74.7172 44.3439 74.4014C44.5021 74.0856 44.6335 73.7436 44.765 73.4278C44.8703 73.0858 45.0023 72.7699 45.0546 72.4279C45.1076 72.0854 45.0808 71.7172 44.8179 71.5857C44.5544 71.4543 44.1863 71.5328 43.8704 71.6381C43.5284 71.7434 43.2126 71.8754 42.8968 72.033C42.581 72.1906 42.2651 72.3488 41.9487 72.5065C41.6329 72.6647 41.317 72.849 41.0012 73.0067C41.6067 72.6385 42.2122 72.2436 42.8438 71.9277C43.1597 71.7701 43.4755 71.6119 43.8175 71.5328C44.1601 71.4275 44.5283 71.349 44.8703 71.4805C45.0285 71.5596 45.1337 71.7434 45.1599 71.9016C45.2128 72.0854 45.1867 72.2697 45.1599 72.4279C45.1076 72.7699 44.9755 73.1119 44.8703 73.4539C44.5812 74.1118 44.2386 74.7434 43.8704 75.3489Z" fill="white"/>
<path d="M46.4765 73.6388C46.6871 73.2439 46.8976 72.8496 47.082 72.4546C47.2658 72.0597 47.4502 71.6654 47.6084 71.2443C47.766 70.8232 47.8974 70.4282 47.9504 69.9809C47.9765 69.7704 48.0027 69.5598 47.9504 69.3493C47.9242 69.1387 47.8189 68.9811 47.6345 68.902C47.4763 68.8229 47.2658 68.7967 47.0552 68.8229C46.8447 68.8491 46.6341 68.8758 46.4236 68.9544C46.0025 69.0864 45.6081 69.2702 45.2132 69.4284C44.8183 69.6128 44.4233 69.8227 44.0284 70.0333C43.6341 70.2438 43.2653 70.4544 42.8704 70.6917C43.6073 70.2177 44.371 69.7442 45.1603 69.3755C45.5552 69.1917 45.9501 69.0073 46.3974 68.8758C46.608 68.7967 46.8185 68.7706 47.0552 68.7438C47.2658 68.7176 47.5031 68.7438 47.7136 68.8229C47.9242 68.9282 48.0556 69.1387 48.0818 69.3493C48.1347 69.5598 48.108 69.7966 48.0818 70.0071C48.0027 70.4544 47.8713 70.8755 47.7136 71.2704C47.3449 72.1126 46.9238 72.9019 46.4765 73.6388Z" fill="white"/>
<path d="M49.188 65.1918C49.188 65.1918 52.4777 71.7974 49.3194 86.3498L52.4254 85.6658C52.4254 85.6658 51.9513 68.3762 49.872 65.4814" fill="#4C853D"/>
<path d="M51.5039 66.6392C51.5039 66.7706 51.4908 66.9003 51.4652 67.0294C51.4397 67.1578 51.4016 67.2833 51.3516 67.4047C51.3011 67.526 51.2398 67.6408 51.1667 67.7502C51.0941 67.8597 51.0108 67.9602 50.918 68.0536C50.8253 68.1464 50.7241 68.229 50.6147 68.3022C50.5059 68.3748 50.3905 68.4366 50.2691 68.4872C50.1478 68.5371 50.0229 68.5752 49.8938 68.6008C49.7648 68.6263 49.6351 68.6388 49.5037 68.6388C49.3722 68.6388 49.242 68.6263 49.1135 68.6008C48.9844 68.5752 48.8595 68.5371 48.7382 68.4866C48.6168 68.4366 48.5015 68.3748 48.392 68.3022C48.2832 68.229 48.1821 68.1464 48.0893 68.0536C47.9965 67.9602 47.9132 67.8597 47.8401 67.7502C47.7675 67.6408 47.7056 67.526 47.6557 67.4047C47.6051 67.2833 47.5671 67.1578 47.5415 67.0294C47.5159 66.9003 47.5034 66.7706 47.5034 66.6392C47.5034 66.5077 47.5159 66.3775 47.5415 66.249C47.5671 66.1199 47.6051 65.995 47.6557 65.8737C47.7056 65.7524 47.7675 65.637 47.8401 65.5281C47.9132 65.4187 47.9965 65.3176 48.0893 65.2248C48.1821 65.132 48.2832 65.0493 48.392 64.9762C48.5015 64.903 48.6168 64.8418 48.7382 64.7912C48.8595 64.7412 48.9844 64.7032 49.1135 64.6776C49.242 64.652 49.3722 64.6389 49.5037 64.6389C49.6351 64.6389 49.7648 64.652 49.8938 64.6776C50.0229 64.7032 50.1478 64.7412 50.2691 64.7912C50.3905 64.8418 50.5059 64.903 50.6147 64.9762C50.7241 65.0493 50.8253 65.132 50.918 65.2248C51.0108 65.3176 51.0941 65.4187 51.1667 65.5281C51.2398 65.637 51.3011 65.7524 51.3516 65.8737C51.4016 65.995 51.4397 66.1199 51.4652 66.249C51.4908 66.3775 51.5039 66.5077 51.5039 66.6392Z" fill="#4C853D"/>
<path d="M129.78 91.6913C129.754 95.4015 124.543 95.2701 121.963 95.2701C120.358 95.2701 118.805 94.9542 117.226 95.2701C114.883 95.7435 112.751 96.9545 110.487 97.6908C110.435 97.7176 110.382 97.7176 110.33 97.7437C109.461 98.0334 108.618 98.2701 107.75 98.4807C106.855 98.6912 105.934 98.875 105.039 99.007C103.644 99.2438 102.223 99.4014 100.801 99.5334C100.17 99.5858 99.5642 99.6649 98.9325 99.7172C97.8274 99.8493 96.7217 99.9807 95.6428 100.112C93.2476 100.428 90.8263 100.77 88.4311 101.06C87.0096 101.217 85.6148 101.375 84.2195 101.507C80.0346 101.954 75.8765 102.349 71.6911 102.665C67.4009 103.007 63.3213 103.48 59.1894 104.296C58.2681 104.481 57.373 104.691 56.4516 104.901C53.4516 105.612 50.3456 106.033 47.2659 106.138C44.8707 106.218 42.4232 106.033 40.1071 105.533C35.8693 104.586 32.0003 102.454 29.4475 98.5859C28.2104 96.7172 27.3682 94.5861 26.815 92.4014C26.815 92.4014 22.6301 91.1649 20.235 92.0071C19.9983 92.0856 19.7615 92.1909 19.5771 92.3229C19.5771 92.3229 21.5774 88.2701 19.5771 85.4283C19.5771 85.4283 19.5771 85.4283 19.6033 85.4283C19.6563 85.4544 19.8406 85.5597 20.1297 85.665C21.1831 86.0593 23.6306 86.5072 25.7623 83.8229C28.6053 80.2703 28.9211 68.5597 43.2916 70.0598C48.7403 70.6385 54.3723 71.3225 59.689 72.0332C60.8738 72.1914 62.0057 72.3491 63.1637 72.4805C65.2163 72.744 67.1904 73.0069 69.0853 73.2436C69.1906 73.2704 69.3227 73.2704 69.4279 73.2965C71.4282 73.5594 73.3231 73.7962 75.0337 74.0067C75.6392 74.0858 76.2447 74.1388 76.7972 74.2173C78.4031 74.4016 79.8508 74.5331 81.0874 74.6384C82.7724 74.7698 84.3777 75.1124 85.9568 75.5859C86.7199 75.8226 87.4569 76.0593 88.1944 76.349C89.1942 76.7177 90.1946 77.1382 91.1945 77.5861C93.1424 78.4545 95.0635 79.402 96.9852 80.2703C97.1958 80.3756 97.4325 80.4809 97.6431 80.5594C97.696 80.5862 97.7222 80.6123 97.7745 80.6123C97.8536 80.6385 97.9065 80.6647 97.985 80.6914C98.038 80.7176 98.1171 80.7438 98.1694 80.7699C98.1956 80.7699 98.1956 80.7699 98.2224 80.7961C98.7749 81.0334 99.3013 81.244 99.8538 81.4545C100.433 81.6651 101.012 81.8756 101.591 82.0856C106.25 83.6909 110.829 84.4808 115.83 85.2439C118.989 85.7964 129.806 86.7171 129.78 91.6913Z" fill="#B26249"/>
<path d="M19.3788 85.4699C19.449 85.4765 19.5185 85.4884 19.5875 85.5068C19.6565 85.5252 19.7243 85.549 19.7915 85.5788C19.8582 85.6085 19.9236 85.6436 19.9878 85.6846C20.0521 85.7263 20.1145 85.7727 20.1752 85.8244C20.2364 85.8761 20.2953 85.9332 20.3518 85.9957C20.4089 86.0581 20.4636 86.1254 20.516 86.1973C20.5683 86.2693 20.6183 86.346 20.6659 86.4275C20.7129 86.5084 20.7581 86.594 20.7997 86.6839C20.8419 86.7731 20.8806 86.8665 20.9169 86.9634C20.9531 87.0604 20.9865 87.1603 21.0162 87.2638C21.0459 87.3673 21.0727 87.4737 21.0965 87.5826C21.1197 87.692 21.1399 87.8032 21.1566 87.9162C21.1732 88.0298 21.1869 88.1452 21.1964 88.2618C21.2065 88.379 21.2131 88.4967 21.216 88.6157C21.219 88.7352 21.2184 88.8548 21.2143 88.9749C21.2101 89.0951 21.2024 89.2152 21.1917 89.3354C21.1804 89.4555 21.1661 89.5751 21.1482 89.694C21.1304 89.813 21.109 89.9308 21.0846 90.0473C21.0602 90.1639 21.0323 90.2787 21.0013 90.3917C20.9704 90.5053 20.9365 90.6159 20.899 90.7242C20.8621 90.833 20.8223 90.9389 20.7795 91.0418C20.7361 91.1447 20.6909 91.244 20.6427 91.3404C20.5945 91.4367 20.5433 91.5295 20.4904 91.6181C20.4375 91.7068 20.3816 91.7912 20.3245 91.8721C20.2668 91.9524 20.2073 92.0279 20.146 92.0993C20.0842 92.1707 20.0211 92.2367 19.9569 92.2986C19.8921 92.3598 19.826 92.4157 19.7588 92.4669C19.6916 92.518 19.6232 92.5632 19.5542 92.6031C19.4846 92.6435 19.4151 92.6774 19.3443 92.7066C19.2741 92.7351 19.2027 92.7577 19.1319 92.775C19.0606 92.7922 18.9892 92.8035 18.9184 92.8089C18.847 92.8142 18.7763 92.8136 18.7061 92.8071C18.6359 92.8006 18.5657 92.7887 18.4973 92.7702C18.4283 92.7518 18.3599 92.728 18.2933 92.6983C18.2261 92.6685 18.1607 92.6328 18.0964 92.5918C18.0328 92.5508 17.9697 92.5044 17.9091 92.4526C17.8484 92.4009 17.7895 92.3438 17.7324 92.2813C17.6759 92.2189 17.6212 92.1517 17.5689 92.0797C17.5165 92.0071 17.4666 91.931 17.419 91.8495C17.3714 91.768 17.3268 91.683 17.2851 91.5932C17.2429 91.5039 17.2037 91.4106 17.1674 91.3136C17.1317 91.2167 17.0984 91.1167 17.0686 91.0133C17.0383 90.9098 17.0121 90.8033 16.9884 90.6945C16.9652 90.585 16.9449 90.4738 16.9283 90.3608C16.911 90.2472 16.8979 90.1318 16.8878 90.0152C16.8783 89.898 16.8718 89.7803 16.8688 89.6613C16.8658 89.5418 16.8664 89.4222 16.8706 89.3021C16.8747 89.1819 16.8819 89.0618 16.8932 88.9416C16.9039 88.8215 16.9188 88.7019 16.9366 88.583C16.9545 88.464 16.9753 88.3463 17.0002 88.2297C17.0246 88.1131 17.0526 87.9983 17.0835 87.8853C17.1144 87.7717 17.1483 87.6611 17.1852 87.5528C17.2227 87.444 17.2625 87.3381 17.3054 87.2352C17.3482 87.1323 17.394 87.033 17.4422 86.9366C17.4903 86.8403 17.5409 86.7475 17.5944 86.6589C17.6474 86.5703 17.7027 86.4852 17.7604 86.4049C17.8181 86.3246 17.8775 86.2491 17.9388 86.1777C18.0001 86.1063 18.0631 86.0403 18.1279 85.9784C18.1928 85.9172 18.2582 85.8613 18.326 85.8101C18.3932 85.759 18.461 85.7138 18.5306 85.6739C18.5996 85.6335 18.6698 85.5996 18.74 85.5704C18.8108 85.5419 18.8815 85.5187 18.9529 85.502C19.0243 85.4848 19.0951 85.4735 19.1664 85.4681C19.2372 85.4628 19.308 85.4634 19.3788 85.4699Z" fill="white"/>
<path d="M47.6086 100.666C47.6086 100.666 87.8258 101.113 98.2487 97.0606C98.2487 97.0338 68.7173 104.271 47.6086 100.666Z" fill="#54210F" fill-opacity="0.4275"/>
<path d="M36.6064 94.4816C36.6064 94.4816 91.3267 95.0865 105.487 89.5604C105.487 89.5604 65.2956 99.376 36.6064 94.4816Z" fill="#54210F" fill-opacity="0.4275"/>
<path d="M34.948 89.4283C34.948 89.4283 96.3536 81.9543 111.883 90.4543C111.883 90.4543 75.5339 79.4283 34.948 89.4283Z" fill="#54210F" fill-opacity="0.4275"/>
<path d="M35.9482 79.6393C35.9482 79.6393 75.5867 73.2972 100.275 84.2441C100.275 84.2441 65.5319 73.1919 35.9482 79.6393Z" fill="#54210F" fill-opacity="0.4275"/>
<path d="M41.5286 77.323C41.5286 77.323 69.9019 72.7706 87.5627 80.6127C87.5627 80.6127 62.7164 72.6915 41.5286 77.323Z" fill="#54210F" fill-opacity="0.4275"/>
<path d="M38.291 70.6129C39.0547 71.8233 39.6864 73.0866 40.2651 74.4022C40.8182 75.7179 41.2655 77.0865 41.5813 78.4812C41.7389 79.192 41.871 79.876 41.9495 80.5862C42.0286 81.2969 42.0548 82.0077 42.0286 82.7446C42.0024 83.4548 41.8972 84.1655 41.7389 84.8757C41.5813 85.5865 41.3446 86.2443 41.055 86.9021H41.0288C41.2393 86.2181 41.4231 85.5335 41.5552 84.8495C41.6604 84.1394 41.7389 83.4548 41.7657 82.7446C41.7919 81.3231 41.6604 79.9283 41.397 78.5336C41.1073 77.1388 40.6862 75.797 40.1598 74.4552C39.6073 73.1389 39.0018 71.8495 38.291 70.6129Z" fill="#C38A65"/>
<path d="M62.4531 73.9551C62.9533 74.6129 63.4006 75.3498 63.7694 76.0868C64.1375 76.8499 64.4272 77.6391 64.6639 78.4284C64.9006 79.2445 65.0059 80.0867 65.0059 80.9289L64.9536 81.5605C64.9274 81.7711 64.8745 81.981 64.8483 82.1916L64.7954 82.5074L64.6901 82.7971C64.6116 83.0076 64.5586 83.192 64.4795 83.4026H64.4534C64.4795 83.192 64.5325 82.9814 64.5586 82.7971L64.6116 82.4812L64.6377 82.1654C64.6639 81.9549 64.6901 81.7443 64.6901 81.5605V80.955C64.6639 80.139 64.6116 79.2974 64.4272 78.5075C64.2428 77.6921 63.9532 76.9284 63.6112 76.1653C63.3215 75.376 62.9266 74.6391 62.4531 73.9551Z" fill="#C38A65"/>
<path d="M74.6655 74.8231C75.3763 76.586 75.8765 78.428 76.2976 80.2707C76.6919 82.1389 76.9554 84.0338 77.0345 85.9282C77.0869 86.8757 77.0869 87.8232 77.0345 88.7968C77.0078 89.2703 76.9554 89.7443 76.9293 90.2177C76.8501 90.6912 76.7972 91.1652 76.7187 91.6387C76.3761 93.5075 75.7712 95.3495 74.9022 97.0333H74.8761C75.613 95.2966 76.1656 93.4545 76.4552 91.5863C76.6134 90.665 76.7187 89.7175 76.7972 88.7707C76.8763 87.8232 76.8763 86.8757 76.8501 85.9282C76.7972 84.0338 76.5605 82.1389 76.1923 80.2968C75.7974 78.4548 75.3234 76.6128 74.6655 74.8231Z" fill="#C38A65"/>
<path d="M88.6409 77.3757C89.1143 78.1126 89.5354 78.9019 89.9303 79.7173C90.2991 80.5333 90.6149 81.3494 90.8517 82.2178C91.0884 83.0861 91.2466 83.9807 91.2204 84.8752C91.1937 85.7704 90.9308 86.6911 90.4306 87.428H90.4044C90.7726 86.6126 90.9569 85.7704 90.9569 84.902C90.9569 84.0336 90.8517 83.1646 90.6673 82.2963C90.4567 81.4547 90.1671 80.6125 89.8251 79.7964C89.4569 78.9542 89.062 78.1388 88.6409 77.3757Z" fill="#C38A65"/>
<path d="M100.564 90.3492C100.906 90.9808 101.196 91.6387 101.433 92.2965C101.67 92.9811 101.854 93.6651 101.986 94.3758C102.091 95.086 102.144 95.8229 101.959 96.5599C101.854 96.9019 101.749 97.2706 101.565 97.5859C101.38 97.9017 101.144 98.1913 100.854 98.4019L100.828 98.3757C101.275 97.8232 101.591 97.1653 101.696 96.4808C101.828 95.7968 101.854 95.086 101.775 94.402C101.696 93.6912 101.538 93.0072 101.328 92.3233C101.117 91.6648 100.854 90.9808 100.564 90.3492Z" fill="#C38A65"/>
<path d="M110.54 85.2963C110.934 85.9809 111.276 86.7172 111.566 87.4542C111.855 88.1911 112.093 88.9542 112.25 89.7441C112.408 90.5333 112.487 91.3494 112.355 92.1386C112.198 92.9279 111.803 93.7178 111.144 94.1912L111.118 94.1651C111.645 93.5857 111.987 92.8488 112.066 92.0857C112.171 91.3226 112.145 90.5333 112.013 89.7702C111.881 89.0071 111.671 88.244 111.408 87.5071C111.197 86.744 110.882 86.0071 110.54 85.2963Z" fill="#C38A65"/>
<path d="M121.831 86.9017C122.278 87.3757 122.62 87.9544 122.91 88.5331C123.199 89.1386 123.384 89.7703 123.462 90.4281C123.541 91.0859 123.541 91.7699 123.384 92.4016C123.305 92.7174 123.173 93.0332 123.068 93.3491C122.936 93.6649 122.752 93.9284 122.594 94.2174H122.568C122.62 94.0598 122.673 93.9016 122.725 93.7702C122.778 93.6125 122.857 93.4805 122.884 93.3229C122.963 93.0071 123.094 92.7174 123.12 92.4016C123.252 91.7699 123.305 91.1389 123.252 90.5072C123.199 89.8756 123.041 89.2439 122.804 88.6384C122.542 88.0068 122.199 87.428 121.831 86.9017Z" fill="#C38A65"/>
<path d="M40.0278 105.56C40.7386 104.665 41.3173 103.691 41.8437 102.665C42.3707 101.638 42.765 100.586 43.0547 99.4805C43.3181 98.3754 43.4496 97.2435 43.3705 96.1122C43.3443 95.5597 43.239 94.9804 43.1076 94.454L43.0023 94.0329C42.9756 93.9014 42.897 93.77 42.8703 93.6385C42.7918 93.3751 42.6597 93.1122 42.5545 92.8487H42.5812C42.8703 93.3489 43.1338 93.8753 43.2914 94.4278C43.4496 94.9804 43.581 95.5597 43.634 96.1384C43.7393 97.2964 43.5549 98.4545 43.2652 99.5596C42.9494 100.665 42.5021 101.744 41.9757 102.743C41.3964 103.744 40.7648 104.691 40.0278 105.56Z" fill="#C38A65"/>
<path d="M59.1101 104.348C59.5312 103.638 59.8732 102.901 60.2152 102.164C60.5578 101.427 60.8475 100.664 61.0842 99.8749C61.3209 99.0851 61.4791 98.2958 61.5844 97.5065C61.6629 96.7167 61.6629 95.9012 61.4 95.1114H61.4262C61.8211 95.8483 61.9002 96.7167 61.8473 97.5327C61.7949 98.3749 61.5576 99.1642 61.2947 99.954C61.0312 100.743 60.7154 101.48 60.3472 102.243C59.9785 102.927 59.5836 103.664 59.1101 104.348Z" fill="#C38A65"/>
<path d="M84.1663 101.533C84.7717 100.743 85.272 99.875 85.7192 99.0066C86.1665 98.1115 86.5085 97.1908 86.7458 96.2433C86.9825 95.2958 87.0878 94.296 87.0349 93.3223C87.0087 92.3487 86.772 91.375 86.43 90.4537H86.4562C86.6929 90.8748 86.9034 91.3488 87.0349 91.8223C87.1669 92.2957 87.2722 92.7959 87.2984 93.2961C87.3775 94.296 87.2193 95.322 86.9296 96.2694C86.6667 97.2431 86.2718 98.1644 85.7983 99.0328C85.3505 99.9273 84.7979 100.77 84.1663 101.533Z" fill="#C38A65"/>
<path d="M58.952 93.9018C67.8487 104.928 116.883 113.06 116.988 108.191C117.093 103.297 104.96 105.428 95.6166 92.2179C86.2726 79.0073 71.6125 73.4021 71.6125 73.4021C71.6125 73.4021 64.6375 71.3228 59.9525 78.9544C55.2674 86.586 58.952 93.9018 58.952 93.9018Z" fill="#673D22"/>
<path d="M71.4287 74.3495C71.4287 74.3495 86.0888 79.9279 95.4327 93.1647C104.776 106.402 116.883 104.244 116.805 109.139C116.726 114.033 67.6649 105.876 58.7688 94.8491" fill="#B26249"/>
<path d="M71.4244 74.3635C71.5237 74.4272 71.6207 74.495 71.7147 74.5664C71.8092 74.6383 71.9002 74.7139 71.9889 74.7936C72.0775 74.8727 72.1631 74.9565 72.2458 75.0434C72.3285 75.1308 72.4082 75.2218 72.4849 75.3164C72.5622 75.4115 72.6354 75.5097 72.7062 75.612C72.7769 75.7137 72.8442 75.8196 72.909 75.9284C72.9732 76.0373 73.0339 76.1503 73.0922 76.2656C73.1499 76.3816 73.2046 76.5006 73.2557 76.6231C73.3069 76.7456 73.3545 76.8705 73.3991 76.999C73.4437 77.1281 73.4847 77.2595 73.5222 77.3939C73.5597 77.5284 73.5942 77.6652 73.6245 77.8049C73.6554 77.9453 73.6822 78.0875 73.706 78.2332C73.7298 78.3783 73.75 78.5258 73.7661 78.6757C73.7827 78.8256 73.7958 78.9778 73.8053 79.1325C73.8148 79.2871 73.8208 79.4441 73.8232 79.6024C73.8255 79.7612 73.8243 79.9218 73.8196 80.0841C73.8142 80.2465 73.8059 80.4107 73.794 80.5766C73.7821 80.7425 73.7667 80.9097 73.7476 81.0786C73.7286 81.2475 73.706 81.4176 73.6798 81.5889C73.6536 81.7602 73.6239 81.9327 73.5912 82.1064C73.5579 82.2795 73.5216 82.4537 73.4812 82.6292C73.4413 82.8046 73.3979 82.9801 73.3509 83.1568C73.3045 83.3334 73.254 83.5106 73.2004 83.6879C73.1469 83.8651 73.0904 84.043 73.0297 84.2208C72.9697 84.3987 72.9066 84.5765 72.84 84.7543C72.7734 84.9322 72.7038 85.11 72.6312 85.2873C72.5581 85.4651 72.4825 85.6417 72.4034 85.8184C72.3243 85.995 72.2428 86.1711 72.1578 86.3466C72.0727 86.522 71.9853 86.6969 71.8949 86.8706C71.8045 87.0442 71.7111 87.2167 71.6147 87.3886C71.519 87.5599 71.4203 87.7306 71.3191 87.8995C71.218 88.0684 71.1139 88.2362 71.0081 88.4027C70.9016 88.5686 70.7928 88.7334 70.6821 88.8958C70.5709 89.0587 70.4579 89.2199 70.3419 89.3793C70.2265 89.5381 70.1088 89.6952 69.9892 89.8504C69.8697 90.0056 69.7477 90.1585 69.6246 90.309C69.5009 90.4594 69.3754 90.6075 69.2481 90.7533C69.1208 90.899 68.9918 91.0423 68.8615 91.1833C68.7307 91.3237 68.5986 91.4617 68.4654 91.5967C68.3316 91.7317 68.1966 91.8637 68.0603 91.9928C67.9241 92.1219 67.7867 92.2485 67.6482 92.3711C67.5096 92.4942 67.3704 92.6143 67.2294 92.7309C67.0891 92.8475 66.9475 92.9605 66.8054 93.0705C66.6632 93.1806 66.5199 93.287 66.3765 93.3899C66.2326 93.4922 66.0887 93.5916 65.9441 93.6873C65.7996 93.7831 65.6545 93.8747 65.5093 93.9633C65.3642 94.0513 65.2191 94.1358 65.0734 94.2161C64.9276 94.2964 64.7825 94.3731 64.6368 94.4457C64.4917 94.5182 64.346 94.5866 64.2014 94.6509C64.0563 94.7157 63.9118 94.7758 63.7672 94.8323C63.6227 94.8888 63.4794 94.9405 63.336 94.9887C63.1927 95.0369 63.0505 95.0803 62.9084 95.1201C62.7668 95.1594 62.6259 95.1945 62.4861 95.2254C62.3463 95.2563 62.2071 95.2831 62.0697 95.3051C61.9317 95.3277 61.7955 95.3456 61.6599 95.3592C61.5243 95.3729 61.3905 95.3818 61.2579 95.3866C61.1258 95.392 60.9944 95.392 60.8653 95.3884C60.7356 95.3842 60.6078 95.3765 60.4823 95.3634C60.3562 95.3509 60.2319 95.3343 60.1093 95.3128C59.9874 95.2914 59.8673 95.2659 59.7489 95.2361C59.6305 95.2064 59.5146 95.1719 59.4004 95.1338C59.2868 95.0952 59.1749 95.0523 59.0655 95.0053C58.9561 94.9584 58.849 94.9072 58.7443 94.8519C58.6402 94.7966 58.5379 94.7371 58.4386 94.6735C58.3393 94.6098 58.2423 94.5426 58.1484 94.4706C58.0544 94.3993 57.9628 94.3237 57.8742 94.244C57.7855 94.1643 57.6999 94.0811 57.6172 93.9936C57.5345 93.9068 57.4548 93.8158 57.3781 93.7206C57.3014 93.6261 57.2276 93.5273 57.1569 93.4256C57.0861 93.3233 57.0189 93.218 56.9546 93.1092C56.8898 92.9998 56.8291 92.8873 56.7714 92.7714C56.7132 92.656 56.659 92.5364 56.6079 92.4145C56.5561 92.292 56.5086 92.1665 56.4639 92.038C56.4199 91.9095 56.3789 91.7781 56.3408 91.6437C56.3034 91.5092 56.2695 91.3718 56.2385 91.2321C56.2082 91.0923 56.1808 90.9495 56.157 90.8044C56.1332 90.6593 56.1136 90.5118 56.097 90.3619C56.0803 90.2114 56.0672 90.0592 56.0577 89.9045C56.0482 89.7499 56.0422 89.5935 56.0399 89.4346C56.0375 89.2758 56.0393 89.1153 56.044 88.9529C56.0488 88.7905 56.0571 88.6263 56.069 88.4604C56.0809 88.2951 56.0964 88.1273 56.1154 87.9584C56.1344 87.7901 56.157 87.62 56.1832 87.4487C56.2094 87.2774 56.2391 87.1049 56.2718 86.9312C56.3051 86.7575 56.342 86.5833 56.3819 86.4084C56.4217 86.233 56.4651 86.0569 56.5121 85.8802C56.5591 85.7042 56.6091 85.5269 56.6626 85.3497C56.7161 85.1725 56.7732 84.9946 56.8333 84.8168C56.8934 84.6389 56.9564 84.4611 57.023 84.2833C57.0897 84.1054 57.1592 83.9276 57.2324 83.7498C57.305 83.5725 57.3811 83.3953 57.4596 83.2186C57.5387 83.042 57.6208 82.8659 57.7052 82.6904C57.7903 82.515 57.8777 82.3407 57.9681 82.167C58.0591 81.9934 58.1519 81.8209 58.2483 81.649C58.344 81.4771 58.4428 81.307 58.5439 81.1381C58.6456 80.9686 58.7491 80.8008 58.8556 80.6349C58.9614 80.4689 59.0703 80.3042 59.1815 80.1412C59.2921 79.9783 59.4057 79.8177 59.5211 79.6583C59.6365 79.4989 59.7543 79.3418 59.8738 79.1872C59.9934 79.032 60.1153 78.8791 60.239 78.7286C60.3621 78.5776 60.4876 78.4295 60.6149 78.2837C60.7422 78.138 60.8713 77.9947 61.0015 77.8543C61.1324 77.7139 61.2644 77.5759 61.3976 77.4409C61.5315 77.3059 61.6665 77.1739 61.8027 77.0442C61.9389 76.9151 62.0763 76.7891 62.2149 76.6659C62.3534 76.5428 62.4932 76.4233 62.6336 76.3067C62.774 76.1901 62.9155 76.0765 63.0577 75.9671C63.1998 75.857 63.3432 75.7506 63.4865 75.6477C63.6304 75.5448 63.7744 75.4454 63.9189 75.3497C64.0634 75.2545 64.2086 75.1623 64.3537 75.0743C64.4988 74.9863 64.6445 74.9018 64.7897 74.8215C64.9354 74.7412 65.0805 74.6645 65.2262 74.5919C65.3719 74.5194 65.5171 74.451 65.6622 74.3861C65.8067 74.3219 65.9519 74.2612 66.0958 74.2047C66.2403 74.1488 66.3837 74.0965 66.527 74.0489C66.6703 74.0007 66.8125 73.9567 66.9547 73.9175C67.0962 73.8782 67.2372 73.8431 67.3769 73.8122C67.5167 73.7813 67.6559 73.7545 67.7933 73.7319C67.9313 73.7099 68.0681 73.692 68.2031 73.6784C68.3387 73.6647 68.4725 73.6552 68.6052 73.6504C68.7378 73.6456 68.8687 73.6451 68.9977 73.6492C69.1274 73.6528 69.2553 73.6611 69.3814 73.6736C69.5068 73.6861 69.6312 73.7033 69.7537 73.7248C69.8756 73.7456 69.9964 73.7711 70.1141 73.8015C70.2325 73.8312 70.3485 73.8651 70.4627 73.9038C70.5769 73.9424 70.6881 73.9853 70.7975 74.0323C70.907 74.0792 71.014 74.1304 71.1187 74.1857C71.2228 74.241 71.3251 74.3005 71.4244 74.3635Z" fill="#FEECE1"/>
<path d="M65.6687 83.3659C65.7139 83.3951 65.7538 83.4307 65.7889 83.4742C65.8234 83.517 65.8525 83.5664 65.8757 83.6223C65.8989 83.6776 65.9156 83.7383 65.9263 83.8043C65.937 83.8709 65.9411 83.9405 65.9387 84.0142C65.9364 84.0886 65.928 84.1647 65.9126 84.2438C65.8977 84.3229 65.8763 84.4026 65.8489 84.4841C65.8216 84.565 65.7883 84.6453 65.7496 84.725C65.7109 84.8053 65.6675 84.8826 65.6188 84.9587C65.5706 85.0343 65.5182 85.1062 65.4617 85.1752C65.4058 85.2436 65.3463 85.3073 65.2845 85.3662C65.2226 85.425 65.159 85.478 65.0936 85.525C65.0281 85.572 64.9627 85.6118 64.8961 85.6451C64.8301 85.6784 64.7647 85.704 64.7004 85.7218C64.6362 85.7397 64.5737 85.7504 64.5137 85.7522C64.4536 85.7546 64.3965 85.7492 64.3424 85.7355C64.2888 85.7218 64.2395 85.701 64.1943 85.6719C64.1491 85.6433 64.1092 85.607 64.0741 85.5642C64.0396 85.5208 64.0105 85.472 63.9873 85.4161C63.9641 85.3602 63.9474 85.2995 63.9367 85.2335C63.926 85.1675 63.9219 85.0973 63.9242 85.0236C63.9266 84.9498 63.9349 84.8731 63.9504 84.7946C63.9653 84.7155 63.9867 84.6352 64.014 84.5543C64.042 84.4734 64.0747 84.3931 64.1134 84.3128C64.152 84.2331 64.1955 84.1552 64.2442 84.0797C64.2924 84.0041 64.3447 83.9316 64.4012 83.8632C64.4572 83.7948 64.5166 83.7305 64.5785 83.6716C64.6403 83.6128 64.704 83.5598 64.7694 83.5134C64.8348 83.4664 64.9009 83.426 64.9669 83.3933C65.0329 83.36 65.0983 83.3344 65.1626 83.3166C65.2268 83.2981 65.2893 83.288 65.3493 83.2856C65.41 83.2832 65.4665 83.2892 65.5206 83.3023C65.5741 83.316 65.6235 83.3374 65.6687 83.3659Z" fill="#DDC8BF"/>
<path d="M67.6904 97.5855C67.6904 97.5855 86.2463 106.507 91.958 106.902C91.9312 106.902 76.6918 103.822 67.6904 97.5855Z" fill="#54210F" fill-opacity="0.4275"/>
<path d="M69.9548 91.4548C69.9548 91.4548 94.0904 105.638 101.802 106.797C101.776 106.823 81.4567 100.955 69.9548 91.4548Z" fill="#54210F" fill-opacity="0.4275"/>
<path d="M72.665 88.9284C72.665 88.9284 101.828 101.244 106.566 108.955C106.566 108.955 93.2212 94.797 72.665 88.9284Z" fill="#54210F" fill-opacity="0.4275"/>
<path d="M75.928 80.3496C75.928 80.3496 93.9575 90.1658 100.538 102.324C100.564 102.324 89.9303 87.0075 75.928 80.3496Z" fill="#54210F" fill-opacity="0.4275"/>
<path d="M78.9297 81.1645C78.9297 81.1645 91.853 88.1906 96.5643 96.9012C96.5643 96.9012 88.9577 85.9275 78.9297 81.1645Z" fill="#54210F" fill-opacity="0.4275"/>
<path d="M78.1134 79.7706C78.1925 80.4546 78.2187 81.1125 78.1657 81.797C78.1396 82.481 78.0343 83.1389 77.9028 83.8235C77.7446 84.4813 77.5341 85.1391 77.1921 85.744C76.8501 86.3495 76.4028 86.8759 75.8497 87.297L75.8235 87.2708C76.2708 86.7444 76.6657 86.218 76.9554 85.6126C77.245 85.0077 77.5079 84.4022 77.6923 83.7705C77.8499 83.1127 77.9819 82.4549 78.0343 81.797C78.1134 81.1392 78.1396 80.4546 78.1134 79.7706Z" fill="#C38A65"/>
<path d="M87.1941 85.9275C87.3517 86.7168 87.3785 87.5066 87.2465 88.3221C87.1941 88.717 87.0627 89.112 86.8783 89.4801L86.7201 89.7436C86.6677 89.8221 86.5886 89.9012 86.5363 89.9803C86.4043 90.1379 86.2466 90.2694 86.0884 90.4014L86.0623 90.3747C86.2728 90.0327 86.4834 89.7168 86.6416 89.3487C86.7992 89.0067 86.9574 88.6379 87.0359 88.2697C87.1412 87.901 87.1941 87.5066 87.1941 87.1117C87.2203 86.7168 87.2203 86.3224 87.1941 85.9275Z" fill="#C38A65"/>
<path d="M91.8001 92.5065C91.7477 93.4017 91.5895 94.2962 91.379 95.1646C91.1684 96.033 90.8787 96.9014 90.5106 97.7436C90.168 98.5858 89.7207 99.375 89.1682 100.112C88.6156 100.849 87.9572 101.481 87.2203 102.007L87.1941 101.98C87.8257 101.349 88.4574 100.717 88.9576 99.9538C89.4578 99.2174 89.9574 98.4805 90.3262 97.6645C90.695 96.849 91.0108 96.0068 91.2475 95.1384C91.4842 94.2962 91.6948 93.4017 91.8001 92.5065Z" fill="#C38A65"/>
<path d="M97.2221 96.5338C97.275 96.9549 97.3012 97.376 97.3012 97.7965C97.3012 98.2176 97.275 98.6387 97.1959 99.0598C97.1168 99.4809 97.0377 99.902 96.801 100.297C96.5904 100.665 96.2746 101.007 95.8797 101.192L95.8535 101.165C96.1432 100.876 96.3799 100.534 96.5643 100.165C96.7487 99.7968 96.8801 99.4286 96.9854 99.0075C97.0907 98.6126 97.143 98.1915 97.1698 97.7704C97.1959 97.376 97.2221 96.9549 97.2221 96.5338Z" fill="#C38A65"/>
<path d="M98.4321 105.139C98.4844 105.823 98.4321 106.507 98.2215 107.165C98.1162 107.507 98.011 107.849 97.7475 108.112C97.5108 108.376 97.1949 108.586 96.8262 108.638V108.612C97.1158 108.428 97.3526 108.217 97.5369 107.954C97.7213 107.691 97.8789 107.402 98.011 107.112C98.1424 106.796 98.2215 106.481 98.2739 106.139C98.353 105.823 98.4053 105.481 98.4321 105.139Z" fill="#C38A65"/>
<path d="M104.855 104.508C104.908 105.271 104.881 106.034 104.697 106.771C104.618 107.139 104.486 107.534 104.249 107.85C104.012 108.165 103.644 108.402 103.249 108.428V108.402C103.591 108.245 103.855 107.981 104.039 107.691C104.223 107.402 104.407 107.06 104.513 106.718C104.618 106.376 104.697 106.008 104.749 105.639C104.802 105.244 104.828 104.876 104.855 104.508Z" fill="#C38A65"/>
<path d="M111.329 106.008C111.514 106.612 111.514 107.27 111.329 107.876C111.224 108.192 111.092 108.481 110.882 108.718C110.671 108.955 110.408 109.139 110.119 109.271L110.092 109.244C110.197 109.113 110.303 109.008 110.408 108.902C110.513 108.77 110.618 108.665 110.698 108.56C110.882 108.323 111.04 108.086 111.172 107.797C111.277 107.534 111.355 107.218 111.382 106.928C111.382 106.639 111.355 106.323 111.329 106.008Z" fill="#C38A65"/>
<path d="M67.3223 99.7697C67.7957 99.533 68.2697 99.2172 68.6909 98.9014C69.112 98.5855 69.5069 98.2168 69.8489 97.7957C70.1909 97.3751 70.4544 96.9273 70.6649 96.4538C70.8755 95.9804 70.9808 95.454 71.0593 94.9276H71.086C71.1645 95.4802 71.1122 96.0327 70.9016 96.5591C70.6911 97.0855 70.3753 97.5328 70.0065 97.9539C69.6383 98.3488 69.2172 98.717 68.7694 99.0328C68.2959 99.3225 67.8219 99.5853 67.3223 99.7697Z" fill="#C38A65"/>
<path d="M74.7446 102.271C75.0605 102.06 75.3763 101.797 75.6659 101.56C75.955 101.297 76.2447 101.034 76.4814 100.771C76.7449 100.481 76.9554 100.165 77.166 99.8762C77.3765 99.5603 77.5609 99.2445 77.6394 98.8496H77.6662C77.7185 99.2445 77.5871 99.6656 77.3765 100.008C77.1921 100.376 76.9025 100.639 76.6134 100.929C76.0603 101.455 75.4286 101.903 74.7446 102.271Z" fill="#C38A65"/>
<path d="M87.0625 106.56C87.4836 106.349 87.8785 106.086 88.2205 105.797C88.5887 105.507 88.9313 105.191 89.2204 104.823C89.51 104.454 89.7467 104.06 89.9311 103.665C90.1417 103.244 90.2469 102.823 90.3261 102.349H90.3522C90.4052 102.823 90.3522 103.323 90.1678 103.77C89.9841 104.218 89.6944 104.612 89.3786 104.981C89.0627 105.323 88.694 105.638 88.2996 105.902C87.9047 106.165 87.5098 106.402 87.0625 106.56Z" fill="#C38A65"/>
</svg>
