<svg width="163" height="163" viewBox="0 0 163 163" fill="none" xmlns="http://www.w3.org/2000/svg">
<mask id="mask0_838_3406" style="mask-type:luminance" maskUnits="userSpaceOnUse" x="38" y="44" width="89" height="76">
<path d="M55.1675 44.1435L126.668 95.6804L109.717 119.198L38.2164 67.6608L55.1675 44.1435Z" fill="white"/>
</mask>
<g mask="url(#mask0_838_3406)">
<path d="M116.465 109.785C114.714 112.179 111.399 109.66 109.727 108.455C108.687 107.705 107.828 106.775 106.658 106.242C104.919 105.456 102.972 105.245 101.161 104.665C101.114 104.658 101.08 104.633 101.034 104.626C100.336 104.408 99.6793 104.168 99.0179 103.899C98.34 103.617 97.6567 103.307 97.0155 102.974C96.0011 102.476 95.0063 101.915 94.0241 101.336C93.5902 101.075 93.1612 100.844 92.7269 100.583C91.9494 100.152 91.1716 99.7213 90.411 99.3023C88.7115 98.3887 86.9827 97.4796 85.2954 96.5483C84.301 95.9873 83.3232 95.4383 82.3578 94.8722C79.4373 93.2078 76.558 91.5212 73.6994 89.7717C70.7595 87.9901 67.8949 86.392 64.8361 84.9907C64.1531 84.6801 63.4752 84.3986 62.7796 84.1049C60.5038 83.1641 58.2945 81.987 56.2503 80.6168C54.6611 79.5493 53.1611 78.2869 51.8941 76.8811C49.5914 74.2875 48.0805 71.0988 48.2346 67.3982C48.306 65.609 48.7567 63.8337 49.419 62.1594C49.419 62.1594 47.2856 59.4029 45.3403 58.8302C45.15 58.7709 44.9474 58.7287 44.7662 58.7279C44.7662 58.7279 47.9562 57.0344 47.9883 54.2577C47.9883 54.2577 47.9883 54.2577 48.0054 54.27C48.0273 54.3117 48.0975 54.4656 48.2358 54.6691C48.7335 55.4166 50.1105 56.8498 52.7461 56.1054C56.2482 55.1295 61.9257 47.6841 70.5361 55.3682C73.7954 58.288 77.1251 61.3623 80.2381 64.3058C80.9318 64.9615 81.5909 65.5924 82.2801 66.2184C83.4871 67.3479 84.6432 68.4402 85.7604 69.4791C85.8164 69.5454 85.9014 69.6067 85.9574 69.673C87.1306 70.7776 88.2478 71.8165 89.258 72.7517C89.6132 73.0856 89.9807 73.4024 90.3021 73.712C91.256 74.5812 92.1328 75.3424 92.8852 75.9886C93.915 76.8606 94.7954 77.832 95.5974 78.8768C95.9809 79.3868 96.3479 79.8844 96.69 80.4165C97.1658 81.1223 97.6171 81.8623 98.0564 82.6197C98.9125 84.0921 99.7142 85.6039 100.554 87.0643C100.641 87.2309 100.745 87.4096 100.845 87.5591C100.867 87.6008 100.871 87.6302 100.905 87.6548C100.944 87.7086 100.966 87.7503 101.005 87.8043C101.027 87.846 101.066 87.9 101.087 87.9417C101.104 87.9538 101.104 87.9538 101.109 87.9832C101.357 88.3948 101.599 88.7772 101.859 89.1721C102.136 89.5787 102.412 89.9857 102.69 90.3926C104.958 93.609 107.556 96.2596 110.44 99.0902C112.215 100.941 118.806 106.573 116.465 109.785Z" fill="#54210F"/>
</g>
<path d="M47.8268 54.1915C47.8694 54.2285 47.9088 54.269 47.9447 54.3128C47.9811 54.3569 48.0139 54.4042 48.0432 54.4547C48.0728 54.5049 48.0986 54.5587 48.1212 54.6154C48.1434 54.6718 48.1622 54.7314 48.1776 54.7933C48.1923 54.8552 48.2038 54.9201 48.2117 54.9868C48.2192 55.054 48.2233 55.1227 48.2235 55.1944C48.2237 55.2655 48.2201 55.3385 48.2131 55.413C48.2058 55.4879 48.1951 55.5644 48.1802 55.6419C48.1656 55.7197 48.1476 55.7984 48.1253 55.8781C48.1037 55.9577 48.0782 56.0379 48.0495 56.1194C48.0204 56.2005 47.988 56.2815 47.952 56.3634C47.9163 56.445 47.8776 56.5267 47.8351 56.608C47.7933 56.6892 47.7482 56.7703 47.6999 56.8509C47.6515 56.9308 47.6004 57.0105 47.5468 57.0889C47.4928 57.1677 47.4366 57.2449 47.3779 57.3208C47.3193 57.3973 47.2582 57.4716 47.1949 57.5442C47.1316 57.6168 47.066 57.6878 46.9991 57.7567C46.9318 57.8252 46.8631 57.8917 46.7927 57.9557C46.7227 58.0201 46.6509 58.0813 46.5777 58.1405C46.5048 58.1992 46.431 58.2551 46.3562 58.3085C46.2817 58.3615 46.206 58.4113 46.1304 58.4578C46.0545 58.5046 45.9784 58.5478 45.9021 58.588C45.8257 58.6275 45.7498 58.664 45.6737 58.6968C45.5976 58.7296 45.5225 58.7585 45.4475 58.7841C45.3725 58.809 45.2988 58.8303 45.2256 58.8479C45.1524 58.8655 45.0808 58.8791 45.0099 58.8886C44.9395 58.8984 44.8703 58.9039 44.8032 58.9057C44.7358 58.9073 44.6703 58.9045 44.6066 58.8984C44.5432 58.8919 44.4819 58.8818 44.4226 58.8673C44.3636 58.853 44.307 58.8347 44.2527 58.8124C44.1989 58.7903 44.1471 58.7645 44.0987 58.7348C44.0503 58.7051 44.0046 58.6716 43.9621 58.6346C43.9192 58.5973 43.8801 58.5571 43.8438 58.513C43.8075 58.4689 43.7747 58.4216 43.7454 58.3711C43.716 58.3205 43.6899 58.2671 43.6673 58.2104C43.6454 58.1537 43.6264 58.0944 43.6113 58.0322C43.5962 57.9706 43.5847 57.9057 43.5769 57.839C43.5694 57.7718 43.5655 57.7027 43.565 57.6314C43.5649 57.5603 43.5685 57.4874 43.5757 57.4124C43.5828 57.3379 43.5935 57.2614 43.6084 57.1839C43.6229 57.1061 43.641 57.0274 43.6632 56.9477C43.6851 56.8677 43.7107 56.7875 43.7397 56.7063C43.7682 56.6253 43.8009 56.5439 43.8366 56.4624C43.8723 56.3808 43.911 56.2991 43.9534 56.2178C43.9955 56.1362 44.0404 56.0555 44.0891 55.9752C44.1373 55.8947 44.1881 55.8153 44.2421 55.7365C44.2957 55.6581 44.3519 55.5809 44.4109 55.5047C44.4697 55.4288 44.5303 55.3542 44.5939 55.2812C44.6572 55.2086 44.7225 55.138 44.7894 55.0691C44.8568 55.0006 44.9254 54.9341 44.9961 54.8697C45.0665 54.8056 45.138 54.7441 45.2109 54.6853C45.2838 54.6266 45.3578 54.5703 45.4323 54.5173C45.5069 54.4643 45.5826 54.4145 45.6585 54.3677C45.7341 54.3212 45.8105 54.2776 45.8865 54.2378C45.9631 54.1979 46.039 54.1615 46.1148 54.129C46.191 54.0962 46.2663 54.0669 46.3414 54.042C46.4161 54.0168 46.49 53.9951 46.563 53.9779C46.6362 53.9603 46.7077 53.9467 46.7786 53.9372C46.8491 53.9274 46.9183 53.9219 46.9853 53.9201C47.0528 53.9185 47.1186 53.9209 47.182 53.9274C47.2454 53.9339 47.307 53.9443 47.366 53.9585C47.425 53.9728 47.4816 53.9911 47.5361 54.0131C47.59 54.0352 47.6415 54.0613 47.6899 54.091C47.7386 54.121 47.7839 54.1542 47.8268 54.1915Z" fill="#58332F"/>
<mask id="mask1_838_3406" style="mask-type:luminance" maskUnits="userSpaceOnUse" x="-1" y="0" width="164" height="163">
<path d="M162.542 68.0843L68.084 0L-0.000353283 94.458L94.4577 162.542L162.542 68.0843Z" fill="black" fill-opacity="0.4275"/>
</mask>
<g mask="url(#mask1_838_3406)">
<mask id="mask2_838_3406" style="mask-type:luminance" maskUnits="userSpaceOnUse" x="58" y="74" width="36" height="28">
<path d="M93.8426 98.4586L60.8018 74.6431L58.3502 78.0443L91.391 101.86L93.8426 98.4586Z" fill="white"/>
</mask>
<g mask="url(#mask2_838_3406)">
<mask id="mask3_838_3406" style="mask-type:luminance" maskUnits="userSpaceOnUse" x="58" y="74" width="36" height="28">
<path d="M60.6831 74.8516L93.6037 98.5803L91.4322 101.593L58.5117 77.8641L60.6831 74.8516Z" fill="white"/>
</mask>
<g mask="url(#mask3_838_3406)">
<path d="M59.0287 77.2295C59.0287 77.2295 84.8773 96.3016 93.5245 98.5416C93.5245 98.5416 71.0206 89.4253 59.0287 77.2295Z" fill="#54210F"/>
</g>
</g>
</g>
<mask id="mask4_838_3406" style="mask-type:luminance" maskUnits="userSpaceOnUse" x="-1" y="0" width="164" height="163">
<path d="M162.542 68.0843L68.084 0L-0.000353283 94.458L94.4577 162.542L162.542 68.0843Z" fill="black" fill-opacity="0.4275"/>
</mask>
<g mask="url(#mask4_838_3406)">
<mask id="mask5_838_3406" style="mask-type:luminance" maskUnits="userSpaceOnUse" x="53" y="64" width="49" height="38">
<path d="M101.843 96.9853L57.0437 64.6943L53.8916 69.0673L98.6912 101.358L101.843 96.9853Z" fill="white"/>
</mask>
<g mask="url(#mask5_838_3406)">
<mask id="mask6_838_3406" style="mask-type:luminance" maskUnits="userSpaceOnUse" x="54" y="64" width="48" height="38">
<path d="M57.0752 64.8602L101.743 97.0561L98.7307 101.235L54.0632 69.0389L57.0752 64.8602Z" fill="white"/>
</mask>
<g mask="url(#mask6_838_3406)">
<path d="M54.7813 68.0991C54.7813 68.0991 89.9528 94.0467 101.711 97.0769C101.711 97.0769 71.0821 84.6714 54.7813 68.0991Z" fill="#54210F"/>
</g>
</g>
</g>
<mask id="mask7_838_3406" style="mask-type:luminance" maskUnits="userSpaceOnUse" x="-1" y="0" width="164" height="163">
<path d="M162.542 68.0843L68.084 0L-0.000353283 94.458L94.4577 162.542L162.542 68.0843Z" fill="black" fill-opacity="0.4275"/>
</mask>
<g mask="url(#mask7_838_3406)">
<mask id="mask8_838_3406" style="mask-type:luminance" maskUnits="userSpaceOnUse" x="55" y="61" width="54" height="40">
<path d="M108.221 97.1513L58.1736 61.0778L55.5119 64.7706L105.559 100.844L108.221 97.1513Z" fill="white"/>
</mask>
<g mask="url(#mask8_838_3406)">
<mask id="mask9_838_3406" style="mask-type:luminance" maskUnits="userSpaceOnUse" x="55" y="61" width="53" height="40">
<path d="M58.0547 61.287L107.982 97.2737L105.474 100.753L55.547 64.7661L58.0547 61.287Z" fill="white"/>
</mask>
<g mask="url(#mask9_838_3406)">
<path d="M56.0773 64.0303C56.0773 64.0303 99.3563 87.8616 105.445 100.625C105.445 100.625 87.0471 76.5008 56.0773 64.0303Z" fill="#54210F"/>
</g>
</g>
</g>
<mask id="mask10_838_3406" style="mask-type:luminance" maskUnits="userSpaceOnUse" x="-1" y="0" width="164" height="163">
<path d="M162.542 68.0843L68.084 0L-0.000353283 94.458L94.4577 162.542L162.542 68.0843Z" fill="black" fill-opacity="0.4275"/>
</mask>
<g mask="url(#mask10_838_3406)">
<mask id="mask11_838_3406" style="mask-type:luminance" maskUnits="userSpaceOnUse" x="58" y="56" width="47" height="36">
<path d="M104.305 86.7984L62.2268 56.4687L58.7946 61.2304L100.873 91.5602L104.305 86.7984Z" fill="white"/>
</mask>
<g mask="url(#mask11_838_3406)">
<path d="M61.3002 58.148C61.3002 58.148 89.9466 72.5479 100.827 91.1759C100.827 91.1759 83.4814 67.784 61.3002 58.148Z" fill="#54210F"/>
</g>
</g>
<mask id="mask12_838_3406" style="mask-type:luminance" maskUnits="userSpaceOnUse" x="-1" y="0" width="164" height="163">
<path d="M162.542 68.0843L68.084 0L-0.000353283 94.458L94.4577 162.542L162.542 68.0843Z" fill="black" fill-opacity="0.4275"/>
</mask>
<g mask="url(#mask12_838_3406)">
<mask id="mask13_838_3406" style="mask-type:luminance" maskUnits="userSpaceOnUse" x="64" y="58" width="33" height="26">
<path d="M96.6502 79.8023L66.6218 58.1582L64.2403 61.4623L94.2686 83.1064L96.6502 79.8023Z" fill="white"/>
</mask>
<g mask="url(#mask13_838_3406)">
<mask id="mask14_838_3406" style="mask-type:luminance" maskUnits="userSpaceOnUse" x="64" y="58" width="33" height="25">
<path d="M66.7061 58.2467L96.5749 79.7759L94.2747 82.9673L64.4058 61.4381L66.7061 58.2467Z" fill="white"/>
</mask>
<g mask="url(#mask14_838_3406)">
<path d="M65.9955 59.2542C65.9955 59.2542 86.5071 69.5533 94.2851 82.8856C94.2851 82.8856 81.8759 66.1633 65.9955 59.2542Z" fill="#54210F"/>
</g>
</g>
</g>
<path d="M67.0249 53.4082C66.9537 54.5498 66.7727 55.6635 66.5333 56.7871C66.2762 57.8985 65.9268 58.9947 65.4796 60.0464C65.2496 60.5808 65.0151 61.0861 64.7345 61.5835C64.4536 62.0813 64.1388 62.5541 63.7772 63.0197C63.4282 63.4678 63.0277 63.8794 62.5931 64.2664C62.159 64.6533 61.6981 64.9694 61.2027 65.2606L61.1856 65.2483C61.6421 64.9031 62.0812 64.5452 62.4862 64.1634C62.8867 63.7518 63.2574 63.3447 63.6064 62.8966C64.2875 61.9876 64.8545 61.0217 65.3354 59.9943C65.7997 58.955 66.1539 57.8882 66.4404 56.772C66.6972 55.661 66.9072 54.5422 67.0249 53.4082Z" fill="#58332F"/>
<path d="M81.1306 66.8424C81.1473 67.5028 81.0924 68.1895 80.987 68.8391C80.869 69.5062 80.6876 70.1531 80.4723 70.776C80.2445 71.4153 79.9194 72.0104 79.5256 72.5567L79.1842 72.9584C79.0686 73.0827 78.9362 73.1944 78.8206 73.3187L78.639 73.4987L78.4356 73.6376C78.2861 73.737 78.1658 73.8319 78.016 73.9316L77.9989 73.9193C78.1145 73.795 78.2472 73.6829 78.3502 73.5761L78.5321 73.3957L78.6967 73.2034C78.8123 73.0791 78.9276 72.9551 79.0137 72.8355L79.2967 72.443C79.6607 71.9019 80.02 71.3314 80.2696 70.7331C80.5315 70.1184 80.7008 69.4883 80.8356 68.8338C81.0169 68.187 81.1055 67.5246 81.1306 66.8424Z" fill="#58332F"/>
<path d="M88.6245 73.1261C88.2611 74.601 87.7245 76.0289 87.136 77.42C86.5187 78.8157 85.8038 80.167 84.9693 81.4327C84.5608 82.0715 84.1181 82.6857 83.6289 83.2924C83.3904 83.5871 83.1349 83.8696 82.8965 84.1644C82.6243 84.4348 82.3687 84.7173 82.0961 84.9875C81.0013 86.039 79.7481 86.951 78.3983 87.637L78.3812 87.6247C79.6703 86.843 80.8894 85.907 81.9503 84.8305C82.4828 84.307 82.9939 83.742 83.4878 83.1647C83.9818 82.5875 84.4245 81.9733 84.8501 81.3468C85.7016 80.0933 86.4337 78.7544 87.0557 77.3881C87.6733 75.9919 88.2146 74.5934 88.6245 73.1261Z" fill="#58332F"/>
<path d="M96.4998 81.2915C96.4626 81.9904 96.3661 82.699 96.2408 83.4122C96.0984 84.1131 95.9216 84.7897 95.6696 85.4635C95.4172 86.137 95.1012 86.7906 94.6658 87.3587C94.231 87.9267 93.6298 88.4007 92.9615 88.6452L92.9444 88.6329C93.5646 88.2759 94.0772 87.8159 94.483 87.253C94.8891 86.6896 95.2269 86.0777 95.5131 85.4285C95.7705 84.7841 95.9761 84.1027 96.1355 83.4142C96.2909 82.6961 96.4039 82 96.4998 81.2915Z" fill="#58332F"/>
<path d="M98.1628 95.2719C98.0893 95.8413 97.9696 96.4027 97.8154 96.94C97.6489 97.4943 97.4489 98.0238 97.2021 98.5462C96.9382 99.0557 96.6278 99.5582 96.1644 99.9499C95.936 100.123 95.6956 100.312 95.4289 100.431C95.1616 100.55 94.8731 100.627 94.5871 100.628L94.5823 100.599C95.1306 100.449 95.6428 100.17 96.0303 99.7759C96.4356 99.3937 96.7848 98.9451 97.0531 98.4648C97.3341 97.967 97.5518 97.4497 97.7347 96.9078C97.906 96.3829 98.0431 95.8334 98.1628 95.2719Z" fill="#58332F"/>
<path d="M106.975 96.6722C106.912 97.3 106.789 97.9377 106.632 98.5504C106.475 99.1635 106.272 99.7689 106.005 100.355C105.739 100.94 105.409 101.506 104.955 101.956C104.483 102.395 103.858 102.722 103.211 102.722L103.206 102.692C103.818 102.563 104.384 102.245 104.792 101.787C105.216 101.341 105.568 100.817 105.84 100.261C106.111 99.7046 106.331 99.1118 106.505 98.511C106.725 97.9179 106.865 97.2924 106.975 96.6722Z" fill="#58332F"/>
<path d="M113.54 102.985C113.608 103.501 113.559 104.036 113.476 104.547C113.381 105.075 113.205 105.57 112.949 106.034C112.693 106.497 112.373 106.941 111.975 107.276C111.776 107.444 111.544 107.587 111.328 107.743C111.095 107.886 110.853 107.971 110.615 108.085L110.598 108.073C110.706 107.995 110.814 107.917 110.909 107.856C111.017 107.778 111.13 107.73 111.221 107.64C111.42 107.472 111.64 107.346 111.805 107.154C112.185 106.806 112.514 106.42 112.776 105.986C113.037 105.552 113.229 105.069 113.359 104.566C113.484 104.034 113.532 103.499 113.54 102.985Z" fill="#58332F"/>
<path d="M51.8174 76.8778C52.6959 76.6296 53.5264 76.2689 54.3469 75.8492C55.1678 75.4297 55.9157 74.9316 56.6195 74.3505C57.3065 73.7566 57.9208 73.0844 58.3985 72.3137C58.6397 71.943 58.842 71.5184 59.0027 71.1162L59.1313 70.7936C59.1755 70.6963 59.1859 70.5739 59.2303 70.4762C59.3019 70.2688 59.34 70.0367 59.3946 69.817L59.4116 69.8293C59.3655 70.2887 59.29 70.7528 59.1342 71.185C58.9786 71.6169 58.7931 72.0536 58.5566 72.4536C58.0837 73.2537 57.423 73.9184 56.7191 74.4996C55.9979 75.0688 55.2036 75.5594 54.3954 75.962C53.565 76.3227 52.7007 76.659 51.8174 76.8778Z" fill="#58332F"/>
<path d="M64.7603 84.9889C65.365 84.7245 65.9309 84.4068 66.4971 84.0886C67.063 83.7709 67.6077 83.4113 68.1299 83.0101C68.6524 82.6086 69.1237 82.1708 69.5609 81.7083C69.9808 81.2329 70.362 80.7041 70.5606 80.0692L70.5777 80.0815C70.4891 80.7438 70.1346 81.3437 69.7193 81.8479C69.2914 82.3695 68.7692 82.7707 68.2292 83.1596C67.69 83.5485 67.1409 83.8789 66.5456 84.2014C65.9746 84.4902 65.3869 84.7662 64.7603 84.9889Z" fill="#58332F"/>
<path d="M82.3117 94.865C83.0726 94.6359 83.8026 94.3066 84.498 93.9524C85.2064 93.5811 85.8585 93.1437 86.4545 92.6401C87.051 92.1367 87.5863 91.5373 88.0071 90.8814C88.4454 90.2381 88.7467 89.496 88.9554 88.7391L88.9725 88.7514C88.9291 89.1349 88.8444 89.5405 88.7081 89.9088C88.5722 90.2775 88.4068 90.6509 88.1903 90.9874C87.7742 91.6727 87.192 92.2643 86.5618 92.7434C85.9363 93.2518 85.2501 93.6645 84.5372 94.0061C83.8288 94.3775 83.0774 94.6653 82.3117 94.865Z" fill="#58332F"/>
<mask id="mask15_838_3406" style="mask-type:luminance" maskUnits="userSpaceOnUse" x="39" y="42" width="89" height="77">
<path d="M56.0771 42.8799L127.578 94.4167L110.557 118.031L39.0561 66.4944L56.0771 42.8799Z" fill="white"/>
</mask>
<g mask="url(#mask15_838_3406)">
<path d="M117.32 108.598C115.569 110.992 112.254 108.472 110.583 107.268C109.543 106.518 108.684 105.588 107.513 105.055C105.774 104.268 103.827 104.058 102.016 103.478C101.969 103.471 101.935 103.446 101.889 103.439C101.191 103.221 100.535 102.981 99.8736 102.712C99.1955 102.431 98.5124 102.119 97.8712 101.787C96.8565 101.289 95.862 100.728 94.8795 100.149C94.4457 99.8884 94.0166 99.657 93.5824 99.396C92.8052 98.9649 92.0273 98.534 91.2665 98.1155C89.5672 97.2015 87.8385 96.2924 86.1508 95.3614C85.1564 94.8004 84.179 94.2511 83.2136 93.685C80.293 92.0206 77.4138 90.334 74.5549 88.5849C71.6152 86.8029 68.7507 85.2048 65.6918 83.8035C65.0089 83.4929 64.3307 83.2118 63.6354 82.9177C61.3592 81.9773 59.1502 80.7998 57.1058 79.43C55.5166 78.3625 54.0168 77.0997 52.7499 75.6939C50.4469 73.1007 48.9362 69.9116 49.0901 66.2114C49.1614 64.4222 49.6122 62.6468 50.2747 60.9722C50.2747 60.9722 48.1411 58.2161 46.1958 57.6434C46.0055 57.5841 45.8029 57.5419 45.622 57.5407C45.622 57.5407 48.8119 55.8472 48.8441 53.0705C48.8441 53.0705 48.8441 53.0705 48.8612 53.0828C48.883 53.1245 48.953 53.2788 49.0912 53.4823C49.589 54.2298 50.9659 55.663 53.6018 54.9182C57.104 53.9423 62.7812 46.4973 71.3915 54.1814C74.6509 57.1012 77.9808 60.1751 81.0936 63.119C81.7875 63.7743 82.4467 64.4052 83.1356 65.0315C84.3429 66.1607 85.4986 67.2534 86.6161 68.2919C86.6721 68.3582 86.7572 68.4195 86.8132 68.4858C87.986 69.5908 89.1035 70.6293 90.1135 71.5649C90.4687 71.8988 90.8362 72.2156 91.1579 72.5248C92.1118 73.394 92.9882 74.1556 93.7407 74.8018C94.7708 75.6734 95.6508 76.6452 96.4529 77.69C96.8366 78.1996 97.2033 78.6975 97.5457 79.2293C98.0216 79.9351 98.4726 80.6755 98.9119 81.4328C99.7679 82.9053 100.57 84.4167 101.409 85.8771C101.496 86.0437 101.601 86.2228 101.7 86.3723C101.722 86.414 101.727 86.4434 101.761 86.468C101.799 86.5217 101.821 86.5635 101.861 86.6171C101.882 86.6588 101.921 86.7128 101.943 86.7545C101.96 86.7666 101.96 86.7666 101.965 86.796C102.212 87.208 102.455 87.59 102.715 87.9849C102.991 88.3919 103.268 88.7985 103.545 89.2058C105.813 92.4222 108.412 95.0728 111.295 97.903C113.071 99.7535 119.662 105.386 117.32 108.598Z" fill="#B26249"/>
</g>
<path d="M48.6828 53.004C48.7253 53.041 48.7648 53.0815 48.8007 53.1253C48.837 53.1693 48.8698 53.2166 48.8991 53.2672C48.9285 53.3178 48.9546 53.3712 48.9769 53.4282C48.9991 53.4846 49.0181 53.5439 49.0332 53.6061C49.0483 53.6677 49.0598 53.7326 49.0673 53.7997C49.0752 53.8665 49.079 53.9356 49.0795 54.0069C49.0796 54.078 49.0761 54.1509 49.0688 54.2259C49.0615 54.3008 49.051 54.3769 49.0361 54.4544C49.0216 54.5322 49.0035 54.6109 48.9813 54.6906C48.9594 54.7706 48.9339 54.8508 48.9052 54.9322C48.8764 55.013 48.8436 55.0944 48.8079 55.1759C48.7722 55.2575 48.7335 55.3392 48.6911 55.4205C48.649 55.5021 48.6038 55.5831 48.5558 55.6633C48.5072 55.7436 48.4564 55.8229 48.4024 55.9018C48.3488 55.9802 48.2926 56.0573 48.2336 56.1336C48.1752 56.2098 48.1142 56.2841 48.0506 56.3571C47.9873 56.4297 47.922 56.5003 47.8551 56.5691C47.7878 56.6377 47.7188 56.7046 47.6484 56.7686C47.5784 56.8329 47.5066 56.8942 47.4336 56.953C47.3607 57.0117 47.2867 57.068 47.2122 57.121C47.1376 57.174 47.0619 57.2238 46.9861 57.2706C46.9102 57.3175 46.8341 57.3606 46.7581 57.4005C46.6814 57.4404 46.6055 57.4768 46.5294 57.5096C46.4535 57.5421 46.3782 57.5714 46.3035 57.5966C46.2284 57.6215 46.1545 57.6432 46.0813 57.6608C46.0083 57.678 45.9368 57.6916 45.8659 57.7011C45.7954 57.7109 45.7263 57.7164 45.6592 57.7182C45.5917 57.7198 45.526 57.7174 45.4626 57.7109C45.3989 57.7048 45.3378 57.6943 45.2785 57.6798C45.2195 57.6655 45.1629 57.6472 45.1084 57.6252C45.0546 57.6031 45.003 57.577 44.9547 57.5473C44.9063 57.5176 44.8603 57.4845 44.8181 57.4471C44.7751 57.4098 44.7361 57.3695 44.6998 57.3255C44.6635 57.2814 44.6306 57.2341 44.6013 57.1836C44.5717 57.1334 44.5459 57.0796 44.5233 57.0229C44.5011 56.9665 44.4821 56.9073 44.467 56.845C44.4522 56.7831 44.4404 56.7186 44.4329 56.6514C44.425 56.5847 44.4212 56.5156 44.4207 56.4442C44.4208 56.3728 44.4244 56.2998 44.4314 56.2253C44.4387 56.1504 44.4494 56.0739 44.4643 55.9964C44.4789 55.9186 44.4969 55.8399 44.5189 55.7606C44.5408 55.6806 44.5663 55.6004 44.5954 55.5192C44.6241 55.4378 44.6565 55.3568 44.6923 55.2752C44.7282 55.1933 44.7669 55.1116 44.8091 55.0307C44.8512 54.9491 44.8964 54.868 44.945 54.7877C44.993 54.7075 45.0441 54.6278 45.0977 54.5494C45.1517 54.4706 45.2079 54.3934 45.2666 54.3175C45.3256 54.2412 45.3863 54.1667 45.4496 54.0941C45.5129 54.0215 45.5782 53.9509 45.6454 53.8816C45.7127 53.8131 45.7814 53.7466 45.8518 53.6826C45.9222 53.6185 45.9936 53.557 46.0668 53.4978C46.1398 53.4391 46.2135 53.3832 46.288 53.3302C46.3628 53.2768 46.4383 53.2274 46.5141 53.1805C46.59 53.1337 46.6661 53.0905 46.7424 53.0503C46.8188 53.0108 46.8947 52.9743 46.9708 52.9415C47.0469 52.9087 47.122 52.8798 47.1971 52.8549C47.272 52.8293 47.3457 52.8079 47.4189 52.7904C47.4922 52.7728 47.5637 52.7592 47.6346 52.7497C47.7051 52.7399 47.7742 52.7344 47.8413 52.7326C47.9088 52.731 47.9742 52.7338 48.0379 52.7399C48.1013 52.7463 48.163 52.7568 48.222 52.771C48.2809 52.7853 48.3375 52.8036 48.3918 52.8259C48.4456 52.848 48.4974 52.8738 48.5458 52.9035C48.5946 52.9335 48.6399 52.9667 48.6828 53.004Z" fill="#D9A889"/>
<mask id="mask16_838_3406" style="mask-type:luminance" maskUnits="userSpaceOnUse" x="-1" y="0" width="164" height="163">
<path d="M162.542 68.0843L68.084 0L-0.000353283 94.458L94.4577 162.542L162.542 68.0843Z" fill="black" fill-opacity="0.4275"/>
</mask>
<g mask="url(#mask16_838_3406)">
<mask id="mask17_838_3406" style="mask-type:luminance" maskUnits="userSpaceOnUse" x="59" y="73" width="36" height="28">
<path d="M94.6842 97.2851L61.6433 73.4696L59.2618 76.7736L92.3026 100.589L94.6842 97.2851Z" fill="white"/>
</mask>
<g mask="url(#mask17_838_3406)">
<mask id="mask18_838_3406" style="mask-type:luminance" maskUnits="userSpaceOnUse" x="59" y="73" width="36" height="28">
<path d="M61.5952 73.5829L94.5158 97.3116L92.2743 100.421L59.3538 76.6926L61.5952 73.5829Z" fill="white"/>
</mask>
<g mask="url(#mask18_838_3406)">
<path d="M59.8837 76.0386C59.8837 76.0386 85.7323 95.1107 94.3794 97.3507C94.3794 97.3507 71.8756 88.2344 59.8837 76.0386Z" fill="#54210F"/>
</g>
</g>
</g>
<mask id="mask19_838_3406" style="mask-type:luminance" maskUnits="userSpaceOnUse" x="-1" y="0" width="164" height="163">
<path d="M162.542 68.0843L68.084 0L-0.000353283 94.458L94.4577 162.542L162.542 68.0843Z" fill="black" fill-opacity="0.4275"/>
</mask>
<g mask="url(#mask19_838_3406)">
<mask id="mask20_838_3406" style="mask-type:luminance" maskUnits="userSpaceOnUse" x="54" y="63" width="49" height="38">
<path d="M102.686 95.8137L57.8865 63.5227L54.7344 67.8958L99.534 100.187L102.686 95.8137Z" fill="white"/>
</mask>
<g mask="url(#mask20_838_3406)">
<mask id="mask21_838_3406" style="mask-type:luminance" maskUnits="userSpaceOnUse" x="54" y="63" width="49" height="38">
<path d="M57.9121 63.6938L102.58 95.8896L99.5676 100.068L54.9001 67.8725L57.9121 63.6938Z" fill="white"/>
</mask>
<g mask="url(#mask21_838_3406)">
<path d="M55.6361 66.9099C55.6361 66.9099 90.8075 92.8576 102.565 95.8878C102.565 95.8878 71.9372 83.4819 55.6361 66.9099Z" fill="#54210F"/>
</g>
</g>
</g>
<mask id="mask22_838_3406" style="mask-type:luminance" maskUnits="userSpaceOnUse" x="-1" y="0" width="164" height="163">
<path d="M162.542 68.0843L68.084 0L-0.000353283 94.458L94.4577 162.542L162.542 68.0843Z" fill="black" fill-opacity="0.4275"/>
</mask>
<g mask="url(#mask22_838_3406)">
<mask id="mask23_838_3406" style="mask-type:luminance" maskUnits="userSpaceOnUse" x="56" y="59" width="54" height="41">
<path d="M109.056 95.9847L59.009 59.9112L56.3473 63.604L106.395 99.6775L109.056 95.9847Z" fill="white"/>
</mask>
<g mask="url(#mask23_838_3406)">
<mask id="mask24_838_3406" style="mask-type:luminance" maskUnits="userSpaceOnUse" x="56" y="60" width="53" height="40">
<path d="M58.8892 60.1225L108.816 96.1093L106.364 99.5106L56.4376 63.5238L58.8892 60.1225Z" fill="white"/>
</mask>
<g mask="url(#mask24_838_3406)">
<path d="M56.9286 62.8432C56.9286 62.8432 100.207 86.6749 106.296 99.4382C106.296 99.4382 87.8984 75.3137 56.9286 62.8432Z" fill="#54210F"/>
</g>
</g>
</g>
<mask id="mask25_838_3406" style="mask-type:luminance" maskUnits="userSpaceOnUse" x="-1" y="0" width="164" height="163">
<path d="M162.542 68.0843L68.084 0L-0.000353283 94.458L94.4577 162.542L162.542 68.0843Z" fill="black" fill-opacity="0.4275"/>
</mask>
<g mask="url(#mask25_838_3406)">
<mask id="mask26_838_3406" style="mask-type:luminance" maskUnits="userSpaceOnUse" x="59" y="55" width="47" height="36">
<path d="M105.147 85.6345L63.0681 55.3047L59.7059 59.9693L101.784 90.299L105.147 85.6345Z" fill="white"/>
</mask>
<g mask="url(#mask26_838_3406)">
<path d="M62.1543 56.9638C62.1543 56.9638 90.801 71.3633 101.681 89.9913C101.681 89.9913 84.3358 66.5994 62.1543 56.9638Z" fill="#54210F"/>
</g>
</g>
<mask id="mask27_838_3406" style="mask-type:luminance" maskUnits="userSpaceOnUse" x="-1" y="0" width="164" height="163">
<path d="M162.542 68.0843L68.084 0L-0.000353283 94.458L94.4577 162.542L162.542 68.0843Z" fill="black" fill-opacity="0.4275"/>
</mask>
<g mask="url(#mask27_838_3406)">
<mask id="mask28_838_3406" style="mask-type:luminance" maskUnits="userSpaceOnUse" x="65" y="56" width="33" height="26">
<path d="M97.5615 78.5412L67.5332 56.8971L65.0816 60.2984L95.1099 81.9425L97.5615 78.5412Z" fill="white"/>
</mask>
<g mask="url(#mask28_838_3406)">
<mask id="mask29_838_3406" style="mask-type:luminance" maskUnits="userSpaceOnUse" x="65" y="57" width="33" height="25">
<path d="M67.5591 57.0654L97.428 78.5945L95.1165 81.8014L65.2476 60.2723L67.5591 57.0654Z" fill="white"/>
</mask>
<g mask="url(#mask29_838_3406)">
<path d="M66.8545 58.0666C66.8545 58.0666 87.366 68.3657 95.1438 81.6984C95.1438 81.6984 82.7348 64.9756 66.8545 58.0666Z" fill="#54210F"/>
</g>
</g>
</g>
<path d="M67.8809 52.2207C67.8096 53.3623 67.6284 54.4764 67.389 55.6C67.1322 56.711 66.7825 57.8075 66.3353 58.8592C66.1055 59.3933 65.8711 59.8986 65.5902 60.3964C65.3095 60.8938 64.9944 61.367 64.6332 61.8322C64.2839 62.2807 63.8837 62.6919 63.449 63.0789C63.0147 63.4661 62.5541 63.7819 62.0587 64.0731L62.0416 64.0608C62.4981 63.7156 62.9369 63.3581 63.3421 62.9759C63.7424 62.5647 64.1131 62.1576 64.4623 61.7091C65.1435 60.8001 65.7102 59.8346 66.1911 58.8072C66.6556 57.7675 67.0098 56.7007 67.2961 55.5849C67.5532 54.4735 67.7632 53.3547 67.8809 52.2207Z" fill="#C38A65"/>
<path d="M81.9858 65.6559C82.0025 66.3162 81.9479 67.0026 81.8422 67.6526C81.7245 68.3193 81.5429 68.9666 81.3278 69.5891C81.1 70.2284 80.7746 70.8239 80.3811 71.3698L80.0394 71.7719C79.9241 71.8958 79.7914 72.0078 79.6761 72.1318L79.4942 72.3122L79.2911 72.4507C79.1413 72.5504 79.0213 72.645 78.8715 72.7447L78.8544 72.7324C78.97 72.6081 79.1024 72.4964 79.2057 72.3892L79.3873 72.2092L79.5522 72.0165C79.6675 71.8925 79.7831 71.7682 79.869 71.649L80.1519 71.2565C80.516 70.7154 80.8755 70.1445 81.1248 69.5466C81.387 68.9315 81.556 68.3017 81.6911 67.6469C81.8724 67.0001 81.961 66.3377 81.9858 65.6559Z" fill="#C38A65"/>
<path d="M89.4805 71.9396C89.1168 73.4148 88.5802 74.8427 87.992 76.2334C87.3744 77.6295 86.6594 78.9808 85.8253 80.2461C85.4167 80.885 84.974 81.4992 84.4848 82.1058C84.2464 82.4006 83.9909 82.6831 83.7524 82.9779C83.4802 83.2483 83.2244 83.5312 82.9518 83.8013C81.857 84.8529 80.6041 85.7645 79.2539 86.4508L79.2369 86.4385C80.5262 85.6564 81.7454 84.7205 82.806 83.6443C83.3385 83.1208 83.8498 82.5555 84.3438 81.9782C84.8377 81.401 85.2804 80.7867 85.7061 80.1602C86.5573 78.9072 87.2894 77.5683 87.9117 76.2015C88.5289 74.8058 89.0703 73.4073 89.4805 71.9396Z" fill="#C38A65"/>
<path d="M97.3557 80.104C97.3183 80.8033 97.2221 81.5115 97.0968 82.2247C96.9541 82.9259 96.7776 83.6022 96.5255 84.276C96.2729 84.9499 95.9569 85.6035 95.5217 86.1712C95.0869 86.7392 94.4854 87.2136 93.8174 87.4577L93.8003 87.4454C94.4203 87.0887 94.9332 86.6284 95.339 86.0655C95.7447 85.5025 96.0826 84.8906 96.369 84.241C96.6262 83.5969 96.8318 82.9156 96.9915 82.2267C97.1466 81.509 97.2598 80.8125 97.3557 80.104Z" fill="#C38A65"/>
<path d="M99.0188 94.0844C98.9453 94.6538 98.8252 95.2156 98.6713 95.7525C98.5048 96.3068 98.3046 96.8367 98.0581 97.3587C97.7938 97.8686 97.4838 98.3707 97.0201 98.7627C96.792 98.9352 96.5516 99.1247 96.2846 99.2438C96.0176 99.3622 95.7288 99.4395 95.443 99.4407L95.4382 99.4113C95.9866 99.262 96.4984 98.9831 96.8862 98.5884C97.2915 98.2062 97.6405 97.758 97.9091 97.2773C98.1897 96.7799 98.4075 96.2626 98.5907 95.7203C98.7617 95.1958 98.8988 94.6462 99.0188 94.0844Z" fill="#C38A65"/>
<path d="M107.831 95.4847C107.767 96.1129 107.644 96.7502 107.487 97.3633C107.33 97.976 107.127 98.5818 106.861 99.1671C106.594 99.7531 106.264 100.319 105.81 100.769C105.338 101.207 104.714 101.534 104.066 101.535L104.061 101.505C104.673 101.376 105.239 101.058 105.647 100.6C106.071 100.154 106.423 99.63 106.695 99.0737C106.966 98.5175 107.187 97.9243 107.36 97.3239C107.58 96.7304 107.72 96.1053 107.831 95.4847Z" fill="#C38A65"/>
<path d="M114.396 101.797C114.465 102.313 114.416 102.848 114.333 103.359C114.238 103.886 114.062 104.382 113.806 104.845C113.549 105.309 113.23 105.752 112.832 106.088C112.633 106.256 112.401 106.399 112.185 106.555C111.952 106.698 111.71 106.783 111.472 106.896L111.455 106.884C111.563 106.806 111.671 106.729 111.766 106.668C111.874 106.59 111.987 106.542 112.078 106.452C112.276 106.284 112.497 106.157 112.662 105.965C113.042 105.617 113.371 105.232 113.632 104.798C113.894 104.364 114.086 103.881 114.216 103.378C114.34 102.845 114.389 102.31 114.396 101.797Z" fill="#C38A65"/>
<path d="M52.6731 75.6916C53.5516 75.4435 54.3821 75.0828 55.2026 74.6631C56.0235 74.2436 56.7713 73.7455 57.4755 73.1639C58.1625 72.5701 58.7768 71.8979 59.2542 71.1276C59.4954 70.7569 59.6977 70.3322 59.8586 69.9297L59.987 69.6075C60.0315 69.5097 60.0418 69.3874 60.086 69.29C60.1579 69.0823 60.1957 68.8506 60.2505 68.6305L60.2676 68.6428C60.2215 69.1021 60.1459 69.5663 59.9901 69.9985C59.8343 70.4307 59.6487 70.8674 59.4123 71.2675C58.9397 72.0672 58.2789 72.7319 57.5748 73.3134C56.8536 73.8826 56.0596 74.3728 55.2511 74.7759C54.4206 75.1365 53.5564 75.4729 52.6731 75.6916Z" fill="#C38A65"/>
<path d="M65.6158 83.801C66.2203 83.537 66.7864 83.2189 67.3523 82.9011C67.9185 82.583 68.4629 82.2238 68.9854 81.8223C69.5076 81.4211 69.9792 80.9829 70.4164 80.5204C70.8361 80.0454 71.2175 79.5162 71.4159 78.8817L71.433 78.894C71.3446 79.5559 70.9898 80.1562 70.5745 80.6604C70.1469 81.1816 69.6244 81.5832 69.0847 81.9717C68.5452 82.361 67.9964 82.691 67.4008 83.0139C66.8301 83.3023 66.2421 83.5787 65.6158 83.801Z" fill="#C38A65"/>
<path d="M83.1673 93.6778C83.9283 93.4488 84.6585 93.1191 85.3539 92.7649C86.0621 92.3939 86.7141 91.9566 87.3105 91.4526C87.9069 90.9492 88.4422 90.3498 88.8631 89.6939C89.3014 89.0506 89.6027 88.3085 89.8114 87.5515L89.8285 87.5639C89.7851 87.9473 89.7004 88.3529 89.5641 88.7213C89.4281 89.09 89.2628 89.4634 89.0462 89.7999C88.6301 90.4852 88.048 91.0768 87.4177 91.5558C86.7923 92.0643 86.1058 92.4774 85.3929 92.819C84.6848 93.1899 83.9334 93.4778 83.1673 93.6778Z" fill="#C38A65"/>
</svg>
